<?xml version="1.0" encoding="UTF-8" standalone="no"?>
<!-- Created with Inkscape (http://www.inkscape.org/) -->

<svg
   xmlns:dc="http://purl.org/dc/elements/1.1/"
   xmlns:cc="http://creativecommons.org/ns#"
   xmlns:rdf="http://www.w3.org/1999/02/22-rdf-syntax-ns#"
   xmlns:svg="http://www.w3.org/2000/svg"
   xmlns="http://www.w3.org/2000/svg"
   xmlns:xlink="http://www.w3.org/1999/xlink"
   xmlns:sodipodi="http://sodipodi.sourceforge.net/DTD/sodipodi-0.dtd"
   xmlns:inkscape="http://www.inkscape.org/namespaces/inkscape"
   version="1.0"
   width="96"
   height="96"
   id="svg2408"
   inkscape:version="0.48.1 r9760"
   sodipodi:docname="1xonotic.svg"
   inkscape:export-filename="/media/Daten/projekte/ICONS/Faenza-Fresh/apps v0.2/xonotic.png"
   inkscape:export-xdpi="45"
   inkscape:export-ydpi="45">
  <sodipodi:namedview
     pagecolor="#ffffff"
     bordercolor="#666666"
     borderopacity="1"
     objecttolerance="10"
     gridtolerance="10"
     guidetolerance="10"
     inkscape:pageopacity="0"
     inkscape:pageshadow="2"
     inkscape:window-width="482"
     inkscape:window-height="376"
     id="namedview61"
     showgrid="false"
     inkscape:zoom="1.9400196"
     inkscape:cx="69.91881"
     inkscape:cy="39.183048"
     inkscape:window-x="86"
     inkscape:window-y="24"
     inkscape:window-maximized="0"
     inkscape:current-layer="layer1" />
  <defs
     id="defs2410">
    <linearGradient
       id="linearGradient3901">
      <stop
         offset="0"
         style="stop-color:#01050e;stop-opacity:1;"
         id="stop3903" />
      <stop
         offset="1"
         style="stop-color:#081624;stop-opacity:1;"
         id="stop3905" />
    </linearGradient>
    <linearGradient
       id="linearGradient4085">
      <stop
         id="stop4087"
         style="stop-color:#782121;stop-opacity:1"
         offset="0" />
      <stop
         id="stop4089"
         style="stop-color:#782121;stop-opacity:0"
         offset="1" />
    </linearGradient>
    <linearGradient
       id="linearGradient3694">
      <stop
         id="stop3696"
         style="stop-color:#e6e6e6;stop-opacity:1"
         offset="0" />
      <stop
         id="stop3698"
         style="stop-color:#f5f5f5;stop-opacity:1"
         offset="1" />
    </linearGradient>
    <linearGradient
       id="linearGradient3688">
      <stop
         id="stop3690"
         style="stop-color:#ad0d0d;stop-opacity:1"
         offset="0" />
      <stop
         id="stop3692"
         style="stop-color:#e02f11;stop-opacity:1"
         offset="1" />
    </linearGradient>
    <linearGradient
       x1="45.447727"
       y1="92.539597"
       x2="45.447727"
       y2="7.0165396"
       id="ButtonShadow"
       gradientUnits="userSpaceOnUse"
       gradientTransform="scale(1.0058652,0.994169)">
      <stop
         id="stop3750"
         style="stop-color:#000000;stop-opacity:1"
         offset="0" />
      <stop
         id="stop3752"
         style="stop-color:#000000;stop-opacity:0.58823532"
         offset="1" />
    </linearGradient>
    <linearGradient
       id="linearGradient3737">
      <stop
         id="stop3739"
         style="stop-color:#ffffff;stop-opacity:1"
         offset="0" />
      <stop
         id="stop3741"
         style="stop-color:#ffffff;stop-opacity:0"
         offset="1" />
    </linearGradient>
    <filter
       color-interpolation-filters="sRGB"
       id="filter3174">
      <feGaussianBlur
         id="feGaussianBlur3176"
         stdDeviation="1.71" />
    </filter>
    <linearGradient
       x1="36.357143"
       y1="6"
       x2="36.357143"
       y2="63.893143"
       id="linearGradient3188"
       xlink:href="#linearGradient3737"
       gradientUnits="userSpaceOnUse" />
    <filter
       x="-0.192"
       y="-0.192"
       width="1.3839999"
       height="1.3839999"
       color-interpolation-filters="sRGB"
       id="filter3794">
      <feGaussianBlur
         id="feGaussianBlur3796"
         stdDeviation="5.28" />
    </filter>
    <linearGradient
       x1="48"
       y1="20.220806"
       x2="48"
       y2="138.66119"
       id="linearGradient3613"
       xlink:href="#linearGradient3737"
       gradientUnits="userSpaceOnUse" />
    <radialGradient
       cx="48"
       cy="90.171875"
       r="42"
       fx="48"
       fy="90.171875"
       id="radialGradient3619"
       xlink:href="#linearGradient3737"
       gradientUnits="userSpaceOnUse"
       gradientTransform="matrix(1.1573129,0,0,0.99590774,-7.5510206,0.19713193)" />
    <clipPath
       id="clipPath3613">
      <rect
         width="84"
         height="84"
         rx="6"
         ry="6"
         x="6"
         y="6"
         id="rect3615"
         style="fill:#ffffff;fill-opacity:1;fill-rule:nonzero;stroke:none" />
    </clipPath>
    <linearGradient
       x1="48"
       y1="90"
       x2="48"
       y2="5.9877172"
       id="linearGradient3617"
       xlink:href="#linearGradient3901"
       gradientUnits="userSpaceOnUse" />
    <linearGradient
       x1="45.447727"
       y1="92.539597"
       x2="45.447727"
       y2="7.0165396"
       id="ButtonShadow-0"
       gradientUnits="userSpaceOnUse"
       gradientTransform="matrix(1.0058652,0,0,0.994169,100,0)">
      <stop
         id="stop3750-8"
         style="stop-color:#000000;stop-opacity:1"
         offset="0" />
      <stop
         id="stop3752-5"
         style="stop-color:#000000;stop-opacity:0.58823532"
         offset="1" />
    </linearGradient>
    <linearGradient
       x1="32.251034"
       y1="6.1317081"
       x2="32.251034"
       y2="90.238609"
       id="linearGradient3780"
       xlink:href="#ButtonShadow-0"
       gradientUnits="userSpaceOnUse"
       gradientTransform="matrix(1.0238095,0,0,1.0119048,-1.1428571,-98.071429)" />
    <linearGradient
       x1="32.251034"
       y1="6.1317081"
       x2="32.251034"
       y2="90.238609"
       id="linearGradient3772"
       xlink:href="#ButtonShadow-0"
       gradientUnits="userSpaceOnUse"
       gradientTransform="matrix(1.0238095,0,0,1.0119048,-1.1428571,-98.071429)" />
    <linearGradient
       x1="32.251034"
       y1="6.1317081"
       x2="32.251034"
       y2="90.238609"
       id="linearGradient3725"
       xlink:href="#ButtonShadow-0"
       gradientUnits="userSpaceOnUse"
       gradientTransform="matrix(1.0238095,0,0,1.0119048,-1.1428571,-98.071429)" />
    <linearGradient
       x1="32.251034"
       y1="6.1317081"
       x2="32.251034"
       y2="90.238609"
       id="linearGradient3721"
       xlink:href="#ButtonShadow-0"
       gradientUnits="userSpaceOnUse"
       gradientTransform="translate(0,-97)" />
    <linearGradient
       x1="32.251034"
       y1="6.1317081"
       x2="32.251034"
       y2="90.238609"
       id="linearGradient3026"
       xlink:href="#ButtonShadow-0"
       gradientUnits="userSpaceOnUse"
       gradientTransform="matrix(1.0238095,0,0,1.0119048,-1.1428571,-98.071429)" />
    <linearGradient
       x1="-73.494293"
       y1="72.699486"
       x2="-50.243786"
       y2="159.47563"
       id="linearGradient4018"
       xlink:href="#linearGradient3694"
       gradientUnits="userSpaceOnUse"
       gradientTransform="matrix(0.59136097,-0.15844727,-0.15844727,-0.59136097,103.35407,108.29989)" />
    <linearGradient
       x1="-73.494293"
       y1="72.699486"
       x2="-50.243786"
       y2="159.47563"
       id="linearGradient4071"
       xlink:href="#linearGradient3694"
       gradientUnits="userSpaceOnUse"
       gradientTransform="matrix(0.59136097,-0.15844727,-0.15844727,-0.59136097,103.35407,109.29989)" />
    <linearGradient
       x1="58"
       y1="19"
       x2="58"
       y2="120"
       id="linearGradient4091"
       xlink:href="#linearGradient4085"
       gradientUnits="userSpaceOnUse" />
    <filter
       color-interpolation-filters="sRGB"
       inkscape:label="BlurGlow"
       id="filter3625"
       inkscape:collect="always">
      <feGaussianBlur
         id="feGaussianBlur3627"
         stdDeviation="1.2883372"
         inkscape:collect="always" />
    </filter>
    <linearGradient
       gradientUnits="userSpaceOnUse"
       y2="14.375016"
       x2="23.999979"
       y1="46.000004"
       x1="23.999979"
       id="linearGradient3659"
       xlink:href="#linearGradient3606"
       inkscape:collect="always" />
    <radialGradient
       gradientUnits="userSpaceOnUse"
       r="24"
       fy="24"
       fx="24"
       cy="24"
       cx="24"
       id="radialGradient3688"
       xlink:href="#linearGradient3663"
       inkscape:collect="always" />
    <linearGradient
       y2="1480"
       x2="1024"
       y1="1664"
       x1="1024"
       gradientTransform="matrix(0.17187493,0,0,0.17187493,-151.99995,-239.99988)"
       gradientUnits="userSpaceOnUse"
       id="linearGradient3708"
       xlink:href="#linearGradient3606"
       inkscape:collect="always" />
    <linearGradient
       gradientTransform="matrix(0.17187493,0,0,0.17187493,-151.99995,-63.999958)"
       y2="384"
       x2="1024"
       y1="640"
       x1="1024"
       gradientUnits="userSpaceOnUse"
       id="linearGradient3705"
       xlink:href="#linearGradient3698"
       inkscape:collect="always" />
    <linearGradient
       gradientTransform="matrix(0.17187492,0,0,0.17187492,-151.99994,-63.999955)"
       gradientUnits="userSpaceOnUse"
       y2="440"
       x2="1024"
       y1="640"
       x1="1024"
       id="linearGradient4204"
       xlink:href="#linearGradient3666"
       inkscape:collect="always" />
    <linearGradient
       gradientTransform="matrix(0.17187492,0,0,0.17187492,-151.99994,-63.999955)"
       gradientUnits="userSpaceOnUse"
       y2="440"
       x2="1024"
       y1="640"
       x1="1024"
       id="linearGradient4196"
       xlink:href="#linearGradient3674"
       inkscape:collect="always" />
    <linearGradient
       id="linearGradient3606">
      <stop
         id="stop3608"
         offset="0"
         style="stop-color:#bfdfff;stop-opacity:1;" />
      <stop
         style="stop-color:#5fafff;stop-opacity:1;"
         offset="0.2"
         id="stop3616" />
      <stop
         style="stop-color:#5fafff;stop-opacity:1;"
         offset="0.80000001"
         id="stop3614" />
      <stop
         id="stop3610"
         offset="1"
         style="stop-color:#bfdfff;stop-opacity:1;" />
    </linearGradient>
    <linearGradient
       id="linearGradient3666">
      <stop
         id="stop3668"
         offset="0"
         style="stop-color:#3f0f00;stop-opacity:1;" />
      <stop
         style="stop-color:#ff7f2f;stop-opacity:1;"
         offset="0.75"
         id="stop3671" />
      <stop
         id="stop3670"
         offset="1"
         style="stop-color:#ff9f5f;stop-opacity:1;" />
    </linearGradient>
    <linearGradient
       id="linearGradient3674">
      <stop
         id="stop3676"
         offset="0"
         style="stop-color:#000000;stop-opacity:1;" />
      <stop
         id="stop3678"
         offset="1"
         style="stop-color:#4f0f00;stop-opacity:1;" />
    </linearGradient>
    <linearGradient
       id="linearGradient3698">
      <stop
         id="stop3700"
         offset="0"
         style="stop-color:#000000;stop-opacity:1;" />
      <stop
         style="stop-color:#0f3f6f;stop-opacity:1;"
         offset="0.5"
         id="stop3706" />
      <stop
         id="stop3702"
         offset="1"
         style="stop-color:#000000;stop-opacity:1;" />
    </linearGradient>
    <linearGradient
       id="linearGradient3663">
      <stop
         id="stop3667"
         offset="0"
         style="stop-color:#000000;stop-opacity:1;" />
      <stop
         style="stop-color:#000000;stop-opacity:1;"
         offset="0.25"
         id="stop3629" />
      <stop
         style="stop-color:#000f1f;stop-opacity:1;"
         offset="0.94"
         id="stop3659" />
      <stop
         style="stop-color:#000f1f;stop-opacity:0;"
         offset="1"
         id="stop3690-6" />
    </linearGradient>
    <radialGradient
       inkscape:collect="always"
       xlink:href="#linearGradient3663"
       id="radialGradient3121"
       gradientUnits="userSpaceOnUse"
       cx="24"
       cy="24"
       fx="24"
       fy="24"
       r="24" />
    <linearGradient
       inkscape:collect="always"
       xlink:href="#linearGradient3674"
       id="linearGradient3123"
       gradientUnits="userSpaceOnUse"
       gradientTransform="matrix(0.17187492,0,0,0.17187492,-151.99994,-63.999955)"
       x1="1024"
       y1="640"
       x2="1024"
       y2="440" />
    <linearGradient
       inkscape:collect="always"
       xlink:href="#linearGradient3666"
       id="linearGradient3125"
       gradientUnits="userSpaceOnUse"
       gradientTransform="matrix(0.17187492,0,0,0.17187492,-151.99994,-63.999955)"
       x1="1024"
       y1="640"
       x2="1024"
       y2="440" />
    <linearGradient
       inkscape:collect="always"
       xlink:href="#linearGradient3606"
       id="linearGradient3127"
       gradientUnits="userSpaceOnUse"
       gradientTransform="matrix(0.17187493,0,0,0.17187493,-151.99995,-239.99988)"
       x1="1024"
       y1="1664"
       x2="1024"
       y2="1480" />
    <linearGradient
       inkscape:collect="always"
       xlink:href="#linearGradient3606"
       id="linearGradient3129"
       gradientUnits="userSpaceOnUse"
       x1="23.999979"
       y1="46.000004"
       x2="23.999979"
       y2="14.375016" />
    <linearGradient
       inkscape:collect="always"
       xlink:href="#linearGradient3698"
       id="linearGradient3131"
       gradientUnits="userSpaceOnUse"
       gradientTransform="matrix(0.17187493,0,0,0.17187493,-151.99995,-63.999958)"
       x1="1024"
       y1="640"
       x2="1024"
       y2="384" />
  </defs>
  <metadata
     id="metadata2413">
    <rdf:RDF>
      <cc:Work
         rdf:about="">
        <dc:format>image/svg+xml</dc:format>
        <dc:type
           rdf:resource="http://purl.org/dc/dcmitype/StillImage" />
        <dc:title></dc:title>
      </cc:Work>
    </rdf:RDF>
  </metadata>
  <g
     id="layer2"
     style="display:none">
    <rect
       width="86"
       height="85"
       rx="6"
       ry="6"
       x="5"
       y="7"
       id="rect3745"
       style="opacity:0.9;fill:url(#ButtonShadow);fill-opacity:1;fill-rule:nonzero;stroke:none;filter:url(#filter3174)" />
  </g>
  <g
     id="layer3">
    <path
       d="m 12,-95.03125 c -5.5110903,0 -10.03125,4.52016 -10.03125,10.03125 l 0,71 c 0,5.5110902 4.5201598,10.03125 10.03125,10.03125 l 72,0 c 5.51109,0 10.03125,-4.5201597 10.03125,-10.03125 l 0,-71 c 0,-5.51109 -4.52016,-10.03125 -10.03125,-10.03125 l -72,0 z"
       transform="scale(1,-1)"
       id="path3786"
       style="opacity:0.07999998;fill:url(#linearGradient3026);fill-opacity:1;fill-rule:nonzero;stroke:none;display:inline" />
    <path
       d="m 12,-94.03125 c -4.971633,0 -9.03125,4.059617 -9.03125,9.03125 l 0,71 c 0,4.9716329 4.0596171,9.03125 9.03125,9.03125 l 72,0 c 4.971633,0 9.03125,-4.059617 9.03125,-9.03125 l 0,-71 c 0,-4.971633 -4.059617,-9.03125 -9.03125,-9.03125 l -72,0 z"
       transform="scale(1,-1)"
       id="path3778"
       style="opacity:0.1;fill:url(#linearGradient3780);fill-opacity:1;fill-rule:nonzero;stroke:none;display:inline" />
    <path
       d="m 12,-93 c -4.4091333,0 -8,3.590867 -8,8 l 0,71 c 0,4.4091333 3.5908667,8 8,8 l 72,0 c 4.409133,0 8,-3.5908667 8,-8 l 0,-71 c 0,-4.409133 -3.590867,-8 -8,-8 l -72,0 z"
       transform="scale(1,-1)"
       id="path3770"
       style="opacity:0.2;fill:url(#linearGradient3772);fill-opacity:1;fill-rule:nonzero;stroke:none;display:inline" />
    <rect
       width="86"
       height="85"
       rx="7"
       ry="7"
       x="5"
       y="-92"
       transform="scale(1,-1)"
       id="rect3723"
       style="opacity:0.3;fill:url(#linearGradient3725);fill-opacity:1;fill-rule:nonzero;stroke:none;display:inline" />
    <rect
       width="84"
       height="84"
       rx="6"
       ry="6"
       x="6"
       y="-91"
       transform="scale(1,-1)"
       id="rect3716"
       style="opacity:0.45;fill:url(#linearGradient3721);fill-opacity:1;fill-rule:nonzero;stroke:none;display:inline" />
  </g>
  <g
     id="layer1">
    <rect
       width="84"
       height="84"
       rx="6"
       ry="6"
       x="6"
       y="6"
       id="rect2419"
       style="fill:url(#linearGradient3617);fill-opacity:1.0;fill-rule:nonzero;stroke:none" />
    <g
       transform="matrix(1.7188698,0,0,1.7188698,6.7471248,5.5937551)"
       id="g3107">
      <path
         inkscape:connector-curvature="0"
         style="fill:url(#radialGradient3121);fill-opacity:1;fill-rule:evenodd;stroke:none"
         d="M 24,0 C 10.745169,0 0,10.745167 0,24.000001 0,37.254834 10.745169,48 24,48 37.254832,48 48,37.254834 48,24.000001 48,10.745167 37.254832,0 24,0 z"
         id="path3109" />
      <path
         inkscape:connector-curvature="0"
         id="path3111"
         d="M 14.59521,4.1108501 C 7.1529823,7.6393737 2,15.221066 2,24.000008 2,36.144003 11.855996,46 24.00001,46 36.144004,46 46,36.144003 46,24.000008 46,15.221066 40.847035,7.6393737 33.404798,4.1108501 c 5.873878,3.2974907 9.845203,9.5841859 9.845203,16.7954099 0,9.375076 -6.713968,17.190463 -15.592288,18.900852 -1.184595,0.22825 -2.626455,5.505388 -3.657703,5.505388 -1.03125,0 -2.473145,-5.277138 -3.65774,-5.505388 C 11.463975,38.096723 4.7499989,30.281336 4.7499989,20.90626 c 0,-7.211224 3.971325,-13.4979192 9.8452111,-16.7954099 z"
         style="fill:#1f7fff;fill-opacity:1;stroke:#1f7fff;stroke-width:0.5;stroke-linejoin:round;stroke-miterlimit:4;stroke-opacity:1;stroke-dasharray:none;filter:url(#filter3625)" />
      <path
         inkscape:connector-curvature="0"
         sodipodi:nodetypes="cccccccsccccccccccc"
         id="path3113"
         d="M 29.687991,11.576669 C 23.844,12.519302 16.365576,19.817205 9.0791026,25.681248 l 8.9589794,-4.135834 -5.177731,5.505443 4.474116,-2.094839 c -1.468653,2.894979 -1.311398,7.902177 -6.144531,8.889096 2.516557,2.490619 5.75061,4.259199 9.3672,4.952198 1.724106,0.327691 2.927231,5.140188 3.442856,5.140188 0.515624,0 1.718749,-4.812497 3.442855,-5.140188 3.755168,-0.719509 7.096824,-2.598749 9.65187,-5.242157 -12.786198,0.15983 -11.978259,-12.81296 -0.682121,-15.651334 -0.871233,-0.811777 -3.770854,-0.659669 -6.144532,-0.284668 0.413655,-2.766235 4.336165,-4.091052 7.234851,-3.732915 -1.656599,-1.680612 -3.673569,-2.894803 -7.02001,-1.498529 l -0.794914,-0.81104 z m -1.605967,2.331063 0.87011,0.859375 c -1.136057,0.962081 -2.14546,1.026035 -3.104485,0.166495 l 2.234375,-1.02587 z"
         style="fill:none;stroke:#ff7f2f;stroke-width:2.20000005;stroke-linejoin:round;stroke-miterlimit:4;stroke-opacity:0.37254902;stroke-dasharray:none;filter:url(#filter3625)" />
      <path
         inkscape:connector-curvature="0"
         style="fill:url(#linearGradient3123);fill-opacity:1;fill-rule:evenodd;stroke:url(#linearGradient3125);stroke-width:1.30085478;stroke-linejoin:round;stroke-miterlimit:4;stroke-opacity:1;stroke-dasharray:none"
         d="M 29.687991,11.576669 C 23.844,12.519302 16.365576,19.817205 9.0791026,25.681248 l 8.9589794,-4.135834 -5.177731,5.505443 4.474116,-2.094839 c -1.468653,2.894979 -1.311398,7.902177 -6.144531,8.889096 2.516557,2.490619 5.75061,4.259199 9.3672,4.952198 1.724106,0.327691 2.927231,5.140188 3.442856,5.140188 0.515624,0 1.718749,-4.812497 3.442855,-5.140188 3.755168,-0.719509 7.096824,-2.598749 9.65187,-5.242157 -12.786198,0.15983 -11.978259,-12.81296 -0.682121,-15.651334 -0.871233,-0.811777 -3.770854,-0.659669 -6.144532,-0.284668 0.413655,-2.766235 4.336165,-4.091052 7.234851,-3.732915 -1.656599,-1.680612 -3.673569,-2.894803 -7.02001,-1.498529 l -0.794914,-0.81104 z m -1.605967,2.331063 0.87011,0.859375 c -1.136057,0.962081 -2.14546,1.026035 -3.104485,0.166495 l 2.234375,-1.02587 z"
         id="path3115"
         sodipodi:nodetypes="cccccccsccccccccccc" />
      <path
         inkscape:connector-curvature="0"
         style="fill:url(#linearGradient3127);fill-opacity:1;stroke:url(#linearGradient3129);stroke-width:1.30085478;stroke-linejoin:round;stroke-miterlimit:4;stroke-opacity:1;stroke-dasharray:none"
         d="M 14.59521,4.1108501 C 7.1529823,7.6393737 2,15.221066 2,24.000008 2,36.144003 11.855996,46 24.00001,46 36.144004,46 46,36.144003 46,24.000008 46,15.221066 40.847035,7.6393737 33.404798,4.1108501 c 5.873878,3.2974907 9.845203,9.5841859 9.845203,16.7954099 0,9.375076 -6.713968,17.190463 -15.592288,18.900852 -1.184595,0.22825 -2.626455,5.505388 -3.657703,5.505388 -1.03125,0 -2.473145,-5.277138 -3.65774,-5.505388 C 11.463975,38.096723 4.7499989,30.281336 4.7499989,20.90626 c 0,-7.211224 3.971325,-13.4979192 9.8452111,-16.7954099 z"
         id="path3117" />
      <path
         inkscape:connector-curvature="0"
         style="fill:url(#linearGradient3131);fill-opacity:1;stroke:none"
         d="m 6.8876934,11.007341 c -2.7434952,3.607955 -4.3720686,8.110385 -4.3720686,12.992667 0,11.635136 9.2500592,21.120762 20.7968672,21.484312 C 21.937493,44.28125 20.906243,40.500002 20.218743,40.328072 11.103551,38.569833 4.2343741,30.534776 4.2343741,20.90626 c 0,-3.606074 0.9664476,-6.98844 2.6533193,-9.898919 z m 34.2245966,0 c 1.686866,2.910479 2.653319,6.292845 2.653319,9.898919 0,9.628516 -6.869171,17.663573 -15.984369,19.421812 -0.6875,0.17193 -1.71875,3.953178 -3.093749,5.156248 11.546815,-0.36355 20.796867,-9.849176 20.796867,-21.484312 0,-4.882282 -1.628566,-9.384712 -4.372068,-12.992667 z"
         id="path3119"
         sodipodi:nodetypes="csccsccsccsc" />
    </g>
    <path
       d="M 12,6 C 8.676,6 6,8.676 6,12 l 0,2 0,68 0,2 c 0,0.334721 0.04135,0.6507 0.09375,0.96875 0.0487,0.295596 0.09704,0.596915 0.1875,0.875 0.00988,0.03038 0.020892,0.0636 0.03125,0.09375 0.098865,0.287771 0.2348802,0.547452 0.375,0.8125 0.1445918,0.273507 0.3156161,0.535615 0.5,0.78125 0.1843839,0.245635 0.3737765,0.473472 0.59375,0.6875 0.439947,0.428056 0.94291,0.814526 1.5,1.09375 0.278545,0.139612 0.5734731,0.246947 0.875,0.34375 -0.2562018,-0.100222 -0.4867109,-0.236272 -0.71875,-0.375 -0.00741,-0.0044 -0.023866,0.0045 -0.03125,0 -0.031933,-0.0193 -0.062293,-0.04251 -0.09375,-0.0625 -0.120395,-0.0767 -0.2310226,-0.163513 -0.34375,-0.25 -0.1061728,-0.0808 -0.2132809,-0.161112 -0.3125,-0.25 C 8.4783201,88.557317 8.3087904,88.373362 8.15625,88.1875 8.0486711,88.057245 7.9378561,87.922215 7.84375,87.78125 7.818661,87.74287 7.805304,87.69538 7.78125,87.65625 7.716487,87.553218 7.6510225,87.451733 7.59375,87.34375 7.4927417,87.149044 7.3880752,86.928049 7.3125,86.71875 7.30454,86.69694 7.288911,86.6782 7.28125,86.65625 7.2494249,86.5643 7.2454455,86.469419 7.21875,86.375 7.1884177,86.268382 7.1483606,86.171969 7.125,86.0625 7.0521214,85.720988 7,85.364295 7,85 L 7,83 7,15 7,13 C 7,10.218152 9.2181517,8 12,8 l 2,0 68,0 2,0 c 2.781848,0 5,2.218152 5,5 l 0,2 0,68 0,2 c 0,0.364295 -0.05212,0.720988 -0.125,1.0625 -0.04415,0.206893 -0.08838,0.397658 -0.15625,0.59375 -0.0077,0.02195 -0.0233,0.04069 -0.03125,0.0625 -0.06274,0.173739 -0.138383,0.367449 -0.21875,0.53125 -0.04158,0.0828 -0.07904,0.169954 -0.125,0.25 -0.0546,0.09721 -0.126774,0.18835 -0.1875,0.28125 -0.09411,0.140965 -0.204921,0.275995 -0.3125,0.40625 -0.143174,0.17445 -0.303141,0.346998 -0.46875,0.5 -0.01117,0.0102 -0.01998,0.02115 -0.03125,0.03125 -0.138386,0.125556 -0.285091,0.234436 -0.4375,0.34375 -0.102571,0.07315 -0.204318,0.153364 -0.3125,0.21875 -0.0074,0.0045 -0.02384,-0.0044 -0.03125,0 -0.232039,0.138728 -0.462548,0.274778 -0.71875,0.375 0.301527,-0.0968 0.596455,-0.204138 0.875,-0.34375 0.55709,-0.279224 1.060053,-0.665694 1.5,-1.09375 0.219973,-0.214028 0.409366,-0.441865 0.59375,-0.6875 0.184384,-0.245635 0.355408,-0.507743 0.5,-0.78125 0.14012,-0.265048 0.276135,-0.524729 0.375,-0.8125 0.01041,-0.03078 0.02133,-0.06274 0.03125,-0.09375 0.09046,-0.278085 0.1388,-0.579404 0.1875,-0.875 C 89.95865,84.6507 90,84.334721 90,84 l 0,-2 0,-68 0,-2 C 90,8.676 87.324,6 84,6 L 12,6 z"
       inkscape:connector-curvature="0"
       id="rect3728"
       style="opacity:0.35;fill:url(#linearGradient3188);fill-opacity:1;fill-rule:nonzero;stroke:none" />
    <path
       d="M 12,90 C 8.676,90 6,87.324 6,84 L 6,82 6,14 6,12 c 0,-0.334721 0.04135,-0.6507 0.09375,-0.96875 0.0487,-0.295596 0.09704,-0.596915 0.1875,-0.875 C 6.29113,10.12587 6.302142,10.09265 6.3125,10.0625 6.411365,9.774729 6.5473802,9.515048 6.6875,9.25 6.8320918,8.976493 7.0031161,8.714385 7.1875,8.46875 7.3718839,8.223115 7.5612765,7.995278 7.78125,7.78125 8.221197,7.353194 8.72416,6.966724 9.28125,6.6875 9.559795,6.547888 9.8547231,6.440553 10.15625,6.34375 9.9000482,6.443972 9.6695391,6.580022 9.4375,6.71875 c -0.00741,0.0044 -0.023866,-0.0045 -0.03125,0 -0.031933,0.0193 -0.062293,0.04251 -0.09375,0.0625 -0.120395,0.0767 -0.2310226,0.163513 -0.34375,0.25 -0.1061728,0.0808 -0.2132809,0.161112 -0.3125,0.25 C 8.4783201,7.442683 8.3087904,7.626638 8.15625,7.8125 8.0486711,7.942755 7.9378561,8.077785 7.84375,8.21875 7.818661,8.25713 7.805304,8.30462 7.78125,8.34375 7.716487,8.446782 7.6510225,8.548267 7.59375,8.65625 7.4927417,8.850956 7.3880752,9.071951 7.3125,9.28125 7.30454,9.30306 7.288911,9.3218 7.28125,9.34375 7.2494249,9.4357 7.2454455,9.530581 7.21875,9.625 7.1884177,9.731618 7.1483606,9.828031 7.125,9.9375 7.0521214,10.279012 7,10.635705 7,11 l 0,2 0,68 0,2 c 0,2.781848 2.2181517,5 5,5 l 2,0 68,0 2,0 c 2.781848,0 5,-2.218152 5,-5 l 0,-2 0,-68 0,-2 C 89,10.635705 88.94788,10.279012 88.875,9.9375 88.83085,9.730607 88.78662,9.539842 88.71875,9.34375 88.71105,9.3218 88.69545,9.30306 88.6875,9.28125 88.62476,9.107511 88.549117,8.913801 88.46875,8.75 88.42717,8.6672 88.38971,8.580046 88.34375,8.5 88.28915,8.40279 88.216976,8.31165 88.15625,8.21875 88.06214,8.077785 87.951329,7.942755 87.84375,7.8125 87.700576,7.63805 87.540609,7.465502 87.375,7.3125 87.36383,7.3023 87.35502,7.29135 87.34375,7.28125 87.205364,7.155694 87.058659,7.046814 86.90625,6.9375 86.803679,6.86435 86.701932,6.784136 86.59375,6.71875 c -0.0074,-0.0045 -0.02384,0.0044 -0.03125,0 -0.232039,-0.138728 -0.462548,-0.274778 -0.71875,-0.375 0.301527,0.0968 0.596455,0.204138 0.875,0.34375 0.55709,0.279224 1.060053,0.665694 1.5,1.09375 0.219973,0.214028 0.409366,0.441865 0.59375,0.6875 0.184384,0.245635 0.355408,0.507743 0.5,0.78125 0.14012,0.265048 0.276135,0.524729 0.375,0.8125 0.01041,0.03078 0.02133,0.06274 0.03125,0.09375 0.09046,0.278085 0.1388,0.579404 0.1875,0.875 C 89.95865,11.3493 90,11.665279 90,12 l 0,2 0,68 0,2 c 0,3.324 -2.676,6 -6,6 l -72,0 z"
       inkscape:connector-curvature="0"
       id="path3615"
       style="opacity:0.2;fill:url(#radialGradient3619);fill-opacity:1;fill-rule:nonzero;stroke:none" />
    <g
       id="XonoticIcon"
       transform="translate(-61.113022,-99.803296)">
      <path
         id="BackgroundCircle"
         d="M 24,0 C 10.745169,0 0,10.745167 0,24.000001 0,37.254834 10.745169,48 24,48 37.254832,48 48,37.254834 48,24.000001 48,10.745167 37.254832,0 24,0 z"
         style="fill:url(#radialGradient3688);fill-opacity:1;fill-rule:evenodd;stroke:none"
         inkscape:connector-curvature="0" />
      <path
         style="fill:#1f7fff;fill-opacity:1;stroke:#1f7fff;stroke-width:0.5;stroke-linejoin:round;stroke-miterlimit:4;stroke-opacity:1;stroke-dasharray:none;filter:url(#filter3625)"
         d="M 14.59521,4.1108501 C 7.1529823,7.6393737 2,15.221066 2,24.000008 2,36.144003 11.855996,46 24.00001,46 36.144004,46 46,36.144003 46,24.000008 46,15.221066 40.847035,7.6393737 33.404798,4.1108501 c 5.873878,3.2974907 9.845203,9.5841859 9.845203,16.7954099 0,9.375076 -6.713968,17.190463 -15.592288,18.900852 -1.184595,0.22825 -2.626455,5.505388 -3.657703,5.505388 -1.03125,0 -2.473145,-5.277138 -3.65774,-5.505388 C 11.463975,38.096723 4.7499989,30.281336 4.7499989,20.90626 c 0,-7.211224 3.971325,-13.4979192 9.8452111,-16.7954099 z"
         id="RingGlow"
         inkscape:connector-curvature="0" />
      <path
         style="fill:none;stroke:#ff7f2f;stroke-width:2.20000005;stroke-linejoin:round;stroke-miterlimit:4;stroke-opacity:0.37254902;stroke-dasharray:none;filter:url(#filter3625)"
         d="M 29.687991,11.576669 C 23.844,12.519302 16.365576,19.817205 9.0791026,25.681248 l 8.9589794,-4.135834 -5.177731,5.505443 4.474116,-2.094839 c -1.468653,2.894979 -1.311398,7.902177 -6.144531,8.889096 2.516557,2.490619 5.75061,4.259199 9.3672,4.952198 1.724106,0.327691 2.927231,5.140188 3.442856,5.140188 0.515624,0 1.718749,-4.812497 3.442855,-5.140188 3.755168,-0.719509 7.096824,-2.598749 9.65187,-5.242157 -12.786198,0.15983 -11.978259,-12.81296 -0.682121,-15.651334 -0.871233,-0.811777 -3.770854,-0.659669 -6.144532,-0.284668 0.413655,-2.766235 4.336165,-4.091052 7.234851,-3.732915 -1.656599,-1.680612 -3.673569,-2.894803 -7.02001,-1.498529 l -0.794914,-0.81104 z m -1.605967,2.331063 0.87011,0.859375 c -1.136057,0.962081 -2.14546,1.026035 -3.104485,0.166495 l 2.234375,-1.02587 z"
         id="PhoenixHeadGlow"
         sodipodi:nodetypes="cccccccsccccccccccc"
         inkscape:connector-curvature="0" />
      <path
         sodipodi:nodetypes="cccccccsccccccccccc"
         id="PhoenixHead"
         d="M 29.687991,11.576669 C 23.844,12.519302 16.365576,19.817205 9.0791026,25.681248 l 8.9589794,-4.135834 -5.177731,5.505443 4.474116,-2.094839 c -1.468653,2.894979 -1.311398,7.902177 -6.144531,8.889096 2.516557,2.490619 5.75061,4.259199 9.3672,4.952198 1.724106,0.327691 2.927231,5.140188 3.442856,5.140188 0.515624,0 1.718749,-4.812497 3.442855,-5.140188 3.755168,-0.719509 7.096824,-2.598749 9.65187,-5.242157 -12.786198,0.15983 -11.978259,-12.81296 -0.682121,-15.651334 -0.871233,-0.811777 -3.770854,-0.659669 -6.144532,-0.284668 0.413655,-2.766235 4.336165,-4.091052 7.234851,-3.732915 -1.656599,-1.680612 -3.673569,-2.894803 -7.02001,-1.498529 l -0.794914,-0.81104 z m -1.605967,2.331063 0.87011,0.859375 c -1.136057,0.962081 -2.14546,1.026035 -3.104485,0.166495 l 2.234375,-1.02587 z"
         style="fill:url(#linearGradient4196);fill-opacity:1;fill-rule:evenodd;stroke:url(#linearGradient4204);stroke-width:0.54999977;stroke-linejoin:round;stroke-miterlimit:4;stroke-opacity:1;stroke-dasharray:none"
         inkscape:connector-curvature="0" />
      <path
         id="RingBorder"
         d="M 14.59521,4.1108501 C 7.1529823,7.6393737 2,15.221066 2,24.000008 2,36.144003 11.855996,46 24.00001,46 36.144004,46 46,36.144003 46,24.000008 46,15.221066 40.847035,7.6393737 33.404798,4.1108501 c 5.873878,3.2974907 9.845203,9.5841859 9.845203,16.7954099 0,9.375076 -6.713968,17.190463 -15.592288,18.900852 -1.184595,0.22825 -2.626455,5.505388 -3.657703,5.505388 -1.03125,0 -2.473145,-5.277138 -3.65774,-5.505388 C 11.463975,38.096723 4.7499989,30.281336 4.7499989,20.90626 c 0,-7.211224 3.971325,-13.4979192 9.8452111,-16.7954099 z"
         style="fill:url(#linearGradient3708);fill-opacity:1;stroke:url(#linearGradient3659);stroke-width:0.25;stroke-linejoin:round;stroke-miterlimit:4;stroke-opacity:1;stroke-dasharray:none"
         inkscape:connector-curvature="0" />
      <path
         sodipodi:nodetypes="csccsccsccsc"
         id="RingBody"
         d="m 6.8876934,11.007341 c -2.7434952,3.607955 -4.3720686,8.110385 -4.3720686,12.992667 0,11.635136 9.2500592,21.120762 20.7968672,21.484312 C 21.937493,44.28125 20.906243,40.500002 20.218743,40.328072 11.103551,38.569833 4.2343741,30.534776 4.2343741,20.90626 c 0,-3.606074 0.9664476,-6.98844 2.6533193,-9.898919 z m 34.2245966,0 c 1.686866,2.910479 2.653319,6.292845 2.653319,9.898919 0,9.628516 -6.869171,17.663573 -15.984369,19.421812 -0.6875,0.17193 -1.71875,3.953178 -3.093749,5.156248 11.546815,-0.36355 20.796867,-9.849176 20.796867,-21.484312 0,-4.882282 -1.628566,-9.384712 -4.372068,-12.992667 z"
         style="fill:url(#linearGradient3705);fill-opacity:1;stroke:none"
         inkscape:connector-curvature="0" />
    </g>
  </g>
  <g
     id="layer5" />
</svg>
