<?xml version="1.0" encoding="UTF-8" standalone="no"?>
<!-- Created with Inkscape (http://www.inkscape.org/) -->

<svg
   xmlns:dc="http://purl.org/dc/elements/1.1/"
   xmlns:cc="http://creativecommons.org/ns#"
   xmlns:rdf="http://www.w3.org/1999/02/22-rdf-syntax-ns#"
   xmlns:svg="http://www.w3.org/2000/svg"
   xmlns="http://www.w3.org/2000/svg"
   xmlns:xlink="http://www.w3.org/1999/xlink"
   xmlns:sodipodi="http://sodipodi.sourceforge.net/DTD/sodipodi-0.dtd"
   xmlns:inkscape="http://www.inkscape.org/namespaces/inkscape"
   version="1.0"
   width="96"
   height="96"
   id="svg2408"
   inkscape:version="0.48.0 r9654"
   sodipodi:docname="kde-logo.svg">
  <metadata
     id="metadata5192">
    <rdf:RDF>
      <cc:Work
         rdf:about="">
        <dc:format>image/svg+xml</dc:format>
        <dc:type
           rdf:resource="http://purl.org/dc/dcmitype/StillImage" />
        <dc:title></dc:title>
      </cc:Work>
    </rdf:RDF>
  </metadata>
  <sodipodi:namedview
     pagecolor="#ffffff"
     bordercolor="#666666"
     borderopacity="1"
     objecttolerance="10"
     gridtolerance="10"
     guidetolerance="10"
     inkscape:pageopacity="0"
     inkscape:pageshadow="2"
     inkscape:window-width="1280"
     inkscape:window-height="741"
     id="namedview5190"
     showgrid="false"
     inkscape:zoom="2.8541667"
     inkscape:cx="48"
     inkscape:cy="48"
     inkscape:window-x="0"
     inkscape:window-y="0"
     inkscape:window-maximized="1"
     inkscape:current-layer="svg2408" />
  <defs
     id="defs2410">
    <linearGradient
       x1="45.447727"
       y1="92.539597"
       x2="45.447727"
       y2="7.0165396"
       id="ButtonShadow"
       gradientUnits="userSpaceOnUse"
       gradientTransform="scale(1.0058652,0.994169)">
      <stop
         id="stop3750"
         style="stop-color:#000000;stop-opacity:1"
         offset="0" />
      <stop
         id="stop3752"
         style="stop-color:#000000;stop-opacity:0.58823532"
         offset="1" />
    </linearGradient>
    <linearGradient
       id="linearGradient3737">
      <stop
         id="stop3739"
         style="stop-color:#ffffff;stop-opacity:1"
         offset="0" />
      <stop
         id="stop3741"
         style="stop-color:#ffffff;stop-opacity:0"
         offset="1" />
    </linearGradient>
    <filter
       color-interpolation-filters="sRGB"
       id="filter3174">
      <feGaussianBlur
         id="feGaussianBlur3176"
         stdDeviation="1.71" />
    </filter>
    <linearGradient
       x1="36.357143"
       y1="6"
       x2="36.357143"
       y2="63.893143"
       id="linearGradient3188"
       xlink:href="#linearGradient3737"
       gradientUnits="userSpaceOnUse" />
    <filter
       x="-0.192"
       y="-0.192"
       width="1.3839999"
       height="1.3839999"
       color-interpolation-filters="sRGB"
       id="filter3794">
      <feGaussianBlur
         id="feGaussianBlur3796"
         stdDeviation="5.28" />
    </filter>
    <linearGradient
       x1="48"
       y1="20.220806"
       x2="48"
       y2="138.66119"
       id="linearGradient3613"
       xlink:href="#linearGradient3737"
       gradientUnits="userSpaceOnUse" />
    <radialGradient
       cx="48"
       cy="90.171875"
       r="42"
       fx="48"
       fy="90.171875"
       id="radialGradient3619"
       xlink:href="#linearGradient3737"
       gradientUnits="userSpaceOnUse"
       gradientTransform="matrix(1.1573129,0,0,0.99590774,-7.5510206,0.19713193)" />
    <clipPath
       id="clipPath3613">
      <rect
         width="84"
         height="84"
         rx="6"
         ry="6"
         x="6"
         y="6"
         id="rect3615"
         style="fill:#ffffff;fill-opacity:1;fill-rule:nonzero;stroke:none" />
    </clipPath>
    <linearGradient
       x1="48"
       y1="90"
       x2="48"
       y2="5.9877172"
       id="linearGradient3617"
       xlink:href="#linearGradient4535"
       gradientUnits="userSpaceOnUse"
       gradientTransform="translate(0,-96)" />
    <linearGradient
       x1="45.447727"
       y1="92.539597"
       x2="45.447727"
       y2="7.0165396"
       id="ButtonShadow-0"
       gradientUnits="userSpaceOnUse"
       gradientTransform="matrix(1.0058652,0,0,0.994169,100,0)">
      <stop
         id="stop3750-8"
         style="stop-color:#000000;stop-opacity:1"
         offset="0" />
      <stop
         id="stop3752-5"
         style="stop-color:#000000;stop-opacity:0.58823532"
         offset="1" />
    </linearGradient>
    <linearGradient
       x1="32.251034"
       y1="6.1317081"
       x2="32.251034"
       y2="90.238609"
       id="linearGradient3780"
       xlink:href="#ButtonShadow-0"
       gradientUnits="userSpaceOnUse"
       gradientTransform="matrix(1.0238095,0,0,1.0119048,-1.1428571,-98.071429)" />
    <linearGradient
       x1="32.251034"
       y1="6.1317081"
       x2="32.251034"
       y2="90.238609"
       id="linearGradient3772"
       xlink:href="#ButtonShadow-0"
       gradientUnits="userSpaceOnUse"
       gradientTransform="matrix(1.0238095,0,0,1.0119048,-1.1428571,-98.071429)" />
    <linearGradient
       x1="32.251034"
       y1="6.1317081"
       x2="32.251034"
       y2="90.238609"
       id="linearGradient3725"
       xlink:href="#ButtonShadow-0"
       gradientUnits="userSpaceOnUse"
       gradientTransform="matrix(1.0238095,0,0,1.0119048,-1.1428571,-98.071429)" />
    <linearGradient
       x1="32.251034"
       y1="6.1317081"
       x2="32.251034"
       y2="90.238609"
       id="linearGradient3721"
       xlink:href="#ButtonShadow-0"
       gradientUnits="userSpaceOnUse"
       gradientTransform="translate(0,-97)" />
    <linearGradient
       x1="32.251034"
       y1="6.1317081"
       x2="32.251034"
       y2="90.238609"
       id="linearGradient3026"
       xlink:href="#ButtonShadow-0"
       gradientUnits="userSpaceOnUse"
       gradientTransform="matrix(1.0238095,0,0,1.0119048,-1.1428571,-98.071429)" />
    <linearGradient
       id="linearGradient4535">
      <stop
         id="stop4537"
         style="stop-color:#617ec4;stop-opacity:1"
         offset="0" />
      <stop
         id="stop4539"
         style="stop-color:#244c8d;stop-opacity:1"
         offset="1" />
    </linearGradient>
    <linearGradient
       id="linearGradient4760">
      <stop
         id="stop4762"
         style="stop-color:#fac45a;stop-opacity:1"
         offset="0" />
      <stop
         id="stop4768"
         style="stop-color:#f7a909;stop-opacity:1"
         offset="0.52493125" />
      <stop
         id="stop4764"
         style="stop-color:#d49109;stop-opacity:1"
         offset="1" />
    </linearGradient>
    <linearGradient
       id="linearGradient4420">
      <stop
         id="stop4422"
         style="stop-color:#415ea4;stop-opacity:1"
         offset="0" />
      <stop
         id="stop4424"
         style="stop-color:#19458c;stop-opacity:1"
         offset="1" />
    </linearGradient>
    <linearGradient
       x1="480.53683"
       y1="974.90161"
       x2="1140.4358"
       y2="300.62057"
       id="linearGradient5009"
       xlink:href="#linearGradient4760"
       gradientUnits="userSpaceOnUse"
       gradientTransform="matrix(0.05254999,0,0,-0.0526412,3.8916885,82.863369)" />
    <linearGradient
       x1="480.53683"
       y1="974.90161"
       x2="1140.4358"
       y2="300.62057"
       id="linearGradient5011"
       xlink:href="#linearGradient4760"
       gradientUnits="userSpaceOnUse"
       gradientTransform="matrix(0.05254999,0,0,-0.0526412,3.8916876,82.863365)" />
    <linearGradient
       x1="480.53683"
       y1="974.90161"
       x2="1140.4358"
       y2="300.62057"
       id="linearGradient5013"
       xlink:href="#linearGradient4760"
       gradientUnits="userSpaceOnUse"
       gradientTransform="matrix(0.05254999,0,0,-0.0526412,3.8916885,82.863369)" />
    <linearGradient
       x1="480.53683"
       y1="974.90161"
       x2="1140.4358"
       y2="300.62057"
       id="linearGradient5015"
       xlink:href="#linearGradient4760"
       gradientUnits="userSpaceOnUse"
       gradientTransform="matrix(0.05254999,0,0,-0.0526412,3.8916885,82.863369)" />
    <linearGradient
       x1="480.53683"
       y1="974.90161"
       x2="1140.4358"
       y2="300.62057"
       id="linearGradient5017"
       xlink:href="#linearGradient4760"
       gradientUnits="userSpaceOnUse"
       gradientTransform="matrix(0.05254999,0,0,-0.0526412,3.8916885,82.863369)" />
    <linearGradient
       x1="480.53683"
       y1="974.90161"
       x2="1140.4358"
       y2="300.62057"
       id="linearGradient5019"
       xlink:href="#linearGradient4760"
       gradientUnits="userSpaceOnUse"
       gradientTransform="matrix(0.05254999,0,0,-0.0526412,3.8916885,82.863369)" />
    <linearGradient
       x1="480.53683"
       y1="974.90161"
       x2="1140.4358"
       y2="300.62057"
       id="linearGradient5021"
       xlink:href="#linearGradient4760"
       gradientUnits="userSpaceOnUse"
       gradientTransform="matrix(0.05254999,0,0,-0.0526412,3.8916885,82.863369)" />
    <linearGradient
       x1="480.53683"
       y1="974.90161"
       x2="1140.4358"
       y2="300.62057"
       id="linearGradient5023"
       xlink:href="#linearGradient4760"
       gradientUnits="userSpaceOnUse"
       gradientTransform="matrix(0.05254999,0,0,-0.0526412,3.8916885,82.863369)" />
    <linearGradient
       x1="480.53683"
       y1="974.90161"
       x2="1140.4358"
       y2="300.62057"
       id="linearGradient5025"
       xlink:href="#linearGradient4760"
       gradientUnits="userSpaceOnUse"
       gradientTransform="matrix(0.05254999,0,0,-0.0526412,3.8916885,82.863369)" />
    <linearGradient
       x1="480.53683"
       y1="974.90161"
       x2="1140.4358"
       y2="300.62057"
       id="linearGradient5027"
       xlink:href="#linearGradient4760"
       gradientUnits="userSpaceOnUse"
       gradientTransform="matrix(0.05254999,0,0,-0.0526412,3.8916885,82.863369)" />
    <linearGradient
       x1="480.53683"
       y1="974.90161"
       x2="1140.4358"
       y2="300.62057"
       id="linearGradient5029"
       xlink:href="#linearGradient4760"
       gradientUnits="userSpaceOnUse"
       gradientTransform="matrix(0.05254999,0,0,-0.0526412,3.8916885,82.863369)" />
    <linearGradient
       x1="480.53683"
       y1="974.90161"
       x2="1140.4358"
       y2="300.62057"
       id="linearGradient5031"
       xlink:href="#linearGradient4760"
       gradientUnits="userSpaceOnUse"
       gradientTransform="matrix(0.05254999,0,0,-0.0526412,3.8916885,82.863369)" />
    <linearGradient
       x1="480.53683"
       y1="974.90161"
       x2="1140.4358"
       y2="300.62057"
       id="linearGradient5033"
       xlink:href="#linearGradient4760"
       gradientUnits="userSpaceOnUse"
       gradientTransform="matrix(0.05254999,0,0,-0.0526412,3.8916885,82.863369)" />
    <linearGradient
       x1="480.53683"
       y1="974.90161"
       x2="1140.4358"
       y2="300.62057"
       id="linearGradient5035"
       xlink:href="#linearGradient4760"
       gradientUnits="userSpaceOnUse"
       gradientTransform="matrix(0.05254999,0,0,-0.0526412,3.8916885,82.863369)" />
    <linearGradient
       x1="480.53683"
       y1="974.90161"
       x2="1140.4358"
       y2="300.62057"
       id="linearGradient5037"
       xlink:href="#linearGradient4760"
       gradientUnits="userSpaceOnUse"
       gradientTransform="matrix(0.05254999,0,0,-0.0526412,3.8916885,82.863369)" />
    <linearGradient
       x1="480.53683"
       y1="974.90161"
       x2="1140.4358"
       y2="300.62057"
       id="linearGradient5039"
       xlink:href="#linearGradient4760"
       gradientUnits="userSpaceOnUse"
       gradientTransform="matrix(0.05254999,0,0,-0.0526412,3.8916885,82.863369)" />
    <linearGradient
       x1="480.53683"
       y1="974.90161"
       x2="1140.4358"
       y2="300.62057"
       id="linearGradient5041"
       xlink:href="#linearGradient4760"
       gradientUnits="userSpaceOnUse"
       gradientTransform="matrix(0.05254999,0,0,-0.0526412,3.8916885,82.863369)" />
    <linearGradient
       x1="480.53683"
       y1="974.90161"
       x2="1140.4358"
       y2="300.62057"
       id="linearGradient5043"
       xlink:href="#linearGradient4760"
       gradientUnits="userSpaceOnUse"
       gradientTransform="matrix(0.05254999,0,0,-0.0526412,3.8916885,82.863369)" />
    <linearGradient
       x1="1086.5875"
       y1="257.30719"
       x2="1086.5875"
       y2="299.31668"
       id="linearGradient5045"
       xlink:href="#linearGradient4420"
       gradientUnits="userSpaceOnUse"
       gradientTransform="matrix(0.32321174,0,0,0.32377277,-195.12202,-21.919734)" />
    <filter
       color-interpolation-filters="sRGB"
       id="filter5197">
      <feGaussianBlur
         id="feGaussianBlur5199"
         stdDeviation="1.4999053" />
    </filter>
    <radialGradient
       id="Grad1"
       r="43.1611"
       cy="27.681"
       gradientUnits="userSpaceOnUse"
       cx="49">
      <stop
         id="stop5363"
         stop-opacity="1"
         stop-color="#fdfdfc"
         offset="0%" />
      <stop
         id="stop5365"
         stop-opacity="1"
         stop-color="#fdfdfc"
         offset="32.78%" />
      <stop
         id="stop5367"
         stop-opacity="1"
         stop-color="#f4f5f4"
         offset="67.7359%" />
      <stop
         id="stop5369"
         stop-opacity="1"
         stop-color="#cbcfd0"
         offset="100%" />
    </radialGradient>
    <radialGradient
       id="Grad0"
       r="36.658"
       cy="44.9507"
       gradientUnits="userSpaceOnUse"
       cx="9.0864">
      <stop
         id="stop5348"
         stop-opacity="1"
         stop-color="#fdfdfc"
         offset="0%" />
      <stop
         id="stop5350"
         stop-opacity="1"
         stop-color="#fdfdfc"
         offset="32.78%" />
      <stop
         id="stop5352"
         stop-opacity="1"
         stop-color="#f4f5f4"
         offset="67.7359%" />
      <stop
         id="stop5354"
         stop-opacity="1"
         stop-color="#cbcfd0"
         offset="100%" />
    </radialGradient>
    <radialGradient
       inkscape:collect="always"
       xlink:href="#Grad0"
       id="radialGradient5397"
       gradientUnits="userSpaceOnUse"
       cx="9.0864"
       cy="44.9507"
       r="36.658" />
    <radialGradient
       inkscape:collect="always"
       xlink:href="#Grad1"
       id="radialGradient5401"
       gradientUnits="userSpaceOnUse"
       cx="49"
       cy="27.681"
       r="43.1611" />
    <filter
       id="filter5439"
       inkscape:label="Drop shadow"
       width="1.5"
       height="1.5"
       x="-.25"
       y="-.25">
      <feGaussianBlur
         id="feGaussianBlur5441"
         in="SourceAlpha"
         stdDeviation="1"
         result="blur" />
      <feColorMatrix
         id="feColorMatrix5443"
         result="bluralpha"
         type="matrix"
         values="1 0 0 0 0 0 1 0 0 0 0 0 1 0 0 0 0 0 1 0 " />
      <feOffset
         id="feOffset5445"
         in="bluralpha"
         dx="0"
         dy="0"
         result="offsetBlur" />
      <feMerge
         id="feMerge5447"
         result="fbSourceGraphic">
        <feMergeNode
           id="feMergeNode5449"
           in="offsetBlur" />
        <feMergeNode
           id="feMergeNode5451"
           in="SourceGraphic" />
      </feMerge>
      <feColorMatrix
         result="fbSourceGraphicAlpha"
         in="fbSourceGraphic"
         values="0 0 0 -1 0 0 0 0 -1 0 0 0 0 -1 0 0 0 0 1 0"
         id="feColorMatrix5467" />
      <feGaussianBlur
         id="feGaussianBlur5469"
         in="fbSourceGraphicAlpha"
         stdDeviation="2"
         result="blur" />
      <feColorMatrix
         id="feColorMatrix5471"
         result="bluralpha"
         type="matrix"
         values="1 0 0 0 0 0 1 0 0 0 0 0 1 0 0 0 0 0 1 0 " />
      <feOffset
         id="feOffset5473"
         in="bluralpha"
         dx="0"
         dy="0"
         result="offsetBlur" />
      <feMerge
         id="feMerge5475">
        <feMergeNode
           id="feMergeNode5477"
           in="offsetBlur" />
        <feMergeNode
           id="feMergeNode5479"
           in="fbSourceGraphic" />
      </feMerge>
    </filter>
    <linearGradient
       x2="42.8148"
       x1="14.2104"
       y2="37.8755"
       y1="-9.49255"
       id="Grad2"
       gradientUnits="userSpaceOnUse">
      <stop
         id="stop5610"
         stop-opacity="1"
         stop-color="#cbcfd0"
         offset="50%" />
      <stop
         id="stop5612"
         stop-opacity="1"
         stop-color="#ffffff"
         offset="90%" />
    </linearGradient>
    <linearGradient
       x2="51.5932"
       x1="0"
       y2="37.0826"
       y1="38.03"
       id="Grad1-9"
       gradientUnits="userSpaceOnUse">
      <stop
         id="stop5597"
         stop-opacity="1"
         stop-color="#ffffff"
         offset="10%" />
      <stop
         id="stop5599"
         stop-opacity="1"
         stop-color="#cbcfd0"
         offset="50%" />
      <stop
         id="stop5601"
         stop-opacity="1"
         stop-color="#ffffff"
         offset="100%" />
    </linearGradient>
    <linearGradient
       x2="42.6289"
       x1="12.3157"
       y2="4.7368"
       y1="52.009"
       id="Grad0-7"
       gradientUnits="userSpaceOnUse">
      <stop
         id="stop5586"
         stop-opacity="1"
         stop-color="#cbcfd0"
         offset="50%" />
      <stop
         id="stop5588"
         stop-opacity="1"
         stop-color="#ffffff"
         offset="90%" />
    </linearGradient>
    <linearGradient
       inkscape:collect="always"
       xlink:href="#Grad0-7"
       id="linearGradient5640"
       gradientUnits="userSpaceOnUse"
       x1="12.3157"
       y1="52.009"
       x2="42.6289"
       y2="4.7368" />
    <linearGradient
       inkscape:collect="always"
       xlink:href="#Grad0-7"
       id="linearGradient5642"
       gradientUnits="userSpaceOnUse"
       x1="12.3157"
       y1="52.009"
       x2="42.6289"
       y2="4.7368" />
    <linearGradient
       inkscape:collect="always"
       xlink:href="#Grad1-9"
       id="linearGradient5644"
       gradientUnits="userSpaceOnUse"
       x1="0"
       y1="38.03"
       x2="51.5932"
       y2="37.0826" />
    <linearGradient
       inkscape:collect="always"
       xlink:href="#Grad1-9"
       id="linearGradient5646"
       gradientUnits="userSpaceOnUse"
       x1="0"
       y1="38.03"
       x2="51.5932"
       y2="37.0826" />
    <linearGradient
       inkscape:collect="always"
       xlink:href="#Grad2"
       id="linearGradient5648"
       gradientUnits="userSpaceOnUse"
       x1="14.2104"
       y1="-9.49255"
       x2="42.8148"
       y2="37.8755" />
    <linearGradient
       inkscape:collect="always"
       xlink:href="#Grad2"
       id="linearGradient5650"
       gradientUnits="userSpaceOnUse"
       x1="14.2104"
       y1="-9.49255"
       x2="42.8148"
       y2="37.8755" />
    <filter
       id="filter5652"
       inkscape:label="Drop shadow"
       width="1.5"
       height="1.5"
       x="-.25"
       y="-.25">
      <feGaussianBlur
         id="feGaussianBlur5654"
         in="SourceAlpha"
         stdDeviation="2"
         result="blur" />
      <feColorMatrix
         id="feColorMatrix5656"
         result="bluralpha"
         type="matrix"
         values="1 0 0 0 0 0 1 0 0 0 0 0 1 0 0 0 0 0 1 0 " />
      <feOffset
         id="feOffset5658"
         in="bluralpha"
         dx="0"
         dy="0"
         result="offsetBlur" />
      <feMerge
         id="feMerge5660">
        <feMergeNode
           id="feMergeNode5662"
           in="offsetBlur" />
        <feMergeNode
           id="feMergeNode5664"
           in="SourceGraphic" />
      </feMerge>
    </filter>
  </defs>
  <g
     id="layer2"
     style="display:none">
    <rect
       width="86"
       height="85"
       rx="6"
       ry="6"
       x="5"
       y="7"
       id="rect3745"
       style="opacity:0.9;fill:url(#ButtonShadow);fill-opacity:1;fill-rule:nonzero;stroke:none;filter:url(#filter3174)" />
  </g>
  <g
     id="layer3">
    <path
       d="m 12,-95.03125 c -5.5110903,0 -10.03125,4.52016 -10.03125,10.03125 l 0,71 c 0,5.5110902 4.5201598,10.03125 10.03125,10.03125 l 72,0 c 5.51109,0 10.03125,-4.5201597 10.03125,-10.03125 l 0,-71 c 0,-5.51109 -4.52016,-10.03125 -10.03125,-10.03125 l -72,0 z"
       transform="scale(1,-1)"
       id="path3786"
       style="opacity:0.07999998;fill:url(#linearGradient3026);fill-opacity:1;fill-rule:nonzero;stroke:none;display:inline" />
    <path
       d="m 12,-94.03125 c -4.971633,0 -9.03125,4.059617 -9.03125,9.03125 l 0,71 c 0,4.9716329 4.0596171,9.03125 9.03125,9.03125 l 72,0 c 4.971633,0 9.03125,-4.059617 9.03125,-9.03125 l 0,-71 c 0,-4.971633 -4.059617,-9.03125 -9.03125,-9.03125 l -72,0 z"
       transform="scale(1,-1)"
       id="path3778"
       style="opacity:0.1;fill:url(#linearGradient3780);fill-opacity:1;fill-rule:nonzero;stroke:none;display:inline" />
    <path
       d="m 12,-93 c -4.4091333,0 -8,3.590867 -8,8 l 0,71 c 0,4.4091333 3.5908667,8 8,8 l 72,0 c 4.409133,0 8,-3.5908667 8,-8 l 0,-71 c 0,-4.409133 -3.590867,-8 -8,-8 l -72,0 z"
       transform="scale(1,-1)"
       id="path3770"
       style="opacity:0.2;fill:url(#linearGradient3772);fill-opacity:1;fill-rule:nonzero;stroke:none;display:inline" />
    <rect
       width="86"
       height="85"
       rx="7"
       ry="7"
       x="5"
       y="-92"
       transform="scale(1,-1)"
       id="rect3723"
       style="opacity:0.3;fill:url(#linearGradient3725);fill-opacity:1;fill-rule:nonzero;stroke:none;display:inline" />
    <rect
       width="84"
       height="84"
       rx="6"
       ry="6"
       x="6"
       y="-91"
       transform="scale(1,-1)"
       id="rect3716"
       style="opacity:0.45;fill:url(#linearGradient3721);fill-opacity:1;fill-rule:nonzero;stroke:none;display:inline" />
  </g>
  <g
     id="layer1">
    <rect
       width="84"
       height="84"
       rx="6"
       ry="6"
       x="6"
       y="-90"
       transform="scale(1,-1)"
       id="rect2419"
       style="fill:url(#linearGradient3617);fill-opacity:1;fill-rule:nonzero;stroke:none" />
    <path
       d="M 12,6 C 8.676,6 6,8.676 6,12 l 0,2 0,68 0,2 c 0,0.334721 0.04135,0.6507 0.09375,0.96875 0.0487,0.295596 0.09704,0.596915 0.1875,0.875 0.00988,0.03038 0.020892,0.0636 0.03125,0.09375 0.098865,0.287771 0.2348802,0.547452 0.375,0.8125 0.1445918,0.273507 0.3156161,0.535615 0.5,0.78125 0.1843839,0.245635 0.3737765,0.473472 0.59375,0.6875 0.439947,0.428056 0.94291,0.814526 1.5,1.09375 0.278545,0.139612 0.5734731,0.246947 0.875,0.34375 -0.2562018,-0.100222 -0.4867109,-0.236272 -0.71875,-0.375 -0.00741,-0.0044 -0.023866,0.0045 -0.03125,0 -0.031933,-0.0193 -0.062293,-0.04251 -0.09375,-0.0625 -0.120395,-0.0767 -0.2310226,-0.163513 -0.34375,-0.25 -0.1061728,-0.0808 -0.2132809,-0.161112 -0.3125,-0.25 C 8.4783201,88.557317 8.3087904,88.373362 8.15625,88.1875 8.0486711,88.057245 7.9378561,87.922215 7.84375,87.78125 7.818661,87.74287 7.805304,87.69538 7.78125,87.65625 7.716487,87.553218 7.6510225,87.451733 7.59375,87.34375 7.4927417,87.149044 7.3880752,86.928049 7.3125,86.71875 7.30454,86.69694 7.288911,86.6782 7.28125,86.65625 7.2494249,86.5643 7.2454455,86.469419 7.21875,86.375 7.1884177,86.268382 7.1483606,86.171969 7.125,86.0625 7.0521214,85.720988 7,85.364295 7,85 L 7,83 7,15 7,13 C 7,10.218152 9.2181517,8 12,8 l 2,0 68,0 2,0 c 2.781848,0 5,2.218152 5,5 l 0,2 0,68 0,2 c 0,0.364295 -0.05212,0.720988 -0.125,1.0625 -0.04415,0.206893 -0.08838,0.397658 -0.15625,0.59375 -0.0077,0.02195 -0.0233,0.04069 -0.03125,0.0625 -0.06274,0.173739 -0.138383,0.367449 -0.21875,0.53125 -0.04158,0.0828 -0.07904,0.169954 -0.125,0.25 -0.0546,0.09721 -0.126774,0.18835 -0.1875,0.28125 -0.09411,0.140965 -0.204921,0.275995 -0.3125,0.40625 -0.143174,0.17445 -0.303141,0.346998 -0.46875,0.5 -0.01117,0.0102 -0.01998,0.02115 -0.03125,0.03125 -0.138386,0.125556 -0.285091,0.234436 -0.4375,0.34375 -0.102571,0.07315 -0.204318,0.153364 -0.3125,0.21875 -0.0074,0.0045 -0.02384,-0.0044 -0.03125,0 -0.232039,0.138728 -0.462548,0.274778 -0.71875,0.375 0.301527,-0.0968 0.596455,-0.204138 0.875,-0.34375 0.55709,-0.279224 1.060053,-0.665694 1.5,-1.09375 0.219973,-0.214028 0.409366,-0.441865 0.59375,-0.6875 0.184384,-0.245635 0.355408,-0.507743 0.5,-0.78125 0.14012,-0.265048 0.276135,-0.524729 0.375,-0.8125 0.01041,-0.03078 0.02133,-0.06274 0.03125,-0.09375 0.09046,-0.278085 0.1388,-0.579404 0.1875,-0.875 C 89.95865,84.6507 90,84.334721 90,84 l 0,-2 0,-68 0,-2 C 90,8.676 87.324,6 84,6 L 12,6 z"
       id="rect3728"
       style="opacity:0.4;fill:url(#linearGradient3188);fill-opacity:1;fill-rule:nonzero;stroke:none" />
    <path
       d="M 12,90 C 8.676,90 6,87.324 6,84 L 6,82 6,14 6,12 c 0,-0.334721 0.04135,-0.6507 0.09375,-0.96875 0.0487,-0.295596 0.09704,-0.596915 0.1875,-0.875 C 6.29113,10.12587 6.302142,10.09265 6.3125,10.0625 6.411365,9.774729 6.5473802,9.515048 6.6875,9.25 6.8320918,8.976493 7.0031161,8.714385 7.1875,8.46875 7.3718839,8.223115 7.5612765,7.995278 7.78125,7.78125 8.221197,7.353194 8.72416,6.966724 9.28125,6.6875 9.559795,6.547888 9.8547231,6.440553 10.15625,6.34375 9.9000482,6.443972 9.6695391,6.580022 9.4375,6.71875 c -0.00741,0.0044 -0.023866,-0.0045 -0.03125,0 -0.031933,0.0193 -0.062293,0.04251 -0.09375,0.0625 -0.120395,0.0767 -0.2310226,0.163513 -0.34375,0.25 -0.1061728,0.0808 -0.2132809,0.161112 -0.3125,0.25 C 8.4783201,7.442683 8.3087904,7.626638 8.15625,7.8125 8.0486711,7.942755 7.9378561,8.077785 7.84375,8.21875 7.818661,8.25713 7.805304,8.30462 7.78125,8.34375 7.716487,8.446782 7.6510225,8.548267 7.59375,8.65625 7.4927417,8.850956 7.3880752,9.071951 7.3125,9.28125 7.30454,9.30306 7.288911,9.3218 7.28125,9.34375 7.2494249,9.4357 7.2454455,9.530581 7.21875,9.625 7.1884177,9.731618 7.1483606,9.828031 7.125,9.9375 7.0521214,10.279012 7,10.635705 7,11 l 0,2 0,68 0,2 c 0,2.781848 2.2181517,5 5,5 l 2,0 68,0 2,0 c 2.781848,0 5,-2.218152 5,-5 l 0,-2 0,-68 0,-2 C 89,10.635705 88.94788,10.279012 88.875,9.9375 88.83085,9.730607 88.78662,9.539842 88.71875,9.34375 88.71105,9.3218 88.69545,9.30306 88.6875,9.28125 88.62476,9.107511 88.549117,8.913801 88.46875,8.75 88.42717,8.6672 88.38971,8.580046 88.34375,8.5 88.28915,8.40279 88.216976,8.31165 88.15625,8.21875 88.06214,8.077785 87.951329,7.942755 87.84375,7.8125 87.700576,7.63805 87.540609,7.465502 87.375,7.3125 87.36383,7.3023 87.35502,7.29135 87.34375,7.28125 87.205364,7.155694 87.058659,7.046814 86.90625,6.9375 86.803679,6.86435 86.701932,6.784136 86.59375,6.71875 c -0.0074,-0.0045 -0.02384,0.0044 -0.03125,0 -0.232039,-0.138728 -0.462548,-0.274778 -0.71875,-0.375 0.301527,0.0968 0.596455,0.204138 0.875,0.34375 0.55709,0.279224 1.060053,0.665694 1.5,1.09375 0.219973,0.214028 0.409366,0.441865 0.59375,0.6875 0.184384,0.245635 0.355408,0.507743 0.5,0.78125 0.14012,0.265048 0.276135,0.524729 0.375,0.8125 0.01041,0.03078 0.02133,0.06274 0.03125,0.09375 0.09046,0.278085 0.1388,0.579404 0.1875,0.875 C 89.95865,11.3493 90,11.665279 90,12 l 0,2 0,68 0,2 c 0,3.324 -2.676,6 -6,6 l -72,0 z"
       id="path3615"
       style="opacity:0.2;fill:url(#radialGradient3619);fill-opacity:1;fill-rule:nonzero;stroke:none" />
  </g>
  <g
     id="layer5">
    <rect
       width="66"
       height="66"
       rx="12"
       ry="12"
       x="15"
       y="15"
       clip-path="url(#clipPath3613)"
       id="rect3171"
       style="opacity:0.1;fill:url(#linearGradient3613);fill-opacity:1;fill-rule:nonzero;stroke:#ffffff;stroke-width:0.5;stroke-linecap:round;stroke-linejoin:miter;stroke-miterlimit:4;stroke-opacity:1;stroke-dasharray:none;stroke-dashoffset:0;filter:url(#filter3794)" />
  </g>
  <g
     id="g5632"
     transform="matrix(0.75234181,0,0,0.74073713,-1.8976017,1.0224259)"
     style="filter:url(#filter5652)">
    <g
       id="g5590"
       style="fill:url(#linearGradient5642);fill-rule:nonzero;stroke:#161413;stroke-width:1;stroke-linecap:butt;stroke-linejoin:miter;stroke-dasharray:none"
       transform="translate(53.2593,12.104)">
      <path
         style="fill:url(#linearGradient5640)"
         id="path5592"
         d="m 3.92089,22.0534 c 19.00071,-6.317 39.60571,6.9462 41.13681,25.2187 6.4349,-1.4068 12.8699,-2.8267 19.3048,-4.2335 1.003,-2.0972 -0.7946,-4.7546 -1.003,-7.0862 -0.1433,-2.5792 -1.3026,-4.7676 -4.2205,-3.9209 -4.2596,0 -8.5061,0 -12.7657,0 -1.6283,-3.7776 -6.461,-6.448 -3.4259,-10.6425 1.1463,-3.6343 2.8267,-7.1644 3.6474,-10.8378 C 43.7681,8.45401 40.6027,6.51311 37.4373,4.97601 33.6076,8.19349 30.2469,12.0623 26.5995,15.5403 22.5875,13.5863 16.4391,15.8529 15.5142,10.2777 13.7557,6.89087 12.44,3.19142 10.4079,0 6.94297,0.508022 3.32168,1.38078 0,2.52709 0.156315,6.51311 1.62828,10.5773 2.30564,14.5894 c 0.53407,2.488 1.66866,7.5417 1.61525,7.477 0,0 0,-0.013 0,-0.013 z"
         inkscape:connector-curvature="0" />
    </g>
    <g
       id="g5603"
       style="fill:url(#linearGradient5646);fill-rule:nonzero;stroke:#161413;stroke-width:1;stroke-linecap:butt;stroke-linejoin:miter;stroke-dasharray:none"
       transform="translate(14.6248,25.8988)">
      <path
         style="fill:url(#linearGradient5644)"
         id="path5605"
         d="M 31.3788,61.4186 C 17.03,50.3756 17.7405,24.6784 33.5933,13.404 28.6824,8.93598 23.7715,4.46799 18.8737,0 16.555,0.234472 15.2263,3.16537 13.3375,4.54615 11.2012,6.01811 9.9377,8.14138 12.1782,10.1995 c 2.2014,3.6343 4.4159,7.2687 6.6173,10.903 -2.3707,3.3477 -2.1363,8.8708 -7.3207,8.454 -3.68643,0.8988 -7.56824,1.3156 -11.143934,2.5271 -0.320445,3.491 -0.330866,7.2165 0,10.7075 4.748054,1.6022 9.802234,2.462 14.674034,3.7776 0.4038,4.442 5.5361,8.5192 1.2505,12.2056 -1.98,3.2565 -4.455,6.3047 -6.1223,9.7045 2.2405,2.6964 4.8588,5.3277 7.5682,7.5813 2.7486,-1.9019 4.7168,-4.7241 7.2296,-7.5031 2.1493,-2.3838 6.724,-7.346 6.461,-7.1384 0,0 -0.0131,0 -0.0131,0 z"
         inkscape:connector-curvature="0" />
    </g>
    <g
       id="g5614"
       style="fill:url(#linearGradient5650);fill-rule:nonzero;stroke:#161413;stroke-width:1;stroke-linecap:butt;stroke-linejoin:miter;stroke-dasharray:none"
       transform="translate(50.9797,70.7089)">
      <path
         id="path5616"
         d="M 46.5296,0 C 44.8589,18.2363 22.4774,30.1967 5.02812,22.7568 3.34774,29.0875 1.68038,35.4183 0,41.762 c 1.35473,1.8888 4.55917,1.5762 6.69547,2.5271 2.34472,1.1073 4.81973,1.1463 5.48403,-1.8236 2.0451,-3.7255 4.0902,-7.451 6.1354,-11.1765 4.0902,0.3777 8.7666,-2.5792 10.9941,2.1232 2.6183,2.7355 4.9109,5.9139 7.7506,8.3889 3.1784,-1.4589 6.4089,-3.3086 9.2746,-5.3277 -0.9769,-4.9109 -2.7485,-9.7306 -4.0381,-14.6024 3.6343,-2.5662 4.6113,-9.0402 9.939,-7.1774 3.8167,0.1302 7.6985,0.7034 11.4761,0.4689 C 64.9227,11.8669 65.8996,8.28467 66.4988,4.8197 63.4767,3.36076 59.7122,3.1784 56.4035,2.21446 53.1079,1.48499 49.8122,0.742494 46.5296,0 c 0,0 0,0 0,0 z"
         inkscape:connector-curvature="0"
         style="fill:url(#linearGradient5648)" />
    </g>
  </g>
</svg>
