/* XPM */
static char *gcolor2[] = {
/* columns rows colors chars-per-pixel */
"48 48 256 2 ",
"   c #000000",
".  c #201E21",
"X  c #222022",
"o  c #3D3A3E",
"O  c #3A373C",
"+  c #7B261D",
"@  c #443D3F",
"#  c #4C3E3D",
"$  c #533F3C",
"%  c #762B28",
"&  c #623E25",
"*  c #70312F",
"=  c #6C3C39",
"-  c #2E4C1A",
";  c #32541C",
":  c #39641E",
">  c #374D27",
",  c #3C532D",
"<  c #3D6626",
"1  c #41443E",
"2  c #444C3D",
"3  c #4C4C39",
"4  c #55433A",
"5  c #5B433D",
"6  c #584B3D",
"7  c #405134",
"8  c #46533B",
"9  c #4A543D",
"0  c #4B5A3E",
"q  c #54543E",
"w  c #62463F",
"e  c #42672C",
"r  c #466D33",
"t  c #486F34",
"y  c #467134",
"u  c #3F3C40",
"i  c #423D42",
"p  c #4A3F40",
"a  c #444344",
"s  c #4B4245",
"d  c #464A43",
"f  c #494D46",
"g  c #4C464A",
"h  c #4C4A4C",
"j  c #534444",
"k  c #5B4543",
"l  c #5C4847",
"z  c #544749",
"x  c #54494C",
"c  c #5A4A4A",
"v  c #4A5343",
"b  c #4D5B43",
"n  c #4D534A",
"m  c #4F5A48",
"M  c #535E44",
"N  c #5C5C46",
"B  c #50544F",
"V  c #525C4B",
"C  c #5D5642",
"Z  c #4F4B51",
"A  c #524E53",
"S  c #5A4E52",
"D  c #545254",
"F  c #5B5154",
"G  c #565A52",
"H  c #565259",
"J  c #5B565D",
"K  c #5B595D",
"L  c #585D54",
"P  c #624642",
"I  c #644A44",
"U  c #6A4C45",
"Y  c #634D4A",
"T  c #6A4E49",
"R  c #6C4443",
"E  c #65504F",
"W  c #6B514C",
"Q  c #645244",
"!  c #604F50",
"~  c #635454",
"^  c #695350",
"/  c #6A5857",
"(  c #655759",
")  c #705D58",
"_  c #4F6043",
"`  c #526445",
"'  c #546947",
"]  c #55644B",
"[  c #566A49",
"{  c #596B4C",
"}  c #58674E",
"|  c #5A6454",
" . c #5C6A53",
".. c #48714C",
"X. c #666C58",
"o. c #686A58",
"O. c #71635A",
"+. c #5E5961",
"@. c #625D65",
"#. c #645F68",
"$. c #596570",
"%. c #546976",
"&. c #66616A",
"*. c #6A646D",
"=. c #6D6771",
"-. c #6E6972",
";. c #666974",
":. c #726C75",
">. c #746E79",
",. c #76717B",
"<. c #79737E",
"1. c #842A1E",
"2. c #B63616",
"3. c #BA3215",
"4. c #B23916",
"5. c #B53D19",
"6. c #B93A1A",
"7. c #BD371A",
"8. c #9B3C22",
"9. c #913220",
"0. c #972E32",
"q. c #8C3A36",
"w. c #873C34",
"e. c #933334",
"r. c #D1291F",
"t. c #C3341B",
"y. c #CD2C20",
"u. c #D22D20",
"i. c #CF3523",
"p. c #CA3B23",
"a. c #C93C24",
"s. c #D33327",
"d. c #B5431C",
"f. c #B34A1F",
"g. c #B44C22",
"h. c #B94821",
"j. c #AF4C24",
"k. c #C44324",
"l. c #CF442D",
"z. c #CC4529",
"x. c #D0472C",
"c. c #CF4232",
"v. c #D24B35",
"b. c #96555B",
"n. c #A47349",
"m. c #AB7856",
"M. c #B07C5E",
"N. c #B47F63",
"B. c #D35344",
"V. c #DB594B",
"C. c #D55D52",
"Z. c #DB5F54",
"A. c #D65D5B",
"S. c #D34B42",
"D. c #E35758",
"F. c #D6685F",
"G. c #CC6162",
"H. c #D96860",
"J. c #D76563",
"K. c #DA746D",
"L. c #D7736D",
"P. c #D16F71",
"I. c #DB7E7B",
"U. c #E16861",
"Y. c #E4706D",
"T. c #E67A78",
"R. c #4E852D",
"E. c #50822C",
"W. c #5E9E34",
"Q. c #53A42D",
"!. c #50A82D",
"~. c #5BA333",
"^. c #5CAA35",
"/. c #5EA638",
"(. c #57A831",
"). c #4FB832",
"_. c #55B634",
"`. c #5AB336",
"'. c #54B935",
"]. c #5CB339",
"[. c #56BC3B",
"{. c #59BC3C",
"}. c #61A239",
"|. c #61A837",
" X c #61B23A",
".X c #5CBE41",
"XX c #62BB44",
"oX c #5EC146",
"OX c #5FC149",
"+X c #54C040",
"@X c #62C34B",
"#X c #66C652",
"$X c #6BC85A",
"%X c #70CA5F",
"&X c #B8836B",
"*X c #DF807C",
"=X c #C6917D",
"-X c #86D278",
";X c #206F9B",
":X c #27719A",
">X c #2D749D",
",X c #277AA9",
"<X c #317BA4",
"1X c #4E6F82",
"2X c #4E7388",
"3X c #50758C",
"4X c #457C9C",
"5X c #4C7B96",
"6X c #7D7780",
"7X c #7E7982",
"8X c #817C86",
"9X c #847F88",
"0X c #3982AC",
"qX c #3C88B3",
"wX c #73AD91",
"eX c #4287AE",
"rX c #5189A9",
"tX c #5D98B9",
"yX c #6D9AB6",
"uX c #7CA3BC",
"iX c #5098C2",
"pX c #5CA2C8",
"aX c #65A6CA",
"sX c #6BABCE",
"dX c #7CB5CE",
"fX c #6DAED2",
"gX c #7AB4D4",
"hX c #76B1D3",
"jX c #87828C",
"kX c #908A94",
"lX c #959199",
"zX c #A19CA4",
"xX c #A7A8B7",
"cX c #DE8D8B",
"vX c #DF8886",
"bX c #D19C8C",
"nX c #CE9987",
"mX c #E09999",
"MX c #E98383",
"NX c #D7A597",
"BX c #D39EA1",
"VX c #DDADA9",
"CX c #90D484",
"ZX c #9ED498",
"AX c #A5D1AD",
"SX c #AED2BF",
"DX c #B7DBBA",
"FX c #E7C4BC",
"GX c #89B7CE",
"HX c #84B8D5",
"JX c #B7B7C3",
"KX c #D2BDC2",
"LX c #9CC7C9",
"PX c #A9CCC9",
"IX c #DAC0C6",
"UX c None",
/* pixels */
"UXUXUXUXUXUXUXUXUXUXUXUXUXUXUXUXUXUXUXUXUXUXUXUXUXUXUXUXUXUXUXUXUXUXUXUXUXUXUXUXUXUXUXUXUXUXUXUX",
"UXUXUXUXUXUXUXUXUXUXUXUXUXUXUXUXUXUXUXUXUXUXUXUXUXUXUXUXUXUXUXUXUXUXUXUXUXUXUXUXUXUXUXUXUXUXUXUX",
"UXUXUXUXUXUXUXUXUXUXUXUXUXUXUXUXUXUXUXUXUXUXUXUXUXUXUXUXUXUXUXUXUXUXUXUXUXUXUXUXUXUXUXUXUXUXUXUX",
"UXUXUXUX6XlXzXzXzXzXzX9XxXzXzXzXzXzXzXzXzXzXxX9XxXzXzXzXzXzXzXzXzXzXzXlXzXzXzXzXzXzXlX7XUXUXUXUX",
"UXUXUX:.kX6X<.<.6X6X*.6X:.8X6X6X7X6X6X;.6X6X=.8X6X6X8X1Xb.6X6X6X>.6X6X6X<.>.<.<.6X>.7XkX:.UXUXUX",
"UXUXUXjX,.>.>.>.6X6X6X6X8X:.1X6X6X6X6X6X=.6X8X:.6X6X6X6XwX6X6X6X6X>.>.6X<.<.>.,.6X>.:.:.jXUXUXUX",
"UXUXUXjX>.>.>.>.6X=.=.8X:.8X6X6X6X6X=.6X6X6X1X6X6X#.6X6X8X1X=.6X6X6X>.6X>.,.,.>.>.>.>.6XjXUXUXUX",
"UXUXUX9X>.>.>.>.6X=.6X:.6X:.=.6X>.6X6X6X6X6X8X:.6X6Xb.8X=.6X6X6X6X>.6X>.<.<.,.:.>.:.>.:.9XUXUXUX",
"UXUXUX9X:.:.>.>.>.>.6X>.6X;.6X6X6X6X6X6X6X6X6X6X6X6X6X6X#.6X6X6X<.<.<.<.<.<.,.,.>.>.:.:.9XUXUXUX",
"UXUXUX8X:.:.:.:.>.6X>.6X6X6X6X6X6X6X=.6X6X6X6X=.6X6X6X6X6X6X6X6X<.<.<.<.<.<.,.,.-.>.:.:.8XUXUXUX",
"UXUXUX6X-.:.:.:.=.6X6X>.:.6X6X6X=.6X6X6X=.6X6X6X6X6X#.6X6X=.=.6X<.<.<.<.<.<.,.,.>.-.-.:.6XUXUXUX",
"UXUXUX6X-.-.-.:.:.>.:.6X6X6X>.6X6X6X=.6X6X6X6X8X6X6X6X6X6X6X6X6X<.<.<.<.<.,.,.:.>.-.:.-.6XUXUXUX",
"UXUXUX<.-.-.:.:.:.6X:.6X:.6X6X>.6X6X=.6X=.8Xb.8X6X6X6X6X6X6X1X8X,.<.<.<.<.>.>.>.:.-.-.=.<.UXUXUX",
"UXUXUX<.=.=.=.:.:.:.6X:.6X:.>.6X=.6X6X6X8X8X6X1X6X6X#.6X=.6X8X=.<.,.,.,.,.>.>.:.-.-.=.=.<.UXUXUX",
"UXUXUX,.*.*.=.:.=.:.6X6X=.6X:.>.1X6X=.6X8X1X1X4X1XH #.6X6X6X=.8X>.>.>.>.>.>.:.:.=.=.=.*.,.UXUXUX",
"UXUXUX,.*.*.=.=.:.:.=.:.6X=.>.>.8X#.$.1X4XqX0XqXaXpXaXiX4X4X1X+.$.=.>.>.>.>.:.:.=.=.*.*.,.UXUXUX",
"UXUXUX>.#.=.*.=.-.:.:.:.,.-.%.1X2X0X0X,X>X>X<X<XfXgXhXgXgXgXgXhXdXwX..:.:.:.:.-.-.*.*.&.:.UXUXUX",
"UXUXUX:.#.#.#.=.=.=.-.:.-.b.IXJXyXrX>X:X>X>X:X,XpXsXaXsXfXHXLXAXCXOXy :.:.:.-.-.*.*.&.&.:.UXUXUX",
"UXUXUX-.#.#.*.*.*.-.-.-.-.e.D.G.P.BXIXxXyX<X;X,XiXiXaXLXPXZX%X%X%X+Xy :.-.-.*.*.&.&.&.&.-.UXUXUX",
"UXUXUX-.#.#.#.*.*.=.=.-.-.0.MXmXmXP.G.D.I.BXKXxXHXJXPXCX$X$X$X%X$X[.y =.-.-.*.*.&.&.&.&.-.UXUXUX",
"UXUXUX*.@.@.#.#.*.*.*.*.*.0.T.cXcXcXcXcXMXP.A.J.FX-X@XOXOX@X@X#X#X+Xy =.*.*.*.&.&.&.@.+.*.UXUXUX",
"UXUXUX*.+.@.#.#.&.*.*.*.*.e.Y.*XI.MXI.T.I.MXT.s.VX@X[.+XoXoXOXOX@X[.y *.*.*.*.&.&.&.&.+.*.UXUXUX",
"UXUXUX&.+.@.@.#.&.&.*.*.*.e.H.L.P.P.Y.P.K.Y.S.u.VX@X'.{.{.{..XoXXX[.y *.*.*.&.&.+.&.+.+.&.UXUXUX",
"UXUXUX@.+.+.@.| &.&.&.&.*.e.Z.F.J.J.J.J.J.A.y.u.NX X).'.'.[.{.{..X{.y &.&.&.&.#.@.+.+.K &.UXUXUX",
"UXUXUX@.+.+.+.+.@.#.&.&.&.q.V.C.C.F.C.Z.Z.p.u.s.bX.X)._._._._.'.{.`.t &.&.#.#.@.+.+.+.+.@.UXUXUX",
"UXUXUX+.J J +.+.@.@.@.@.&.e.B.B.v.B.B.B.c.i.i.i.bX X_._._._.`.'.'.'.r @.@.@.@.@.+.+.H J +.UXUXUX",
"UXUXUX+.J J +.+.+.@.@.@.@.q.v.v.v.v.v.z.i.p.i.t.=X X`.`.`.`.`.`.].`.r K J +.K K +.+.J J +.UXUXUX",
"UXUXUXJ H H J J +.+.+.+.+.q.x.x.x.z.p.p.k.t.3.3.&X`.!.`.`.].].].].].e H H H H J H H H H J UXUXUX",
"UXUXUXH H H H +.+.+.+.+.&.q.x.x.z.a.a.6.3.3.2.3.&X~.Q.Q.Q.(.^. X X Xe D D Z A A A H H H H UXUXUX",
"UXUXUXH H H H H H +.+.+.K w.v.k.k.2.2.2.2.2.7.6.N.~.Q.Q.(.(.(.|.]. X< h n n Z H H H H H H UXUXUX",
"UXUXUXH A H H H J J K K K w.k.d.4.4.4.4.6.5.d.6.M./.Q.W.(.~.|.|.^.< , v f G K L G H A A D UXUXUX",
"UXUXUXA A A A H F J ~ K ( % 8.d.4.d.4.d.d.5.d.d.m./.~.~.|.~. XR.> , 8 ` | | | L G H D A A UXUXUX",
"UXUXUXZ Z A A H S F ~ ~ ~ ~ = % 9.h.d.d.d.d.f.f.m.}.W.W.|.}.: > , b { {  .| } | G B B n D UXUXUX",
"UXUXUXZ Z A A S F S ~ ^ ^ ^ ^ ^ R % 9.g.g.j.f.g.n.}.W.|.R.; > b { { { { } } } V V V D B h UXUXUX",
"UXUXUXZ Z g A S S ! E ^ W W W W W W U % + j.g.g.n.}.W.: - 8 [ { { { { { } } ] V V V n n n UXUXUX",
"UXUXUXZ z z x c S Y Y Y Y T W W W W T W T * + 8.n.E.- , ` [ [ [ [ ] { ] ] ] V V V n n n n UXUXUX",
"UXUXUXg g x z z c c Y Y T T T T W U U T w W U w & > ' [ [ ' [ [ ' ' ] ` ] V V m n n n f h UXUXUX",
"UXUXUXg g g z z c c c Y Y Y Y Y U U U U W W w Q C N 0 ' ' ' ` ` ` ] ] m V m m n n f f h h UXUXUX",
"UXUXUXg s g g z p c c l l Y P Y I I U U w w.w Q C q ' ' 0 ' ` ` m m m m m m v n f f d g g UXUXUX",
"UXUXUXs p s p s x p z l p P Y p k I I U Q Q w w q N 0 ' 0 ' 0 ` m b m b v f f f f d d d a UXUXUX",
"UXUXUXg a s p s p p x z p k p Y k k 5 w w w w 6 q q 0 0 0 b 0 b v v v v v f d d a a g a a UXUXUX",
"UXUXUXi i i i i p p p p p z p p 5 j 5 k 5 5 w 6 q q 0 b 0 b 8 v v v v d d d a a a a u a a UXUXUX",
"UXUXUXu u u i i i p i p p p p P $ $ $ $ $ $ w 4 6 9 8 8 8 8 v 2 2 , d 1 , i a a 1 u u u u UXUXUX",
"UXUXUXX i i u u i i i p # p $ p # $ $ $ $ $ $ 4 3 3 8 8 d , 2 2 d a d 1 a i 1 u u u 1 i . UXUXUX",
"UXUXUX  . o g g h h A A S S F ~ ~ ( / / ) ) ) O.o.o.X.X. . .@.| L L G D H Z Z h h g u .   UXUXUX",
"UXUXUXUXUX                                                                            UXUXUXUXUX",
"UXUXUXUXUXUXUXUXUXUXUXUXUXUXUXUXUXUXUXUXUXUXUXUXUXUXUXUXUXUXUXUXUXUXUXUXUXUXUXUXUXUXUXUXUXUXUXUX",
"UXUXUXUXUXUXUXUXUXUXUXUXUXUXUXUXUXUXUXUXUXUXUXUXUXUXUXUXUXUXUXUXUXUXUXUXUXUXUXUXUXUXUXUXUXUXUXUX"
};
