<?xml version="1.0" encoding="UTF-8" standalone="no"?>
<!-- Created with Inkscape (http://www.inkscape.org/) -->

<svg
   xmlns:dc="http://purl.org/dc/elements/1.1/"
   xmlns:cc="http://creativecommons.org/ns#"
   xmlns:rdf="http://www.w3.org/1999/02/22-rdf-syntax-ns#"
   xmlns:svg="http://www.w3.org/2000/svg"
   xmlns="http://www.w3.org/2000/svg"
   xmlns:xlink="http://www.w3.org/1999/xlink"
   xmlns:sodipodi="http://sodipodi.sourceforge.net/DTD/sodipodi-0.dtd"
   xmlns:inkscape="http://www.inkscape.org/namespaces/inkscape"
   version="1.0"
   width="96"
   height="96"
   id="svg2408"
   inkscape:version="0.48.1 r9760"
   sodipodi:docname="applications-internet.svg">
  <sodipodi:namedview
     pagecolor="#ffffff"
     bordercolor="#666666"
     borderopacity="1"
     objecttolerance="10"
     gridtolerance="10"
     guidetolerance="10"
     inkscape:pageopacity="0"
     inkscape:pageshadow="2"
     inkscape:window-width="640"
     inkscape:window-height="480"
     id="namedview81"
     showgrid="false"
     inkscape:zoom="3.3333333"
     inkscape:cx="48"
     inkscape:cy="51.3"
     inkscape:window-x="0"
     inkscape:window-y="0"
     inkscape:window-maximized="0"
     inkscape:current-layer="svg2408" />
  <defs
     id="defs2410">
    <linearGradient
       x1="45.447727"
       y1="92.539597"
       x2="45.447727"
       y2="7.0165396"
       id="ButtonShadow"
       gradientUnits="userSpaceOnUse"
       gradientTransform="scale(1.0058652,0.994169)">
      <stop
         id="stop3750"
         style="stop-color:#000000;stop-opacity:1"
         offset="0" />
      <stop
         id="stop3752"
         style="stop-color:#000000;stop-opacity:0.58823532"
         offset="1" />
    </linearGradient>
    <linearGradient
       id="linearGradient3737">
      <stop
         id="stop3739"
         style="stop-color:#ffffff;stop-opacity:1"
         offset="0" />
      <stop
         id="stop3741"
         style="stop-color:#ffffff;stop-opacity:0"
         offset="1" />
    </linearGradient>
    <filter
       color-interpolation-filters="sRGB"
       id="filter3174">
      <feGaussianBlur
         id="feGaussianBlur3176"
         stdDeviation="1.71" />
    </filter>
    <linearGradient
       x1="36.357143"
       y1="6"
       x2="36.357143"
       y2="63.893143"
       id="linearGradient3188"
       xlink:href="#linearGradient3737"
       gradientUnits="userSpaceOnUse" />
    <filter
       x="-0.192"
       y="-0.192"
       width="1.3839999"
       height="1.3839999"
       color-interpolation-filters="sRGB"
       id="filter3794">
      <feGaussianBlur
         id="feGaussianBlur3796"
         stdDeviation="5.28" />
    </filter>
    <linearGradient
       x1="48"
       y1="20.220806"
       x2="48"
       y2="138.66119"
       id="linearGradient3613"
       xlink:href="#linearGradient3737"
       gradientUnits="userSpaceOnUse" />
    <radialGradient
       cx="48"
       cy="90.171875"
       r="42"
       fx="48"
       fy="90.171875"
       id="radialGradient3619"
       xlink:href="#linearGradient3737"
       gradientUnits="userSpaceOnUse"
       gradientTransform="matrix(1.1573129,0,0,0.99590774,-7.5510206,0.19713193)" />
    <clipPath
       id="clipPath3613">
      <rect
         width="84"
         height="84"
         rx="6"
         ry="6"
         x="6"
         y="6"
         id="rect3615"
         style="fill:#ffffff;fill-opacity:1;fill-rule:nonzero;stroke:none" />
    </clipPath>
    <linearGradient
       x1="48"
       y1="90"
       x2="48"
       y2="5.9877172"
       id="linearGradient3617"
       xlink:href="#linearGradient3187"
       gradientUnits="userSpaceOnUse" />
    <linearGradient
       id="linearGradient3187">
      <stop
         id="stop3189"
         style="stop-color:#1567b3;stop-opacity:1"
         offset="0" />
      <stop
         id="stop3191"
         style="stop-color:#67aeed;stop-opacity:1"
         offset="1" />
    </linearGradient>
    <linearGradient
       id="linearGradient5226">
      <stop
         id="stop5228"
         style="stop-color:#ffffff;stop-opacity:1"
         offset="0" />
      <stop
         id="stop5230"
         style="stop-color:#ffffff;stop-opacity:0"
         offset="1" />
    </linearGradient>
    <radialGradient
       cx="63.98003"
       cy="61.948856"
       r="58.01997"
       fx="63.98003"
       fy="61.948856"
       id="radialGradient3973"
       xlink:href="#linearGradient5226"
       gradientUnits="userSpaceOnUse"
       gradientTransform="matrix(1.090012,0,0,0.83885371,-21.739003,-5.4660245)" />
    <radialGradient
       cx="69.75"
       cy="75.973572"
       r="58.5"
       fx="69.75"
       fy="75.973572"
       id="radialGradient3462"
       xlink:href="#linearGradient5226-0"
       gradientUnits="userSpaceOnUse"
       gradientTransform="matrix(0.70689703,0,0,0.26397967,2.935342,34.087887)" />
    <linearGradient
       id="linearGradient5226-0">
      <stop
         id="stop5228-7"
         style="stop-color:#ffffff;stop-opacity:1"
         offset="0" />
      <stop
         id="stop5230-6"
         style="stop-color:#ffffff;stop-opacity:0"
         offset="1" />
    </linearGradient>
    <radialGradient
       cx="49.233551"
       cy="70.608253"
       r="25.483549"
       fx="49.233551"
       fy="70.608253"
       id="radialGradient3465"
       xlink:href="#linearGradient5226-0"
       gradientUnits="userSpaceOnUse"
       gradientTransform="matrix(0.51921983,-0.47906434,1.2026838,1.3000296,-72.74405,-19.887561)" />
    <radialGradient
       cx="64.230392"
       cy="68.449158"
       r="43.769611"
       fx="64.230392"
       fy="68.449158"
       id="radialGradient3468"
       xlink:href="#linearGradient5226-0"
       gradientUnits="userSpaceOnUse"
       gradientTransform="matrix(0.9747377,0,0,0.92610887,-14.268168,-12.6013)" />
    <radialGradient
       cx="63.875"
       cy="2.2173476"
       r="58.375"
       fx="63.875"
       fy="2.2173476"
       id="radialGradient3471"
       xlink:href="#linearGradient5226-0"
       gradientUnits="userSpaceOnUse"
       gradientTransform="matrix(0.84390682,0,0,0.33117465,-5.8161585,32.792567)" />
    <radialGradient
       cx="74.375"
       cy="67.125"
       r="3.125"
       fx="74.375"
       fy="67.125"
       id="radialGradient3451"
       xlink:href="#linearGradient3543"
       gradientUnits="userSpaceOnUse" />
    <linearGradient
       id="linearGradient3543">
      <stop
         id="stop3545"
         style="stop-color:#ffffff;stop-opacity:1"
         offset="0" />
      <stop
         id="stop3555"
         style="stop-color:#ffffff;stop-opacity:1"
         offset="0.30645162" />
      <stop
         id="stop3551"
         style="stop-color:#ffffff;stop-opacity:0.640625"
         offset="0.51899064" />
      <stop
         id="stop3547"
         style="stop-color:#ffffff;stop-opacity:0"
         offset="1" />
    </linearGradient>
    <radialGradient
       cx="74.375"
       cy="67.125"
       r="3.125"
       fx="74.375"
       fy="67.125"
       id="radialGradient3449"
       xlink:href="#linearGradient3543"
       gradientUnits="userSpaceOnUse" />
    <radialGradient
       cx="74.375"
       cy="67.125"
       r="3.125"
       fx="74.375"
       fy="67.125"
       id="radialGradient3447"
       xlink:href="#linearGradient3543"
       gradientUnits="userSpaceOnUse" />
    <radialGradient
       cx="74.375"
       cy="67.125"
       r="3.125"
       fx="74.375"
       fy="67.125"
       id="radialGradient3445"
       xlink:href="#linearGradient3543"
       gradientUnits="userSpaceOnUse" />
    <radialGradient
       cx="74.375"
       cy="67.125"
       r="3.125"
       fx="74.375"
       fy="67.125"
       id="radialGradient3443"
       xlink:href="#linearGradient3543"
       gradientUnits="userSpaceOnUse" />
    <radialGradient
       cx="74.375"
       cy="67.125"
       r="3.125"
       fx="74.375"
       fy="67.125"
       id="radialGradient4103"
       xlink:href="#linearGradient3543"
       gradientUnits="userSpaceOnUse" />
    <linearGradient
       x1="45.447727"
       y1="92.539597"
       x2="45.447727"
       y2="7.0165396"
       id="ButtonShadow-0"
       gradientUnits="userSpaceOnUse"
       gradientTransform="matrix(1.0058652,0,0,0.994169,100,0)">
      <stop
         id="stop3750-8"
         style="stop-color:#000000;stop-opacity:1"
         offset="0" />
      <stop
         id="stop3752-5"
         style="stop-color:#000000;stop-opacity:0.58823532"
         offset="1" />
    </linearGradient>
    <linearGradient
       x1="32.251034"
       y1="6.1317081"
       x2="32.251034"
       y2="90.238609"
       id="linearGradient3780"
       xlink:href="#ButtonShadow-0"
       gradientUnits="userSpaceOnUse"
       gradientTransform="matrix(1.0238095,0,0,1.0119048,-1.1428571,-98.071429)" />
    <linearGradient
       x1="32.251034"
       y1="6.1317081"
       x2="32.251034"
       y2="90.238609"
       id="linearGradient3772"
       xlink:href="#ButtonShadow-0"
       gradientUnits="userSpaceOnUse"
       gradientTransform="matrix(1.0238095,0,0,1.0119048,-1.1428571,-98.071429)" />
    <linearGradient
       x1="32.251034"
       y1="6.1317081"
       x2="32.251034"
       y2="90.238609"
       id="linearGradient3725"
       xlink:href="#ButtonShadow-0"
       gradientUnits="userSpaceOnUse"
       gradientTransform="matrix(1.0238095,0,0,1.0119048,-1.1428571,-98.071429)" />
    <linearGradient
       x1="32.251034"
       y1="6.1317081"
       x2="32.251034"
       y2="90.238609"
       id="linearGradient3721"
       xlink:href="#ButtonShadow-0"
       gradientUnits="userSpaceOnUse"
       gradientTransform="translate(0,-97)" />
    <linearGradient
       x1="32.251034"
       y1="6.1317081"
       x2="32.251034"
       y2="90.238609"
       id="linearGradient2902"
       xlink:href="#ButtonShadow-0"
       gradientUnits="userSpaceOnUse"
       gradientTransform="matrix(1.0238095,0,0,1.0119048,-1.1428571,-98.071429)" />
    <linearGradient
       x1="66"
       y1="84"
       x2="66"
       y2="55"
       id="linearGradient4331"
       xlink:href="#linearGradient4325"
       gradientUnits="userSpaceOnUse"
       gradientTransform="matrix(1.3125,0,0,1.3125,-24.311447,-30.25)" />
    <linearGradient
       id="linearGradient4325">
      <stop
         id="stop4327"
         style="stop-color:#d88215;stop-opacity:1"
         offset="0" />
      <stop
         id="stop4329"
         style="stop-color:#efc259;stop-opacity:1"
         offset="1" />
    </linearGradient>
    <linearGradient
       x1="136.41356"
       y1="115.49392"
       x2="149.52968"
       y2="115.49392"
       id="linearGradient4666"
       xlink:href="#linearGradient3485"
       gradientUnits="userSpaceOnUse" />
    <linearGradient
       id="linearGradient3485">
      <stop
         id="stop3487"
         style="stop-color:#e6605b;stop-opacity:1"
         offset="0" />
      <stop
         id="stop3489"
         style="stop-color:#f08682;stop-opacity:1"
         offset="1" />
    </linearGradient>
    <filter
       x="-0.42857143"
       y="-0.16666667"
       width="1.8571428"
       height="1.3333333"
       color-interpolation-filters="sRGB"
       id="filter3495">
      <feGaussianBlur
         stdDeviation="0.55242721"
         id="feGaussianBlur3497" />
    </filter>
    <filter
       x="-0.18344349"
       y="-0.17668343"
       width="1.366887"
       height="1.3533669"
       color-interpolation-filters="sRGB"
       id="filter3509">
      <feGaussianBlur
         stdDeviation="0.65925"
         id="feGaussianBlur3511" />
    </filter>
    <linearGradient
       x1="137.40625"
       y1="116.46875"
       x2="148.53125"
       y2="116.46875"
       id="linearGradient4668"
       xlink:href="#linearGradient3339"
       gradientUnits="userSpaceOnUse"
       gradientTransform="matrix(1.0893815,0,0,1,-13.275943,0)" />
    <linearGradient
       id="linearGradient3339">
      <stop
         id="stop3341"
         style="stop-color:#000000;stop-opacity:1"
         offset="0" />
      <stop
         id="stop3347"
         style="stop-color:#000000;stop-opacity:0.49803922"
         offset="0.69999999" />
      <stop
         id="stop3343"
         style="stop-color:#000000;stop-opacity:0"
         offset="1" />
    </linearGradient>
    <linearGradient
       x1="136"
       y1="60"
       x2="150"
       y2="60"
       id="linearGradient4670"
       xlink:href="#linearGradient3278"
       gradientUnits="userSpaceOnUse"
       gradientTransform="translate(-23.73343,0)" />
    <linearGradient
       id="linearGradient3278">
      <stop
         id="stop3280"
         style="stop-color:#000000;stop-opacity:1"
         offset="0" />
      <stop
         id="stop3290"
         style="stop-color:#282828;stop-opacity:1"
         offset="0.25" />
      <stop
         id="stop3286"
         style="stop-color:#3c3c3c;stop-opacity:1"
         offset="0.30000001" />
      <stop
         id="stop3288"
         style="stop-color:#646464;stop-opacity:1"
         offset="0.69999999" />
      <stop
         id="stop3292"
         style="stop-color:#787878;stop-opacity:1"
         offset="0.75" />
      <stop
         id="stop3282"
         style="stop-color:#a0a0a0;stop-opacity:1"
         offset="1" />
    </linearGradient>
    <linearGradient
       x1="143"
       y1="2.4000001e-06"
       x2="143"
       y2="120.01752"
       id="linearGradient4672"
       xlink:href="#linearGradient3254"
       gradientUnits="userSpaceOnUse"
       gradientTransform="translate(-23.73343,0)" />
    <linearGradient
       id="linearGradient3254">
      <stop
         id="stop3256"
         style="stop-color:#000000;stop-opacity:1"
         offset="0" />
      <stop
         id="stop3266"
         style="stop-color:#000000;stop-opacity:1"
         offset="0.06588447" />
      <stop
         id="stop3264"
         style="stop-color:#ad5f1b;stop-opacity:1"
         offset="0.07" />
      <stop
         id="stop3268"
         style="stop-color:#ad601a;stop-opacity:1"
         offset="0.1913653" />
      <stop
         id="stop3262"
         style="stop-color:#000000;stop-opacity:1"
         offset="0.20983393" />
      <stop
         id="stop3258"
         style="stop-color:#000000;stop-opacity:1"
         offset="1" />
    </linearGradient>
    <linearGradient
       x1="141.25002"
       y1="4.9218717"
       x2="144.81252"
       y2="4.9218717"
       id="linearGradient4674"
       xlink:href="#linearGradient3394"
       gradientUnits="userSpaceOnUse"
       gradientTransform="translate(-23.73343,0)" />
    <linearGradient
       id="linearGradient3394">
      <stop
         id="stop3396"
         style="stop-color:#000000;stop-opacity:1"
         offset="0" />
      <stop
         id="stop3402"
         style="stop-color:#7d7d7d;stop-opacity:1"
         offset="0.5" />
      <stop
         id="stop3398"
         style="stop-color:#000000;stop-opacity:1"
         offset="1" />
    </linearGradient>
    <linearGradient
       x1="136.98804"
       y1="17.043356"
       x2="148.99513"
       y2="17.043356"
       id="linearGradient4676"
       xlink:href="#linearGradient3308"
       gradientUnits="userSpaceOnUse"
       gradientTransform="translate(-23.73343,0)" />
    <linearGradient
       id="linearGradient3308">
      <stop
         id="stop3310"
         style="stop-color:#da8539;stop-opacity:1"
         offset="0" />
      <stop
         id="stop3312"
         style="stop-color:#fadfc7;stop-opacity:1"
         offset="1" />
    </linearGradient>
    <linearGradient
       x1="146.10596"
       y1="118.94019"
       x2="146.07562"
       y2="66"
       id="linearGradient4678"
       xlink:href="#linearGradient5452"
       gradientUnits="userSpaceOnUse"
       gradientTransform="matrix(1,0,0,1.2653524,-23.73343,-54.364173)" />
    <linearGradient
       id="linearGradient5452">
      <stop
         id="stop5454"
         style="stop-color:#ffffff;stop-opacity:1"
         offset="0" />
      <stop
         id="stop5456"
         style="stop-color:#ffffff;stop-opacity:0"
         offset="1" />
    </linearGradient>
    <linearGradient
       x1="146.10596"
       y1="118.94019"
       x2="146.07562"
       y2="66"
       id="linearGradient4680"
       xlink:href="#linearGradient5452"
       gradientUnits="userSpaceOnUse"
       gradientTransform="matrix(1,0,0,1.2653524,-29.85843,-54.364173)" />
    <linearGradient
       id="linearGradient3267">
      <stop
         id="stop3269"
         style="stop-color:#ffffff;stop-opacity:1"
         offset="0" />
      <stop
         id="stop3271"
         style="stop-color:#ffffff;stop-opacity:0"
         offset="1" />
    </linearGradient>
    <filter
       x="-0.43161276"
       y="-0.11371106"
       width="1.8632255"
       height="1.2274221"
       color-interpolation-filters="sRGB"
       id="filter3382">
      <feGaussianBlur
         stdDeviation="0.73914765"
         id="feGaussianBlur3384" />
    </filter>
    <filter
       x="-0.60979599"
       y="-0.1494"
       width="2.2195919"
       height="1.2988"
       color-interpolation-filters="sRGB"
       id="filter3390">
      <feGaussianBlur
         stdDeviation="0.77812506"
         id="feGaussianBlur3392" />
    </filter>
    <linearGradient
       x1="136"
       y1="106"
       x2="150"
       y2="106"
       id="linearGradient4682"
       xlink:href="#linearGradient3401"
       gradientUnits="userSpaceOnUse" />
    <linearGradient
       id="linearGradient3401">
      <stop
         id="stop3403"
         style="stop-color:#404040;stop-opacity:1"
         offset="0" />
      <stop
         id="stop3447"
         style="stop-color:#808080;stop-opacity:1"
         offset="0.2" />
      <stop
         id="stop3410"
         style="stop-color:#efefef;stop-opacity:1"
         offset="0.69999999" />
      <stop
         id="stop3405"
         style="stop-color:#dcdcdc;stop-opacity:1"
         offset="1" />
    </linearGradient>
    <linearGradient
       x1="136"
       y1="106"
       x2="150"
       y2="106"
       id="linearGradient4684"
       xlink:href="#linearGradient3461"
       gradientUnits="userSpaceOnUse" />
    <linearGradient
       id="linearGradient3461">
      <stop
         id="stop3463"
         style="stop-color:#444542;stop-opacity:1"
         offset="0" />
      <stop
         id="stop3465"
         style="stop-color:#71746e;stop-opacity:1"
         offset="1" />
    </linearGradient>
    <linearGradient
       x1="142.95775"
       y1="98.950562"
       x2="148.95775"
       y2="98.950562"
       id="linearGradient4686"
       xlink:href="#linearGradient3339"
       gradientUnits="userSpaceOnUse"
       gradientTransform="translate(0.04225159,1.5494389)"
       spreadMethod="reflect" />
    <linearGradient
       id="linearGradient3288">
      <stop
         id="stop3291"
         style="stop-color:#000000;stop-opacity:1"
         offset="0" />
      <stop
         id="stop3293"
         style="stop-color:#000000;stop-opacity:0.49803922"
         offset="0.69999999" />
      <stop
         id="stop3295"
         style="stop-color:#000000;stop-opacity:0"
         offset="1" />
    </linearGradient>
    <linearGradient
       x1="142.95775"
       y1="98.950562"
       x2="148.95775"
       y2="98.950562"
       id="linearGradient4688"
       xlink:href="#linearGradient3355"
       gradientUnits="userSpaceOnUse"
       gradientTransform="translate(0.04225159,2.5494389)"
       spreadMethod="reflect" />
    <linearGradient
       id="linearGradient3355">
      <stop
         id="stop3357"
         style="stop-color:#ffffff;stop-opacity:1"
         offset="0" />
      <stop
         id="stop3359"
         style="stop-color:#ffffff;stop-opacity:0.49803922"
         offset="0.69999999" />
      <stop
         id="stop3361"
         style="stop-color:#ffffff;stop-opacity:0"
         offset="1" />
    </linearGradient>
    <linearGradient
       x1="142.95775"
       y1="98.950562"
       x2="148.95775"
       y2="98.950562"
       id="linearGradient4690"
       xlink:href="#linearGradient3339"
       gradientUnits="userSpaceOnUse"
       gradientTransform="translate(0.04225159,3.5494389)"
       spreadMethod="reflect" />
    <linearGradient
       id="linearGradient3303">
      <stop
         id="stop3305"
         style="stop-color:#000000;stop-opacity:1"
         offset="0" />
      <stop
         id="stop3307"
         style="stop-color:#000000;stop-opacity:0.49803922"
         offset="0.69999999" />
      <stop
         id="stop3309"
         style="stop-color:#000000;stop-opacity:0"
         offset="1" />
    </linearGradient>
    <linearGradient
       x1="142.95775"
       y1="98.950562"
       x2="148.95775"
       y2="98.950562"
       id="linearGradient4692"
       xlink:href="#linearGradient3355"
       gradientUnits="userSpaceOnUse"
       gradientTransform="translate(0.04225159,4.5494389)"
       spreadMethod="reflect" />
    <linearGradient
       id="linearGradient3312">
      <stop
         id="stop3314"
         style="stop-color:#ffffff;stop-opacity:1"
         offset="0" />
      <stop
         id="stop3316"
         style="stop-color:#ffffff;stop-opacity:0.49803922"
         offset="0.69999999" />
      <stop
         id="stop3318"
         style="stop-color:#ffffff;stop-opacity:0"
         offset="1" />
    </linearGradient>
    <linearGradient
       x1="142.95775"
       y1="98.950562"
       x2="148.95775"
       y2="98.950562"
       id="linearGradient4694"
       xlink:href="#linearGradient3339"
       gradientUnits="userSpaceOnUse"
       gradientTransform="translate(0.04225159,9.5494389)"
       spreadMethod="reflect" />
    <linearGradient
       id="linearGradient3321">
      <stop
         id="stop3323"
         style="stop-color:#000000;stop-opacity:1"
         offset="0" />
      <stop
         id="stop3325"
         style="stop-color:#000000;stop-opacity:0.49803922"
         offset="0.69999999" />
      <stop
         id="stop3327"
         style="stop-color:#000000;stop-opacity:0"
         offset="1" />
    </linearGradient>
    <linearGradient
       x1="142.95775"
       y1="98.950562"
       x2="148.95775"
       y2="98.950562"
       id="linearGradient4696"
       xlink:href="#linearGradient3355"
       gradientUnits="userSpaceOnUse"
       gradientTransform="translate(0.04225159,10.549439)"
       spreadMethod="reflect" />
    <linearGradient
       id="linearGradient3330">
      <stop
         id="stop3332"
         style="stop-color:#ffffff;stop-opacity:1"
         offset="0" />
      <stop
         id="stop3334"
         style="stop-color:#ffffff;stop-opacity:0.49803922"
         offset="0.69999999" />
      <stop
         id="stop3336"
         style="stop-color:#ffffff;stop-opacity:0"
         offset="1" />
    </linearGradient>
    <linearGradient
       x1="142.95775"
       y1="98.950562"
       x2="148.95775"
       y2="98.950562"
       id="linearGradient4698"
       xlink:href="#linearGradient3339"
       gradientUnits="userSpaceOnUse"
       gradientTransform="translate(0.04225159,11.549439)"
       spreadMethod="reflect" />
    <linearGradient
       id="linearGradient3340">
      <stop
         id="stop3342"
         style="stop-color:#000000;stop-opacity:1"
         offset="0" />
      <stop
         id="stop3344"
         style="stop-color:#000000;stop-opacity:0.49803922"
         offset="0.69999999" />
      <stop
         id="stop3346"
         style="stop-color:#000000;stop-opacity:0"
         offset="1" />
    </linearGradient>
    <linearGradient
       x1="142.95775"
       y1="98.950562"
       x2="148.95775"
       y2="98.950562"
       id="linearGradient4700"
       xlink:href="#linearGradient3355"
       gradientUnits="userSpaceOnUse"
       gradientTransform="translate(0.04225159,12.549439)"
       spreadMethod="reflect" />
    <linearGradient
       id="linearGradient3349">
      <stop
         id="stop3351"
         style="stop-color:#ffffff;stop-opacity:1"
         offset="0" />
      <stop
         id="stop3353"
         style="stop-color:#ffffff;stop-opacity:0.49803922"
         offset="0.69999999" />
      <stop
         id="stop3355"
         style="stop-color:#ffffff;stop-opacity:0"
         offset="1" />
    </linearGradient>
    <linearGradient
       x1="137"
       y1="106"
       x2="139.03125"
       y2="106"
       id="linearGradient4702"
       xlink:href="#linearGradient3439"
       gradientUnits="userSpaceOnUse"
       spreadMethod="repeat" />
    <linearGradient
       id="linearGradient3439">
      <stop
         id="stop3441"
         style="stop-color:#3d3d3d;stop-opacity:1"
         offset="0" />
      <stop
         id="stop3443"
         style="stop-color:#ffffff;stop-opacity:1"
         offset="1" />
    </linearGradient>
    <filter
       x="-1.0349605"
       y="-0.13573837"
       width="3.069921"
       height="1.2714767"
       color-interpolation-filters="sRGB"
       id="filter3451">
      <feGaussianBlur
         stdDeviation="0.9498173"
         id="feGaussianBlur3453" />
    </filter>
    <filter
       x="-0.93333328"
       y="-0.13770492"
       width="2.8666666"
       height="1.2754098"
       color-interpolation-filters="sRGB"
       id="filter3457">
      <feGaussianBlur
         stdDeviation="0.92807767"
         id="feGaussianBlur3459" />
    </filter>
  </defs>
  <metadata
     id="metadata2413">
    <rdf:RDF>
      <cc:Work
         rdf:about="">
        <dc:format>image/svg+xml</dc:format>
        <dc:type
           rdf:resource="http://purl.org/dc/dcmitype/StillImage" />
        <dc:title></dc:title>
      </cc:Work>
    </rdf:RDF>
  </metadata>
  <g
     id="layer2"
     style="display:none">
    <rect
       width="86"
       height="85"
       rx="6"
       ry="6"
       x="5"
       y="7"
       id="rect3745"
       style="opacity:0.9;fill:url(#ButtonShadow);fill-opacity:1;fill-rule:nonzero;stroke:none;filter:url(#filter3174)" />
  </g>
  <g
     id="layer6"
     style="display:inline">
    <path
       d="m 12,-95.03125 c -5.5110903,0 -10.03125,4.52016 -10.03125,10.03125 l 0,71 c 0,5.5110902 4.5201598,10.03125 10.03125,10.03125 l 72,0 c 5.51109,0 10.03125,-4.5201597 10.03125,-10.03125 l 0,-71 c 0,-5.51109 -4.52016,-10.03125 -10.03125,-10.03125 l -72,0 z"
       transform="scale(1,-1)"
       id="path3786"
       style="opacity:0.07999998;fill:url(#linearGradient2902);fill-opacity:1;fill-rule:nonzero;stroke:none;display:inline" />
    <path
       d="m 12,-94.03125 c -4.971633,0 -9.03125,4.059617 -9.03125,9.03125 l 0,71 c 0,4.9716329 4.0596171,9.03125 9.03125,9.03125 l 72,0 c 4.971633,0 9.03125,-4.059617 9.03125,-9.03125 l 0,-71 c 0,-4.971633 -4.059617,-9.03125 -9.03125,-9.03125 l -72,0 z"
       transform="scale(1,-1)"
       id="path3778"
       style="opacity:0.1;fill:url(#linearGradient3780);fill-opacity:1;fill-rule:nonzero;stroke:none;display:inline" />
    <path
       d="m 12,-93 c -4.4091333,0 -8,3.590867 -8,8 l 0,71 c 0,4.4091333 3.5908667,8 8,8 l 72,0 c 4.409133,0 8,-3.5908667 8,-8 l 0,-71 c 0,-4.409133 -3.590867,-8 -8,-8 l -72,0 z"
       transform="scale(1,-1)"
       id="path3770"
       style="opacity:0.2;fill:url(#linearGradient3772);fill-opacity:1;fill-rule:nonzero;stroke:none;display:inline" />
    <rect
       width="86"
       height="85"
       rx="7"
       ry="7"
       x="5"
       y="-92"
       transform="scale(1,-1)"
       id="rect3723"
       style="opacity:0.3;fill:url(#linearGradient3725);fill-opacity:1;fill-rule:nonzero;stroke:none;display:inline" />
    <rect
       width="84"
       height="84"
       rx="6"
       ry="6"
       x="6"
       y="-91"
       transform="scale(1,-1)"
       id="rect3716"
       style="opacity:0.45;fill:url(#linearGradient3721);fill-opacity:1;fill-rule:nonzero;stroke:none;display:inline" />
  </g>
  <g
     id="layer1">
    <rect
       width="84"
       height="84"
       rx="6"
       ry="6"
       x="6"
       y="6"
       id="rect2419"
       style="fill:url(#linearGradient3617);fill-opacity:1;fill-rule:nonzero;stroke:none" />
    <path
       d="M 12,6 C 8.676,6 6,8.676 6,12 l 0,2 0,68 0,2 c 0,0.334721 0.04135,0.6507 0.09375,0.96875 0.0487,0.295596 0.09704,0.596915 0.1875,0.875 0.00988,0.03038 0.020892,0.0636 0.03125,0.09375 0.098865,0.287771 0.2348802,0.547452 0.375,0.8125 0.1445918,0.273507 0.3156161,0.535615 0.5,0.78125 0.1843839,0.245635 0.3737765,0.473472 0.59375,0.6875 0.439947,0.428056 0.94291,0.814526 1.5,1.09375 0.278545,0.139612 0.5734731,0.246947 0.875,0.34375 -0.2562018,-0.100222 -0.4867109,-0.236272 -0.71875,-0.375 -0.00741,-0.0044 -0.023866,0.0045 -0.03125,0 -0.031933,-0.0193 -0.062293,-0.04251 -0.09375,-0.0625 -0.120395,-0.0767 -0.2310226,-0.163513 -0.34375,-0.25 -0.1061728,-0.0808 -0.2132809,-0.161112 -0.3125,-0.25 C 8.4783201,88.557317 8.3087904,88.373362 8.15625,88.1875 8.0486711,88.057245 7.9378561,87.922215 7.84375,87.78125 7.818661,87.74287 7.805304,87.69538 7.78125,87.65625 7.716487,87.553218 7.6510225,87.451733 7.59375,87.34375 7.4927417,87.149044 7.3880752,86.928049 7.3125,86.71875 7.30454,86.69694 7.288911,86.6782 7.28125,86.65625 7.2494249,86.5643 7.2454455,86.469419 7.21875,86.375 7.1884177,86.268382 7.1483606,86.171969 7.125,86.0625 7.0521214,85.720988 7,85.364295 7,85 L 7,83 7,15 7,13 C 7,10.218152 9.2181517,8 12,8 l 2,0 68,0 2,0 c 2.781848,0 5,2.218152 5,5 l 0,2 0,68 0,2 c 0,0.364295 -0.05212,0.720988 -0.125,1.0625 -0.04415,0.206893 -0.08838,0.397658 -0.15625,0.59375 -0.0077,0.02195 -0.0233,0.04069 -0.03125,0.0625 -0.06274,0.173739 -0.138383,0.367449 -0.21875,0.53125 -0.04158,0.0828 -0.07904,0.169954 -0.125,0.25 -0.0546,0.09721 -0.126774,0.18835 -0.1875,0.28125 -0.09411,0.140965 -0.204921,0.275995 -0.3125,0.40625 -0.143174,0.17445 -0.303141,0.346998 -0.46875,0.5 -0.01117,0.0102 -0.01998,0.02115 -0.03125,0.03125 -0.138386,0.125556 -0.285091,0.234436 -0.4375,0.34375 -0.102571,0.07315 -0.204318,0.153364 -0.3125,0.21875 -0.0074,0.0045 -0.02384,-0.0044 -0.03125,0 -0.232039,0.138728 -0.462548,0.274778 -0.71875,0.375 0.301527,-0.0968 0.596455,-0.204138 0.875,-0.34375 0.55709,-0.279224 1.060053,-0.665694 1.5,-1.09375 0.219973,-0.214028 0.409366,-0.441865 0.59375,-0.6875 0.184384,-0.245635 0.355408,-0.507743 0.5,-0.78125 0.14012,-0.265048 0.276135,-0.524729 0.375,-0.8125 0.01041,-0.03078 0.02133,-0.06274 0.03125,-0.09375 0.09046,-0.278085 0.1388,-0.579404 0.1875,-0.875 C 89.95865,84.6507 90,84.334721 90,84 l 0,-2 0,-68 0,-2 C 90,8.676 87.324,6 84,6 L 12,6 z"
       inkscape:connector-curvature="0"
       id="rect3728"
       style="opacity:0.4;fill:url(#linearGradient3188);fill-opacity:1;fill-rule:nonzero;stroke:none" />
    <path
       d="M 12,90 C 8.676,90 6,87.324 6,84 L 6,82 6,14 6,12 c 0,-0.334721 0.04135,-0.6507 0.09375,-0.96875 0.0487,-0.295596 0.09704,-0.596915 0.1875,-0.875 C 6.29113,10.12587 6.302142,10.09265 6.3125,10.0625 6.411365,9.774729 6.5473802,9.515048 6.6875,9.25 6.8320918,8.976493 7.0031161,8.714385 7.1875,8.46875 7.3718839,8.223115 7.5612765,7.995278 7.78125,7.78125 8.221197,7.353194 8.72416,6.966724 9.28125,6.6875 9.559795,6.547888 9.8547231,6.440553 10.15625,6.34375 9.9000482,6.443972 9.6695391,6.580022 9.4375,6.71875 c -0.00741,0.0044 -0.023866,-0.0045 -0.03125,0 -0.031933,0.0193 -0.062293,0.04251 -0.09375,0.0625 -0.120395,0.0767 -0.2310226,0.163513 -0.34375,0.25 -0.1061728,0.0808 -0.2132809,0.161112 -0.3125,0.25 C 8.4783201,7.442683 8.3087904,7.626638 8.15625,7.8125 8.0486711,7.942755 7.9378561,8.077785 7.84375,8.21875 7.818661,8.25713 7.805304,8.30462 7.78125,8.34375 7.716487,8.446782 7.6510225,8.548267 7.59375,8.65625 7.4927417,8.850956 7.3880752,9.071951 7.3125,9.28125 7.30454,9.30306 7.288911,9.3218 7.28125,9.34375 7.2494249,9.4357 7.2454455,9.530581 7.21875,9.625 7.1884177,9.731618 7.1483606,9.828031 7.125,9.9375 7.0521214,10.279012 7,10.635705 7,11 l 0,2 0,68 0,2 c 0,2.781848 2.2181517,5 5,5 l 2,0 68,0 2,0 c 2.781848,0 5,-2.218152 5,-5 l 0,-2 0,-68 0,-2 C 89,10.635705 88.94788,10.279012 88.875,9.9375 88.83085,9.730607 88.78662,9.539842 88.71875,9.34375 88.71105,9.3218 88.69545,9.30306 88.6875,9.28125 88.62476,9.107511 88.549117,8.913801 88.46875,8.75 88.42717,8.6672 88.38971,8.580046 88.34375,8.5 88.28915,8.40279 88.216976,8.31165 88.15625,8.21875 88.06214,8.077785 87.951329,7.942755 87.84375,7.8125 87.700576,7.63805 87.540609,7.465502 87.375,7.3125 87.36383,7.3023 87.35502,7.29135 87.34375,7.28125 87.205364,7.155694 87.058659,7.046814 86.90625,6.9375 86.803679,6.86435 86.701932,6.784136 86.59375,6.71875 c -0.0074,-0.0045 -0.02384,0.0044 -0.03125,0 -0.232039,-0.138728 -0.462548,-0.274778 -0.71875,-0.375 0.301527,0.0968 0.596455,0.204138 0.875,0.34375 0.55709,0.279224 1.060053,0.665694 1.5,1.09375 0.219973,0.214028 0.409366,0.441865 0.59375,0.6875 0.184384,0.245635 0.355408,0.507743 0.5,0.78125 0.14012,0.265048 0.276135,0.524729 0.375,0.8125 0.01041,0.03078 0.02133,0.06274 0.03125,0.09375 0.09046,0.278085 0.1388,0.579404 0.1875,0.875 C 89.95865,11.3493 90,11.665279 90,12 l 0,2 0,68 0,2 c 0,3.324 -2.676,6 -6,6 l -72,0 z"
       inkscape:connector-curvature="0"
       id="path3615"
       style="opacity:0.2;fill:url(#radialGradient3619);fill-opacity:1;fill-rule:nonzero;stroke:none" />
  </g>
  <g
     id="layer3">
    <path
       d="m 36.273886,6.0961948 c 1.650117,2.2113875 0.112582,5.9041752 2.601475,5.8675182 1.211896,1.709913 -2.415455,0.510072 0.203593,1.827957 1.506105,1.183738 -1.593389,1.860078 0.271787,2.922365 -2.149684,1.107009 0.348446,5.790098 1.945123,6.962147 2.627951,2.207864 1.162201,-4.67451 4.094495,-5.032526 1.593361,-1.815344 4.391846,-2.98066 6.379269,-4.806851 -1.942296,-0.157362 -3.076461,-1.363862 -1.237023,-2.11124 3.385455,3.462091 0.848905,-1.639594 -1.025129,-2.4473701 1.813359,-0.5756653 3.576974,-0.1541111 3.325364,-1.6474191 1.916319,-1.3991597 -1.842258,-1.850905 -3.183939,-1.534581 -4.458339,0 -8.916676,0 -13.375015,0 z M 8.4720355,7.5405066 C 6.0222749,8.2370314 5.8513922,14.079701 8.3136849,10.835344 8.9180274,9.5031721 11.710762,7.8977167 8.4720355,7.5405066 z M 19.918526,7.7436133 c -1.412257,2.21004 0.204916,3.9819487 1.379913,1.2863401 0.831708,-1.1256428 -0.617926,-1.2450983 -1.379913,-1.2863401 z m 3.528957,0.4964817 c -2.728751,1.2621852 -0.672603,4.205478 -0.60506,4.860083 2.87456,0.992448 4.473228,-0.648881 5.560694,2.156315 2.735157,1.573161 -0.05382,4.306731 -1.080545,5.018636 1.849343,-1.607334 5.404159,4.369999 4.472253,1.212017 -1.111784,-0.810133 2.985157,1.301441 0.859617,-1.331475 -1.956061,-3.145114 0.155273,-1.408037 0.979953,-0.673992 2.804886,-2.510076 -3.173596,-2.813465 -1.68122,-5.396633 C 30.645418,13.027997 28.930287,9.8257681 26.614496,10.451698 25.064255,12.452463 26.400343,6.0921938 24.125892,9.2749566 24.008,11.054105 24.083042,13.31173 23.420181,10.229494 c -0.444071,-0.5395809 0.764,-1.793999 0.0273,-1.989399 z m -5.564894,0.022569 c -1.831601,0.6093918 -1.733228,3.079121 0.518957,3.343892 0.771434,-0.877529 0.30649,-3.1777172 -0.518957,-3.3438919 z M 10.734188,9.0525224 C 8.3551088,9.6150517 9.3261955,11.529448 10.054614,12.06861 c -2.9449169,0.736158 4.495691,0.94087 0.792681,1.407118 -3.08079,1.22789 2.966663,2.674528 3.958767,1.218638 3.80439,0.928509 0.136908,-3.039255 -0.197041,-5.1900826 -1.612752,-1.7273388 -0.06366,3.9819826 -1.521868,0.1839667 -0.508787,1.1278389 -2.126528,0.1662002 -2.352965,-0.6357277 z m 75.601127,0.2482403 c -3.192449,1.2468723 1.98418,5.9521573 0.697641,1.6714863 -0.128164,-0.516886 0.288199,-1.8825902 -0.697641,-1.6714863 z M 19.669689,11.196422 c -2.294081,2.151546 2.915988,3.930772 -0.658895,5.533633 -0.536019,-1.998146 -1.458274,0.999707 -3.503465,-0.613946 -3.515899,1.460963 -5.313868,-0.761001 -8.2575345,-2.28409 -1.7680293,-0.219637 -1.1037807,1.676511 -1.2208833,3.451913 0,4.906537 0,9.813075 0,14.719613 1.7334888,1.820114 0.6763285,0.80305 0,0.301029 0.9514666,3.233886 -0.4195721,7.961135 3.3308508,9.842222 0.6375631,1.180203 3.312882,6.208185 3.43622,4.703764 -1.341214,-1.401704 -2.717353,-5.603945 -0.447896,-1.858566 2.032756,3.560254 4.77475,5.869428 8.780477,6.716648 2.190058,0.743444 3.99117,3.299052 5.917116,2.736761 1.089051,2.865096 -3.227415,5.616415 0.144913,8.288718 1.760515,2.705308 4.716183,4.479653 3.11596,8.277713 -1.119074,3.709365 -0.639926,7.751157 -1.607787,11.20721 -0.300394,2.103688 2.938036,7.443159 2.657471,3.167516 0.945569,-2.971276 0.920636,-6.240651 3.147581,-8.344813 3.047109,0.02407 0.582373,-3.269905 3.607007,-2.839605 1.845643,-2.414288 2.380233,-5.294422 5.49491,-6.253089 0.372044,-2.930576 5.178818,-7.418801 0.21314,-8.55979 -1.34961,-0.663857 -4.824508,-0.902566 -4.558947,-1.230126 0.538031,-2.907903 -4.493469,-3.735741 -6.634233,-4.925455 -2.810758,-1.991072 -7.034236,3.30766 -8.024513,-1.258007 -0.590876,-1.436504 -2.751326,-1.4598 -1.75843,-3.676393 -1.789387,1.776067 -5.289343,1.236276 -4.373033,-2.193653 1.39157,-2.888666 6.73564,-3.025343 7.646261,0.449204 -1.264352,-3.832011 2.443938,-6.815083 4.502527,-9.54133 0.419165,-1.303075 2.909744,-2.422615 2.052679,-0.690765 1.460154,-0.05256 3.673289,-2.682202 1.079409,-1.468489 -0.03668,-2.398143 -2.272976,-1.716156 -2.997997,-1.375635 1.343772,-2.128469 8.244987,-0.964813 5.355099,-4.443927 -2.239304,-0.905507 -2.053028,-6.189603 -4.317999,-3.245811 0.190591,-1.813796 -4.610012,-5.364278 -4.505256,-2.322748 0.585986,2.7216 0.107133,5.85682 -1.139925,7.640785 -0.260245,-3.988053 -7.075679,-3.106633 -6.199423,-7.356349 1.26944,-2.025433 2.75285,-4.826333 2.894179,-4.574365 2.275047,-0.866862 4.10459,-3.388384 1.467829,-5.046018 -0.140917,1.444736 -1.98303,4.425523 -1.72366,0.820357 -1.705794,2.018338 -1.316199,-3.211704 -2.913752,-3.754116 z M 74.119693,12.5956 c -3.99594,0.975496 -5.580066,4.784358 -7.556816,7.939118 -2.913854,1.311093 -2.802935,6.941668 0.452413,5.143338 0.871278,1.518634 -0.609508,3.912288 1.928313,1.926594 2.046998,-2.703416 0.357938,-7.075784 3.841419,-8.780454 0.253733,1.325472 -3.213337,6.274821 0.836999,5.461306 3.661561,0.137878 -2.66186,0.364095 -0.881003,2.698256 -1.850268,-1.095583 -0.888831,2.992156 -3.303981,2.040892 -2.09233,1.135809 -3.464337,-0.527363 -2.985035,-2.349323 -1.645958,0.958274 0.517698,3.661667 -2.339578,3.824136 -0.640049,2.268218 -5.903382,1.926341 -2.910209,4.235999 1.328901,3.437113 -4.951535,0.215469 -3.168535,4.340119 1.525448,4.078655 4.722399,-1.35148 6.019435,-2.400589 2.502475,-1.937225 6.210661,3.303165 3.958766,3.497944 2.525081,-0.338101 2.00619,-2.73469 -0.01696,-3.662515 -1.092677,-2.82815 3.459031,1.386996 3.2066,2.804954 1.605947,3.001147 0.944615,-3.072718 2.578852,-0.383645 -0.190801,2.836574 6.574181,0.666957 3.344389,4.282144 -2.776877,0.558175 -5.510129,-0.714429 -7.900826,0.100684 -2.225116,-0.01964 -2.113474,-2.392226 -2.923585,-2.986378 -2.830366,0.22949 -6.327934,0.203539 -8.222766,2.485442 -2.049024,2.805613 -5.003834,6.727658 -2.770529,10.310077 2.234872,5.308729 7.777178,0.275367 10.962974,3.410586 0.946933,1.307246 -0.820595,2.861171 1.296709,4.277161 0.796708,3.016302 -0.904486,5.880227 1.052267,8.763626 1.011837,2.711692 1.639779,6.770392 5.405757,4.292514 3.985771,-2.393715 2.924168,-6.806375 6.212946,-9.250462 -2.60227,-5.026009 3.183614,-7.229763 4.627211,-11.309974 -3.153943,0.460803 -5.963772,-2.677338 -6.725787,-5.835942 -1.324936,-1.534204 -0.983669,-3.796395 0.496326,-0.914275 2.034266,1.967187 2.078217,7.804341 5.841274,4.801502 1.720342,-0.718113 6.418604,-3.45743 2.675109,-4.704038 -2.413043,1.744216 -5.075245,-5.21176 -1.531819,-1.177146 C 88.196064,46.567937 90,47.217781 90,43.601599 c 0,-9.742755 0,-19.617522 0,-29.426283 -0.802399,0.818316 -2.863802,2.329653 -3.904284,1.32539 -1.790368,0.248808 -4.153886,3.725348 -3.591242,0.364664 -1.556236,-0.102846 -0.278581,3.013306 -2.416645,3.100453 -0.215282,1.602045 -2.159868,0.296667 -1.429424,1.818009 -1.500652,-1.062327 -2.770676,-4.416447 0.186139,-2.311184 4.391021,-1.314691 -2.895608,-4.28014 -3.458045,-4.996921 0.945455,-0.226071 -1.028609,-1.209346 -1.266806,-0.880127 z m -36.239679,0.880127 c -1.461503,1.215286 2.778535,1.444147 0,0 z m -19.522373,0.654454 c -1.634653,1.706411 2.60328,1.568685 0,0 z m 9.478417,1.692553 c -1.237866,2.023723 1.829028,0.747151 0,0 z m 27.100584,2.392143 c -1.449232,1.665083 -3.362049,-0.438213 -3.393229,0.992964 0.262645,0.432437 1.314673,3.518852 3.619444,1.241206 1.236984,-0.520462 0.749959,-1.832484 -0.226215,-2.23417 z m -30.855756,0.992964 c -2.748807,2.395732 4.668304,2.616464 0.582323,0.274768 l -0.582323,-0.274768 z m 36.262299,6.63481 c -1.979083,1.287951 0.949436,4.023157 -0.04308,5.307991 -1.240102,2.156293 4.608325,-0.151892 1.484617,-1.872269 -0.222569,-1.478071 -1.830024,-3.281486 -1.441541,-3.435722 z m -1.33467,2.595248 c -2.757392,0.777992 -0.625961,4.794736 0.350661,1.01157 0.05497,-0.219332 0.12936,-1.018906 -0.350661,-1.01157 z M 36.92991,31.349091 c -2.565224,1.745645 -0.398428,3.488076 1.481561,2.702638 -0.385957,-1.053236 -1.464168,-1.716838 -1.481561,-2.702638 z m 48.455301,2.933759 c 1.279946,0.644652 -2.345536,1.745894 -0.04983,2.880449 1.335978,1.56791 0.832312,4.933623 -1.339202,2.551522 0.403442,-2.659611 -2.943559,-4.645833 1.389033,-5.431971 z m -6.582867,0.02257 c -0.173666,1.708694 3.693957,4.364669 -0.475048,3.497943 -2.204744,0.258106 -5.506967,-0.06723 -2.729423,-2.808943 0.87765,-0.525824 3.182055,1.814147 1.982912,-0.373057 0.42514,-0.02707 0.821079,-0.187223 1.221559,-0.315943 z M 66.06643,38.006468 c -1.608111,1.033934 1.111987,1.826739 0,0 z m -40.379416,9.63627 c -0.271104,0.90264 5.08599,1.817396 1.389301,0.371258 l -0.551069,-0.193581 -0.838232,-0.177677 z m 4.16236,1.28634 c -1.624916,1.646263 3.34781,0.491838 0,0 z m 54.336893,15.097576 c -3.530712,0.09092 -3.061323,9.179576 -0.60013,3.801721 0.233406,-1.167001 1.168896,-2.707282 0.60013,-3.801721 z"
       inkscape:connector-curvature="0"
       id="path3522"
       style="opacity:0.6;fill:url(#radialGradient3973);fill-opacity:1;stroke:none;display:inline" />
  </g>
  <g
     id="layer4">
    <path
       d="m 77.5,67.125 a 3.125,3.125 0 1 1 -6.25,0 3.125,3.125 0 1 1 6.25,0 z"
       transform="matrix(1.3572422,0,0,1.3554377,-73.268157,-53.871603)"
       id="path3537"
       style="fill:url(#radialGradient4103);fill-opacity:1;fill-rule:evenodd;stroke:none;display:inline" />
    <path
       d="m 77.5,67.125 a 3.125,3.125 0 1 1 -6.25,0 3.125,3.125 0 1 1 6.25,0 z"
       transform="matrix(1.0744835,0,0,1.0730548,-39.513825,-14.090919)"
       id="path3557"
       style="fill:url(#radialGradient3443);fill-opacity:1;fill-rule:evenodd;stroke:none;display:inline" />
    <path
       d="m 77.5,67.125 a 3.125,3.125 0 1 1 -6.25,0 3.125,3.125 0 1 1 6.25,0 z"
       transform="matrix(1.5834493,0,0,1.581344,-53.333661,-72.388859)"
       id="path3561"
       style="fill:url(#radialGradient3445);fill-opacity:1;fill-rule:evenodd;stroke:none;display:inline" />
    <path
       d="m 77.5,67.125 a 3.125,3.125 0 1 1 -6.25,0 3.125,3.125 0 1 1 6.25,0 z"
       transform="matrix(1.0219348,0,0,1.020576,-15.635673,-16.92189)"
       id="path3565"
       style="opacity:0.6;fill:url(#radialGradient3447);fill-opacity:1;fill-rule:evenodd;stroke:none;display:inline" />
    <path
       d="m 77.5,67.125 a 3.125,3.125 0 1 1 -6.25,0 3.125,3.125 0 1 1 6.25,0 z"
       transform="matrix(0.79408906,0,0,0.79303321,-44.284507,-21.76786)"
       id="path3569"
       style="opacity:0.6;fill:url(#radialGradient3449);fill-opacity:1;fill-rule:evenodd;stroke:none;display:inline" />
    <path
       d="m 77.5,67.125 a 3.125,3.125 0 1 1 -6.25,0 3.125,3.125 0 1 1 6.25,0 z"
       transform="matrix(0.56551763,0,0,0.5647657,38.456917,3.2615074)"
       id="path3573"
       style="opacity:0.6;fill:url(#radialGradient3451);fill-opacity:1;fill-rule:evenodd;stroke:none;display:inline" />
    <path
       d="M 7.1767242,47.701508 C 35.275882,28.287687 72.387975,27.228751 89.000056,49.289911"
       inkscape:connector-curvature="0"
       id="path3577"
       style="fill:none;stroke:url(#radialGradient3471);stroke-width:2;stroke-linecap:butt;stroke-linejoin:miter;stroke-miterlimit:4;stroke-opacity:1;stroke-dasharray:none;display:inline" />
    <path
       d="M 27.676739,88.823511 C 26.616393,73.292454 56.129343,28.640665 88.823332,20.875137"
       inkscape:connector-curvature="0"
       id="path3581"
       style="fill:none;stroke:url(#radialGradient3468);stroke-width:2;stroke-linecap:butt;stroke-linejoin:miter;stroke-miterlimit:4;stroke-opacity:1;stroke-dasharray:none;display:inline" />
    <path
       d="M 7,29.523112 C 58.250036,38.347576 38.633643,89 38.633643,89"
       inkscape:connector-curvature="0"
       id="path3583"
       style="fill:none;stroke:url(#radialGradient3465);stroke-width:2;stroke-linecap:butt;stroke-linejoin:miter;stroke-miterlimit:4;stroke-opacity:1;stroke-dasharray:none;display:inline" />
    <path
       d="M 7.1767242,67.821286 C 58.42676,56.349483 89.17678,37.641619 89.17678,37.641619"
       inkscape:connector-curvature="0"
       id="path3585"
       style="opacity:0.6;fill:none;stroke:url(#radialGradient3462);stroke-width:1.5;stroke-linecap:butt;stroke-linejoin:miter;stroke-miterlimit:4;stroke-opacity:1;stroke-dasharray:none;display:inline" />
  </g>
  <g
     id="layer5">
    <rect
       width="66"
       height="66"
       rx="12"
       ry="12"
       x="15"
       y="15"
       clip-path="url(#clipPath3613)"
       id="rect3171"
       style="opacity:0.1;fill:url(#linearGradient3613);fill-opacity:1;fill-rule:nonzero;stroke:#ffffff;stroke-width:0.5;stroke-linecap:round;stroke-linejoin:miter;stroke-miterlimit:4;stroke-opacity:1;stroke-dasharray:none;stroke-dashoffset:0;filter:url(#filter3794)" />
  </g>
  <g
     style="display:inline"
     id="layer5-7"
     transform="translate(0.109743,-0.2031296)">
    <path
       d="m 86.105513,24 c 1.712947,0.115525 1.853804,2.055059 1.6875,3.384678 -0.02091,18.015905 0.04176,36.045373 -0.03125,54.052822 -0.429848,1.780159 -2.543396,1.423585 -3.924539,1.40625 C 56.396688,82.8229 28.945886,82.88544 1.5117634,82.8125 c -1.8407,-0.40251 -1.810244,-3.136799 -0.06402,-3.691385 C 29.368227,60.817186 57.262241,42.455078 85.199263,24.1875 85.472972,24.010755 85.795186,24.021912 86.105513,24 z m -12.3125,24.34375 C 63.36593,55.1875 52.938846,62.03125 42.511763,68.875 c 10.427083,0 20.854167,0 31.28125,0 0,-6.84375 0,-13.6875 0,-20.53125 z"
       inkscape:connector-curvature="0"
       id="path4983"
       style="opacity:0.07999998;fill:#000000;fill-opacity:1;stroke:none" />
    <path
       d="M 9.9375,24.96875 A 0.90595161,0.90595161 0 0 0 9.125,25.875 l 0,55.125 a 0.90595161,0.90595161 0 0 0 0.90625,0.90625 l 84,0 a 0.90595161,0.90595161 0 0 0 0.5,-1.65625 l -84,-55.125 A 0.90595161,0.90595161 0 0 0 9.9375,24.96875 z m 11.3125,21.625 35.375,23.21875 -35.375,0 0,-23.21875 z"
       transform="matrix(-1,0,0,1,95.98051,0)"
       id="path4979"
       style="opacity:0.12000002;fill:#000000;fill-opacity:1;stroke:none"
       inkscape:connector-curvature="0" />
    <path
       d="M 85.938553,25.875 1.9385534,81 l 83.9999996,0 0,-55.125 z m -10.294922,19.03125 0,25.798828 -39.333985,0 39.333985,-25.798828 z"
       inkscape:connector-curvature="0"
       id="path4973"
       style="opacity:0.3;fill:#000000;fill-opacity:1;stroke:none" />
    <path
       d="M 85.938553,24.875 1.9385534,80 l 83.9999996,0 0,-55.125 z m -10.294922,19.03125 0,25.798828 -39.333985,0 39.333985,-25.798828 z"
       inkscape:connector-curvature="0"
       id="path4318"
       style="fill:url(#linearGradient4331);fill-opacity:1;stroke:none" />
    <path
       d="m 75.636763,42.90625 0,1 -37.78125,24.8125 -1.53125,0 39.3125,-25.8125 z M 85.949263,79 l 0,1 -83.9999996,0 1.5312496,-1 82.46875,0 z"
       inkscape:connector-curvature="0"
       id="path4964"
       style="fill:#a0672c;fill-opacity:1;stroke:none" />
    <path
       d="m 85.949263,24.875 0,1 L 3.480513,80 1.9492634,80 85.949263,24.875 z m -10.3125,44.84375 0,1 -39.3125,0 1.53125,-1 37.78125,0 z"
       inkscape:connector-curvature="0"
       id="path4955"
       style="opacity:0.5;fill:#ffe680;fill-opacity:1;stroke:none" />
    <path
       d="m 14.78125,27.125 c -0.417673,-0.01944 -0.935948,0.02277 -1.46875,0.21875 l -3.21875,1.1875 C 8.1843378,29.233582 7.2441769,31.365073 7.9375,33.25 l -0.03125,0 0.3125,0.90625 c -0.00912,0.04733 -9.78e-5,0.09444 0,0.09375 2.01e-4,-0.0014 -5.96e-5,0.220181 0,0.21875 5.96e-5,-0.0014 8.23e-5,0.18893 0,0.1875 -8.23e-5,-0.0014 2.234e-4,0.188915 0,0.1875 -2.234e-4,-0.0014 0.062862,0.188886 0.0625,0.1875 -3.624e-4,-0.0014 0.062998,0.188843 0.0625,0.1875 l 0.1875,0.5 a 1.0151518,1.0151518 0 0 0 0.03125,0.125 c -3.815e-4,-7.48e-4 0.062924,0.09447 0.0625,0.09375 -1.632e-4,-2.79e-4 0.020032,0.01332 0.03125,0.03125 0.017949,0.02869 0.031536,0.06293 0.03125,0.0625 -2.526e-4,-5.54e-4 0.012959,0.05716 0.03125,0.09375 0.012912,0.02583 0.031456,0.06288 0.03125,0.0625 l 0.03125,0 3.625,9.84375 14.0625,38.21875 a 1.0151518,1.0151518 0 0 0 0,0.03125 c -3.56e-4,-8.69e-4 0.06291,0.125844 0.0625,0.125 -4.12e-4,-8.44e-4 0.06297,0.125815 0.0625,0.125 -4.66e-4,-8.15e-4 0.06302,0.09453 0.0625,0.09375 -3.63e-4,-5.48e-4 0.0092,0.06264 0.03125,0.09375 0.0094,0.01333 0.03142,0.03147 0.03125,0.03125 l 8.09375,11.46875 a 1.0151518,1.0151518 0 0 0 0.03125,0 c -6.94e-4,-9.39e-4 0.09452,0.12588 0.09375,0.125 -7.67e-4,-8.8e-4 0.125836,0.125815 0.125,0.125 -8.36e-4,-8.15e-4 0.09465,0.09449 0.09375,0.09375 -8.99e-4,-7.45e-4 0.157206,0.12567 0.15625,0.125 -9.56e-4,-6.7e-4 0.126007,0.06309 0.125,0.0625 -10e-4,-5.91e-4 0.126052,0.09426 0.125,0.09375 -0.0011,-5.07e-4 0.157339,0.06292 0.15625,0.0625 -0.0011,-4.21e-4 0.15737,0.03158 0.15625,0.03125 -0.0011,-3.31e-4 0.157393,0.06274 0.15625,0.0625 -0.0011,-2.4e-4 0.157408,0.0314 0.15625,0.03125 -0.0012,-1.47e-4 0.157416,5.3e-5 0.15625,0 -0.0012,-5.3e-5 0.157417,-4.1e-5 0.15625,0 -0.0012,4.1e-5 0.15741,-1.35e-4 0.15625,0 -0.0012,1.35e-4 0.157395,-0.03148 0.15625,-0.03125 -0.0011,2.29e-4 0.157373,-0.03157 0.15625,-0.03125 -0.0011,3.2e-4 0.157343,-0.06291 0.15625,-0.0625 -0.0011,4.1e-4 0.157307,-0.063 0.15625,-0.0625 -0.0011,4.97e-4 0.157263,-0.06308 0.15625,-0.0625 -10e-4,5.81e-4 0.125963,-0.09441 0.125,-0.09375 -9.63e-4,6.6e-4 0.125906,-0.09449 0.125,-0.09375 -9.06e-4,7.36e-4 0.125844,-0.125807 0.125,-0.125 -8.44e-4,8.07e-4 0.125776,-0.09462 0.125,-0.09375 -7.76e-4,8.72e-4 0.09445,-0.125932 0.09375,-0.125 -7.03e-4,9.32e-4 0.09438,-0.125986 0.09375,-0.125 -6.26e-4,9.86e-4 0.06304,-0.157283 0.0625,-0.15625 -5.44e-4,0.001 0.06296,-0.126074 0.0625,-0.125 -4.59e-4,0.0011 0.06287,-0.157357 0.0625,-0.15625 -3.71e-4,0.0011 0.06278,-0.157384 0.0625,-0.15625 -2.8e-4,0.0011 0.03144,-0.157402 0.03125,-0.15625 -1.88e-4,0.0012 9.4e-5,-0.157414 0,-0.15625 -9.4e-5,0.0012 0.03125,-0.157418 0.03125,-0.15625 0,0.0012 -0.03135,-0.188664 -0.03125,-0.1875 l -1.25,-14.03125 a 1.0151518,1.0151518 0 0 0 0,-0.03125 c 1.07e-4,9.55e-4 -1.71e-4,-0.125945 0,-0.125 1.71e-4,9.45e-4 -0.03148,-0.125932 -0.03125,-0.125 2.33e-4,9.32e-4 -0.03154,-0.125914 -0.03125,-0.125 2.36e-4,7.32e-4 -0.0511,-0.06195 -0.0625,-0.09375 l 0,-0.03125 L 23,42.125 19.25,32.03125 A 1.0151518,1.0151518 0 0 0 19.25,32 c 5.03e-4,0.0013 -0.06312,-0.157491 -0.0625,-0.15625 6.25e-4,0.0012 -0.09449,-0.188676 -0.09375,-0.1875 7.41e-4,0.0012 -0.125851,-0.157349 -0.125,-0.15625 8.51e-4,0.0011 -0.125953,-0.126012 -0.125,-0.125 9.53e-4,0.001 -0.126045,-0.157166 -0.125,-0.15625 4e-4,3.5e-4 -0.03531,-0.0097 -0.0625,-0.03125 L 18.0625,29.5 a 1.0151518,1.0151518 0 0 0 -0.03125,0 c -0.524378,-1.425611 -1.828853,-2.308872 -3.25,-2.375 z"
       transform="translate(23,-1)"
       id="path4993"
       style="opacity:0.07999998;fill:#000000;fill-opacity:1;stroke:#000000;stroke-width:0.75;stroke-linecap:butt;stroke-linejoin:round;stroke-miterlimit:4;stroke-opacity:1;stroke-dasharray:none"
       inkscape:connector-curvature="0" />
    <path
       d="m 14.71875,28.125 c -0.320997,-0.01494 -0.677093,0.01449 -1.0625,0.15625 l -3.21875,1.1875 C 9.0586616,29.975923 8.3711898,31.536549 8.875,32.90625 L 9.3125,34.125 a 0.97171158,0.97171158 0 0 0 -0.03125,0.75 l 0.1875,0.5 a 0.97171158,0.97171158 0 0 0 0.125,0.1875 0.97171158,0.97171158 0 0 0 0.03125,0.0625 0.97171158,0.97171158 0 0 0 0.03125,0.0625 l 3.6875,10 14.0625,38.21875 a 0.97171158,0.97171158 0 0 0 0.125,0.21875 l 8.125,11.5 a 0.97171158,0.97171158 0 0 0 1.75,-0.65625 l -1.25,-14.03125 a 0.97171158,0.97171158 0 0 0 -0.0625,-0.25 L 22.0625,42.46875 18.3125,32.375 a 0.97171158,0.97171158 0 0 0 -0.5,-0.53125 l -0.71875,-2 c -0.376873,-1.024593 -1.349129,-1.671015 -2.375,-1.71875 z"
       transform="translate(23,-1)"
       id="path4989"
       style="opacity:0.12000002;fill:#000000;fill-opacity:1;stroke:#000000;stroke-width:0.75;stroke-linecap:butt;stroke-linejoin:round;stroke-miterlimit:4;stroke-opacity:1;stroke-dasharray:none"
       inkscape:connector-curvature="0" />
    <path
       d="m 37.686933,28.085656 c 0.660424,0.03073 1.265838,0.426325 1.509142,1.087788 l 0.958134,2.656726 0.261544,-0.09627 3.72717,10.07173 14.051309,38.226668 1.239345,14.016702 -8.126661,-11.481505 -14.05131,-38.226666 -3.72717,-10.071731 0.215653,-0.05958 -0.09627,-0.261544 -0.261544,0.09627 -0.192547,-0.523086 0.261544,-0.09627 -0.669314,-1.872096 c -0.324404,-0.881952 0.114273,-1.86379 0.996222,-2.188194 l 3.225705,-1.187372 c 0.220488,-0.0811 0.458909,-0.101807 0.679051,-0.09156 z"
       inkscape:connector-curvature="0"
       id="rect4708"
       style="opacity:0.3;fill:#000000;fill-opacity:1;stroke:#000000;stroke-width:0.75;stroke-linecap:butt;stroke-linejoin:round;stroke-miterlimit:4;stroke-opacity:1;stroke-dasharray:none" />
    <g
       transform="matrix(0.53065619,-0.19518968,-0.19518968,-0.53065619,-16.217803,121.1895)"
       id="g3643"
       style="display:inline">
      <g
         id="g3537">
        <rect
           width="12.116117"
           height="16"
           rx="3"
           ry="3"
           x="136.91356"
           y="107.49392"
           id="rect3483"
           style="fill:url(#linearGradient4666);fill-opacity:1;stroke:#df453f;stroke-width:1.32645738;stroke-linecap:butt;stroke-linejoin:round;stroke-miterlimit:4;stroke-opacity:1;stroke-dasharray:none" />
        <path
           d="m 141.24458,118.1889 a 1.5467962,3.9774759 0 1 1 -3.09359,0 1.5467962,3.9774759 0 1 1 3.09359,0 z"
           transform="matrix(1.8857143,0,0,1,-123.51329,-1.9445437)"
           id="path3493"
           style="opacity:0.3;fill:#701300;fill-opacity:1;stroke:none;filter:url(#filter3495)"
           inkscape:connector-curvature="0" />
        <path
           d="m 146.31251,113.125 c -0.85193,9.50672 -3.9375,8.3125 -6.5,8.9375 4.07634,0.0625 8.625,-0.0625 8.625,-0.0625 -2.4375,-0.5625 -1.8125,-2.375 -2.125,-8.875 z"
           inkscape:connector-curvature="0"
           id="path3499"
           style="opacity:0.8;fill:#ffffff;fill-opacity:1;fill-rule:evenodd;stroke:none;filter:url(#filter3509)" />
        <rect
           width="12.119369"
           height="1"
           x="136.41188"
           y="115.96875"
           id="rect3525"
           style="opacity:0.2;fill:url(#linearGradient4668);fill-opacity:1;stroke:none" />
      </g>
      <g
         transform="translate(23.73343,0)"
         id="g3311">
        <path
           d="m 112.76657,24.500002 6.5,-23.9999996 6.5,23.9999996 0,71.999997 -13,0 0,-71.999997 z"
           inkscape:connector-curvature="0"
           id="rect2480"
           style="fill:url(#linearGradient4670);fill-opacity:1;stroke:url(#linearGradient4672);stroke-width:1.32645738;stroke-linecap:butt;stroke-linejoin:round;stroke-miterlimit:4;stroke-opacity:1;stroke-dasharray:none" />
        <path
           d="m 117.69336,8.0716529 3.14265,0.022097 -1.58237,-5.7913293"
           inkscape:connector-curvature="0"
           id="path3272"
           style="fill:url(#linearGradient4674);fill-opacity:1;fill-rule:evenodd;stroke:none" />
        <path
           d="M 117.73213,8.0901517 113.96457,22 c 0,0 -0.46779,1.653465 -0.698,2.60832 -0.19122,0.64228 1.95886,1.611283 3.0182,-1.60832 1.21534,4.513809 5.57589,3.437953 5.98831,0.01105 0.3425,1.701476 1.75396,2.949961 2.98863,1.521937 -0.23478,-0.908743 -0.43641,-1.521937 -0.43641,-1.521937 l -4.02168,-14.9208973 -3.07149,0 z"
           inkscape:connector-curvature="0"
           id="path3274"
           style="fill:url(#linearGradient4676);fill-opacity:1;fill-rule:evenodd;stroke:none" />
        <path
           d="m 122.37252,96.304856 0,-67.217294"
           inkscape:connector-curvature="0"
           id="path3294"
           style="opacity:0.3;fill:none;stroke:url(#linearGradient4678);stroke-width:1.76860964px;stroke-linecap:butt;stroke-linejoin:miter;stroke-opacity:1" />
        <path
           d="m 116.24752,96.304856 0,-67.217294"
           inkscape:connector-curvature="0"
           id="path3304"
           style="opacity:0.4;fill:none;stroke:url(#linearGradient4680);stroke-width:1.76860964px;stroke-linecap:butt;stroke-linejoin:miter;stroke-opacity:1" />
        <path
           d="m 118.7044,5.9798798 -4.77297,17.8986412 1.98873,-0.839689 2.78424,-17.0589522 z"
           inkscape:connector-curvature="0"
           id="path3372"
           style="opacity:0.4;fill:#ac4311;fill-opacity:1;fill-rule:evenodd;stroke:none;filter:url(#filter3382)" />
        <path
           d="m 113.07908,24.624995 c 0,0 1.48667,1.76491 3.25,-1.53125 2,5.25 5.16858,2.087146 5.93749,-0.03125 1.375,3.4375 3.12501,1.4375 3.12501,1.4375"
           inkscape:connector-curvature="0"
           id="path3386"
           style="opacity:0.15;fill:none;stroke:#4d2600;stroke-width:1.76860964px;stroke-linecap:butt;stroke-linejoin:miter;stroke-opacity:1" />
        <path
           d="m 144.06251,8.9374939 -0.375,12.5000011 3.0625,-0.3125 -2.6875,-12.1875011 z"
           inkscape:connector-curvature="0"
           transform="matrix(1.122449,0,0,1.345,-41.70282,-4.7709353)"
           id="path3388"
           style="opacity:0.8;fill:#ffffff;fill-opacity:1;fill-rule:evenodd;stroke:none;filter:url(#filter3390)" />
      </g>
      <g
         id="g3620">
        <rect
           width="13"
           height="19"
           x="136.5"
           y="96.5"
           id="rect3333"
           style="fill:url(#linearGradient4682);fill-opacity:1;stroke:url(#linearGradient4684);stroke-width:1.32645738;stroke-linecap:butt;stroke-linejoin:round;stroke-miterlimit:4;stroke-opacity:1;stroke-dasharray:none" />
        <rect
           width="12"
           height="1"
           x="137"
           y="100"
           id="rect3337"
           style="opacity:0.4;fill:url(#linearGradient4686);fill-opacity:1;stroke:none" />
        <rect
           width="12"
           height="1"
           x="137"
           y="101"
           id="rect3351"
           style="opacity:0.6;fill:url(#linearGradient4688);fill-opacity:1;stroke:none" />
        <rect
           width="12"
           height="1"
           x="137"
           y="102"
           id="rect3369"
           style="opacity:0.4;fill:url(#linearGradient4690);fill-opacity:1;stroke:none" />
        <rect
           width="12"
           height="1"
           x="137"
           y="103"
           id="rect3371"
           style="opacity:0.6;fill:url(#linearGradient4692);fill-opacity:1;stroke:none" />
        <rect
           width="12"
           height="1"
           x="137"
           y="108"
           id="rect3379"
           style="opacity:0.4;fill:url(#linearGradient4694);fill-opacity:1;stroke:none" />
        <rect
           width="12"
           height="1"
           x="137"
           y="109"
           id="rect3381"
           style="opacity:0.6;fill:url(#linearGradient4696);fill-opacity:1;stroke:none" />
        <rect
           width="12"
           height="1"
           x="137"
           y="110"
           id="rect3385"
           style="opacity:0.4;fill:url(#linearGradient4698);fill-opacity:1;stroke:none" />
        <rect
           width="12"
           height="1"
           x="137"
           y="111"
           id="rect3387"
           style="opacity:0.6;fill:url(#linearGradient4700);fill-opacity:1;stroke:none" />
        <rect
           width="12"
           height="4"
           x="137"
           y="104"
           id="rect3437"
           style="opacity:0.3;fill:url(#linearGradient4702);fill-opacity:1;stroke:none" />
        <path
           d="m 140.00001,106.07969 a 1.10128,8.3968973 0 1 1 -2.20256,0 1.10128,8.3968973 0 1 1 2.20256,0 z"
           transform="matrix(1.2553848,0,0,1,-35.75387,0)"
           id="path3449"
           style="opacity:0.6;fill:#000000;fill-opacity:1;stroke:none;filter:url(#filter3451)"
           inkscape:connector-curvature="0" />
        <path
           d="m 147.34339,106.03549 a 1.193245,8.0875489 0 1 1 -2.38649,0 1.193245,8.0875489 0 1 1 2.38649,0 z"
           id="path3455"
           style="opacity:0.8;fill:#ffffff;fill-opacity:1;stroke:none;filter:url(#filter3457)"
           inkscape:connector-curvature="0" />
      </g>
    </g>
  </g>
</svg>
