<?xml version="1.0" encoding="UTF-8" standalone="no"?>
<!-- Created with Inkscape (http://www.inkscape.org/) -->

<svg
   xmlns:dc="http://purl.org/dc/elements/1.1/"
   xmlns:cc="http://creativecommons.org/ns#"
   xmlns:rdf="http://www.w3.org/1999/02/22-rdf-syntax-ns#"
   xmlns:svg="http://www.w3.org/2000/svg"
   xmlns="http://www.w3.org/2000/svg"
   xmlns:xlink="http://www.w3.org/1999/xlink"
   xmlns:sodipodi="http://sodipodi.sourceforge.net/DTD/sodipodi-0.dtd"
   xmlns:inkscape="http://www.inkscape.org/namespaces/inkscape"
   version="1.0"
   width="96"
   height="96"
   id="svg2408"
   style="display:inline"
   inkscape:version="0.48.0 r9654"
   sodipodi:docname="clementine.svg"
   inkscape:export-filename="/home/seba/Dropbox/Faenza/clementine.png"
   inkscape:export-xdpi="45"
   inkscape:export-ydpi="45">
  <sodipodi:namedview
     pagecolor="#ffffff"
     bordercolor="#666666"
     borderopacity="1"
     objecttolerance="10"
     gridtolerance="10"
     guidetolerance="10"
     inkscape:pageopacity="0"
     inkscape:pageshadow="2"
     inkscape:window-width="640"
     inkscape:window-height="480"
     id="namedview58"
     showgrid="false"
     inkscape:zoom="2.8284271"
     inkscape:cx="43.96707"
     inkscape:cy="31.809695"
     inkscape:current-layer="svg2408" />
  <defs
     id="defs2410">
    <linearGradient
       inkscape:collect="always"
       id="linearGradient4094">
      <stop
         style="stop-color:#ffe1cd;stop-opacity:1;"
         offset="0"
         id="stop4096" />
      <stop
         style="stop-color:#ffe1cd;stop-opacity:0;"
         offset="1"
         id="stop4098" />
    </linearGradient>
    <linearGradient
       inkscape:collect="always"
       id="linearGradient4045">
      <stop
         style="stop-color:#ffb380;stop-opacity:1;"
         offset="0"
         id="stop4047" />
      <stop
         style="stop-color:#ffb380;stop-opacity:0;"
         offset="1"
         id="stop4049" />
    </linearGradient>
    <linearGradient
       inkscape:collect="always"
       id="linearGradient4037">
      <stop
         style="stop-color:#ffcfaf;stop-opacity:1;"
         offset="0"
         id="stop4039" />
      <stop
         style="stop-color:#ffcfaf;stop-opacity:0;"
         offset="1"
         id="stop4041" />
    </linearGradient>
    <linearGradient
       inkscape:collect="always"
       id="linearGradient3991">
      <stop
         style="stop-color:#ffcfaf;stop-opacity:1;"
         offset="0"
         id="stop3993" />
      <stop
         style="stop-color:#ffcfaf;stop-opacity:0;"
         offset="1"
         id="stop3995" />
    </linearGradient>
    <linearGradient
       x1="45.447727"
       y1="92.539597"
       x2="45.447727"
       y2="7.0165396"
       id="ButtonShadow"
       gradientUnits="userSpaceOnUse"
       gradientTransform="scale(1.0058652,0.994169)">
      <stop
         id="stop3750"
         style="stop-color:#000000;stop-opacity:1"
         offset="0" />
      <stop
         id="stop3752"
         style="stop-color:#000000;stop-opacity:0.58823532"
         offset="1" />
    </linearGradient>
    <linearGradient
       id="linearGradient3700">
      <stop
         id="stop3702"
         style="stop-color:#c44e00;stop-opacity:1;"
         offset="0" />
      <stop
         id="stop3704"
         style="stop-color:#ff7315;stop-opacity:1;"
         offset="1" />
    </linearGradient>
    <linearGradient
       x1="48"
       y1="90"
       x2="48"
       y2="5.9877172"
       id="linearGradient3706"
       xlink:href="#linearGradient3700"
       gradientUnits="userSpaceOnUse" />
    <filter
       color-interpolation-filters="sRGB"
       id="filter3174">
      <feGaussianBlur
         id="feGaussianBlur3176"
         stdDeviation="1.71" />
    </filter>
    <linearGradient
       x1="45.447727"
       y1="92.539597"
       x2="45.447727"
       y2="7.0165396"
       id="ButtonShadow-0"
       gradientUnits="userSpaceOnUse"
       gradientTransform="matrix(1.0058652,0,0,0.994169,100,0)">
      <stop
         id="stop3750-8"
         style="stop-color:#000000;stop-opacity:1"
         offset="0" />
      <stop
         id="stop3752-5"
         style="stop-color:#000000;stop-opacity:0.58823532"
         offset="1" />
    </linearGradient>
    <linearGradient
       x1="32.251034"
       y1="6.1317081"
       x2="32.251034"
       y2="90.238609"
       id="linearGradient3780"
       xlink:href="#ButtonShadow-0"
       gradientUnits="userSpaceOnUse"
       gradientTransform="matrix(1.0238095,0,0,1.0119048,-1.1428571,-98.071429)" />
    <linearGradient
       x1="32.251034"
       y1="6.1317081"
       x2="32.251034"
       y2="90.238609"
       id="linearGradient3772"
       xlink:href="#ButtonShadow-0"
       gradientUnits="userSpaceOnUse"
       gradientTransform="matrix(1.0238095,0,0,1.0119048,-1.1428571,-98.071429)" />
    <linearGradient
       x1="32.251034"
       y1="6.1317081"
       x2="32.251034"
       y2="90.238609"
       id="linearGradient3725"
       xlink:href="#ButtonShadow-0"
       gradientUnits="userSpaceOnUse"
       gradientTransform="matrix(1.0238095,0,0,1.0119048,-1.1428571,-98.071429)" />
    <linearGradient
       x1="32.251034"
       y1="6.1317081"
       x2="32.251034"
       y2="90.238609"
       id="linearGradient3721"
       xlink:href="#ButtonShadow-0"
       gradientUnits="userSpaceOnUse"
       gradientTransform="translate(0,-97)" />
    <linearGradient
       x1="32.251034"
       y1="6.1317081"
       x2="32.251034"
       y2="90.238609"
       id="linearGradient3760"
       xlink:href="#ButtonShadow-0"
       gradientUnits="userSpaceOnUse"
       gradientTransform="matrix(1.0238095,0,0,1.0119048,-1.1428571,-98.071429)" />
    <linearGradient
       id="linearGradient3737-1">
      <stop
         id="stop3739-9"
         style="stop-color:#ffffff;stop-opacity:1"
         offset="0" />
      <stop
         id="stop3741-3"
         style="stop-color:#ffffff;stop-opacity:0"
         offset="1" />
    </linearGradient>
    <radialGradient
       cx="48"
       cy="90.171875"
       r="42"
       fx="48"
       fy="90.171875"
       id="radialGradient2886"
       xlink:href="#linearGradient3737-0"
       gradientUnits="userSpaceOnUse"
       gradientTransform="matrix(1.1573129,0,0,0.99590774,-7.551021,0.1971319)" />
    <linearGradient
       id="linearGradient3737-0">
      <stop
         id="stop3739-6"
         style="stop-color:#ffffff;stop-opacity:1"
         offset="0" />
      <stop
         id="stop3741-0"
         style="stop-color:#ffffff;stop-opacity:0"
         offset="1" />
    </linearGradient>
    <linearGradient
       x1="36.357143"
       y1="6"
       x2="36.357143"
       y2="63.893143"
       id="linearGradient3923"
       xlink:href="#linearGradient3737-1"
       gradientUnits="userSpaceOnUse" />
    <linearGradient
       id="linearGradient3737-9">
      <stop
         id="stop3739-2"
         style="stop-color:#ffffff;stop-opacity:1"
         offset="0" />
      <stop
         id="stop3741-1"
         style="stop-color:#ffffff;stop-opacity:0"
         offset="1" />
    </linearGradient>
    <clipPath
       id="clipPath3613">
      <rect
         width="84"
         height="84"
         rx="6"
         ry="6"
         x="6"
         y="6"
         id="rect3615"
         style="fill:#ffffff;fill-opacity:1;fill-rule:nonzero;stroke:none" />
    </clipPath>
    <filter
       x="-0.192"
       y="-0.192"
       width="1.3839999"
       height="1.3839999"
       color-interpolation-filters="sRGB"
       id="filter3794">
      <feGaussianBlur
         id="feGaussianBlur3796"
         stdDeviation="5.28" />
    </filter>
    <linearGradient
       x1="48"
       y1="20.220806"
       x2="48"
       y2="138.66119"
       id="linearGradient2890"
       xlink:href="#linearGradient3737-9"
       gradientUnits="userSpaceOnUse" />
    <radialGradient
       inkscape:collect="always"
       xlink:href="#linearGradient3991"
       id="radialGradient3997"
       cx="47.389832"
       cy="46.576271"
       fx="47.389832"
       fy="46.576271"
       r="31.292768"
       gradientUnits="userSpaceOnUse" />
    <radialGradient
       inkscape:collect="always"
       xlink:href="#linearGradient4037"
       id="radialGradient4043"
       cx="48.367492"
       cy="47.779506"
       fx="48.367492"
       fy="47.779506"
       r="45.588355"
       gradientTransform="matrix(0.71045398,0.00787847,-0.00777461,0.7011197,15.182098,14.694977)"
       gradientUnits="userSpaceOnUse" />
    <radialGradient
       inkscape:collect="always"
       xlink:href="#linearGradient4045"
       id="radialGradient4051"
       cx="48.367492"
       cy="47.779506"
       fx="48.367492"
       fy="47.779506"
       r="45.588355"
       gradientTransform="matrix(0.71045398,0.00787847,-0.00777461,0.7011197,15.182098,14.694977)"
       gradientUnits="userSpaceOnUse" />
    <radialGradient
       inkscape:collect="always"
       xlink:href="#linearGradient4094"
       id="radialGradient4100"
       cx="24.395184"
       cy="117.30159"
       fx="24.395184"
       fy="117.30159"
       r="18.561554"
       gradientTransform="matrix(1,0,0,0.4238095,0,67.588062)"
       gradientUnits="userSpaceOnUse" />
    <linearGradient
       inkscape:collect="always"
       id="linearGradient4094-5">
      <stop
         style="stop-color:#ffe1cd;stop-opacity:1;"
         offset="0"
         id="stop4096-6" />
      <stop
         style="stop-color:#ffe1cd;stop-opacity:0;"
         offset="1"
         id="stop4098-0" />
    </linearGradient>
    <radialGradient
       r="18.561554"
       fy="117.30159"
       fx="24.395184"
       cy="117.30159"
       cx="24.395184"
       gradientTransform="matrix(1,0,0,0.4238095,0,67.588062)"
       gradientUnits="userSpaceOnUse"
       id="radialGradient4117"
       xlink:href="#linearGradient4094-5"
       inkscape:collect="always" />
    <linearGradient
       inkscape:collect="always"
       id="linearGradient4094-5-4">
      <stop
         style="stop-color:#ffe1cd;stop-opacity:1;"
         offset="0"
         id="stop4096-6-2" />
      <stop
         style="stop-color:#ffe1cd;stop-opacity:0;"
         offset="1"
         id="stop4098-0-9" />
    </linearGradient>
    <radialGradient
       r="18.561554"
       fy="117.30159"
       fx="24.395184"
       cy="117.30159"
       cx="24.395184"
       gradientTransform="matrix(1,0,0,0.4238095,0,67.588062)"
       gradientUnits="userSpaceOnUse"
       id="radialGradient4151"
       xlink:href="#linearGradient4094-5-4"
       inkscape:collect="always" />
    <linearGradient
       inkscape:collect="always"
       id="linearGradient4094-5-4-3">
      <stop
         style="stop-color:#ffe1cd;stop-opacity:1;"
         offset="0"
         id="stop4096-6-2-5" />
      <stop
         style="stop-color:#ffe1cd;stop-opacity:0;"
         offset="1"
         id="stop4098-0-9-3" />
    </linearGradient>
    <radialGradient
       r="18.561554"
       fy="117.30159"
       fx="24.395184"
       cy="117.30159"
       cx="24.395184"
       gradientTransform="matrix(1,0,0,0.4238095,0,67.588062)"
       gradientUnits="userSpaceOnUse"
       id="radialGradient4185"
       xlink:href="#linearGradient4094-5-4-3"
       inkscape:collect="always" />
    <linearGradient
       inkscape:collect="always"
       id="linearGradient4094-5-4-3-5">
      <stop
         style="stop-color:#ffe1cd;stop-opacity:1;"
         offset="0"
         id="stop4096-6-2-5-4" />
      <stop
         style="stop-color:#ffe1cd;stop-opacity:0;"
         offset="1"
         id="stop4098-0-9-3-3" />
    </linearGradient>
    <radialGradient
       r="18.561554"
       fy="117.30159"
       fx="24.395184"
       cy="117.30159"
       cx="24.395184"
       gradientTransform="matrix(1,0,0,0.4238095,0,67.588062)"
       gradientUnits="userSpaceOnUse"
       id="radialGradient4219"
       xlink:href="#linearGradient4094-5-4-3-5"
       inkscape:collect="always" />
    <linearGradient
       inkscape:collect="always"
       id="linearGradient4094-5-4-3-5-7">
      <stop
         style="stop-color:#ffe1cd;stop-opacity:1;"
         offset="0"
         id="stop4096-6-2-5-4-8" />
      <stop
         style="stop-color:#ffe1cd;stop-opacity:0;"
         offset="1"
         id="stop4098-0-9-3-3-4" />
    </linearGradient>
    <radialGradient
       r="18.561554"
       fy="117.30159"
       fx="24.395184"
       cy="117.30159"
       cx="24.395184"
       gradientTransform="matrix(1,0,0,0.4238095,0,67.588062)"
       gradientUnits="userSpaceOnUse"
       id="radialGradient4253"
       xlink:href="#linearGradient4094-5-4-3-5-7"
       inkscape:collect="always" />
  </defs>
  <metadata
     id="metadata2413">
    <rdf:RDF>
      <cc:Work
         rdf:about="">
        <dc:format>image/svg+xml</dc:format>
        <dc:type
           rdf:resource="http://purl.org/dc/dcmitype/StillImage" />
        <dc:title></dc:title>
      </cc:Work>
    </rdf:RDF>
  </metadata>
  <g
     id="layer2"
     style="display:none">
    <rect
       width="86"
       height="85"
       rx="6"
       ry="6"
       x="5"
       y="7"
       id="rect3745"
       style="opacity:0.9;fill:url(#ButtonShadow);fill-opacity:1;fill-rule:nonzero;stroke:none;filter:url(#filter3174)" />
  </g>
  <g
     id="layer6"
     style="display:inline">
    <path
       d="m 12,-95.03125 c -5.5110903,0 -10.03125,4.52016 -10.03125,10.03125 l 0,71 c 0,5.5110902 4.5201598,10.03125 10.03125,10.03125 l 72,0 c 5.51109,0 10.03125,-4.5201597 10.03125,-10.03125 l 0,-71 c 0,-5.51109 -4.52016,-10.03125 -10.03125,-10.03125 l -72,0 z"
       transform="scale(1,-1)"
       id="path3786"
       style="opacity:0.07999998;fill:url(#linearGradient3760);fill-opacity:1;fill-rule:nonzero;stroke:none;display:inline" />
    <path
       d="m 12,-94.03125 c -4.971633,0 -9.03125,4.059617 -9.03125,9.03125 l 0,71 c 0,4.9716329 4.0596171,9.03125 9.03125,9.03125 l 72,0 c 4.971633,0 9.03125,-4.059617 9.03125,-9.03125 l 0,-71 c 0,-4.971633 -4.059617,-9.03125 -9.03125,-9.03125 l -72,0 z"
       transform="scale(1,-1)"
       id="path3778"
       style="opacity:0.1;fill:url(#linearGradient3780);fill-opacity:1;fill-rule:nonzero;stroke:none;display:inline" />
    <path
       d="m 12,-93 c -4.4091333,0 -8,3.590867 -8,8 l 0,71 c 0,4.4091333 3.5908667,8 8,8 l 72,0 c 4.409133,0 8,-3.5908667 8,-8 l 0,-71 c 0,-4.409133 -3.590867,-8 -8,-8 l -72,0 z"
       transform="scale(1,-1)"
       id="path3770"
       style="opacity:0.2;fill:url(#linearGradient3772);fill-opacity:1;fill-rule:nonzero;stroke:none;display:inline" />
    <rect
       width="86"
       height="85"
       rx="7"
       ry="7"
       x="5"
       y="-92"
       transform="scale(1,-1)"
       id="rect3723"
       style="opacity:0.3;fill:url(#linearGradient3725);fill-opacity:1;fill-rule:nonzero;stroke:none;display:inline" />
    <rect
       width="84"
       height="84"
       rx="6"
       ry="6"
       x="6"
       y="-91"
       transform="scale(1,-1)"
       id="rect3716"
       style="opacity:0.45;fill:url(#linearGradient3721);fill-opacity:1;fill-rule:nonzero;stroke:none;display:inline" />
  </g>
  <g
     id="layer1"
     style="display:inline">
    <rect
       width="84"
       height="84"
       rx="6"
       ry="6"
       x="6"
       y="6"
       id="rect2419"
       style="fill:url(#linearGradient3706);fill-opacity:1;fill-rule:nonzero;stroke:none" />
    <path
       d="M 12,6 C 8.676,6 6,8.676 6,12 l 0,2 0,68 0,2 c 0,0.334721 0.04135,0.6507 0.09375,0.96875 0.0487,0.295596 0.09704,0.596915 0.1875,0.875 0.0099,0.03038 0.02089,0.0636 0.03125,0.09375 0.09886,0.287771 0.23488,0.547452 0.375,0.8125 0.144592,0.273507 0.315616,0.535615 0.5,0.78125 0.184384,0.245635 0.373776,0.473472 0.59375,0.6875 0.439947,0.428056 0.94291,0.814526 1.5,1.09375 0.278545,0.139612 0.573473,0.246947 0.875,0.34375 -0.256202,-0.100222 -0.486711,-0.236272 -0.71875,-0.375 -0.0074,-0.0044 -0.02387,0.0045 -0.03125,0 -0.03193,-0.0193 -0.06229,-0.04251 -0.09375,-0.0625 -0.120395,-0.0767 -0.231023,-0.163513 -0.34375,-0.25 -0.106173,-0.0808 -0.213281,-0.161112 -0.3125,-0.25 C 8.47832,88.557317 8.30879,88.373362 8.15625,88.1875 8.048671,88.057245 7.937856,87.922215 7.84375,87.78125 7.81866,87.74287 7.8053,87.69538 7.78125,87.65625 7.71649,87.553218 7.651022,87.451733 7.59375,87.34375 7.492742,87.149044 7.388075,86.928049 7.3125,86.71875 7.3045,86.69694 7.28891,86.6782 7.28125,86.65625 7.24942,86.5643 7.24545,86.469419 7.21875,86.375 7.188418,86.268382 7.148361,86.171969 7.125,86.0625 7.052121,85.720988 7,85.364295 7,85 L 7,83 7,15 7,13 C 7,10.218152 9.218152,8 12,8 l 2,0 68,0 2,0 c 2.781848,0 5,2.218152 5,5 l 0,2 0,68 0,2 c 0,0.364295 -0.05212,0.720988 -0.125,1.0625 -0.04415,0.206893 -0.08838,0.397658 -0.15625,0.59375 -0.0077,0.02195 -0.0233,0.04069 -0.03125,0.0625 -0.06274,0.173739 -0.138383,0.367449 -0.21875,0.53125 -0.04158,0.0828 -0.07904,0.169954 -0.125,0.25 -0.0546,0.09721 -0.126774,0.18835 -0.1875,0.28125 -0.09411,0.140965 -0.204921,0.275995 -0.3125,0.40625 -0.143174,0.17445 -0.303141,0.346998 -0.46875,0.5 -0.01117,0.0102 -0.01998,0.02115 -0.03125,0.03125 -0.138386,0.125556 -0.285091,0.234436 -0.4375,0.34375 -0.102571,0.07315 -0.204318,0.153364 -0.3125,0.21875 -0.0074,0.0045 -0.02384,-0.0044 -0.03125,0 -0.232039,0.138728 -0.462548,0.274778 -0.71875,0.375 0.301527,-0.0968 0.596455,-0.204138 0.875,-0.34375 0.55709,-0.279224 1.060053,-0.665694 1.5,-1.09375 0.219973,-0.214028 0.409366,-0.441865 0.59375,-0.6875 0.184384,-0.245635 0.355408,-0.507743 0.5,-0.78125 0.14012,-0.265048 0.276135,-0.524729 0.375,-0.8125 0.01041,-0.03078 0.02133,-0.06274 0.03125,-0.09375 0.09046,-0.278085 0.1388,-0.579404 0.1875,-0.875 C 89.95865,84.6507 90,84.334721 90,84 l 0,-2 0,-68 0,-2 C 90,8.676 87.324,6 84,6 L 12,6 z"
       inkscape:connector-curvature="0"
       id="rect3728"
       style="opacity:0.5;fill:url(#linearGradient3923);fill-opacity:1;fill-rule:nonzero;stroke:none;display:inline" />
    <path
       d="M 12,90 C 8.676,90 6,87.324 6,84 L 6,82 6,14 6,12 c 0,-0.334721 0.04135,-0.6507 0.09375,-0.96875 0.0487,-0.295596 0.09704,-0.596915 0.1875,-0.875 C 6.29113,10.12587 6.302142,10.09265 6.3125,10.0625 6.411365,9.774729 6.5473802,9.515048 6.6875,9.25 6.8320918,8.976493 7.0031161,8.714385 7.1875,8.46875 7.3718839,8.223115 7.5612765,7.995278 7.78125,7.78125 8.221197,7.353194 8.72416,6.966724 9.28125,6.6875 9.559795,6.547888 9.8547231,6.440553 10.15625,6.34375 9.9000482,6.443972 9.6695391,6.580022 9.4375,6.71875 c -0.00741,0.0044 -0.023866,-0.0045 -0.03125,0 -0.031933,0.0193 -0.062293,0.04251 -0.09375,0.0625 -0.120395,0.0767 -0.2310226,0.163513 -0.34375,0.25 -0.1061728,0.0808 -0.2132809,0.161112 -0.3125,0.25 C 8.4783201,7.442683 8.3087904,7.626638 8.15625,7.8125 8.0486711,7.942755 7.9378561,8.077785 7.84375,8.21875 7.818661,8.25713 7.805304,8.30462 7.78125,8.34375 7.716487,8.446782 7.6510225,8.548267 7.59375,8.65625 7.4927417,8.850956 7.3880752,9.071951 7.3125,9.28125 7.30454,9.30306 7.288911,9.3218 7.28125,9.34375 7.2494249,9.4357 7.2454455,9.530581 7.21875,9.625 7.1884177,9.731618 7.1483606,9.828031 7.125,9.9375 7.0521214,10.279012 7,10.635705 7,11 l 0,2 0,68 0,2 c 0,2.781848 2.2181517,5 5,5 l 2,0 68,0 2,0 c 2.781848,0 5,-2.218152 5,-5 l 0,-2 0,-68 0,-2 C 89,10.635705 88.94788,10.279012 88.875,9.9375 88.83085,9.730607 88.78662,9.539842 88.71875,9.34375 88.71105,9.3218 88.69545,9.30306 88.6875,9.28125 88.62476,9.107511 88.549117,8.913801 88.46875,8.75 88.42717,8.6672 88.38971,8.580046 88.34375,8.5 88.28915,8.40279 88.216976,8.31165 88.15625,8.21875 88.06214,8.077785 87.951329,7.942755 87.84375,7.8125 87.700576,7.63805 87.540609,7.465502 87.375,7.3125 87.36383,7.3023 87.35502,7.29135 87.34375,7.28125 87.205364,7.155694 87.058659,7.046814 86.90625,6.9375 86.803679,6.86435 86.701932,6.784136 86.59375,6.71875 c -0.0074,-0.0045 -0.02384,0.0044 -0.03125,0 -0.232039,-0.138728 -0.462548,-0.274778 -0.71875,-0.375 0.301527,0.0968 0.596455,0.204138 0.875,0.34375 0.55709,0.279224 1.060053,0.665694 1.5,1.09375 0.219973,0.214028 0.409366,0.441865 0.59375,0.6875 0.184384,0.245635 0.355408,0.507743 0.5,0.78125 0.14012,0.265048 0.276135,0.524729 0.375,0.8125 0.01041,0.03078 0.02133,0.06274 0.03125,0.09375 0.09046,0.278085 0.1388,0.579404 0.1875,0.875 C 89.95865,11.3493 90,11.665279 90,12 l 0,2 0,68 0,2 c 0,3.324 -2.676,6 -6,6 l -72,0 z"
       inkscape:connector-curvature="0"
       id="path3615"
       style="opacity:0.4;fill:url(#radialGradient2886);fill-opacity:1;fill-rule:nonzero;stroke:none;display:inline" />
  </g>
  <g
     id="layer3">
    <rect
       width="66"
       height="66"
       rx="12"
       ry="12"
       x="15"
       y="15"
       clip-path="url(#clipPath3613)"
       id="rect3171"
       style="opacity:0.5;fill:url(#linearGradient2890);fill-opacity:1;fill-rule:nonzero;stroke:#ffffff;stroke-width:0.5;stroke-linecap:round;stroke-linejoin:miter;stroke-miterlimit:4;stroke-opacity:1;stroke-dasharray:none;stroke-dashoffset:0;filter:url(#filter3794)" />
  </g>
  <path
     sodipodi:type="inkscape:offset"
     inkscape:radius="-4.4745765"
     inkscape:original="M 12 6 C 8.676 6 6 8.676 6 12 L 6 84 C 6 87.324 8.676 90 12 90 L 84 90 C 87.324 90 90 87.324 90 84 L 90 12 C 90 8.676 87.324 6 84 6 L 12 6 z "
     style="fill:#ff8700;fill-opacity:1;fill-rule:nonzero;stroke:#ffe1cd;display:inline;stroke-opacity:1;stroke-width:4;stroke-miterlimit:4;stroke-dasharray:none"
     id="path3194"
     d="m 12,10.46875 c -0.922482,0 -1.53125,0.608768 -1.53125,1.53125 l 0,72 c 0,0.922482 0.608768,1.53125 1.53125,1.53125 l 72,0 c 0.922482,0 1.53125,-0.608768 1.53125,-1.53125 l 0,-72 c 0,-0.922482 -0.608768,-1.53125 -1.53125,-1.53125 l -72,0 z" />
  <path
     style="color:#000000;fill:url(#radialGradient4051);fill-opacity:1;fill-rule:nonzero;stroke:url(#radialGradient4043);stroke-width:3.99999976;stroke-linecap:round;stroke-linejoin:bevel;stroke-miterlimit:4;stroke-opacity:1;stroke-dashoffset:5.4;marker:none;visibility:visible;display:inline;overflow:visible;enable-background:accumulate"
     d="M 28.333013,69.511216 48.641023,48.842185 18.15719,52.632497 48.639886,48.618372 26.726705,31.643316 48.79738,48.459312 45.005963,17.982888 49.021248,48.458179 68.415113,27.517015 49.180349,48.615634 80.201291,43.484098 49.181485,48.839447 68.731383,71.715893 49.02399,48.998508 52.010474,79.15274 48.800123,48.999642 z"
     id="path3964-1"
     inkscape:connector-curvature="0"
     sodipodi:nodetypes="ccccccccccccccccc" />
  <path
     style="fill:none;stroke:#ff6600;stroke-width:2;stroke-linecap:butt;stroke-linejoin:miter;stroke-miterlimit:4;stroke-opacity:1;stroke-dasharray:none"
     d="m 69.875,82.625 12.375,0 0,-13.25 -27.5,-14.25 z"
     id="path4072"
     inkscape:connector-curvature="0"
     sodipodi:nodetypes="ccccc" />
  <path
     style="fill:none;stroke:#ff6600;stroke-width:2;stroke-linecap:butt;stroke-linejoin:miter;stroke-miterlimit:4;stroke-opacity:1;stroke-dasharray:none"
     d="m 37.25,82.125 11,-25 14.125,25.125 z"
     id="path4070"
     inkscape:connector-curvature="0"
     sodipodi:nodetypes="cccc" />
  <path
     style="fill:none;stroke:#ff6600;stroke-width:2;stroke-linecap:butt;stroke-linejoin:miter;stroke-opacity:1;stroke-miterlimit:4;stroke-dasharray:none"
     d="m 55.625,47.75 26.625,14.75 0,-31.75 z"
     id="path4068"
     inkscape:connector-curvature="0"
     sodipodi:nodetypes="cccc" />
  <path
     style="fill:none;stroke:#ff6600;stroke-width:2;stroke-linecap:butt;stroke-linejoin:miter;stroke-miterlimit:4;stroke-opacity:1;stroke-dasharray:none"
     d="m 54.875,40 9.875,-26.5 17.375,0 0,9.625 z"
     id="path4066"
     inkscape:connector-curvature="0"
     sodipodi:nodetypes="ccccc" />
  <path
     style="fill:none;stroke:#ff6600;stroke-width:1.99999988;stroke-linecap:butt;stroke-linejoin:miter;stroke-miterlimit:4;stroke-opacity:1;stroke-dasharray:none"
     d="m 47.553293,39.479397 -15.050351,-25.743481 25.599663,0 z"
     id="path4064"
     inkscape:connector-curvature="0"
     sodipodi:nodetypes="cccc" />
  <path
     style="fill:none;stroke:#ff6600;stroke-width:2;stroke-linecap:butt;stroke-linejoin:miter;stroke-miterlimit:4;stroke-opacity:1;stroke-dasharray:none"
     d="m 13.69365,34.879357 0,-21.143441 11.474557,0 15.388562,28.332211 z"
     id="path4062"
     inkscape:connector-curvature="0"
     sodipodi:nodetypes="ccccc" />
  <path
     sodipodi:type="inkscape:offset"
     inkscape:radius="-1.0095659"
     inkscape:original="M 43.125 53.5 L 12.8125 70.5625 L 12.8125 82.78125 L 30.09375 82.96875 L 43.125 53.5 z "
     style="fill:none;stroke:#ff6600;stroke-width:1.98894107;stroke-linecap:round;stroke-linejoin:miter;stroke-miterlimit:4;stroke-opacity:1;stroke-dasharray:none"
     id="path4055"
     d="m 40.96875,55.875 -27.15625,15.28125 0,10.625 15.625,0.1875 L 40.96875,55.875 z"
     transform="matrix(0.99470404,0,0,1.0165348,0.0731504,-1.0677004)" />
  <path
     style="fill:none;stroke:#ff6600;stroke-width:2;stroke-linecap:butt;stroke-linejoin:miter;stroke-miterlimit:4;stroke-opacity:1"
     d="m 13.858581,41.84375 0,21.126059 L 37.90625,49.09375 z"
     id="path4059"
     inkscape:connector-curvature="0"
     sodipodi:nodetypes="cccc" />
  <path
     style="color:#000000;fill:#ffb380;fill-opacity:1;fill-rule:nonzero;stroke:#ffe1cd;stroke-width:3.27760029000000008;stroke-linecap:round;stroke-linejoin:bevel;stroke-miterlimit:4;stroke-opacity:1;stroke-dashoffset:5.40000000000000036;marker:none;visibility:visible;display:inline;overflow:visible;enable-background:accumulate"
     d="M 55.103934,69.485075 38.28132,40.605634 33.227836,75.670511 38.031934,40.538811 12.478955,59.752193 37.902842,40.315218 2.8379657,35.261733 37.969665,40.065832 20.566226,12.120546 38.193259,39.93674 41.917684,3.8663393 38.442645,40.003563 69.843485,25.214485 38.571736,40.227156 73.033299,46.078076 38.504914,40.476542 z"
     id="path3964"
     inkscape:connector-curvature="0"
     sodipodi:nodetypes="ccccccccccccccccc"
     transform="matrix(0.73632771,0.9732472,-0.9732472,0.73632771,59.038644,-18.867124)" />
  <path
     sodipodi:type="arc"
     style="color:#000000;fill:url(#radialGradient3997);fill-opacity:1;fill-rule:nonzero;stroke:none;stroke-width:3.60248445999999989;marker:none;visibility:visible;display:inline;overflow:visible;enable-background:accumulate;opacity:0.8"
     id="path3989"
     sodipodi:cx="47.389832"
     sodipodi:cy="46.576271"
     sodipodi:rx="29.491526"
     sodipodi:ry="29.491526"
     d="m 76.881357,46.576271 a 29.491526,29.491526 0 1 1 -58.983051,0 29.491526,29.491526 0 1 1 58.983051,0 z"
     transform="matrix(1.2620689,0,0,1.2620689,-11.809236,-10.782466)" />
  <path
     style="color:#000000;fill:#ffb380;fill-opacity:1;fill-rule:nonzero;stroke:#ffe1cd;stroke-width:6;stroke-linecap:round;stroke-linejoin:bevel;stroke-miterlimit:4;stroke-opacity:1;stroke-dasharray:none;stroke-dashoffset:5.4;marker:none;visibility:visible;display:inline;overflow:visible;enable-background:accumulate"
     d="m 43.045433,59.734803 4.863885,-11.645347 -11.710485,6.466958 11.67379,-6.55728 -11.607426,-3.317498 11.645346,3.227684 -6.466958,-11.710484 6.55728,11.673789 4.450253,-11.607426 -4.360438,11.645347 11.710485,-7.096267 -11.67379,7.186589 11.607426,6.086453 -11.645348,-5.996639 6.089375,11.710485 -6.179696,-11.67379 z"
     id="path3964-9"
     inkscape:connector-curvature="0"
     sodipodi:nodetypes="ccccccccccccccccc" />
  <g
     id="g4272"
     style="opacity:0.8">
    <path
       transform="matrix(0.78503705,-0.66215041,0.69366526,0.74937096,-73.82588,-1.4701351)"
       d="m 42.956738,117.30159 a 18.561554,7.8665628 0 1 1 -37.1231084,0 18.561554,7.8665628 0 1 1 37.1231084,0 z"
       sodipodi:ry="7.8665628"
       sodipodi:rx="18.561554"
       sodipodi:cy="117.30159"
       sodipodi:cx="24.395184"
       id="path4092"
       style="opacity:0.50000000000000000;color:#000000;fill:url(#radialGradient4100);fill-opacity:1;fill-rule:nonzero;stroke:none;stroke-width:6;marker:none;visibility:visible;display:inline;overflow:visible;enable-background:accumulate"
       sodipodi:type="arc" />
    <path
       transform="matrix(-0.78503705,-0.66215041,-0.69366526,0.74937096,167.16397,-3.7682326)"
       d="m 42.956738,117.30159 a 18.561554,7.8665628 0 1 1 -37.1231084,0 18.561554,7.8665628 0 1 1 37.1231084,0 z"
       sodipodi:ry="7.8665628"
       sodipodi:rx="18.561554"
       sodipodi:cy="117.30159"
       sodipodi:cx="24.395184"
       id="path4092-4"
       style="opacity:0.50000000000000000;color:#000000;fill:url(#radialGradient4117);fill-opacity:1;fill-rule:nonzero;stroke:none;stroke-width:6;marker:none;visibility:visible;display:inline;overflow:visible;enable-background:accumulate"
       sodipodi:type="arc" />
    <path
       transform="matrix(-0.78503705,0.66215041,-0.69366526,-0.74937096,169.46207,96.242953)"
       d="m 42.956738,117.30159 a 18.561554,7.8665628 0 1 1 -37.1231084,0 18.561554,7.8665628 0 1 1 37.1231084,0 z"
       sodipodi:ry="7.8665628"
       sodipodi:rx="18.561554"
       sodipodi:cy="117.30159"
       sodipodi:cx="24.395184"
       id="path4092-4-9"
       style="opacity:0.50000000000000000;color:#000000;fill:url(#radialGradient4151);fill-opacity:1;fill-rule:nonzero;stroke:none;stroke-width:6;marker:none;visibility:visible;display:inline;overflow:visible;enable-background:accumulate"
       sodipodi:type="arc" />
    <path
       transform="matrix(0.78503705,0.66215041,0.69366526,-0.74937096,-74.179436,100.48559)"
       d="m 42.956738,117.30159 a 18.561554,7.8665628 0 1 1 -37.1231084,0 18.561554,7.8665628 0 1 1 37.1231084,0 z"
       sodipodi:ry="7.8665628"
       sodipodi:rx="18.561554"
       sodipodi:cy="117.30159"
       sodipodi:cx="24.395184"
       id="path4092-4-9-8"
       style="opacity:0.50000000000000000;color:#000000;fill:url(#radialGradient4185);fill-opacity:1;fill-rule:nonzero;stroke:none;stroke-width:6;marker:none;visibility:visible;display:inline;overflow:visible;enable-background:accumulate"
       sodipodi:type="arc" />
    <path
       transform="matrix(-0.18092055,1.0109372,0.99580692,0.22604626,-67.141314,-21.203682)"
       d="m 42.956738,117.30159 a 18.561554,7.8665628 0 1 1 -37.1231084,0 18.561554,7.8665628 0 1 1 37.1231084,0 z"
       sodipodi:ry="7.8665628"
       sodipodi:rx="18.561554"
       sodipodi:cy="117.30159"
       sodipodi:cx="24.395184"
       id="path4092-4-9-8-3"
       style="opacity:0.50000000000000000;color:#000000;fill:url(#radialGradient4219);fill-opacity:1;fill-rule:nonzero;stroke:none;stroke-width:6;marker:none;visibility:visible;display:inline;overflow:visible;enable-background:accumulate"
       sodipodi:type="arc" />
    <path
       transform="matrix(-0.18092055,-1.0109372,0.99580692,-0.22604626,-63.252227,118.45137)"
       d="m 42.956738,117.30159 a 18.561554,7.8665628 0 1 1 -37.1231084,0 18.561554,7.8665628 0 1 1 37.1231084,0 z"
       sodipodi:ry="7.8665628"
       sodipodi:rx="18.561554"
       sodipodi:cy="117.30159"
       sodipodi:cx="24.395184"
       id="path4092-4-9-8-3-4"
       style="opacity:0.50000000000000000;color:#000000;fill:url(#radialGradient4253);fill-opacity:1;fill-rule:nonzero;stroke:none;stroke-width:6;marker:none;visibility:visible;display:inline;overflow:visible;enable-background:accumulate"
       sodipodi:type="arc" />
  </g>
</svg>
