<?xml version="1.0" encoding="UTF-8" standalone="no"?>
<!-- Created with Inkscape (http://www.inkscape.org/) -->

<svg
   xmlns:dc="http://purl.org/dc/elements/1.1/"
   xmlns:cc="http://creativecommons.org/ns#"
   xmlns:rdf="http://www.w3.org/1999/02/22-rdf-syntax-ns#"
   xmlns:svg="http://www.w3.org/2000/svg"
   xmlns="http://www.w3.org/2000/svg"
   xmlns:xlink="http://www.w3.org/1999/xlink"
   xmlns:sodipodi="http://sodipodi.sourceforge.net/DTD/sodipodi-0.dtd"
   xmlns:inkscape="http://www.inkscape.org/namespaces/inkscape"
   version="1.0"
   width="96"
   height="96"
   id="svg2408"
   sodipodi:docname="appointment-new.svg"
   inkscape:version="0.92.2 2405546, 2018-03-11">
  <sodipodi:namedview
     pagecolor="#ffffff"
     bordercolor="#666666"
     borderopacity="1"
     objecttolerance="10"
     gridtolerance="10"
     guidetolerance="10"
     inkscape:pageopacity="0"
     inkscape:pageshadow="2"
     inkscape:window-width="750"
     inkscape:window-height="480"
     id="namedview279"
     showgrid="false"
     inkscape:zoom="2.4583333"
     inkscape:cx="48"
     inkscape:cy="48"
     inkscape:window-x="52"
     inkscape:window-y="0"
     inkscape:window-maximized="0"
     inkscape:current-layer="svg2408" />
  <defs
     id="defs2410">
    <linearGradient
       id="linearGradient3637">
      <stop
         id="stop3639"
         style="stop-color:#f0f0f0;stop-opacity:1"
         offset="0" />
      <stop
         id="stop3641"
         style="stop-color:#aaaaaa;stop-opacity:1"
         offset="1" />
    </linearGradient>
    <linearGradient
       x1="45.447727"
       y1="92.539597"
       x2="45.447727"
       y2="7.0165396"
       id="ButtonShadow"
       gradientUnits="userSpaceOnUse"
       gradientTransform="scale(1.0058652,0.994169)">
      <stop
         id="stop3750"
         style="stop-color:#000000;stop-opacity:1"
         offset="0" />
      <stop
         id="stop3752"
         style="stop-color:#000000;stop-opacity:0.58823532"
         offset="1" />
    </linearGradient>
    <linearGradient
       id="linearGradient3737">
      <stop
         id="stop3739"
         style="stop-color:#ffffff;stop-opacity:1"
         offset="0" />
      <stop
         id="stop3741"
         style="stop-color:#ffffff;stop-opacity:0"
         offset="1" />
    </linearGradient>
    <linearGradient
       id="linearGradient3700">
      <stop
         id="stop3702"
         style="stop-color:#2276c5;stop-opacity:1"
         offset="0" />
      <stop
         id="stop3704"
         style="stop-color:#68baf4;stop-opacity:1"
         offset="1" />
    </linearGradient>
    <filter
       color-interpolation-filters="sRGB"
       id="filter3174">
      <feGaussianBlur
         id="feGaussianBlur3176"
         stdDeviation="1.71" />
    </filter>
    <linearGradient
       x1="36.357143"
       y1="6"
       x2="36.357143"
       y2="63.893143"
       id="linearGradient3188"
       xlink:href="#linearGradient3737"
       gradientUnits="userSpaceOnUse" />
    <filter
       x="-0.192"
       y="-0.192"
       width="1.3839999"
       height="1.3839999"
       color-interpolation-filters="sRGB"
       id="filter3794">
      <feGaussianBlur
         id="feGaussianBlur3796"
         stdDeviation="5.28" />
    </filter>
    <linearGradient
       x1="48"
       y1="20.220806"
       x2="48"
       y2="138.66119"
       id="linearGradient3613"
       xlink:href="#linearGradient3737"
       gradientUnits="userSpaceOnUse" />
    <radialGradient
       cx="48"
       cy="90.171875"
       r="42"
       fx="48"
       fy="90.171875"
       id="radialGradient3619"
       xlink:href="#linearGradient3737"
       gradientUnits="userSpaceOnUse"
       gradientTransform="matrix(1.1573129,0,0,0.99590774,-7.5510206,0.19713193)" />
    <clipPath
       id="clipPath3613">
      <rect
         width="84"
         height="84"
         rx="6"
         ry="6"
         x="6"
         y="6"
         id="rect3615"
         style="fill:#ffffff;fill-opacity:1;fill-rule:nonzero;stroke:none" />
    </clipPath>
    <linearGradient
       x1="48"
       y1="90"
       x2="48"
       y2="5.9877172"
       id="linearGradient2843"
       xlink:href="#linearGradient3700"
       gradientUnits="userSpaceOnUse"
       gradientTransform="translate(0,100)" />
    <clipPath
       id="clipPath3625">
      <path
         d="M 0,0 0,96 96,96 96,0 0,0 z m 12,6 72,0 c 3.324,0 6,2.676 6,6 l 0,72 c 0,3.324 -2.676,6 -6,6 L 12,90 C 8.676,90 6,87.324 6,84 L 6,12 C 6,8.676 8.676,6 12,6 z"
         inkscape:connector-curvature="0"
         id="path3627"
         style="fill:#ffffff;fill-opacity:1;stroke:none" />
    </clipPath>
    <linearGradient
       x1="44.512066"
       y1="6"
       x2="44.512066"
       y2="90.015434"
       id="linearGradient3643"
       xlink:href="#linearGradient3637"
       gradientUnits="userSpaceOnUse" />
    <clipPath
       id="clipPath3649">
      <rect
         width="76"
         height="76"
         rx="4"
         ry="4"
         x="10"
         y="10"
         id="rect3651"
         style="fill:#ffffff;fill-opacity:1;fill-rule:nonzero;stroke:none" />
    </clipPath>
    <filter
       color-interpolation-filters="sRGB"
       id="filter3657">
      <feGaussianBlur
         id="feGaussianBlur3659"
         stdDeviation="1.14" />
    </filter>
    <linearGradient
       x1="45.447727"
       y1="92.539597"
       x2="45.447727"
       y2="7.0165396"
       id="ButtonShadow-0"
       gradientUnits="userSpaceOnUse"
       gradientTransform="matrix(1.0058652,0,0,0.994169,100,0)">
      <stop
         id="stop3750-8"
         style="stop-color:#000000;stop-opacity:1"
         offset="0" />
      <stop
         id="stop3752-5"
         style="stop-color:#000000;stop-opacity:0.58823532"
         offset="1" />
    </linearGradient>
    <linearGradient
       x1="32.251034"
       y1="6.1317081"
       x2="32.251034"
       y2="90.238609"
       id="linearGradient3780"
       xlink:href="#ButtonShadow-0"
       gradientUnits="userSpaceOnUse"
       gradientTransform="matrix(1.0238095,0,0,-1.0119048,-1.1428571,98.071429)" />
    <linearGradient
       x1="32.251034"
       y1="6.1317081"
       x2="32.251034"
       y2="90.238609"
       id="linearGradient3772"
       xlink:href="#ButtonShadow-0"
       gradientUnits="userSpaceOnUse"
       gradientTransform="matrix(1.0238095,0,0,-1.0119048,-1.1428571,98.071429)" />
    <linearGradient
       x1="32.251034"
       y1="6.1317081"
       x2="32.251034"
       y2="90.238609"
       id="linearGradient3725"
       xlink:href="#ButtonShadow-0"
       gradientUnits="userSpaceOnUse"
       gradientTransform="matrix(1.0238095,0,0,-1.0119048,-1.1428571,98.071429)" />
    <linearGradient
       x1="32.251034"
       y1="6.1317081"
       x2="32.251034"
       y2="90.238609"
       id="linearGradient3721"
       xlink:href="#ButtonShadow-0"
       gradientUnits="userSpaceOnUse"
       gradientTransform="matrix(1,0,0,-1,0,97)" />
    <linearGradient
       x1="32.251034"
       y1="6.1317081"
       x2="32.251034"
       y2="90.238609"
       id="linearGradient3199"
       xlink:href="#ButtonShadow-0"
       gradientUnits="userSpaceOnUse"
       gradientTransform="matrix(1.0238095,0,0,-1.0119048,-1.1428571,98.071429)" />
    <linearGradient
       x1="36.357143"
       y1="6"
       x2="36.357143"
       y2="63.893143"
       id="linearGradient3188-8"
       xlink:href="#linearGradient3737-3"
       gradientUnits="userSpaceOnUse" />
    <linearGradient
       id="linearGradient3737-3">
      <stop
         id="stop3739-6"
         style="stop-color:#ffffff;stop-opacity:1"
         offset="0" />
      <stop
         id="stop3741-1"
         style="stop-color:#ffffff;stop-opacity:0"
         offset="1" />
    </linearGradient>
    <radialGradient
       cx="48"
       cy="90.171875"
       r="42"
       fx="48"
       fy="90.171875"
       id="radialGradient3619-3"
       xlink:href="#linearGradient3737-3"
       gradientUnits="userSpaceOnUse"
       gradientTransform="matrix(1.1573129,0,0,0.99590774,-7.551021,0.1971319)" />
    <linearGradient
       x1="104"
       y1="8"
       x2="120"
       y2="8"
       id="linearGradient3905"
       xlink:href="#linearGradient3637"
       gradientUnits="userSpaceOnUse"
       gradientTransform="translate(-104,104)" />
    <linearGradient
       x1="104"
       y1="8"
       x2="120"
       y2="8"
       id="linearGradient3913"
       xlink:href="#linearGradient3183-0"
       gradientUnits="userSpaceOnUse"
       gradientTransform="translate(-144,104)" />
    <linearGradient
       id="linearGradient3183-0">
      <stop
         id="stop3185-9"
         style="stop-color:#c80000;stop-opacity:1"
         offset="0" />
      <stop
         id="stop3187-6"
         style="stop-color:#f3604d;stop-opacity:1"
         offset="1" />
    </linearGradient>
    <linearGradient
       x1="3"
       y1="11"
       x2="19"
       y2="11"
       id="linearGradient3139"
       xlink:href="#linearGradient3637"
       gradientUnits="userSpaceOnUse"
       gradientTransform="matrix(0,4.6875,-4.6875,0,103.3125,-7.8125)" />
  </defs>
  <metadata
     id="metadata2413">
    <rdf:RDF>
      <cc:Work
         rdf:about="">
        <dc:format>image/svg+xml</dc:format>
        <dc:type
           rdf:resource="http://purl.org/dc/dcmitype/StillImage" />
        <dc:title />
      </cc:Work>
    </rdf:RDF>
  </metadata>
  <g
     id="layer2"
     style="display:none">
    <rect
       width="86"
       height="85"
       rx="6"
       ry="6"
       x="5"
       y="7"
       clip-path="url(#clipPath3625)"
       id="rect3745"
       style="opacity:0.9;fill:url(#ButtonShadow);fill-opacity:1;fill-rule:nonzero;stroke:none;filter:url(#filter3174)" />
  </g>
  <g
     id="layer1"
     style="display:none">
    <rect
       width="84"
       height="84"
       rx="6"
       ry="6"
       x="6"
       y="6"
       id="rect2419"
       style="opacity:0.8;fill:#000000;fill-opacity:1;fill-rule:nonzero;stroke:none" />
    <path
       d="m 14,10 c -2.216,0 -4,1.784 -4,4 l 0,68 c 0,2.216 1.784,4 4,4 l 68,0 c 2.216,0 4,-1.784 4,-4 l 0,-68 c 0,-2.216 -1.784,-4 -4,-4 l -68,0 z m 0,3.0625 68,0 c 0.578769,0 0.9375,0.358731 0.9375,0.9375 l 0,68 c 0,0.578769 -0.358731,0.9375 -0.9375,0.9375 l -68,0 c -0.578769,0 -0.9375,-0.358731 -0.9375,-0.9375 l 0,-68 c 0,-0.578769 0.358731,-0.9375 0.9375,-0.9375 z"
       inkscape:connector-curvature="0"
       id="rect3726"
       style="opacity:0.07999998;fill:#000000;fill-opacity:1;fill-rule:nonzero;stroke:none" />
    <path
       d="M 12,6 C 8.676,6 6,8.676 6,12 l 0,72 c 0,3.324 2.676,6 6,6 l 72,0 c 3.324,0 6,-2.676 6,-6 L 90,12 C 90,8.676 87.324,6 84,6 L 12,6 z m 2,4 68,0 c 2.216,0 4,1.784 4,4 l 0,68 c 0,2.216 -1.784,4 -4,4 l -68,0 c -2.216,0 -4,-1.784 -4,-4 l 0,-68 c 0,-2.216 1.784,-4 4,-4 z"
       inkscape:connector-curvature="0"
       id="rect3629"
       style="fill:url(#linearGradient3643);fill-opacity:1;fill-rule:nonzero;stroke:none" />
    <path
       d="M 12,6 C 8.676,6 6,8.676 6,12 l 0,2 0,68 0,2 c 0,0.334721 0.04135,0.6507 0.09375,0.96875 0.0487,0.295596 0.09704,0.596915 0.1875,0.875 0.00988,0.03038 0.020892,0.0636 0.03125,0.09375 0.098865,0.287771 0.2348802,0.547452 0.375,0.8125 0.1445918,0.273507 0.3156161,0.535615 0.5,0.78125 0.1843839,0.245635 0.3737765,0.473472 0.59375,0.6875 0.439947,0.428056 0.94291,0.814526 1.5,1.09375 0.278545,0.139612 0.5734731,0.246947 0.875,0.34375 -0.2562018,-0.100222 -0.4867109,-0.236272 -0.71875,-0.375 -0.00741,-0.0044 -0.023866,0.0045 -0.03125,0 -0.031933,-0.0193 -0.062293,-0.04251 -0.09375,-0.0625 -0.120395,-0.0767 -0.2310226,-0.163513 -0.34375,-0.25 -0.1061728,-0.0808 -0.2132809,-0.161112 -0.3125,-0.25 C 8.4783201,88.557317 8.3087904,88.373362 8.15625,88.1875 8.0486711,88.057245 7.9378561,87.922215 7.84375,87.78125 7.818661,87.74287 7.805304,87.69538 7.78125,87.65625 7.716487,87.553218 7.6510225,87.451733 7.59375,87.34375 7.4927417,87.149044 7.3880752,86.928049 7.3125,86.71875 7.30454,86.69694 7.288911,86.6782 7.28125,86.65625 7.2494249,86.5643 7.2454455,86.469419 7.21875,86.375 7.1884177,86.268382 7.1483606,86.171969 7.125,86.0625 7.0521214,85.720988 7,85.364295 7,85 L 7,83 7,15 7,13 C 7,10.218152 9.2181517,8 12,8 l 2,0 68,0 2,0 c 2.781848,0 5,2.218152 5,5 l 0,2 0,68 0,2 c 0,0.364295 -0.05212,0.720988 -0.125,1.0625 -0.04415,0.206893 -0.08838,0.397658 -0.15625,0.59375 -0.0077,0.02195 -0.0233,0.04069 -0.03125,0.0625 -0.06274,0.173739 -0.138383,0.367449 -0.21875,0.53125 -0.04158,0.0828 -0.07904,0.169954 -0.125,0.25 -0.0546,0.09721 -0.126774,0.18835 -0.1875,0.28125 -0.09411,0.140965 -0.204921,0.275995 -0.3125,0.40625 -0.143174,0.17445 -0.303141,0.346998 -0.46875,0.5 -0.01117,0.0102 -0.01998,0.02115 -0.03125,0.03125 -0.138386,0.125556 -0.285091,0.234436 -0.4375,0.34375 -0.102571,0.07315 -0.204318,0.153364 -0.3125,0.21875 -0.0074,0.0045 -0.02384,-0.0044 -0.03125,0 -0.232039,0.138728 -0.462548,0.274778 -0.71875,0.375 0.301527,-0.0968 0.596455,-0.204138 0.875,-0.34375 0.55709,-0.279224 1.060053,-0.665694 1.5,-1.09375 0.219973,-0.214028 0.409366,-0.441865 0.59375,-0.6875 0.184384,-0.245635 0.355408,-0.507743 0.5,-0.78125 0.14012,-0.265048 0.276135,-0.524729 0.375,-0.8125 0.01041,-0.03078 0.02133,-0.06274 0.03125,-0.09375 0.09046,-0.278085 0.1388,-0.579404 0.1875,-0.875 C 89.95865,84.6507 90,84.334721 90,84 l 0,-2 0,-68 0,-2 C 90,8.676 87.324,6 84,6 L 12,6 z"
       inkscape:connector-curvature="0"
       id="rect3728"
       style="fill:url(#linearGradient3188);fill-opacity:1;fill-rule:nonzero;stroke:none" />
    <path
       d="M 12,90 C 8.676,90 6,87.324 6,84 L 6,82 6,14 6,12 c 0,-0.334721 0.04135,-0.6507 0.09375,-0.96875 0.0487,-0.295596 0.09704,-0.596915 0.1875,-0.875 C 6.29113,10.12587 6.302142,10.09265 6.3125,10.0625 6.411365,9.774729 6.5473802,9.515048 6.6875,9.25 6.8320918,8.976493 7.0031161,8.714385 7.1875,8.46875 7.3718839,8.223115 7.5612765,7.995278 7.78125,7.78125 8.221197,7.353194 8.72416,6.966724 9.28125,6.6875 9.559795,6.547888 9.8547231,6.440553 10.15625,6.34375 9.9000482,6.443972 9.6695391,6.580022 9.4375,6.71875 c -0.00741,0.0044 -0.023866,-0.0045 -0.03125,0 -0.031933,0.0193 -0.062293,0.04251 -0.09375,0.0625 -0.120395,0.0767 -0.2310226,0.163513 -0.34375,0.25 -0.1061728,0.0808 -0.2132809,0.161112 -0.3125,0.25 C 8.4783201,7.442683 8.3087904,7.626638 8.15625,7.8125 8.0486711,7.942755 7.9378561,8.077785 7.84375,8.21875 7.818661,8.25713 7.805304,8.30462 7.78125,8.34375 7.716487,8.446782 7.6510225,8.548267 7.59375,8.65625 7.4927417,8.850956 7.3880752,9.071951 7.3125,9.28125 7.30454,9.30306 7.288911,9.3218 7.28125,9.34375 7.2494249,9.4357 7.2454455,9.530581 7.21875,9.625 7.1884177,9.731618 7.1483606,9.828031 7.125,9.9375 7.0521214,10.279012 7,10.635705 7,11 l 0,2 0,68 0,2 c 0,2.781848 2.2181517,5 5,5 l 2,0 68,0 2,0 c 2.781848,0 5,-2.218152 5,-5 l 0,-2 0,-68 0,-2 C 89,10.635705 88.94788,10.279012 88.875,9.9375 88.83085,9.730607 88.78662,9.539842 88.71875,9.34375 88.71105,9.3218 88.69545,9.30306 88.6875,9.28125 88.62476,9.107511 88.549117,8.913801 88.46875,8.75 88.42717,8.6672 88.38971,8.580046 88.34375,8.5 88.28915,8.40279 88.216976,8.31165 88.15625,8.21875 88.06214,8.077785 87.951329,7.942755 87.84375,7.8125 87.700576,7.63805 87.540609,7.465502 87.375,7.3125 87.36383,7.3023 87.35502,7.29135 87.34375,7.28125 87.205364,7.155694 87.058659,7.046814 86.90625,6.9375 86.803679,6.86435 86.701932,6.784136 86.59375,6.71875 c -0.0074,-0.0045 -0.02384,0.0044 -0.03125,0 -0.232039,-0.138728 -0.462548,-0.274778 -0.71875,-0.375 0.301527,0.0968 0.596455,0.204138 0.875,0.34375 0.55709,0.279224 1.060053,0.665694 1.5,1.09375 0.219973,0.214028 0.409366,0.441865 0.59375,0.6875 0.184384,0.245635 0.355408,0.507743 0.5,0.78125 0.14012,0.265048 0.276135,0.524729 0.375,0.8125 0.01041,0.03078 0.02133,0.06274 0.03125,0.09375 0.09046,0.278085 0.1388,0.579404 0.1875,0.875 C 89.95865,11.3493 90,11.665279 90,12 l 0,2 0,68 0,2 c 0,3.324 -2.676,6 -6,6 l -72,0 z"
       inkscape:connector-curvature="0"
       id="path3615"
       style="opacity:0.6;fill:url(#radialGradient3619);fill-opacity:1;fill-rule:nonzero;stroke:none" />
    <rect
       width="84"
       height="84"
       rx="6"
       ry="6"
       x="6"
       y="106"
       id="rect2841"
       style="fill:url(#linearGradient2843);fill-opacity:1;fill-rule:nonzero;stroke:none" />
    <rect
       width="76"
       height="76"
       rx="4"
       ry="4"
       x="10"
       y="110"
       id="rect3634"
       style="fill:#ff0000;fill-opacity:1;fill-rule:nonzero;stroke:none" />
    <path
       d="m 14,9 c -2.752703,0 -5,2.247297 -5,5 l 0,68 c 0,2.752703 2.247297,5 5,5 l 68,0 c 2.752703,0 5,-2.247297 5,-5 L 87,14 C 87,11.247297 84.752703,9 82,9 L 14,9 z m 0,2 68,0 c 1.679297,0 3,1.320703 3,3 l 0,68 c 0,1.679297 -1.320703,3 -3,3 l -68,0 c -1.679297,0 -3,-1.320703 -3,-3 l 0,-68 c 0,-1.679297 1.320703,-3 3,-3 z"
       inkscape:connector-curvature="0"
       transform="translate(-110,0)"
       clip-path="url(#clipPath3649)"
       id="rect3647"
       style="font-size:medium;font-style:normal;font-variant:normal;font-weight:normal;font-stretch:normal;text-indent:0;text-align:start;text-decoration:none;line-height:normal;letter-spacing:normal;word-spacing:normal;text-transform:none;direction:ltr;block-progression:tb;writing-mode:lr-tb;text-anchor:start;color:#000000;fill:#000000;fill-opacity:1;stroke:none;stroke-width:2;marker:none;visibility:visible;display:inline;overflow:visible;filter:url(#filter3657);enable-background:accumulate;font-family:Abandoned Bitplane;-inkscape-font-specification:Abandoned Bitplane" />
    <path
       d="m 14.089286,10 c -2.216,0 -4,1.784 -4,4 l 0,68 c 0,2.216 1.784,4 4,4 l 68,0 c 2.216,0 4,-1.784 4,-4 l 0,-68 c 0,-2.216 -1.784,-4 -4,-4 l -68,0 z m 0,2 68,0 c 1.140301,0 2,0.859699 2,2 l 0,68 c 0,1.140301 -0.859699,2 -2,2 l -68,0 c -1.140301,0 -2,-0.859699 -2,-2 l 0,-68 c 0,-1.140301 0.859699,-2 2,-2 z"
       inkscape:connector-curvature="0"
       id="path3709"
       style="opacity:0.16000001;fill:#000000;fill-opacity:1;fill-rule:nonzero;stroke:none" />
    <path
       d="m 14,10 c -2.216,0 -4,1.784 -4,4 l 0,68 c 0,2.216 1.784,4 4,4 l 68,0 c 2.216,0 4,-1.784 4,-4 l 0,-68 c 0,-2.216 -1.784,-4 -4,-4 l -68,0 z m 0,1 68,0 c 1.673848,0 3,1.326152 3,3 l 0,68 c 0,1.673848 -1.326152,3 -3,3 l -68,0 c -1.673848,0 -3,-1.326152 -3,-3 l 0,-68 c 0,-1.673848 1.326152,-3 3,-3 z"
       inkscape:connector-curvature="0"
       id="path3707"
       style="opacity:0.36000001;fill:#000000;fill-opacity:1;fill-rule:nonzero;stroke:none" />
  </g>
  <g
     id="layer5"
     style="display:none">
    <rect
       width="66"
       height="66"
       rx="12"
       ry="12"
       x="15"
       y="15"
       clip-path="url(#clipPath3613)"
       id="rect3171"
       style="opacity:0.1;fill:url(#linearGradient3613);fill-opacity:1;fill-rule:nonzero;stroke:#ffffff;stroke-width:0.5;stroke-linecap:round;stroke-linejoin:miter;stroke-miterlimit:4;stroke-opacity:1;stroke-dasharray:none;stroke-dashoffset:0;filter:url(#filter3794)" />
  </g>
  <path
     inkscape:connector-curvature="0"
     style="color:#000000;display:inline;overflow:visible;visibility:visible;opacity:0.1;fill:#000000;fill-opacity:1;fill-rule:nonzero;stroke:none;stroke-width:1.5;marker:none;enable-background:accumulate"
     id="path3938"
     d="m 51.75,4.7499996 c -22.333314,0 -40.5,18.1666864 -40.5,40.5000004 0,3.325461 0.410744,6.551499 1.171875,9.65625 H 12.375 c -1.87e-4,-8.49e-4 0.04106,0.0251 0.04687,0.04687 0.0183,0.06844 0.04768,0.190107 0.04687,0.1875 -0.0011,-0.0035 0.09511,0.284583 0.09375,0.28125 -0.0014,-0.0033 0.09539,0.190707 0.09375,0.1875 -0.0016,-0.0031 0.14253,0.237432 0.140625,0.234375 -0.002,-0.003 0.142785,0.237259 0.140625,0.234375 -6.03e-4,-8.07e-4 0.02861,0.0245 0.04687,0.04687 -0.0099,0.02292 -0.04722,0.04778 -0.04687,0.04687 0.0014,-0.0037 -0.0948,0.285096 -0.09375,0.28125 10e-4,-0.0039 -0.04755,0.285177 -0.04687,0.28125 6.81e-4,-0.0039 -0.04719,0.285223 -0.04687,0.28125 2.58e-4,-0.0033 0.0021,0.169867 0,0.234375 -4.2e-4,0.0129 1.1e-5,0.04754 0,0.04687 V 66.25 H 3.7500004 c 0.0042,5.2e-5 -0.2854695,3.69e-4 -0.28125,0 0.0042,-3.69e-4 -0.2854125,0.04767 -0.28125,0.04687 0.0042,-7.88e-4 -0.2853135,0.04807 -0.28125,0.04687 0.00405,-0.0012 -0.285174,0.09534 -0.28125,0.09375 0.0039,-0.0016 -0.2849955,0.142605 -0.28125,0.140625 0.00375,-0.0019 -0.2847795,0.142965 -0.28125,0.140625 0.0036,-0.0024 -0.237654,0.190182 -0.234375,0.1875 0.0033,-0.0027 -0.2373705,0.190495 -0.234375,0.1875 0.003,-0.003 -0.190182,0.237654 -0.1875,0.234375 0.0027,-0.0033 -0.189843,0.237904 -0.1875,0.234375 0.0024,-0.0036 -0.142605,0.284995 -0.140625,0.28125 0.00195,-0.0037 -0.14223004,0.285174 -0.14062504,0.28125 0.00165,-0.0039 -0.09495,0.285313 -0.09375,0.28125 0.001198,-0.0041 -0.047655,0.285412 -0.046875,0.28125 7.875e-4,-0.0042 -0.04725,0.285469 -0.046875,0.28125 3.69e-4,-0.0042 5.25e-5,0.285486 0,0.28125 v 12 c 5.25e-5,-0.0042 3.69e-4,0.285469 0,0.28125 -3.69e-4,-0.0042 0.047655,0.285412 0.046875,0.28125 -7.875e-4,-0.0042 0.048075,0.285313 0.046875,0.28125 -0.001198,-0.0041 0.095355,0.285174 0.09375,0.28125 -0.00165,-0.0039 0.14260504,0.284995 0.14062504,0.28125 -0.00195,-0.0037 0.142965,0.284779 0.140625,0.28125 -0.0024,-0.0036 0.190182,0.237654 0.1875,0.234375 -0.0027,-0.0033 0.1904955,0.23737 0.1875,0.234375 -0.003,-0.003 0.237654,0.190182 0.234375,0.1875 -0.0033,-0.0027 0.2379045,0.189843 0.234375,0.1875 -0.0036,-0.0024 0.2849955,0.142605 0.28125,0.140625 -0.00375,-0.0019 0.285174,0.142215 0.28125,0.140625 -0.0039,-0.0016 0.2853135,0.09495 0.28125,0.09375 -0.00405,-0.0012 0.2854125,0.04766 0.28125,0.04687 -0.0042,-7.88e-4 0.2854695,0.04725 0.28125,0.04687 -0.0042,-3.69e-4 0.285486,-5.3e-5 0.28125,0 H 12.75 v 9 c 5.3e-5,-0.0042 3.69e-4,0.285469 0,0.28125 -3.69e-4,-0.0042 0.04766,0.285412 0.04687,0.28125 -7.87e-4,-0.0042 0.04808,0.285313 0.04687,0.28125 -0.0012,-0.0041 0.09535,0.285174 0.09375,0.28125 -0.0016,-0.0039 0.142605,0.284995 0.140625,0.28125 -0.002,-0.0037 0.142965,0.284779 0.140625,0.28125 -0.0024,-0.0036 0.190182,0.237654 0.1875,0.234375 -0.0027,-0.0033 0.190496,0.23737 0.1875,0.234375 -0.003,-0.003 0.237654,0.190182 0.234375,0.1875 -0.0033,-0.0027 0.237905,0.189843 0.234375,0.1875 -0.0036,-0.0024 0.284996,0.142605 0.28125,0.140625 -0.0038,-0.0019 0.285174,0.142215 0.28125,0.140625 -0.0039,-0.0016 0.285314,0.09495 0.28125,0.09375 -0.004,-0.0012 0.285413,0.04766 0.28125,0.04687 -0.0042,-7.88e-4 0.28547,0.04725 0.28125,0.04687 -0.0042,-3.69e-4 0.285486,-5.3e-5 0.28125,0 h 12 c -0.0042,-5.3e-5 0.28547,-3.69e-4 0.28125,0 -0.0042,3.69e-4 0.285413,-0.04766 0.28125,-0.04687 -0.0042,7.87e-4 0.285314,-0.04807 0.28125,-0.04687 -0.004,0.0012 0.285174,-0.09534 0.28125,-0.09375 -0.0039,0.0016 0.284996,-0.142605 0.28125,-0.140625 -0.0038,0.0019 0.28478,-0.142965 0.28125,-0.140625 -0.0036,0.0024 0.237654,-0.190182 0.234375,-0.1875 -0.0033,0.0027 0.237371,-0.190496 0.234375,-0.1875 -0.003,0.003 0.190182,-0.237654 0.1875,-0.234375 -0.0027,0.0033 0.189843,-0.237905 0.1875,-0.234375 -0.0024,0.0036 0.142605,-0.284996 0.140625,-0.28125 -0.002,0.0037 0.142215,-0.285174 0.140625,-0.28125 -0.0017,0.0039 0.09495,-0.285314 0.09375,-0.28125 -0.0012,0.0041 0.04767,-0.285413 0.04687,-0.28125 -7.87e-4,0.0042 0.04725,-0.28547 0.04687,-0.28125 -3.69e-4,0.0042 -5.2e-5,-0.285486 0,-0.28125 v -9 h 9 c -0.0042,-5.3e-5 0.28547,-3.69e-4 0.28125,0 -0.0042,3.69e-4 0.285413,-0.04766 0.28125,-0.04687 -0.0042,7.87e-4 0.285314,-0.04807 0.28125,-0.04687 -0.004,0.0012 0.285174,-0.09534 0.28125,-0.09375 0.0084,0.0069 0.04734,3.45e-4 0.04687,0 -0.0029,-0.0021 0.237432,0.14253 0.234375,0.140625 -0.003,-0.0019 0.237582,0.14226 0.234375,0.140625 -0.0031,-0.0016 0.190833,0.09512 0.1875,0.09375 -0.0033,-0.0014 0.284687,0.09483 0.28125,0.09375 -0.0025,-8.15e-4 0.119055,0.02858 0.1875,0.04687 0.02178,0.0058 0.04773,0.04706 0.04687,0.04687 V 84.57811 C 45.198501,85.339256 48.424539,85.75 51.75,85.75 c 22.333314,0 40.5,-18.166686 40.5,-40.5 C 92.25,22.916686 74.083314,4.7499996 51.75,4.7499996 Z M 46.6875,20.640625 c -1.588881,1.366251 -2.625,3.341716 -2.625,5.578125 v 19.3125 c 0,4.028055 3.250338,7.340317 7.265625,7.40625 0.04333,7.11e-4 0.07281,1.75e-4 0.09375,0 0.0105,-8.7e-5 0.04189,0 0.04687,0 0.152349,0.0016 0.3407,0 0.28125,0 h 0.28125 16.125 c 4.225346,0 7.6875,-3.462155 7.6875,-7.6875 0,-4.225346 -3.462154,-7.6875 -7.6875,-7.6875 H 59.4375 V 26.21875 c 0,-2.236409 -1.036119,-4.211873 -2.625,-5.578125 C 68.277635,22.973272 76.875,33.073351 76.875,45.25 c 0,13.916166 -11.208829,25.125 -25.125,25.125 -2.818575,0 -5.475327,-0.499739 -8.015625,-1.359375 v 0.04687 c 0.0024,8.65e-4 -0.14307,-0.09447 -0.140625,-0.09375 0.0024,7.2e-4 -0.189988,-0.04744 -0.1875,-0.04687 0.0025,5.71e-4 -0.190017,-4.2e-4 -0.1875,0 0.0025,4.2e-4 -0.190038,-0.04715 -0.1875,-0.04687 0.0025,2.68e-4 -0.143175,-1.16e-4 -0.140625,0 0.002,8.7e-5 -0.08973,8.08e-4 -0.140625,0 -0.0123,-0.08856 -0.0474,-0.190313 -0.04687,-0.1875 7.88e-4,0.0042 -0.04807,-0.285314 -0.04687,-0.28125 0.0012,0.0041 -0.09534,-0.285174 -0.09375,-0.28125 0.0016,0.0039 -0.142605,-0.284996 -0.140625,-0.28125 0.002,0.0037 -0.142965,-0.28478 -0.140625,-0.28125 0.0024,0.0036 -0.190182,-0.237654 -0.1875,-0.234375 0.0027,0.0033 -0.190495,-0.237371 -0.1875,-0.234375 0.003,0.003 -0.237654,-0.190182 -0.234375,-0.1875 0.0033,0.0027 -0.237904,-0.189843 -0.234375,-0.1875 0.0036,0.0024 -0.284995,-0.142605 -0.28125,-0.140625 0.0037,0.0019 -0.285174,-0.142215 -0.28125,-0.140625 0.0039,0.0016 -0.285313,-0.09495 -0.28125,-0.09375 0.004,0.0012 -0.285412,-0.04767 -0.28125,-0.04687 0.0042,7.87e-4 -0.285469,-0.04725 -0.28125,-0.04687 0.0042,3.69e-4 -0.285486,5.2e-5 -0.28125,0 h -9 v -9 c -5.2e-5,0.0042 -3.69e-4,-0.28547 0,-0.28125 3.69e-4,0.0042 -0.04767,-0.285413 -0.04687,-0.28125 7.88e-4,0.0042 -0.04808,-0.285314 -0.04687,-0.28125 0.0012,0.004 -0.09534,-0.285174 -0.09375,-0.28125 0.0017,0.0039 -0.142605,-0.284996 -0.140625,-0.28125 0.002,0.0037 -0.142965,-0.28478 -0.140625,-0.28125 0.0024,0.0036 -0.190182,-0.237654 -0.1875,-0.234375 0.0027,0.0033 -0.190495,-0.237371 -0.1875,-0.234375 0.003,0.003 -0.237654,-0.190182 -0.234375,-0.1875 0.0033,0.0027 -0.237904,-0.189843 -0.234375,-0.1875 0.0036,0.0024 -0.284995,-0.142605 -0.28125,-0.140625 0.0038,0.002 -0.285174,-0.142215 -0.28125,-0.140625 0.0039,0.0016 -0.285313,-0.09495 -0.28125,-0.09375 0.004,0.0012 -0.285412,-0.04767 -0.28125,-0.04687 0.0028,5.32e-4 -0.09894,-0.0346 -0.1875,-0.04687 -8.08e-4,-0.05089 -8.7e-5,-0.14253 0,-0.140625 1.16e-4,0.0025 -2.68e-4,-0.14316 0,-0.140625 2.69e-4,0.0025 -0.04729,-0.190017 -0.04687,-0.1875 4.2e-4,0.0025 -5.71e-4,-0.189989 0,-0.1875 5.72e-4,0.0025 -0.0476,-0.18995 -0.04687,-0.1875 7.2e-4,0.0024 -0.09462,-0.143025 -0.09375,-0.140625 H 27.9844 C 27.124739,50.725327 26.625,48.068575 26.625,45.25 c 0,-12.176649 8.597369,-22.276728 20.0625,-24.609375 z" />
  <path
     inkscape:connector-curvature="0"
     style="color:#000000;display:inline;overflow:visible;visibility:visible;opacity:0.15;fill:#000000;fill-opacity:1;fill-rule:nonzero;stroke:none;stroke-width:1.5;marker:none;enable-background:accumulate"
     id="path3934"
     d="m 51.75,6.2968746 c -21.486342,0 -38.953125,17.4667834 -38.953125,38.9531254 0,3.216133 0.386589,6.330858 1.125,9.328125 a 1.4353889,1.4353889 0 0 0 1.40625,1.125 H 25.125 a 1.4353889,1.4353889 0 0 0 1.359375,-1.921875 c -0.911755,-2.694315 -1.40625,-5.540414 -1.40625,-8.53125 0,-14.757348 11.914533,-26.671875 26.671875,-26.671875 14.757348,0 26.671875,11.914527 26.671875,26.671875 0,14.757343 -11.914527,26.671875 -26.671875,26.671875 -2.990836,0 -5.836935,-0.494495 -8.53125,-1.40625 A 1.4353889,1.4353889 0 0 0 41.296875,71.875 v 9.796875 a 1.4353889,1.4353889 0 0 0 1.125,1.40625 c 2.997267,0.738411 6.111992,1.125 9.328125,1.125 21.486342,0 38.953125,-17.466783 38.953125,-38.953125 C 90.703125,23.763658 73.236342,6.2968746 51.75,6.2968746 Z M 51.46875,20.359375 c -3.20496,0 -5.859375,2.654412 -5.859375,5.859375 v 19.3125 c 0,3.172966 2.604101,5.807461 5.765625,5.859375 0.03187,5.23e-4 0.06175,0 0.09375,0 0.12618,0.0029 0.251411,0 0.28125,0 h 0.28125 16.125 c 3.367175,0 6.140625,-2.773451 6.140625,-6.140625 0,-3.367175 -2.77345,-6.140625 -6.140625,-6.140625 H 57.890625 V 26.21875 c 0,-3.204962 -2.654413,-5.859375 -5.859375,-5.859375 z M 15.75,55.796875 A 1.4353889,1.4353889 0 0 0 14.296875,57.25 V 67.796875 H 3.7500004 A 1.4353889,1.4353889 0 0 0 2.2968754,69.25 v 12 a 1.4353889,1.4353889 0 0 0 1.453125,1.453125 H 14.296875 V 93.25 A 1.4353889,1.4353889 0 0 0 15.75,94.703125 h 12 A 1.4353889,1.4353889 0 0 0 29.203125,93.25 V 82.703125 H 39.75 A 1.4353889,1.4353889 0 0 0 41.203125,81.25 v -12 A 1.4353889,1.4353889 0 0 0 39.75,67.796875 H 29.203125 V 57.25 A 1.4353889,1.4353889 0 0 0 27.75,55.796875 Z" />
  <path
     style="color:#000000;display:inline;overflow:visible;visibility:visible;opacity:0.3;fill:#000000;fill-opacity:1;fill-rule:nonzero;stroke:none;stroke-width:1.5;marker:none;enable-background:accumulate"
     id="path3928"
     inkscape:connector-curvature="0"
     d="m 51.75,7.7499996 c -20.710678,0 -37.5,16.7893214 -37.5,37.5000004 0,3.102723 0.367758,6.116565 1.078125,9 H 25.125 c -0.958201,-2.831567 -1.5,-5.844858 -1.5,-9 0,-15.533012 12.591995,-28.125 28.125,-28.125 15.533012,0 28.125,12.591988 28.125,28.125 0,15.533007 -12.591988,28.125 -28.125,28.125 -3.155142,0 -6.168433,-0.541799 -9,-1.5 v 9.796875 c 2.883435,0.710367 5.897277,1.078125 9,1.078125 20.710679,0 37.5,-16.789322 37.5,-37.5 C 89.25,24.539321 72.460679,7.7499996 51.75,7.7499996 Z M 51.46875,21.8125 c -2.418673,0 -4.40625,1.987575 -4.40625,4.40625 v 19.3125 c 0,2.418675 1.987577,4.40625 4.40625,4.40625 0.10017,0.0066 0.179438,0 0.28125,0 h 0.28125 16.125 c 2.596875,0 4.6875,-2.090625 4.6875,-4.6875 0,-2.596875 -2.090625,-4.6875 -4.6875,-4.6875 H 56.4375 V 26.21875 c 0,-2.418675 -1.987575,-4.40625 -4.40625,-4.40625 z M 15.75,57.25 v 12 H 3.7500004 v 12 H 15.75 v 12 h 12 v -12 h 12 v -12 h -12 v -12 z" />
  <rect
     style="color:#000000;display:inline;overflow:visible;visibility:visible;fill:url(#linearGradient3905);fill-opacity:1;fill-rule:nonzero;stroke:none;stroke-width:2;marker:none;enable-background:accumulate"
     id="rect3897"
     transform="matrix(0,1,1,0,0,0)"
     y="104"
     x="0"
     height="16"
     width="16" />
  <text
     style="font-style:normal;font-variant:normal;font-weight:normal;font-stretch:normal;font-size:4px;line-height:125%;font-family:'Liberation Sans';-inkscape-font-specification:'Liberation Sans';text-align:start;letter-spacing:0px;word-spacing:0px;writing-mode:lr-tb;text-anchor:start;fill:#000000;fill-opacity:1;stroke:none"
     xml:space="preserve"
     id="text3907"
     y="48"
     x="104"><tspan
       id="tspan3909"
       y="48"
       x="104">Shadow opacity : 30, 15, 10, (8)</tspan></text>
  <rect
     style="color:#000000;display:inline;overflow:visible;visibility:visible;fill:url(#linearGradient3913);fill-opacity:1;fill-rule:nonzero;stroke:none;stroke-width:2;marker:none;enable-background:accumulate"
     id="rect3911"
     transform="rotate(-90)"
     y="104"
     x="-40"
     height="16"
     width="16" />
  <text
     style="font-style:normal;font-variant:normal;font-weight:normal;font-stretch:normal;font-size:4px;line-height:125%;font-family:'Liberation Sans';-inkscape-font-specification:'Liberation Sans';text-align:start;letter-spacing:0px;word-spacing:0px;writing-mode:lr-tb;text-anchor:start;fill:#000000;fill-opacity:1;stroke:none"
     xml:space="preserve"
     id="text3951"
     y="32"
     x="124"><tspan
       id="tspan3953"
       y="32"
       x="124">Bevel opacity : 30 / 10</tspan></text>
  <text
     style="font-style:normal;font-variant:normal;font-weight:normal;font-stretch:normal;font-size:4px;line-height:125%;font-family:'Liberation Sans';-inkscape-font-specification:'Liberation Sans';text-align:start;letter-spacing:0px;word-spacing:0px;writing-mode:lr-tb;text-anchor:start;fill:#000000;fill-opacity:1;stroke:none"
     xml:space="preserve"
     id="text3955"
     y="8"
     x="124"><tspan
       id="tspan3957"
       y="8"
       x="124">Bevel opacity : 75 / 15</tspan></text>
  <path
     style="color:#000000;display:inline;overflow:visible;visibility:visible;fill:url(#linearGradient3139);fill-opacity:1;fill-rule:nonzero;stroke:none;stroke-width:1.5;marker:none;enable-background:accumulate"
     id="path3836"
     inkscape:connector-curvature="0"
     d="m 51.75,6.2499996 c -20.710678,0 -37.5,16.7893214 -37.5,37.5000004 0,3.102723 0.367758,6.116565 1.078125,9 H 25.125 c -0.958201,-2.831567 -1.5,-5.844858 -1.5,-9 0,-15.533012 12.591995,-28.125 28.125,-28.125 15.533012,0 28.125,12.591988 28.125,28.125 0,15.533007 -12.591988,28.125 -28.125,28.125 -3.155142,0 -6.168433,-0.541799 -9,-1.5 v 9.796875 c 2.883435,0.710367 5.897277,1.078125 9,1.078125 20.710679,0 37.5,-16.789322 37.5,-37.5 C 89.25,23.039321 72.460679,6.2499996 51.75,6.2499996 Z M 51.46875,20.3125 c -2.418673,0 -4.40625,1.987575 -4.40625,4.40625 v 19.3125 c 0,2.418675 1.987577,4.40625 4.40625,4.40625 0.10017,0.0066 0.179438,0 0.28125,0 h 0.28125 16.125 c 2.596875,0 4.6875,-2.090625 4.6875,-4.6875 0,-2.596875 -2.090625,-4.6875 -4.6875,-4.6875 H 56.4375 V 24.71875 c 0,-2.418675 -1.987575,-4.40625 -4.40625,-4.40625 z M 15.75,55.75 v 12 H 3.7500004 v 12 H 15.75 v 12 h 12 v -12 h 12 v -12 h -12 v -12 z" />
  <path
     style="color:#000000;display:inline;overflow:visible;visibility:visible;opacity:0.75;fill:#ffffff;fill-opacity:1;fill-rule:nonzero;stroke:none;stroke-width:1.5;marker:none;enable-background:accumulate"
     id="path3910"
     inkscape:connector-curvature="0"
     d="m 51.75,6.2499996 c -20.710678,0 -37.5,16.7893214 -37.5,37.5000004 0,0.269001 -0.0055,0.529236 0,0.796875 0.37763,-20.383787 17.025965,-36.7968754 37.5,-36.7968754 20.45826,0 37.097624,16.3880504 37.5,36.7500004 0.005,-0.251231 0,-0.497582 0,-0.75 C 89.25,23.039321 72.460679,6.2499996 51.75,6.2499996 Z M 51.46875,20.3125 c -2.418673,0 -4.40625,1.987575 -4.40625,4.40625 v 1.5 c 0,-2.418675 1.987577,-4.40625 4.40625,-4.40625 h 0.5625 c 2.418675,0 4.40625,1.987575 4.40625,4.40625 v -1.5 c 0,-2.418675 -1.987575,-4.40625 -4.40625,-4.40625 z m 4.96875,18.75 v 1.5 h 11.71875 c 2.336544,0 4.230936,1.706607 4.59375,3.9375 0.04042,-0.248559 0.09375,-0.489669 0.09375,-0.75 0,-2.596875 -2.090625,-4.6875 -4.6875,-4.6875 z M 79.828125,44.5 C 79.424334,59.680739 67.028205,71.875 51.75,71.875 c -3.155142,0 -6.168433,-0.541799 -9,-1.5 v 1.5 c 2.831567,0.958201 5.844858,1.5 9,1.5 15.533012,0 28.125,-12.591993 28.125,-28.125 0,-0.254807 -0.04014,-0.49682 -0.04687,-0.75 z m -56.15625,0.09375 c -0.0052,0.221811 -0.04687,0.433197 -0.04687,0.65625 0,2.605176 0.363078,5.110689 1.03125,7.5 H 25.125 C 24.253091,50.173433 23.759747,47.44121 23.671875,44.59375 Z M 15.75,55.75 v 1.5 h 12 v -1.5 z m -11.9999996,12 v 1.5 H 15.75 v -1.5 z M 27.75,67.75 v 1.5 h 12 v -1.5 z" />
  <path
     style="color:#000000;display:inline;overflow:visible;visibility:visible;opacity:0.15;fill:#000000;fill-opacity:1;fill-rule:nonzero;stroke:none;stroke-width:1.5;marker:none;enable-background:accumulate"
     id="path3919"
     inkscape:connector-curvature="0"
     d="m 51.75,14.125 c -15.533005,0 -28.125,12.591988 -28.125,28.125 0,0.284139 0.03817,0.56194 0.04687,0.84375 C 24.026361,27.869005 36.440048,15.625 51.75,15.625 67.028205,15.625 79.424334,27.819256 79.828125,43 79.83486,42.746819 79.875,42.504806 79.875,42.25 79.875,26.716988 67.283012,14.125 51.75,14.125 Z m -4.6875,28.40625 v 1.5 c 0,2.418675 1.987577,4.40625 4.40625,4.40625 0.10017,0.0066 0.179438,0 0.28125,0 h 0.28125 16.125 c 2.596875,0 4.6875,-2.090625 4.6875,-4.6875 0,-0.260331 -0.05333,-0.501441 -0.09375,-0.75 -0.362814,2.230893 -2.257206,3.9375 -4.59375,3.9375 H 52.03125 51.75 c -0.10182,0 -0.18108,0.0066 -0.28125,0 -2.418673,0 -4.40625,-1.987575 -4.40625,-4.40625 z M 89.25,43 c -0.402376,20.361949 -17.04174,36.75 -37.5,36.75 -3.102723,0 -6.116565,-0.367758 -9,-1.078125 v 1.5 c 2.883435,0.710367 5.897277,1.078125 9,1.078125 20.710679,0 37.5,-16.789322 37.5,-37.5 0,-0.252419 0.0049,-0.49877 0,-0.75 z m -75,0.04687 c -0.0044,0.2356 0,0.466482 0,0.703125 0,3.102723 0.367758,6.116565 1.078125,9 H 25.125 c -0.167022,-0.493565 -0.327696,-0.995604 -0.46875,-1.5 H 15.328125 C 14.679347,48.616555 14.308067,45.866236 14.25,43.046875 Z M 3.7500004,78.25 v 1.5 H 15.75 v -1.5 z M 27.75,78.25 v 1.5 h 12 v -1.5 z m -12,12 v 1.5 h 12 v -1.5 z" />
</svg>
