<?xml version="1.0" encoding="UTF-8" standalone="no"?>
<!-- Created with Inkscape (http://www.inkscape.org/) -->

<svg
   xmlns:dc="http://purl.org/dc/elements/1.1/"
   xmlns:cc="http://creativecommons.org/ns#"
   xmlns:rdf="http://www.w3.org/1999/02/22-rdf-syntax-ns#"
   xmlns:svg="http://www.w3.org/2000/svg"
   xmlns="http://www.w3.org/2000/svg"
   xmlns:xlink="http://www.w3.org/1999/xlink"
   xmlns:sodipodi="http://sodipodi.sourceforge.net/DTD/sodipodi-0.dtd"
   xmlns:inkscape="http://www.inkscape.org/namespaces/inkscape"
   version="1.0"
   width="96"
   height="96"
   id="svg2408"
   sodipodi:docname="call-stop.svg"
   inkscape:version="0.92.2 2405546, 2018-03-11">
  <sodipodi:namedview
     pagecolor="#ffffff"
     bordercolor="#666666"
     borderopacity="1"
     objecttolerance="10"
     gridtolerance="10"
     guidetolerance="10"
     inkscape:pageopacity="0"
     inkscape:pageshadow="2"
     inkscape:window-width="750"
     inkscape:window-height="480"
     id="namedview558"
     showgrid="false"
     inkscape:zoom="2.4583333"
     inkscape:cx="48"
     inkscape:cy="48"
     inkscape:window-x="52"
     inkscape:window-y="0"
     inkscape:window-maximized="0"
     inkscape:current-layer="svg2408" />
  <defs
     id="defs2410">
    <linearGradient
       id="linearGradient3637">
      <stop
         id="stop3639"
         style="stop-color:#f0f0f0;stop-opacity:1"
         offset="0" />
      <stop
         id="stop3641"
         style="stop-color:#aaaaaa;stop-opacity:1"
         offset="1" />
    </linearGradient>
    <linearGradient
       x1="45.447727"
       y1="92.539597"
       x2="45.447727"
       y2="7.0165396"
       id="ButtonShadow"
       gradientUnits="userSpaceOnUse"
       gradientTransform="scale(1.0058652,0.994169)">
      <stop
         id="stop3750"
         style="stop-color:#000000;stop-opacity:1"
         offset="0" />
      <stop
         id="stop3752"
         style="stop-color:#000000;stop-opacity:0.58823532"
         offset="1" />
    </linearGradient>
    <linearGradient
       id="linearGradient3737">
      <stop
         id="stop3739"
         style="stop-color:#ffffff;stop-opacity:1"
         offset="0" />
      <stop
         id="stop3741"
         style="stop-color:#ffffff;stop-opacity:0"
         offset="1" />
    </linearGradient>
    <linearGradient
       id="linearGradient3700">
      <stop
         id="stop3702"
         style="stop-color:#2276c5;stop-opacity:1"
         offset="0" />
      <stop
         id="stop3704"
         style="stop-color:#68baf4;stop-opacity:1"
         offset="1" />
    </linearGradient>
    <filter
       color-interpolation-filters="sRGB"
       id="filter3174">
      <feGaussianBlur
         id="feGaussianBlur3176"
         stdDeviation="1.71" />
    </filter>
    <linearGradient
       x1="36.357143"
       y1="6"
       x2="36.357143"
       y2="63.893143"
       id="linearGradient3188"
       xlink:href="#linearGradient3737"
       gradientUnits="userSpaceOnUse" />
    <filter
       x="-0.192"
       y="-0.192"
       width="1.3839999"
       height="1.3839999"
       color-interpolation-filters="sRGB"
       id="filter3794">
      <feGaussianBlur
         id="feGaussianBlur3796"
         stdDeviation="5.28" />
    </filter>
    <linearGradient
       x1="48"
       y1="20.220806"
       x2="48"
       y2="138.66119"
       id="linearGradient3613"
       xlink:href="#linearGradient3737"
       gradientUnits="userSpaceOnUse" />
    <radialGradient
       cx="48"
       cy="90.171875"
       r="42"
       fx="48"
       fy="90.171875"
       id="radialGradient3619"
       xlink:href="#linearGradient3737"
       gradientUnits="userSpaceOnUse"
       gradientTransform="matrix(1.1573129,0,0,0.99590774,-7.5510206,0.19713193)" />
    <clipPath
       id="clipPath3613">
      <rect
         width="84"
         height="84"
         rx="6"
         ry="6"
         x="6"
         y="6"
         id="rect3615"
         style="fill:#ffffff;fill-opacity:1;fill-rule:nonzero;stroke:none" />
    </clipPath>
    <linearGradient
       x1="48"
       y1="90"
       x2="48"
       y2="5.9877172"
       id="linearGradient2843"
       xlink:href="#linearGradient3700"
       gradientUnits="userSpaceOnUse"
       gradientTransform="translate(0,100)" />
    <clipPath
       id="clipPath3625">
      <path
         d="M 0,0 0,96 96,96 96,0 0,0 z m 12,6 72,0 c 3.324,0 6,2.676 6,6 l 0,72 c 0,3.324 -2.676,6 -6,6 L 12,90 C 8.676,90 6,87.324 6,84 L 6,12 C 6,8.676 8.676,6 12,6 z"
         inkscape:connector-curvature="0"
         id="path3627"
         style="fill:#ffffff;fill-opacity:1;stroke:none" />
    </clipPath>
    <linearGradient
       x1="44.512066"
       y1="6"
       x2="44.512066"
       y2="90.015434"
       id="linearGradient3643"
       xlink:href="#linearGradient3637"
       gradientUnits="userSpaceOnUse" />
    <clipPath
       id="clipPath3649">
      <rect
         width="76"
         height="76"
         rx="4"
         ry="4"
         x="10"
         y="10"
         id="rect3651"
         style="fill:#ffffff;fill-opacity:1;fill-rule:nonzero;stroke:none" />
    </clipPath>
    <filter
       color-interpolation-filters="sRGB"
       id="filter3657">
      <feGaussianBlur
         id="feGaussianBlur3659"
         stdDeviation="1.14" />
    </filter>
    <linearGradient
       x1="45.447727"
       y1="92.539597"
       x2="45.447727"
       y2="7.0165396"
       id="ButtonShadow-0"
       gradientUnits="userSpaceOnUse"
       gradientTransform="matrix(1.0058652,0,0,0.994169,100,0)">
      <stop
         id="stop3750-8"
         style="stop-color:#000000;stop-opacity:1"
         offset="0" />
      <stop
         id="stop3752-5"
         style="stop-color:#000000;stop-opacity:0.58823532"
         offset="1" />
    </linearGradient>
    <linearGradient
       x1="32.251034"
       y1="6.1317081"
       x2="32.251034"
       y2="90.238609"
       id="linearGradient3780"
       xlink:href="#ButtonShadow-0"
       gradientUnits="userSpaceOnUse"
       gradientTransform="matrix(1.0238095,0,0,-1.0119048,-1.1428571,98.071429)" />
    <linearGradient
       x1="32.251034"
       y1="6.1317081"
       x2="32.251034"
       y2="90.238609"
       id="linearGradient3772"
       xlink:href="#ButtonShadow-0"
       gradientUnits="userSpaceOnUse"
       gradientTransform="matrix(1.0238095,0,0,-1.0119048,-1.1428571,98.071429)" />
    <linearGradient
       x1="32.251034"
       y1="6.1317081"
       x2="32.251034"
       y2="90.238609"
       id="linearGradient3725"
       xlink:href="#ButtonShadow-0"
       gradientUnits="userSpaceOnUse"
       gradientTransform="matrix(1.0238095,0,0,-1.0119048,-1.1428571,98.071429)" />
    <linearGradient
       x1="32.251034"
       y1="6.1317081"
       x2="32.251034"
       y2="90.238609"
       id="linearGradient3721"
       xlink:href="#ButtonShadow-0"
       gradientUnits="userSpaceOnUse"
       gradientTransform="matrix(1,0,0,-1,0,97)" />
    <linearGradient
       x1="32.251034"
       y1="6.1317081"
       x2="32.251034"
       y2="90.238609"
       id="linearGradient3199"
       xlink:href="#ButtonShadow-0"
       gradientUnits="userSpaceOnUse"
       gradientTransform="matrix(1.0238095,0,0,-1.0119048,-1.1428571,98.071429)" />
    <linearGradient
       x1="36.357143"
       y1="6"
       x2="36.357143"
       y2="63.893143"
       id="linearGradient3188-8"
       xlink:href="#linearGradient3737-3"
       gradientUnits="userSpaceOnUse" />
    <linearGradient
       id="linearGradient3737-3">
      <stop
         id="stop3739-6"
         style="stop-color:#ffffff;stop-opacity:1"
         offset="0" />
      <stop
         id="stop3741-1"
         style="stop-color:#ffffff;stop-opacity:0"
         offset="1" />
    </linearGradient>
    <radialGradient
       cx="48"
       cy="90.171875"
       r="42"
       fx="48"
       fy="90.171875"
       id="radialGradient3619-3"
       xlink:href="#linearGradient3737-3"
       gradientUnits="userSpaceOnUse"
       gradientTransform="matrix(1.1573129,0,0,0.99590774,-7.551021,0.1971319)" />
    <linearGradient
       x1="104"
       y1="8"
       x2="120"
       y2="8"
       id="linearGradient3905"
       xlink:href="#linearGradient3637"
       gradientUnits="userSpaceOnUse"
       gradientTransform="translate(-104,104)" />
    <linearGradient
       x1="104"
       y1="8"
       x2="120"
       y2="8"
       id="linearGradient3913"
       xlink:href="#linearGradient3183-0"
       gradientUnits="userSpaceOnUse"
       gradientTransform="translate(-144,104)" />
    <linearGradient
       id="linearGradient3183-0">
      <stop
         id="stop3185-9"
         style="stop-color:#c80000;stop-opacity:1"
         offset="0" />
      <stop
         id="stop3187-6"
         style="stop-color:#f3604d;stop-opacity:1"
         offset="1" />
    </linearGradient>
    <linearGradient
       x1="647.27832"
       y1="349.10172"
       x2="639.46515"
       y2="357.89178"
       id="linearGradient3811"
       xlink:href="#linearGradient3183-0"
       gradientUnits="userSpaceOnUse"
       gradientTransform="matrix(-2.0674716,1.8013507,-1.8377041,-2.0254551,2008.3366,-393.15583)" />
  </defs>
  <metadata
     id="metadata2413">
    <rdf:RDF>
      <cc:Work
         rdf:about="">
        <dc:format>image/svg+xml</dc:format>
        <dc:type
           rdf:resource="http://purl.org/dc/dcmitype/StillImage" />
        <dc:title />
      </cc:Work>
    </rdf:RDF>
  </metadata>
  <g
     id="layer2"
     style="display:none">
    <rect
       width="86"
       height="85"
       rx="6"
       ry="6"
       x="5"
       y="7"
       clip-path="url(#clipPath3625)"
       id="rect3745"
       style="opacity:0.9;fill:url(#ButtonShadow);fill-opacity:1;fill-rule:nonzero;stroke:none;filter:url(#filter3174)" />
  </g>
  <g
     id="layer1"
     style="display:none">
    <rect
       width="84"
       height="84"
       rx="6"
       ry="6"
       x="6"
       y="6"
       id="rect2419"
       style="opacity:0.8;fill:#000000;fill-opacity:1;fill-rule:nonzero;stroke:none" />
    <path
       d="m 14,10 c -2.216,0 -4,1.784 -4,4 l 0,68 c 0,2.216 1.784,4 4,4 l 68,0 c 2.216,0 4,-1.784 4,-4 l 0,-68 c 0,-2.216 -1.784,-4 -4,-4 l -68,0 z m 0,3.0625 68,0 c 0.578769,0 0.9375,0.358731 0.9375,0.9375 l 0,68 c 0,0.578769 -0.358731,0.9375 -0.9375,0.9375 l -68,0 c -0.578769,0 -0.9375,-0.358731 -0.9375,-0.9375 l 0,-68 c 0,-0.578769 0.358731,-0.9375 0.9375,-0.9375 z"
       inkscape:connector-curvature="0"
       id="rect3726"
       style="opacity:0.07999998;fill:#000000;fill-opacity:1;fill-rule:nonzero;stroke:none" />
    <path
       d="M 12,6 C 8.676,6 6,8.676 6,12 l 0,72 c 0,3.324 2.676,6 6,6 l 72,0 c 3.324,0 6,-2.676 6,-6 L 90,12 C 90,8.676 87.324,6 84,6 L 12,6 z m 2,4 68,0 c 2.216,0 4,1.784 4,4 l 0,68 c 0,2.216 -1.784,4 -4,4 l -68,0 c -2.216,0 -4,-1.784 -4,-4 l 0,-68 c 0,-2.216 1.784,-4 4,-4 z"
       inkscape:connector-curvature="0"
       id="rect3629"
       style="fill:url(#linearGradient3643);fill-opacity:1;fill-rule:nonzero;stroke:none" />
    <path
       d="M 12,6 C 8.676,6 6,8.676 6,12 l 0,2 0,68 0,2 c 0,0.334721 0.04135,0.6507 0.09375,0.96875 0.0487,0.295596 0.09704,0.596915 0.1875,0.875 0.00988,0.03038 0.020892,0.0636 0.03125,0.09375 0.098865,0.287771 0.2348802,0.547452 0.375,0.8125 0.1445918,0.273507 0.3156161,0.535615 0.5,0.78125 0.1843839,0.245635 0.3737765,0.473472 0.59375,0.6875 0.439947,0.428056 0.94291,0.814526 1.5,1.09375 0.278545,0.139612 0.5734731,0.246947 0.875,0.34375 -0.2562018,-0.100222 -0.4867109,-0.236272 -0.71875,-0.375 -0.00741,-0.0044 -0.023866,0.0045 -0.03125,0 -0.031933,-0.0193 -0.062293,-0.04251 -0.09375,-0.0625 -0.120395,-0.0767 -0.2310226,-0.163513 -0.34375,-0.25 -0.1061728,-0.0808 -0.2132809,-0.161112 -0.3125,-0.25 C 8.4783201,88.557317 8.3087904,88.373362 8.15625,88.1875 8.0486711,88.057245 7.9378561,87.922215 7.84375,87.78125 7.818661,87.74287 7.805304,87.69538 7.78125,87.65625 7.716487,87.553218 7.6510225,87.451733 7.59375,87.34375 7.4927417,87.149044 7.3880752,86.928049 7.3125,86.71875 7.30454,86.69694 7.288911,86.6782 7.28125,86.65625 7.2494249,86.5643 7.2454455,86.469419 7.21875,86.375 7.1884177,86.268382 7.1483606,86.171969 7.125,86.0625 7.0521214,85.720988 7,85.364295 7,85 L 7,83 7,15 7,13 C 7,10.218152 9.2181517,8 12,8 l 2,0 68,0 2,0 c 2.781848,0 5,2.218152 5,5 l 0,2 0,68 0,2 c 0,0.364295 -0.05212,0.720988 -0.125,1.0625 -0.04415,0.206893 -0.08838,0.397658 -0.15625,0.59375 -0.0077,0.02195 -0.0233,0.04069 -0.03125,0.0625 -0.06274,0.173739 -0.138383,0.367449 -0.21875,0.53125 -0.04158,0.0828 -0.07904,0.169954 -0.125,0.25 -0.0546,0.09721 -0.126774,0.18835 -0.1875,0.28125 -0.09411,0.140965 -0.204921,0.275995 -0.3125,0.40625 -0.143174,0.17445 -0.303141,0.346998 -0.46875,0.5 -0.01117,0.0102 -0.01998,0.02115 -0.03125,0.03125 -0.138386,0.125556 -0.285091,0.234436 -0.4375,0.34375 -0.102571,0.07315 -0.204318,0.153364 -0.3125,0.21875 -0.0074,0.0045 -0.02384,-0.0044 -0.03125,0 -0.232039,0.138728 -0.462548,0.274778 -0.71875,0.375 0.301527,-0.0968 0.596455,-0.204138 0.875,-0.34375 0.55709,-0.279224 1.060053,-0.665694 1.5,-1.09375 0.219973,-0.214028 0.409366,-0.441865 0.59375,-0.6875 0.184384,-0.245635 0.355408,-0.507743 0.5,-0.78125 0.14012,-0.265048 0.276135,-0.524729 0.375,-0.8125 0.01041,-0.03078 0.02133,-0.06274 0.03125,-0.09375 0.09046,-0.278085 0.1388,-0.579404 0.1875,-0.875 C 89.95865,84.6507 90,84.334721 90,84 l 0,-2 0,-68 0,-2 C 90,8.676 87.324,6 84,6 L 12,6 z"
       inkscape:connector-curvature="0"
       id="rect3728"
       style="fill:url(#linearGradient3188);fill-opacity:1;fill-rule:nonzero;stroke:none" />
    <path
       d="M 12,90 C 8.676,90 6,87.324 6,84 L 6,82 6,14 6,12 c 0,-0.334721 0.04135,-0.6507 0.09375,-0.96875 0.0487,-0.295596 0.09704,-0.596915 0.1875,-0.875 C 6.29113,10.12587 6.302142,10.09265 6.3125,10.0625 6.411365,9.774729 6.5473802,9.515048 6.6875,9.25 6.8320918,8.976493 7.0031161,8.714385 7.1875,8.46875 7.3718839,8.223115 7.5612765,7.995278 7.78125,7.78125 8.221197,7.353194 8.72416,6.966724 9.28125,6.6875 9.559795,6.547888 9.8547231,6.440553 10.15625,6.34375 9.9000482,6.443972 9.6695391,6.580022 9.4375,6.71875 c -0.00741,0.0044 -0.023866,-0.0045 -0.03125,0 -0.031933,0.0193 -0.062293,0.04251 -0.09375,0.0625 -0.120395,0.0767 -0.2310226,0.163513 -0.34375,0.25 -0.1061728,0.0808 -0.2132809,0.161112 -0.3125,0.25 C 8.4783201,7.442683 8.3087904,7.626638 8.15625,7.8125 8.0486711,7.942755 7.9378561,8.077785 7.84375,8.21875 7.818661,8.25713 7.805304,8.30462 7.78125,8.34375 7.716487,8.446782 7.6510225,8.548267 7.59375,8.65625 7.4927417,8.850956 7.3880752,9.071951 7.3125,9.28125 7.30454,9.30306 7.288911,9.3218 7.28125,9.34375 7.2494249,9.4357 7.2454455,9.530581 7.21875,9.625 7.1884177,9.731618 7.1483606,9.828031 7.125,9.9375 7.0521214,10.279012 7,10.635705 7,11 l 0,2 0,68 0,2 c 0,2.781848 2.2181517,5 5,5 l 2,0 68,0 2,0 c 2.781848,0 5,-2.218152 5,-5 l 0,-2 0,-68 0,-2 C 89,10.635705 88.94788,10.279012 88.875,9.9375 88.83085,9.730607 88.78662,9.539842 88.71875,9.34375 88.71105,9.3218 88.69545,9.30306 88.6875,9.28125 88.62476,9.107511 88.549117,8.913801 88.46875,8.75 88.42717,8.6672 88.38971,8.580046 88.34375,8.5 88.28915,8.40279 88.216976,8.31165 88.15625,8.21875 88.06214,8.077785 87.951329,7.942755 87.84375,7.8125 87.700576,7.63805 87.540609,7.465502 87.375,7.3125 87.36383,7.3023 87.35502,7.29135 87.34375,7.28125 87.205364,7.155694 87.058659,7.046814 86.90625,6.9375 86.803679,6.86435 86.701932,6.784136 86.59375,6.71875 c -0.0074,-0.0045 -0.02384,0.0044 -0.03125,0 -0.232039,-0.138728 -0.462548,-0.274778 -0.71875,-0.375 0.301527,0.0968 0.596455,0.204138 0.875,0.34375 0.55709,0.279224 1.060053,0.665694 1.5,1.09375 0.219973,0.214028 0.409366,0.441865 0.59375,0.6875 0.184384,0.245635 0.355408,0.507743 0.5,0.78125 0.14012,0.265048 0.276135,0.524729 0.375,0.8125 0.01041,0.03078 0.02133,0.06274 0.03125,0.09375 0.09046,0.278085 0.1388,0.579404 0.1875,0.875 C 89.95865,11.3493 90,11.665279 90,12 l 0,2 0,68 0,2 c 0,3.324 -2.676,6 -6,6 l -72,0 z"
       inkscape:connector-curvature="0"
       id="path3615"
       style="opacity:0.6;fill:url(#radialGradient3619);fill-opacity:1;fill-rule:nonzero;stroke:none" />
    <rect
       width="84"
       height="84"
       rx="6"
       ry="6"
       x="6"
       y="106"
       id="rect2841"
       style="fill:url(#linearGradient2843);fill-opacity:1;fill-rule:nonzero;stroke:none" />
    <rect
       width="76"
       height="76"
       rx="4"
       ry="4"
       x="10"
       y="110"
       id="rect3634"
       style="fill:#ff0000;fill-opacity:1;fill-rule:nonzero;stroke:none" />
    <path
       d="m 14,9 c -2.752703,0 -5,2.247297 -5,5 l 0,68 c 0,2.752703 2.247297,5 5,5 l 68,0 c 2.752703,0 5,-2.247297 5,-5 L 87,14 C 87,11.247297 84.752703,9 82,9 L 14,9 z m 0,2 68,0 c 1.679297,0 3,1.320703 3,3 l 0,68 c 0,1.679297 -1.320703,3 -3,3 l -68,0 c -1.679297,0 -3,-1.320703 -3,-3 l 0,-68 c 0,-1.679297 1.320703,-3 3,-3 z"
       inkscape:connector-curvature="0"
       transform="translate(-110,0)"
       clip-path="url(#clipPath3649)"
       id="rect3647"
       style="font-size:medium;font-style:normal;font-variant:normal;font-weight:normal;font-stretch:normal;text-indent:0;text-align:start;text-decoration:none;line-height:normal;letter-spacing:normal;word-spacing:normal;text-transform:none;direction:ltr;block-progression:tb;writing-mode:lr-tb;text-anchor:start;color:#000000;fill:#000000;fill-opacity:1;stroke:none;stroke-width:2;marker:none;visibility:visible;display:inline;overflow:visible;filter:url(#filter3657);enable-background:accumulate;font-family:Abandoned Bitplane;-inkscape-font-specification:Abandoned Bitplane" />
    <path
       d="m 14.089286,10 c -2.216,0 -4,1.784 -4,4 l 0,68 c 0,2.216 1.784,4 4,4 l 68,0 c 2.216,0 4,-1.784 4,-4 l 0,-68 c 0,-2.216 -1.784,-4 -4,-4 l -68,0 z m 0,2 68,0 c 1.140301,0 2,0.859699 2,2 l 0,68 c 0,1.140301 -0.859699,2 -2,2 l -68,0 c -1.140301,0 -2,-0.859699 -2,-2 l 0,-68 c 0,-1.140301 0.859699,-2 2,-2 z"
       inkscape:connector-curvature="0"
       id="path3709"
       style="opacity:0.16000001;fill:#000000;fill-opacity:1;fill-rule:nonzero;stroke:none" />
    <path
       d="m 14,10 c -2.216,0 -4,1.784 -4,4 l 0,68 c 0,2.216 1.784,4 4,4 l 68,0 c 2.216,0 4,-1.784 4,-4 l 0,-68 c 0,-2.216 -1.784,-4 -4,-4 l -68,0 z m 0,1 68,0 c 1.673848,0 3,1.326152 3,3 l 0,68 c 0,1.673848 -1.326152,3 -3,3 l -68,0 c -1.673848,0 -3,-1.326152 -3,-3 l 0,-68 c 0,-1.673848 1.326152,-3 3,-3 z"
       inkscape:connector-curvature="0"
       id="path3707"
       style="opacity:0.36000001;fill:#000000;fill-opacity:1;fill-rule:nonzero;stroke:none" />
  </g>
  <g
     id="layer5"
     style="display:none">
    <rect
       width="66"
       height="66"
       rx="12"
       ry="12"
       x="15"
       y="15"
       clip-path="url(#clipPath3613)"
       id="rect3171"
       style="opacity:0.1;fill:url(#linearGradient3613);fill-opacity:1;fill-rule:nonzero;stroke:#ffffff;stroke-width:0.5;stroke-linecap:round;stroke-linejoin:miter;stroke-miterlimit:4;stroke-opacity:1;stroke-dasharray:none;stroke-dashoffset:0;filter:url(#filter3794)" />
  </g>
  <path
     style="display:inline;opacity:0.1;fill:#000000;fill-opacity:1;stroke-width:1.5"
     id="path3896"
     inkscape:connector-curvature="0"
     d="M 44.324604,32.504931 C 32.891331,32.562191 21.78506,36.501764 12.006198,42.224718 5.9829692,46.810256 1.8365282,54.661577 3.3558542,62.317431 c 1.5127785,3.626604 3.921315,8.81564 8.4374998,8.859375 5.548661,-1.228672 10.983954,-2.972551 16.470536,-4.46109 3.912804,-0.821862 4.135987,-5.265162 3.862623,-8.470755 0.06927,-2.773687 -1.643822,-6.785064 2.67127,-6.56317 8.973183,-2.730645 18.743001,-2.45196 27.620571,0.51064 0.234377,3.701555 -0.253041,8.100116 2.460434,11.029967 4.929094,3.021067 10.288545,5.356062 15.586441,7.673158 3.640659,1.85741 6.983688,-1.124805 9.314366,-3.634258 C 94.253046,63.12684 93.496538,56.067497 91.20968,50.991269 88.737792,45.169103 83.555951,41.032451 77.796173,38.71853 67.336416,33.980619 55.708104,32.553869 44.324604,32.504931 Z" />
  <path
     inkscape:connector-curvature="0"
     style="display:inline;opacity:0.15;fill:#000000;fill-opacity:1;stroke-width:1.5"
     id="path3892"
     d="m 44.324604,34.004931 c -2.394925,0.02506 -4.550892,0.211599 -6.890625,0.515625 -4.044574,0.525573 -10.269843,2.17695 -13.96875,3.703125 -1.326636,0.547359 -3.479173,1.557147 -5.484375,2.53125 -2.005201,0.974103 -3.754869,1.814907 -4.59375,2.34375 -2.683836,1.692792 -5.7885478,5.584593 -7.2656248,8.765625 -0.7158105,1.541258 -1.157037,3.357764 -1.40625,5.15625 -0.249213,1.798487 -0.297,3.498453 0.09375,4.921875 0.4019775,1.464843 1.3674435,3.073395 2.4375,4.546875 0.5350275,0.73674 1.109811,1.423349 1.640625,1.96875 0.265407,0.272702 0.512172,0.491696 0.796875,0.703125 0.284703,0.21143 0.5408878,0.428421 1.1249998,0.515625 0.387512,0.05786 0.567075,0.02666 0.796875,0 0.2298,-0.02666 0.482475,-0.04198 0.75,-0.09375 0.535052,-0.103545 1.159862,-0.291717 1.78125,-0.46875 1.143431,-0.325602 4.676525,-1.321075 7.875,-2.203125 3.412863,-0.941157 5.148156,-1.364832 6.234375,-1.78125 0.54311,-0.208209 0.964205,-0.411687 1.359375,-0.796875 0.395171,-0.385188 0.609519,-0.874993 0.703125,-1.125 0.207797,-0.55516 0.232904,-0.989659 0.28125,-1.59375 0.04834,-0.60409 0.04306,-1.32594 0.04687,-2.109375 0.0076,-1.566868 -0.07756,-3.403852 -0.234375,-5.109375 -0.125695,-1.367581 -0.109398,-2.100363 -0.04687,-2.390625 0.06252,-0.290262 0.06959,-0.261595 0.46875,-0.609375 -0.246124,0.214445 0.199337,-0.123615 0.75,-0.328125 0.550664,-0.204508 1.301271,-0.411118 2.15625,-0.65625 1.709958,-0.490264 3.846953,-1.022937 5.71875,-1.359375 7.240454,-1.301482 14.303168,-0.939118 21.703125,1.171875 1.829738,0.522072 2.522823,0.902525 2.625,1.03125 0.10218,0.12873 0.21996,0.680552 0.1875,2.390625 -0.03183,1.676537 0.114765,3.399047 0.375,4.828125 0.260234,1.429079 0.465638,2.483703 1.359375,3.46875 0.312095,0.343979 0.37055,0.330716 0.515625,0.421875 0.14508,0.09116 0.275432,0.173033 0.46875,0.28125 0.386636,0.216435 0.903389,0.489062 1.5,0.796875 1.193223,0.615627 2.765696,1.406399 4.40625,2.203125 3.281108,1.593453 6.817065,3.212768 8.4375,3.84375 1.009059,0.392835 2.161859,0.670725 3.28125,0.234375 1.119392,-0.43635 1.993134,-1.238007 3.375,-2.53125 1.075394,-1.006417 1.700817,-1.619532 2.203125,-2.25 0.502308,-0.630468 0.804654,-1.285132 1.03125,-1.96875 1.712745,-5.167537 -0.425799,-12.192538 -4.6875,-16.875 -2.018628,-2.219367 -3.479634,-3.292885 -6.890625,-5.015625 -7.493203,-3.784326 -16.275357,-6.006864 -26.625,-6.75 -3.345088,-0.240201 -5.988819,-0.353254 -8.390625,-0.328125 z" />
  <path
     style="display:inline;opacity:0.3;fill:#000000;fill-opacity:1;stroke-width:1.5"
     id="path3886"
     inkscape:connector-curvature="0"
     d="m 14.205014,44.363295 c 1.26301,-0.796221 7.326955,-3.740701 9.842352,-4.778532 3.494244,-1.441731 9.751005,-3.098503 13.580556,-3.596136 4.576443,-0.594666 8.333826,-0.63397 14.979801,-0.156742 10.202152,0.732546 18.780234,2.896434 26.063251,6.574608 3.356627,1.695282 4.506792,2.527567 6.459279,4.674216 3.900633,4.285744 5.815644,11.047479 4.368981,15.412219 -0.410418,1.238193 -0.703131,1.610292 -2.839654,3.609779 -2.718059,2.54374 -3.269646,2.764194 -5.113181,2.046489 C 78.601859,67.00262 67.221782,61.469 66.758739,60.958653 65.994546,60.116385 65.412306,56.823128 65.471978,53.680515 65.538203,50.191683 65.286342,49.878092 61.566176,48.816632 53.969115,46.649411 46.626788,46.24611 39.170031,47.586474 c -3.868161,0.695265 -8.641762,2.058525 -9.340692,2.667492 -0.992919,0.865107 -1.115043,1.476662 -0.856944,4.284816 0.303414,3.300119 0.270752,7.242095 -0.06744,8.145626 -0.344877,0.921112 -0.428077,0.953626 -7.256022,2.836551 -3.200701,0.882663 -6.76975,1.875571 -7.93128,2.206327 -1.161487,0.330908 -2.371942,0.562751 -2.689965,0.515274 C 9.9904232,68.087705 6.7696547,63.622305 6.2009942,61.550051 5.6237567,59.447292 6.2270792,55.161186 7.4807837,52.461755 8.7863192,49.650153 12.044865,45.725757 14.205125,44.363204 Z" />
  <rect
     style="color:#000000;display:inline;overflow:visible;visibility:visible;fill:url(#linearGradient3905);fill-opacity:1;fill-rule:nonzero;stroke:none;stroke-width:2;marker:none;enable-background:accumulate"
     id="rect3897"
     transform="matrix(0,1,1,0,0,0)"
     y="104"
     x="0"
     height="16"
     width="16" />
  <text
     style="font-style:normal;font-variant:normal;font-weight:normal;font-stretch:normal;font-size:4px;line-height:125%;font-family:'Liberation Sans';-inkscape-font-specification:'Liberation Sans';text-align:start;letter-spacing:0px;word-spacing:0px;writing-mode:lr-tb;text-anchor:start;fill:#000000;fill-opacity:1;stroke:none"
     xml:space="preserve"
     id="text3907"
     y="48"
     x="104"><tspan
       id="tspan3909"
       y="48"
       x="104">Shadow opacity : 30, 15, 10, (8)</tspan></text>
  <rect
     style="color:#000000;display:inline;overflow:visible;visibility:visible;fill:url(#linearGradient3913);fill-opacity:1;fill-rule:nonzero;stroke:none;stroke-width:2;marker:none;enable-background:accumulate"
     id="rect3911"
     transform="rotate(-90)"
     y="104"
     x="-40"
     height="16"
     width="16" />
  <text
     style="font-style:normal;font-variant:normal;font-weight:normal;font-stretch:normal;font-size:4px;line-height:125%;font-family:'Liberation Sans';-inkscape-font-specification:'Liberation Sans';text-align:start;letter-spacing:0px;word-spacing:0px;writing-mode:lr-tb;text-anchor:start;fill:#000000;fill-opacity:1;stroke:none"
     xml:space="preserve"
     id="text3951"
     y="32"
     x="124"><tspan
       id="tspan3953"
       y="32"
       x="124">Bevel opacity : 30 / 10</tspan></text>
  <text
     style="font-style:normal;font-variant:normal;font-weight:normal;font-stretch:normal;font-size:4px;line-height:125%;font-family:'Liberation Sans';-inkscape-font-specification:'Liberation Sans';text-align:start;letter-spacing:0px;word-spacing:0px;writing-mode:lr-tb;text-anchor:start;fill:#000000;fill-opacity:1;stroke:none"
     xml:space="preserve"
     id="text3955"
     y="8"
     x="124"><tspan
       id="tspan3957"
       y="8"
       x="124">Bevel opacity : 75 / 15</tspan></text>
  <path
     style="display:inline;fill:url(#linearGradient3811);fill-opacity:1;stroke-width:1.5"
     id="path4609"
     inkscape:connector-curvature="0"
     d="m 14.205014,42.863295 c 1.26301,-0.796221 7.326955,-3.740701 9.842352,-4.778532 3.494244,-1.441731 9.751005,-3.098503 13.580556,-3.596136 4.576443,-0.594666 8.333826,-0.63397 14.979801,-0.156742 10.202152,0.732546 18.780234,2.896434 26.063251,6.574608 3.356627,1.695282 4.506792,2.527567 6.459279,4.674216 3.900633,4.285744 5.815644,11.047479 4.368981,15.412219 -0.410418,1.238193 -0.703131,1.610292 -2.839654,3.609779 -2.718059,2.54374 -3.269646,2.764194 -5.113181,2.046489 C 78.601859,65.50262 67.221782,59.969 66.758739,59.458653 65.994546,58.616385 65.412306,55.323128 65.471978,52.180515 65.538203,48.691683 65.286342,48.378092 61.566176,47.316632 53.969115,45.149411 46.626788,44.74611 39.170031,46.086474 c -3.868161,0.695265 -8.641762,2.058525 -9.340692,2.667492 -0.992919,0.865107 -1.115043,1.476662 -0.856944,4.284816 0.303414,3.300119 0.270752,7.242095 -0.06744,8.145626 -0.344877,0.921112 -0.428077,0.953626 -7.256022,2.836551 -3.200701,0.882663 -6.76975,1.875571 -7.93128,2.206327 -1.161487,0.330908 -2.371942,0.562751 -2.689965,0.515274 C 9.9904232,66.587705 6.7696547,62.122305 6.2009942,60.050051 5.6237567,57.947292 6.2270792,53.661186 7.4807837,50.961755 8.7863192,48.150153 12.044865,44.225757 14.205125,42.863204 Z" />
  <path
     style="display:inline;opacity:0.3;fill:#ffffff;fill-opacity:1;stroke-width:1.5"
     id="path3868"
     inkscape:connector-curvature="0"
     d="m 44.324604,34.004931 c -2.342148,0.02451 -4.414903,0.171417 -6.703125,0.46875 -3.829551,0.497633 -10.099506,2.167644 -13.59375,3.609375 -2.515396,1.037831 -8.580739,3.985029 -9.84375,4.78125 -2.160259,1.362554 -5.3975893,5.297774 -6.7031248,8.109375 -1.047231,2.25486 -1.6224945,5.603244 -1.453125,7.875 0.102645,-2.089647 0.619491,-4.58005 1.453125,-6.375 1.3055355,-2.811601 4.5428658,-6.746821 6.7031248,-8.109375 1.263011,-0.796221 7.328354,-3.743419 9.84375,-4.78125 3.494244,-1.441731 9.764199,-3.111742 13.59375,-3.609375 4.576443,-0.594666 8.354025,-0.617853 15,-0.140625 10.202153,0.732546 18.779483,2.884326 26.0625,6.5625 3.356627,1.695282 4.516263,2.540852 6.46875,4.6875 2.856978,3.13905 4.595409,7.603491 4.78125,11.484375 0.275573,-4.178068 -1.550434,-9.43458 -4.78125,-12.984375 -1.952487,-2.146648 -3.112123,-2.992218 -6.46875,-4.6875 -7.283017,-3.678174 -15.860347,-5.829954 -26.0625,-6.5625 -3.322987,-0.238614 -5.954727,-0.35263 -8.296875,-0.328125 z m -15.421875,18.1875 c -0.04153,0.569957 -0.05258,1.261643 0.04687,2.34375 0.11817,1.285277 0.216356,2.628044 0.234375,3.890625 0.03279,-1.595757 -0.06645,-3.564174 -0.234375,-5.390625 -0.03139,-0.34156 -0.02762,-0.562774 -0.04687,-0.84375 z" />
  <path
     style="display:inline;opacity:0.1;fill:#000000;fill-opacity:1;stroke-width:1.5"
     id="path3877"
     inkscape:connector-curvature="0"
     d="m 47.512104,43.801806 c -2.783568,0.0111 -5.547466,0.294239 -8.34375,0.796875 -3.868161,0.695265 -8.629195,2.062908 -9.328125,2.671875 -0.872149,0.759884 -1.076587,1.392798 -0.9375,3.421875 0.06624,-0.909126 0.327197,-1.390132 0.9375,-1.921875 0.69893,-0.608967 5.459964,-1.97661 9.328125,-2.671875 7.456757,-1.340364 14.80919,-0.948471 22.40625,1.21875 3.092795,0.882455 3.782007,1.272116 3.890625,3.375 0.06623,-3.488832 -0.170458,-3.81354 -3.890625,-4.875 -4.748163,-1.354513 -9.42322,-2.034229 -14.0625,-2.015625 z m 17.953125,7.21875 c 0.0078,0.34454 0.0083,0.735771 0,1.171875 -0.05967,3.142613 0.548307,6.423357 1.3125,7.265625 0.463043,0.510347 11.821085,6.025299 14.765625,7.171875 1.843535,0.717705 2.391317,0.528116 5.109375,-2.015625 2.136524,-1.999486 2.448957,-2.371182 2.859375,-3.609375 0.387069,-1.167831 0.489762,-2.519812 0.421875,-3.9375 -0.05713,0.866204 -0.173454,1.687986 -0.421875,2.4375 -0.410418,1.238193 -0.722851,1.609889 -2.859375,3.609375 -2.718058,2.543741 -3.26584,2.73333 -5.109375,2.015625 -2.94454,-1.146576 -14.302582,-6.661528 -14.765625,-7.171875 -0.737488,-0.812835 -1.327333,-3.897609 -1.3125,-6.9375 z m -36.28125,5.90625 c -0.02645,1.287531 -0.13023,2.362154 -0.28125,2.765625 -0.344877,0.921113 -0.43768,0.929576 -7.265625,2.8125 -3.200701,0.882663 -6.760345,1.872369 -7.921875,2.203125 -1.161487,0.330908 -2.353852,0.563102 -2.671875,0.515625 -1.037265,-0.154855 -4.2594643,-4.583995 -4.8281248,-6.65625 -0.09507,-0.346305 -0.154107,-0.770847 -0.1875,-1.21875 -0.05172,1.052982 -0.00585,2.014191 0.1875,2.71875 0.5686605,2.072255 3.7908598,6.501395 4.8281248,6.65625 0.318023,0.04748 1.510388,-0.184717 2.671875,-0.515625 1.16153,-0.330756 4.721174,-1.320462 7.921875,-2.203125 6.827945,-1.882924 6.920748,-1.891387 7.265625,-2.8125 0.206478,-0.551638 0.309498,-2.286363 0.28125,-4.265625 z" />
</svg>
