<?xml version="1.0" encoding="UTF-8" standalone="no"?>
<!-- Created with Inkscape (http://www.inkscape.org/) -->

<svg
   xmlns:dc="http://purl.org/dc/elements/1.1/"
   xmlns:cc="http://creativecommons.org/ns#"
   xmlns:rdf="http://www.w3.org/1999/02/22-rdf-syntax-ns#"
   xmlns:svg="http://www.w3.org/2000/svg"
   xmlns="http://www.w3.org/2000/svg"
   xmlns:xlink="http://www.w3.org/1999/xlink"
   xmlns:sodipodi="http://sodipodi.sourceforge.net/DTD/sodipodi-0.dtd"
   xmlns:inkscape="http://www.inkscape.org/namespaces/inkscape"
   version="1.0"
   width="96"
   height="96"
   id="svg2408"
   sodipodi:docname="gtk-no.svg"
   inkscape:version="0.92.2 2405546, 2018-03-11">
  <sodipodi:namedview
     pagecolor="#ffffff"
     bordercolor="#666666"
     borderopacity="1"
     objecttolerance="10"
     gridtolerance="10"
     guidetolerance="10"
     inkscape:pageopacity="0"
     inkscape:pageshadow="2"
     inkscape:window-width="750"
     inkscape:window-height="480"
     id="namedview4736"
     showgrid="false"
     inkscape:zoom="2.4583333"
     inkscape:cx="48"
     inkscape:cy="48"
     inkscape:window-x="52"
     inkscape:window-y="0"
     inkscape:window-maximized="0"
     inkscape:current-layer="svg2408" />
  <defs
     id="defs2410">
    <linearGradient
       id="linearGradient3637">
      <stop
         id="stop3639"
         style="stop-color:#f0f0f0;stop-opacity:1"
         offset="0" />
      <stop
         id="stop3641"
         style="stop-color:#aaaaaa;stop-opacity:1"
         offset="1" />
    </linearGradient>
    <linearGradient
       x1="45.447727"
       y1="92.539597"
       x2="45.447727"
       y2="7.0165396"
       id="ButtonShadow"
       gradientUnits="userSpaceOnUse"
       gradientTransform="scale(1.0058652,0.994169)">
      <stop
         id="stop3750"
         style="stop-color:#000000;stop-opacity:1"
         offset="0" />
      <stop
         id="stop3752"
         style="stop-color:#000000;stop-opacity:0.58823532"
         offset="1" />
    </linearGradient>
    <linearGradient
       id="linearGradient3737">
      <stop
         id="stop3739"
         style="stop-color:#ffffff;stop-opacity:1"
         offset="0" />
      <stop
         id="stop3741"
         style="stop-color:#ffffff;stop-opacity:0"
         offset="1" />
    </linearGradient>
    <linearGradient
       id="linearGradient3700">
      <stop
         id="stop3702"
         style="stop-color:#2276c5;stop-opacity:1"
         offset="0" />
      <stop
         id="stop3704"
         style="stop-color:#68baf4;stop-opacity:1"
         offset="1" />
    </linearGradient>
    <filter
       color-interpolation-filters="sRGB"
       id="filter3174">
      <feGaussianBlur
         id="feGaussianBlur3176"
         stdDeviation="1.71" />
    </filter>
    <linearGradient
       x1="36.357143"
       y1="6"
       x2="36.357143"
       y2="63.893143"
       id="linearGradient3188"
       xlink:href="#linearGradient3737"
       gradientUnits="userSpaceOnUse" />
    <filter
       x="-0.192"
       y="-0.192"
       width="1.3839999"
       height="1.3839999"
       color-interpolation-filters="sRGB"
       id="filter3794">
      <feGaussianBlur
         id="feGaussianBlur3796"
         stdDeviation="5.28" />
    </filter>
    <linearGradient
       x1="48"
       y1="20.220806"
       x2="48"
       y2="138.66119"
       id="linearGradient3613"
       xlink:href="#linearGradient3737"
       gradientUnits="userSpaceOnUse" />
    <radialGradient
       cx="48"
       cy="90.171875"
       r="42"
       fx="48"
       fy="90.171875"
       id="radialGradient3619"
       xlink:href="#linearGradient3737"
       gradientUnits="userSpaceOnUse"
       gradientTransform="matrix(1.1573129,0,0,0.99590774,-7.5510206,0.19713193)" />
    <clipPath
       id="clipPath3613">
      <rect
         width="84"
         height="84"
         rx="6"
         ry="6"
         x="6"
         y="6"
         id="rect3615"
         style="fill:#ffffff;fill-opacity:1;fill-rule:nonzero;stroke:none" />
    </clipPath>
    <linearGradient
       x1="48"
       y1="90"
       x2="48"
       y2="5.9877172"
       id="linearGradient2843"
       xlink:href="#linearGradient3700"
       gradientUnits="userSpaceOnUse"
       gradientTransform="translate(0,100)" />
    <clipPath
       id="clipPath3625">
      <path
         d="M 0,0 0,96 96,96 96,0 0,0 z m 12,6 72,0 c 3.324,0 6,2.676 6,6 l 0,72 c 0,3.324 -2.676,6 -6,6 L 12,90 C 8.676,90 6,87.324 6,84 L 6,12 C 6,8.676 8.676,6 12,6 z"
         inkscape:connector-curvature="0"
         id="path3627"
         style="fill:#ffffff;fill-opacity:1;stroke:none" />
    </clipPath>
    <linearGradient
       x1="44.512066"
       y1="6"
       x2="44.512066"
       y2="90.015434"
       id="linearGradient3643"
       xlink:href="#linearGradient3637"
       gradientUnits="userSpaceOnUse" />
    <clipPath
       id="clipPath3649">
      <rect
         width="76"
         height="76"
         rx="4"
         ry="4"
         x="10"
         y="10"
         id="rect3651"
         style="fill:#ffffff;fill-opacity:1;fill-rule:nonzero;stroke:none" />
    </clipPath>
    <filter
       color-interpolation-filters="sRGB"
       id="filter3657">
      <feGaussianBlur
         id="feGaussianBlur3659"
         stdDeviation="1.14" />
    </filter>
    <linearGradient
       x1="45.447727"
       y1="92.539597"
       x2="45.447727"
       y2="7.0165396"
       id="ButtonShadow-0"
       gradientUnits="userSpaceOnUse"
       gradientTransform="matrix(1.0058652,0,0,0.994169,100,0)">
      <stop
         id="stop3750-8"
         style="stop-color:#000000;stop-opacity:1"
         offset="0" />
      <stop
         id="stop3752-5"
         style="stop-color:#000000;stop-opacity:0.58823532"
         offset="1" />
    </linearGradient>
    <linearGradient
       x1="32.251034"
       y1="6.1317081"
       x2="32.251034"
       y2="90.238609"
       id="linearGradient3780"
       xlink:href="#ButtonShadow-0"
       gradientUnits="userSpaceOnUse"
       gradientTransform="matrix(1.0238095,0,0,-1.0119048,-1.1428571,98.071429)" />
    <linearGradient
       x1="32.251034"
       y1="6.1317081"
       x2="32.251034"
       y2="90.238609"
       id="linearGradient3772"
       xlink:href="#ButtonShadow-0"
       gradientUnits="userSpaceOnUse"
       gradientTransform="matrix(1.0238095,0,0,-1.0119048,-1.1428571,98.071429)" />
    <linearGradient
       x1="32.251034"
       y1="6.1317081"
       x2="32.251034"
       y2="90.238609"
       id="linearGradient3725"
       xlink:href="#ButtonShadow-0"
       gradientUnits="userSpaceOnUse"
       gradientTransform="matrix(1.0238095,0,0,-1.0119048,-1.1428571,98.071429)" />
    <linearGradient
       x1="32.251034"
       y1="6.1317081"
       x2="32.251034"
       y2="90.238609"
       id="linearGradient3721"
       xlink:href="#ButtonShadow-0"
       gradientUnits="userSpaceOnUse"
       gradientTransform="matrix(1,0,0,-1,0,97)" />
    <linearGradient
       x1="32.251034"
       y1="6.1317081"
       x2="32.251034"
       y2="90.238609"
       id="linearGradient3199"
       xlink:href="#ButtonShadow-0"
       gradientUnits="userSpaceOnUse"
       gradientTransform="matrix(1.0238095,0,0,-1.0119048,-1.1428571,98.071429)" />
    <linearGradient
       x1="36.357143"
       y1="6"
       x2="36.357143"
       y2="63.893143"
       id="linearGradient3188-8"
       xlink:href="#linearGradient3737-3"
       gradientUnits="userSpaceOnUse" />
    <linearGradient
       id="linearGradient3737-3">
      <stop
         id="stop3739-6"
         style="stop-color:#ffffff;stop-opacity:1"
         offset="0" />
      <stop
         id="stop3741-1"
         style="stop-color:#ffffff;stop-opacity:0"
         offset="1" />
    </linearGradient>
    <radialGradient
       cx="48"
       cy="90.171875"
       r="42"
       fx="48"
       fy="90.171875"
       id="radialGradient3619-3"
       xlink:href="#linearGradient3737-3"
       gradientUnits="userSpaceOnUse"
       gradientTransform="matrix(1.1573129,0,0,0.99590774,-7.551021,0.1971319)" />
    <linearGradient
       x1="104"
       y1="8"
       x2="120"
       y2="8"
       id="linearGradient3905"
       xlink:href="#linearGradient3637"
       gradientUnits="userSpaceOnUse"
       gradientTransform="translate(-104,104)" />
    <linearGradient
       x1="104"
       y1="8"
       x2="120"
       y2="8"
       id="linearGradient3913"
       xlink:href="#linearGradient3183-0"
       gradientUnits="userSpaceOnUse"
       gradientTransform="translate(-144,104)" />
    <linearGradient
       id="linearGradient3183-0">
      <stop
         id="stop3185-9"
         style="stop-color:#c80000;stop-opacity:1"
         offset="0" />
      <stop
         id="stop3187-6"
         style="stop-color:#f3604d;stop-opacity:1"
         offset="1" />
    </linearGradient>
    <linearGradient
       x1="13.254826"
       y1="19"
       x2="13.254826"
       y2="2.9989266"
       id="linearGradient3812"
       xlink:href="#linearGradient3183-0"
       gradientUnits="userSpaceOnUse"
       gradientTransform="matrix(3,0,0,3,-75,15)" />
    <linearGradient
       x1="13.254826"
       y1="19"
       x2="13.254826"
       y2="2.9989266"
       id="linearGradient3900"
       xlink:href="#linearGradient3183-0"
       gradientUnits="userSpaceOnUse"
       gradientTransform="matrix(4.875,0,0,4.875,-5.625,-6.125)" />
    <linearGradient
       x1="13.254826"
       y1="19"
       x2="13.254826"
       y2="2.9989266"
       id="linearGradient3944"
       xlink:href="#linearGradient3183-0"
       gradientUnits="userSpaceOnUse"
       gradientTransform="matrix(3.125,0,0,3.125,13.625,93.625)" />
  </defs>
  <metadata
     id="metadata2413">
    <rdf:RDF>
      <cc:Work
         rdf:about="">
        <dc:format>image/svg+xml</dc:format>
        <dc:type
           rdf:resource="http://purl.org/dc/dcmitype/StillImage" />
        <dc:title />
      </cc:Work>
    </rdf:RDF>
  </metadata>
  <g
     id="layer2"
     style="display:none">
    <rect
       width="86"
       height="85"
       rx="6"
       ry="6"
       x="5"
       y="7"
       clip-path="url(#clipPath3625)"
       id="rect3745"
       style="opacity:0.9;fill:url(#ButtonShadow);fill-opacity:1;fill-rule:nonzero;stroke:none;filter:url(#filter3174)" />
  </g>
  <g
     id="layer1"
     style="display:none">
    <rect
       width="84"
       height="84"
       rx="6"
       ry="6"
       x="6"
       y="6"
       id="rect2419"
       style="opacity:0.8;fill:#000000;fill-opacity:1;fill-rule:nonzero;stroke:none" />
    <path
       d="m 14,10 c -2.216,0 -4,1.784 -4,4 l 0,68 c 0,2.216 1.784,4 4,4 l 68,0 c 2.216,0 4,-1.784 4,-4 l 0,-68 c 0,-2.216 -1.784,-4 -4,-4 l -68,0 z m 0,3.0625 68,0 c 0.578769,0 0.9375,0.358731 0.9375,0.9375 l 0,68 c 0,0.578769 -0.358731,0.9375 -0.9375,0.9375 l -68,0 c -0.578769,0 -0.9375,-0.358731 -0.9375,-0.9375 l 0,-68 c 0,-0.578769 0.358731,-0.9375 0.9375,-0.9375 z"
       inkscape:connector-curvature="0"
       id="rect3726"
       style="opacity:0.07999998;fill:#000000;fill-opacity:1;fill-rule:nonzero;stroke:none" />
    <path
       d="M 12,6 C 8.676,6 6,8.676 6,12 l 0,72 c 0,3.324 2.676,6 6,6 l 72,0 c 3.324,0 6,-2.676 6,-6 L 90,12 C 90,8.676 87.324,6 84,6 L 12,6 z m 2,4 68,0 c 2.216,0 4,1.784 4,4 l 0,68 c 0,2.216 -1.784,4 -4,4 l -68,0 c -2.216,0 -4,-1.784 -4,-4 l 0,-68 c 0,-2.216 1.784,-4 4,-4 z"
       inkscape:connector-curvature="0"
       id="rect3629"
       style="fill:url(#linearGradient3643);fill-opacity:1;fill-rule:nonzero;stroke:none" />
    <path
       d="M 12,6 C 8.676,6 6,8.676 6,12 l 0,2 0,68 0,2 c 0,0.334721 0.04135,0.6507 0.09375,0.96875 0.0487,0.295596 0.09704,0.596915 0.1875,0.875 0.00988,0.03038 0.020892,0.0636 0.03125,0.09375 0.098865,0.287771 0.2348802,0.547452 0.375,0.8125 0.1445918,0.273507 0.3156161,0.535615 0.5,0.78125 0.1843839,0.245635 0.3737765,0.473472 0.59375,0.6875 0.439947,0.428056 0.94291,0.814526 1.5,1.09375 0.278545,0.139612 0.5734731,0.246947 0.875,0.34375 -0.2562018,-0.100222 -0.4867109,-0.236272 -0.71875,-0.375 -0.00741,-0.0044 -0.023866,0.0045 -0.03125,0 -0.031933,-0.0193 -0.062293,-0.04251 -0.09375,-0.0625 -0.120395,-0.0767 -0.2310226,-0.163513 -0.34375,-0.25 -0.1061728,-0.0808 -0.2132809,-0.161112 -0.3125,-0.25 C 8.4783201,88.557317 8.3087904,88.373362 8.15625,88.1875 8.0486711,88.057245 7.9378561,87.922215 7.84375,87.78125 7.818661,87.74287 7.805304,87.69538 7.78125,87.65625 7.716487,87.553218 7.6510225,87.451733 7.59375,87.34375 7.4927417,87.149044 7.3880752,86.928049 7.3125,86.71875 7.30454,86.69694 7.288911,86.6782 7.28125,86.65625 7.2494249,86.5643 7.2454455,86.469419 7.21875,86.375 7.1884177,86.268382 7.1483606,86.171969 7.125,86.0625 7.0521214,85.720988 7,85.364295 7,85 L 7,83 7,15 7,13 C 7,10.218152 9.2181517,8 12,8 l 2,0 68,0 2,0 c 2.781848,0 5,2.218152 5,5 l 0,2 0,68 0,2 c 0,0.364295 -0.05212,0.720988 -0.125,1.0625 -0.04415,0.206893 -0.08838,0.397658 -0.15625,0.59375 -0.0077,0.02195 -0.0233,0.04069 -0.03125,0.0625 -0.06274,0.173739 -0.138383,0.367449 -0.21875,0.53125 -0.04158,0.0828 -0.07904,0.169954 -0.125,0.25 -0.0546,0.09721 -0.126774,0.18835 -0.1875,0.28125 -0.09411,0.140965 -0.204921,0.275995 -0.3125,0.40625 -0.143174,0.17445 -0.303141,0.346998 -0.46875,0.5 -0.01117,0.0102 -0.01998,0.02115 -0.03125,0.03125 -0.138386,0.125556 -0.285091,0.234436 -0.4375,0.34375 -0.102571,0.07315 -0.204318,0.153364 -0.3125,0.21875 -0.0074,0.0045 -0.02384,-0.0044 -0.03125,0 -0.232039,0.138728 -0.462548,0.274778 -0.71875,0.375 0.301527,-0.0968 0.596455,-0.204138 0.875,-0.34375 0.55709,-0.279224 1.060053,-0.665694 1.5,-1.09375 0.219973,-0.214028 0.409366,-0.441865 0.59375,-0.6875 0.184384,-0.245635 0.355408,-0.507743 0.5,-0.78125 0.14012,-0.265048 0.276135,-0.524729 0.375,-0.8125 0.01041,-0.03078 0.02133,-0.06274 0.03125,-0.09375 0.09046,-0.278085 0.1388,-0.579404 0.1875,-0.875 C 89.95865,84.6507 90,84.334721 90,84 l 0,-2 0,-68 0,-2 C 90,8.676 87.324,6 84,6 L 12,6 z"
       inkscape:connector-curvature="0"
       id="rect3728"
       style="fill:url(#linearGradient3188);fill-opacity:1;fill-rule:nonzero;stroke:none" />
    <path
       d="M 12,90 C 8.676,90 6,87.324 6,84 L 6,82 6,14 6,12 c 0,-0.334721 0.04135,-0.6507 0.09375,-0.96875 0.0487,-0.295596 0.09704,-0.596915 0.1875,-0.875 C 6.29113,10.12587 6.302142,10.09265 6.3125,10.0625 6.411365,9.774729 6.5473802,9.515048 6.6875,9.25 6.8320918,8.976493 7.0031161,8.714385 7.1875,8.46875 7.3718839,8.223115 7.5612765,7.995278 7.78125,7.78125 8.221197,7.353194 8.72416,6.966724 9.28125,6.6875 9.559795,6.547888 9.8547231,6.440553 10.15625,6.34375 9.9000482,6.443972 9.6695391,6.580022 9.4375,6.71875 c -0.00741,0.0044 -0.023866,-0.0045 -0.03125,0 -0.031933,0.0193 -0.062293,0.04251 -0.09375,0.0625 -0.120395,0.0767 -0.2310226,0.163513 -0.34375,0.25 -0.1061728,0.0808 -0.2132809,0.161112 -0.3125,0.25 C 8.4783201,7.442683 8.3087904,7.626638 8.15625,7.8125 8.0486711,7.942755 7.9378561,8.077785 7.84375,8.21875 7.818661,8.25713 7.805304,8.30462 7.78125,8.34375 7.716487,8.446782 7.6510225,8.548267 7.59375,8.65625 7.4927417,8.850956 7.3880752,9.071951 7.3125,9.28125 7.30454,9.30306 7.288911,9.3218 7.28125,9.34375 7.2494249,9.4357 7.2454455,9.530581 7.21875,9.625 7.1884177,9.731618 7.1483606,9.828031 7.125,9.9375 7.0521214,10.279012 7,10.635705 7,11 l 0,2 0,68 0,2 c 0,2.781848 2.2181517,5 5,5 l 2,0 68,0 2,0 c 2.781848,0 5,-2.218152 5,-5 l 0,-2 0,-68 0,-2 C 89,10.635705 88.94788,10.279012 88.875,9.9375 88.83085,9.730607 88.78662,9.539842 88.71875,9.34375 88.71105,9.3218 88.69545,9.30306 88.6875,9.28125 88.62476,9.107511 88.549117,8.913801 88.46875,8.75 88.42717,8.6672 88.38971,8.580046 88.34375,8.5 88.28915,8.40279 88.216976,8.31165 88.15625,8.21875 88.06214,8.077785 87.951329,7.942755 87.84375,7.8125 87.700576,7.63805 87.540609,7.465502 87.375,7.3125 87.36383,7.3023 87.35502,7.29135 87.34375,7.28125 87.205364,7.155694 87.058659,7.046814 86.90625,6.9375 86.803679,6.86435 86.701932,6.784136 86.59375,6.71875 c -0.0074,-0.0045 -0.02384,0.0044 -0.03125,0 -0.232039,-0.138728 -0.462548,-0.274778 -0.71875,-0.375 0.301527,0.0968 0.596455,0.204138 0.875,0.34375 0.55709,0.279224 1.060053,0.665694 1.5,1.09375 0.219973,0.214028 0.409366,0.441865 0.59375,0.6875 0.184384,0.245635 0.355408,0.507743 0.5,0.78125 0.14012,0.265048 0.276135,0.524729 0.375,0.8125 0.01041,0.03078 0.02133,0.06274 0.03125,0.09375 0.09046,0.278085 0.1388,0.579404 0.1875,0.875 C 89.95865,11.3493 90,11.665279 90,12 l 0,2 0,68 0,2 c 0,3.324 -2.676,6 -6,6 l -72,0 z"
       inkscape:connector-curvature="0"
       id="path3615"
       style="opacity:0.6;fill:url(#radialGradient3619);fill-opacity:1;fill-rule:nonzero;stroke:none" />
    <rect
       width="84"
       height="84"
       rx="6"
       ry="6"
       x="6"
       y="106"
       id="rect2841"
       style="fill:url(#linearGradient2843);fill-opacity:1;fill-rule:nonzero;stroke:none" />
    <rect
       width="76"
       height="76"
       rx="4"
       ry="4"
       x="10"
       y="110"
       id="rect3634"
       style="fill:#ff0000;fill-opacity:1;fill-rule:nonzero;stroke:none" />
    <path
       d="m 14,9 c -2.752703,0 -5,2.247297 -5,5 l 0,68 c 0,2.752703 2.247297,5 5,5 l 68,0 c 2.752703,0 5,-2.247297 5,-5 L 87,14 C 87,11.247297 84.752703,9 82,9 L 14,9 z m 0,2 68,0 c 1.679297,0 3,1.320703 3,3 l 0,68 c 0,1.679297 -1.320703,3 -3,3 l -68,0 c -1.679297,0 -3,-1.320703 -3,-3 l 0,-68 c 0,-1.679297 1.320703,-3 3,-3 z"
       inkscape:connector-curvature="0"
       transform="translate(-110,0)"
       clip-path="url(#clipPath3649)"
       id="rect3647"
       style="font-size:medium;font-style:normal;font-variant:normal;font-weight:normal;font-stretch:normal;text-indent:0;text-align:start;text-decoration:none;line-height:normal;letter-spacing:normal;word-spacing:normal;text-transform:none;direction:ltr;block-progression:tb;writing-mode:lr-tb;text-anchor:start;color:#000000;fill:#000000;fill-opacity:1;stroke:none;stroke-width:2;marker:none;visibility:visible;display:inline;overflow:visible;filter:url(#filter3657);enable-background:accumulate;font-family:Abandoned Bitplane;-inkscape-font-specification:Abandoned Bitplane" />
    <path
       d="m 14.089286,10 c -2.216,0 -4,1.784 -4,4 l 0,68 c 0,2.216 1.784,4 4,4 l 68,0 c 2.216,0 4,-1.784 4,-4 l 0,-68 c 0,-2.216 -1.784,-4 -4,-4 l -68,0 z m 0,2 68,0 c 1.140301,0 2,0.859699 2,2 l 0,68 c 0,1.140301 -0.859699,2 -2,2 l -68,0 c -1.140301,0 -2,-0.859699 -2,-2 l 0,-68 c 0,-1.140301 0.859699,-2 2,-2 z"
       inkscape:connector-curvature="0"
       id="path3709"
       style="opacity:0.16000001;fill:#000000;fill-opacity:1;fill-rule:nonzero;stroke:none" />
    <path
       d="m 14,10 c -2.216,0 -4,1.784 -4,4 l 0,68 c 0,2.216 1.784,4 4,4 l 68,0 c 2.216,0 4,-1.784 4,-4 l 0,-68 c 0,-2.216 -1.784,-4 -4,-4 l -68,0 z m 0,1 68,0 c 1.673848,0 3,1.326152 3,3 l 0,68 c 0,1.673848 -1.326152,3 -3,3 l -68,0 c -1.673848,0 -3,-1.326152 -3,-3 l 0,-68 c 0,-1.673848 1.326152,-3 3,-3 z"
       inkscape:connector-curvature="0"
       id="path3707"
       style="opacity:0.36000001;fill:#000000;fill-opacity:1;fill-rule:nonzero;stroke:none" />
  </g>
  <g
     id="layer5"
     style="display:none">
    <rect
       width="66"
       height="66"
       rx="12"
       ry="12"
       x="15"
       y="15"
       clip-path="url(#clipPath3613)"
       id="rect3171"
       style="opacity:0.1;fill:url(#linearGradient3613);fill-opacity:1;fill-rule:nonzero;stroke:#ffffff;stroke-width:0.5;stroke-linecap:round;stroke-linejoin:miter;stroke-miterlimit:4;stroke-opacity:1;stroke-dasharray:none;stroke-dashoffset:0;filter:url(#filter3794)" />
  </g>
  <path
     inkscape:connector-curvature="0"
     style="display:inline;opacity:0.1;fill:#000000;fill-opacity:1;stroke:none;stroke-width:1.5"
     id="path3974"
     d="M 48,6.8125 C 24.745195,6.8125 5.8125,25.745197 5.8125,49 5.8125,72.254803 24.745195,91.1875 48,91.1875 71.254801,91.1875 90.187504,72.254818 90.1875,49 90.1875,25.745195 71.254804,6.8125 48,6.8125 Z M 34.875,29.125 45.75,40 c 0.03737,0.03442 0.188316,0.235058 0.1875,0.234375 -9.08e-4,-7.57e-4 0.282228,0.188164 0.28125,0.1875 -9.78e-4,-6.65e-4 0.282289,0.141195 0.28125,0.140625 -10e-4,-5.64e-4 0.28234,0.141075 0.28125,0.140625 -0.0011,-4.57e-4 0.282379,0.0941 0.28125,0.09375 -0.0011,-3.48e-4 0.329284,0.09399 0.328125,0.09375 -0.0012,-2.34e-4 0.282426,0.047 0.28125,0.04687 -0.0012,-1.17e-4 0.329307,0 0.328125,0 -0.0012,0 0.329301,-1.17e-4 0.328125,0 -0.0012,1.17e-4 0.282409,-0.04711 0.28125,-0.04687 -0.0012,2.34e-4 0.329254,-0.0941 0.328125,-0.09375 -0.0011,3.48e-4 0.28234,-0.0942 0.28125,-0.09375 -0.0011,4.57e-4 0.282289,-0.141195 0.28125,-0.140625 -10e-4,5.64e-4 0.282228,-0.141285 0.28125,-0.140625 -9.78e-4,6.64e-4 0.282157,-0.188257 0.28125,-0.1875 C 50.061684,40.235058 50.212638,40.03443 50.25,40 h 0.04687 L 61.078125,29.125 67.875,35.875 57,46.703125 c 8.4e-5,-8.3e-5 0.0037,0.04272 0,0.04687 -0.03442,0.03737 -0.235058,0.188316 -0.234375,0.1875 7.57e-4,-9.07e-4 -0.188165,0.282228 -0.1875,0.28125 6.64e-4,-9.78e-4 -0.141195,0.282289 -0.140625,0.28125 5.64e-4,-10e-4 -0.141075,0.282341 -0.140625,0.28125 4.57e-4,-0.0011 -0.0941,0.28238 -0.09375,0.28125 3.48e-4,-0.0011 -0.09399,0.329284 -0.09375,0.328125 2.34e-4,-0.0012 -0.047,0.282426 -0.04687,0.28125 1.17e-4,-0.0012 0,0.329307 0,0.328125 0,-0.0012 1.17e-4,0.329301 0,0.328125 -1.17e-4,-0.0012 0.04711,0.282409 0.04687,0.28125 -2.34e-4,-0.0012 0.0941,0.329255 0.09375,0.328125 -3.48e-4,-0.0011 0.0942,0.282341 0.09375,0.28125 -4.58e-4,-0.0011 0.141195,0.282289 0.140625,0.28125 -5.64e-4,-10e-4 0.141285,0.282228 0.140625,0.28125 -6.65e-4,-9.78e-4 0.188257,0.282157 0.1875,0.28125 -6.83e-4,-8.16e-4 0.199945,0.150138 0.234375,0.1875 0.0037,0.0042 8.4e-5,0.04697 0,0.04687 L 67.875,62.125 61.078125,68.875 50.296875,58 c 8.2e-5,8.4e-5 -0.04272,0.0037 -0.04687,0 -0.03737,-0.03442 -0.188316,-0.235058 -0.1875,-0.234375 9.07e-4,7.57e-4 -0.282228,-0.188165 -0.28125,-0.1875 9.78e-4,6.64e-4 -0.28229,-0.141195 -0.28125,-0.140625 10e-4,5.64e-4 -0.282341,-0.141075 -0.28125,-0.140625 0.0011,4.57e-4 -0.28238,-0.0941 -0.28125,-0.09375 0.0011,3.48e-4 -0.329285,-0.09399 -0.328125,-0.09375 0.0012,2.34e-4 -0.282426,-0.047 -0.28125,-0.04687 0.0012,1.17e-4 -0.329307,0 -0.328125,0 0.0012,0 -0.329301,1.17e-4 -0.328125,0 0.0012,-1.17e-4 -0.28241,0.04711 -0.28125,0.04687 0.0012,-2.34e-4 -0.329255,0.0941 -0.328125,0.09375 0.0011,-3.48e-4 -0.282341,0.0942 -0.28125,0.09375 0.0011,-4.57e-4 -0.28229,0.141195 -0.28125,0.140625 10e-4,-5.64e-4 -0.282228,0.141285 -0.28125,0.140625 9.78e-4,-6.65e-4 -0.282158,0.188257 -0.28125,0.1875 C 45.938316,57.764942 45.787362,57.96557 45.75,58 c -0.0042,0.0037 -0.04697,8.4e-5 -0.04687,0 L 34.875,68.875 28.125,62.125 38.953125,51.296875 V 51.25 c 0.03442,-0.03737 0.235057,-0.188316 0.234375,-0.1875 -7.58e-4,9.07e-4 0.188164,-0.282228 0.1875,-0.28125 -6.65e-4,9.78e-4 0.141195,-0.282289 0.140625,-0.28125 -5.64e-4,10e-4 0.141075,-0.282341 0.140625,-0.28125 -4.58e-4,0.0011 0.0941,-0.28238 0.09375,-0.28125 -3.48e-4,0.0011 0.09399,-0.329285 0.09375,-0.328125 -2.34e-4,0.0012 0.047,-0.282426 0.04687,-0.28125 -1.17e-4,0.0012 0,-0.329307 0,-0.328125 0,0.0012 -1.17e-4,-0.329301 0,-0.328125 1.17e-4,0.0012 -0.04711,-0.28241 -0.04687,-0.28125 2.34e-4,0.0012 -0.0941,-0.329255 -0.09375,-0.328125 3.48e-4,0.0011 -0.0942,-0.282341 -0.09375,-0.28125 4.57e-4,0.0011 -0.141195,-0.282289 -0.140625,-0.28125 5.64e-4,10e-4 -0.141285,-0.282228 -0.140625,-0.28125 6.64e-4,9.78e-4 -0.188258,-0.282157 -0.1875,-0.28125 6.82e-4,8.16e-4 -0.199946,-0.150138 -0.234375,-0.1875 L 28.125,35.875 Z" />
  <path
     inkscape:connector-curvature="0"
     style="display:inline;opacity:0.15;fill:#000000;fill-opacity:1;stroke:none;stroke-width:1.5"
     id="path3970"
     d="M 48,8.40625 C 25.619476,8.40625 7.40625,26.619478 7.40625,49 7.40625,71.380522 25.619476,89.59375 48,89.59375 70.38052,89.59375 88.593754,71.380537 88.59375,49 88.59375,26.619478 70.380522,8.40625 48,8.40625 Z M 34.875,26.875 l 12,12 a 1.5758,1.5757999 0 0 0 2.25,0 l 11.953125,-12 9.046875,9 -12,12 a 1.5758,1.5757999 0 0 0 0,2.25 l 12,12 -9.046875,9 -11.953125,-12 a 1.5758,1.5757999 0 0 0 -2.25,0 l -12,12 -9,-9 11.953125,-12 a 1.5758,1.5757999 0 0 0 0,-2.25 L 25.875,35.875 Z" />
  <path
     style="display:inline;opacity:0.3;fill:#000000;fill-opacity:1;stroke:none;stroke-width:1.5"
     id="path3964"
     inkscape:connector-curvature="0"
     d="M 48,10 C 26.471998,10 9,27.472 9,49 9,70.528 26.471998,88 48,88 69.528,88 87.000004,70.528015 87,49 87,27.472 69.528,10 48,10 Z M 34.898436,24.625 48,37.726567 61.101561,24.625 72.375,35.898433 59.273436,49 72.375,62.101567 61.101561,73.375 48,60.273433 34.898436,73.375 23.625,62.101567 36.726561,49 23.625,35.898433 Z" />
  <path
     inkscape:connector-curvature="0"
     style="display:inline;opacity:0.1;fill:#000000;fill-opacity:1;stroke:none"
     id="path3896"
     d="m -42,22.75 c -14.479101,0 -26.25,11.770897 -26.25,26.25 0,14.479103 11.770899,26.25 26.25,26.25 14.4791,0 26.250003,-11.770893 26.25,-26.25 0,-14.479103 -11.7709,-26.25 -26.25,-26.25 z m -8.0625,14.4375 6.46875,6.46875 c -0.0029,-0.0028 0.159406,0.158782 0.15625,0.15625 -0.0032,-0.0025 0.190886,0.127216 0.1875,0.125 -0.0034,-0.0022 0.191083,0.126879 0.1875,0.125 -0.0036,-0.0019 0.222498,0.09528 0.21875,0.09375 -0.0037,-0.0015 0.191378,0.06366 0.1875,0.0625 -0.0039,-0.0012 0.222721,0.06328 0.21875,0.0625 -0.004,-7.77e-4 0.222777,0.03164 0.21875,0.03125 -0.004,-3.9e-4 0.222796,0 0.21875,0 -0.004,0 0.222777,-3.9e-4 0.21875,0 -0.004,3.9e-4 0.222721,-0.03203 0.21875,-0.03125 -0.004,7.77e-4 0.222628,-0.06366 0.21875,-0.0625 -0.0039,0.0012 0.191248,-0.06403 0.1875,-0.0625 -0.0037,0.0015 0.222333,-0.09563 0.21875,-0.09375 -0.0036,0.0019 0.190886,-0.127216 0.1875,-0.125 -0.0034,0.0022 0.190656,-0.127532 0.1875,-0.125 -0.0032,0.0025 0.159147,-0.159075 0.15625,-0.15625 l 6.46875,-6.46875 3.75,3.75 -6.46875,6.46875 c 0.0028,-0.0029 -0.158782,0.159406 -0.15625,0.15625 0.0025,-0.0032 -0.127216,0.190886 -0.125,0.1875 0.0022,-0.0034 -0.126879,0.191083 -0.125,0.1875 0.0019,-0.0036 -0.09528,0.222498 -0.09375,0.21875 0.0015,-0.0037 -0.06366,0.191378 -0.0625,0.1875 0.0012,-0.0039 -0.06328,0.222721 -0.0625,0.21875 7.77e-4,-0.004 -0.03164,0.222777 -0.03125,0.21875 3.9e-4,-0.004 0,0.222796 0,0.21875 0,-0.004 3.9e-4,0.222777 0,0.21875 -3.9e-4,-0.004 0.03203,0.222721 0.03125,0.21875 -7.77e-4,-0.004 0.06366,0.222628 0.0625,0.21875 -0.0012,-0.0039 0.06403,0.191248 0.0625,0.1875 -0.0015,-0.0037 0.09563,0.222333 0.09375,0.21875 -0.0019,-0.0036 0.127216,0.190886 0.125,0.1875 -0.0022,-0.0034 0.127532,0.190656 0.125,0.1875 -0.0025,-0.0032 0.159075,0.159147 0.15625,0.15625 l 6.46875,6.46875 -3.75,3.75 -6.46875,-6.46875 c 0.0029,0.0028 -0.159406,-0.158782 -0.15625,-0.15625 0.0032,0.0025 -0.190886,-0.127216 -0.1875,-0.125 0.0034,0.0022 -0.191083,-0.126879 -0.1875,-0.125 0.0036,0.0019 -0.222498,-0.09528 -0.21875,-0.09375 0.0037,0.0015 -0.191378,-0.06366 -0.1875,-0.0625 0.0039,0.0012 -0.222721,-0.06328 -0.21875,-0.0625 0.004,7.77e-4 -0.222777,-0.03164 -0.21875,-0.03125 0.004,3.9e-4 -0.222796,0 -0.21875,0 0.004,0 -0.222777,3.9e-4 -0.21875,0 0.004,-3.9e-4 -0.222721,0.03203 -0.21875,0.03125 0.004,-7.77e-4 -0.222628,0.06366 -0.21875,0.0625 0.0039,-0.0012 -0.191248,0.06403 -0.1875,0.0625 0.0037,-0.0015 -0.222333,0.09563 -0.21875,0.09375 0.0036,-0.0019 -0.190886,0.127216 -0.1875,0.125 0.0034,-0.0022 -0.190656,0.127532 -0.1875,0.125 0.0032,-0.0025 -0.159147,0.159075 -0.15625,0.15625 l -6.46875,6.46875 -3.75,-3.75 6.46875,-6.46875 c -0.0028,0.0029 0.158782,-0.159406 0.15625,-0.15625 -0.0025,0.0032 0.127216,-0.190886 0.125,-0.1875 -0.0022,0.0034 0.126879,-0.191083 0.125,-0.1875 -0.0019,0.0036 0.09528,-0.222498 0.09375,-0.21875 -0.0015,0.0037 0.06366,-0.191378 0.0625,-0.1875 -0.0012,0.0039 0.06328,-0.222721 0.0625,-0.21875 -7.77e-4,0.004 0.03164,-0.222777 0.03125,-0.21875 -3.9e-4,0.004 0,-0.222796 0,-0.21875 0,0.004 -3.9e-4,-0.222777 0,-0.21875 3.9e-4,0.004 -0.03203,-0.222721 -0.03125,-0.21875 7.77e-4,0.004 -0.06366,-0.222628 -0.0625,-0.21875 0.0012,0.0039 -0.06403,-0.191248 -0.0625,-0.1875 0.0015,0.0037 -0.09563,-0.222333 -0.09375,-0.21875 0.0019,0.0036 -0.127216,-0.190886 -0.125,-0.1875 0.0022,0.0034 -0.127532,-0.190656 -0.125,-0.1875 0.0025,0.0032 -0.159075,-0.159147 -0.15625,-0.15625 L -53.8125,40.9375 Z" />
  <path
     inkscape:connector-curvature="0"
     style="display:inline;opacity:0.15;fill:#000000;fill-opacity:1;stroke:none"
     id="path3892"
     d="m -42,23.9375 c -13.829248,0 -25.0625,11.23325 -25.0625,25.0625 0,13.82925 11.233252,25.0625 25.0625,25.0625 13.829247,0 25.062503,-11.233246 25.0625,-25.0625 0,-13.82925 -11.233253,-25.0625 -25.0625,-25.0625 z M -50.0625,35.5 -42.75,42.8125 a 1.0743774,1.0743774 0 0 0 1.5,0 L -33.9375,35.5 -28.5,40.9375 -35.8125,48.25 a 1.0743774,1.0743774 0 0 0 0,1.5 L -28.5,57.0625 -33.9375,62.5 -41.25,55.1875 a 1.0743774,1.0743774 0 0 0 -1.5,0 L -50.0625,62.5 -55.5,57.0625 -48.1875,49.75 a 1.0743774,1.0743774 0 0 0 0,-1.5 L -55.5,40.9375 Z" />
  <path
     style="display:inline;opacity:0.3;fill:#000000;fill-opacity:1;stroke:none"
     id="path3886"
     inkscape:connector-curvature="0"
     d="m -42,25 c -13.248001,0 -24,10.751997 -24,24 0,13.248003 10.751999,24 24,24 13.248,0 24.000003,-10.751994 24,-24 0,-13.248003 -10.752,-24 -24,-24 z M -50.0625,34 -42,42.0625 -33.9375,34 -27,40.9375 -35.0625,49 -27,57.0625 -33.9375,64 -42,55.9375 -50.0625,64 -57,57.0625 -48.9375,49 -57,40.9375 Z" />
  <rect
     style="color:#000000;display:inline;overflow:visible;visibility:visible;fill:url(#linearGradient3905);fill-opacity:1;fill-rule:nonzero;stroke:none;stroke-width:2;marker:none;enable-background:accumulate"
     id="rect3897"
     transform="matrix(0,1,1,0,0,0)"
     y="104"
     x="0"
     height="16"
     width="16" />
  <text
     style="font-style:normal;font-variant:normal;font-weight:normal;font-stretch:normal;font-size:4px;line-height:125%;font-family:'Liberation Sans';-inkscape-font-specification:'Liberation Sans';text-align:start;letter-spacing:0px;word-spacing:0px;writing-mode:lr-tb;text-anchor:start;fill:#000000;fill-opacity:1;stroke:none"
     xml:space="preserve"
     id="text3907"
     y="48"
     x="104"><tspan
       id="tspan3909"
       y="48"
       x="104">Shadow opacity : 30, 15, 10, (8)</tspan></text>
  <rect
     style="color:#000000;display:inline;overflow:visible;visibility:visible;fill:url(#linearGradient3913);fill-opacity:1;fill-rule:nonzero;stroke:none;stroke-width:2;marker:none;enable-background:accumulate"
     id="rect3911"
     transform="rotate(-90)"
     y="104"
     x="-40"
     height="16"
     width="16" />
  <text
     style="font-style:normal;font-variant:normal;font-weight:normal;font-stretch:normal;font-size:4px;line-height:125%;font-family:'Liberation Sans';-inkscape-font-specification:'Liberation Sans';text-align:start;letter-spacing:0px;word-spacing:0px;writing-mode:lr-tb;text-anchor:start;fill:#000000;fill-opacity:1;stroke:none"
     xml:space="preserve"
     id="text3951"
     y="32"
     x="124"><tspan
       id="tspan3953"
       y="32"
       x="124">Bevel opacity : 30 / 10</tspan></text>
  <text
     style="font-style:normal;font-variant:normal;font-weight:normal;font-stretch:normal;font-size:4px;line-height:125%;font-family:'Liberation Sans';-inkscape-font-specification:'Liberation Sans';text-align:start;letter-spacing:0px;word-spacing:0px;writing-mode:lr-tb;text-anchor:start;fill:#000000;fill-opacity:1;stroke:none"
     xml:space="preserve"
     id="text3955"
     y="8"
     x="124"><tspan
       id="tspan3957"
       y="8"
       x="124">Bevel opacity : 75 / 15</tspan></text>
  <path
     style="display:inline;fill:url(#linearGradient3812);fill-opacity:1;stroke:none"
     id="Symbol"
     inkscape:connector-curvature="0"
     d="m -42,24 c -13.248001,0 -24,10.751997 -24,24 0,13.248003 10.751999,24 24,24 13.248,0 24.000003,-10.751994 24,-24 0,-13.248003 -10.752,-24 -24,-24 z M -50.0625,33 -42,41.0625 -33.9375,33 -27,39.9375 -35.0625,48 -27,56.0625 -33.9375,63 -42,54.9375 -50.0625,63 -57,56.0625 -48.9375,48 -57,39.9375 Z" />
  <path
     style="display:inline;opacity:0.3;fill:#ffffff;fill-opacity:1;stroke:none"
     id="path3868"
     inkscape:connector-curvature="0"
     d="m -42,24 c -13.248001,0 -24,10.751997 -24,24 0,0.165497 -0.0033,0.335299 0,0.5 0.264004,-13.019652 10.917496,-23.5 24,-23.5 13.082503,0 23.735996,10.480348 24,23.5 0.0033,-0.164702 0,-0.334503 0,-0.5 0,-13.248003 -10.752,-24 -24,-24 z m -14.5,16.4375 -0.5,0.5 7.5625,7.5625 0.5,-0.5 z m 29,0 -7.5625,7.5625 0.5,0.5 L -27,40.9375 Z M -42,54.9375 -50.0625,63 -56.5,56.5625 -57,57.0625 -50.0625,64 -42,55.9375 -33.9375,64 -27,57.0625 -27.5,56.5625 -33.9375,63 Z" />
  <path
     style="display:inline;opacity:0.1;fill:#000000;fill-opacity:1;stroke:none"
     id="path3877"
     inkscape:connector-curvature="0"
     d="M -50.0625,32 -57,38.9375 l 0.5,0.5 L -50.0625,33 -42,41.0625 -33.9375,33 -27.5,39.4375 -27,38.9375 -33.9375,32 -42,40.0625 Z M -66,47.5 c -0.0033,0.164701 0,0.334503 0,0.5 0,13.248003 10.751999,24 24,24 13.248,0 24.000003,-10.751994 24,-24 0,-0.165497 0.0033,-0.335299 0,-0.5 C -18.264001,60.519655 -28.917497,71 -42,71 -55.082504,71 -65.735996,60.519652 -66,47.5 Z m 16.5625,0 -7.5625,7.5625 0.5,0.5 L -48.9375,48 Z m 14.875,0 -0.5,0.5 7.5625,7.5625 0.5,-0.5 z" />
  <path
     style="display:inline;fill:url(#linearGradient3900);fill-opacity:1;stroke:none;stroke-width:1.5"
     id="path3898"
     inkscape:connector-curvature="0"
     d="m 48,8.5 c -21.528002,0 -39,17.472 -39,39 0,21.528 17.471998,39 39,39 21.528,0 39.000004,-17.471985 39,-39 C 87,25.972 69.528,8.5 48,8.5 Z M 34.898436,23.125 48,36.226567 61.101561,23.125 72.375,34.398433 59.273436,47.5 72.375,60.601567 61.101561,71.875 48,58.773433 34.898436,71.875 23.625,60.601567 36.726561,47.5 23.625,34.398433 Z" />
  <path
     inkscape:connector-curvature="0"
     style="display:inline;opacity:0.1;fill:#000000;fill-opacity:1;stroke:none"
     id="path3932"
     d="m 48,102 c -14.871887,0 -27,12.12811 -27,27 0,14.87189 12.128113,27 27,27 14.871885,0 27.000003,-12.12811 27,-27 0,-14.87189 -12.128114,-27 -27,-27 z m -8.40625,14.1875 7,7 c 0.0014,0.001 0.06101,0.0611 0.0625,0.0625 0.0015,0.001 0.06094,0.0612 0.0625,0.0625 0.0016,0.001 0.09213,0.0613 0.09375,0.0625 0.0016,0.001 0.06082,0.0614 0.0625,0.0625 0.0017,0.001 0.09202,0.0614 0.09375,0.0625 0.0017,0.001 0.09197,0.0303 0.09375,0.0312 0.0018,9.7e-4 0.09192,0.0616 0.09375,0.0625 0.0018,8.8e-4 0.06063,0.0305 0.0625,0.0312 0.0019,7.9e-4 0.09184,0.0306 0.09375,0.0312 0.0019,6.9e-4 0.09181,0.0306 0.09375,0.0312 0.0019,6e-4 0.09178,0.0307 0.09375,0.0312 0.002,5e-4 0.09176,0.0309 0.09375,0.0312 0.002,4e-4 0.122994,-3e-4 0.125,0 0.002,3e-4 0.09173,-2e-4 0.09375,0 0.002,2e-4 0.09172,0.0311 0.09375,0.0312 0.002,1e-4 0.09172,0 0.09375,0 0.002,0 0.09172,1e-4 0.09375,0 0.002,-1e-4 0.09173,-0.031 0.09375,-0.0312 0.002,-2e-4 0.09174,3e-4 0.09375,0 0.002,-3e-4 0.123011,4e-4 0.125,0 0.002,-4e-4 0.09178,-0.0307 0.09375,-0.0312 0.002,-5e-4 0.09181,-0.0306 0.09375,-0.0312 0.0019,-6e-4 0.09184,-0.0306 0.09375,-0.0312 0.0019,-6.9e-4 0.09188,-0.0305 0.09375,-0.0312 0.0019,-7.9e-4 0.06067,-0.0304 0.0625,-0.0312 0.0018,-8.8e-4 0.09197,-0.0615 0.09375,-0.0625 0.0018,-9.7e-4 0.09202,-0.0302 0.09375,-0.0312 0.0017,-0.001 0.09207,-0.0614 0.09375,-0.0625 0.0017,-0.001 0.06088,-0.0613 0.0625,-0.0625 0.0016,-0.001 0.09219,-0.0612 0.09375,-0.0625 0.0016,-0.001 0.06101,-0.0611 0.0625,-0.0625 0.0015,-0.001 0.06108,-0.061 0.0625,-0.0625 l 7,-7 4.40625,4.40625 -7,7 c -0.0014,0.001 -0.06112,0.061 -0.0625,0.0625 -0.0014,0.001 -0.0612,0.0609 -0.0625,0.0625 -0.0013,0.002 -0.06128,0.0921 -0.0625,0.0937 -0.0012,0.002 -0.06136,0.0608 -0.0625,0.0625 -0.0011,0.002 -0.06145,0.092 -0.0625,0.0937 -0.0011,0.002 -0.03028,0.092 -0.03125,0.0937 -9.67e-4,0.002 -0.06162,0.0919 -0.0625,0.0937 -8.77e-4,0.002 -0.03046,0.0606 -0.03125,0.0625 -7.85e-4,0.002 -0.03056,0.0918 -0.03125,0.0937 -6.92e-4,0.002 -0.03065,0.0918 -0.03125,0.0937 -5.96e-4,0.002 -0.03075,0.0918 -0.03125,0.0937 -4.99e-4,0.002 -0.03085,0.0918 -0.03125,0.0937 -4.01e-4,0.002 3.01e-4,0.12299 0,0.125 -3.01e-4,0.002 2.01e-4,0.0917 0,0.0937 -2.01e-4,0.002 -0.03115,0.0917 -0.03125,0.0937 -1.01e-4,0.002 0,0.0917 0,0.0937 0,0.002 -1.01e-4,0.0917 0,0.0937 1.01e-4,0.002 0.03105,0.0917 0.03125,0.0937 2.01e-4,0.002 -3.01e-4,0.0917 0,0.0937 3.01e-4,0.002 -4.01e-4,0.12301 0,0.125 4.01e-4,0.002 0.03075,0.0918 0.03125,0.0937 4.99e-4,0.002 0.03065,0.0918 0.03125,0.0937 5.96e-4,0.002 0.03056,0.0918 0.03125,0.0937 6.92e-4,0.002 0.03046,0.0919 0.03125,0.0937 7.85e-4,0.002 0.03037,0.0607 0.03125,0.0625 8.77e-4,0.002 0.06153,0.092 0.0625,0.0937 9.67e-4,0.002 0.0302,0.092 0.03125,0.0937 0.0011,0.002 0.06136,0.0921 0.0625,0.0937 0.0011,0.002 0.06128,0.0609 0.0625,0.0625 0.0012,0.002 0.0612,0.0922 0.0625,0.0937 0.0013,0.002 0.06112,0.061 0.0625,0.0625 0.0014,0.001 0.06105,0.0611 0.0625,0.0625 l 7,7 -4.40625,4.40625 -7,-7 c -0.0014,-0.001 -0.06101,-0.0611 -0.0625,-0.0625 -0.0015,-0.001 -0.06094,-0.0612 -0.0625,-0.0625 -0.0016,-0.001 -0.09213,-0.0613 -0.09375,-0.0625 -0.0016,-0.001 -0.06082,-0.0614 -0.0625,-0.0625 -0.0017,-0.001 -0.09202,-0.0615 -0.09375,-0.0625 -0.0017,-0.001 -0.09197,-0.0303 -0.09375,-0.0312 -0.0018,-9.7e-4 -0.09192,-0.0616 -0.09375,-0.0625 -0.0018,-8.8e-4 -0.06063,-0.0305 -0.0625,-0.0312 -0.0019,-7.9e-4 -0.09184,-0.0306 -0.09375,-0.0312 -0.0019,-6.9e-4 -0.09181,-0.0307 -0.09375,-0.0312 -0.0019,-6e-4 -0.09178,-0.0308 -0.09375,-0.0312 -0.002,-5e-4 -0.09176,-0.0308 -0.09375,-0.0312 -0.002,-4e-4 -0.122994,3e-4 -0.125,0 -0.002,-3e-4 -0.09173,2e-4 -0.09375,0 -0.002,-2e-4 -0.09172,-0.0311 -0.09375,-0.0312 -0.002,-1e-4 -0.09172,0 -0.09375,0 -0.002,0 -0.09172,-1e-4 -0.09375,0 -0.002,1e-4 -0.09173,0.031 -0.09375,0.0312 -0.002,2e-4 -0.09174,-3e-4 -0.09375,0 -0.002,3e-4 -0.123011,-4e-4 -0.125,0 -0.002,4e-4 -0.09178,0.0308 -0.09375,0.0312 -0.002,5e-4 -0.09181,0.0307 -0.09375,0.0312 -0.0019,6e-4 -0.09184,0.0306 -0.09375,0.0312 -0.0019,6.9e-4 -0.09188,0.0305 -0.09375,0.0312 -0.0019,7.8e-4 -0.06067,0.0304 -0.0625,0.0312 -0.0018,8.8e-4 -0.09197,0.0615 -0.09375,0.0625 -0.0018,9.7e-4 -0.09202,0.0302 -0.09375,0.0312 -0.0017,0.001 -0.09207,0.0614 -0.09375,0.0625 -0.0017,0.001 -0.06088,0.0613 -0.0625,0.0625 -0.0016,0.001 -0.09219,0.0612 -0.09375,0.0625 -0.0016,0.001 -0.06101,0.0611 -0.0625,0.0625 -0.0015,0.001 -0.06108,0.061 -0.0625,0.0625 l -7,7 -4.40625,-4.40625 7,-7 c 0.0014,-0.001 0.06112,-0.061 0.0625,-0.0625 0.0014,-0.001 0.0612,-0.0609 0.0625,-0.0625 0.0013,-0.002 0.06128,-0.0921 0.0625,-0.0937 0.0012,-0.002 0.06136,-0.0608 0.0625,-0.0625 0.0011,-0.002 0.06145,-0.092 0.0625,-0.0937 0.0011,-0.002 0.03028,-0.092 0.03125,-0.0937 9.67e-4,-0.002 0.06162,-0.0919 0.0625,-0.0937 8.77e-4,-0.002 0.03046,-0.0606 0.03125,-0.0625 7.85e-4,-0.002 0.03056,-0.0918 0.03125,-0.0937 6.92e-4,-0.002 0.03065,-0.0918 0.03125,-0.0937 5.96e-4,-0.002 0.03075,-0.0918 0.03125,-0.0937 4.99e-4,-0.002 0.03085,-0.0918 0.03125,-0.0937 4.01e-4,-0.002 -3.01e-4,-0.12299 0,-0.125 3.01e-4,-0.002 -2.01e-4,-0.0917 0,-0.0937 2.01e-4,-0.002 0.03115,-0.0917 0.03125,-0.0937 1.01e-4,-0.002 0,-0.0917 0,-0.0937 0,-0.002 1.01e-4,-0.0917 0,-0.0937 -1.01e-4,-0.002 -0.03105,-0.0917 -0.03125,-0.0937 -2.01e-4,-0.002 3.01e-4,-0.0917 0,-0.0937 -3.01e-4,-0.002 4.01e-4,-0.12301 0,-0.125 -4.01e-4,-0.002 -0.03075,-0.0918 -0.03125,-0.0937 -4.99e-4,-0.002 -0.03065,-0.0918 -0.03125,-0.0937 -5.96e-4,-0.002 -0.03056,-0.0918 -0.03125,-0.0937 -6.92e-4,-0.002 -0.03046,-0.0919 -0.03125,-0.0937 -7.85e-4,-0.002 -0.03037,-0.0607 -0.03125,-0.0625 -8.77e-4,-0.002 -0.06153,-0.092 -0.0625,-0.0937 -9.67e-4,-0.002 -0.0302,-0.092 -0.03125,-0.0937 -0.0011,-0.002 -0.06136,-0.0921 -0.0625,-0.0937 -0.0011,-0.002 -0.06128,-0.0609 -0.0625,-0.0625 -0.0012,-0.002 -0.0612,-0.0922 -0.0625,-0.0937 -0.0013,-0.002 -0.06112,-0.061 -0.0625,-0.0625 -0.0014,-0.001 -0.06105,-0.0611 -0.0625,-0.0625 l -7,-7 z" />
  <path
     inkscape:connector-curvature="0"
     style="display:inline;opacity:0.15;fill:#000000;fill-opacity:1;stroke:none"
     id="path3934"
     d="m 48,102.9375 c -14.368338,0 -26.0625,11.69416 -26.0625,26.0625 0,14.36834 11.694162,26.0625 26.0625,26.0625 14.368336,0 26.062503,-11.69416 26.0625,-26.0625 0,-14.36834 -11.694163,-26.0625 -26.0625,-26.0625 z m -8.40625,11.9375 7.65625,7.65625 a 1.0505132,1.0505132 0 0 0 1.5,0 l 7.65625,-7.65625 5.71875,5.71875 -7.65625,7.65625 a 1.0505132,1.0505132 0 0 0 0,1.5 L 62.125,137.40625 56.40625,143.125 48.75,135.46875 a 1.0505132,1.0505132 0 0 0 -1.5,0 L 39.59375,143.125 33.875,137.40625 41.53125,129.75 a 1.0505132,1.0505132 0 0 0 0,-1.5 L 33.875,120.59375 Z" />
  <path
     style="display:inline;opacity:0.3;fill:#000000;fill-opacity:1;stroke:none"
     id="path3936"
     inkscape:connector-curvature="0"
     d="m 48,104 c -13.800001,0 -25,11.2 -25,25 0,13.8 11.199999,25 25,25 13.8,0 25.000003,-11.19999 25,-25 0,-13.8 -11.2,-25 -25,-25 z M 39.601562,113.375 48,121.77344 56.398437,113.375 63.625,120.60156 55.226562,129 63.625,137.39844 56.398437,144.625 48,136.22656 39.601562,144.625 32.375,137.39844 40.773437,129 32.375,120.60156 Z" />
  <path
     style="display:inline;fill:url(#linearGradient3944);fill-opacity:1;stroke:none"
     id="path3938"
     inkscape:connector-curvature="0"
     d="m 48,103 c -13.800001,0 -25,11.2 -25,25 0,13.8 11.199999,25 25,25 13.8,0 25.000003,-11.19999 25,-25 0,-13.8 -11.2,-25 -25,-25 z M 39.601562,112.375 48,120.77344 56.398437,112.375 63.625,119.60156 55.226562,128 63.625,136.39844 56.398437,143.625 48,135.22656 39.601562,143.625 32.375,136.39844 40.773437,128 32.375,119.60156 Z" />
  <path
     style="display:inline;opacity:0.3;fill:#ffffff;fill-opacity:1;stroke:none"
     id="path3940"
     inkscape:connector-curvature="0"
     d="m 48,103 c -13.800001,0 -25,11.2 -25,25 0,0.16819 -0.0033,0.33259 0,0.5 0.268419,-13.56794 11.368192,-24.5 25,-24.5 13.631807,0 24.731581,10.93206 25,24.5 0.0033,-0.16741 0,-0.33181 0,-0.5 0,-13.8 -11.2,-25 -25,-25 z m -15.125,17.09375 -0.5,0.5 7.90625,7.90625 0.5,-0.5 z m 30.25,0 -7.90625,7.90625 0.5,0.5 7.90625,-7.90625 z M 48,135.21875 39.59375,143.625 32.875,136.90625 l -0.5,0.5 7.21875,7.21875 8.40625,-8.40625 8.40625,8.40625 7.21875,-7.21875 -0.5,-0.5 -6.71875,6.71875 z" />
  <path
     style="display:inline;opacity:0.2;fill:#000000;fill-opacity:1;stroke:none"
     id="path3942"
     inkscape:connector-curvature="0"
     d="m 39.59375,111.375 -7.21875,7.21875 0.5,0.5 6.71875,-6.71875 8.40625,8.40625 8.40625,-8.40625 6.71875,6.71875 0.5,-0.5 L 56.40625,111.375 48,119.78125 Z M 23,127.5 c -0.0033,0.16741 0,0.33181 0,0.5 0,13.8 11.199999,25 25,25 13.8,0 25.000003,-11.19999 25,-25 0,-0.16819 0.0033,-0.33259 0,-0.5 C 72.731584,141.06795 61.631807,152 48,152 34.368192,152 23.268419,141.06794 23,127.5 Z m 17.28125,0 -7.90625,7.90625 0.5,0.5 L 40.78125,128 Z m 15.4375,0 -0.5,0.5 7.90625,7.90625 0.5,-0.5 z" />
  <path
     style="display:inline;opacity:0.3;fill:#ffffff;fill-opacity:1;stroke:none;stroke-width:1.5"
     id="path3946"
     inkscape:connector-curvature="0"
     d="M 48,8.5 C 26.471998,8.5 9,25.972 9,47.5 9,47.750191 8.99535,48.000926 9,48.25 9.3995955,27.06716 26.722189,10 48,10 69.277809,10 86.600404,27.06716 87,48.25 87.0047,48.000926 87,47.750191 87,47.5 87,25.972 69.528,8.5 48,8.5 Z m -23.625,26.625 -0.75,0.75 12.328125,12.375 0.75,-0.75 z m 47.25,0 L 59.25,47.5 60,48.25 72.375,35.875 Z M 48,58.75 34.875,71.875 l -10.5,-10.5 -0.75,0.75 11.25,11.25 L 48,60.25 61.078125,73.375 72.375,62.125 l -0.75,-0.75 -10.546875,10.5 z" />
  <path
     style="display:inline;opacity:0.1;fill:#000000;fill-opacity:1;stroke:none;stroke-width:1.5"
     id="path3955"
     inkscape:connector-curvature="0"
     d="m 34.875,21.625 -11.25,11.25 0.75,0.75 10.5,-10.5 L 48,36.25 61.078125,23.125 71.625,33.625 72.375,32.875 61.078125,21.625 48,34.75 Z M 9,46.75 c -0.00465,0.249074 0,0.499809 0,0.75 0,21.528 17.471998,39 39,39 21.528,0 39.000004,-17.471985 39,-39 0,-0.250191 0.0046,-0.500926 0,-0.75 C 86.600409,67.932855 69.277809,85 48,85 26.722189,85 9.3995955,67.932839 9,46.75 Z m 26.953125,0 L 23.625,59.125 24.375,59.875 36.703125,47.5 Z M 60,46.75 l -0.75,0.75 12.375,12.375 0.75,-0.75 z" />
</svg>
