<?xml version="1.0" encoding="UTF-8" standalone="no"?>
<!-- Created with Inkscape (http://www.inkscape.org/) -->

<svg
   xmlns:dc="http://purl.org/dc/elements/1.1/"
   xmlns:cc="http://creativecommons.org/ns#"
   xmlns:rdf="http://www.w3.org/1999/02/22-rdf-syntax-ns#"
   xmlns:svg="http://www.w3.org/2000/svg"
   xmlns="http://www.w3.org/2000/svg"
   xmlns:xlink="http://www.w3.org/1999/xlink"
   xmlns:sodipodi="http://sodipodi.sourceforge.net/DTD/sodipodi-0.dtd"
   xmlns:inkscape="http://www.inkscape.org/namespaces/inkscape"
   version="1.0"
   width="96"
   height="96"
   id="svg2408"
   sodipodi:docname="process-stop.svg"
   inkscape:version="0.92.2 2405546, 2018-03-11">
  <sodipodi:namedview
     pagecolor="#ffffff"
     bordercolor="#666666"
     borderopacity="1"
     objecttolerance="10"
     gridtolerance="10"
     guidetolerance="10"
     inkscape:pageopacity="0"
     inkscape:pageshadow="2"
     inkscape:window-width="1228"
     inkscape:window-height="996"
     id="namedview4836"
     showgrid="false"
     inkscape:zoom="2.4583333"
     inkscape:cx="-27.864407"
     inkscape:cy="48"
     inkscape:window-x="52"
     inkscape:window-y="0"
     inkscape:window-maximized="1"
     inkscape:current-layer="svg2408" />
  <defs
     id="defs2410">
    <linearGradient
       id="linearGradient3637">
      <stop
         id="stop3639"
         style="stop-color:#f0f0f0;stop-opacity:1"
         offset="0" />
      <stop
         id="stop3641"
         style="stop-color:#aaaaaa;stop-opacity:1"
         offset="1" />
    </linearGradient>
    <linearGradient
       x1="45.447727"
       y1="92.539597"
       x2="45.447727"
       y2="7.0165396"
       id="ButtonShadow"
       gradientUnits="userSpaceOnUse"
       gradientTransform="scale(1.0058652,0.994169)">
      <stop
         id="stop3750"
         style="stop-color:#000000;stop-opacity:1"
         offset="0" />
      <stop
         id="stop3752"
         style="stop-color:#000000;stop-opacity:0.58823532"
         offset="1" />
    </linearGradient>
    <linearGradient
       id="linearGradient3737">
      <stop
         id="stop3739"
         style="stop-color:#ffffff;stop-opacity:1"
         offset="0" />
      <stop
         id="stop3741"
         style="stop-color:#ffffff;stop-opacity:0"
         offset="1" />
    </linearGradient>
    <linearGradient
       id="linearGradient3700">
      <stop
         id="stop3702"
         style="stop-color:#2276c5;stop-opacity:1"
         offset="0" />
      <stop
         id="stop3704"
         style="stop-color:#68baf4;stop-opacity:1"
         offset="1" />
    </linearGradient>
    <filter
       color-interpolation-filters="sRGB"
       id="filter3174">
      <feGaussianBlur
         id="feGaussianBlur3176"
         stdDeviation="1.71" />
    </filter>
    <linearGradient
       x1="36.357143"
       y1="6"
       x2="36.357143"
       y2="63.893143"
       id="linearGradient3188"
       xlink:href="#linearGradient3737"
       gradientUnits="userSpaceOnUse" />
    <filter
       x="-0.192"
       y="-0.192"
       width="1.3839999"
       height="1.3839999"
       color-interpolation-filters="sRGB"
       id="filter3794">
      <feGaussianBlur
         id="feGaussianBlur3796"
         stdDeviation="5.28" />
    </filter>
    <linearGradient
       x1="48"
       y1="20.220806"
       x2="48"
       y2="138.66119"
       id="linearGradient3613"
       xlink:href="#linearGradient3737"
       gradientUnits="userSpaceOnUse" />
    <radialGradient
       cx="48"
       cy="90.171875"
       r="42"
       fx="48"
       fy="90.171875"
       id="radialGradient3619"
       xlink:href="#linearGradient3737"
       gradientUnits="userSpaceOnUse"
       gradientTransform="matrix(1.1573129,0,0,0.99590774,-7.5510206,0.19713193)" />
    <clipPath
       id="clipPath3613">
      <rect
         width="84"
         height="84"
         rx="6"
         ry="6"
         x="6"
         y="6"
         id="rect3615"
         style="fill:#ffffff;fill-opacity:1;fill-rule:nonzero;stroke:none" />
    </clipPath>
    <linearGradient
       x1="48"
       y1="90"
       x2="48"
       y2="5.9877172"
       id="linearGradient2843"
       xlink:href="#linearGradient3700"
       gradientUnits="userSpaceOnUse"
       gradientTransform="translate(0,100)" />
    <clipPath
       id="clipPath3625">
      <path
         d="M 0,0 0,96 96,96 96,0 0,0 z m 12,6 72,0 c 3.324,0 6,2.676 6,6 l 0,72 c 0,3.324 -2.676,6 -6,6 L 12,90 C 8.676,90 6,87.324 6,84 L 6,12 C 6,8.676 8.676,6 12,6 z"
         inkscape:connector-curvature="0"
         id="path3627"
         style="fill:#ffffff;fill-opacity:1;stroke:none" />
    </clipPath>
    <linearGradient
       x1="44.512066"
       y1="6"
       x2="44.512066"
       y2="90.015434"
       id="linearGradient3643"
       xlink:href="#linearGradient3637"
       gradientUnits="userSpaceOnUse" />
    <clipPath
       id="clipPath3649">
      <rect
         width="76"
         height="76"
         rx="4"
         ry="4"
         x="10"
         y="10"
         id="rect3651"
         style="fill:#ffffff;fill-opacity:1;fill-rule:nonzero;stroke:none" />
    </clipPath>
    <filter
       color-interpolation-filters="sRGB"
       id="filter3657">
      <feGaussianBlur
         id="feGaussianBlur3659"
         stdDeviation="1.14" />
    </filter>
    <linearGradient
       x1="45.447727"
       y1="92.539597"
       x2="45.447727"
       y2="7.0165396"
       id="ButtonShadow-0"
       gradientUnits="userSpaceOnUse"
       gradientTransform="matrix(1.0058652,0,0,0.994169,100,0)">
      <stop
         id="stop3750-8"
         style="stop-color:#000000;stop-opacity:1"
         offset="0" />
      <stop
         id="stop3752-5"
         style="stop-color:#000000;stop-opacity:0.58823532"
         offset="1" />
    </linearGradient>
    <linearGradient
       x1="32.251034"
       y1="6.1317081"
       x2="32.251034"
       y2="90.238609"
       id="linearGradient3780"
       xlink:href="#ButtonShadow-0"
       gradientUnits="userSpaceOnUse"
       gradientTransform="matrix(1.0238095,0,0,-1.0119048,-1.1428571,98.071429)" />
    <linearGradient
       x1="32.251034"
       y1="6.1317081"
       x2="32.251034"
       y2="90.238609"
       id="linearGradient3772"
       xlink:href="#ButtonShadow-0"
       gradientUnits="userSpaceOnUse"
       gradientTransform="matrix(1.0238095,0,0,-1.0119048,-1.1428571,98.071429)" />
    <linearGradient
       x1="32.251034"
       y1="6.1317081"
       x2="32.251034"
       y2="90.238609"
       id="linearGradient3725"
       xlink:href="#ButtonShadow-0"
       gradientUnits="userSpaceOnUse"
       gradientTransform="matrix(1.0238095,0,0,-1.0119048,-1.1428571,98.071429)" />
    <linearGradient
       x1="32.251034"
       y1="6.1317081"
       x2="32.251034"
       y2="90.238609"
       id="linearGradient3721"
       xlink:href="#ButtonShadow-0"
       gradientUnits="userSpaceOnUse"
       gradientTransform="matrix(1,0,0,-1,0,97)" />
    <linearGradient
       x1="32.251034"
       y1="6.1317081"
       x2="32.251034"
       y2="90.238609"
       id="linearGradient3199"
       xlink:href="#ButtonShadow-0"
       gradientUnits="userSpaceOnUse"
       gradientTransform="matrix(1.0238095,0,0,-1.0119048,-1.1428571,98.071429)" />
    <linearGradient
       x1="36.357143"
       y1="6"
       x2="36.357143"
       y2="63.893143"
       id="linearGradient3188-8"
       xlink:href="#linearGradient3737-3"
       gradientUnits="userSpaceOnUse" />
    <linearGradient
       id="linearGradient3737-3">
      <stop
         id="stop3739-6"
         style="stop-color:#ffffff;stop-opacity:1"
         offset="0" />
      <stop
         id="stop3741-1"
         style="stop-color:#ffffff;stop-opacity:0"
         offset="1" />
    </linearGradient>
    <radialGradient
       cx="48"
       cy="90.171875"
       r="42"
       fx="48"
       fy="90.171875"
       id="radialGradient3619-3"
       xlink:href="#linearGradient3737-3"
       gradientUnits="userSpaceOnUse"
       gradientTransform="matrix(1.1573129,0,0,0.99590774,-7.551021,0.1971319)" />
    <linearGradient
       x1="104"
       y1="8"
       x2="120"
       y2="8"
       id="linearGradient3905"
       xlink:href="#linearGradient3637"
       gradientUnits="userSpaceOnUse"
       gradientTransform="translate(-104,104)" />
    <linearGradient
       x1="104"
       y1="8"
       x2="120"
       y2="8"
       id="linearGradient3913"
       xlink:href="#linearGradient3183-0"
       gradientUnits="userSpaceOnUse"
       gradientTransform="translate(-144,104)" />
    <linearGradient
       id="linearGradient3183-0">
      <stop
         id="stop3185-9"
         style="stop-color:#c80000;stop-opacity:1"
         offset="0" />
      <stop
         id="stop3187-6"
         style="stop-color:#f3604d;stop-opacity:1"
         offset="1" />
    </linearGradient>
    <linearGradient
       x1="6.5625"
       y1="2"
       x2="6.5625"
       y2="14.000651"
       id="linearGradient3806"
       xlink:href="#linearGradient3183-0"
       gradientUnits="userSpaceOnUse"
       gradientTransform="matrix(-6.4999999,0,0,-6.4999999,100,99.5)" />
    <linearGradient
       x1="6.5625"
       y1="2"
       x2="6.5625"
       y2="14.000651"
       id="linearGradient3090"
       xlink:href="#linearGradient3183-0"
       gradientUnits="userSpaceOnUse"
       gradientTransform="matrix(-4,0,0,-4,-10,80)" />
  </defs>
  <metadata
     id="metadata2413">
    <rdf:RDF>
      <cc:Work
         rdf:about="">
        <dc:format>image/svg+xml</dc:format>
        <dc:type
           rdf:resource="http://purl.org/dc/dcmitype/StillImage" />
        <dc:title />
      </cc:Work>
    </rdf:RDF>
  </metadata>
  <g
     id="layer2"
     style="display:none">
    <rect
       width="86"
       height="85"
       rx="6"
       ry="6"
       x="5"
       y="7"
       clip-path="url(#clipPath3625)"
       id="rect3745"
       style="opacity:0.9;fill:url(#ButtonShadow);fill-opacity:1;fill-rule:nonzero;stroke:none;filter:url(#filter3174)" />
  </g>
  <g
     id="layer1"
     style="display:none">
    <rect
       width="84"
       height="84"
       rx="6"
       ry="6"
       x="6"
       y="6"
       id="rect2419"
       style="opacity:0.8;fill:#000000;fill-opacity:1;fill-rule:nonzero;stroke:none" />
    <path
       d="m 14,10 c -2.216,0 -4,1.784 -4,4 l 0,68 c 0,2.216 1.784,4 4,4 l 68,0 c 2.216,0 4,-1.784 4,-4 l 0,-68 c 0,-2.216 -1.784,-4 -4,-4 l -68,0 z m 0,3.0625 68,0 c 0.578769,0 0.9375,0.358731 0.9375,0.9375 l 0,68 c 0,0.578769 -0.358731,0.9375 -0.9375,0.9375 l -68,0 c -0.578769,0 -0.9375,-0.358731 -0.9375,-0.9375 l 0,-68 c 0,-0.578769 0.358731,-0.9375 0.9375,-0.9375 z"
       inkscape:connector-curvature="0"
       id="rect3726"
       style="opacity:0.07999998;fill:#000000;fill-opacity:1;fill-rule:nonzero;stroke:none" />
    <path
       d="M 12,6 C 8.676,6 6,8.676 6,12 l 0,72 c 0,3.324 2.676,6 6,6 l 72,0 c 3.324,0 6,-2.676 6,-6 L 90,12 C 90,8.676 87.324,6 84,6 L 12,6 z m 2,4 68,0 c 2.216,0 4,1.784 4,4 l 0,68 c 0,2.216 -1.784,4 -4,4 l -68,0 c -2.216,0 -4,-1.784 -4,-4 l 0,-68 c 0,-2.216 1.784,-4 4,-4 z"
       inkscape:connector-curvature="0"
       id="rect3629"
       style="fill:url(#linearGradient3643);fill-opacity:1;fill-rule:nonzero;stroke:none" />
    <path
       d="M 12,6 C 8.676,6 6,8.676 6,12 l 0,2 0,68 0,2 c 0,0.334721 0.04135,0.6507 0.09375,0.96875 0.0487,0.295596 0.09704,0.596915 0.1875,0.875 0.00988,0.03038 0.020892,0.0636 0.03125,0.09375 0.098865,0.287771 0.2348802,0.547452 0.375,0.8125 0.1445918,0.273507 0.3156161,0.535615 0.5,0.78125 0.1843839,0.245635 0.3737765,0.473472 0.59375,0.6875 0.439947,0.428056 0.94291,0.814526 1.5,1.09375 0.278545,0.139612 0.5734731,0.246947 0.875,0.34375 -0.2562018,-0.100222 -0.4867109,-0.236272 -0.71875,-0.375 -0.00741,-0.0044 -0.023866,0.0045 -0.03125,0 -0.031933,-0.0193 -0.062293,-0.04251 -0.09375,-0.0625 -0.120395,-0.0767 -0.2310226,-0.163513 -0.34375,-0.25 -0.1061728,-0.0808 -0.2132809,-0.161112 -0.3125,-0.25 C 8.4783201,88.557317 8.3087904,88.373362 8.15625,88.1875 8.0486711,88.057245 7.9378561,87.922215 7.84375,87.78125 7.818661,87.74287 7.805304,87.69538 7.78125,87.65625 7.716487,87.553218 7.6510225,87.451733 7.59375,87.34375 7.4927417,87.149044 7.3880752,86.928049 7.3125,86.71875 7.30454,86.69694 7.288911,86.6782 7.28125,86.65625 7.2494249,86.5643 7.2454455,86.469419 7.21875,86.375 7.1884177,86.268382 7.1483606,86.171969 7.125,86.0625 7.0521214,85.720988 7,85.364295 7,85 L 7,83 7,15 7,13 C 7,10.218152 9.2181517,8 12,8 l 2,0 68,0 2,0 c 2.781848,0 5,2.218152 5,5 l 0,2 0,68 0,2 c 0,0.364295 -0.05212,0.720988 -0.125,1.0625 -0.04415,0.206893 -0.08838,0.397658 -0.15625,0.59375 -0.0077,0.02195 -0.0233,0.04069 -0.03125,0.0625 -0.06274,0.173739 -0.138383,0.367449 -0.21875,0.53125 -0.04158,0.0828 -0.07904,0.169954 -0.125,0.25 -0.0546,0.09721 -0.126774,0.18835 -0.1875,0.28125 -0.09411,0.140965 -0.204921,0.275995 -0.3125,0.40625 -0.143174,0.17445 -0.303141,0.346998 -0.46875,0.5 -0.01117,0.0102 -0.01998,0.02115 -0.03125,0.03125 -0.138386,0.125556 -0.285091,0.234436 -0.4375,0.34375 -0.102571,0.07315 -0.204318,0.153364 -0.3125,0.21875 -0.0074,0.0045 -0.02384,-0.0044 -0.03125,0 -0.232039,0.138728 -0.462548,0.274778 -0.71875,0.375 0.301527,-0.0968 0.596455,-0.204138 0.875,-0.34375 0.55709,-0.279224 1.060053,-0.665694 1.5,-1.09375 0.219973,-0.214028 0.409366,-0.441865 0.59375,-0.6875 0.184384,-0.245635 0.355408,-0.507743 0.5,-0.78125 0.14012,-0.265048 0.276135,-0.524729 0.375,-0.8125 0.01041,-0.03078 0.02133,-0.06274 0.03125,-0.09375 0.09046,-0.278085 0.1388,-0.579404 0.1875,-0.875 C 89.95865,84.6507 90,84.334721 90,84 l 0,-2 0,-68 0,-2 C 90,8.676 87.324,6 84,6 L 12,6 z"
       inkscape:connector-curvature="0"
       id="rect3728"
       style="fill:url(#linearGradient3188);fill-opacity:1;fill-rule:nonzero;stroke:none" />
    <path
       d="M 12,90 C 8.676,90 6,87.324 6,84 L 6,82 6,14 6,12 c 0,-0.334721 0.04135,-0.6507 0.09375,-0.96875 0.0487,-0.295596 0.09704,-0.596915 0.1875,-0.875 C 6.29113,10.12587 6.302142,10.09265 6.3125,10.0625 6.411365,9.774729 6.5473802,9.515048 6.6875,9.25 6.8320918,8.976493 7.0031161,8.714385 7.1875,8.46875 7.3718839,8.223115 7.5612765,7.995278 7.78125,7.78125 8.221197,7.353194 8.72416,6.966724 9.28125,6.6875 9.559795,6.547888 9.8547231,6.440553 10.15625,6.34375 9.9000482,6.443972 9.6695391,6.580022 9.4375,6.71875 c -0.00741,0.0044 -0.023866,-0.0045 -0.03125,0 -0.031933,0.0193 -0.062293,0.04251 -0.09375,0.0625 -0.120395,0.0767 -0.2310226,0.163513 -0.34375,0.25 -0.1061728,0.0808 -0.2132809,0.161112 -0.3125,0.25 C 8.4783201,7.442683 8.3087904,7.626638 8.15625,7.8125 8.0486711,7.942755 7.9378561,8.077785 7.84375,8.21875 7.818661,8.25713 7.805304,8.30462 7.78125,8.34375 7.716487,8.446782 7.6510225,8.548267 7.59375,8.65625 7.4927417,8.850956 7.3880752,9.071951 7.3125,9.28125 7.30454,9.30306 7.288911,9.3218 7.28125,9.34375 7.2494249,9.4357 7.2454455,9.530581 7.21875,9.625 7.1884177,9.731618 7.1483606,9.828031 7.125,9.9375 7.0521214,10.279012 7,10.635705 7,11 l 0,2 0,68 0,2 c 0,2.781848 2.2181517,5 5,5 l 2,0 68,0 2,0 c 2.781848,0 5,-2.218152 5,-5 l 0,-2 0,-68 0,-2 C 89,10.635705 88.94788,10.279012 88.875,9.9375 88.83085,9.730607 88.78662,9.539842 88.71875,9.34375 88.71105,9.3218 88.69545,9.30306 88.6875,9.28125 88.62476,9.107511 88.549117,8.913801 88.46875,8.75 88.42717,8.6672 88.38971,8.580046 88.34375,8.5 88.28915,8.40279 88.216976,8.31165 88.15625,8.21875 88.06214,8.077785 87.951329,7.942755 87.84375,7.8125 87.700576,7.63805 87.540609,7.465502 87.375,7.3125 87.36383,7.3023 87.35502,7.29135 87.34375,7.28125 87.205364,7.155694 87.058659,7.046814 86.90625,6.9375 86.803679,6.86435 86.701932,6.784136 86.59375,6.71875 c -0.0074,-0.0045 -0.02384,0.0044 -0.03125,0 -0.232039,-0.138728 -0.462548,-0.274778 -0.71875,-0.375 0.301527,0.0968 0.596455,0.204138 0.875,0.34375 0.55709,0.279224 1.060053,0.665694 1.5,1.09375 0.219973,0.214028 0.409366,0.441865 0.59375,0.6875 0.184384,0.245635 0.355408,0.507743 0.5,0.78125 0.14012,0.265048 0.276135,0.524729 0.375,0.8125 0.01041,0.03078 0.02133,0.06274 0.03125,0.09375 0.09046,0.278085 0.1388,0.579404 0.1875,0.875 C 89.95865,11.3493 90,11.665279 90,12 l 0,2 0,68 0,2 c 0,3.324 -2.676,6 -6,6 l -72,0 z"
       inkscape:connector-curvature="0"
       id="path3615"
       style="opacity:0.6;fill:url(#radialGradient3619);fill-opacity:1;fill-rule:nonzero;stroke:none" />
    <rect
       width="84"
       height="84"
       rx="6"
       ry="6"
       x="6"
       y="106"
       id="rect2841"
       style="fill:url(#linearGradient2843);fill-opacity:1;fill-rule:nonzero;stroke:none" />
    <rect
       width="76"
       height="76"
       rx="4"
       ry="4"
       x="10"
       y="110"
       id="rect3634"
       style="fill:#ff0000;fill-opacity:1;fill-rule:nonzero;stroke:none" />
    <path
       d="m 14,9 c -2.752703,0 -5,2.247297 -5,5 l 0,68 c 0,2.752703 2.247297,5 5,5 l 68,0 c 2.752703,0 5,-2.247297 5,-5 L 87,14 C 87,11.247297 84.752703,9 82,9 L 14,9 z m 0,2 68,0 c 1.679297,0 3,1.320703 3,3 l 0,68 c 0,1.679297 -1.320703,3 -3,3 l -68,0 c -1.679297,0 -3,-1.320703 -3,-3 l 0,-68 c 0,-1.679297 1.320703,-3 3,-3 z"
       inkscape:connector-curvature="0"
       transform="translate(-110,0)"
       clip-path="url(#clipPath3649)"
       id="rect3647"
       style="font-size:medium;font-style:normal;font-variant:normal;font-weight:normal;font-stretch:normal;text-indent:0;text-align:start;text-decoration:none;line-height:normal;letter-spacing:normal;word-spacing:normal;text-transform:none;direction:ltr;block-progression:tb;writing-mode:lr-tb;text-anchor:start;color:#000000;fill:#000000;fill-opacity:1;stroke:none;stroke-width:2;marker:none;visibility:visible;display:inline;overflow:visible;filter:url(#filter3657);enable-background:accumulate;font-family:Abandoned Bitplane;-inkscape-font-specification:Abandoned Bitplane" />
    <path
       d="m 14.089286,10 c -2.216,0 -4,1.784 -4,4 l 0,68 c 0,2.216 1.784,4 4,4 l 68,0 c 2.216,0 4,-1.784 4,-4 l 0,-68 c 0,-2.216 -1.784,-4 -4,-4 l -68,0 z m 0,2 68,0 c 1.140301,0 2,0.859699 2,2 l 0,68 c 0,1.140301 -0.859699,2 -2,2 l -68,0 c -1.140301,0 -2,-0.859699 -2,-2 l 0,-68 c 0,-1.140301 0.859699,-2 2,-2 z"
       inkscape:connector-curvature="0"
       id="path3709"
       style="opacity:0.16000001;fill:#000000;fill-opacity:1;fill-rule:nonzero;stroke:none" />
    <path
       d="m 14,10 c -2.216,0 -4,1.784 -4,4 l 0,68 c 0,2.216 1.784,4 4,4 l 68,0 c 2.216,0 4,-1.784 4,-4 l 0,-68 c 0,-2.216 -1.784,-4 -4,-4 l -68,0 z m 0,1 68,0 c 1.673848,0 3,1.326152 3,3 l 0,68 c 0,1.673848 -1.326152,3 -3,3 l -68,0 c -1.673848,0 -3,-1.326152 -3,-3 l 0,-68 c 0,-1.673848 1.326152,-3 3,-3 z"
       inkscape:connector-curvature="0"
       id="path3707"
       style="opacity:0.36000001;fill:#000000;fill-opacity:1;fill-rule:nonzero;stroke:none" />
  </g>
  <g
     id="layer5"
     style="display:none">
    <rect
       width="66"
       height="66"
       rx="12"
       ry="12"
       x="15"
       y="15"
       clip-path="url(#clipPath3613)"
       id="rect3171"
       style="opacity:0.1;fill:url(#linearGradient3613);fill-opacity:1;fill-rule:nonzero;stroke:#ffffff;stroke-width:0.5;stroke-linecap:round;stroke-linejoin:miter;stroke-miterlimit:4;stroke-opacity:1;stroke-dasharray:none;stroke-dashoffset:0;filter:url(#filter3794)" />
  </g>
  <path
     inkscape:connector-curvature="0"
     style="opacity:0.1;fill:#000000;fill-opacity:1;stroke:none;stroke-width:1.5"
     id="path3888"
     d="M 48,6.90625 C 24.78438,6.90625 5.90625,25.78438 5.90625,49 5.90625,72.21562 24.78438,91.09375 48,91.09375 71.21562,91.09375 90.09375,72.21562 90.09375,49 90.09375,25.78438 71.21562,6.90625 48,6.90625 Z m 0,20.109375 c 12.151389,0 21.984375,9.832986 21.984375,21.984375 0,1.863649 -0.350577,3.64187 -0.84375,5.390625 L 42.609375,27.859375 C 44.356068,27.366305 46.130964,27.015625 48,27.015625 Z M 26.859375,44.59375 52.453125,70.140625 C 50.978244,70.487266 49.551057,70.984375 48,70.984375 35.848611,70.984375 26.015625,61.151389 26.015625,49 c 0,-1.540121 0.499886,-2.949072 0.84375,-4.40625 z" />
  <path
     inkscape:connector-curvature="0"
     style="opacity:0.15;fill:#000000;fill-opacity:1;stroke:none;stroke-width:1.5"
     id="path3884"
     d="M 48,8.640625 C 25.724336,8.640625 7.640625,26.724336 7.640625,49 7.640625,71.275665 25.724336,89.359375 48,89.359375 70.275665,89.359375 88.359375,71.275665 88.359375,49 88.359375,26.724336 70.275665,8.640625 48,8.640625 Z m 0,16.640625 c 13.091319,0 23.71875,10.627431 23.71875,23.71875 0,3.059982 -0.713279,5.93591 -1.78125,8.625 L 39.375,27.0625 C 42.063164,25.993174 44.933075,25.28125 48,25.28125 Z M 25.78125,41.078125 55.96875,71.21875 c -2.499626,0.89743 -5.15657,1.5 -7.96875,1.5 -13.091319,0 -23.71875,-10.627431 -23.71875,-23.71875 0,-2.805262 0.603114,-5.432145 1.5,-7.921875 z" />
  <path
     style="opacity:0.3;fill:#000000;fill-opacity:1;stroke:none;stroke-width:1.5"
     id="path3878"
     inkscape:connector-curvature="0"
     d="M 48,88 C 69.528,88 87,70.528 87,49 87,27.472 69.528,10 48,10 26.472,10 9,27.472 9,49 9,70.528 26.472,88 48,88 Z m 0,-13.928571 c -13.839429,0 -25.071423,-11.232 -25.071423,-25.071429 0,-3.740067 0.836511,-7.2792 2.306915,-10.468191 l 33.254461,33.2327 C 55.296321,73.240138 51.74712,74.071429 48,74.071429 Z M 70.459821,60.099328 36.87891,26.540179 C 40.23261,24.874853 44.003865,23.928577 48,23.928577 c 13.839429,0 25.071429,11.231994 25.071429,25.071423 0,3.989218 -0.951678,7.749969 -2.611608,11.099328 z" />
  <rect
     style="color:#000000;display:inline;overflow:visible;visibility:visible;fill:url(#linearGradient3905);fill-opacity:1;fill-rule:nonzero;stroke:none;stroke-width:2;marker:none;enable-background:accumulate"
     id="rect3897"
     transform="matrix(0,1,1,0,0,0)"
     y="104"
     x="0"
     height="16"
     width="16" />
  <text
     style="font-style:normal;font-variant:normal;font-weight:normal;font-stretch:normal;font-size:4px;line-height:125%;font-family:'Liberation Sans';-inkscape-font-specification:'Liberation Sans';text-align:start;letter-spacing:0px;word-spacing:0px;writing-mode:lr-tb;text-anchor:start;fill:#000000;fill-opacity:1;stroke:none"
     xml:space="preserve"
     id="text3907"
     y="48"
     x="104"><tspan
       id="tspan3909"
       y="48"
       x="104">Shadow opacity : 30, 15, 10, (8)</tspan></text>
  <rect
     style="color:#000000;display:inline;overflow:visible;visibility:visible;fill:url(#linearGradient3913);fill-opacity:1;fill-rule:nonzero;stroke:none;stroke-width:2;marker:none;enable-background:accumulate"
     id="rect3911"
     transform="rotate(-90)"
     y="104"
     x="-40"
     height="16"
     width="16" />
  <text
     style="font-style:normal;font-variant:normal;font-weight:normal;font-stretch:normal;font-size:4px;line-height:125%;font-family:'Liberation Sans';-inkscape-font-specification:'Liberation Sans';text-align:start;letter-spacing:0px;word-spacing:0px;writing-mode:lr-tb;text-anchor:start;fill:#000000;fill-opacity:1;stroke:none"
     xml:space="preserve"
     id="text3951"
     y="32"
     x="124"><tspan
       id="tspan3953"
       y="32"
       x="124">Bevel opacity : 30 / 10</tspan></text>
  <text
     style="font-style:normal;font-variant:normal;font-weight:normal;font-stretch:normal;font-size:4px;line-height:125%;font-family:'Liberation Sans';-inkscape-font-specification:'Liberation Sans';text-align:start;letter-spacing:0px;word-spacing:0px;writing-mode:lr-tb;text-anchor:start;fill:#000000;fill-opacity:1;stroke:none"
     xml:space="preserve"
     id="text3955"
     y="8"
     x="124"><tspan
       id="tspan3957"
       y="8"
       x="124">Bevel opacity : 75 / 15</tspan></text>
  <path
     style="fill:url(#linearGradient3806);fill-opacity:1;stroke:none;stroke-width:1.5"
     id="Symbol"
     inkscape:connector-curvature="0"
     d="m 48,86.5 c 21.528,0 39,-17.472 39,-39 0,-21.528 -17.472,-39 -39,-39 -21.528,0 -39,17.472 -39,39 0,21.528 17.472,39 39,39 z m 0,-13.928571 c -13.839429,0 -25.071423,-11.232 -25.071423,-25.071429 0,-3.740067 0.836511,-7.2792 2.306915,-10.468191 l 33.254461,33.2327 C 55.296321,71.740138 51.74712,72.571429 48,72.571429 Z M 70.459821,58.599328 36.87891,25.040179 C 40.23261,23.374853 44.003865,22.428577 48,22.428577 c 13.839429,0 25.071429,11.231994 25.071429,25.071423 0,3.989218 -0.951678,7.749969 -2.611608,11.099328 z" />
  <path
     inkscape:connector-curvature="0"
     style="opacity:0.1;fill:#000000;fill-opacity:1;stroke:none"
     id="path3078"
     d="m -42,23.0625 c -14.29463,0 -25.9375,11.64287 -25.9375,25.9375 0,14.29463 11.64287,25.9375 25.9375,25.9375 14.29463,0 25.9375,-11.64287 25.9375,-25.9375 0,-14.29463 -11.64287,-25.9375 -25.9375,-25.9375 z M -42,35.5 c 7.47204,0 13.5,6.02796 13.5,13.5 0,1.141147 -0.222002,2.235561 -0.53125,3.3125 L -45.3125,36.03125 C -44.236832,35.722032 -43.144474,35.5 -42,35.5 Z m -13,10.75 15.75,15.71875 C -40.16077,62.191599 -41.052781,62.5 -42,62.5 c -7.47204,0 -13.5,-6.02796 -13.5,-13.5 0,-0.948943 0.275319,-1.843304 0.5,-2.75 z" />
  <path
     inkscape:connector-curvature="0"
     style="opacity:0.15;fill:#000000;fill-opacity:1;stroke:none"
     id="path3080"
     d="m -42,24 c -13.784035,0 -25,11.215965 -25,25 0,13.784035 11.215965,25 25,25 13.784035,0 25,-11.215965 25,-25 0,-13.784035 -11.215965,-25 -25,-25 z m 0,10.5625 c 7.979845,0 14.4375,6.457655 14.4375,14.4375 0,1.790905 -0.423795,3.473225 -1.03125,5.0625 L -47.0625,35.59375 C -45.474133,34.985735 -43.795146,34.5625 -42,34.5625 Z m -13.5625,9.8125 18.21875,18.1875 c -1.471481,0.509511 -3.021442,0.875 -4.65625,0.875 -7.979845,0 -14.4375,-6.457655 -14.4375,-14.4375 0,-1.630598 0.365609,-3.160548 0.875,-4.625 z" />
  <path
     style="opacity:0.3;fill:#000000;fill-opacity:1;stroke:none"
     id="path3082"
     inkscape:connector-curvature="0"
     d="m -42,73 c 13.248,0 24,-10.752 24,-24 0,-13.248 -10.752,-24 -24,-24 -13.248,0 -24,10.752 -24,24 0,13.248 10.752,24 24,24 z m 0,-8.571428 c -8.516572,0 -15.428568,-6.912 -15.428568,-15.428572 0,-2.30158 0.514776,-4.479508 1.41964,-6.441964 l 20.464284,20.450892 C -37.509956,63.917008 -39.69408,64.428572 -42,64.428572 Z m 13.821428,-8.598216 -20.665176,-20.651784 c 2.063816,-1.024816 4.384588,-1.60714 6.843748,-1.60714 8.516572,0 15.428572,6.911996 15.428572,15.428568 0,2.454904 -0.585648,4.769212 -1.607144,6.830356 z" />
  <path
     style="fill:url(#linearGradient3090);fill-opacity:1;stroke:none"
     id="path3084"
     inkscape:connector-curvature="0"
     d="m -42,72 c 13.248,0 24,-10.752 24,-24 0,-13.248 -10.752,-24 -24,-24 -13.248,0 -24,10.752 -24,24 0,13.248 10.752,24 24,24 z m 0,-8.571428 c -8.516572,0 -15.428568,-6.912 -15.428568,-15.428572 0,-2.30158 0.514776,-4.479508 1.41964,-6.441964 l 20.464284,20.450892 C -37.509956,62.917008 -39.69408,63.428572 -42,63.428572 Z m 13.821428,-8.598216 -20.665176,-20.651784 c 2.063816,-1.024816 4.384588,-1.60714 6.843748,-1.60714 8.516572,0 15.428572,6.911996 15.428572,15.428568 0,2.454904 -0.585648,4.769212 -1.607144,6.830356 z" />
  <path
     style="opacity:0.3;fill:#ffffff;fill-opacity:1;stroke:none"
     id="path3086"
     inkscape:connector-curvature="0"
     d="m -42,24 c -13.248,0 -24,10.752 -24,24 0,0.165497 -0.0033,0.335299 0,0.5 0.264004,-13.019649 10.917497,-23.5 24,-23.5 13.082503,0 23.735996,10.480351 24,23.5 0.0033,-0.164701 0,-0.334503 0,-0.5 0,-13.248 -10.752,-24 -24,-24 z m -6.15625,10.875 c -0.23037,0.100804 -0.463056,0.201049 -0.6875,0.3125 l 20.65625,20.65625 c 1.021496,-2.061144 1.625,-4.388846 1.625,-6.84375 0,-0.127927 -0.02815,-0.247815 -0.03125,-0.375 -0.0913,2.220234 -0.660361,4.335386 -1.59375,6.21875 z m -9.25,13.59375 c -0.0063,0.179598 -0.03125,0.350074 -0.03125,0.53125 0,8.516572 6.920928,15.4375 15.4375,15.4375 2.30592,0 4.503438,-0.52942 6.46875,-1.4375 L -36.25,62.28125 c -1.779978,0.719046 -3.713077,1.15625 -5.75,1.15625 -8.356823,0 -15.153643,-6.672826 -15.40625,-14.96875 z" />
  <path
     style="opacity:0.1;fill:#000000;fill-opacity:1;stroke:none"
     id="path3088"
     inkscape:connector-curvature="0"
     d="m -42,31.5625 c -2.45916,0 -4.779934,0.600184 -6.84375,1.625 l 0.6875,0.6875 c 1.887933,-0.826114 3.964529,-1.3125 6.15625,-1.3125 8.388645,0 15.202899,6.722515 15.40625,15.0625 0.0086,-0.209579 0.03125,-0.413257 0.03125,-0.625 0,-8.516572 -6.920928,-15.4375 -15.4375,-15.4375 z m -14,9 c -0.904864,1.962456 -1.4375,4.13592 -1.4375,6.4375 0,0.159749 0.02642,0.310165 0.03125,0.46875 0.07395,-2.101945 0.572615,-4.098275 1.40625,-5.90625 l 19.75,19.71875 C -36.014936,61.18629 -35.760513,61.105932 -35.53125,61 Z M -66,47.5 c -0.0033,0.164701 0,0.334503 0,0.5 0,13.248 10.752,24 24,24 13.248,0 24,-10.752 24,-24 0,-0.165497 0.0033,-0.335299 0,-0.5 C -18.264004,60.519649 -28.917497,71 -42,71 -55.082503,71 -65.735996,60.519649 -66,47.5 Z" />
  <path
     style="opacity:0.3;fill:#ffffff;fill-opacity:1;stroke:none;stroke-width:1.5"
     id="path3860"
     inkscape:connector-curvature="0"
     d="M 48,8.5 C 26.472,8.5 9,25.972 9,47.5 9,47.750191 8.99535,48.000926 9,48.25 9.3995955,27.06716 26.722191,10 48,10 69.277809,10 86.600404,27.06716 87,48.25 87.0047,48.000926 87,47.750191 87,47.5 87,25.972 69.528,8.5 48,8.5 Z M 37.921875,26.078125 c -0.346269,0.152993 -0.693265,0.300919 -1.03125,0.46875 l 33.5625,33.5625 c 1.65993,-3.349359 2.625,-7.120157 2.625,-11.109375 0,-0.189015 -0.0427,-0.37448 -0.04687,-0.5625 -0.13578,3.643421 -1.047953,7.084338 -2.578125,10.171875 z M 22.96875,48.0625 C 22.9572,48.371465 22.92188,48.688154 22.92188,49 c 0,13.839429 11.238696,25.078125 25.078125,25.078125 3.74712,0 7.306368,-0.821246 10.5,-2.296875 L 57.42188,70.703125 c -2.914767,1.189395 -6.080596,1.875 -9.421875,1.875 -13.650414,0 -24.730221,-10.937048 -25.03125,-24.515625 z" />
  <path
     style="opacity:0.15;fill:#000000;fill-opacity:1;stroke:none;stroke-width:1.5"
     id="path3869"
     inkscape:connector-curvature="0"
     d="m 48,20.921875 c -3.996135,0 -7.755675,0.959675 -11.109375,2.625 l 1.03125,1.03125 C 41.01151,23.213031 44.406594,22.421875 48,22.421875 c 13.650414,0 24.73022,10.937047 25.03125,24.515625 C 73.0428,46.628539 73.078125,46.311839 73.078125,46 73.078125,32.160571 61.839429,20.921875 48,20.921875 Z m -22.78125,14.625 C 23.748346,38.735866 22.921875,42.259933 22.921875,46 c 0,0.189015 0.04271,0.37448 0.04687,0.5625 0.12657,-3.396557 0.902197,-6.59253 2.25,-9.515625 L 57.42187,69.203125 C 57.775911,69.058657 58.154104,68.941072 58.5,68.78125 Z M 9,46.75 c -0.00465,0.249074 0,0.499809 0,0.75 0,21.528 17.472,39 39,39 21.528,0 39,-17.472 39,-39 0,-0.250191 0.0046,-0.500926 0,-0.75 C 86.600404,67.932839 69.277809,85 48,85 26.722191,85 9.3995955,67.932839 9,46.75 Z" />
</svg>
