<?xml version="1.0" encoding="UTF-8" standalone="no"?>
<!-- Created with Inkscape (http://www.inkscape.org/) -->

<svg
   xmlns:dc="http://purl.org/dc/elements/1.1/"
   xmlns:cc="http://creativecommons.org/ns#"
   xmlns:rdf="http://www.w3.org/1999/02/22-rdf-syntax-ns#"
   xmlns:svg="http://www.w3.org/2000/svg"
   xmlns="http://www.w3.org/2000/svg"
   xmlns:xlink="http://www.w3.org/1999/xlink"
   xmlns:sodipodi="http://sodipodi.sourceforge.net/DTD/sodipodi-0.dtd"
   xmlns:inkscape="http://www.inkscape.org/namespaces/inkscape"
   version="1.0"
   width="96"
   height="96"
   id="svg2408"
   style="display:inline"
   sodipodi:docname="document-page-setup.svg"
   inkscape:version="0.92.2 2405546, 2018-03-11">
  <sodipodi:namedview
     pagecolor="#ffffff"
     bordercolor="#666666"
     borderopacity="1"
     objecttolerance="10"
     gridtolerance="10"
     guidetolerance="10"
     inkscape:pageopacity="0"
     inkscape:pageshadow="2"
     inkscape:window-width="750"
     inkscape:window-height="480"
     id="namedview1072"
     showgrid="false"
     inkscape:zoom="2.4583333"
     inkscape:cx="48"
     inkscape:cy="48"
     inkscape:window-x="52"
     inkscape:window-y="0"
     inkscape:window-maximized="0"
     inkscape:current-layer="svg2408" />
  <defs
     id="defs2410">
    <linearGradient
       id="linearGradient3637">
      <stop
         id="stop3639"
         style="stop-color:#f0f0f0;stop-opacity:1"
         offset="0" />
      <stop
         id="stop3641"
         style="stop-color:#dcdcdc;stop-opacity:1"
         offset="1" />
    </linearGradient>
    <linearGradient
       x1="45.447727"
       y1="92.539597"
       x2="45.447727"
       y2="7.0165396"
       id="ButtonShadow"
       gradientUnits="userSpaceOnUse"
       gradientTransform="scale(1.0058652,0.994169)">
      <stop
         id="stop3750"
         style="stop-color:#000000;stop-opacity:1"
         offset="0" />
      <stop
         id="stop3752"
         style="stop-color:#000000;stop-opacity:0.58823532"
         offset="1" />
    </linearGradient>
    <linearGradient
       id="linearGradient3737">
      <stop
         id="stop3739"
         style="stop-color:#ffffff;stop-opacity:1"
         offset="0" />
      <stop
         id="stop3741"
         style="stop-color:#ffffff;stop-opacity:0"
         offset="1" />
    </linearGradient>
    <linearGradient
       id="linearGradient3700">
      <stop
         id="stop3702"
         style="stop-color:#2276c5;stop-opacity:1"
         offset="0" />
      <stop
         id="stop3704"
         style="stop-color:#68baf4;stop-opacity:1"
         offset="1" />
    </linearGradient>
    <filter
       color-interpolation-filters="sRGB"
       id="filter3174">
      <feGaussianBlur
         id="feGaussianBlur3176"
         stdDeviation="1.71" />
    </filter>
    <linearGradient
       x1="36.357143"
       y1="6"
       x2="36.357143"
       y2="63.893143"
       id="linearGradient3188"
       xlink:href="#linearGradient3737"
       gradientUnits="userSpaceOnUse" />
    <radialGradient
       cx="48"
       cy="90.171875"
       r="42"
       fx="48"
       fy="90.171875"
       id="radialGradient3619"
       xlink:href="#linearGradient3737"
       gradientUnits="userSpaceOnUse"
       gradientTransform="matrix(1.1573129,0,0,0.99590774,-7.5510206,0.19713193)" />
    <linearGradient
       x1="48"
       y1="90"
       x2="48"
       y2="5.9877172"
       id="linearGradient2843"
       xlink:href="#linearGradient3700"
       gradientUnits="userSpaceOnUse"
       gradientTransform="translate(0,100)" />
    <clipPath
       id="clipPath3625">
      <path
         d="M 0,0 0,96 96,96 96,0 0,0 z m 12,6 72,0 c 3.324,0 6,2.676 6,6 l 0,72 c 0,3.324 -2.676,6 -6,6 L 12,90 C 8.676,90 6,87.324 6,84 L 6,12 C 6,8.676 8.676,6 12,6 z"
         inkscape:connector-curvature="0"
         id="path3627"
         style="fill:#ffffff;fill-opacity:1;stroke:none" />
    </clipPath>
    <linearGradient
       x1="44.512066"
       y1="6"
       x2="44.512066"
       y2="90.015434"
       id="linearGradient3643"
       xlink:href="#linearGradient3637"
       gradientUnits="userSpaceOnUse" />
    <clipPath
       id="clipPath3649">
      <rect
         width="76"
         height="76"
         rx="4"
         ry="4"
         x="10"
         y="10"
         id="rect3651"
         style="fill:#ffffff;fill-opacity:1;fill-rule:nonzero;stroke:none" />
    </clipPath>
    <filter
       color-interpolation-filters="sRGB"
       id="filter3657">
      <feGaussianBlur
         id="feGaussianBlur3659"
         stdDeviation="1.14" />
    </filter>
    <linearGradient
       id="linearGradient4081">
      <stop
         id="stop4083"
         style="stop-color:#aaaaaa;stop-opacity:1"
         offset="0" />
      <stop
         id="stop4085"
         style="stop-color:#f0f0f0;stop-opacity:1"
         offset="1" />
    </linearGradient>
    <linearGradient
       x1="49"
       y1="72.089897"
       x2="49"
       y2="23.729059"
       id="linearGradient3746"
       xlink:href="#linearGradient4081"
       gradientUnits="userSpaceOnUse"
       gradientTransform="matrix(1.2631579,0,0,1,81.052632,0)" />
    <linearGradient
       x1="48"
       y1="74"
       x2="48"
       y2="21.913534"
       id="linearGradient3762"
       xlink:href="#linearGradient4081"
       gradientUnits="userSpaceOnUse"
       gradientTransform="matrix(1.5,0,0,1.5,-24.001301,-24.500001)" />
    <linearGradient
       x1="36.357143"
       y1="6"
       x2="36.357143"
       y2="63.893143"
       id="linearGradient3188-0"
       xlink:href="#linearGradient3737-0"
       gradientUnits="userSpaceOnUse" />
    <linearGradient
       id="linearGradient3737-0">
      <stop
         id="stop3739-0"
         style="stop-color:#ffffff;stop-opacity:1"
         offset="0" />
      <stop
         id="stop3741-7"
         style="stop-color:#ffffff;stop-opacity:0"
         offset="1" />
    </linearGradient>
    <radialGradient
       cx="48"
       cy="90.171875"
       r="42"
       fx="48"
       fy="90.171875"
       id="radialGradient3619-5"
       xlink:href="#linearGradient3737-0"
       gradientUnits="userSpaceOnUse"
       gradientTransform="matrix(1.1573129,0,0,0.99590774,-7.551021,0.1971319)" />
    <linearGradient
       x1="45.447727"
       y1="92.539597"
       x2="45.447727"
       y2="7.0165396"
       id="ButtonShadow-0"
       gradientUnits="userSpaceOnUse"
       gradientTransform="matrix(1.0058652,0,0,0.994169,100,0)">
      <stop
         id="stop3750-8"
         style="stop-color:#000000;stop-opacity:1"
         offset="0" />
      <stop
         id="stop3752-5"
         style="stop-color:#000000;stop-opacity:0.58823532"
         offset="1" />
    </linearGradient>
    <linearGradient
       x1="32.251034"
       y1="6.1317081"
       x2="32.251034"
       y2="90.238609"
       id="linearGradient3780"
       xlink:href="#ButtonShadow-0"
       gradientUnits="userSpaceOnUse"
       gradientTransform="matrix(1.0238095,0,0,-1.0119048,-1.1428571,98.071429)" />
    <linearGradient
       x1="32.251034"
       y1="6.1317081"
       x2="32.251034"
       y2="90.238609"
       id="linearGradient3772"
       xlink:href="#ButtonShadow-0"
       gradientUnits="userSpaceOnUse"
       gradientTransform="matrix(1.0238095,0,0,-1.0119048,-1.1428571,98.071429)" />
    <linearGradient
       x1="32.251034"
       y1="6.1317081"
       x2="32.251034"
       y2="90.238609"
       id="linearGradient3725-5"
       xlink:href="#ButtonShadow-0"
       gradientUnits="userSpaceOnUse"
       gradientTransform="matrix(1.0238095,0,0,-1.0119048,-1.1428571,98.071429)" />
    <linearGradient
       x1="32.251034"
       y1="6.1317081"
       x2="32.251034"
       y2="90.238609"
       id="linearGradient3721-5"
       xlink:href="#ButtonShadow-0"
       gradientUnits="userSpaceOnUse"
       gradientTransform="matrix(1,0,0,-1,0,97)" />
    <linearGradient
       x1="32.251034"
       y1="6.1317081"
       x2="32.251034"
       y2="90.238609"
       id="linearGradient3289"
       xlink:href="#ButtonShadow-0"
       gradientUnits="userSpaceOnUse"
       gradientTransform="matrix(1.0238095,0,0,-1.0119048,-1.1428571,98.071429)" />
  </defs>
  <metadata
     id="metadata2413">
    <rdf:RDF>
      <cc:Work
         rdf:about="">
        <dc:format>image/svg+xml</dc:format>
        <dc:type
           rdf:resource="http://purl.org/dc/dcmitype/StillImage" />
        <dc:title />
      </cc:Work>
    </rdf:RDF>
  </metadata>
  <g
     id="layer2"
     style="display:none">
    <rect
       width="86"
       height="85"
       rx="6"
       ry="6"
       x="5"
       y="7"
       clip-path="url(#clipPath3625)"
       id="rect3745"
       style="opacity:0.9;fill:url(#ButtonShadow);fill-opacity:1;fill-rule:nonzero;stroke:none;filter:url(#filter3174)" />
  </g>
  <g
     id="layer1"
     style="display:none">
    <rect
       width="84"
       height="84"
       rx="6"
       ry="6"
       x="6"
       y="6"
       id="rect2419"
       style="opacity:0.7;fill:#000000;fill-opacity:1;fill-rule:nonzero;stroke:none" />
    <path
       d="m 14,10 c -2.216,0 -4,1.784 -4,4 l 0,68 c 0,2.216 1.784,4 4,4 l 68,0 c 2.216,0 4,-1.784 4,-4 l 0,-68 c 0,-2.216 -1.784,-4 -4,-4 l -68,0 z m 0,3.0625 68,0 c 0.578769,0 0.9375,0.358731 0.9375,0.9375 l 0,68 c 0,0.578769 -0.358731,0.9375 -0.9375,0.9375 l -68,0 c -0.578769,0 -0.9375,-0.358731 -0.9375,-0.9375 l 0,-68 c 0,-0.578769 0.358731,-0.9375 0.9375,-0.9375 z"
       inkscape:connector-curvature="0"
       id="rect3726"
       style="opacity:0.07999998;fill:#000000;fill-opacity:1;fill-rule:nonzero;stroke:none" />
    <path
       d="M 12,6 C 8.676,6 6,8.676 6,12 l 0,72 c 0,3.324 2.676,6 6,6 l 72,0 c 3.324,0 6,-2.676 6,-6 L 90,12 C 90,8.676 87.324,6 84,6 L 12,6 z m 2,4 68,0 c 2.216,0 4,1.784 4,4 l 0,68 c 0,2.216 -1.784,4 -4,4 l -68,0 c -2.216,0 -4,-1.784 -4,-4 l 0,-68 c 0,-2.216 1.784,-4 4,-4 z"
       inkscape:connector-curvature="0"
       id="rect3629"
       style="fill:url(#linearGradient3643);fill-opacity:1;fill-rule:nonzero;stroke:none" />
    <path
       d="M 12,6 C 8.676,6 6,8.676 6,12 l 0,2 0,68 0,2 c 0,0.334721 0.04135,0.6507 0.09375,0.96875 0.0487,0.295596 0.09704,0.596915 0.1875,0.875 0.00988,0.03038 0.020892,0.0636 0.03125,0.09375 0.098865,0.287771 0.2348802,0.547452 0.375,0.8125 0.1445918,0.273507 0.3156161,0.535615 0.5,0.78125 0.1843839,0.245635 0.3737765,0.473472 0.59375,0.6875 0.439947,0.428056 0.94291,0.814526 1.5,1.09375 0.278545,0.139612 0.5734731,0.246947 0.875,0.34375 -0.2562018,-0.100222 -0.4867109,-0.236272 -0.71875,-0.375 -0.00741,-0.0044 -0.023866,0.0045 -0.03125,0 -0.031933,-0.0193 -0.062293,-0.04251 -0.09375,-0.0625 -0.120395,-0.0767 -0.2310226,-0.163513 -0.34375,-0.25 -0.1061728,-0.0808 -0.2132809,-0.161112 -0.3125,-0.25 C 8.4783201,88.557317 8.3087904,88.373362 8.15625,88.1875 8.0486711,88.057245 7.9378561,87.922215 7.84375,87.78125 7.818661,87.74287 7.805304,87.69538 7.78125,87.65625 7.716487,87.553218 7.6510225,87.451733 7.59375,87.34375 7.4927417,87.149044 7.3880752,86.928049 7.3125,86.71875 7.30454,86.69694 7.288911,86.6782 7.28125,86.65625 7.2494249,86.5643 7.2454455,86.469419 7.21875,86.375 7.1884177,86.268382 7.1483606,86.171969 7.125,86.0625 7.0521214,85.720988 7,85.364295 7,85 L 7,83 7,15 7,13 C 7,10.218152 9.2181517,8 12,8 l 2,0 68,0 2,0 c 2.781848,0 5,2.218152 5,5 l 0,2 0,68 0,2 c 0,0.364295 -0.05212,0.720988 -0.125,1.0625 -0.04415,0.206893 -0.08838,0.397658 -0.15625,0.59375 -0.0077,0.02195 -0.0233,0.04069 -0.03125,0.0625 -0.06274,0.173739 -0.138383,0.367449 -0.21875,0.53125 -0.04158,0.0828 -0.07904,0.169954 -0.125,0.25 -0.0546,0.09721 -0.126774,0.18835 -0.1875,0.28125 -0.09411,0.140965 -0.204921,0.275995 -0.3125,0.40625 -0.143174,0.17445 -0.303141,0.346998 -0.46875,0.5 -0.01117,0.0102 -0.01998,0.02115 -0.03125,0.03125 -0.138386,0.125556 -0.285091,0.234436 -0.4375,0.34375 -0.102571,0.07315 -0.204318,0.153364 -0.3125,0.21875 -0.0074,0.0045 -0.02384,-0.0044 -0.03125,0 -0.232039,0.138728 -0.462548,0.274778 -0.71875,0.375 0.301527,-0.0968 0.596455,-0.204138 0.875,-0.34375 0.55709,-0.279224 1.060053,-0.665694 1.5,-1.09375 0.219973,-0.214028 0.409366,-0.441865 0.59375,-0.6875 0.184384,-0.245635 0.355408,-0.507743 0.5,-0.78125 0.14012,-0.265048 0.276135,-0.524729 0.375,-0.8125 0.01041,-0.03078 0.02133,-0.06274 0.03125,-0.09375 0.09046,-0.278085 0.1388,-0.579404 0.1875,-0.875 C 89.95865,84.6507 90,84.334721 90,84 l 0,-2 0,-68 0,-2 C 90,8.676 87.324,6 84,6 L 12,6 z"
       inkscape:connector-curvature="0"
       id="rect3728"
       style="fill:url(#linearGradient3188);fill-opacity:1;fill-rule:nonzero;stroke:none" />
    <path
       d="M 12,90 C 8.676,90 6,87.324 6,84 L 6,82 6,14 6,12 c 0,-0.334721 0.04135,-0.6507 0.09375,-0.96875 0.0487,-0.295596 0.09704,-0.596915 0.1875,-0.875 C 6.29113,10.12587 6.302142,10.09265 6.3125,10.0625 6.411365,9.774729 6.5473802,9.515048 6.6875,9.25 6.8320918,8.976493 7.0031161,8.714385 7.1875,8.46875 7.3718839,8.223115 7.5612765,7.995278 7.78125,7.78125 8.221197,7.353194 8.72416,6.966724 9.28125,6.6875 9.559795,6.547888 9.8547231,6.440553 10.15625,6.34375 9.9000482,6.443972 9.6695391,6.580022 9.4375,6.71875 c -0.00741,0.0044 -0.023866,-0.0045 -0.03125,0 -0.031933,0.0193 -0.062293,0.04251 -0.09375,0.0625 -0.120395,0.0767 -0.2310226,0.163513 -0.34375,0.25 -0.1061728,0.0808 -0.2132809,0.161112 -0.3125,0.25 C 8.4783201,7.442683 8.3087904,7.626638 8.15625,7.8125 8.0486711,7.942755 7.9378561,8.077785 7.84375,8.21875 7.818661,8.25713 7.805304,8.30462 7.78125,8.34375 7.716487,8.446782 7.6510225,8.548267 7.59375,8.65625 7.4927417,8.850956 7.3880752,9.071951 7.3125,9.28125 7.30454,9.30306 7.288911,9.3218 7.28125,9.34375 7.2494249,9.4357 7.2454455,9.530581 7.21875,9.625 7.1884177,9.731618 7.1483606,9.828031 7.125,9.9375 7.0521214,10.279012 7,10.635705 7,11 l 0,2 0,68 0,2 c 0,2.781848 2.2181517,5 5,5 l 2,0 68,0 2,0 c 2.781848,0 5,-2.218152 5,-5 l 0,-2 0,-68 0,-2 C 89,10.635705 88.94788,10.279012 88.875,9.9375 88.83085,9.730607 88.78662,9.539842 88.71875,9.34375 88.71105,9.3218 88.69545,9.30306 88.6875,9.28125 88.62476,9.107511 88.549117,8.913801 88.46875,8.75 88.42717,8.6672 88.38971,8.580046 88.34375,8.5 88.28915,8.40279 88.216976,8.31165 88.15625,8.21875 88.06214,8.077785 87.951329,7.942755 87.84375,7.8125 87.700576,7.63805 87.540609,7.465502 87.375,7.3125 87.36383,7.3023 87.35502,7.29135 87.34375,7.28125 87.205364,7.155694 87.058659,7.046814 86.90625,6.9375 86.803679,6.86435 86.701932,6.784136 86.59375,6.71875 c -0.0074,-0.0045 -0.02384,0.0044 -0.03125,0 -0.232039,-0.138728 -0.462548,-0.274778 -0.71875,-0.375 0.301527,0.0968 0.596455,0.204138 0.875,0.34375 0.55709,0.279224 1.060053,0.665694 1.5,1.09375 0.219973,0.214028 0.409366,0.441865 0.59375,0.6875 0.184384,0.245635 0.355408,0.507743 0.5,0.78125 0.14012,0.265048 0.276135,0.524729 0.375,0.8125 0.01041,0.03078 0.02133,0.06274 0.03125,0.09375 0.09046,0.278085 0.1388,0.579404 0.1875,0.875 C 89.95865,11.3493 90,11.665279 90,12 l 0,2 0,68 0,2 c 0,3.324 -2.676,6 -6,6 l -72,0 z"
       inkscape:connector-curvature="0"
       id="path3615"
       style="opacity:0.6;fill:url(#radialGradient3619);fill-opacity:1;fill-rule:nonzero;stroke:none" />
    <rect
       width="84"
       height="84"
       rx="6"
       ry="6"
       x="6"
       y="106"
       id="rect2841"
       style="fill:url(#linearGradient2843);fill-opacity:1;fill-rule:nonzero;stroke:none" />
    <rect
       width="76"
       height="76"
       rx="4"
       ry="4"
       x="10"
       y="110"
       id="rect3634"
       style="fill:#ff0000;fill-opacity:1;fill-rule:nonzero;stroke:none" />
    <path
       d="m 14,9 c -2.752703,0 -5,2.247297 -5,5 l 0,68 c 0,2.752703 2.247297,5 5,5 l 68,0 c 2.752703,0 5,-2.247297 5,-5 L 87,14 C 87,11.247297 84.752703,9 82,9 L 14,9 z m 0,2 68,0 c 1.679297,0 3,1.320703 3,3 l 0,68 c 0,1.679297 -1.320703,3 -3,3 l -68,0 c -1.679297,0 -3,-1.320703 -3,-3 l 0,-68 c 0,-1.679297 1.320703,-3 3,-3 z"
       inkscape:connector-curvature="0"
       transform="translate(-110,0)"
       clip-path="url(#clipPath3649)"
       id="rect3647"
       style="font-size:medium;font-style:normal;font-variant:normal;font-weight:normal;font-stretch:normal;text-indent:0;text-align:start;text-decoration:none;line-height:normal;letter-spacing:normal;word-spacing:normal;text-transform:none;direction:ltr;block-progression:tb;writing-mode:lr-tb;text-anchor:start;color:#000000;fill:#000000;fill-opacity:1;stroke:none;stroke-width:2;marker:none;visibility:visible;display:inline;overflow:visible;filter:url(#filter3657);enable-background:accumulate;font-family:Abandoned Bitplane;-inkscape-font-specification:Abandoned Bitplane" />
    <path
       d="m 14.089286,10 c -2.216,0 -4,1.784 -4,4 l 0,68 c 0,2.216 1.784,4 4,4 l 68,0 c 2.216,0 4,-1.784 4,-4 l 0,-68 c 0,-2.216 -1.784,-4 -4,-4 l -68,0 z m 0,2 68,0 c 1.140301,0 2,0.859699 2,2 l 0,68 c 0,1.140301 -0.859699,2 -2,2 l -68,0 c -1.140301,0 -2,-0.859699 -2,-2 l 0,-68 c 0,-1.140301 0.859699,-2 2,-2 z"
       inkscape:connector-curvature="0"
       id="path3709"
       style="opacity:0.16000001;fill:#000000;fill-opacity:1;fill-rule:nonzero;stroke:none" />
    <path
       d="m 14,10 c -2.216,0 -4,1.784 -4,4 l 0,68 c 0,2.216 1.784,4 4,4 l 68,0 c 2.216,0 4,-1.784 4,-4 l 0,-68 c 0,-2.216 -1.784,-4 -4,-4 l -68,0 z m 0,1 68,0 c 1.673848,0 3,1.326152 3,3 l 0,68 c 0,1.673848 -1.326152,3 -3,3 l -68,0 c -1.673848,0 -3,-1.326152 -3,-3 l 0,-68 c 0,-1.673848 1.326152,-3 3,-3 z"
       inkscape:connector-curvature="0"
       id="path3707"
       style="opacity:0.36000001;fill:#000000;fill-opacity:1;fill-rule:nonzero;stroke:none" />
  </g>
  <path
     style="color:#000000;display:inline;overflow:visible;visibility:visible;opacity:0.1;fill:#000000;fill-opacity:1;fill-rule:nonzero;stroke:none;stroke-width:1.5;marker:none;enable-background:accumulate"
     id="path3975"
     inkscape:connector-curvature="0"
     d="m 21.889324,6.9062492 c -5.81796,-0.1561005 -10.633358,5.4883348 -9.984375,11.1871138 0.03421,21.314367 -0.06855,42.633056 0.05158,63.944711 0.413841,5.504077 5.842663,9.71475 11.263572,9.055675 17.302173,-0.03483 34.608841,0.06979 51.908194,-0.05256 5.520713,-0.442228 9.606864,-5.959383 8.964144,-11.356347 -0.03422,-21.240433 0.06855,-42.48519 -0.05159,-63.722913 -0.413841,-5.504077 -5.842663,-9.7147498 -11.263572,-9.0556753 -16.962655,0 -33.925309,0 -50.887963,0 z m 5.203125,15.1874998 c 1.412614,-0.0013 2.189497,-0.194593 0.703125,0.703125 -0.922118,1.501356 -0.688302,0.855143 -0.703125,-0.627661 v -0.07546 z m 4.03125,0 c 12.593749,0 25.1875,0 37.78125,0 0,16.625 0,33.250001 0,49.875 C 66.35666,68.058714 63.320033,64.450487 60.584555,60.656141 51.052097,48.005169 41.618072,35.249807 32.024386,22.663796 31.769116,22.419251 31.443445,22.24913 31.123699,22.093749 Z m 7.96875,30.1875 c 2.90625,3.875 5.8125,7.750001 8.71875,11.625 -2.90625,0 -5.8125,0 -8.71875,0 0,-3.874999 0,-7.75 0,-11.625 z m 29.8125,21.703125 c 0.331642,1.581644 -0.183717,2.316284 -1.828125,1.921875 0.837625,-0.35416 1.578108,-1.029579 1.828125,-1.921875 z m -41.8125,0.04687 c 0.02216,0.914252 1.681047,1.781402 1.653202,1.875 -1.92277,0.270405 -1.719771,-0.167853 -1.653202,-1.875 z" />
  <path
     inkscape:connector-curvature="0"
     style="color:#000000;display:inline;overflow:visible;visibility:visible;opacity:0.15;fill:#000000;fill-opacity:1;fill-rule:nonzero;stroke:none;stroke-width:1.5;marker:none;enable-background:accumulate"
     id="path3971"
     d="m 21.889324,8.4531242 c -4.656794,0 -8.4375,3.8477248 -8.4375,8.5312498 v 64.03125 c 0,4.683525 3.780706,8.53125 8.4375,8.53125 h 52.21875 c 4.656793,0 8.4375,-3.847725 8.4375,-8.53125 v -64.03125 c 0,-4.683525 -3.780707,-8.5312498 -8.4375,-8.5312498 z m 5.109375,12.0937498 h 1.5 39 1.5 c 0.830209,0 1.453125,0.622916 1.453125,1.453125 v 1.5 51 1.5 c 0,0.83021 -0.622916,1.453125 -1.453125,1.453125 h -1.5 -39 -1.5 c -0.83021,0 -1.453125,-0.622915 -1.453125,-1.453125 v -1.5 -51 -1.5 c 0,-0.830209 0.622915,-1.453125 1.453125,-1.453125 z m 2.71875,2.90625 a 1.5499719,1.5499719 0 0 0 -1.265625,1.546875 v 48 a 1.5499719,1.5499719 0 0 0 1.546875,1.546875 h 36 a 1.5499719,1.5499719 0 0 0 1.21875,-2.484375 l -36,-48 a 1.5499719,1.5499719 0 0 0 -1.5,-0.609375 z m 7.828125,24.1875 13.359375,17.8125 H 37.545574 Z" />
  <path
     style="color:#000000;display:inline;overflow:visible;visibility:visible;opacity:0.3;fill:#000000;fill-opacity:1;fill-rule:nonzero;stroke:none;stroke-width:1.5;marker:none;enable-background:accumulate"
     id="path3965"
     inkscape:connector-curvature="0"
     d="m 21.889324,9.9999992 c -3.808751,0 -6.890625,3.1261608 -6.890625,6.9843748 v 64.03125 c 0,3.858215 3.081874,6.984375 6.890625,6.984375 h 52.21875 c 3.80875,0 6.890625,-3.12616 6.890625,-6.984375 v -64.03125 c 0,-3.858214 -3.081875,-6.9843748 -6.890625,-6.9843748 z m 5.109375,8.9999998 h 1.5 39 1.5 c 1.662,0 3,1.338 3,3 v 1.5 51 1.5 c 0,1.662 -1.338,3 -3,3 h -1.5 -39 -1.5 c -1.662,0 -3,-1.338 -3,-3 v -1.5 -51 -1.5 c 0,-1.662 1.338,-3 3,-3 z m 3,6 v 48 h 36 z m 6,18 18,24 h -18 z" />
  <path
     inkscape:connector-curvature="0"
     style="opacity:0.1;fill:#000000;fill-opacity:1;stroke:none"
     id="path3778"
     d="m 123.78125,22.9375 c -4.8e-4,2.5e-5 -0.0933,0.0312 -0.0937,0.03125 a 1.0139272,1.0139272 0 0 0 -0.125,0 c -7.6e-4,1.72e-4 -0.18675,0.06226 -0.1875,0.0625 -7.5e-4,2.36e-4 -0.15553,0.0622 -0.15625,0.0625 -7.2e-4,2.99e-4 -0.15555,0.06214 -0.15625,0.0625 -7e-4,3.59e-4 -0.15559,0.09333 -0.15625,0.09375 -6.6e-4,4.17e-4 -0.12438,0.09328 -0.125,0.09375 -6.2e-4,4.72e-4 -0.15567,0.124477 -0.15625,0.125 -5.8e-4,5.23e-4 -0.12446,0.124429 -0.125,0.125 -5.3e-4,5.71e-4 -0.0933,0.124386 -0.0937,0.125 -4.8e-4,6.14e-4 -0.12457,0.124347 -0.125,0.125 -4.3e-4,6.53e-4 -0.0621,0.155562 -0.0625,0.15625 -3.7e-4,6.88e-4 -0.0934,0.155533 -0.0937,0.15625 -3.1e-4,7.17e-4 -0.0623,0.155509 -0.0625,0.15625 -2.5e-4,7.41e-4 -0.0623,0.186741 -0.0625,0.1875 -1.9e-4,7.59e-4 -0.0311,0.155477 -0.0312,0.15625 -1.2e-4,7.73e-4 6e-5,0.18672 0,0.1875 -6e-5,7.8e-4 -1e-5,0.155468 0,0.15625 v 6 c 1e-5,8.89e-4 -1e-4,0.217866 0,0.21875 1e-4,8.84e-4 0.0311,0.186629 0.0312,0.1875 1.8e-4,8.71e-4 0.0622,0.18665 0.0625,0.1875 2.6e-4,8.5e-4 0.0622,0.18668 0.0625,0.1875 3.4e-4,8.2e-4 0.0621,0.186717 0.0625,0.1875 4.2e-4,7.83e-4 0.1245,0.155512 0.125,0.15625 5e-4,7.38e-4 0.12444,0.155563 0.125,0.15625 5.6e-4,6.87e-4 0.12437,0.155621 0.125,0.15625 6.3e-4,6.29e-4 0.15556,0.124435 0.15625,0.125 6.9e-4,5.65e-4 0.15551,0.124504 0.15625,0.125 7.4e-4,4.96e-4 0.15547,0.124578 0.15625,0.125 7.8e-4,4.22e-4 0.18668,0.06216 0.1875,0.0625 8.2e-4,3.44e-4 0.18665,0.06224 0.1875,0.0625 5.5e-4,1.71e-4 0.0682,0.01662 0.125,0.03125 -0.0368,0.0099 -0.15562,0.0623 -0.15625,0.0625 -7.5e-4,2.36e-4 -0.15553,0.0622 -0.15625,0.0625 -7.2e-4,2.99e-4 -0.15555,0.06214 -0.15625,0.0625 -7e-4,3.59e-4 -0.15559,0.09333 -0.15625,0.09375 -6.6e-4,4.17e-4 -0.12438,0.09328 -0.125,0.09375 -6.2e-4,4.72e-4 -0.15567,0.124477 -0.15625,0.125 -5.8e-4,5.23e-4 -0.12446,0.124429 -0.125,0.125 -5.3e-4,5.71e-4 -0.0933,0.124386 -0.0937,0.125 -4.8e-4,6.14e-4 -0.12457,0.124347 -0.125,0.125 -4.3e-4,6.53e-4 -0.0621,0.155562 -0.0625,0.15625 -3.7e-4,6.88e-4 -0.0934,0.155533 -0.0937,0.15625 -3.1e-4,7.17e-4 -0.0623,0.155509 -0.0625,0.15625 -2.5e-4,7.41e-4 -0.0623,0.186741 -0.0625,0.1875 -1.9e-4,7.59e-4 -0.0311,0.155477 -0.0312,0.15625 -1.2e-4,7.73e-4 6e-5,0.18672 0,0.1875 -6e-5,7.8e-4 -1e-5,0.155468 0,0.15625 v 6 c 1e-5,8.89e-4 -1e-4,0.217866 0,0.21875 1e-4,8.84e-4 0.0311,0.186629 0.0312,0.1875 1.8e-4,8.71e-4 0.0622,0.18665 0.0625,0.1875 2.6e-4,8.5e-4 0.0622,0.18668 0.0625,0.1875 3.4e-4,8.2e-4 0.0621,0.186717 0.0625,0.1875 4.2e-4,7.83e-4 0.1245,0.155512 0.125,0.15625 5e-4,7.38e-4 0.12444,0.155563 0.125,0.15625 5.6e-4,6.87e-4 0.12437,0.155621 0.125,0.15625 6.3e-4,6.29e-4 0.15556,0.124435 0.15625,0.125 6.9e-4,5.65e-4 0.15551,0.124504 0.15625,0.125 7.4e-4,4.96e-4 0.15547,0.124578 0.15625,0.125 7.8e-4,4.22e-4 0.18668,0.06216 0.1875,0.0625 8.2e-4,3.44e-4 0.18665,0.06224 0.1875,0.0625 5.5e-4,1.71e-4 0.0682,0.01662 0.125,0.03125 -0.0368,0.0099 -0.15562,0.0623 -0.15625,0.0625 -7.5e-4,2.36e-4 -0.15553,0.0622 -0.15625,0.0625 -7.2e-4,2.99e-4 -0.15555,0.06214 -0.15625,0.0625 -7e-4,3.59e-4 -0.15559,0.09333 -0.15625,0.09375 -6.6e-4,4.17e-4 -0.12438,0.09328 -0.125,0.09375 -6.2e-4,4.72e-4 -0.15567,0.124477 -0.15625,0.125 -5.8e-4,5.23e-4 -0.12446,0.124429 -0.125,0.125 -5.3e-4,5.71e-4 -0.0933,0.124386 -0.0937,0.125 -4.8e-4,6.14e-4 -0.12457,0.124347 -0.125,0.125 -4.3e-4,6.53e-4 -0.0621,0.155562 -0.0625,0.15625 -3.7e-4,6.88e-4 -0.0934,0.155533 -0.0937,0.15625 -3.1e-4,7.17e-4 -0.0623,0.155509 -0.0625,0.15625 -2.5e-4,7.41e-4 -0.0623,0.186741 -0.0625,0.1875 -1.9e-4,7.59e-4 -0.0311,0.155477 -0.0312,0.15625 -1.2e-4,7.73e-4 6e-5,0.18672 0,0.1875 -6e-5,7.8e-4 -1e-5,0.155468 0,0.15625 v 6 c 1e-5,8.89e-4 -1e-4,0.217866 0,0.21875 1e-4,8.84e-4 0.0311,0.186629 0.0312,0.1875 1.8e-4,8.71e-4 0.0622,0.18665 0.0625,0.1875 2.6e-4,8.5e-4 0.0622,0.18668 0.0625,0.1875 3.4e-4,8.2e-4 0.0621,0.186717 0.0625,0.1875 4.2e-4,7.83e-4 0.1245,0.155512 0.125,0.15625 5e-4,7.38e-4 0.12444,0.155563 0.125,0.15625 5.6e-4,6.87e-4 0.12437,0.155621 0.125,0.15625 6.3e-4,6.29e-4 0.15556,0.124435 0.15625,0.125 6.9e-4,5.65e-4 0.15551,0.124504 0.15625,0.125 7.4e-4,4.96e-4 0.15547,0.124578 0.15625,0.125 7.8e-4,4.22e-4 0.18668,0.06216 0.1875,0.0625 8.2e-4,3.44e-4 0.18665,0.06224 0.1875,0.0625 8.5e-4,2.63e-4 0.18663,0.06232 0.1875,0.0625 8.7e-4,1.8e-4 0.18662,0.03115 0.1875,0.03125 8.8e-4,9.5e-5 0.21786,-9e-6 0.21875,0 h 48 c 8.9e-4,-9e-6 0.21787,9.5e-5 0.21875,0 8.8e-4,-9.5e-5 0.18663,-0.03107 0.1875,-0.03125 8.7e-4,-1.8e-4 0.18665,-0.06224 0.1875,-0.0625 8.5e-4,-2.63e-4 0.18668,-0.06216 0.1875,-0.0625 8.2e-4,-3.44e-4 0.18672,-0.06208 0.1875,-0.0625 7.8e-4,-4.22e-4 0.15551,-0.124504 0.15625,-0.125 7.4e-4,-4.96e-4 0.15556,-0.124435 0.15625,-0.125 6.9e-4,-5.65e-4 0.15562,-0.124371 0.15625,-0.125 6.3e-4,-6.29e-4 0.12443,-0.155563 0.125,-0.15625 5.6e-4,-6.87e-4 0.1245,-0.155512 0.125,-0.15625 5e-4,-7.38e-4 0.12458,-0.155467 0.125,-0.15625 4.2e-4,-7.83e-4 0.0622,-0.18668 0.0625,-0.1875 3.4e-4,-8.2e-4 0.0622,-0.18665 0.0625,-0.1875 2.6e-4,-8.5e-4 0.0623,-0.186629 0.0625,-0.1875 1.8e-4,-8.71e-4 0.0311,-0.186616 0.0312,-0.1875 9e-5,-8.84e-4 -1e-5,-0.217861 0,-0.21875 v -6 c -1e-5,-8.89e-4 9e-5,-0.217866 0,-0.21875 -1e-4,-8.84e-4 -0.0311,-0.186629 -0.0312,-0.1875 -1.8e-4,-8.71e-4 -0.0622,-0.18665 -0.0625,-0.1875 -2.6e-4,-8.5e-4 -0.0622,-0.18668 -0.0625,-0.1875 -3.4e-4,-8.2e-4 -0.0621,-0.186717 -0.0625,-0.1875 -4.2e-4,-7.83e-4 -0.1245,-0.155512 -0.125,-0.15625 -5e-4,-7.38e-4 -0.12444,-0.155563 -0.125,-0.15625 -5.7e-4,-6.87e-4 -0.12437,-0.155621 -0.125,-0.15625 -6.3e-4,-6.29e-4 -0.15556,-0.124435 -0.15625,-0.125 -6.9e-4,-5.65e-4 -0.15551,-0.124504 -0.15625,-0.125 -7.4e-4,-4.96e-4 -0.15547,-0.124578 -0.15625,-0.125 -7.8e-4,-4.22e-4 -0.18668,-0.06216 -0.1875,-0.0625 -8.2e-4,-3.44e-4 -0.18665,-0.06224 -0.1875,-0.0625 -8.5e-4,-2.63e-4 -0.18663,-0.06232 -0.1875,-0.0625 8.7e-4,-1.8e-4 0.18665,-0.06224 0.1875,-0.0625 8.5e-4,-2.63e-4 0.18668,-0.06216 0.1875,-0.0625 8.2e-4,-3.44e-4 0.18672,-0.06208 0.1875,-0.0625 7.8e-4,-4.22e-4 0.15551,-0.124504 0.15625,-0.125 7.4e-4,-4.96e-4 0.15556,-0.124435 0.15625,-0.125 6.9e-4,-5.65e-4 0.15562,-0.124371 0.15625,-0.125 6.3e-4,-6.29e-4 0.12443,-0.155563 0.125,-0.15625 5.6e-4,-6.87e-4 0.1245,-0.155512 0.125,-0.15625 5e-4,-7.38e-4 0.12458,-0.155467 0.125,-0.15625 4.2e-4,-7.83e-4 0.0622,-0.18668 0.0625,-0.1875 3.4e-4,-8.2e-4 0.0622,-0.18665 0.0625,-0.1875 2.6e-4,-8.5e-4 0.0623,-0.186629 0.0625,-0.1875 1.8e-4,-8.71e-4 0.0311,-0.186616 0.0312,-0.1875 9e-5,-8.84e-4 -1e-5,-0.217861 0,-0.21875 v -6 c -1e-5,-8.89e-4 9e-5,-0.217866 0,-0.21875 -1e-4,-8.84e-4 -0.0311,-0.186629 -0.0312,-0.1875 -1.8e-4,-8.71e-4 -0.0622,-0.18665 -0.0625,-0.1875 -2.6e-4,-8.5e-4 -0.0622,-0.18668 -0.0625,-0.1875 -3.4e-4,-8.2e-4 -0.0621,-0.186717 -0.0625,-0.1875 -4.2e-4,-7.83e-4 -0.1245,-0.155512 -0.125,-0.15625 -5e-4,-7.38e-4 -0.12444,-0.155563 -0.125,-0.15625 -5.7e-4,-6.87e-4 -0.12437,-0.155621 -0.125,-0.15625 -6.3e-4,-6.29e-4 -0.15556,-0.124435 -0.15625,-0.125 -6.9e-4,-5.65e-4 -0.15551,-0.124504 -0.15625,-0.125 -7.4e-4,-4.96e-4 -0.15547,-0.124578 -0.15625,-0.125 -7.8e-4,-4.22e-4 -0.18668,-0.06216 -0.1875,-0.0625 -8.2e-4,-3.44e-4 -0.18665,-0.06224 -0.1875,-0.0625 -8.5e-4,-2.63e-4 -0.18663,-0.06232 -0.1875,-0.0625 8.7e-4,-1.8e-4 0.18665,-0.06224 0.1875,-0.0625 8.5e-4,-2.63e-4 0.18668,-0.06216 0.1875,-0.0625 8.2e-4,-3.44e-4 0.18672,-0.06208 0.1875,-0.0625 7.8e-4,-4.22e-4 0.15551,-0.124504 0.15625,-0.125 7.4e-4,-4.96e-4 0.15556,-0.124435 0.15625,-0.125 6.9e-4,-5.65e-4 0.15562,-0.124371 0.15625,-0.125 6.3e-4,-6.29e-4 0.12443,-0.155563 0.125,-0.15625 5.6e-4,-6.87e-4 0.1245,-0.155512 0.125,-0.15625 5e-4,-7.38e-4 0.12458,-0.155467 0.125,-0.15625 4.2e-4,-7.83e-4 0.0622,-0.18668 0.0625,-0.1875 3.4e-4,-8.2e-4 0.0622,-0.18665 0.0625,-0.1875 2.6e-4,-8.5e-4 0.0623,-0.186629 0.0625,-0.1875 1.8e-4,-8.71e-4 0.0311,-0.186616 0.0312,-0.1875 9e-5,-8.84e-4 -1e-5,-0.217861 0,-0.21875 v -6 c -1e-5,-8.89e-4 9e-5,-0.217866 0,-0.21875 -1e-4,-8.84e-4 -0.0311,-0.186629 -0.0312,-0.1875 -1.8e-4,-8.71e-4 -0.0622,-0.18665 -0.0625,-0.1875 -2.6e-4,-8.5e-4 -0.0622,-0.18668 -0.0625,-0.1875 -3.4e-4,-8.2e-4 -0.0621,-0.186717 -0.0625,-0.1875 -4.2e-4,-7.83e-4 -0.1245,-0.155512 -0.125,-0.15625 -5e-4,-7.38e-4 -0.12444,-0.155563 -0.125,-0.15625 -5.7e-4,-6.87e-4 -0.12437,-0.155621 -0.125,-0.15625 -6.3e-4,-6.29e-4 -0.15556,-0.124435 -0.15625,-0.125 -6.9e-4,-5.65e-4 -0.15551,-0.124504 -0.15625,-0.125 -7.4e-4,-4.96e-4 -0.15547,-0.124578 -0.15625,-0.125 -7.8e-4,-4.22e-4 -0.18668,-0.06216 -0.1875,-0.0625 -8.2e-4,-3.44e-4 -0.18665,-0.06224 -0.1875,-0.0625 -8.5e-4,-2.63e-4 -0.18663,-0.06232 -0.1875,-0.0625 -8.7e-4,-1.8e-4 -0.18662,-0.03115 -0.1875,-0.03125 -8.8e-4,-9.5e-5 -0.21786,9e-6 -0.21875,0 h -47.90625 c -4.8e-4,-5.1e-5 -0.0933,-0.03122 -0.0937,-0.03125 -4.8e-4,-2.5e-5 -0.12452,0 -0.125,0 -4.8e-4,0 -0.0933,-2.5e-5 -0.0937,0 z m 36.15625,30.96875 c -5.1e-4,1.9e-5 -0.12449,0.0312 -0.125,0.03125 -8.5e-4,8.5e-5 -0.18666,0.03108 -0.1875,0.03125 -8.4e-4,1.65e-4 -0.18668,0.03101 -0.1875,0.03125 -8.2e-4,2.43e-4 -0.1867,0.06218 -0.1875,0.0625 -8e-4,3.18e-4 -0.18674,0.09336 -0.1875,0.09375 -7.6e-4,3.91e-4 -0.15553,0.09329 -0.15625,0.09375 -7.2e-4,4.61e-4 -0.15557,0.09322 -0.15625,0.09375 -6.8e-4,5.27e-4 -0.15562,0.124412 -0.15625,0.125 -6.3e-4,5.88e-4 -0.12443,0.155607 -0.125,0.15625 -5.7e-4,6.43e-4 -0.1245,0.124306 -0.125,0.125 -5.1e-4,6.94e-4 -0.0933,0.186762 -0.0937,0.1875 -4.4e-4,7.38e-4 -0.0934,0.155475 -0.0937,0.15625 -3.7e-4,7.75e-4 -0.0622,0.186694 -0.0625,0.1875 -2.9e-4,8.06e-4 -0.0623,0.18667 -0.0625,0.1875 -2.2e-4,8.3e-4 -0.0624,0.186653 -0.0625,0.1875 -1.4e-4,8.47e-4 6e-5,0.186644 0,0.1875 -5e-5,7.13e-4 9.4e-4,0.111661 0,0.15625 -1.9e-4,0.0089 0,0.03111 0,0.03125 v 2.9375 h -19.9375 V 56 c 0,-4.81e-4 3e-5,-0.12452 0,-0.125 -3e-5,-4.8e-4 5e-5,-0.09327 0,-0.09375 -5e-5,-4.78e-4 8e-5,-0.09327 0,-0.09375 -8e-5,-4.75e-4 -0.0311,-0.12453 -0.0312,-0.125 -1e-4,-4.7e-4 -0.0311,-0.09329 -0.0312,-0.09375 -1.3e-4,-4.64e-4 -0.0311,-0.09329 -0.0312,-0.09375 -1.5e-4,-4.57e-4 -0.0311,-0.124552 -0.0312,-0.125 -1.7e-4,-4.48e-4 -0.031,-0.09331 -0.0312,-0.09375 -2e-4,-4.39e-4 -0.0623,-0.09332 -0.0625,-0.09375 -2.2e-4,-4.28e-4 -0.0623,-0.09334 -0.0625,-0.09375 -2.4e-4,-4.15e-4 -0.031,-0.09335 -0.0312,-0.09375 -2.6e-4,-4.02e-4 -0.0622,-0.09336 -0.0625,-0.09375 -2.8e-4,-3.88e-4 -0.0622,-0.06213 -0.0625,-0.0625 -3e-4,-3.72e-4 -0.0934,-0.09339 -0.0937,-0.09375 -3.2e-4,-3.56e-4 -0.0622,-0.09341 -0.0625,-0.09375 -3.4e-4,-3.39e-4 -0.0934,-0.06218 -0.0937,-0.0625 -3.6e-4,-3.2e-4 -0.0621,-0.0622 -0.0625,-0.0625 -3.8e-4,-3.01e-4 -0.0934,-0.06222 -0.0937,-0.0625 -3.9e-4,-2.81e-4 -0.0933,-0.06224 -0.0937,-0.0625 -4.1e-4,-2.6e-4 -0.0933,-0.06226 -0.0937,-0.0625 -4.2e-4,-2.38e-4 -0.0933,-0.06228 -0.0937,-0.0625 -4.3e-4,-2.16e-4 -0.0933,-0.03106 -0.0937,-0.03125 -4.4e-4,-1.93e-4 -0.0933,-0.03108 -0.0937,-0.03125 -4.5e-4,-1.7e-4 -0.0933,-0.06235 -0.0937,-0.0625 -4.6e-4,-1.46e-4 -0.12454,1.22e-4 -0.125,0 -4.7e-4,-1.22e-4 -0.0933,-0.03115 -0.0937,-0.03125 -4.7e-4,-9.7e-5 -0.0933,-0.03118 -0.0937,-0.03125 -4.8e-4,-7.3e-5 -0.12452,4.8e-5 -0.125,0 -4.8e-4,-4.8e-5 -0.0933,-0.03123 -0.0937,-0.03125 -4.8e-4,-2.2e-5 -0.12452,-3e-6 -0.125,0 -4.8e-4,3e-6 -0.0933,-2.8e-5 -0.0937,0 -3.7e-4,2.1e-5 -0.0642,0.02875 -0.0937,0.03125 -0.009,7.69e-4 -0.0311,-1.2e-5 -0.0312,0 -0.0437,0.0057 -0.12439,-1.05e-4 -0.125,0 -7.6e-4,1.31e-4 -0.18676,0.06231 -0.1875,0.0625 -7.4e-4,1.94e-4 -0.15553,0.03099 -0.15625,0.03125 -7.3e-4,2.56e-4 -0.15555,0.06218 -0.15625,0.0625 -7e-4,3.16e-4 -0.15558,0.09338 -0.15625,0.09375 -6.7e-4,3.73e-4 -0.15561,0.09332 -0.15625,0.09375 -6.4e-4,4.28e-4 -0.1244,0.09327 -0.125,0.09375 -6e-4,4.8e-4 -0.12444,0.09322 -0.125,0.09375 a 1.0139272,1.0139272 0 0 0 -0.0312,0.03125 l -8,8 c -6.2e-4,6.19e-4 -0.12445,0.155575 -0.125,0.15625 -5.5e-4,6.75e-4 -0.12451,0.155526 -0.125,0.15625 -4.9e-4,7.24e-4 -0.0933,0.155482 -0.0937,0.15625 -4.2e-4,7.68e-4 -0.0934,0.186696 -0.0937,0.1875 -3.4e-4,8.04e-4 -0.0622,0.186667 -0.0625,0.1875 -2.6e-4,8.33e-4 -0.0623,0.186646 -0.0625,0.1875 -1.8e-4,8.54e-4 -0.0311,0.186632 -0.0312,0.1875 -1e-4,8.68e-4 2e-5,0.186626 0,0.1875 -2e-5,8.74e-4 -6e-5,0.186629 0,0.1875 6e-5,8.71e-4 0.0311,0.217889 0.0312,0.21875 1.5e-4,8.61e-4 0.031,0.186657 0.0312,0.1875 2.3e-4,8.43e-4 0.0622,0.186682 0.0625,0.1875 3.1e-4,8.18e-4 0.0934,0.155465 0.0937,0.15625 3.8e-4,7.85e-4 0.0933,0.186755 0.0937,0.1875 4.6e-4,7.45e-4 0.0932,0.155552 0.0937,0.15625 5.2e-4,6.98e-4 0.12441,0.155605 0.125,0.15625 l 8,9 c 4.6e-4,5.08e-4 0.0933,0.09328 0.0937,0.09375 5e-4,4.72e-4 0.12447,0.124566 0.125,0.125 5.3e-4,4.34e-4 0.12444,0.09336 0.125,0.09375 5.6e-4,3.93e-4 0.12441,0.06215 0.125,0.0625 5.9e-4,3.5e-4 0.12438,0.09345 0.125,0.09375 6.1e-4,3.05e-4 0.15561,0.06224 0.15625,0.0625 6.4e-4,2.58e-4 0.1556,0.03104 0.15625,0.03125 6.5e-4,2.1e-4 0.12433,0.06234 0.125,0.0625 6.7e-4,1.6e-4 0.15557,0.03114 0.15625,0.03125 6.8e-4,1.1e-4 0.15557,-5.9e-5 0.15625,0 6.8e-4,5.9e-5 0.15556,-8e-6 0.15625,0 6.9e-4,8e-6 0.15556,4.3e-5 0.15625,0 6.8e-4,-4.3e-5 0.15557,9.5e-5 0.15625,0 6.8e-4,-9.5e-5 0.15558,-0.0311 0.15625,-0.03125 6.7e-4,-1.45e-4 0.12434,-0.03105 0.125,-0.03125 6.6e-4,-1.95e-4 0.15561,-0.06226 0.15625,-0.0625 6.4e-4,-2.43e-4 0.15563,-0.06221 0.15625,-0.0625 6.2e-4,-2.91e-4 0.1244,-0.06216 0.125,-0.0625 6e-4,-3.36e-4 0.12443,-0.09337 0.125,-0.09375 5.7e-4,-3.8e-4 0.12446,-0.09333 0.125,-0.09375 5.4e-4,-4.22e-4 0.12449,-0.09329 0.125,-0.09375 5.1e-4,-4.61e-4 0.0933,-0.09325 0.0937,-0.09375 4.7e-4,-4.97e-4 0.12457,-0.124469 0.125,-0.125 4.3e-4,-5.31e-4 0.0934,-0.124438 0.0937,-0.125 3.9e-4,-5.62e-4 0.0622,-0.12441 0.0625,-0.125 3.5e-4,-5.9e-4 0.0934,-0.124385 0.0937,-0.125 3e-4,-6.15e-4 0.0622,-0.155614 0.0625,-0.15625 2.6e-4,-6.36e-4 0.031,-0.124347 0.0312,-0.125 2.1e-4,-6.53e-4 0.0623,-0.155583 0.0625,-0.15625 1.6e-4,-6.67e-4 0.0311,-0.155573 0.0312,-0.15625 1.1e-4,-6.77e-4 -6e-5,-0.155567 0,-0.15625 6e-5,-6.83e-4 -1e-5,-0.155564 0,-0.15625 v -3.96875 h 19.9375 V 73 c 1e-5,6.86e-4 -6e-5,0.155567 0,0.15625 6e-5,6.83e-4 -1.1e-4,0.155573 0,0.15625 1.1e-4,6.77e-4 0.0311,0.155583 0.0312,0.15625 1.6e-4,6.67e-4 0.0623,0.155597 0.0625,0.15625 2.1e-4,6.53e-4 0.031,0.124364 0.0312,0.125 2.6e-4,6.36e-4 0.0622,0.155635 0.0625,0.15625 3e-4,6.15e-4 0.0934,0.12441 0.0937,0.125 3.5e-4,5.9e-4 0.0621,0.124438 0.0625,0.125 3.9e-4,5.62e-4 0.0933,0.124469 0.0937,0.125 4.3e-4,5.31e-4 0.12453,0.124503 0.125,0.125 4.7e-4,4.97e-4 0.0932,0.09329 0.0937,0.09375 5.1e-4,4.61e-4 0.12446,0.09333 0.125,0.09375 5.4e-4,4.22e-4 0.12443,0.09337 0.125,0.09375 5.7e-4,3.8e-4 0.1244,0.09341 0.125,0.09375 6e-4,3.36e-4 0.12438,0.06221 0.125,0.0625 6.2e-4,2.91e-4 0.15561,0.06226 0.15625,0.0625 6.4e-4,2.43e-4 0.15559,0.0623 0.15625,0.0625 6.6e-4,1.95e-4 0.12433,0.0311 0.125,0.03125 6.7e-4,1.45e-4 0.15557,0.03115 0.15625,0.03125 6.8e-4,9.5e-5 0.15556,-4.3e-5 0.15625,0 6.8e-4,4.3e-5 0.15556,8e-6 0.15625,0 6.9e-4,-8e-6 0.15557,5.9e-5 0.15625,0 6.8e-4,-5.9e-5 0.15557,1.1e-4 0.15625,0 6.8e-4,-1.1e-4 0.15558,-0.03109 0.15625,-0.03125 6.7e-4,-1.6e-4 0.12435,-0.06229 0.125,-0.0625 6.5e-4,-2.1e-4 0.15561,-0.03099 0.15625,-0.03125 6.4e-4,-2.58e-4 0.15563,-0.0622 0.15625,-0.0625 6.1e-4,-3.05e-4 0.12441,-0.0934 0.125,-0.09375 5.9e-4,-3.5e-4 0.12444,-0.06211 0.125,-0.0625 5.6e-4,-3.93e-4 0.12447,-0.09332 0.125,-0.09375 5.3e-4,-4.34e-4 0.1245,-0.124528 0.125,-0.125 5e-4,-4.72e-4 0.0933,-0.09324 0.0937,-0.09375 l 8,-9 c 5.9e-4,-6.45e-4 0.12448,-0.155552 0.125,-0.15625 5.2e-4,-6.98e-4 0.0933,-0.155505 0.0937,-0.15625 4.6e-4,-7.45e-4 0.0934,-0.186715 0.0937,-0.1875 3.8e-4,-7.85e-4 0.0934,-0.155432 0.0937,-0.15625 3.1e-4,-8.18e-4 0.0623,-0.186657 0.0625,-0.1875 2.3e-4,-8.43e-4 0.0311,-0.186639 0.0312,-0.1875 1.5e-4,-8.61e-4 0.0312,-0.217879 0.0312,-0.21875 6e-5,-8.71e-4 2e-5,-0.186626 0,-0.1875 -2e-5,-8.74e-4 1e-4,-0.186632 0,-0.1875 -1e-4,-8.68e-4 -0.0311,-0.186646 -0.0312,-0.1875 -1.8e-4,-8.54e-4 -0.0622,-0.186667 -0.0625,-0.1875 -2.6e-4,-8.33e-4 -0.0622,-0.186696 -0.0625,-0.1875 -3.4e-4,-8.04e-4 -0.0933,-0.186732 -0.0937,-0.1875 -4.2e-4,-7.68e-4 -0.0933,-0.155526 -0.0937,-0.15625 -4.9e-4,-7.24e-4 -0.12444,-0.155575 -0.125,-0.15625 -5.6e-4,-6.75e-4 -0.12438,-0.155631 -0.125,-0.15625 l -8,-8 c -3.6e-4,-3.68e-4 -0.0621,-0.06215 -0.0625,-0.0625 -3.8e-4,-3.48e-4 -0.0934,-0.09342 -0.0937,-0.09375 -4e-4,-3.26e-4 -0.0933,-0.0622 -0.0937,-0.0625 -4.1e-4,-3.03e-4 -0.0933,-0.06222 -0.0937,-0.0625 -4.3e-4,-2.8e-4 -0.0933,-0.06224 -0.0937,-0.0625 -4.4e-4,-2.56e-4 -0.0933,-0.06227 -0.0937,-0.0625 -4.6e-4,-2.3e-4 -0.12453,-0.03105 -0.125,-0.03125 -4.7e-4,-2.04e-4 -0.0933,-0.03107 -0.0937,-0.03125 -4.8e-4,-1.78e-4 -0.12451,-0.06235 -0.125,-0.0625 -4.9e-4,-1.51e-4 -0.0933,-0.03113 -0.0937,-0.03125 -5e-4,-1.23e-4 -0.1245,9.5e-5 -0.125,0 -5e-4,-9.5e-5 -0.0932,-0.03118 -0.0937,-0.03125 -5.1e-4,-6.7e-5 -0.12449,3.9e-5 -0.125,0 -5.1e-4,-3.9e-5 -0.12449,-0.03124 -0.125,-0.03125 -5.1e-4,-1e-5 -0.0932,-1.9e-5 -0.0937,0 z" />
  <path
     inkscape:connector-curvature="0"
     style="opacity:0.15;fill:#000000;fill-opacity:1;stroke:none"
     id="path3770"
     d="M 123.78125,23.96875 A 1.0413455,1.0413455 0 0 0 122.96875,25 v 6 A 1.0413455,1.0413455 0 0 0 124,32.03125 h 48 A 1.0413455,1.0413455 0 0 0 173.03125,31 V 25 A 1.0413455,1.0413455 0 0 0 172,23.96875 h -48 a 1.0413455,1.0413455 0 0 0 -0.21875,0 z m 0,10 A 1.0413455,1.0413455 0 0 0 122.96875,35 v 6 A 1.0413455,1.0413455 0 0 0 124,42.03125 h 48 A 1.0413455,1.0413455 0 0 0 173.03125,41 V 35 A 1.0413455,1.0413455 0 0 0 172,33.96875 h -48 a 1.0413455,1.0413455 0 0 0 -0.21875,0 z m 0,10 A 1.0413455,1.0413455 0 0 0 122.96875,45 v 6 A 1.0413455,1.0413455 0 0 0 124,52.03125 h 48 A 1.0413455,1.0413455 0 0 0 173.03125,51 V 45 A 1.0413455,1.0413455 0 0 0 172,43.96875 h -48 a 1.0413455,1.0413455 0 0 0 -0.21875,0 z m 12.09375,11 A 1.0413455,1.0413455 0 0 0 135.25,55.25 l -8,8 a 1.0413455,1.0413455 0 0 0 -0.0312,1.4375 l 8,9 A 1.0413455,1.0413455 0 0 0 137.03125,73 v -4.96875 h 21.9375 V 73 a 1.0413455,1.0413455 0 0 0 1.8125,0.6875 l 8,-9 A 1.0413455,1.0413455 0 0 0 168.75,63.25 l -8,-8 A 1.0413455,1.0413455 0 0 0 158.96875,56 v 3.96875 h -21.9375 V 56 A 1.0413455,1.0413455 0 0 0 135.875,54.96875 Z" />
  <path
     style="opacity:0.3;fill:#000000;fill-opacity:1;stroke:none"
     id="path3772"
     inkscape:connector-curvature="0"
     d="m 124,25 v 6 h 48 v -6 z m 0,10 v 6 h 48 v -6 z m 0,10 v 6 h 48 v -6 z m 12,11 -8,8 8,9 v -6 h 24 v 6 l 8,-9 -8,-8 v 5 h -24 z" />
  <path
     style="fill:url(#linearGradient3746);fill-opacity:1;stroke:none"
     id="path3724"
     inkscape:connector-curvature="0"
     d="m 124,24 v 6 h 48 v -6 z m 0,10 v 6 h 48 v -6 z m 0,10 v 6 h 48 v -6 z m 12,11 -8,8 8,9 v -6 h 24 v 6 l 8,-9 -8,-8 v 5 h -24 z" />
  <path
     style="opacity:0.75;fill:#ffffff;fill-opacity:1;stroke:none"
     id="path3748"
     inkscape:connector-curvature="0"
     d="m 124,24 v 1 h 48 v -1 z m 0,10 v 1 h 48 v -1 z m 0,10 v 1 h 48 v -1 z m 12,11 -8,8 0.46875,0.53125 L 136,56 Z m 24,0 v 1 l 7.53125,7.53125 L 168,63 Z m -24,5 v 1 h 24 v -1 z" />
  <path
     style="opacity:0.15;fill:#000000;fill-opacity:1;stroke:none"
     id="path3757"
     inkscape:connector-curvature="0"
     d="m 124,29 v 1 h 48 v -1 z m 0,10 v 1 h 48 v -1 z m 0,10 v 1 h 48 V 49 Z M 128.46875,62.53125 128,63 l 8,9 v -1 z m 39.0625,0 L 160,71 v 1 l 8,-9 z M 136,65 v 1 h 24 v -1 z" />
  <path
     style="color:#000000;display:inline;overflow:visible;visibility:visible;fill:url(#linearGradient3762);fill-opacity:1;fill-rule:nonzero;stroke:none;stroke-width:1.5;marker:none;enable-background:accumulate"
     id="rect2957"
     inkscape:connector-curvature="0"
     d="m 21.889324,8.4999992 c -3.808751,0 -6.890625,3.1261608 -6.890625,6.9843748 v 64.03125 c 0,3.858215 3.081874,6.984375 6.890625,6.984375 h 52.21875 c 3.80875,0 6.890625,-3.12616 6.890625,-6.984375 v -64.03125 c 0,-3.858214 -3.081875,-6.9843748 -6.890625,-6.9843748 z m 5.109375,8.9999998 h 1.5 39 1.5 c 1.662,0 3,1.338 3,3 v 1.5 51 1.5 c 0,1.662 -1.338,3 -3,3 h -1.5 -39 -1.5 c -1.662,0 -3,-1.338 -3,-3 v -1.5 -51 -1.5 c 0,-1.662 1.338,-3 3,-3 z m 3,6 v 48 h 36 z m 6,18 18,24 h -18 z" />
  <path
     style="color:#000000;display:inline;overflow:visible;visibility:visible;opacity:0.75;fill:#ffffff;fill-opacity:1;fill-rule:nonzero;stroke:none;stroke-width:1.5;marker:none;enable-background:accumulate"
     id="path3947"
     inkscape:connector-curvature="0"
     d="m 21.889324,8.4999992 c -3.808751,0 -6.890625,3.1261608 -6.890625,6.9843748 v 1.5 c 0,-3.858214 3.081874,-6.9843748 6.890625,-6.9843748 h 52.21875 c 3.80875,0 6.890625,3.1261608 6.890625,6.9843748 v -1.5 c 0,-3.858214 -3.081875,-6.9843748 -6.890625,-6.9843748 z m 8.109375,14.9999998 v 1.5 l 34.875,46.5 h 1.125 z m 6,42 v 1.5 h 18 l -1.125,-1.5 z m -12,9 v 1.5 c 0,1.662 1.338,3 3,3 h 1.5 39 1.5 c 1.662,0 3,-1.338 3,-3 v -1.5 c 0,1.662 -1.338,3 -3,3 h -1.5 -39 -1.5 c -1.662,0 -3,-1.338 -3,-3 z" />
  <path
     style="color:#000000;display:inline;overflow:visible;visibility:visible;opacity:0.15;fill:#000000;fill-opacity:1;fill-rule:nonzero;stroke:none;stroke-width:1.5;marker:none;enable-background:accumulate"
     id="path3956"
     inkscape:connector-curvature="0"
     d="m 26.998699,15.999999 c -1.662,0 -3,1.338 -3,3 v 1.5 c 0,-1.662 1.338,-3 3,-3 h 1.5 39 1.5 c 1.662,0 3,1.338 3,3 v -1.5 c 0,-1.662 -1.338,-3 -3,-3 h -1.5 -39 z m 9,24 v 1.5 l 16.875,22.5 h 1.125 z m -6,30 v 1.5 h 36 l -1.125,-1.5 z m -15,8.015625 v 1.5 c 0,3.858215 3.081874,6.984375 6.890625,6.984375 h 52.21875 c 3.80875,0 6.890625,-3.12616 6.890625,-6.984375 v -1.5 c 0,3.858215 -3.081875,6.984375 -6.890625,6.984375 h -52.21875 c -3.808751,0 -6.890625,-3.12616 -6.890625,-6.984375 z" />
</svg>
