<?xml version="1.0" encoding="UTF-8" standalone="no"?>
<!-- Created with Inkscape (http://www.inkscape.org/) -->

<svg
   xmlns:dc="http://purl.org/dc/elements/1.1/"
   xmlns:cc="http://creativecommons.org/ns#"
   xmlns:rdf="http://www.w3.org/1999/02/22-rdf-syntax-ns#"
   xmlns:svg="http://www.w3.org/2000/svg"
   xmlns="http://www.w3.org/2000/svg"
   xmlns:xlink="http://www.w3.org/1999/xlink"
   xmlns:sodipodi="http://sodipodi.sourceforge.net/DTD/sodipodi-0.dtd"
   xmlns:inkscape="http://www.inkscape.org/namespaces/inkscape"
   version="1.0"
   width="96"
   height="96"
   id="svg2408"
   sodipodi:docname="format-text-strikethrough.svg"
   inkscape:version="0.92.2 2405546, 2018-03-11">
  <sodipodi:namedview
     pagecolor="#ffffff"
     bordercolor="#666666"
     borderopacity="1"
     objecttolerance="10"
     gridtolerance="10"
     guidetolerance="10"
     inkscape:pageopacity="0"
     inkscape:pageshadow="2"
     inkscape:window-width="750"
     inkscape:window-height="480"
     id="namedview3606"
     showgrid="false"
     inkscape:zoom="2.4583333"
     inkscape:cx="48"
     inkscape:cy="48"
     inkscape:window-x="52"
     inkscape:window-y="0"
     inkscape:window-maximized="0"
     inkscape:current-layer="svg2408" />
  <defs
     id="defs2410">
    <linearGradient
       id="linearGradient3637">
      <stop
         id="stop3639"
         style="stop-color:#f0f0f0;stop-opacity:1"
         offset="0" />
      <stop
         id="stop3641"
         style="stop-color:#aaaaaa;stop-opacity:1"
         offset="1" />
    </linearGradient>
    <linearGradient
       x1="45.447727"
       y1="92.539597"
       x2="45.447727"
       y2="7.0165396"
       id="ButtonShadow"
       gradientUnits="userSpaceOnUse"
       gradientTransform="scale(1.0058652,0.994169)">
      <stop
         id="stop3750"
         style="stop-color:#000000;stop-opacity:1"
         offset="0" />
      <stop
         id="stop3752"
         style="stop-color:#000000;stop-opacity:0.58823532"
         offset="1" />
    </linearGradient>
    <linearGradient
       id="linearGradient3737">
      <stop
         id="stop3739"
         style="stop-color:#ffffff;stop-opacity:1"
         offset="0" />
      <stop
         id="stop3741"
         style="stop-color:#ffffff;stop-opacity:0"
         offset="1" />
    </linearGradient>
    <linearGradient
       id="linearGradient3700">
      <stop
         id="stop3702"
         style="stop-color:#2276c5;stop-opacity:1"
         offset="0" />
      <stop
         id="stop3704"
         style="stop-color:#68baf4;stop-opacity:1"
         offset="1" />
    </linearGradient>
    <filter
       color-interpolation-filters="sRGB"
       id="filter3174">
      <feGaussianBlur
         id="feGaussianBlur3176"
         stdDeviation="1.71" />
    </filter>
    <linearGradient
       x1="36.357143"
       y1="6"
       x2="36.357143"
       y2="63.893143"
       id="linearGradient3188"
       xlink:href="#linearGradient3737"
       gradientUnits="userSpaceOnUse" />
    <filter
       x="-0.192"
       y="-0.192"
       width="1.3839999"
       height="1.3839999"
       color-interpolation-filters="sRGB"
       id="filter3794">
      <feGaussianBlur
         id="feGaussianBlur3796"
         stdDeviation="5.28" />
    </filter>
    <linearGradient
       x1="48"
       y1="20.220806"
       x2="48"
       y2="138.66119"
       id="linearGradient3613"
       xlink:href="#linearGradient3737"
       gradientUnits="userSpaceOnUse" />
    <radialGradient
       cx="48"
       cy="90.171875"
       r="42"
       fx="48"
       fy="90.171875"
       id="radialGradient3619"
       xlink:href="#linearGradient3737"
       gradientUnits="userSpaceOnUse"
       gradientTransform="matrix(1.1573129,0,0,0.99590774,-7.5510206,0.19713193)" />
    <clipPath
       id="clipPath3613">
      <rect
         width="84"
         height="84"
         rx="6"
         ry="6"
         x="6"
         y="6"
         id="rect3615"
         style="fill:#ffffff;fill-opacity:1;fill-rule:nonzero;stroke:none" />
    </clipPath>
    <linearGradient
       x1="48"
       y1="90"
       x2="48"
       y2="5.9877172"
       id="linearGradient2843"
       xlink:href="#linearGradient3700"
       gradientUnits="userSpaceOnUse"
       gradientTransform="translate(0,100)" />
    <clipPath
       id="clipPath3625">
      <path
         d="M 0,0 0,96 96,96 96,0 0,0 z m 12,6 72,0 c 3.324,0 6,2.676 6,6 l 0,72 c 0,3.324 -2.676,6 -6,6 L 12,90 C 8.676,90 6,87.324 6,84 L 6,12 C 6,8.676 8.676,6 12,6 z"
         inkscape:connector-curvature="0"
         id="path3627"
         style="fill:#ffffff;fill-opacity:1;stroke:none" />
    </clipPath>
    <linearGradient
       x1="44.512066"
       y1="6"
       x2="44.512066"
       y2="90.015434"
       id="linearGradient3643"
       xlink:href="#linearGradient3637"
       gradientUnits="userSpaceOnUse" />
    <clipPath
       id="clipPath3649">
      <rect
         width="76"
         height="76"
         rx="4"
         ry="4"
         x="10"
         y="10"
         id="rect3651"
         style="fill:#ffffff;fill-opacity:1;fill-rule:nonzero;stroke:none" />
    </clipPath>
    <filter
       color-interpolation-filters="sRGB"
       id="filter3657">
      <feGaussianBlur
         id="feGaussianBlur3659"
         stdDeviation="1.14" />
    </filter>
    <linearGradient
       x1="45.447727"
       y1="92.539597"
       x2="45.447727"
       y2="7.0165396"
       id="ButtonShadow-0"
       gradientUnits="userSpaceOnUse"
       gradientTransform="matrix(1.0058652,0,0,0.994169,100,0)">
      <stop
         id="stop3750-8"
         style="stop-color:#000000;stop-opacity:1"
         offset="0" />
      <stop
         id="stop3752-5"
         style="stop-color:#000000;stop-opacity:0.58823532"
         offset="1" />
    </linearGradient>
    <linearGradient
       x1="32.251034"
       y1="6.1317081"
       x2="32.251034"
       y2="90.238609"
       id="linearGradient3780"
       xlink:href="#ButtonShadow-0"
       gradientUnits="userSpaceOnUse"
       gradientTransform="matrix(1.0238095,0,0,-1.0119048,-1.1428571,98.071429)" />
    <linearGradient
       x1="32.251034"
       y1="6.1317081"
       x2="32.251034"
       y2="90.238609"
       id="linearGradient3772"
       xlink:href="#ButtonShadow-0"
       gradientUnits="userSpaceOnUse"
       gradientTransform="matrix(1.0238095,0,0,-1.0119048,-1.1428571,98.071429)" />
    <linearGradient
       x1="32.251034"
       y1="6.1317081"
       x2="32.251034"
       y2="90.238609"
       id="linearGradient3725"
       xlink:href="#ButtonShadow-0"
       gradientUnits="userSpaceOnUse"
       gradientTransform="matrix(1.0238095,0,0,-1.0119048,-1.1428571,98.071429)" />
    <linearGradient
       x1="32.251034"
       y1="6.1317081"
       x2="32.251034"
       y2="90.238609"
       id="linearGradient3721"
       xlink:href="#ButtonShadow-0"
       gradientUnits="userSpaceOnUse"
       gradientTransform="matrix(1,0,0,-1,0,97)" />
    <linearGradient
       x1="32.251034"
       y1="6.1317081"
       x2="32.251034"
       y2="90.238609"
       id="linearGradient3199"
       xlink:href="#ButtonShadow-0"
       gradientUnits="userSpaceOnUse"
       gradientTransform="matrix(1.0238095,0,0,-1.0119048,-1.1428571,98.071429)" />
    <linearGradient
       x1="36.357143"
       y1="6"
       x2="36.357143"
       y2="63.893143"
       id="linearGradient3188-8"
       xlink:href="#linearGradient3737-3"
       gradientUnits="userSpaceOnUse" />
    <linearGradient
       id="linearGradient3737-3">
      <stop
         id="stop3739-6"
         style="stop-color:#ffffff;stop-opacity:1"
         offset="0" />
      <stop
         id="stop3741-1"
         style="stop-color:#ffffff;stop-opacity:0"
         offset="1" />
    </linearGradient>
    <radialGradient
       cx="48"
       cy="90.171875"
       r="42"
       fx="48"
       fy="90.171875"
       id="radialGradient3619-3"
       xlink:href="#linearGradient3737-3"
       gradientUnits="userSpaceOnUse"
       gradientTransform="matrix(1.1573129,0,0,0.99590774,-7.551021,0.1971319)" />
    <linearGradient
       x1="104"
       y1="8"
       x2="120"
       y2="8"
       id="linearGradient3905"
       xlink:href="#linearGradient3637"
       gradientUnits="userSpaceOnUse"
       gradientTransform="translate(-104,104)" />
    <linearGradient
       x1="104"
       y1="8"
       x2="120"
       y2="8"
       id="linearGradient3913"
       xlink:href="#linearGradient3183-0"
       gradientUnits="userSpaceOnUse"
       gradientTransform="translate(-144,104)" />
    <linearGradient
       id="linearGradient3183-0">
      <stop
         id="stop3185-9"
         style="stop-color:#c80000;stop-opacity:1"
         offset="0" />
      <stop
         id="stop3187-6"
         style="stop-color:#f3604d;stop-opacity:1"
         offset="1" />
    </linearGradient>
    <linearGradient
       x1="12.070416"
       y1="3.1332362"
       x2="12.070416"
       y2="19.05331"
       id="linearGradient3823"
       xlink:href="#linearGradient3637"
       gradientUnits="userSpaceOnUse"
       gradientTransform="matrix(4.5,0,0,4.5,-1.5,5.995186)" />
  </defs>
  <metadata
     id="metadata2413">
    <rdf:RDF>
      <cc:Work
         rdf:about="">
        <dc:format>image/svg+xml</dc:format>
        <dc:type
           rdf:resource="http://purl.org/dc/dcmitype/StillImage" />
        <dc:title />
      </cc:Work>
    </rdf:RDF>
  </metadata>
  <g
     id="layer2"
     style="display:none">
    <rect
       width="86"
       height="85"
       rx="6"
       ry="6"
       x="5"
       y="7"
       clip-path="url(#clipPath3625)"
       id="rect3745"
       style="opacity:0.9;fill:url(#ButtonShadow);fill-opacity:1;fill-rule:nonzero;stroke:none;filter:url(#filter3174)" />
  </g>
  <g
     id="layer1"
     style="display:none">
    <rect
       width="84"
       height="84"
       rx="6"
       ry="6"
       x="6"
       y="6"
       id="rect2419"
       style="opacity:0.8;fill:#000000;fill-opacity:1;fill-rule:nonzero;stroke:none" />
    <path
       d="m 14,10 c -2.216,0 -4,1.784 -4,4 l 0,68 c 0,2.216 1.784,4 4,4 l 68,0 c 2.216,0 4,-1.784 4,-4 l 0,-68 c 0,-2.216 -1.784,-4 -4,-4 l -68,0 z m 0,3.0625 68,0 c 0.578769,0 0.9375,0.358731 0.9375,0.9375 l 0,68 c 0,0.578769 -0.358731,0.9375 -0.9375,0.9375 l -68,0 c -0.578769,0 -0.9375,-0.358731 -0.9375,-0.9375 l 0,-68 c 0,-0.578769 0.358731,-0.9375 0.9375,-0.9375 z"
       inkscape:connector-curvature="0"
       id="rect3726"
       style="opacity:0.07999998;fill:#000000;fill-opacity:1;fill-rule:nonzero;stroke:none" />
    <path
       d="M 12,6 C 8.676,6 6,8.676 6,12 l 0,72 c 0,3.324 2.676,6 6,6 l 72,0 c 3.324,0 6,-2.676 6,-6 L 90,12 C 90,8.676 87.324,6 84,6 L 12,6 z m 2,4 68,0 c 2.216,0 4,1.784 4,4 l 0,68 c 0,2.216 -1.784,4 -4,4 l -68,0 c -2.216,0 -4,-1.784 -4,-4 l 0,-68 c 0,-2.216 1.784,-4 4,-4 z"
       inkscape:connector-curvature="0"
       id="rect3629"
       style="fill:url(#linearGradient3643);fill-opacity:1;fill-rule:nonzero;stroke:none" />
    <path
       d="M 12,6 C 8.676,6 6,8.676 6,12 l 0,2 0,68 0,2 c 0,0.334721 0.04135,0.6507 0.09375,0.96875 0.0487,0.295596 0.09704,0.596915 0.1875,0.875 0.00988,0.03038 0.020892,0.0636 0.03125,0.09375 0.098865,0.287771 0.2348802,0.547452 0.375,0.8125 0.1445918,0.273507 0.3156161,0.535615 0.5,0.78125 0.1843839,0.245635 0.3737765,0.473472 0.59375,0.6875 0.439947,0.428056 0.94291,0.814526 1.5,1.09375 0.278545,0.139612 0.5734731,0.246947 0.875,0.34375 -0.2562018,-0.100222 -0.4867109,-0.236272 -0.71875,-0.375 -0.00741,-0.0044 -0.023866,0.0045 -0.03125,0 -0.031933,-0.0193 -0.062293,-0.04251 -0.09375,-0.0625 -0.120395,-0.0767 -0.2310226,-0.163513 -0.34375,-0.25 -0.1061728,-0.0808 -0.2132809,-0.161112 -0.3125,-0.25 C 8.4783201,88.557317 8.3087904,88.373362 8.15625,88.1875 8.0486711,88.057245 7.9378561,87.922215 7.84375,87.78125 7.818661,87.74287 7.805304,87.69538 7.78125,87.65625 7.716487,87.553218 7.6510225,87.451733 7.59375,87.34375 7.4927417,87.149044 7.3880752,86.928049 7.3125,86.71875 7.30454,86.69694 7.288911,86.6782 7.28125,86.65625 7.2494249,86.5643 7.2454455,86.469419 7.21875,86.375 7.1884177,86.268382 7.1483606,86.171969 7.125,86.0625 7.0521214,85.720988 7,85.364295 7,85 L 7,83 7,15 7,13 C 7,10.218152 9.2181517,8 12,8 l 2,0 68,0 2,0 c 2.781848,0 5,2.218152 5,5 l 0,2 0,68 0,2 c 0,0.364295 -0.05212,0.720988 -0.125,1.0625 -0.04415,0.206893 -0.08838,0.397658 -0.15625,0.59375 -0.0077,0.02195 -0.0233,0.04069 -0.03125,0.0625 -0.06274,0.173739 -0.138383,0.367449 -0.21875,0.53125 -0.04158,0.0828 -0.07904,0.169954 -0.125,0.25 -0.0546,0.09721 -0.126774,0.18835 -0.1875,0.28125 -0.09411,0.140965 -0.204921,0.275995 -0.3125,0.40625 -0.143174,0.17445 -0.303141,0.346998 -0.46875,0.5 -0.01117,0.0102 -0.01998,0.02115 -0.03125,0.03125 -0.138386,0.125556 -0.285091,0.234436 -0.4375,0.34375 -0.102571,0.07315 -0.204318,0.153364 -0.3125,0.21875 -0.0074,0.0045 -0.02384,-0.0044 -0.03125,0 -0.232039,0.138728 -0.462548,0.274778 -0.71875,0.375 0.301527,-0.0968 0.596455,-0.204138 0.875,-0.34375 0.55709,-0.279224 1.060053,-0.665694 1.5,-1.09375 0.219973,-0.214028 0.409366,-0.441865 0.59375,-0.6875 0.184384,-0.245635 0.355408,-0.507743 0.5,-0.78125 0.14012,-0.265048 0.276135,-0.524729 0.375,-0.8125 0.01041,-0.03078 0.02133,-0.06274 0.03125,-0.09375 0.09046,-0.278085 0.1388,-0.579404 0.1875,-0.875 C 89.95865,84.6507 90,84.334721 90,84 l 0,-2 0,-68 0,-2 C 90,8.676 87.324,6 84,6 L 12,6 z"
       inkscape:connector-curvature="0"
       id="rect3728"
       style="fill:url(#linearGradient3188);fill-opacity:1;fill-rule:nonzero;stroke:none" />
    <path
       d="M 12,90 C 8.676,90 6,87.324 6,84 L 6,82 6,14 6,12 c 0,-0.334721 0.04135,-0.6507 0.09375,-0.96875 0.0487,-0.295596 0.09704,-0.596915 0.1875,-0.875 C 6.29113,10.12587 6.302142,10.09265 6.3125,10.0625 6.411365,9.774729 6.5473802,9.515048 6.6875,9.25 6.8320918,8.976493 7.0031161,8.714385 7.1875,8.46875 7.3718839,8.223115 7.5612765,7.995278 7.78125,7.78125 8.221197,7.353194 8.72416,6.966724 9.28125,6.6875 9.559795,6.547888 9.8547231,6.440553 10.15625,6.34375 9.9000482,6.443972 9.6695391,6.580022 9.4375,6.71875 c -0.00741,0.0044 -0.023866,-0.0045 -0.03125,0 -0.031933,0.0193 -0.062293,0.04251 -0.09375,0.0625 -0.120395,0.0767 -0.2310226,0.163513 -0.34375,0.25 -0.1061728,0.0808 -0.2132809,0.161112 -0.3125,0.25 C 8.4783201,7.442683 8.3087904,7.626638 8.15625,7.8125 8.0486711,7.942755 7.9378561,8.077785 7.84375,8.21875 7.818661,8.25713 7.805304,8.30462 7.78125,8.34375 7.716487,8.446782 7.6510225,8.548267 7.59375,8.65625 7.4927417,8.850956 7.3880752,9.071951 7.3125,9.28125 7.30454,9.30306 7.288911,9.3218 7.28125,9.34375 7.2494249,9.4357 7.2454455,9.530581 7.21875,9.625 7.1884177,9.731618 7.1483606,9.828031 7.125,9.9375 7.0521214,10.279012 7,10.635705 7,11 l 0,2 0,68 0,2 c 0,2.781848 2.2181517,5 5,5 l 2,0 68,0 2,0 c 2.781848,0 5,-2.218152 5,-5 l 0,-2 0,-68 0,-2 C 89,10.635705 88.94788,10.279012 88.875,9.9375 88.83085,9.730607 88.78662,9.539842 88.71875,9.34375 88.71105,9.3218 88.69545,9.30306 88.6875,9.28125 88.62476,9.107511 88.549117,8.913801 88.46875,8.75 88.42717,8.6672 88.38971,8.580046 88.34375,8.5 88.28915,8.40279 88.216976,8.31165 88.15625,8.21875 88.06214,8.077785 87.951329,7.942755 87.84375,7.8125 87.700576,7.63805 87.540609,7.465502 87.375,7.3125 87.36383,7.3023 87.35502,7.29135 87.34375,7.28125 87.205364,7.155694 87.058659,7.046814 86.90625,6.9375 86.803679,6.86435 86.701932,6.784136 86.59375,6.71875 c -0.0074,-0.0045 -0.02384,0.0044 -0.03125,0 -0.232039,-0.138728 -0.462548,-0.274778 -0.71875,-0.375 0.301527,0.0968 0.596455,0.204138 0.875,0.34375 0.55709,0.279224 1.060053,0.665694 1.5,1.09375 0.219973,0.214028 0.409366,0.441865 0.59375,0.6875 0.184384,0.245635 0.355408,0.507743 0.5,0.78125 0.14012,0.265048 0.276135,0.524729 0.375,0.8125 0.01041,0.03078 0.02133,0.06274 0.03125,0.09375 0.09046,0.278085 0.1388,0.579404 0.1875,0.875 C 89.95865,11.3493 90,11.665279 90,12 l 0,2 0,68 0,2 c 0,3.324 -2.676,6 -6,6 l -72,0 z"
       inkscape:connector-curvature="0"
       id="path3615"
       style="opacity:0.6;fill:url(#radialGradient3619);fill-opacity:1;fill-rule:nonzero;stroke:none" />
    <rect
       width="84"
       height="84"
       rx="6"
       ry="6"
       x="6"
       y="106"
       id="rect2841"
       style="fill:url(#linearGradient2843);fill-opacity:1;fill-rule:nonzero;stroke:none" />
    <rect
       width="76"
       height="76"
       rx="4"
       ry="4"
       x="10"
       y="110"
       id="rect3634"
       style="fill:#ff0000;fill-opacity:1;fill-rule:nonzero;stroke:none" />
    <path
       d="m 14,9 c -2.752703,0 -5,2.247297 -5,5 l 0,68 c 0,2.752703 2.247297,5 5,5 l 68,0 c 2.752703,0 5,-2.247297 5,-5 L 87,14 C 87,11.247297 84.752703,9 82,9 L 14,9 z m 0,2 68,0 c 1.679297,0 3,1.320703 3,3 l 0,68 c 0,1.679297 -1.320703,3 -3,3 l -68,0 c -1.679297,0 -3,-1.320703 -3,-3 l 0,-68 c 0,-1.679297 1.320703,-3 3,-3 z"
       inkscape:connector-curvature="0"
       transform="translate(-110,0)"
       clip-path="url(#clipPath3649)"
       id="rect3647"
       style="font-size:medium;font-style:normal;font-variant:normal;font-weight:normal;font-stretch:normal;text-indent:0;text-align:start;text-decoration:none;line-height:normal;letter-spacing:normal;word-spacing:normal;text-transform:none;direction:ltr;block-progression:tb;writing-mode:lr-tb;text-anchor:start;color:#000000;fill:#000000;fill-opacity:1;stroke:none;stroke-width:2;marker:none;visibility:visible;display:inline;overflow:visible;filter:url(#filter3657);enable-background:accumulate;font-family:Abandoned Bitplane;-inkscape-font-specification:Abandoned Bitplane" />
    <path
       d="m 14.089286,10 c -2.216,0 -4,1.784 -4,4 l 0,68 c 0,2.216 1.784,4 4,4 l 68,0 c 2.216,0 4,-1.784 4,-4 l 0,-68 c 0,-2.216 -1.784,-4 -4,-4 l -68,0 z m 0,2 68,0 c 1.140301,0 2,0.859699 2,2 l 0,68 c 0,1.140301 -0.859699,2 -2,2 l -68,0 c -1.140301,0 -2,-0.859699 -2,-2 l 0,-68 c 0,-1.140301 0.859699,-2 2,-2 z"
       inkscape:connector-curvature="0"
       id="path3709"
       style="opacity:0.16000001;fill:#000000;fill-opacity:1;fill-rule:nonzero;stroke:none" />
    <path
       d="m 14,10 c -2.216,0 -4,1.784 -4,4 l 0,68 c 0,2.216 1.784,4 4,4 l 68,0 c 2.216,0 4,-1.784 4,-4 l 0,-68 c 0,-2.216 -1.784,-4 -4,-4 l -68,0 z m 0,1 68,0 c 1.673848,0 3,1.326152 3,3 l 0,68 c 0,1.673848 -1.326152,3 -3,3 l -68,0 c -1.673848,0 -3,-1.326152 -3,-3 l 0,-68 c 0,-1.673848 1.326152,-3 3,-3 z"
       inkscape:connector-curvature="0"
       id="path3707"
       style="opacity:0.36000001;fill:#000000;fill-opacity:1;fill-rule:nonzero;stroke:none" />
  </g>
  <g
     id="layer5"
     style="display:none">
    <rect
       width="66"
       height="66"
       rx="12"
       ry="12"
       x="15"
       y="15"
       clip-path="url(#clipPath3613)"
       id="rect3171"
       style="opacity:0.1;fill:url(#linearGradient3613);fill-opacity:1;fill-rule:nonzero;stroke:#ffffff;stroke-width:0.5;stroke-linecap:round;stroke-linejoin:miter;stroke-miterlimit:4;stroke-opacity:1;stroke-dasharray:none;stroke-dashoffset:0;filter:url(#filter3794)" />
  </g>
  <path
     style="font-style:normal;font-variant:normal;font-weight:normal;font-stretch:normal;font-size:12px;line-height:125%;font-family:Sans;-inkscape-font-specification:Sans;text-align:start;writing-mode:lr-tb;text-anchor:start;display:inline;opacity:0.1;fill:#000000;fill-opacity:1;stroke:none;stroke-width:1.5"
     id="path4030"
     inkscape:connector-curvature="0"
     d="M 47.578125,17.948311 C 40.812528,18.080716 34.050454,19.507039 27.75,21.932686 c -2.055757,1.427753 -1.169005,4.125998 -1.359375,6.240956 0.178694,1.956486 -0.431267,4.08366 0.46875,5.899669 1.072507,1.708362 3.487493,1.673447 4.964595,0.505223 6.173184,-3.115029 13.494654,-4.253091 20.256011,-2.670111 2.786665,0.421593 6.881716,4.144701 5.589345,6.289888 -8.958862,0.08558 -18.537071,-0.782994 -26.557622,3.993866 -2.686785,1.746964 -4.923111,4.311319 -6.314829,7.256134 -3.060471,0.05777 -6.138918,-0.118635 -9.1875,0.09375 -1.93627,0.557898 -2.360968,2.661035 -2.15625,4.418258 0.05751,2.806489 -0.118305,5.630884 0.09375,8.425492 0.557898,1.936271 2.661035,2.360969 4.418258,2.15625 1.870998,0 3.741994,0 5.612992,0 0.999299,4.577615 3.942164,8.617785 8.126643,10.757814 6.684857,3.560961 14.907419,3.45605 21.955221,1.038578 1.870908,-0.02304 4.426674,-3.338796 5.074386,-2.668842 -0.212301,1.71984 0.289601,3.738333 2.15625,4.2787 3.375581,0.179264 6.790896,0.09945 10.171875,0.04687 2.032556,-0.286104 2.751645,-2.481636 2.484375,-4.281991 0,-3.057044 0,-6.114089 0,-9.171134 2.279561,-0.05346 4.575944,0.112605 6.84375,-0.09375 1.936271,-0.557898 2.360969,-2.661034 2.15625,-4.418257 -0.05751,-2.80649 0.118305,-5.630885 -0.09375,-8.425493 -0.557898,-1.93627 -2.661034,-2.360968 -4.418257,-2.15625 -1.495998,0 -2.991995,0 -4.487993,0 0.09734,-7.316892 0.10944,-15.093217 -3.986838,-21.481935 C 65.026299,20.471695 55.867278,17.828346 47.578125,17.948311 Z M 42.9375,64.542061 c 1.59375,0 3.1875,0 4.78125,0 -1.568967,0.507047 -3.204235,0.445167 -4.78125,0 z" />
  <path
     inkscape:connector-curvature="0"
     style="font-style:normal;font-variant:normal;font-weight:normal;font-stretch:normal;font-size:12px;line-height:125%;font-family:Sans;-inkscape-font-specification:Sans;text-align:start;writing-mode:lr-tb;text-anchor:start;display:inline;opacity:0.15;fill:#000000;fill-opacity:1;stroke:none;stroke-width:1.5"
     id="path4026"
     d="m 47.578125,19.495186 c -2.983038,5.7e-5 -6.055088,0.404262 -9.140625,1.03125 -3.063596,0.59151 -6.214424,1.347675 -9.515625,2.578125 a 1.4831611,1.4831611 0 0 0 -0.984375,1.40625 v 7.875 a 1.4831611,1.4831611 0 0 0 2.203125,1.3125 c 2.579188,-1.363377 5.177959,-2.424256 7.921875,-3.09375 2.749374,-0.670752 5.57784,-0.937456 8.53125,-0.9375 4.563198,4.4e-5 7.87455,1.036034 10.171875,2.90625 2.159787,1.712618 3.215586,4.040123 3.375,7.171875 H 49.40625 c -8.136304,3.2e-5 -14.351904,1.431444 -18.75,4.640625 a 1.4831611,1.4831611 0 0 0 0,0.04687 c -2.330784,1.714232 -3.849126,4.010355 -4.921875,6.5625 H 16.5 a 1.4831611,1.4831611 0 0 0 -1.5,1.5 v 9 a 1.4831611,1.4831611 0 0 0 1.5,1.5 h 8.203125 c 0.699398,3.360662 2.050842,6.404745 4.546875,8.71875 a 1.4831611,1.4831611 0 0 0 0.04687,0 c 3.552766,3.227787 8.350442,4.78125 14.0625,4.78125 4.491822,0 8.397291,-0.846507 11.625,-2.4375 1.990765,-1.001749 3.720738,-2.427117 5.296875,-4.078125 v 5.015625 a 1.4831611,1.4831611 0 0 0 1.5,1.5 H 70.5 a 1.4831611,1.4831611 0 0 0 1.5,-1.5 v -12 h 7.5 a 1.4831611,1.4831611 0 0 0 1.5,-1.5 v -9 a 1.4831611,1.4831611 0 0 0 -1.5,-1.5 H 72 v -6.65625 C 71.999949,36.254956 69.968722,29.94229 65.8125,25.729561 61.663804,21.524665 55.529066,19.495242 47.578125,19.495186 Z M 53.0625,49.354561 h 7.21875 v 0.328125 c -5e-6,0.461504 -0.02604,0.880101 -0.04687,1.3125 h -19.875 c 2.507827,-0.998247 6.606702,-1.640605 12.70312,-1.640625 z M 37.5,62.995186 h 17.203125 c -2.443934,2.144394 -5.309455,3.468758 -9.09375,3.46875 -3.241114,9e-6 -5.547687,-0.815833 -7.3125,-2.296875 C 37.919929,63.837309 37.787451,63.370032 37.5,62.995186 Z" />
  <path
     style="font-style:normal;font-variant:normal;font-weight:normal;font-stretch:normal;font-size:12px;line-height:125%;font-family:Sans;-inkscape-font-specification:Sans;text-align:start;writing-mode:lr-tb;text-anchor:start;display:inline;opacity:0.3;fill:#000000;fill-opacity:1;stroke:none;stroke-width:1.5"
     id="path4020"
     inkscape:connector-curvature="0"
     d="m 47.578125,20.995186 c -2.854148,5.4e-5 -5.846712,0.372195 -8.859375,0.984375 -3.012701,0.581684 -6.078305,1.337423 -9.28125,2.53125 v 7.875 c 2.663835,-1.408122 5.411023,-2.530251 8.296875,-3.234375 2.885811,-0.704038 5.814954,-0.98433 8.859375,-0.984375 4.788554,4.5e-5 8.477204,1.091565 11.109375,3.234375 2.663811,2.112287 4.07808,5.112284 4.078125,9 v 0.84375 h -12.375 c -7.959858,3.2e-5 -13.831908,1.420632 -17.859375,4.359375 -2.395149,1.76157 -3.947109,4.108631 -4.921875,6.890625 H 16.5 v 9 h 9.28125 c 0.507139,3.662465 1.938643,6.766061 4.5,9.140625 3.234655,2.938775 7.623559,4.359375 13.078125,4.359375 4.312877,0 7.987743,-0.78061 10.96875,-2.25 2.98093,-1.499998 5.455197,-3.768169 7.453125,-6.890625 v 9.140625 H 70.5 v -13.5 h 9 v -9 h -9 v -8.15625 C 70.49995,36.50224 68.539822,30.617995 64.734375,26.760811 60.928833,22.903717 55.284217,20.99524 47.578125,20.995186 Z M 53.0625,47.854561 h 8.71875 v 1.828125 c -9e-6,0.982472 -0.04275,1.901826 -0.140625,2.8125 h -25.875 c 0.644037,-0.935761 1.478517,-1.787985 2.53125,-2.390625 2.72725,-1.561221 7.693713,-2.249977 14.765625,-2.25 z M 34.78125,61.495186 h 23.484375 c -0.33417,0.466133 -0.603149,0.974934 -0.984375,1.40625 -2.917584,3.306123 -6.819894,5.062509 -11.671875,5.0625 -3.520115,9e-6 -6.235584,-0.926973 -8.296875,-2.671875 -1.198482,-1.048432 -2.02638,-2.319016 -2.53125,-3.796875 z" />
  <rect
     style="color:#000000;display:inline;overflow:visible;visibility:visible;fill:url(#linearGradient3905);fill-opacity:1;fill-rule:nonzero;stroke:none;stroke-width:2;marker:none;enable-background:accumulate"
     id="rect3897"
     transform="matrix(0,1,1,0,0,0)"
     y="104"
     x="0"
     height="16"
     width="16" />
  <text
     style="font-style:normal;font-variant:normal;font-weight:normal;font-stretch:normal;font-size:4px;line-height:125%;font-family:'Liberation Sans';-inkscape-font-specification:'Liberation Sans';text-align:start;letter-spacing:0px;word-spacing:0px;writing-mode:lr-tb;text-anchor:start;fill:#000000;fill-opacity:1;stroke:none"
     xml:space="preserve"
     id="text3907"
     y="48"
     x="104"><tspan
       id="tspan3909"
       y="48"
       x="104">Shadow opacity : 30, 15, 10, (8)</tspan></text>
  <rect
     style="color:#000000;display:inline;overflow:visible;visibility:visible;fill:url(#linearGradient3913);fill-opacity:1;fill-rule:nonzero;stroke:none;stroke-width:2;marker:none;enable-background:accumulate"
     id="rect3911"
     transform="rotate(-90)"
     y="104"
     x="-40"
     height="16"
     width="16" />
  <text
     style="font-style:normal;font-variant:normal;font-weight:normal;font-stretch:normal;font-size:4px;line-height:125%;font-family:'Liberation Sans';-inkscape-font-specification:'Liberation Sans';text-align:start;letter-spacing:0px;word-spacing:0px;writing-mode:lr-tb;text-anchor:start;fill:#000000;fill-opacity:1;stroke:none"
     xml:space="preserve"
     id="text3951"
     y="32"
     x="124"><tspan
       id="tspan3953"
       y="32"
       x="124">Bevel opacity : 30 / 10</tspan></text>
  <text
     style="font-style:normal;font-variant:normal;font-weight:normal;font-stretch:normal;font-size:4px;line-height:125%;font-family:'Liberation Sans';-inkscape-font-specification:'Liberation Sans';text-align:start;letter-spacing:0px;word-spacing:0px;writing-mode:lr-tb;text-anchor:start;fill:#000000;fill-opacity:1;stroke:none"
     xml:space="preserve"
     id="text3955"
     y="8"
     x="124"><tspan
       id="tspan3957"
       y="8"
       x="124">Bevel opacity : 75 / 15</tspan></text>
  <path
     style="font-style:normal;font-variant:normal;font-weight:normal;font-stretch:normal;font-size:12px;line-height:125%;font-family:Sans;-inkscape-font-specification:Sans;text-align:start;writing-mode:lr-tb;text-anchor:start;display:inline;fill:url(#linearGradient3823);fill-opacity:1;stroke:none;stroke-width:1.5"
     id="path2871"
     inkscape:connector-curvature="0"
     d="m 47.578125,19.495186 c -2.854148,5.4e-5 -5.846712,0.372195 -8.859375,0.984375 -3.012701,0.581684 -6.078305,1.337423 -9.28125,2.53125 v 7.875 c 2.663835,-1.408122 5.411023,-2.530251 8.296875,-3.234375 2.885811,-0.704038 5.814954,-0.98433 8.859375,-0.984375 4.788554,4.5e-5 8.477204,1.091565 11.109375,3.234375 2.663811,2.112287 4.07808,5.112284 4.078125,9 v 0.84375 h -12.375 c -7.959858,3.2e-5 -13.831908,1.420632 -17.859375,4.359375 -2.395149,1.76157 -3.947109,4.108631 -4.921875,6.890625 H 16.5 v 9 h 9.28125 c 0.507139,3.662465 1.938643,6.766061 4.5,9.140625 3.234655,2.938775 7.623559,4.359375 13.078125,4.359375 4.312877,0 7.987743,-0.78061 10.96875,-2.25 2.98093,-1.499998 5.455197,-3.768169 7.453125,-6.890625 v 9.140625 H 70.5 v -13.5 h 9 v -9 h -9 v -8.15625 C 70.49995,35.00224 68.539822,29.117995 64.734375,25.260811 60.928833,21.403717 55.284217,19.49524 47.578125,19.495186 Z M 53.0625,46.354561 h 8.71875 v 1.828125 c -9e-6,0.982472 -0.04275,1.901826 -0.140625,2.8125 h -25.875 c 0.644037,-0.935761 1.478517,-1.787985 2.53125,-2.390625 2.72725,-1.561221 7.693713,-2.249977 14.765625,-2.25 z M 34.78125,59.995186 h 23.484375 c -0.33417,0.466133 -0.603149,0.974934 -0.984375,1.40625 -2.917584,3.306123 -6.819894,5.062509 -11.671875,5.0625 -3.520115,9e-6 -6.235584,-0.926973 -8.296875,-2.671875 -1.198482,-1.048432 -2.02638,-2.319016 -2.53125,-3.796875 z" />
  <path
     style="font-style:normal;font-variant:normal;font-weight:normal;font-stretch:normal;font-size:12px;line-height:125%;font-family:Sans;-inkscape-font-specification:Sans;text-align:start;writing-mode:lr-tb;text-anchor:start;display:inline;opacity:0.75;fill:#ffffff;fill-opacity:1;stroke:none;stroke-width:1.5"
     id="path4002"
     inkscape:connector-curvature="0"
     d="m 47.578125,19.495186 c -2.854148,5.4e-5 -5.846712,0.372195 -8.859375,0.984375 -3.012701,0.581684 -6.078305,1.337423 -9.28125,2.53125 v 1.5 c 3.202945,-1.193827 6.26855,-1.949566 9.28125,-2.53125 3.012663,-0.61218 6.005227,-0.984321 8.859375,-0.984375 7.706092,5.4e-5 13.350708,1.908531 17.15625,5.765625 3.805447,3.857184 5.765575,9.741429 5.765625,17.578125 v -1.5 C 70.49995,35.00224 68.539822,29.117995 64.734375,25.260811 60.928833,21.403717 55.284217,19.49524 47.578125,19.495186 Z m 1.828125,20.25 c -7.959858,3.2e-5 -13.831908,1.420632 -17.859375,4.359375 -2.395149,1.76157 -3.947109,4.108631 -4.921875,6.890625 H 16.5 v 1.5 h 10.125 c 0.974766,-2.781994 2.526726,-5.129055 4.921875,-6.890625 4.027467,-2.938743 9.899517,-4.359343 17.859375,-4.359375 h 12.375 v -0.84375 c -3e-6,-0.226531 0.0096,-0.435747 0,-0.65625 z m 12.375,8.4375 c -9e-6,0.982472 -0.04275,1.901826 -0.140625,2.8125 H 37.125 c -0.514653,0.458004 -0.981477,0.950928 -1.359375,1.5 h 25.875 c 0.09788,-0.910674 0.14061,-1.830028 0.140625,-2.8125 z m 8.71875,2.8125 v 1.5 h 9 v -1.5 z m -35.71875,10.5 c 0.50487,1.477859 1.332768,2.748443 2.53125,3.796875 2.061291,1.744902 4.77676,2.671884 8.296875,2.671875 4.851981,9e-6 8.754291,-1.756377 11.671875,-5.0625 0.381226,-0.431316 0.650205,-0.940117 0.984375,-1.40625 H 57.1875 c -2.907705,3.241088 -6.775633,4.968759 -11.578125,4.96875 -3.520115,9e-6 -6.235584,-0.926973 -8.296875,-2.671875 -0.77133,-0.67476 -1.397989,-1.442047 -1.875,-2.296875 z" />
  <path
     style="font-style:normal;font-variant:normal;font-weight:normal;font-stretch:normal;font-size:12px;line-height:125%;font-family:Sans;-inkscape-font-specification:Sans;text-align:start;writing-mode:lr-tb;text-anchor:start;display:inline;opacity:0.15;fill:#000000;fill-opacity:1;stroke:none;stroke-width:1.5"
     id="path4011"
     inkscape:connector-curvature="0"
     d="m 46.59375,25.167061 c -3.044421,4.5e-5 -5.973564,0.280337 -8.859375,0.984375 -2.885852,0.704124 -5.63304,1.826253 -8.296875,3.234375 v 1.5 c 2.663835,-1.408122 5.411023,-2.530251 8.296875,-3.234375 2.885811,-0.704038 5.814954,-0.98433 8.859375,-0.984375 4.788554,4.5e-5 8.477204,1.091565 11.109375,3.234375 2.508594,1.989207 3.923403,4.77999 4.078125,8.34375 v -0.84375 c -4.5e-5,-3.887716 -1.414314,-6.887713 -4.078125,-9 -2.632171,-2.14281 -6.320821,-3.23433 -11.109375,-3.234375 z m 6.46875,19.6875 c -7.071912,2.3e-5 -12.038375,0.688779 -14.765625,2.25 -1.052733,0.60264 -1.887213,1.454864 -2.53125,2.390625 H 37.125 c 0.362449,-0.322554 0.736848,-0.641593 1.171875,-0.890625 2.72725,-1.561221 7.693713,-2.249977 14.765625,-2.25 h 8.71875 v -1.5 z M 16.5,58.495186 v 1.5 h 9.28125 c 0.507139,3.662465 1.938643,6.766061 4.5,9.140625 3.234655,2.938775 7.623559,4.359375 13.078125,4.359375 4.312877,0 7.987743,-0.78061 10.96875,-2.25 2.98093,-1.499998 5.455197,-3.768169 7.453125,-6.890625 v -1.5 c -1.997928,3.122456 -4.472195,5.390627 -7.453125,6.890625 -2.981007,1.46939 -6.655873,2.25 -10.96875,2.25 -5.454566,0 -9.84347,-1.4206 -13.078125,-4.359375 -2.561357,-2.374564 -3.992861,-5.47816 -4.5,-9.140625 z m 18.28125,0 c 0.179942,0.526724 0.392088,1.026609 0.65625,1.5 h 21.75 c 0.02997,-0.0334 0.06399,-0.06003 0.09375,-0.09375 0.381226,-0.431316 0.650205,-0.940117 0.984375,-1.40625 z m 35.71875,0 v 1.5 h 9 v -1.5 z m -8.71875,13.5 v 1.5 H 70.5 v -1.5 z" />
</svg>
