<?xml version="1.0" encoding="UTF-8" standalone="no"?>
<!-- Created with Inkscape (http://www.inkscape.org/) -->

<svg
   xmlns:dc="http://purl.org/dc/elements/1.1/"
   xmlns:cc="http://creativecommons.org/ns#"
   xmlns:rdf="http://www.w3.org/1999/02/22-rdf-syntax-ns#"
   xmlns:svg="http://www.w3.org/2000/svg"
   xmlns="http://www.w3.org/2000/svg"
   xmlns:xlink="http://www.w3.org/1999/xlink"
   xmlns:sodipodi="http://sodipodi.sourceforge.net/DTD/sodipodi-0.dtd"
   xmlns:inkscape="http://www.inkscape.org/namespaces/inkscape"
   width="22"
   height="22"
   id="svg2"
   sodipodi:version="0.32"
   inkscape:version="0.48.0 r9654"
   version="1.0"
   sodipodi:docname="system-restart-panel.svg"
   inkscape:output_extension="org.inkscape.output.svg.inkscape">
  <defs
     id="defs4">
    <linearGradient
       gradientUnits="userSpaceOnUse"
       y2="19.290417"
       x2="10.458337"
       y1="4.3967042"
       x1="10.458337"
       gradientTransform="scale(1.0744355,0.9307213)"
       id="linearGradient3778">
      <stop
         id="stop3780"
         offset="0"
         style="stop-color:#000000;stop-opacity:0.86274511;" />
      <stop
         id="stop3782"
         offset="1"
         style="stop-color:#000000;stop-opacity:0.47058824;" />
    </linearGradient>
    <linearGradient
       inkscape:collect="always"
       xlink:href="#SpecificGradient"
       id="linearGradient3784"
       gradientUnits="userSpaceOnUse"
       gradientTransform="scale(1.0744355,0.9307213)"
       x1="10.458337"
       y1="4.3967042"
       x2="10.458337"
       y2="19.290417" />
    <linearGradient
       id="StandardGradient"
       gradientTransform="matrix(1.0765258,0,0,0.9227364,-0.00801316,0.1584665)"
       x1="10.005832"
       y1="4.1631975"
       x2="10.005832"
       y2="17.168188"
       gradientUnits="userSpaceOnUse">
      <stop
         id="stop3337"
         offset="0"
         style="stop-color:#ebebeb;stop-opacity:1;" />
      <stop
         id="stop3339"
         offset="1"
         style="stop-color:#aaaaaa;stop-opacity:1;" />
    </linearGradient>
    <linearGradient
       y2="17.168188"
       x2="10.005832"
       y1="4.1631975"
       x1="10.005832"
       gradientTransform="matrix(1.0765258,0,0,0.9227364,-24.008013,-0.8415335)"
       gradientUnits="userSpaceOnUse"
       id="linearGradient4353"
       xlink:href="#StandardGradient"
       inkscape:collect="always" />
    <linearGradient
       inkscape:collect="always"
       xlink:href="#StandardGradient"
       id="linearGradient3803"
       gradientUnits="userSpaceOnUse"
       gradientTransform="scale(1.0744355,0.9307213)"
       x1="10.458337"
       y1="4.3967042"
       x2="10.458337"
       y2="19.290417" />
    <linearGradient
       inkscape:collect="always"
       xlink:href="#SpecificGradient"
       id="linearGradient3196"
       x1="6"
       y1="1"
       x2="6"
       y2="14"
       gradientUnits="userSpaceOnUse"
       gradientTransform="translate(3.8611607,-2.0000001)" />
    <linearGradient
       id="SpecificGradient">
      <stop
         style="stop-color:#f3604d;stop-opacity:1;"
         offset="0"
         id="stop3185-7" />
      <stop
         style="stop-color:#c81700;stop-opacity:1;"
         offset="1"
         id="stop3187-4" />
    </linearGradient>
    <linearGradient
       y2="14"
       x2="6"
       y1="1"
       x1="6"
       gradientTransform="translate(-45,34)"
       gradientUnits="userSpaceOnUse"
       id="linearGradient3059"
       xlink:href="#SpecificGradient"
       inkscape:collect="always" />
  </defs>
  <sodipodi:namedview
     id="base"
     pagecolor="#ffffff"
     bordercolor="#9a9a9a"
     borderopacity="1"
     inkscape:pageopacity="0.0"
     inkscape:pageshadow="2"
     inkscape:zoom="9.8944928"
     inkscape:cx="-25.179898"
     inkscape:cy="-1.9933209"
     inkscape:document-units="px"
     inkscape:current-layer="layer1"
     showgrid="true"
     inkscape:showpageshadow="false"
     showguides="true"
     inkscape:guide-bbox="true"
     inkscape:window-width="1920"
     inkscape:window-height="1029"
     inkscape:window-x="0"
     inkscape:window-y="25"
     inkscape:window-maximized="1">
    <sodipodi:guide
       orientation="0,1"
       position="26.278146,128"
       id="guide2385" />
    <sodipodi:guide
       orientation="1,0"
       position="128,54.082119"
       id="guide2387" />
    <inkscape:grid
       type="xygrid"
       id="grid3672"
       visible="true"
       enabled="true" />
  </sodipodi:namedview>
  <metadata
     id="metadata7">
    <rdf:RDF>
      <cc:Work
         rdf:about="">
        <dc:format>image/svg+xml</dc:format>
        <dc:type
           rdf:resource="http://purl.org/dc/dcmitype/StillImage" />
      </cc:Work>
    </rdf:RDF>
  </metadata>
  <g
     inkscape:groupmode="layer"
     id="layer1"
     inkscape:label="Calque 1"
     style="display:inline">
    <path
       sodipodi:type="inkscape:offset"
       inkscape:radius="1.1225139"
       inkscape:original="M 12.0625 4.09375 C 8.3824524 4.0937492 5.3797983 6.9696724 5.15625 10.59375 L 3 10.59375 L 6.46875 15.78125 L 9.9375 10.59375 L 7.46875 10.59375 C 7.6818146 8.24248 9.6549404 6.40625 12.0625 6.40625 C 14.612716 6.4062508 16.6875 8.4810329 16.6875 11.03125 C 16.6875 13.581465 14.612716 15.625 12.0625 15.625 L 12.0625 17.9375 C 15.887825 17.9375 19 14.856574 19 11.03125 C 19.000001 7.2059247 15.887825 4.09375 12.0625 4.09375 z "
       style="fill:#000000;fill-opacity:1;stroke:none;opacity:0.1"
       id="path3805"
       d="m 12.0625,2.96875 c -3.8831315,-8e-7 -7.0033765,2.829687 -7.75,6.5 l -1.3125,0 a 1.1226261,1.1226261 0 0 0 -0.9375,1.75 l 3.46875,5.1875 a 1.1226261,1.1226261 0 0 0 1.875,0 l 3.46875,-5.1875 a 1.1226261,1.1226261 0 0 0 -0.9375,-1.75 l -0.75,0 c 0.5864627,-1.0893701 1.535873,-1.9375 2.875,-1.9375 1.941386,6e-7 3.5,1.5586131 3.5,3.5 0,1.941384 -1.549445,3.46875 -3.5,3.46875 a 1.1226261,1.1226261 0 0 0 -1.125,1.125 l 0,2.3125 a 1.1226261,1.1226261 0 0 0 1.125,1.125 c 4.428042,0 8.0625,-3.597096 8.0625,-8.03125 1e-6,-4.4341557 -3.628345,-8.0625 -8.0625,-8.0625 z" />
    <path
       style="opacity:1;fill:url(#linearGradient3784);fill-opacity:1.0;stroke:none;stroke-width:0.99999994000000003;stroke-linecap:round;stroke-linejoin:miter;stroke-miterlimit:4;stroke-dasharray:none;stroke-opacity:1"
       d="M 3,10.588922 L 6.4649682,15.779029 L 9.9299363,10.588922 L 7.4840764,10.588922 C 7.697141,8.237652 9.6625044,6.4105775 12.070064,6.4105775 C 14.62028,6.4105783 16.681529,8.4718259 16.681529,11.022043 C 16.681529,13.572258 14.62028,15.633508 12.070064,15.633508 L 12.070064,17.951979 C 15.895389,17.951979 19,14.847367 19,11.022043 C 19.000001,7.1967177 15.895389,4.0921062 12.070064,4.0921062 C 8.3900164,4.0921054 5.3891534,6.9648444 5.1656051,10.588922 L 3,10.588922 z"
       id="Symbol"
       sodipodi:nodetypes="ccccssccsscc"
       inkscape:label="#path3281" />
    <path
       style="opacity:0.3;fill:#ffffff;fill-opacity:1;stroke:none;stroke-width:0.99999994000000003;stroke-linecap:round;stroke-linejoin:miter;stroke-miterlimit:4;stroke-dasharray:none;stroke-opacity:1"
       d="M 12.0625,4.09375 C 8.3824528,4.0937491 5.3797983,6.9696724 5.15625,10.59375 L 3,10.59375 L 3.6875,11.625 L 5.15625,11.625 C 5.3797983,8.0009224 8.3824528,5.1249992 12.0625,5.125 C 15.648742,5.125 18.613659,7.8819466 18.96875,11.375 C 18.974766,11.256699 19,11.151038 19,11.03125 C 19.000001,7.2059245 15.887825,4.09375 12.0625,4.09375 z M 7.71875,10.59375 C 7.6067128,10.927665 7.5017207,11.261153 7.46875,11.625 L 9.25,11.625 L 9.9375,10.59375 L 7.71875,10.59375 z M 16.625,11.53125 C 16.366749,13.835288 14.436451,15.625 12.0625,15.625 L 12.0625,16.6875 C 14.612716,16.6875 16.687501,14.612715 16.6875,12.0625 C 16.6875,11.881544 16.645195,11.70672 16.625,11.53125 z"
       id="BevelShadow"
       inkscape:label="#path3168" />
    <path
       style="opacity:0.55;fill:#000000;fill-opacity:1;stroke:none;stroke-width:0.99999994000000003;stroke-linecap:round;stroke-linejoin:miter;stroke-miterlimit:4;stroke-dasharray:none;stroke-opacity:1"
       d="M 12.0625,6.40625 C 9.6549404,6.40625 7.6818145,8.2424805 7.46875,10.59375 L 7.71875,10.59375 C 8.3307246,8.7698269 10.027498,7.46875 12.0625,7.46875 C 14.43176,7.4687506 16.360591,9.2338113 16.625,11.53125 C 16.644175,11.360176 16.6875,11.207515 16.6875,11.03125 C 16.6875,8.4810329 14.612716,6.406251 12.0625,6.40625 z M 16.625,11.53125 C 16.592719,11.819255 16.519634,12.105559 16.4375,12.375 C 16.523202,12.099968 16.591977,11.825869 16.625,11.53125 z M 16.4375,12.375 C 16.355366,12.644441 16.252187,12.910355 16.125,13.15625 C 16.255681,12.909125 16.352957,12.646312 16.4375,12.375 z M 16.125,13.15625 C 15.997813,13.402145 15.854943,13.626382 15.6875,13.84375 C 15.856949,13.627928 15.995738,13.40069 16.125,13.15625 z M 15.6875,13.84375 C 15.520057,14.061118 15.3279,14.253642 15.125,14.4375 C 15.329464,14.255375 15.518226,14.059349 15.6875,13.84375 z M 15.125,14.4375 C 14.9221,14.621358 14.702309,14.792133 14.46875,14.9375 C 14.704528,14.793355 14.91973,14.620344 15.125,14.4375 z M 14.46875,14.9375 C 14.235191,15.082867 14.009419,15.210607 13.75,15.3125 C 14.003935,15.21347 14.239103,15.077896 14.46875,14.9375 z M 5.375,9.28125 C 5.2643143,9.7067241 5.1841935,10.14074 5.15625,10.59375 C 5.1841935,10.14074 5.2643633,9.706637 5.375,9.28125 z M 3,10.59375 L 3,11.625 L 6.46875,16.8125 L 9.9375,11.625 L 9.9375,10.59375 L 6.46875,15.78125 L 3,10.59375 z M 19,11.03125 C 19,14.856574 15.887825,17.9375 12.0625,17.9375 L 12.0625,19 C 15.887825,19 19,15.887824 19,12.0625 C 19,11.690637 19,11.374009 19,11.03125 z"
       id="BevelHighlight"
       inkscape:label="#path3173" />
  </g>
</svg>
