<?xml version="1.0" encoding="UTF-8" standalone="no"?>
<!-- Created with Inkscape (http://www.inkscape.org/) -->

<svg
   xmlns:dc="http://purl.org/dc/elements/1.1/"
   xmlns:cc="http://creativecommons.org/ns#"
   xmlns:rdf="http://www.w3.org/1999/02/22-rdf-syntax-ns#"
   xmlns:svg="http://www.w3.org/2000/svg"
   xmlns="http://www.w3.org/2000/svg"
   xmlns:xlink="http://www.w3.org/1999/xlink"
   xmlns:sodipodi="http://sodipodi.sourceforge.net/DTD/sodipodi-0.dtd"
   xmlns:inkscape="http://www.inkscape.org/namespaces/inkscape"
   version="1.0"
   width="96"
   height="96"
   id="svg2408"
   inkscape:version="0.48.0 r9654"
   sodipodi:docname="netbeans (copy).svg">
  <sodipodi:namedview
     pagecolor="#ffffff"
     bordercolor="#666666"
     borderopacity="1"
     objecttolerance="10"
     gridtolerance="10"
     guidetolerance="10"
     inkscape:pageopacity="0"
     inkscape:pageshadow="2"
     inkscape:window-width="1098"
     inkscape:window-height="728"
     id="namedview65"
     showgrid="false"
     showguides="true"
     inkscape:guide-bbox="true"
     inkscape:zoom="2.813257"
     inkscape:cx="78.563345"
     inkscape:cy="48.796243"
     inkscape:window-x="180"
     inkscape:window-y="24"
     inkscape:window-maximized="0"
     inkscape:current-layer="svg2408">
    <sodipodi:guide
       orientation="0,1"
       position="77.103287,36.512564"
       id="guide3982" />
    <sodipodi:guide
       orientation="0,1"
       position="77.061388,32.667176"
       id="guide3984" />
  </sodipodi:namedview>
  <defs
     id="defs2410">
    <linearGradient
       id="linearGradient3859">
      <stop
         id="stop3861"
         style="stop-color:#fffc6d;stop-opacity:1"
         offset="0" />
      <stop
         id="stop3863"
         style="stop-color:#ffffff;stop-opacity:0"
         offset="1" />
    </linearGradient>
    <linearGradient
       x1="45.447727"
       y1="92.539597"
       x2="45.447727"
       y2="7.0165396"
       id="ButtonShadow"
       gradientUnits="userSpaceOnUse"
       gradientTransform="scale(1.0058652,0.994169)">
      <stop
         id="stop3750"
         style="stop-color:#000000;stop-opacity:1"
         offset="0" />
      <stop
         id="stop3752"
         style="stop-color:#000000;stop-opacity:0.58823532"
         offset="1" />
    </linearGradient>
    <linearGradient
       id="linearGradient3737">
      <stop
         id="stop3739"
         style="stop-color:#ffffff;stop-opacity:1"
         offset="0" />
      <stop
         id="stop3741"
         style="stop-color:#ffffff;stop-opacity:0"
         offset="1" />
    </linearGradient>
    <linearGradient
       id="linearGradient3700">
      <stop
         id="stop3702"
         style="stop-color:#adc9de;stop-opacity:1;"
         offset="0" />
      <stop
         offset="0.5945946"
         style="stop-color:#3052d2;stop-opacity:1;"
         id="stop3998" />
      <stop
         id="stop3704"
         style="stop-color:#5579e8;stop-opacity:1;"
         offset="1" />
    </linearGradient>
    <filter
       color-interpolation-filters="sRGB"
       id="filter3174">
      <feGaussianBlur
         id="feGaussianBlur3176"
         stdDeviation="1.71" />
    </filter>
    <linearGradient
       x1="36.357143"
       y1="6"
       x2="36.357143"
       y2="63.893143"
       id="linearGradient3188"
       xlink:href="#linearGradient3737"
       gradientUnits="userSpaceOnUse" />
    <filter
       x="-0.192"
       y="-0.192"
       width="1.3839999"
       height="1.3839999"
       color-interpolation-filters="sRGB"
       id="filter3794">
      <feGaussianBlur
         id="feGaussianBlur3796"
         stdDeviation="5.28" />
    </filter>
    <linearGradient
       x1="48"
       y1="20.220806"
       x2="48"
       y2="138.66119"
       id="linearGradient3613"
       xlink:href="#linearGradient3859"
       gradientUnits="userSpaceOnUse" />
    <radialGradient
       cx="48"
       cy="90.171875"
       r="42"
       fx="48"
       fy="90.171875"
       id="radialGradient3619"
       xlink:href="#linearGradient3737"
       gradientUnits="userSpaceOnUse"
       gradientTransform="matrix(1.1573129,0,0,0.99590774,-7.5510206,0.19713193)" />
    <clipPath
       id="clipPath3613">
      <rect
         width="84"
         height="84"
         rx="6"
         ry="6"
         x="6"
         y="6"
         id="rect3615"
         style="fill:#ffffff;fill-opacity:1;fill-rule:nonzero;stroke:none" />
    </clipPath>
    <linearGradient
       x1="48"
       y1="90"
       x2="48"
       y2="5.9877172"
       id="linearGradient3617"
       xlink:href="#linearGradient3700"
       gradientUnits="userSpaceOnUse" />
    <linearGradient
       x1="45.447727"
       y1="92.539597"
       x2="45.447727"
       y2="7.0165396"
       id="ButtonShadow-0"
       gradientUnits="userSpaceOnUse"
       gradientTransform="matrix(1.0058652,0,0,0.994169,100,0)">
      <stop
         id="stop3750-8"
         style="stop-color:#000000;stop-opacity:1"
         offset="0" />
      <stop
         id="stop3752-5"
         style="stop-color:#000000;stop-opacity:0.58823532"
         offset="1" />
    </linearGradient>
    <linearGradient
       x1="32.251034"
       y1="6.1317081"
       x2="32.251034"
       y2="90.238609"
       id="linearGradient3780"
       xlink:href="#ButtonShadow-0"
       gradientUnits="userSpaceOnUse"
       gradientTransform="matrix(1.0238095,0,0,1.0119048,-1.1428571,-98.071429)" />
    <linearGradient
       x1="32.251034"
       y1="6.1317081"
       x2="32.251034"
       y2="90.238609"
       id="linearGradient3772"
       xlink:href="#ButtonShadow-0"
       gradientUnits="userSpaceOnUse"
       gradientTransform="matrix(1.0238095,0,0,1.0119048,-1.1428571,-98.071429)" />
    <linearGradient
       x1="32.251034"
       y1="6.1317081"
       x2="32.251034"
       y2="90.238609"
       id="linearGradient3725"
       xlink:href="#ButtonShadow-0"
       gradientUnits="userSpaceOnUse"
       gradientTransform="matrix(1.0238095,0,0,1.0119048,-1.1428571,-98.071429)" />
    <linearGradient
       x1="32.251034"
       y1="6.1317081"
       x2="32.251034"
       y2="90.238609"
       id="linearGradient3721"
       xlink:href="#ButtonShadow-0"
       gradientUnits="userSpaceOnUse"
       gradientTransform="translate(0,-97)" />
    <linearGradient
       x1="32.251034"
       y1="6.1317081"
       x2="32.251034"
       y2="90.238609"
       id="linearGradient3026"
       xlink:href="#ButtonShadow-0"
       gradientUnits="userSpaceOnUse"
       gradientTransform="matrix(1.0238095,0,0,1.0119048,-1.1428571,-98.071429)" />
    <linearGradient
       id="linearGradient3697">
      <stop
         id="stop3699"
         style="stop-color:#ffffff;stop-opacity:1"
         offset="0" />
      <stop
         id="stop3701"
         style="stop-color:#ffffff;stop-opacity:0"
         offset="1" />
    </linearGradient>
    <linearGradient
       x1="96"
       y1="16"
       x2="16"
       y2="64"
       id="linearGradient2882"
       xlink:href="#linearGradient3697"
       gradientUnits="userSpaceOnUse" />
    <linearGradient
       id="linearGradient12684-9">
      <stop
         id="stop12686-8"
         style="stop-color:#ffffff;stop-opacity:1"
         offset="0" />
      <stop
         id="stop12692-9"
         style="stop-color:#ffffff;stop-opacity:0.84536082"
         offset="0.34999999" />
      <stop
         id="stop12688-3"
         style="stop-color:#ffffff;stop-opacity:0"
         offset="1" />
    </linearGradient>
    <linearGradient
       x1="48"
       y1="8"
       x2="48"
       y2="56"
       id="linearGradient3105"
       xlink:href="#linearGradient12684-9"
       gradientUnits="userSpaceOnUse"
       gradientTransform="translate(-100,0)" />
    <linearGradient
       inkscape:collect="always"
       xlink:href="#linearGradient12684-9"
       id="linearGradient3043"
       gradientUnits="userSpaceOnUse"
       gradientTransform="translate(-100,0)"
       x1="48"
       y1="8"
       x2="48"
       y2="56" />
    <linearGradient
       inkscape:collect="always"
       xlink:href="#linearGradient3697"
       id="linearGradient3046"
       gradientUnits="userSpaceOnUse"
       x1="96"
       y1="16"
       x2="16"
       y2="64" />
    <radialGradient
       inkscape:collect="always"
       xlink:href="#linearGradient3737"
       id="radialGradient3049"
       gradientUnits="userSpaceOnUse"
       gradientTransform="matrix(1.1573129,0,0,0.99590774,-7.5510206,0.19713193)"
       cx="48"
       cy="90.171875"
       fx="48"
       fy="90.171875"
       r="42" />
    <linearGradient
       inkscape:collect="always"
       xlink:href="#linearGradient3737"
       id="linearGradient3052"
       gradientUnits="userSpaceOnUse"
       x1="36.357143"
       y1="6"
       x2="36.357143"
       y2="63.893143" />
    <linearGradient
       inkscape:collect="always"
       xlink:href="#linearGradient3700"
       id="linearGradient3055"
       gradientUnits="userSpaceOnUse"
       x1="48"
       y1="90"
       x2="48"
       y2="5.9877172" />
    <linearGradient
       inkscape:collect="always"
       xlink:href="#ButtonShadow-0"
       id="linearGradient3923"
       gradientUnits="userSpaceOnUse"
       gradientTransform="matrix(1.0238095,0,0,1.0119048,-1.1428571,-98.071429)"
       x1="32.251034"
       y1="6.1317081"
       x2="32.251034"
       y2="90.238609" />
    <linearGradient
       inkscape:collect="always"
       xlink:href="#ButtonShadow-0"
       id="linearGradient3925"
       gradientUnits="userSpaceOnUse"
       gradientTransform="matrix(1.0238095,0,0,1.0119048,-1.1428571,-98.071429)"
       x1="32.251034"
       y1="6.1317081"
       x2="32.251034"
       y2="90.238609" />
    <linearGradient
       inkscape:collect="always"
       xlink:href="#ButtonShadow-0"
       id="linearGradient3927"
       gradientUnits="userSpaceOnUse"
       gradientTransform="matrix(1.0238095,0,0,1.0119048,-1.1428571,-98.071429)"
       x1="32.251034"
       y1="6.1317081"
       x2="32.251034"
       y2="90.238609" />
    <linearGradient
       inkscape:collect="always"
       xlink:href="#ButtonShadow-0"
       id="linearGradient3929"
       gradientUnits="userSpaceOnUse"
       gradientTransform="matrix(1.0238095,0,0,1.0119048,-1.1428571,-98.071429)"
       x1="32.251034"
       y1="6.1317081"
       x2="32.251034"
       y2="90.238609" />
    <linearGradient
       inkscape:collect="always"
       xlink:href="#ButtonShadow-0"
       id="linearGradient3931"
       gradientUnits="userSpaceOnUse"
       gradientTransform="translate(0,-97)"
       x1="32.251034"
       y1="6.1317081"
       x2="32.251034"
       y2="90.238609" />
    <linearGradient
       inkscape:collect="always"
       xlink:href="#linearGradient3700"
       id="linearGradient3933"
       gradientUnits="userSpaceOnUse"
       x1="48"
       y1="90"
       x2="48"
       y2="5.9877172"
       gradientTransform="translate(-99.1563,0.65866485)" />
    <linearGradient
       inkscape:collect="always"
       xlink:href="#linearGradient3737"
       id="linearGradient3935"
       gradientUnits="userSpaceOnUse"
       x1="36.357143"
       y1="6"
       x2="36.357143"
       y2="63.893143"
       gradientTransform="translate(-99.1563,0.65866485)" />
    <radialGradient
       inkscape:collect="always"
       xlink:href="#linearGradient3737"
       id="radialGradient3937"
       gradientUnits="userSpaceOnUse"
       gradientTransform="matrix(1.1573129,0,0,0.99590774,-106.70732,0.85579685)"
       cx="48"
       cy="90.171875"
       fx="48"
       fy="90.171875"
       r="42" />
    <linearGradient
       inkscape:collect="always"
       xlink:href="#linearGradient3697"
       id="linearGradient3939"
       gradientUnits="userSpaceOnUse"
       x1="96"
       y1="16"
       x2="16"
       y2="64"
       gradientTransform="translate(-99.1563,0.65866485)" />
    <linearGradient
       inkscape:collect="always"
       xlink:href="#linearGradient3859"
       id="linearGradient3941"
       gradientUnits="userSpaceOnUse"
       x1="48"
       y1="20.220806"
       x2="48"
       y2="138.66119" />
    <linearGradient
       inkscape:collect="always"
       xlink:href="#linearGradient3859"
       id="linearGradient3980"
       gradientUnits="userSpaceOnUse"
       x1="48"
       y1="20.220806"
       x2="48"
       y2="138.66119" />
    <linearGradient
       inkscape:collect="always"
       xlink:href="#linearGradient3859"
       id="linearGradient3996"
       gradientUnits="userSpaceOnUse"
       x1="48"
       y1="20.220806"
       x2="48"
       y2="138.66119" />
    <linearGradient
       inkscape:collect="always"
       xlink:href="#linearGradient3697"
       id="linearGradient4000"
       gradientUnits="userSpaceOnUse"
       x1="96"
       y1="16"
       x2="16"
       y2="64"
       gradientTransform="translate(-38.657449,-22.041528)" />
    <linearGradient
       inkscape:collect="always"
       xlink:href="#ButtonShadow-0"
       id="linearGradient4002"
       gradientUnits="userSpaceOnUse"
       gradientTransform="matrix(1.0238095,0,0,1.0119048,-1.1428571,-98.071429)"
       x1="32.251034"
       y1="6.1317081"
       x2="32.251034"
       y2="90.238609" />
    <linearGradient
       inkscape:collect="always"
       xlink:href="#ButtonShadow-0"
       id="linearGradient4004"
       gradientUnits="userSpaceOnUse"
       gradientTransform="matrix(1.0238095,0,0,1.0119048,-1.1428571,-98.071429)"
       x1="32.251034"
       y1="6.1317081"
       x2="32.251034"
       y2="90.238609" />
    <linearGradient
       inkscape:collect="always"
       xlink:href="#ButtonShadow-0"
       id="linearGradient4006"
       gradientUnits="userSpaceOnUse"
       gradientTransform="matrix(1.0238095,0,0,1.0119048,-1.1428571,-98.071429)"
       x1="32.251034"
       y1="6.1317081"
       x2="32.251034"
       y2="90.238609" />
    <linearGradient
       inkscape:collect="always"
       xlink:href="#ButtonShadow-0"
       id="linearGradient4008"
       gradientUnits="userSpaceOnUse"
       gradientTransform="matrix(1.0238095,0,0,1.0119048,-1.1428571,-98.071429)"
       x1="32.251034"
       y1="6.1317081"
       x2="32.251034"
       y2="90.238609" />
    <linearGradient
       inkscape:collect="always"
       xlink:href="#ButtonShadow-0"
       id="linearGradient4010"
       gradientUnits="userSpaceOnUse"
       gradientTransform="translate(0,-97)"
       x1="32.251034"
       y1="6.1317081"
       x2="32.251034"
       y2="90.238609" />
    <linearGradient
       inkscape:collect="always"
       xlink:href="#linearGradient3737"
       id="linearGradient4012"
       gradientUnits="userSpaceOnUse"
       x1="36.357143"
       y1="6"
       x2="36.357143"
       y2="63.893143"
       gradientTransform="translate(-103.58506,36.926153)" />
    <linearGradient
       inkscape:collect="always"
       xlink:href="#linearGradient3859"
       id="linearGradient4081"
       gradientUnits="userSpaceOnUse"
       x1="48"
       y1="20.220806"
       x2="48"
       y2="138.66119" />
    <linearGradient
       inkscape:collect="always"
       xlink:href="#linearGradient3859"
       id="linearGradient4108"
       gradientUnits="userSpaceOnUse"
       x1="48"
       y1="20.220806"
       x2="48"
       y2="138.66119" />
    <linearGradient
       gradientTransform="translate(-100,0)"
       gradientUnits="userSpaceOnUse"
       xlink:href="#linearGradient12684-9-4"
       id="linearGradient3105-4"
       y2="56"
       x2="48"
       y1="8"
       x1="48" />
    <linearGradient
       id="linearGradient12684-9-4">
      <stop
         offset="0"
         style="stop-color:#ffffff;stop-opacity:1"
         id="stop12686-8-9" />
      <stop
         offset="0.34999999"
         style="stop-color:#ffffff;stop-opacity:0.84536082"
         id="stop12692-9-5" />
      <stop
         offset="1"
         style="stop-color:#ffffff;stop-opacity:0"
         id="stop12688-3-0" />
    </linearGradient>
    <linearGradient
       gradientUnits="userSpaceOnUse"
       xlink:href="#linearGradient3697-9"
       id="linearGradient2882-6"
       y2="64"
       x2="16"
       y1="16"
       x1="96" />
    <linearGradient
       id="linearGradient3697-9">
      <stop
         offset="0"
         style="stop-color:#ffffff;stop-opacity:1"
         id="stop3699-2" />
      <stop
         offset="1"
         style="stop-color:#ffffff;stop-opacity:0"
         id="stop3701-6" />
    </linearGradient>
    <linearGradient
       gradientTransform="matrix(1.0238095,0,0,1.0119048,-1.1428571,-98.071429)"
       gradientUnits="userSpaceOnUse"
       xlink:href="#ButtonShadow-0-3"
       id="linearGradient3026-8"
       y2="90.238609"
       x2="32.251034"
       y1="6.1317081"
       x1="32.251034" />
    <linearGradient
       gradientTransform="translate(0,-97)"
       gradientUnits="userSpaceOnUse"
       xlink:href="#ButtonShadow-0-3"
       id="linearGradient3721-6"
       y2="90.238609"
       x2="32.251034"
       y1="6.1317081"
       x1="32.251034" />
    <linearGradient
       gradientTransform="matrix(1.0238095,0,0,1.0119048,-1.1428571,-98.071429)"
       gradientUnits="userSpaceOnUse"
       xlink:href="#ButtonShadow-0-3"
       id="linearGradient3725-0"
       y2="90.238609"
       x2="32.251034"
       y1="6.1317081"
       x1="32.251034" />
    <linearGradient
       gradientTransform="matrix(1.0238095,0,0,1.0119048,-1.1428571,-98.071429)"
       gradientUnits="userSpaceOnUse"
       xlink:href="#ButtonShadow-0-3"
       id="linearGradient3772-2"
       y2="90.238609"
       x2="32.251034"
       y1="6.1317081"
       x1="32.251034" />
    <linearGradient
       gradientTransform="matrix(1.0238095,0,0,1.0119048,-1.1428571,-98.071429)"
       gradientUnits="userSpaceOnUse"
       xlink:href="#ButtonShadow-0-3"
       id="linearGradient3780-9"
       y2="90.238609"
       x2="32.251034"
       y1="6.1317081"
       x1="32.251034" />
    <linearGradient
       gradientTransform="matrix(1.0058652,0,0,0.994169,100,0)"
       gradientUnits="userSpaceOnUse"
       id="ButtonShadow-0-3"
       y2="7.0165396"
       x2="45.447727"
       y1="92.539597"
       x1="45.447727">
      <stop
         offset="0"
         style="stop-color:#000000;stop-opacity:1"
         id="stop3750-8-1" />
      <stop
         offset="1"
         style="stop-color:#000000;stop-opacity:0.58823532"
         id="stop3752-5-4" />
    </linearGradient>
    <linearGradient
       gradientUnits="userSpaceOnUse"
       xlink:href="#linearGradient3700-5"
       id="linearGradient3617-4"
       y2="5.9877172"
       x2="48"
       y1="90"
       x1="48" />
    <clipPath
       id="clipPath3613-8">
      <rect
         style="fill:#ffffff;fill-opacity:1;fill-rule:nonzero;stroke:none"
         id="rect3615-8"
         y="6"
         x="6"
         ry="6"
         rx="6"
         height="84"
         width="84" />
    </clipPath>
    <radialGradient
       gradientTransform="matrix(1.1573129,0,0,0.99590774,-7.5510206,0.19713193)"
       gradientUnits="userSpaceOnUse"
       xlink:href="#linearGradient3737-4"
       id="radialGradient3619-6"
       fy="90.171875"
       fx="48"
       r="42"
       cy="90.171875"
       cx="48" />
    <linearGradient
       gradientUnits="userSpaceOnUse"
       xlink:href="#linearGradient3859-6"
       id="linearGradient3613-8"
       y2="138.66119"
       x2="48"
       y1="20.220806"
       x1="48" />
    <filter
       id="filter3794-0"
       color-interpolation-filters="sRGB"
       height="1.3839999"
       width="1.3839999"
       y="-0.192"
       x="-0.192">
      <feGaussianBlur
         stdDeviation="5.28"
         id="feGaussianBlur3796-7" />
    </filter>
    <linearGradient
       gradientUnits="userSpaceOnUse"
       xlink:href="#linearGradient3737-4"
       id="linearGradient3188-3"
       y2="63.893143"
       x2="36.357143"
       y1="6"
       x1="36.357143" />
    <filter
       id="filter3174-4"
       color-interpolation-filters="sRGB">
      <feGaussianBlur
         stdDeviation="1.71"
         id="feGaussianBlur3176-4" />
    </filter>
    <linearGradient
       id="linearGradient3700-5">
      <stop
         offset="0"
         style="stop-color:#a12225;stop-opacity:1"
         id="stop3702-4" />
      <stop
         offset="1"
         style="stop-color:#ce1b1f;stop-opacity:1"
         id="stop3704-7" />
    </linearGradient>
    <linearGradient
       id="linearGradient3737-4">
      <stop
         offset="0"
         style="stop-color:#ffffff;stop-opacity:1"
         id="stop3739-5" />
      <stop
         offset="1"
         style="stop-color:#ffffff;stop-opacity:0"
         id="stop3741-2" />
    </linearGradient>
    <linearGradient
       gradientTransform="scale(1.0058652,0.994169)"
       gradientUnits="userSpaceOnUse"
       id="ButtonShadow-9"
       y2="7.0165396"
       x2="45.447727"
       y1="92.539597"
       x1="45.447727">
      <stop
         offset="0"
         style="stop-color:#000000;stop-opacity:1"
         id="stop3750-3" />
      <stop
         offset="1"
         style="stop-color:#000000;stop-opacity:0.58823532"
         id="stop3752-7" />
    </linearGradient>
    <linearGradient
       id="linearGradient3859-6">
      <stop
         offset="0"
         style="stop-color:#fffc6d;stop-opacity:1"
         id="stop3861-5" />
      <stop
         offset="1"
         style="stop-color:#ffffff;stop-opacity:0"
         id="stop3863-6" />
    </linearGradient>
    <linearGradient
       inkscape:collect="always"
       xlink:href="#linearGradient3859-6"
       id="linearGradient4327"
       gradientUnits="userSpaceOnUse"
       x1="48"
       y1="20.220806"
       x2="48"
       y2="138.66119" />
    <linearGradient
       inkscape:collect="always"
       xlink:href="#ButtonShadow-9"
       id="linearGradient4350"
       gradientUnits="userSpaceOnUse"
       gradientTransform="scale(1.0058652,0.994169)"
       x1="45.447727"
       y1="92.539597"
       x2="45.447727"
       y2="7.0165396" />
    <linearGradient
       inkscape:collect="always"
       xlink:href="#linearGradient3859-6"
       id="linearGradient4372"
       gradientUnits="userSpaceOnUse"
       x1="48"
       y1="20.220806"
       x2="48"
       y2="138.66119" />
    <linearGradient
       inkscape:collect="always"
       xlink:href="#linearGradient3859-6"
       id="linearGradient4457"
       gradientUnits="userSpaceOnUse"
       x1="48"
       y1="20.220806"
       x2="48"
       y2="138.66119" />
    <linearGradient
       inkscape:collect="always"
       xlink:href="#ButtonShadow-0-3"
       id="linearGradient4495"
       gradientUnits="userSpaceOnUse"
       gradientTransform="matrix(1.0238095,0,0,1.0119048,-1.1428571,-98.071429)"
       x1="32.251034"
       y1="6.1317081"
       x2="32.251034"
       y2="90.238609" />
    <linearGradient
       inkscape:collect="always"
       xlink:href="#ButtonShadow-0-3"
       id="linearGradient4497"
       gradientUnits="userSpaceOnUse"
       gradientTransform="matrix(1.0238095,0,0,1.0119048,-1.1428571,-98.071429)"
       x1="32.251034"
       y1="6.1317081"
       x2="32.251034"
       y2="90.238609" />
    <linearGradient
       inkscape:collect="always"
       xlink:href="#ButtonShadow-0-3"
       id="linearGradient4499"
       gradientUnits="userSpaceOnUse"
       gradientTransform="matrix(1.0238095,0,0,1.0119048,-1.1428571,-98.071429)"
       x1="32.251034"
       y1="6.1317081"
       x2="32.251034"
       y2="90.238609" />
    <linearGradient
       inkscape:collect="always"
       xlink:href="#ButtonShadow-0-3"
       id="linearGradient4501"
       gradientUnits="userSpaceOnUse"
       gradientTransform="matrix(1.0238095,0,0,1.0119048,-1.1428571,-98.071429)"
       x1="32.251034"
       y1="6.1317081"
       x2="32.251034"
       y2="90.238609" />
    <linearGradient
       inkscape:collect="always"
       xlink:href="#ButtonShadow-0-3"
       id="linearGradient4503"
       gradientUnits="userSpaceOnUse"
       gradientTransform="translate(0,-97)"
       x1="32.251034"
       y1="6.1317081"
       x2="32.251034"
       y2="90.238609" />
    <linearGradient
       inkscape:collect="always"
       xlink:href="#linearGradient3700-5"
       id="linearGradient4505"
       gradientUnits="userSpaceOnUse"
       gradientTransform="translate(-140.04727,158.71714)"
       x1="48"
       y1="90"
       x2="48"
       y2="5.9877172" />
    <linearGradient
       inkscape:collect="always"
       xlink:href="#linearGradient3737-4"
       id="linearGradient4507"
       gradientUnits="userSpaceOnUse"
       gradientTransform="translate(-140.04727,158.71714)"
       x1="36.357143"
       y1="6"
       x2="36.357143"
       y2="63.893143" />
    <radialGradient
       inkscape:collect="always"
       xlink:href="#linearGradient3737-4"
       id="radialGradient4509"
       gradientUnits="userSpaceOnUse"
       gradientTransform="matrix(1.1573129,0,0,0.99590774,-147.59829,158.91427)"
       cx="48"
       cy="90.171875"
       fx="48"
       fy="90.171875"
       r="42" />
    <linearGradient
       inkscape:collect="always"
       xlink:href="#linearGradient3697-9"
       id="linearGradient4511"
       gradientUnits="userSpaceOnUse"
       gradientTransform="translate(-140.04727,158.71714)"
       x1="96"
       y1="16"
       x2="16"
       y2="64" />
    <linearGradient
       inkscape:collect="always"
       xlink:href="#linearGradient3859-6"
       id="linearGradient4513"
       gradientUnits="userSpaceOnUse"
       x1="48"
       y1="20.220806"
       x2="48"
       y2="138.66119" />
    <linearGradient
       inkscape:collect="always"
       xlink:href="#ButtonShadow-0-3"
       id="linearGradient4551"
       gradientUnits="userSpaceOnUse"
       gradientTransform="matrix(1.0238095,0,0,1.0119048,-1.1428571,-98.071429)"
       x1="32.251034"
       y1="6.1317081"
       x2="32.251034"
       y2="90.238609" />
    <linearGradient
       inkscape:collect="always"
       xlink:href="#ButtonShadow-0-3"
       id="linearGradient4553"
       gradientUnits="userSpaceOnUse"
       gradientTransform="matrix(1.0238095,0,0,1.0119048,-1.1428571,-98.071429)"
       x1="32.251034"
       y1="6.1317081"
       x2="32.251034"
       y2="90.238609" />
    <linearGradient
       inkscape:collect="always"
       xlink:href="#ButtonShadow-0-3"
       id="linearGradient4555"
       gradientUnits="userSpaceOnUse"
       gradientTransform="matrix(1.0238095,0,0,1.0119048,-1.1428571,-98.071429)"
       x1="32.251034"
       y1="6.1317081"
       x2="32.251034"
       y2="90.238609" />
    <linearGradient
       inkscape:collect="always"
       xlink:href="#ButtonShadow-0-3"
       id="linearGradient4557"
       gradientUnits="userSpaceOnUse"
       gradientTransform="matrix(1.0238095,0,0,1.0119048,-1.1428571,-98.071429)"
       x1="32.251034"
       y1="6.1317081"
       x2="32.251034"
       y2="90.238609" />
    <linearGradient
       inkscape:collect="always"
       xlink:href="#ButtonShadow-0-3"
       id="linearGradient4559"
       gradientUnits="userSpaceOnUse"
       gradientTransform="translate(0,-97)"
       x1="32.251034"
       y1="6.1317081"
       x2="32.251034"
       y2="90.238609" />
    <linearGradient
       inkscape:collect="always"
       xlink:href="#linearGradient3700-5"
       id="linearGradient4561"
       gradientUnits="userSpaceOnUse"
       gradientTransform="translate(-140.04727,158.71714)"
       x1="48"
       y1="90"
       x2="48"
       y2="5.9877172" />
    <linearGradient
       inkscape:collect="always"
       xlink:href="#linearGradient3737-4"
       id="linearGradient4563"
       gradientUnits="userSpaceOnUse"
       gradientTransform="translate(-140.04727,158.71714)"
       x1="36.357143"
       y1="6"
       x2="36.357143"
       y2="63.893143" />
    <radialGradient
       inkscape:collect="always"
       xlink:href="#linearGradient3737-4"
       id="radialGradient4565"
       gradientUnits="userSpaceOnUse"
       gradientTransform="matrix(1.1573129,0,0,0.99590774,-147.59829,158.91427)"
       cx="48"
       cy="90.171875"
       fx="48"
       fy="90.171875"
       r="42" />
    <linearGradient
       inkscape:collect="always"
       xlink:href="#linearGradient3697-9"
       id="linearGradient4567"
       gradientUnits="userSpaceOnUse"
       gradientTransform="translate(-140.04727,158.71714)"
       x1="96"
       y1="16"
       x2="16"
       y2="64" />
    <linearGradient
       inkscape:collect="always"
       xlink:href="#linearGradient3859-6"
       id="linearGradient4569"
       gradientUnits="userSpaceOnUse"
       x1="48"
       y1="20.220806"
       x2="48"
       y2="138.66119" />
    <linearGradient
       inkscape:collect="always"
       xlink:href="#ButtonShadow-0-3"
       id="linearGradient4652"
       gradientUnits="userSpaceOnUse"
       gradientTransform="matrix(1.0238095,0,0,1.0119048,-1.1428571,-98.071429)"
       x1="32.251034"
       y1="6.1317081"
       x2="32.251034"
       y2="90.238609" />
    <linearGradient
       inkscape:collect="always"
       xlink:href="#ButtonShadow-0-3"
       id="linearGradient4654"
       gradientUnits="userSpaceOnUse"
       gradientTransform="matrix(1.0238095,0,0,1.0119048,-1.1428571,-98.071429)"
       x1="32.251034"
       y1="6.1317081"
       x2="32.251034"
       y2="90.238609" />
    <linearGradient
       inkscape:collect="always"
       xlink:href="#ButtonShadow-0-3"
       id="linearGradient4656"
       gradientUnits="userSpaceOnUse"
       gradientTransform="matrix(1.0238095,0,0,1.0119048,-1.1428571,-98.071429)"
       x1="32.251034"
       y1="6.1317081"
       x2="32.251034"
       y2="90.238609" />
    <linearGradient
       inkscape:collect="always"
       xlink:href="#ButtonShadow-0-3"
       id="linearGradient4658"
       gradientUnits="userSpaceOnUse"
       gradientTransform="matrix(1.0238095,0,0,1.0119048,-1.1428571,-98.071429)"
       x1="32.251034"
       y1="6.1317081"
       x2="32.251034"
       y2="90.238609" />
    <linearGradient
       inkscape:collect="always"
       xlink:href="#ButtonShadow-0-3"
       id="linearGradient4660"
       gradientUnits="userSpaceOnUse"
       gradientTransform="translate(0,-97)"
       x1="32.251034"
       y1="6.1317081"
       x2="32.251034"
       y2="90.238609" />
    <linearGradient
       inkscape:collect="always"
       xlink:href="#linearGradient3700-5"
       id="linearGradient4662"
       gradientUnits="userSpaceOnUse"
       gradientTransform="translate(-140.04727,158.71714)"
       x1="48"
       y1="90"
       x2="48"
       y2="5.9877172" />
    <linearGradient
       inkscape:collect="always"
       xlink:href="#linearGradient3737-4"
       id="linearGradient4664"
       gradientUnits="userSpaceOnUse"
       gradientTransform="translate(-140.04727,158.71714)"
       x1="36.357143"
       y1="6"
       x2="36.357143"
       y2="63.893143" />
    <radialGradient
       inkscape:collect="always"
       xlink:href="#linearGradient3737-4"
       id="radialGradient4666"
       gradientUnits="userSpaceOnUse"
       gradientTransform="matrix(1.1573129,0,0,0.99590774,-147.59829,158.91427)"
       cx="48"
       cy="90.171875"
       fx="48"
       fy="90.171875"
       r="42" />
    <linearGradient
       inkscape:collect="always"
       xlink:href="#linearGradient3697-9"
       id="linearGradient4668"
       gradientUnits="userSpaceOnUse"
       gradientTransform="translate(-140.04727,158.71714)"
       x1="96"
       y1="16"
       x2="16"
       y2="64" />
    <linearGradient
       inkscape:collect="always"
       xlink:href="#linearGradient3859-6"
       id="linearGradient4670"
       gradientUnits="userSpaceOnUse"
       x1="48"
       y1="20.220806"
       x2="48"
       y2="138.66119" />
    <linearGradient
       inkscape:collect="always"
       xlink:href="#linearGradient3697-9"
       id="linearGradient4680"
       gradientUnits="userSpaceOnUse"
       gradientTransform="translate(0,-1.5)"
       x1="96"
       y1="16"
       x2="16"
       y2="64" />
    <radialGradient
       inkscape:collect="always"
       xlink:href="#linearGradient3737-4"
       id="radialGradient4683"
       gradientUnits="userSpaceOnUse"
       gradientTransform="matrix(1.1573129,0,0,0.99590774,-7.5510965,0.025205)"
       cx="48"
       cy="90.171875"
       fx="48"
       fy="90.171875"
       r="42" />
    <linearGradient
       inkscape:collect="always"
       xlink:href="#linearGradient3737-4"
       id="linearGradient4686"
       gradientUnits="userSpaceOnUse"
       gradientTransform="translate(0,-1.5)"
       x1="36.357143"
       y1="6"
       x2="36.357143"
       y2="63.893143" />
    <linearGradient
       inkscape:collect="always"
       xlink:href="#linearGradient3700"
       id="linearGradient4689"
       gradientUnits="userSpaceOnUse"
       gradientTransform="translate(0,-1.5)"
       x1="48"
       y1="90"
       x2="48"
       y2="5.9877172" />
    <linearGradient
       inkscape:collect="always"
       xlink:href="#linearGradient3697-9"
       id="linearGradient3154"
       gradientUnits="userSpaceOnUse"
       gradientTransform="translate(0,-1.5)"
       x1="96"
       y1="16"
       x2="16"
       y2="64" />
    <radialGradient
       inkscape:collect="always"
       xlink:href="#linearGradient3737-4"
       id="radialGradient3157"
       gradientUnits="userSpaceOnUse"
       gradientTransform="matrix(1.1573129,0,0,0.99590774,-7.5510965,0.025205)"
       cx="48"
       cy="90.171875"
       fx="48"
       fy="90.171875"
       r="42" />
    <linearGradient
       inkscape:collect="always"
       xlink:href="#linearGradient3737-4"
       id="linearGradient3160"
       gradientUnits="userSpaceOnUse"
       gradientTransform="translate(0,-1.5)"
       x1="36.357143"
       y1="6"
       x2="36.357143"
       y2="63.893143" />
    <linearGradient
       inkscape:collect="always"
       xlink:href="#linearGradient3700"
       id="linearGradient3163"
       gradientUnits="userSpaceOnUse"
       gradientTransform="translate(0,-1.5)"
       x1="48"
       y1="90"
       x2="48"
       y2="5.9877172" />
  </defs>
  <metadata
     id="metadata2413">
    <rdf:RDF>
      <cc:Work
         rdf:about="">
        <dc:format>image/svg+xml</dc:format>
        <dc:type
           rdf:resource="http://purl.org/dc/dcmitype/StillImage" />
        <dc:title />
      </cc:Work>
    </rdf:RDF>
  </metadata>
  <g
     id="layer2"
     style="display:none">
    <rect
       width="86"
       height="85"
       rx="6"
       ry="6"
       x="5"
       y="7"
       id="rect3745"
       style="opacity:0.9;fill:url(#ButtonShadow);fill-opacity:1;fill-rule:nonzero;stroke:none;filter:url(#filter3174)" />
  </g>
  <g
     id="layer2-7"
     style="display:none"
     transform="translate(-140.04727,158.71714)">
    <rect
       width="86"
       height="85"
       rx="6"
       ry="6"
       x="5"
       y="7"
       id="rect3745-1"
       style="opacity:0.9;fill:url(#linearGradient4350);fill-opacity:1;fill-rule:nonzero;stroke:none;filter:url(#filter3174-4)" />
  </g>
  <g
     transform="translate(0,-1.5)"
     id="g4618">
    <path
       style="opacity:0.07999998;fill:url(#linearGradient4652);fill-opacity:1;fill-rule:nonzero;stroke:none;display:inline"
       id="path4620"
       transform="scale(1,-1)"
       d="m 12,-95.03125 c -5.5110903,0 -10.03125,4.52016 -10.03125,10.03125 l 0,71 c 0,5.5110902 4.5201598,10.03125 10.03125,10.03125 l 72,0 c 5.51109,0 10.03125,-4.5201597 10.03125,-10.03125 l 0,-71 c 0,-5.51109 -4.52016,-10.03125 -10.03125,-10.03125 l -72,0 z"
       inkscape:connector-curvature="0" />
    <path
       style="opacity:0.1;fill:url(#linearGradient4654);fill-opacity:1;fill-rule:nonzero;stroke:none;display:inline"
       id="path4622"
       transform="scale(1,-1)"
       d="m 12,-94.03125 c -4.971633,0 -9.03125,4.059617 -9.03125,9.03125 l 0,71 c 0,4.9716329 4.0596171,9.03125 9.03125,9.03125 l 72,0 c 4.971633,0 9.03125,-4.059617 9.03125,-9.03125 l 0,-71 c 0,-4.971633 -4.059617,-9.03125 -9.03125,-9.03125 l -72,0 z"
       inkscape:connector-curvature="0" />
    <path
       style="opacity:0.2;fill:url(#linearGradient4656);fill-opacity:1;fill-rule:nonzero;stroke:none;display:inline"
       id="path4624"
       transform="scale(1,-1)"
       d="m 12,-93 c -4.4091333,0 -8,3.590867 -8,8 l 0,71 c 0,4.4091333 3.5908667,8 8,8 l 72,0 c 4.409133,0 8,-3.5908667 8,-8 l 0,-71 c 0,-4.409133 -3.590867,-8 -8,-8 l -72,0 z"
       inkscape:connector-curvature="0" />
    <rect
       style="opacity:0.3;fill:url(#linearGradient4658);fill-opacity:1;fill-rule:nonzero;stroke:none;display:inline"
       id="rect4626"
       transform="scale(1,-1)"
       y="-92"
       x="5"
       ry="7"
       rx="7"
       height="85"
       width="86" />
    <rect
       style="opacity:0.45;fill:url(#linearGradient4660);fill-opacity:1;fill-rule:nonzero;stroke:none;display:inline"
       id="rect4628"
       transform="scale(1,-1)"
       y="-91"
       x="6"
       ry="6"
       rx="6"
       height="84"
       width="84" />
  </g>
  <rect
     width="84"
     height="84"
     rx="6"
     ry="6"
     x="5.9999981"
     y="4.4999924"
     id="rect4630"
     style="fill:url(#linearGradient3163);fill-opacity:1;fill-rule:nonzero;stroke:none" />
  <path
     d="m 12,4.5 c -3.324,0 -6,2.676 -6,6 l 0,2 0,68 0,2 c 0,0.33472 0.0413,0.6507 0.0937,0.96875 0.0487,0.2956 0.097,0.59691 0.1875,0.875 0.01,0.0304 0.0209,0.0636 0.0312,0.0937 0.0989,0.28777 0.23488,0.54745 0.375,0.8125 0.14459,0.27351 0.31562,0.53561 0.5,0.78125 0.18438,0.24563 0.37378,0.47347 0.59375,0.6875 0.43995,0.42806 0.94291,0.81453 1.5,1.09375 0.27855,0.13961 0.57347,0.24695 0.875,0.34375 -0.2562,-0.10022 -0.48671,-0.23627 -0.71875,-0.375 -0.007,-0.004 -0.0239,0.005 -0.0312,0 C 9.3743,87.7619 9.3439,87.7387 9.3125,87.7187 9.19211,87.642 9.08148,87.55519 8.96875,87.4687 8.86258,87.3879 8.75547,87.30759 8.65625,87.2187 8.47832,87.05727 8.30879,86.87331 8.15625,86.68745 8.04867,86.55719 7.93786,86.42216 7.84375,86.2812 7.81865,86.2428 7.80525,86.1953 7.78125,86.1562 7.71645,86.05317 7.65102,85.95168 7.59375,85.8437 7.49274,85.64899 7.38808,85.428 7.3125,85.2187 7.3045,85.1969 7.2889,85.1782 7.2813,85.1562 7.2495,85.0643 7.2455,84.96937 7.2188,84.87495 7.1885,84.76833 7.1484,84.67192 7.1251,84.56245 7.0522,84.22094 7.0001,83.86424 7.0001,83.49995 l 0,-2 0,-68 0,-2 c 0,-2.78185 2.21815,-5 5,-5 l 2,0 68,0 2,0 c 2.781848,0 5,2.21815 5,5 l 0,2 0,68 0,2 c 0,0.36429 -0.05212,0.72099 -0.125,1.0625 -0.04415,0.20689 -0.08838,0.39766 -0.15625,0.59375 -0.0077,0.022 -0.0233,0.0407 -0.03125,0.0625 -0.06274,0.17374 -0.138383,0.36745 -0.21875,0.53125 -0.04158,0.0828 -0.07904,0.16995 -0.125,0.25 -0.0546,0.0972 -0.126774,0.18835 -0.1875,0.28125 -0.09411,0.14096 -0.204921,0.27599 -0.3125,0.40625 -0.143174,0.17445 -0.303141,0.347 -0.46875,0.5 -0.01117,0.0102 -0.01998,0.0212 -0.03125,0.0312 -0.138386,0.12556 -0.285091,0.23444 -0.4375,0.34375 -0.102571,0.0731 -0.204318,0.15336 -0.3125,0.21875 -0.0074,0.005 -0.02384,-0.004 -0.03125,0 -0.232039,0.13873 -0.462548,0.27478 -0.71875,0.375 0.301527,-0.0968 0.596455,-0.20414 0.875,-0.34375 0.55709,-0.27922 1.060053,-0.66569 1.5,-1.09375 0.219973,-0.21403 0.409366,-0.44187 0.59375,-0.6875 0.184384,-0.24564 0.355408,-0.50774 0.5,-0.78125 0.14012,-0.26505 0.276135,-0.52473 0.375,-0.8125 0.01041,-0.0308 0.02133,-0.0627 0.03125,-0.0937 0.09046,-0.27809 0.1388,-0.5794 0.1875,-0.875 0.0524,-0.31805 0.09375,-0.63403 0.09375,-0.96875 l 0,-2 0,-68 0,-2 c 0,-3.324 -2.676,-6 -6,-6 l -72,0 z"
     inkscape:connector-curvature="0"
     id="path4632"
     style="opacity:0.35;fill:url(#linearGradient3160);fill-opacity:1;fill-rule:nonzero;stroke:none" />
  <path
     d="m 11.999923,89.828075 c -3.3239995,0 -5.9999995,-2.676 -5.9999995,-6 l 0,-2 0,-68 0,-2 c 0,-0.33472 0.0413,-0.6507 0.0937,-0.96875 0.0487,-0.2956 0.097,-0.59692 0.1875,-0.875 0.01,-0.0304 0.0209,-0.0636 0.0312,-0.0937 0.0989,-0.28777 0.23488,-0.54745 0.375,-0.8125 0.14459,-0.27351 0.31562,-0.53562 0.5,-0.78125 0.18438,-0.24564 0.37378,-0.47347 0.59375,-0.6875 0.43995,-0.42806 0.94291,-0.81453 1.5,-1.09375 0.27855,-0.13961 0.57347,-0.24695 0.8749995,-0.34375 -0.2561995,0.10022 -0.4867095,0.23627 -0.7187495,0.375 -0.007,0.004 -0.0239,-0.005 -0.0312,0 -0.0319,0.0193 -0.0623,0.0425 -0.0937,0.0625 -0.12039,0.0767 -0.23102,0.16351 -0.34375,0.25 -0.10617,0.0808 -0.21328,0.16111 -0.3125,0.25 -0.17793,0.16143 -0.34746,0.34539 -0.5,0.53125 -0.10758,0.13025 -0.21839,0.26528 -0.3125,0.40625 -0.0251,0.0384 -0.0385,0.0859 -0.0625,0.125 -0.0648,0.10303 -0.13023,0.20452 -0.1875,0.3125 -0.10101,0.19471 -0.20567,0.4157 -0.28125,0.625 -0.008,0.0218 -0.0236,0.0405 -0.0312,0.0625 -0.0318,0.0919 -0.0358,0.18683 -0.0625,0.28125 -0.0303,0.10662 -0.0704,0.20303 -0.0937,0.3125 -0.0729,0.34151 -0.125,0.6982 -0.125,1.0625 l 0,2 0,68 0,2 c 0,2.78185 2.21815,5 4.9999995,5 l 2,0 68.000004,0 2,0 c 2.78185,0 5,-2.21815 5,-5 l 0,-2 0,-68 0,-2 c 0,-0.3643 -0.0521,-0.72099 -0.125,-1.0625 -0.0442,-0.20689 -0.0884,-0.39766 -0.15625,-0.59375 -0.008,-0.022 -0.0233,-0.0407 -0.0312,-0.0625 -0.0627,-0.17374 -0.13839,-0.36745 -0.21875,-0.53125 -0.0416,-0.0828 -0.079,-0.16995 -0.125,-0.25 -0.0546,-0.0972 -0.12678,-0.18835 -0.1875,-0.28125 -0.0941,-0.14097 -0.20492,-0.276 -0.3125,-0.40625 -0.14318,-0.17445 -0.30314,-0.347 -0.46875,-0.5 -0.0112,-0.0102 -0.02,-0.0212 -0.0312,-0.0312 -0.13839,-0.12556 -0.28509,-0.23444 -0.4375,-0.34375 -0.10257,-0.0731 -0.20432,-0.15336 -0.3125,-0.21875 -0.007,-0.005 -0.0238,0.004 -0.0312,0 -0.23204,-0.13873 -0.46255,-0.27478 -0.71875,-0.375 0.30152,0.0968 0.59645,0.20414 0.875,0.34375 0.55709,0.27922 1.06005,0.66569 1.5,1.09375 0.21997,0.21403 0.40936,0.44186 0.59375,0.6875 0.18438,0.24563 0.35541,0.50774 0.5,0.78125 0.14012,0.26505 0.27613,0.52473 0.375,0.8125 0.0104,0.0308 0.0213,0.0627 0.0312,0.0937 0.0905,0.27808 0.1388,0.5794 0.1875,0.875 0.0524,0.31805 0.0937,0.63403 0.0937,0.96875 l 0,2 0,68 0,2 c 0,3.324 -2.676,6 -6,6 l -72.000004,0 z"
     inkscape:connector-curvature="0"
     id="path4634"
     style="opacity:0.23999999;fill:url(#radialGradient3157);fill-opacity:1;fill-rule:nonzero;stroke:none" />
  <path
     d="m 12,4.5 c -3.324,0 -6,2.676 -6,6 L 6,57.375 C 23.60856,45.85297 50.22874,38.5 80,38.5 c 3.37799,0 6.71203,0.0968 10,0.28125 L 90,10.5 c 0,-3.324 -2.676,-6 -6,-6 l -72,0 z"
     inkscape:connector-curvature="0"
     id="path4636"
     style="opacity:0.4;fill:url(#linearGradient3154);fill-opacity:1;fill-rule:nonzero;stroke:none" />
  <g
     transform="translate(0,-1.5)"
     id="g4638">
    <rect
       style="opacity:0.1;fill:url(#linearGradient4670);fill-opacity:1;fill-rule:nonzero;stroke:#ffffff;stroke-width:0.5;stroke-linecap:round;stroke-linejoin:miter;stroke-miterlimit:4;stroke-opacity:1;stroke-dasharray:none;stroke-dashoffset:0;filter:url(#filter3794-0)"
       id="rect4640"
       clip-path="url(#clipPath3613-8)"
       y="15"
       x="15"
       ry="12"
       rx="12"
       height="66"
       width="66" />
  </g>
  <path
     style="opacity:0.51440329;fill:#2c3381;fill-opacity:1;fill-rule:evenodd"
     id="path3874"
     inkscape:connector-curvature="0"
     d="m 41.632291,12.949788 c -2.675295,0.210227 -4.435538,2.184216 -6.90625,3.15625 -3.145496,2.431701 -6.846195,3.822596 -10.25,5.8125 -2.857118,1.08641 -4.911799,3.538619 -7.634925,4.281771 -2.816264,1.130675 -1.886225,4.758553 -0.69226,6.156 -0.853638,3.351417 0.3271,7.00133 0.514685,10.437229 0.787767,3.408038 0.541928,7.190038 1.9375,10.5 0.02154,2.937169 0.396945,6.240329 1,8.78125 -1.135056,3.33868 2.379356,4.536148 4.409344,5.029075 3.86438,2.321887 7.842072,4.533741 12.059406,6.064675 4.325403,2.526026 8.733264,4.976121 13.264605,7.086997 2.324635,2.68e-4 4.435003,5.110764 7.216305,1.509489 0.456693,-2.33975 3.500013,-1.811672 5.08159,-3.627736 2.286981,-2.195445 4.825375,-4.020022 7.371073,-5.880439 2.020413,-2.645961 4.617641,-4.892953 7.179328,-7.021088 0.159769,-1.659949 2.50795,-0.770187 3.324828,-2.099251 1.536159,-2.713354 -0.722624,-4.862873 0.672158,-7.636143 0.549972,-3.62991 0.562258,-7.305403 0.390113,-10.956829 1.029134,-3.725605 -0.07677,-7.632394 -0.01317,-11.438419 -0.260597,-2.631588 0.150788,-5.285587 -0.299335,-7.842831 1.515129,-2.142109 0.767016,-7.031763 -3.1875,-6.40625 -2.16921,-0.150421 -4.606389,-1.571666 -7.12353,-1.497399 -3.346403,-0.147981 -6.30953,-1.68794 -9.657715,-1.627601 -5.439452,-0.777093 -10.936119,-2.901143 -16.556852,-2.517536 -0.858832,0.585699 -1.249251,-0.08463 -2.099398,-0.263714 z m -0.4375,4.5625 c 0.14226,0.346009 -0.349969,1.06859 0,0 z m 3.1875,1.8125 c 6.339661,1.583231 12.982058,1.651583 19.241484,3.609575 1.783412,0.606469 6.432877,0.323152 6.405924,1.348632 -5.507143,3.663602 -10.979011,7.378667 -16.595166,10.835155 -1.445566,1.29863 -3.557374,1.435502 -4.936474,0.02542 -4.582036,-0.30624 -2.414416,-6.490076 -3.428268,-9.693782 -0.01091,-2.060138 -0.357575,-4.097535 -0.6875,-6.125 z m -5.96875,1.21875 c 0.794594,3.924414 0.530801,7.961765 0.875,11.9375 -4.833799,-1.40008 -9.628026,-2.935039 -14.46875,-4.3125 4.676151,-2.294402 9.219433,-4.799149 13.59375,-7.625 z m 36.09375,7.59375 c -0.01335,6.284539 0.113522,12.572994 -0.319806,18.844452 -0.0069,2.863801 -0.09367,5.731441 -0.02394,8.593048 -5.164703,-2.077473 -10.057614,-4.740721 -15.217062,-6.840108 -2.781554,-0.706055 -4.013927,-2.013857 -3.794727,-4.880305 -1.012252,-1.648828 -1.221368,-2.793538 1.182154,-2.883138 3.464348,-1.072364 5.540424,-4.191729 8.623726,-5.90269 3.188294,-2.303444 6.339913,-4.657435 9.549659,-6.931259 z m -52.5625,5.25 c 5.958501,1.943135 11.968689,3.738016 17.90625,5.75 -0.926137,2.734712 3.16835,6.21578 -0.3125,7.375 -3.958055,2.936931 -7.773382,6.073187 -11.824066,8.87909 -1.756587,1.084905 -3.726805,3.455709 -3.255437,-0.06687 0.223747,-4.928663 -1.844762,-9.543064 -1.917569,-14.443153 -0.225723,-2.495772 -0.356739,-4.99935 -0.596678,-7.494066 z m 23.96875,7.78125 c 1.223586,0.526598 3.160878,-0.05362 2.46875,1.9375 0.71224,2.560603 -4.211402,0.725978 -2.422034,-1.384451 l -0.04672,-0.553049 z m -0.75,7.59375 c 2.451274,1.453378 4.939771,2.624982 4.250485,6.063174 -0.258385,3.954051 0.09654,7.891377 0.63341,11.804683 3.84e-4,2.182713 0.603389,5.957771 0.253789,7.133587 -5.070717,-2.275805 -9.887964,-5.098328 -14.94692,-7.403365 -1.936514,-1.535503 -6.771151,-2.805954 -6.847014,-4.191829 5.281426,-3.880537 10.596111,-7.749657 15.634779,-11.935591 0.70259,-0.236166 0.255696,-1.663465 1.021471,-1.470659 z m 10.53125,5.59375 c 5.496469,1.997691 10.785473,4.546443 15.96875,7.25 -4.301404,3.131128 -8.128786,6.917498 -12.492711,9.942361 -1.754572,0.651758 -3.542766,3.795843 -2.877719,0.236672 0.01746,-4.974448 0.273845,-9.947174 -0.41082,-14.897783 -0.07035,-0.843152 -0.129747,-1.687159 -0.1875,-2.53125 z" />
  <path
     inkscape:connector-curvature="0"
     style="opacity:0.64197530999999997;fill:#56588b;fill-opacity:0.81453711;fill-rule:evenodd"
     id="path3870"
     d="m 41.444791,14.074788 c -0.346345,-0.05608 -0.602119,0.05382 -0.6875,0.09375 a 0.89646494,0.89646494 0 0 0 -0.03125,0.03125 c 0.138127,-0.07353 -0.03422,-0.01729 -0.21875,0.03125 -0.184531,0.04854 -0.438072,0.121314 -0.71875,0.28125 -0.280678,0.159936 -0.64469,0.46798 -0.75,0.9375 -0.02679,0.119448 0.06011,0.227009 0.0625,0.34375 -0.246574,-0.06919 -0.481414,-0.119926 -0.71875,-0.125 -0.381476,-0.0082 -0.722449,-0.02225 -1.1875,0.28125 -0.185568,0.120803 -1.016754,0.607231 -1.875,1.125 -0.858246,0.517769 -1.750503,1.049404 -2.28125,1.46875 -0.736482,0.581899 -3.104188,2.004576 -3.96875,2.25 -0.488036,0.138539 -0.996513,0.413794 -1.6875,0.78125 -0.690987,0.367456 -1.491944,0.825371 -2.34375,1.3125 -1.703612,0.974257 -3.573917,2.051968 -4.71875,2.625 -0.33879,0.167771 -0.586337,0.320491 -0.8125,0.5 -0.226163,0.179509 -0.455412,0.372597 -0.5625,0.78125 -0.04615,0.176101 0.09827,0.312435 0.15625,0.5 -0.295341,-0.147833 -0.564564,-0.364579 -0.90625,-0.3125 a 0.89646494,0.89646494 0 0 0 -0.03125,0 c -0.592132,0.105684 -1.145576,0.292995 -1.53125,0.75 -0.378739,0.448787 -0.477329,0.961007 -0.5625,1.5 -0.0019,0.01069 0.0017,0.02057 0,0.03125 -0.133978,0.863176 0.362786,1.710027 1.0625,2.03125 0.700158,0.321426 1.547657,0.189631 2.21875,-0.34375 l 0.03125,0 c 0.166768,-0.135202 0.232054,-0.307946 0.34375,-0.46875 0.07734,0.191604 0.09811,0.404029 0.21875,0.5625 0.428963,0.58335 1.074558,0.873991 1.9375,1.15625 0.862942,0.282259 2.079859,0.619731 4.0625,1.28125 4.072855,1.373268 11.959036,3.695509 14.3125,4.59375 0.216033,0.08451 0.432747,0.187947 0.65625,0.28125 0.08257,0.778703 0.1875,1.571859 0.1875,2.03125 0,0.96297 0.0274,1.686058 0.28125,2.375 0.126925,0.344471 0.346677,0.701255 0.6875,0.9375 0.340823,0.236245 0.739809,0.34375 1.125,0.34375 0.458136,0 0.975173,-0.236247 1.25,-0.59375 0.274827,-0.357503 0.344618,-0.738761 0.375,-1.0625 0.06076,-0.647478 -0.03125,-1.243955 -0.03125,-1.65625 0,-0.183232 0.0046,-0.675192 0,-1.03125 0.92324,0.305884 1.844214,0.662308 2.75,0.75 a 0.89646494,0.89646494 0 0 0 0.03125,0 c 0.450784,0.03895 0.808389,-0.154244 1.1875,-0.28125 0.07571,0.358764 0.227206,0.724484 0.375,1.0625 0.003,0.007 -0.0031,0.02432 0,0.03125 0.170317,0.385638 0.540038,0.58087 0.875,0.75 -0.271174,0.337384 -0.451674,0.761532 -0.5,1.21875 -0.0752,0.805123 0.03061,1.835835 0.09375,2.8125 -0.69892,-0.248171 -1.576457,-0.563293 -1.84375,-0.65625 -0.679743,-0.227152 -1.436876,-0.297572 -2,0.28125 -0.02495,-0.246931 -0.02809,-0.507355 -0.15625,-0.75 -0.171248,-0.324231 -0.52389,-0.662846 -0.96875,-0.78125 -0.307175,-0.07182 -0.570807,-0.07291 -0.78125,-0.0625 -0.412595,0.0204 -0.890534,0.152281 -1.28125,0.46875 -0.390716,0.316469 -0.652762,0.8138 -0.75,1.375 a 0.89646494,0.89646494 0 0 0 0,0.03125 c -0.04125,0.262825 0.05497,0.495423 0.125,0.75 -0.08298,0.002 -0.16917,-0.03961 -0.25,-0.03125 -0.492874,0.05096 -0.964293,0.276793 -1.34375,0.65625 -0.244131,0.244131 -1.693169,1.336344 -3.28125,2.5 -1.588081,1.163656 -3.416237,2.477296 -4.75,3.625 -1.214486,1.055388 -2.960758,2.215172 -4.59375,3.28125 -1.632992,1.066078 -3.117712,2.023962 -4.03125,2.9375 -0.374104,0.374731 -0.514593,0.808067 -0.625,1.25 -0.08151,-0.01172 -0.173842,-0.06223 -0.25,-0.0625 -0.09124,-3.2e-4 -0.162004,0.05274 -0.25,0.0625 0.01241,-0.01387 0.05079,-0.01768 0.0625,-0.03125 0.562763,-0.65216 0.726706,-1.382996 0.84375,-1.9375 0.139935,-0.667688 0.07103,-1.32792 0,-2.03125 -0.07103,-0.70333 -0.15625,-1.429396 -0.15625,-1.9375 0,-1.257008 -0.140679,-3.251269 -0.34375,-4.40625 -9.83e-4,-0.0065 0.001,-0.02469 0,-0.03125 -0.09661,-0.622371 -0.335003,-1.697814 -0.59375,-2.84375 -0.258837,-1.146336 -0.543161,-2.341295 -0.625,-2.9375 -9.04e-4,-0.0079 9.05e-4,-0.02328 0,-0.03125 -0.153176,-1.349804 -0.290446,-3.21461 -0.46875,-5.25 -7.9e-4,-0.01026 7.91e-4,-0.02096 0,-0.03125 -0.157728,-2.050089 -0.338855,-4.623225 -0.5,-6.1875 a 0.89646494,0.89646494 0 0 0 -0.03125,0 c -0.06593,-0.570342 -0.301264,-1.114538 -0.71875,-1.4375 -0.417486,-0.322962 -0.950486,-0.391147 -1.40625,-0.3125 -0.908218,0.156723 -1.71875,0.925618 -1.71875,2 0,0.76497 0.185909,2.726123 0.375,4.75 0.09455,1.011939 0.192921,2.006451 0.28125,2.8125 0.08675,0.791627 0.147399,1.33897 0.21875,1.6875 9e-4,0.0049 -9.31e-4,0.02621 0,0.03125 0.08251,0.446833 0.282144,1.534588 0.46875,2.6875 0.188712,1.165926 0.34375,2.426207 0.34375,2.96875 0,1.680796 0.743754,3.579787 1.09375,4.46875 -0.0049,-0.01239 0.07035,0.311461 0.09375,0.75 0.0234,0.438539 0.04978,0.995849 0.0625,1.625 0.02526,1.248974 0.06701,2.765951 0.34375,4.15625 0.0023,0.0116 -0.0022,0.01978 0,0.03125 0.13419,0.69152 0.207744,1.161618 0.6875,1.59375 0.151399,0.13637 0.413173,0.149515 0.65625,0.1875 -0.359082,0.226754 -0.71077,0.546729 -0.84375,1.0625 -0.127829,0.548732 -0.134425,1.194252 0.125,1.875 0.129713,0.340374 0.351141,0.703677 0.71875,0.96875 0.367609,0.265073 0.883307,0.376816 1.375,0.3125 0.378126,-0.05611 0.688762,-0.255192 0.96875,-0.46875 0.170559,0.724524 0.676197,1.203379 1.375,1.59375 1.584973,0.871669 6.342648,3.416454 7.78125,4.125 1.509719,0.755576 2.876697,0.981942 3.65625,1.5 0.592039,0.387357 1.664424,0.984606 2.71875,1.5625 1.054326,0.577894 2.096702,1.149652 2.46875,1.375 0.537781,0.326538 2.042054,1.101513 3.65625,1.9375 1.614196,0.835987 3.260835,1.682585 3.96875,2.03125 l 0,-0.03125 c 0.512953,0.265489 1.107639,0.325362 1.59375,0.15625 0.291988,-0.101579 0.431413,-0.307611 0.625,-0.5 -0.02901,0.461296 0.03871,0.937184 0.3125,1.40625 0.400182,0.707545 0.863121,1.383989 1.71875,1.625 0.427815,0.120506 0.971522,0.04963 1.375,-0.21875 0.403478,-0.268379 0.686789,-0.674162 0.90625,-1.15625 0.257514,-0.584057 0.279695,-1.162079 0.15625,-1.6875 0.390782,0.268481 0.796083,0.375713 1.1875,0.375 0.444199,-8.09e-4 0.872788,-0.07241 1.28125,-0.375 0.675611,-0.519207 1.306856,-0.963284 2.03125,-1.25 a 0.89646494,0.89646494 0 0 0 0,-0.03125 c 1.303654,-0.550041 2.065468,-1.781709 3.5625,-3.28125 0.654443,-0.654444 1.172649,-0.830935 1.875,-1.15625 0.702351,-0.325315 1.56791,-0.814759 2.34375,-1.875 1.267057,-1.706382 4.858158,-5.206473 6.09375,-5.96875 0.385838,-0.239206 0.681954,-0.507443 0.875,-0.875 0.193046,-0.367557 0.24557,-0.837956 0.125,-1.21875 -0.24114,-0.761588 -0.941843,-1.153432 -1.65625,-1.1875 -0.472507,-0.02254 -0.980552,0.148056 -1.40625,0.5 -0.937679,0.772486 -2.378367,1.663416 -4.15625,3.28125 -1.647803,1.473635 -6.45386,5.236665 -7.71875,6.3125 -0.477326,0.414642 -0.75154,0.450183 -1.40625,0.78125 -0.65471,0.331067 -1.46761,0.904196 -2.625,2.25 -0.618456,0.712399 -0.962858,1.310196 -1.09375,1.9375 -0.03164,0.151609 -0.008,0.314464 0,0.46875 -0.258291,-0.300742 -0.536288,-0.576798 -0.84375,-0.75 -0.337908,-0.190353 -0.677552,-0.398196 -1.28125,-0.1875 -0.398481,0.124913 -0.609307,0.480436 -0.875,0.78125 0.02166,-0.393678 -0.05469,-0.865622 -0.4375,-1.25 -0.007,-0.007 -0.02427,0.0069 -0.03125,0 -0.795614,-0.78372 -1.693195,-0.945713 -2.59375,-1.40625 a 0.89646494,0.89646494 0 0 0 -0.03125,0 c -1.066332,-0.508722 -4.838424,-2.254614 -6.28125,-3.0625 -1.571515,-0.879206 -4.789575,-2.586867 -6.625,-3.3125 -0.669752,-0.264283 -2.520166,-1.304322 -4.375,-2.34375 -1.854834,-1.039428 -3.739587,-2.100135 -5.15625,-2.5 -0.692896,-0.203026 -1.271696,-0.220094 -1.75,-0.15625 -0.171562,0.0229 -0.30448,0.152158 -0.46875,0.21875 0.01526,-0.155568 0.04276,-0.314965 0.03125,-0.46875 0.609313,0.01444 1.221659,-0.159789 1.71875,-0.65625 0.34983,-0.350264 1.953104,-1.538371 3.59375,-2.71875 1.640646,-1.180379 3.375374,-2.417779 4.375,-3.25 1.84903,-1.496536 6.311558,-4.753881 8.25,-6.34375 0.426129,-0.344892 0.75022,-0.681026 0.9375,-1.09375 0.152456,-0.33598 0.07313,-0.730861 -0.03125,-1.09375 0.402285,0.01267 0.819856,0.09007 1.1875,-0.09375 0.326622,-0.163932 0.500013,-0.42553 0.65625,-0.6875 0.05674,0.239154 0.08842,0.472642 0.21875,0.6875 0.416407,0.687484 1.091349,0.979045 1.625,1.1875 0.533651,0.208455 0.999725,0.374659 1.375,0.625 0.285093,0.192182 0.822153,0.542137 1.375,0.875 0.240874,1.434195 0.583126,3.857106 0.46875,5.71875 -0.187195,2.67689 0.0045,5.940578 0.375,7.8125 0.294859,1.495599 0.5,6.083583 0.5,7.1875 0,0.680467 0.108878,1.385579 0.21875,2 0.1077,0.602277 0.172158,0.984771 0.40625,1.4375 l -0.03125,0 c 0.0057,0.01296 0.02543,0.01852 0.03125,0.03125 0.08775,0.191744 0.156163,0.356992 0.3125,0.5625 0.166713,0.219148 0.373404,0.461872 0.75,0.65625 0.188298,0.09719 0.464629,0.174219 0.78125,0.125 0.316621,-0.04922 0.613821,-0.248897 0.78125,-0.46875 0.334859,-0.439706 0.392373,-0.893229 0.4375,-1.53125 0.09645,-1.185618 0.06858,-2.840471 0.0625,-4.40625 -0.0061,-1.565779 -0.006,-3.070145 0.0625,-3.59375 a 0.89646494,0.89646494 0 0 0 0,-0.03125 c 0.192643,-1.675832 -0.1301,-4.82348 -0.46875,-8.9375 -0.141864,-1.716884 -0.231163,-3.037287 -0.3125,-4.34375 0.537523,0.238916 1.101383,0.536935 1.59375,0.65625 1.802487,0.457398 6.169426,2.50617 8.9375,3.71875 2.655044,1.165568 6.898311,3.523787 8.5625,4.28125 0.361671,0.160069 0.771496,0.171752 1.15625,0.09375 0.02749,0.11493 0.01781,0.233303 0.0625,0.34375 0.319136,0.7882 1.023199,1.259456 1.71875,1.40625 0.682196,0.143976 1.472009,0.02357 2.03125,-0.53125 l 0,-0.03125 0.03125,0 c 0.353086,-0.360017 0.457322,-0.794312 0.5,-1.1875 0.04404,-0.405742 0.02002,-0.817625 -0.09375,-1.21875 -0.11377,-0.401125 -0.310434,-0.791042 -0.65625,-1.125 -0.243805,-0.235445 -0.645914,-0.287017 -1.03125,-0.34375 0.225505,-0.02366 0.469966,0.02703 0.65625,-0.09375 0.337867,-0.219068 0.531275,-0.529849 0.65625,-0.8125 0.249951,-0.565303 0.303004,-1.166114 0.40625,-1.84375 0.183411,-1.379509 0.59375,-4.637634 0.59375,-7.21875 0,-1.292095 -0.109791,-2.339975 -0.15625,-3.125 -0.04646,-0.785025 0.003,-1.275492 0.09375,-1.5 0.484632,-1.196179 0.432799,-2.510479 0.25,-5.21875 -0.09966,-1.315217 -0.250278,-3.853778 -0.34375,-6.1875 -0.04674,-1.166861 -0.08413,-2.300211 -0.09375,-3.1875 -0.0096,-0.887289 0.01926,-1.620888 0.03125,-1.6875 a 0.89646494,0.89646494 0 0 0 0,-0.03125 c 0.115369,-0.737538 0.0667,-1.501283 -0.15625,-2.1875 -0.111475,-0.343108 -0.277545,-0.675471 -0.53125,-0.96875 -0.02757,-0.03187 -0.09356,-0.0314 -0.125,-0.0625 0.133326,-0.06026 0.284109,-0.08366 0.40625,-0.15625 0.936404,-0.557777 1.069419,-1.633925 0.9375,-2.46875 -0.06596,-0.417412 -0.198858,-0.82857 -0.46875,-1.1875 -0.269892,-0.35893 -0.74639,-0.6875 -1.3125,-0.6875 -0.202533,0 -0.548348,-0.09078 -1.03125,-0.09375 -0.372037,-0.0023 -0.939705,0.152942 -1.3125,0.59375 -0.111578,-0.464475 -0.420502,-0.86278 -0.96875,-1.09375 a 0.89646494,0.89646494 0 0 0 0,-0.03125 c -1.078171,-0.425126 -2.965122,-0.751475 -6.09375,-1.09375 -1.489533,-0.16481 -2.584076,-0.402716 -3.375,-0.625 -0.790924,-0.222284 -1.212559,-0.38849 -1.5625,-0.5 -0.330507,-0.114532 -0.543658,-0.125952 -0.875,-0.15625 -0.331342,-0.0303 -0.715453,-0.04064 -1.09375,-0.0625 -0.74319,-0.04294 -1.559007,-0.124331 -1.71875,-0.15625 -0.0059,-0.0016 -0.02526,0.0016 -0.03125,0 -0.507157,-0.133251 -1.427882,-0.260759 -2.5625,-0.46875 -1.148012,-0.210446 -2.416513,-0.49261 -3.1875,-0.71875 l 0,0.03125 c -1.958276,-0.593061 -7.231667,-1.46875 -9.6875,-1.46875 -0.685609,0 -1.272874,0.145502 -1.71875,0.53125 -0.09603,0.08308 -0.05549,0.210764 -0.125,0.3125 -0.02073,-0.03399 -0.0094,-0.09315 -0.03125,-0.125 -0.316187,-0.461532 -0.645135,-0.772343 -1.28125,-0.875 z m 1.25,2.84375 c 0.08812,0.150425 0.136643,0.341713 0.25,0.46875 0.27738,0.310855 0.606804,0.584985 1.09375,0.6875 0.713174,0.15076 3.094317,0.900732 6.4375,1.25 3.179814,0.330942 7.073308,1.144726 8.78125,1.34375 a 0.89646494,0.89646494 0 0 0 0,0.03125 c 0.627861,0.06468 1.703836,0.329536 2.75,0.625 1.035511,0.292456 2.038737,0.587558 2.875,0.6875 0.0086,10e-4 0.02268,-9.85e-4 0.03125,0 0.71125,0.09346 2.447835,0.325757 4.1875,0.5625 1.752419,0.238479 3.560053,0.522446 4.09375,0.65625 0.405221,0.106318 0.724561,-0.03709 1.0625,-0.15625 -0.395903,0.11273 -0.80148,0.14536 -1.15625,0.4375 a 0.89646494,0.89646494 0 0 0 -0.03125,0 c -0.466278,0.401413 -1.626114,1.199087 -2.9375,2.0625 -1.311386,0.863413 -2.777618,1.813301 -4.03125,2.6875 -2.471807,1.708492 -7.143723,4.801924 -8.375,5.5 -1.325713,0.764686 -3.079862,1.739072 -4.34375,2.78125 a 0.89646494,0.89646494 0 0 0 -0.03125,0 c -0.329912,0.284018 -0.524487,0.667249 -0.6875,1.03125 -0.457545,-0.317206 -1.006274,-0.537502 -1.65625,-0.46875 a 0.89646494,0.89646494 0 0 0 0,0.03125 c -0.501976,0.05871 -0.942167,0.246344 -1.3125,0.5 -0.408534,-0.719447 -1.075272,-1.338242 -2.1875,-1.65625 -0.810428,-0.226575 -1.80318,-0.483404 -2.78125,-0.75 0.100056,-0.363988 0.102954,-0.589199 0.09375,-0.9375 -0.01042,-0.394334 -0.04959,-0.877584 -0.09375,-1.34375 -0.08832,-0.932333 -0.20251,-1.854689 -0.3125,-2.375 -0.145882,-0.695022 -0.46875,-3.515254 -0.46875,-5.125 0,-1.841629 -0.378746,-4.090371 -0.71875,-6.15625 -0.108916,-0.65886 -0.352111,-1.212451 -0.8125,-1.5625 -0.153463,-0.116683 -0.32796,-0.03903 -0.5,-0.09375 0.317906,-0.207313 0.58896,-0.468632 0.78125,-0.71875 z m -2.625,0.71875 c 0.02374,0.01671 0.03783,0.04673 0.0625,0.0625 0.08286,0.05296 0.188141,0.0258 0.28125,0.0625 -0.196465,0.114885 -0.442136,0.177232 -0.59375,0.34375 -0.281907,0.309619 -0.570736,0.757005 -0.40625,1.375 0.142941,0.534258 0.65625,3.16294 0.65625,5.4375 0,2.486013 0.34375,6.172173 0.34375,7.75 0,0.344055 0.0603,0.886993 0.09375,1.34375 -1.16344,-0.33714 -2.32025,-0.635333 -3.71875,-1.0625 -4.596379,-1.403947 -12.168619,-3.726335 -14.1875,-4.25 -1.015897,-0.262826 -1.758039,-0.334246 -2.4375,0.125 -0.0089,-0.08121 0.01505,-0.171173 0,-0.25 -0.02316,-0.121269 -0.115642,-0.224936 -0.15625,-0.34375 0.0116,0.0026 0.01968,0.02874 0.03125,0.03125 0.882403,0.191055 1.872864,0.09979 2.75,-0.28125 1.401155,-0.608674 7.041831,-3.572011 9.1875,-4.84375 0.0066,-0.0039 0.02461,0.0039 0.03125,0 2.058945,-1.200295 4.968148,-2.907081 7.0625,-4.3125 0.333228,-0.223614 0.543055,-0.471419 0.75,-0.71875 0.07043,-0.08417 0.192176,-0.154859 0.25,-0.25 0.03621,-0.05958 -0.02708,-0.148848 0,-0.21875 z m 35.1875,4.6875 c 0.0023,0.248346 0.106521,0.431047 0.15625,0.65625 -0.1413,-0.05171 -0.272873,-0.17649 -0.40625,-0.1875 -0.08297,-0.0068 -0.137947,0.09162 -0.21875,0.09375 0.195844,-0.142762 0.325431,-0.365419 0.46875,-0.5625 z m 1,2.03125 c 0.0571,0.0445 0.09488,0.119273 0.15625,0.15625 -0.261757,0.248869 -0.430622,0.545744 -0.53125,0.84375 -0.209973,0.621828 -0.25,1.316763 -0.25,2.125 l 0,12.0625 c 0,1.514673 -0.0076,2.219965 -0.1875,4.125 -0.116454,1.086418 -0.134796,3.523015 -0.15625,5.96875 -0.02145,2.445735 -0.03125,4.837225 -0.03125,5.59375 0,0.771578 -0.0096,1.414364 0.125,2.03125 0.06729,0.308443 0.183889,0.618915 0.40625,0.90625 0.177889,0.229868 0.471078,0.384627 0.75,0.5 -0.216908,0.05461 -0.430774,0.09391 -0.625,0.1875 -0.0202,-0.112143 -7.35e-4,-0.234802 -0.03125,-0.34375 -0.116558,-0.416152 -0.263299,-0.821155 -0.71875,-1.15625 -0.39601,-0.29264 -0.822519,-0.465334 -1.46875,-0.75 -0.646231,-0.284666 -1.4359,-0.594501 -2.25,-0.9375 -1.6282,-0.685999 -3.395242,-1.462526 -3.90625,-1.78125 -0.88754,-0.553573 -2.916204,-1.432168 -5.21875,-2.4375 -2.302546,-1.005332 -4.787499,-2.083052 -6.21875,-2.75 -0.578068,-0.275394 -1.227751,-0.536674 -1.875,-0.8125 0.02327,-0.482623 0.06341,-1.027016 0.0625,-1.75 -0.0011,-0.867999 -0.04689,-1.760591 -0.46875,-2.5625 -0.04236,-0.08051 -0.04266,-0.171613 -0.09375,-0.25 l -0.03125,0.03125 c -0.221552,-0.582322 -0.514085,-1.123047 -0.9375,-1.46875 -0.03668,-0.02995 -0.08687,-0.03434 -0.125,-0.0625 0.357225,-0.233672 0.658974,-0.542399 0.84375,-1 0.07455,-0.184382 0.08319,-0.393516 0.125,-0.59375 0.503858,0.177546 1.059048,0.131528 1.625,-0.0625 1.831392,-0.601312 3.638864,-1.576365 4.9375,-2.875 1.060127,-1.083095 2.169453,-1.821755 3.3125,-2.5625 0.674723,-0.450067 3.102014,-2.225417 5.65625,-4.09375 2.554236,-1.868333 5.20063,-3.806842 6,-4.34375 a 0.89646494,0.89646494 0 0 0 0.15625,-0.15625 c 0.566037,-0.62591 0.894633,-1.149846 0.96875,-1.78125 z" />
  <path
     style="opacity:0.86065849000000005;fill:#adb3f1;fill-opacity:1;fill-rule:evenodd"
     id="path3866"
     inkscape:connector-curvature="0"
     d="m 41.287048,14.949788 c -0.05991,-0.0097 -0.113846,0.01142 -0.15625,0.03125 -0.339234,0.180581 -1.709718,0.174137 -1.03125,1.375 0.701686,1.199573 1.385145,0.678468 1.90625,0 0.454838,-0.594788 -0.299358,-1.338568 -0.71875,-1.40625 z m 3.3125,0.1875 c -2.240493,0 -1.23276,1.881918 -0.375,2.0625 0.860339,0.18187 3.084265,0.878226 6.34375,1.21875 3.259486,0.339234 7.220515,1.19313 8.78125,1.375 1.540097,0.158655 4.276095,1.185097 5.65625,1.34375 1.381444,0.181871 7.048023,0.878227 8.40625,1.21875 1.381444,0.362451 1.89159,-1.700049 1.03125,-2.0625 -0.860339,-0.339234 -2.742917,-0.692016 -5.84375,-1.03125 -3.077614,-0.340524 -4.627114,-1.028847 -5.125,-1.1875 -0.521106,-0.180581 -2.923315,-0.185097 -3.625,-0.34375 -0.679758,-0.181871 -4.11504,-0.689613 -5.8125,-1.1875 -1.720678,-0.521105 -7.220225,-1.40625 -9.4375,-1.40625 z m -6.25,1.4375 c -0.265853,-0.0057 -0.526296,0.04019 -0.65625,0.125 -0.521105,0.339234 -3.233411,1.882742 -4.09375,2.5625 -0.860338,0.679758 -3.081677,2.065726 -4.28125,2.40625 -1.199574,0.340524 -6.194604,3.455387 -8.59375,4.65625 -2.422364,1.199573 0.519176,1.364854 1.71875,0.84375 1.199573,-0.521105 7.033838,-3.589709 9.09375,-4.8125 2.059913,-1.200862 4.972627,-2.899807 7.03125,-4.28125 1.543966,-1.036083 0.578809,-1.48295 -0.21875,-1.5 z m 2.78125,1.75 c -0.495308,0.127213 -0.934041,0.598266 -0.84375,0.9375 0.18187,0.679759 0.6875,3.255814 0.6875,5.65625 0,2.400437 0.34375,6.051249 0.34375,7.75 0,0.619562 0.07107,1.567172 0.1875,2.59375 -1.516561,-0.43015 -3.09395,-0.896099 -4.96875,-1.46875 -4.594493,-1.403371 -12.231773,-3.719572 -14.15625,-4.21875 -1.924477,-0.497887 -2.286289,0.191959 -1.71875,0.9375 0.566251,0.770048 1.557473,0.788701 5.5625,2.125 4.028244,1.358226 11.853023,3.64312 14.34375,4.59375 0.411889,0.161128 0.808602,0.335111 1.21875,0.5 0.113426,1.023546 0.21875,1.983496 0.21875,2.65625 0,1.879331 0.14658,2.75 1.1875,2.75 1.018993,0 0.6875,-1.387258 0.6875,-2.40625 0,-0.380904 -0.01208,-1.341187 -0.03125,-2.21875 1.340164,0.499721 2.61232,0.918082 3.78125,1.03125 2.105057,0.181871 2.318235,-1.917451 -0.375,-2.6875 -0.991618,-0.277231 -2.214289,-0.598969 -3.4375,-0.9375 0.009,-0.402925 0.02679,-0.73167 0.0625,-0.84375 0.180582,-0.521104 -0.16188,-3.452162 -0.34375,-4.3125 -0.180582,-0.86034 -0.5,-3.591822 -0.5,-5.3125 0,-1.720678 -0.348266,-3.938798 -0.6875,-6 -0.170262,-1.029957 -0.723442,-1.252213 -1.21875,-1.125 z m 35.9375,2.5625 c -0.517394,-0.0032 -0.90625,0.203452 -0.90625,1.40625 0,1.901259 1.36187,1.90871 2.3125,1.34375 0.95063,-0.566251 0.57563,-2.65625 -0.375,-2.65625 -0.356486,0 -0.720813,-0.09184 -1.03125,-0.09375 z m -2.125,2.8125 c -0.348928,-0.0288 -0.84834,0.143514 -1.28125,0.5 -1.13121,0.973846 -4.594991,3.091823 -7.0625,4.8125 -2.489437,1.720678 -7.079274,4.7612 -8.4375,5.53125 -1.33501,0.770048 -3.064322,1.73558 -4.21875,2.6875 -1.13121,0.973847 -0.719388,2.683217 1,2.09375 1.720679,-0.564961 3.438032,-1.500533 4.59375,-2.65625 1.13121,-1.155718 2.283072,-1.939379 3.4375,-2.6875 1.154428,-0.770049 9.935573,-7.281783 11.65625,-8.4375 1.074618,-1.188287 0.894047,-1.795745 0.3125,-1.84375 z m 2.5625,1.28125 c -0.768758,0 -0.96875,0.961192 -0.96875,2.5 l 0,12.0625 c 0,1.516879 -0.0056,2.292983 -0.1875,4.21875 -0.203798,1.901259 -0.1875,9.949291 -0.1875,11.46875 0,1.538807 0.0112,2.483702 0.78125,2.6875 0.768759,0.180581 0.952452,-0.756162 1.15625,-2.09375 0.180581,-1.358227 0.5625,-4.604313 0.5625,-7.09375 0,-2.492017 -0.384379,-4.01812 0,-4.96875 0.38567,-0.951919 0.369371,-2.117975 0.1875,-4.8125 -0.202509,-2.672598 -0.578798,-10.148749 -0.375,-11.28125 0.180581,-1.154428 -0.221918,-2.6875 -0.96875,-2.6875 z m -59.1875,2.875 c -1.018993,0.181871 -1.215057,0.512257 -1.375,1.53125 -0.180581,1.042209 1.014661,1.576686 1.875,0.875 0.860339,-0.679758 0.54092,-2.564903 -0.5,-2.40625 z m 0.46875,4.53125 c -0.492405,0.08497 -0.96875,0.525213 -0.96875,1.125 0,1.199573 0.66317,8.234701 0.84375,9.09375 0.158654,0.860339 0.84375,4.462306 0.84375,5.84375 0,1.381444 0.692016,3.263371 1.03125,4.125 0.339234,0.85905 0.01015,4.136443 0.53125,6.71875 0.497888,2.56038 1.349379,0.330379 1.53125,-0.53125 0.180581,-0.861629 -0.1875,-2.581677 -0.1875,-3.78125 0,-1.200864 -0.13063,-3.263548 -0.3125,-4.28125 -0.158653,-1.04221 -1.03688,-4.485524 -1.21875,-5.84375 -0.157363,-1.381444 -0.319419,-3.251298 -0.5,-5.3125 -0.158653,-2.059912 -0.341346,-4.647403 -0.5,-6.1875 -0.09029,-0.781013 -0.601345,-1.05372 -1.09375,-0.96875 z m 32.3125,5.625 c -1.742605,0.203798 -1.745717,1.538702 -1.15625,2.875 0.384379,0.95063 2.303121,0.54567 2.6875,-0.40625 0.38438,-0.950629 0.188138,-2.650621 -1.53125,-2.46875 z m 0.0625,4.25 c -0.384178,0.07373 -0.681799,0.417246 -0.75,1.0625 -0.0992,1.062139 -0.005,2.684794 0.125,4 -1.341194,-0.509038 -2.599211,-0.932631 -3.0625,-1.09375 -1.019003,-0.340524 -1.521104,0.1722 -1,1.03125 0.521105,0.86034 1.699757,0.851493 2.71875,1.53125 0.323566,0.218117 0.978751,0.624226 1.71875,1.0625 0.24483,1.387574 0.663751,4.187098 0.53125,6.34375 -0.180581,2.582307 0.0032,5.841823 0.34375,7.5625 0.339233,1.720678 0.53125,6.175427 0.53125,7.375 0,1.202153 0.319419,2.721976 0.5,3.0625 0.158653,0.362452 1.216347,1.930573 1.375,-0.3125 0.180581,-2.219855 -0.02433,-6.682345 0.15625,-8.0625 0.158654,-1.380154 -0.160766,-4.660135 -0.5,-8.78125 -0.190459,-2.304992 -0.319472,-4.239209 -0.40625,-5.8125 1.027214,0.518268 2.055542,1.004067 2.8125,1.1875 2.058621,0.522394 6.355369,2.581677 9.09375,3.78125 2.738381,1.202153 7.023693,3.580855 8.5625,4.28125 1.538808,0.681049 1.397218,-1.907072 0.71875,-2.40625 -0.701686,-0.518525 -6.181056,-2.575871 -7.5625,-3.4375 -1.381444,-0.861629 -8.423498,-3.764194 -11.34375,-5.125 -0.732277,-0.348859 -1.570052,-0.714805 -2.40625,-1.0625 0,-1.018991 0.334718,-3.58408 -0.34375,-4.625 -0.324884,-1.07623 -1.172204,-1.685377 -1.8125,-1.5625 z m -7.28125,2.71875 c -0.536664,0.02654 -1.052064,0.312092 -1.1875,1.09375 -0.159943,1.018992 1.040282,1.182984 1.71875,0.84375 0.678469,-0.340524 0.678469,-1.725669 0,-1.90625 -0.169617,-0.03966 -0.352362,-0.0401 -0.53125,-0.03125 z m -2.09375,2.59375 c -0.301324,0.03116 -0.597415,0.159915 -0.8125,0.375 -0.860339,0.860339 -5.482774,3.967645 -8.0625,6.1875 -2.579728,2.241784 -7.054942,4.617442 -8.59375,6.15625 -1.538807,1.541387 0.543507,2.423952 1.5625,1.40625 1.042209,-1.0435 6.151919,-4.466645 8.03125,-6.03125 1.901259,-1.538808 6.370669,-4.802363 8.25,-6.34375 1.425945,-1.154105 0.528973,-1.843475 -0.375,-1.75 z m 35.15625,11.875 c -1.154428,0.203798 -1.729418,0.984291 -1.34375,1.9375 0.38438,0.94934 1.71629,1.149389 2.28125,0.5625 0.588177,-0.567539 0.216928,-2.681871 -0.9375,-2.5 z m -54.125,2.3125 c -0.542083,-0.0019 -1.137137,0.343503 -1.25,0.78125 -0.158653,0.681049 -0.004,2.222442 1.21875,2.0625 1.199573,-0.178002 1.363565,-1.544621 0.84375,-2.40625 -0.187192,-0.322144 -0.48725,-0.436344 -0.8125,-0.4375 z m 51.0625,1.03125 c -0.266679,-0.01272 -0.551948,0.06584 -0.8125,0.28125 -1.017703,0.838412 -2.405612,1.685395 -4.125,3.25 -1.720678,1.538808 -6.519176,5.323468 -7.71875,6.34375 -1.198283,1.04092 -1.718936,0.357773 -3.9375,2.9375 -2.241784,2.582307 0.142065,2.926065 0.84375,2.40625 0.679758,-0.522394 1.35841,-1.034476 2.21875,-1.375 0.859049,-0.362452 1.742442,-1.552363 3.28125,-3.09375 1.540096,-1.540097 2.766773,-1.081385 4.125,-2.9375 1.380154,-1.858693 4.804943,-5.23816 6.34375,-6.1875 1.153138,-0.714907 0.581287,-1.586848 -0.21875,-1.625 z m -48.53125,1.3125 c -0.991099,0.132292 -0.811322,1.073495 0.34375,1.71875 1.562026,0.859049 6.369846,3.413991 7.75,4.09375 1.358227,0.679758 2.731007,0.885321 3.75,1.5625 1.04092,0.681048 4.295911,2.385145 5.15625,2.90625 0.860339,0.522394 6.182347,3.257742 7.5625,3.9375 1.358227,0.702976 2.052355,-1.188322 1.53125,-1.6875 -0.519815,-0.521105 -1.387259,-0.697646 -2.40625,-1.21875 -1.04092,-0.496599 -4.804942,-2.232121 -6.34375,-3.09375 -1.540097,-0.861629 -4.811862,-2.570242 -6.53125,-3.25 -1.719388,-0.678468 -7.038354,-4.135321 -9.4375,-4.8125 -0.599787,-0.175744 -1.044634,-0.200347 -1.375,-0.15625 z m 28.3125,13.21875 c -0.497888,0.156074 -1.545436,1.204097 -0.84375,2.40625 0.678469,1.199573 1.704564,1.853887 2.40625,0.3125 0.678469,-1.538807 -1.041395,-2.90062 -1.5625,-2.71875 z" />
  <path
     style="fill:#ffffff;fill-rule:evenodd;stroke:#ffffff;stroke-width:0.4;stroke-miterlimit:4;stroke-dasharray:none"
     id="path2875"
     inkscape:connector-curvature="0"
     d="m 41.287048,13.952864 c -0.05991,-0.0097 -0.113846,0.01142 -0.15625,0.03125 -0.339234,0.180581 -1.709718,0.174137 -1.03125,1.375 0.701686,1.199573 1.385145,0.678468 1.90625,0 0.454838,-0.594788 -0.299358,-1.338568 -0.71875,-1.40625 z m 3.3125,0.1875 c -2.240493,0 -1.23276,1.881918 -0.375,2.0625 0.860339,0.18187 3.084265,0.878226 6.34375,1.21875 3.259486,0.339234 7.220515,1.19313 8.78125,1.375 1.540097,0.158655 4.276095,1.185097 5.65625,1.34375 1.381444,0.181871 7.048023,0.878227 8.40625,1.21875 1.381444,0.362451 1.89159,-1.700049 1.03125,-2.0625 -0.860339,-0.339234 -2.742917,-0.692016 -5.84375,-1.03125 -3.077614,-0.340524 -4.627114,-1.028847 -5.125,-1.1875 -0.521106,-0.180581 -2.923315,-0.185097 -3.625,-0.34375 -0.679758,-0.181871 -4.11504,-0.689613 -5.8125,-1.1875 -1.720678,-0.521105 -7.220225,-1.40625 -9.4375,-1.40625 z m -6.25,1.4375 c -0.265853,-0.0057 -0.526296,0.04019 -0.65625,0.125 -0.521105,0.339234 -3.233411,1.882742 -4.09375,2.5625 -0.860338,0.679758 -3.081677,2.065726 -4.28125,2.40625 -1.199574,0.340524 -6.194604,3.455387 -8.59375,4.65625 -2.422364,1.199573 0.519176,1.364854 1.71875,0.84375 1.199573,-0.521105 7.033838,-3.589709 9.09375,-4.8125 2.059913,-1.200862 4.972627,-2.899807 7.03125,-4.28125 1.543966,-1.036083 0.578809,-1.48295 -0.21875,-1.5 z m 2.78125,1.75 c -0.495308,0.127213 -0.934041,0.598266 -0.84375,0.9375 0.18187,0.679759 0.6875,3.255814 0.6875,5.65625 0,2.400437 0.34375,6.051249 0.34375,7.75 0,0.619562 0.07107,1.567172 0.1875,2.59375 -1.516561,-0.43015 -3.09395,-0.896099 -4.96875,-1.46875 -4.594493,-1.403371 -12.231773,-3.719572 -14.15625,-4.21875 -1.924477,-0.497887 -2.286289,0.191959 -1.71875,0.9375 0.566251,0.770048 1.557473,0.788701 5.5625,2.125 4.028244,1.358226 11.853023,3.64312 14.34375,4.59375 0.411889,0.161128 0.808602,0.335111 1.21875,0.5 0.113426,1.023546 0.21875,1.983496 0.21875,2.65625 0,1.879331 0.14658,2.75 1.1875,2.75 1.018993,0 0.6875,-1.387258 0.6875,-2.40625 0,-0.380904 -0.01208,-1.341187 -0.03125,-2.21875 1.340164,0.499721 2.61232,0.918082 3.78125,1.03125 2.105057,0.181871 2.318235,-1.917451 -0.375,-2.6875 -0.991618,-0.277231 -2.214289,-0.598969 -3.4375,-0.9375 0.009,-0.402925 0.02679,-0.73167 0.0625,-0.84375 0.180582,-0.521104 -0.16188,-3.452162 -0.34375,-4.3125 -0.180582,-0.86034 -0.5,-3.591822 -0.5,-5.3125 0,-1.720678 -0.348266,-3.938798 -0.6875,-6 -0.170262,-1.029957 -0.723442,-1.252213 -1.21875,-1.125 z m 35.9375,2.5625 c -0.517394,-0.0032 -0.90625,0.203452 -0.90625,1.40625 0,1.901259 1.36187,1.90871 2.3125,1.34375 0.95063,-0.566251 0.57563,-2.65625 -0.375,-2.65625 -0.356486,0 -0.720813,-0.09184 -1.03125,-0.09375 z m -2.125,2.8125 c -0.348928,-0.0288 -0.84834,0.143514 -1.28125,0.5 -1.13121,0.973846 -4.594991,3.091823 -7.0625,4.8125 -2.489437,1.720678 -7.079274,4.7612 -8.4375,5.53125 -1.33501,0.770048 -3.064322,1.73558 -4.21875,2.6875 -1.13121,0.973847 -0.719388,2.683217 1,2.09375 1.720679,-0.564961 3.438032,-1.500533 4.59375,-2.65625 1.13121,-1.155718 2.283072,-1.939379 3.4375,-2.6875 1.154428,-0.770049 9.935573,-7.281783 11.65625,-8.4375 1.074618,-1.188287 0.894047,-1.795745 0.3125,-1.84375 z m 2.5625,1.28125 c -0.768758,0 -0.96875,0.961192 -0.96875,2.5 l 0,12.0625 c 0,1.516879 -0.0056,2.292983 -0.1875,4.21875 -0.203798,1.901259 -0.1875,9.949291 -0.1875,11.46875 0,1.538807 0.0112,2.483702 0.78125,2.6875 0.768759,0.180581 0.952452,-0.756162 1.15625,-2.09375 0.180581,-1.358227 0.5625,-4.604313 0.5625,-7.09375 0,-2.492017 -0.384379,-4.01812 0,-4.96875 0.38567,-0.951919 0.369371,-2.117975 0.1875,-4.8125 -0.202509,-2.672598 -0.578798,-10.148749 -0.375,-11.28125 0.180581,-1.154428 -0.221918,-2.6875 -0.96875,-2.6875 z m -59.1875,2.875 c -1.018993,0.181871 -1.215057,0.512257 -1.375,1.53125 -0.180581,1.042209 1.014661,1.576686 1.875,0.875 0.860339,-0.679758 0.54092,-2.564903 -0.5,-2.40625 z m 0.46875,4.53125 c -0.492405,0.08497 -0.96875,0.525213 -0.96875,1.125 0,1.199573 0.66317,8.234701 0.84375,9.09375 0.158654,0.860339 0.84375,4.462306 0.84375,5.84375 0,1.381444 0.692016,3.263371 1.03125,4.125 0.339234,0.85905 0.01015,4.136443 0.53125,6.71875 0.497888,2.56038 1.349379,0.330379 1.53125,-0.53125 0.180581,-0.861629 -0.1875,-2.581677 -0.1875,-3.78125 0,-1.200864 -0.13063,-3.263548 -0.3125,-4.28125 -0.158653,-1.04221 -1.03688,-4.485524 -1.21875,-5.84375 -0.157363,-1.381444 -0.319419,-3.251298 -0.5,-5.3125 -0.158653,-2.059912 -0.341346,-4.647403 -0.5,-6.1875 -0.09029,-0.781013 -0.601345,-1.05372 -1.09375,-0.96875 z m 32.3125,5.625 c -1.742605,0.203798 -1.745717,1.538702 -1.15625,2.875 0.384379,0.95063 2.303121,0.54567 2.6875,-0.40625 0.38438,-0.950629 0.188138,-2.650621 -1.53125,-2.46875 z m 0.0625,4.25 c -0.384178,0.07373 -0.681799,0.417246 -0.75,1.0625 -0.0992,1.062139 -0.005,2.684794 0.125,4 -1.341194,-0.509038 -2.599211,-0.932631 -3.0625,-1.09375 -1.019003,-0.340524 -1.521104,0.1722 -1,1.03125 0.521105,0.86034 1.699757,0.851493 2.71875,1.53125 0.323566,0.218117 0.978751,0.624226 1.71875,1.0625 0.24483,1.387574 0.663751,4.187098 0.53125,6.34375 -0.180581,2.582307 0.0032,5.841823 0.34375,7.5625 0.339233,1.720678 0.53125,6.175427 0.53125,7.375 0,1.202153 0.319419,2.721976 0.5,3.0625 0.158653,0.362452 1.216347,1.930573 1.375,-0.3125 0.180581,-2.219855 -0.02433,-6.682345 0.15625,-8.0625 0.158654,-1.380154 -0.160766,-4.660135 -0.5,-8.78125 -0.190459,-2.304992 -0.319472,-4.239209 -0.40625,-5.8125 1.027214,0.518268 2.055542,1.004067 2.8125,1.1875 2.058621,0.522394 6.355369,2.581677 9.09375,3.78125 2.738381,1.202153 7.023693,3.580855 8.5625,4.28125 1.538808,0.681049 1.397218,-1.907072 0.71875,-2.40625 -0.701686,-0.518525 -6.181056,-2.575871 -7.5625,-3.4375 -1.381444,-0.861629 -8.423498,-3.764194 -11.34375,-5.125 -0.732277,-0.348859 -1.570052,-0.714805 -2.40625,-1.0625 0,-1.018991 0.334718,-3.58408 -0.34375,-4.625 -0.324884,-1.07623 -1.172204,-1.685377 -1.8125,-1.5625 z m -7.28125,2.71875 c -0.536664,0.02654 -1.052064,0.312092 -1.1875,1.09375 -0.159943,1.018992 1.040282,1.182984 1.71875,0.84375 0.678469,-0.340524 0.678469,-1.725669 0,-1.90625 -0.169617,-0.03966 -0.352362,-0.0401 -0.53125,-0.03125 z m -2.09375,2.59375 c -0.301324,0.03116 -0.597415,0.159915 -0.8125,0.375 -0.860339,0.860339 -5.482774,3.967645 -8.0625,6.1875 -2.579728,2.241784 -7.054942,4.617442 -8.59375,6.15625 -1.538807,1.541387 0.543507,2.423952 1.5625,1.40625 1.042209,-1.0435 6.151919,-4.466645 8.03125,-6.03125 1.901259,-1.538808 6.370669,-4.802363 8.25,-6.34375 1.425945,-1.154105 0.528973,-1.843475 -0.375,-1.75 z m 35.15625,11.875 c -1.154428,0.203798 -1.729418,0.984291 -1.34375,1.9375 0.38438,0.94934 1.71629,1.149389 2.28125,0.5625 0.588177,-0.567539 0.216928,-2.681871 -0.9375,-2.5 z m -54.125,2.3125 c -0.542083,-0.0019 -1.137137,0.343503 -1.25,0.78125 -0.158653,0.681049 -0.004,2.222442 1.21875,2.0625 1.199573,-0.178002 1.363565,-1.544621 0.84375,-2.40625 -0.187192,-0.322144 -0.48725,-0.436344 -0.8125,-0.4375 z m 51.0625,1.03125 c -0.266679,-0.01272 -0.551948,0.06584 -0.8125,0.28125 -1.017703,0.838412 -2.405612,1.685395 -4.125,3.25 -1.720678,1.538808 -6.519176,5.323468 -7.71875,6.34375 -1.198283,1.04092 -1.718936,0.357773 -3.9375,2.9375 -2.241784,2.582307 0.142065,2.926065 0.84375,2.40625 0.679758,-0.522394 1.35841,-1.034476 2.21875,-1.375 0.859049,-0.362452 1.742442,-1.552363 3.28125,-3.09375 1.540096,-1.540097 2.766773,-1.081385 4.125,-2.9375 1.380154,-1.858693 4.804943,-5.23816 6.34375,-6.1875 1.153138,-0.714907 0.581287,-1.586848 -0.21875,-1.625 z m -48.53125,1.3125 c -0.991099,0.132292 -0.811322,1.073495 0.34375,1.71875 1.562026,0.859049 6.369846,3.413991 7.75,4.09375 1.358227,0.679758 2.731007,0.885321 3.75,1.5625 1.04092,0.681048 4.295911,2.385145 5.15625,2.90625 0.860339,0.522394 6.182347,3.257742 7.5625,3.9375 1.358227,0.702976 2.052355,-1.188322 1.53125,-1.6875 -0.519815,-0.521105 -1.387259,-0.697646 -2.40625,-1.21875 -1.04092,-0.496599 -4.804942,-2.232121 -6.34375,-3.09375 -1.540097,-0.861629 -4.811862,-2.570242 -6.53125,-3.25 -1.719388,-0.678468 -7.038354,-4.135321 -9.4375,-4.8125 -0.599787,-0.175744 -1.044634,-0.200347 -1.375,-0.15625 z m 28.3125,13.21875 c -0.497888,0.156074 -1.545436,1.204097 -0.84375,2.40625 0.678469,1.199573 1.704564,1.853887 2.40625,0.3125 0.678469,-1.538807 -1.041395,-2.90062 -1.5625,-2.71875 z" />
</svg>
