<?xml version="1.0" encoding="UTF-8" standalone="no"?>
<!-- Created with Inkscape (http://www.inkscape.org/) -->

<svg
   xmlns:dc="http://purl.org/dc/elements/1.1/"
   xmlns:cc="http://creativecommons.org/ns#"
   xmlns:rdf="http://www.w3.org/1999/02/22-rdf-syntax-ns#"
   xmlns:svg="http://www.w3.org/2000/svg"
   xmlns="http://www.w3.org/2000/svg"
   xmlns:xlink="http://www.w3.org/1999/xlink"
   xmlns:sodipodi="http://sodipodi.sourceforge.net/DTD/sodipodi-0.dtd"
   xmlns:inkscape="http://www.inkscape.org/namespaces/inkscape"
   version="1.0"
   width="96"
   height="96"
   id="svg2408"
   sodipodi:docname="add-folder-to-archive.svg"
   inkscape:version="0.92.2 2405546, 2018-03-11">
  <sodipodi:namedview
     pagecolor="#ffffff"
     bordercolor="#666666"
     borderopacity="1"
     objecttolerance="10"
     gridtolerance="10"
     guidetolerance="10"
     inkscape:pageopacity="0"
     inkscape:pageshadow="2"
     inkscape:window-width="750"
     inkscape:window-height="480"
     id="namedview186"
     showgrid="false"
     inkscape:zoom="2.4583333"
     inkscape:cx="48"
     inkscape:cy="48"
     inkscape:window-x="52"
     inkscape:window-y="0"
     inkscape:window-maximized="0"
     inkscape:current-layer="svg2408" />
  <defs
     id="defs2410">
    <linearGradient
       id="linearGradient3637">
      <stop
         id="stop3639"
         style="stop-color:#f0f0f0;stop-opacity:1"
         offset="0" />
      <stop
         id="stop3641"
         style="stop-color:#aaaaaa;stop-opacity:1"
         offset="1" />
    </linearGradient>
    <linearGradient
       x1="45.447727"
       y1="92.539597"
       x2="45.447727"
       y2="7.0165396"
       id="ButtonShadow"
       gradientUnits="userSpaceOnUse"
       gradientTransform="scale(1.0058652,0.994169)">
      <stop
         id="stop3750"
         style="stop-color:#000000;stop-opacity:1"
         offset="0" />
      <stop
         id="stop3752"
         style="stop-color:#000000;stop-opacity:0.58823532"
         offset="1" />
    </linearGradient>
    <linearGradient
       id="linearGradient3737">
      <stop
         id="stop3739"
         style="stop-color:#ffffff;stop-opacity:1"
         offset="0" />
      <stop
         id="stop3741"
         style="stop-color:#ffffff;stop-opacity:0"
         offset="1" />
    </linearGradient>
    <linearGradient
       id="linearGradient3700">
      <stop
         id="stop3702"
         style="stop-color:#2276c5;stop-opacity:1"
         offset="0" />
      <stop
         id="stop3704"
         style="stop-color:#68baf4;stop-opacity:1"
         offset="1" />
    </linearGradient>
    <filter
       color-interpolation-filters="sRGB"
       id="filter3174">
      <feGaussianBlur
         id="feGaussianBlur3176"
         stdDeviation="1.71" />
    </filter>
    <linearGradient
       x1="36.357143"
       y1="6"
       x2="36.357143"
       y2="63.893143"
       id="linearGradient3188"
       xlink:href="#linearGradient3737"
       gradientUnits="userSpaceOnUse" />
    <filter
       x="-0.192"
       y="-0.192"
       width="1.3839999"
       height="1.3839999"
       color-interpolation-filters="sRGB"
       id="filter3794">
      <feGaussianBlur
         id="feGaussianBlur3796"
         stdDeviation="5.28" />
    </filter>
    <linearGradient
       x1="48"
       y1="20.220806"
       x2="48"
       y2="138.66119"
       id="linearGradient3613"
       xlink:href="#linearGradient3737"
       gradientUnits="userSpaceOnUse" />
    <radialGradient
       cx="48"
       cy="90.171875"
       r="42"
       fx="48"
       fy="90.171875"
       id="radialGradient3619"
       xlink:href="#linearGradient3737"
       gradientUnits="userSpaceOnUse"
       gradientTransform="matrix(1.1573129,0,0,0.99590774,-7.5510206,0.19713193)" />
    <clipPath
       id="clipPath3613">
      <rect
         width="84"
         height="84"
         rx="6"
         ry="6"
         x="6"
         y="6"
         id="rect3615"
         style="fill:#ffffff;fill-opacity:1;fill-rule:nonzero;stroke:none" />
    </clipPath>
    <linearGradient
       x1="48"
       y1="90"
       x2="48"
       y2="5.9877172"
       id="linearGradient2843"
       xlink:href="#linearGradient3700"
       gradientUnits="userSpaceOnUse"
       gradientTransform="translate(0,100)" />
    <clipPath
       id="clipPath3625">
      <path
         d="M 0,0 0,96 96,96 96,0 0,0 z m 12,6 72,0 c 3.324,0 6,2.676 6,6 l 0,72 c 0,3.324 -2.676,6 -6,6 L 12,90 C 8.676,90 6,87.324 6,84 L 6,12 C 6,8.676 8.676,6 12,6 z"
         inkscape:connector-curvature="0"
         id="path3627"
         style="fill:#ffffff;fill-opacity:1;stroke:none" />
    </clipPath>
    <linearGradient
       x1="44.512066"
       y1="6"
       x2="44.512066"
       y2="90.015434"
       id="linearGradient3643"
       xlink:href="#linearGradient3637"
       gradientUnits="userSpaceOnUse" />
    <clipPath
       id="clipPath3649">
      <rect
         width="76"
         height="76"
         rx="4"
         ry="4"
         x="10"
         y="10"
         id="rect3651"
         style="fill:#ffffff;fill-opacity:1;fill-rule:nonzero;stroke:none" />
    </clipPath>
    <filter
       color-interpolation-filters="sRGB"
       id="filter3657">
      <feGaussianBlur
         id="feGaussianBlur3659"
         stdDeviation="1.14" />
    </filter>
    <linearGradient
       x1="45.447727"
       y1="92.539597"
       x2="45.447727"
       y2="7.0165396"
       id="ButtonShadow-0"
       gradientUnits="userSpaceOnUse"
       gradientTransform="matrix(1.0058652,0,0,0.994169,100,0)">
      <stop
         id="stop3750-8"
         style="stop-color:#000000;stop-opacity:1"
         offset="0" />
      <stop
         id="stop3752-5"
         style="stop-color:#000000;stop-opacity:0.58823532"
         offset="1" />
    </linearGradient>
    <linearGradient
       x1="32.251034"
       y1="6.1317081"
       x2="32.251034"
       y2="90.238609"
       id="linearGradient3780"
       xlink:href="#ButtonShadow-0"
       gradientUnits="userSpaceOnUse"
       gradientTransform="matrix(1.0238095,0,0,-1.0119048,-1.1428571,98.071429)" />
    <linearGradient
       x1="32.251034"
       y1="6.1317081"
       x2="32.251034"
       y2="90.238609"
       id="linearGradient3772"
       xlink:href="#ButtonShadow-0"
       gradientUnits="userSpaceOnUse"
       gradientTransform="matrix(1.0238095,0,0,-1.0119048,-1.1428571,98.071429)" />
    <linearGradient
       x1="32.251034"
       y1="6.1317081"
       x2="32.251034"
       y2="90.238609"
       id="linearGradient3725"
       xlink:href="#ButtonShadow-0"
       gradientUnits="userSpaceOnUse"
       gradientTransform="matrix(1.0238095,0,0,-1.0119048,-1.1428571,98.071429)" />
    <linearGradient
       x1="32.251034"
       y1="6.1317081"
       x2="32.251034"
       y2="90.238609"
       id="linearGradient3721"
       xlink:href="#ButtonShadow-0"
       gradientUnits="userSpaceOnUse"
       gradientTransform="matrix(1,0,0,-1,0,97)" />
    <linearGradient
       x1="32.251034"
       y1="6.1317081"
       x2="32.251034"
       y2="90.238609"
       id="linearGradient3199"
       xlink:href="#ButtonShadow-0"
       gradientUnits="userSpaceOnUse"
       gradientTransform="matrix(1.0238095,0,0,-1.0119048,-1.1428571,98.071429)" />
    <linearGradient
       x1="36.357143"
       y1="6"
       x2="36.357143"
       y2="63.893143"
       id="linearGradient3188-8"
       xlink:href="#linearGradient3737-3"
       gradientUnits="userSpaceOnUse" />
    <linearGradient
       id="linearGradient3737-3">
      <stop
         id="stop3739-6"
         style="stop-color:#ffffff;stop-opacity:1"
         offset="0" />
      <stop
         id="stop3741-1"
         style="stop-color:#ffffff;stop-opacity:0"
         offset="1" />
    </linearGradient>
    <radialGradient
       cx="48"
       cy="90.171875"
       r="42"
       fx="48"
       fy="90.171875"
       id="radialGradient3619-3"
       xlink:href="#linearGradient3737-3"
       gradientUnits="userSpaceOnUse"
       gradientTransform="matrix(1.1573129,0,0,0.99590774,-7.551021,0.1971319)" />
    <linearGradient
       x1="104"
       y1="8"
       x2="120"
       y2="8"
       id="linearGradient3905"
       xlink:href="#linearGradient3637"
       gradientUnits="userSpaceOnUse"
       gradientTransform="translate(-104,104)" />
    <linearGradient
       x1="104"
       y1="8"
       x2="120"
       y2="8"
       id="linearGradient3913"
       xlink:href="#linearGradient3183-0"
       gradientUnits="userSpaceOnUse"
       gradientTransform="translate(-144,104)" />
    <linearGradient
       id="linearGradient3183-0">
      <stop
         id="stop3185-9"
         style="stop-color:#c80000;stop-opacity:1"
         offset="0" />
      <stop
         id="stop3187-6"
         style="stop-color:#f3604d;stop-opacity:1"
         offset="1" />
    </linearGradient>
    <linearGradient
       x1="11.998966"
       y1="1.8417114"
       x2="11.998966"
       y2="20.237488"
       id="linearGradient4065"
       xlink:href="#linearGradient3637"
       gradientUnits="userSpaceOnUse"
       gradientTransform="matrix(4.161253,0,0,4.8924436,-19.167063,-5.6373366)" />
  </defs>
  <metadata
     id="metadata2413">
    <rdf:RDF>
      <cc:Work
         rdf:about="">
        <dc:format>image/svg+xml</dc:format>
        <dc:type
           rdf:resource="http://purl.org/dc/dcmitype/StillImage" />
        <dc:title />
      </cc:Work>
    </rdf:RDF>
  </metadata>
  <g
     id="layer2"
     style="display:none">
    <rect
       width="86"
       height="85"
       rx="6"
       ry="6"
       x="5"
       y="7"
       clip-path="url(#clipPath3625)"
       id="rect3745"
       style="opacity:0.9;fill:url(#ButtonShadow);fill-opacity:1;fill-rule:nonzero;stroke:none;filter:url(#filter3174)" />
  </g>
  <g
     id="layer1"
     style="display:none">
    <rect
       width="84"
       height="84"
       rx="6"
       ry="6"
       x="6"
       y="6"
       id="rect2419"
       style="opacity:0.8;fill:#000000;fill-opacity:1;fill-rule:nonzero;stroke:none" />
    <path
       d="m 14,10 c -2.216,0 -4,1.784 -4,4 l 0,68 c 0,2.216 1.784,4 4,4 l 68,0 c 2.216,0 4,-1.784 4,-4 l 0,-68 c 0,-2.216 -1.784,-4 -4,-4 l -68,0 z m 0,3.0625 68,0 c 0.578769,0 0.9375,0.358731 0.9375,0.9375 l 0,68 c 0,0.578769 -0.358731,0.9375 -0.9375,0.9375 l -68,0 c -0.578769,0 -0.9375,-0.358731 -0.9375,-0.9375 l 0,-68 c 0,-0.578769 0.358731,-0.9375 0.9375,-0.9375 z"
       inkscape:connector-curvature="0"
       id="rect3726"
       style="opacity:0.07999998;fill:#000000;fill-opacity:1;fill-rule:nonzero;stroke:none" />
    <path
       d="M 12,6 C 8.676,6 6,8.676 6,12 l 0,72 c 0,3.324 2.676,6 6,6 l 72,0 c 3.324,0 6,-2.676 6,-6 L 90,12 C 90,8.676 87.324,6 84,6 L 12,6 z m 2,4 68,0 c 2.216,0 4,1.784 4,4 l 0,68 c 0,2.216 -1.784,4 -4,4 l -68,0 c -2.216,0 -4,-1.784 -4,-4 l 0,-68 c 0,-2.216 1.784,-4 4,-4 z"
       inkscape:connector-curvature="0"
       id="rect3629"
       style="fill:url(#linearGradient3643);fill-opacity:1;fill-rule:nonzero;stroke:none" />
    <path
       d="M 12,6 C 8.676,6 6,8.676 6,12 l 0,2 0,68 0,2 c 0,0.334721 0.04135,0.6507 0.09375,0.96875 0.0487,0.295596 0.09704,0.596915 0.1875,0.875 0.00988,0.03038 0.020892,0.0636 0.03125,0.09375 0.098865,0.287771 0.2348802,0.547452 0.375,0.8125 0.1445918,0.273507 0.3156161,0.535615 0.5,0.78125 0.1843839,0.245635 0.3737765,0.473472 0.59375,0.6875 0.439947,0.428056 0.94291,0.814526 1.5,1.09375 0.278545,0.139612 0.5734731,0.246947 0.875,0.34375 -0.2562018,-0.100222 -0.4867109,-0.236272 -0.71875,-0.375 -0.00741,-0.0044 -0.023866,0.0045 -0.03125,0 -0.031933,-0.0193 -0.062293,-0.04251 -0.09375,-0.0625 -0.120395,-0.0767 -0.2310226,-0.163513 -0.34375,-0.25 -0.1061728,-0.0808 -0.2132809,-0.161112 -0.3125,-0.25 C 8.4783201,88.557317 8.3087904,88.373362 8.15625,88.1875 8.0486711,88.057245 7.9378561,87.922215 7.84375,87.78125 7.818661,87.74287 7.805304,87.69538 7.78125,87.65625 7.716487,87.553218 7.6510225,87.451733 7.59375,87.34375 7.4927417,87.149044 7.3880752,86.928049 7.3125,86.71875 7.30454,86.69694 7.288911,86.6782 7.28125,86.65625 7.2494249,86.5643 7.2454455,86.469419 7.21875,86.375 7.1884177,86.268382 7.1483606,86.171969 7.125,86.0625 7.0521214,85.720988 7,85.364295 7,85 L 7,83 7,15 7,13 C 7,10.218152 9.2181517,8 12,8 l 2,0 68,0 2,0 c 2.781848,0 5,2.218152 5,5 l 0,2 0,68 0,2 c 0,0.364295 -0.05212,0.720988 -0.125,1.0625 -0.04415,0.206893 -0.08838,0.397658 -0.15625,0.59375 -0.0077,0.02195 -0.0233,0.04069 -0.03125,0.0625 -0.06274,0.173739 -0.138383,0.367449 -0.21875,0.53125 -0.04158,0.0828 -0.07904,0.169954 -0.125,0.25 -0.0546,0.09721 -0.126774,0.18835 -0.1875,0.28125 -0.09411,0.140965 -0.204921,0.275995 -0.3125,0.40625 -0.143174,0.17445 -0.303141,0.346998 -0.46875,0.5 -0.01117,0.0102 -0.01998,0.02115 -0.03125,0.03125 -0.138386,0.125556 -0.285091,0.234436 -0.4375,0.34375 -0.102571,0.07315 -0.204318,0.153364 -0.3125,0.21875 -0.0074,0.0045 -0.02384,-0.0044 -0.03125,0 -0.232039,0.138728 -0.462548,0.274778 -0.71875,0.375 0.301527,-0.0968 0.596455,-0.204138 0.875,-0.34375 0.55709,-0.279224 1.060053,-0.665694 1.5,-1.09375 0.219973,-0.214028 0.409366,-0.441865 0.59375,-0.6875 0.184384,-0.245635 0.355408,-0.507743 0.5,-0.78125 0.14012,-0.265048 0.276135,-0.524729 0.375,-0.8125 0.01041,-0.03078 0.02133,-0.06274 0.03125,-0.09375 0.09046,-0.278085 0.1388,-0.579404 0.1875,-0.875 C 89.95865,84.6507 90,84.334721 90,84 l 0,-2 0,-68 0,-2 C 90,8.676 87.324,6 84,6 L 12,6 z"
       inkscape:connector-curvature="0"
       id="rect3728"
       style="fill:url(#linearGradient3188);fill-opacity:1;fill-rule:nonzero;stroke:none" />
    <path
       d="M 12,90 C 8.676,90 6,87.324 6,84 L 6,82 6,14 6,12 c 0,-0.334721 0.04135,-0.6507 0.09375,-0.96875 0.0487,-0.295596 0.09704,-0.596915 0.1875,-0.875 C 6.29113,10.12587 6.302142,10.09265 6.3125,10.0625 6.411365,9.774729 6.5473802,9.515048 6.6875,9.25 6.8320918,8.976493 7.0031161,8.714385 7.1875,8.46875 7.3718839,8.223115 7.5612765,7.995278 7.78125,7.78125 8.221197,7.353194 8.72416,6.966724 9.28125,6.6875 9.559795,6.547888 9.8547231,6.440553 10.15625,6.34375 9.9000482,6.443972 9.6695391,6.580022 9.4375,6.71875 c -0.00741,0.0044 -0.023866,-0.0045 -0.03125,0 -0.031933,0.0193 -0.062293,0.04251 -0.09375,0.0625 -0.120395,0.0767 -0.2310226,0.163513 -0.34375,0.25 -0.1061728,0.0808 -0.2132809,0.161112 -0.3125,0.25 C 8.4783201,7.442683 8.3087904,7.626638 8.15625,7.8125 8.0486711,7.942755 7.9378561,8.077785 7.84375,8.21875 7.818661,8.25713 7.805304,8.30462 7.78125,8.34375 7.716487,8.446782 7.6510225,8.548267 7.59375,8.65625 7.4927417,8.850956 7.3880752,9.071951 7.3125,9.28125 7.30454,9.30306 7.288911,9.3218 7.28125,9.34375 7.2494249,9.4357 7.2454455,9.530581 7.21875,9.625 7.1884177,9.731618 7.1483606,9.828031 7.125,9.9375 7.0521214,10.279012 7,10.635705 7,11 l 0,2 0,68 0,2 c 0,2.781848 2.2181517,5 5,5 l 2,0 68,0 2,0 c 2.781848,0 5,-2.218152 5,-5 l 0,-2 0,-68 0,-2 C 89,10.635705 88.94788,10.279012 88.875,9.9375 88.83085,9.730607 88.78662,9.539842 88.71875,9.34375 88.71105,9.3218 88.69545,9.30306 88.6875,9.28125 88.62476,9.107511 88.549117,8.913801 88.46875,8.75 88.42717,8.6672 88.38971,8.580046 88.34375,8.5 88.28915,8.40279 88.216976,8.31165 88.15625,8.21875 88.06214,8.077785 87.951329,7.942755 87.84375,7.8125 87.700576,7.63805 87.540609,7.465502 87.375,7.3125 87.36383,7.3023 87.35502,7.29135 87.34375,7.28125 87.205364,7.155694 87.058659,7.046814 86.90625,6.9375 86.803679,6.86435 86.701932,6.784136 86.59375,6.71875 c -0.0074,-0.0045 -0.02384,0.0044 -0.03125,0 -0.232039,-0.138728 -0.462548,-0.274778 -0.71875,-0.375 0.301527,0.0968 0.596455,0.204138 0.875,0.34375 0.55709,0.279224 1.060053,0.665694 1.5,1.09375 0.219973,0.214028 0.409366,0.441865 0.59375,0.6875 0.184384,0.245635 0.355408,0.507743 0.5,0.78125 0.14012,0.265048 0.276135,0.524729 0.375,0.8125 0.01041,0.03078 0.02133,0.06274 0.03125,0.09375 0.09046,0.278085 0.1388,0.579404 0.1875,0.875 C 89.95865,11.3493 90,11.665279 90,12 l 0,2 0,68 0,2 c 0,3.324 -2.676,6 -6,6 l -72,0 z"
       inkscape:connector-curvature="0"
       id="path3615"
       style="opacity:0.6;fill:url(#radialGradient3619);fill-opacity:1;fill-rule:nonzero;stroke:none" />
    <rect
       width="84"
       height="84"
       rx="6"
       ry="6"
       x="6"
       y="106"
       id="rect2841"
       style="fill:url(#linearGradient2843);fill-opacity:1;fill-rule:nonzero;stroke:none" />
    <rect
       width="76"
       height="76"
       rx="4"
       ry="4"
       x="10"
       y="110"
       id="rect3634"
       style="fill:#ff0000;fill-opacity:1;fill-rule:nonzero;stroke:none" />
    <path
       d="m 14,9 c -2.752703,0 -5,2.247297 -5,5 l 0,68 c 0,2.752703 2.247297,5 5,5 l 68,0 c 2.752703,0 5,-2.247297 5,-5 L 87,14 C 87,11.247297 84.752703,9 82,9 L 14,9 z m 0,2 68,0 c 1.679297,0 3,1.320703 3,3 l 0,68 c 0,1.679297 -1.320703,3 -3,3 l -68,0 c -1.679297,0 -3,-1.320703 -3,-3 l 0,-68 c 0,-1.679297 1.320703,-3 3,-3 z"
       inkscape:connector-curvature="0"
       transform="translate(-110,0)"
       clip-path="url(#clipPath3649)"
       id="rect3647"
       style="font-size:medium;font-style:normal;font-variant:normal;font-weight:normal;font-stretch:normal;text-indent:0;text-align:start;text-decoration:none;line-height:normal;letter-spacing:normal;word-spacing:normal;text-transform:none;direction:ltr;block-progression:tb;writing-mode:lr-tb;text-anchor:start;color:#000000;fill:#000000;fill-opacity:1;stroke:none;stroke-width:2;marker:none;visibility:visible;display:inline;overflow:visible;filter:url(#filter3657);enable-background:accumulate;font-family:Abandoned Bitplane;-inkscape-font-specification:Abandoned Bitplane" />
    <path
       d="m 14.089286,10 c -2.216,0 -4,1.784 -4,4 l 0,68 c 0,2.216 1.784,4 4,4 l 68,0 c 2.216,0 4,-1.784 4,-4 l 0,-68 c 0,-2.216 -1.784,-4 -4,-4 l -68,0 z m 0,2 68,0 c 1.140301,0 2,0.859699 2,2 l 0,68 c 0,1.140301 -0.859699,2 -2,2 l -68,0 c -1.140301,0 -2,-0.859699 -2,-2 l 0,-68 c 0,-1.140301 0.859699,-2 2,-2 z"
       inkscape:connector-curvature="0"
       id="path3709"
       style="opacity:0.16000001;fill:#000000;fill-opacity:1;fill-rule:nonzero;stroke:none" />
    <path
       d="m 14,10 c -2.216,0 -4,1.784 -4,4 l 0,68 c 0,2.216 1.784,4 4,4 l 68,0 c 2.216,0 4,-1.784 4,-4 l 0,-68 c 0,-2.216 -1.784,-4 -4,-4 l -68,0 z m 0,1 68,0 c 1.673848,0 3,1.326152 3,3 l 0,68 c 0,1.673848 -1.326152,3 -3,3 l -68,0 c -1.673848,0 -3,-1.326152 -3,-3 l 0,-68 c 0,-1.673848 1.326152,-3 3,-3 z"
       inkscape:connector-curvature="0"
       id="path3707"
       style="opacity:0.36000001;fill:#000000;fill-opacity:1;fill-rule:nonzero;stroke:none" />
  </g>
  <g
     id="layer5"
     style="display:none">
    <rect
       width="66"
       height="66"
       rx="12"
       ry="12"
       x="15"
       y="15"
       clip-path="url(#clipPath3613)"
       id="rect3171"
       style="opacity:0.1;fill:url(#linearGradient3613);fill-opacity:1;fill-rule:nonzero;stroke:#ffffff;stroke-width:0.5;stroke-linecap:round;stroke-linejoin:miter;stroke-miterlimit:4;stroke-opacity:1;stroke-dasharray:none;stroke-dashoffset:0;filter:url(#filter3794)" />
  </g>
  <path
     style="display:inline;opacity:0.1;fill:#000000;fill-opacity:1;stroke:none;stroke-width:1.5"
     id="path4096"
     inkscape:connector-curvature="0"
     d="m 39.60319,1.6857739 c -6.184875,-0.14643 -11.69795,5.2175745 -12,11.3437511 -3.626021,-1.269818 -7.572084,-0.484814 -11.355,-0.703125 -4.886235,-0.522398 -9.0672899,4.174047 -8.3793749,8.946307 0.124935,2.028359 -0.27804,4.172249 0.421875,6.100568 -3.812445,2.080243 -5.3449995,6.52869 -4.921875,10.656477 0.03354,7.081354 -0.06765,14.167021 0.051615,21.24564 0.4238895,5.721156 6.1738212,9.621036 11.6482179,8.926008 4.131308,0 8.262614,0 12.393921,0 0.0018,6.877216 6.606141,12.603939 13.399433,11.859375 2.080396,0 4.160794,0 6.241192,0 -1.75374,0.86253 -1.234156,3.51016 -3.70159,2.625 -3.16422,0.135825 -6.40482,-0.284292 -9.51716,0.234375 -2.654445,1.081798 -1.902541,4.305939 -1.921875,6.5625 0.433103,2.591779 3.312078,2.777494 5.406477,2.578125 2.650632,0.06283 5.552379,-0.125445 8.046648,0.09375 0.156134,2.499309 2.86662,3.232908 4.949829,2.90625 5.614553,-0.03153 11.238054,0.06288 16.847046,-0.04687 2.400479,0.12282 1.752705,-3.52443 3.836933,-2.953125 3.415716,-0.138135 6.908713,0.287539 10.272442,-0.234375 2.654445,-1.081799 1.902542,-4.305939 1.921875,-6.5625 -0.433102,-2.59178 -3.312078,-2.777495 -5.406477,-2.578125 -2.650632,-0.06284 -5.552379,0.125445 -8.046648,-0.09375 -0.471229,-2.133546 -2.684308,-2.913995 0.578352,-2.53125 4.636904,0.04464 9.85737,0.427363 13.417899,-3.175664 3.617117,-3.011812 4.278662,-7.867666 4.003749,-12.284734 C 87.748984,47.27814 87.874404,29.950574 87.727464,12.631683 87.211655,5.9808184 80.632906,0.92737985 74.092625,1.6857739 c -11.496478,0 -22.992955,0 -34.489432,0 z M 52.775065,17.060775 c 6.292293,0.05801 12.602946,-0.116565 18.883648,0.08826 1.416137,1.241593 0.490284,3.529894 0.756977,5.252419 0,13.657272 0,27.314546 0,40.971818 -0.481403,2.228977 -3.414138,0.989268 -5.088921,1.3125 -2.038068,0 -4.076136,0 -6.114204,0 3.630994,-3.949307 2.265006,-9.441561 2.53125,-14.273352 -0.113055,-5.528789 0.240609,-11.089875 -0.204786,-16.595943 0.31332,-3.706968 -5.265221,-4.872056 -4.248339,-7.943202 0.307963,-3.983198 -2.32424,-8.197595 -6.515625,-8.8125 z" />
  <path
     inkscape:connector-curvature="0"
     style="display:inline;opacity:0.15;fill:#000000;fill-opacity:1;stroke:none;stroke-width:1.5"
     id="path4092"
     d="m 39.60319,3.4201489 c -5.756033,0 -10.453125,4.6970925 -10.453125,10.4531261 A 1.4348899,1.4348899 0 0 0 30.60319,15.3264 h 40.5 c 1.722967,0 3.046875,1.323907 3.046875,3.046875 v 45 c 0,1.722967 -1.323908,3.046875 -3.046875,3.046875 H 54.087565 c 4.478761,-0.139935 7.826191,-3.962472 7.921875,-8.109375 a 1.4348899,1.4348899 0 0 0 0,-0.04687 v -22.5 c 0,-4.509533 -3.693593,-8.203125 -8.203125,-8.203125 h -4.5 -22.5 -13.5 c -4.5095324,0 -8.2031249,3.693592 -8.2031249,8.203125 v 22.5 c 0,4.509532 3.6935925,8.203125 8.2031249,8.203125 h 6.75 10.265625 a 1.4348899,1.4348899 0 0 0 -1.171875,1.40625 c 0,5.756032 4.697092,10.453125 10.453125,10.453125 h 12.046875 v 3.09375 H 48.60319 a 1.4348899,1.4348899 0 0 0 -1.453125,1.453125 v 1.546875 H 35.10319 a 1.4348899,1.4348899 0 0 0 -1.453125,1.453125 v 3 a 1.4348899,1.4348899 0 0 0 1.453125,1.453125 h 12.046875 v 1.546875 a 1.4348899,1.4348899 0 0 0 1.453125,1.453125 h 18 A 1.4348899,1.4348899 0 0 0 68.056315,91.87328 V 90.3264 H 80.10319 a 1.4348899,1.4348899 0 0 0 1.453125,-1.453125 v -3 A 1.4348899,1.4348899 0 0 0 80.10319,84.42015 H 68.056315 V 82.873275 A 1.4348899,1.4348899 0 0 0 66.60319,81.42015 H 63.556315 V 78.3264 H 75.60319 c 5.756032,0 10.453125,-4.697093 10.453125,-10.453125 v -54 c 0,-5.7560336 -4.697093,-10.4531261 -10.453125,-10.4531261 z M 15.556315,14.060775 c -3.263033,0 -5.9531247,2.690092 -5.9531247,5.953125 v 4.5 a 1.4348899,1.4348899 0 0 0 0.04687,0.140625 1.4348899,1.4348899 0 0 0 0,0.140625 v 1.078125 A 1.4348899,1.4348899 0 0 0 11.103185,27.3264 h 45 a 1.4348899,1.4348899 0 0 0 1.453125,-1.453125 v -1.5 a 1.4348899,1.4348899 0 0 0 -0.04687,-0.04687 c -9.9e-4,-0.03148 0.0015,-0.0624 0,-0.09375 A 1.4348899,1.4348899 0 0 0 57.41569,23.81078 1.4348899,1.4348899 0 0 0 57.36882,23.670155 C 56.944284,20.812727 54.524869,18.56078 51.55632,18.56078 H 30.22819 c -0.666624,-2.547158 -2.923869,-4.5 -5.671875,-4.5 z" />
  <path
     style="display:inline;opacity:0.3;fill:#000000;fill-opacity:1;stroke:none;stroke-width:1.5"
     id="path4086"
     inkscape:connector-curvature="0"
     d="m 39.60319,4.8732739 c -4.986,0 -9,4.0140005 -9,9.0000011 h 40.5 c 2.493,0 4.5,2.007 4.5,4.5 v 45 c 0,2.493 -2.007,4.5 -4.5,4.5 h -40.5 c 0,4.986 4.014,9 9,9 h 13.5 v 6 h -4.5 v 3 h -13.5 v 3 h 13.5 v 3 h 18 v -3 h 13.5 v -3 h -13.5 v -3 h -4.5 v -6 h 13.5 c 4.986,0 9,-4.014 9,-9 v -54 c 0,-4.9860006 -4.014,-9.0000011 -9,-9.0000011 z M 15.556315,15.5139 c -2.493,0 -4.5,2.007 -4.5,4.5 v 4.5 h 0.04687 v 1.359375 h 45 v -1.5 h -0.04687 c -0.07626,-2.425164 -2.055665,-4.359375 -4.5,-4.359375 h -22.5 c 0,-2.493 -2.007,-4.5 -4.5,-4.5 z m -2.25,13.5 c -3.7394999,0 -6.7499999,3.0105 -6.7499999,6.75 v 22.5 c 0,3.7395 3.0105,6.75 6.7499999,6.75 h 6.75 33.796875 c 3.77029,0 6.623376,-3.293702 6.703125,-6.75 v -22.5 c 0,-3.7395 -3.0105,-6.75 -6.75,-6.75 h -4.5 -22.5 z" />
  <rect
     style="color:#000000;display:inline;overflow:visible;visibility:visible;fill:url(#linearGradient3905);fill-opacity:1;fill-rule:nonzero;stroke:none;stroke-width:2;marker:none;enable-background:accumulate"
     id="rect3897"
     transform="matrix(0,1,1,0,0,0)"
     y="104"
     x="0"
     height="16"
     width="16" />
  <text
     style="font-style:normal;font-variant:normal;font-weight:normal;font-stretch:normal;font-size:4px;line-height:125%;font-family:'Liberation Sans';-inkscape-font-specification:'Liberation Sans';text-align:start;letter-spacing:0px;word-spacing:0px;writing-mode:lr-tb;text-anchor:start;fill:#000000;fill-opacity:1;stroke:none"
     xml:space="preserve"
     id="text3907"
     y="48"
     x="104"><tspan
       id="tspan3909"
       y="48"
       x="104">Shadow opacity : 30, 15, 10, (8)</tspan></text>
  <rect
     style="color:#000000;display:inline;overflow:visible;visibility:visible;fill:url(#linearGradient3913);fill-opacity:1;fill-rule:nonzero;stroke:none;stroke-width:2;marker:none;enable-background:accumulate"
     id="rect3911"
     transform="rotate(-90)"
     y="104"
     x="-40"
     height="16"
     width="16" />
  <text
     style="font-style:normal;font-variant:normal;font-weight:normal;font-stretch:normal;font-size:4px;line-height:125%;font-family:'Liberation Sans';-inkscape-font-specification:'Liberation Sans';text-align:start;letter-spacing:0px;word-spacing:0px;writing-mode:lr-tb;text-anchor:start;fill:#000000;fill-opacity:1;stroke:none"
     xml:space="preserve"
     id="text3951"
     y="32"
     x="124"><tspan
       id="tspan3953"
       y="32"
       x="124">Bevel opacity : 30 / 10</tspan></text>
  <text
     style="font-style:normal;font-variant:normal;font-weight:normal;font-stretch:normal;font-size:4px;line-height:125%;font-family:'Liberation Sans';-inkscape-font-specification:'Liberation Sans';text-align:start;letter-spacing:0px;word-spacing:0px;writing-mode:lr-tb;text-anchor:start;fill:#000000;fill-opacity:1;stroke:none"
     xml:space="preserve"
     id="text3955"
     y="8"
     x="124"><tspan
       id="tspan3957"
       y="8"
       x="124">Bevel opacity : 75 / 15</tspan></text>
  <path
     style="display:inline;fill:url(#linearGradient4065);fill-opacity:1;stroke:none;stroke-width:1.5"
     id="path4053"
     inkscape:connector-curvature="0"
     d="m 39.60319,3.3732739 c -4.986,0 -9,4.014 -9,9.0000011 h 40.5 c 2.493,0 4.5,2.007 4.5,4.5 v 45 c 0,2.493 -2.007,4.5 -4.5,4.5 h -40.5 c 0,4.986 4.014,9 9,9 h 13.5 v 6 h -4.5 v 3 h -13.5 v 3 h 13.5 v 3 h 18 v -3 h 13.5 v -3 h -13.5 v -3 h -4.5 v -6 h 13.5 c 4.986,0 9,-4.014 9,-9 v -54 c 0,-4.9860011 -4.014,-9.0000011 -9,-9.0000011 z M 15.556315,14.0139 c -2.493,0 -4.5,2.007 -4.5,4.5 v 4.5 h 0.04687 v 1.359375 h 45 v -1.5 h -0.04687 c -0.07626,-2.425164 -2.055665,-4.359375 -4.5,-4.359375 h -22.5 c 0,-2.493 -2.007,-4.5 -4.5,-4.5 z m -2.25,13.5 c -3.7394999,0 -6.7499999,3.0105 -6.7499999,6.75 v 22.5 c 0,3.7395 3.0105,6.75 6.7499999,6.75 h 6.75 33.796875 c 3.77029,0 6.623376,-3.293702 6.703125,-6.75 v -22.5 c 0,-3.7395 -3.0105,-6.75 -6.75,-6.75 h -4.5 -22.5 z" />
  <path
     style="display:inline;opacity:0.75;fill:#ffffff;fill-opacity:1;stroke:none;stroke-width:1.5"
     id="path4068"
     inkscape:connector-curvature="0"
     d="m 39.60319,3.3732739 c -4.986,0 -9,4.014 -9,9.0000011 h 0.140625 c 0.70707,-4.2707546 4.382082,-7.5000011 8.859375,-7.5000011 h 36 c 4.986,0 9,4.0140005 9,9.0000011 v -1.5 c 0,-4.9860011 -4.014,-9.0000011 -9,-9.0000011 z M 15.556315,14.0139 c -2.493,0 -4.5,2.007 -4.5,4.5 v 1.5 c 0,-2.493 2.007,-4.5 4.5,-4.5 h 9 c 2.493,0 4.5,2.007 4.5,4.5 h 22.5 c 2.444335,0 4.42374,1.934211 4.5,4.359375 h 0.04687 v -1.5 h -0.04687 c -0.07626,-2.425164 -2.055665,-4.359375 -4.5,-4.359375 h -22.5 c 0,-2.493 -2.007,-4.5 -4.5,-4.5 z m -2.25,13.5 c -3.7394999,0 -6.7499999,3.0105 -6.7499999,6.75 v 1.5 c 0,-3.7395 3.0105,-6.75 6.7499999,-6.75 h 13.5 22.5 4.5 c 3.7395,0 6.75,3.0105 6.75,6.75 v -1.5 c 0,-3.7395 -3.0105,-6.75 -6.75,-6.75 h -4.5 -22.5 z M 75.60319,61.873275 c 0,2.493 -2.007,4.5 -4.5,4.5 h -40.5 c 0,0.508707 0.06029,1.01476 0.140625,1.5 H 71.10319 c 2.493,0 4.5,-2.007 4.5,-4.5 z m -27,19.5 v 1.5 h 4.5 v -1.5 z m 13.5,0 v 1.5 h 4.5 v -1.5 z m -27,3 v 1.5 h 13.5 v -1.5 z m 31.5,0 v 1.5 h 13.5 v -1.5 z" />
  <path
     style="display:inline;opacity:0.15;fill:#000000;fill-opacity:1;stroke:none;stroke-width:1.5"
     id="path4077"
     inkscape:connector-curvature="0"
     d="m 30.743815,10.873275 c -0.08034,0.485239 -0.140625,0.991293 -0.140625,1.5 h 40.5 c 2.493,0 4.5,2.007 4.5,4.5 v -1.5 c 0,-2.493 -2.007,-4.5 -4.5,-4.5 z M 11.056315,21.5139 v 1.5 h 0.04687 v 1.359375 h 45 v -1.5 H 56.056315 11.10319 V 21.5139 Z m -4.4999999,33.75 v 1.5 c 0,3.7395 3.0105,6.75 6.7499999,6.75 h 6.75 33.796875 c 3.77029,0 6.623376,-3.293702 6.703125,-6.75 v -1.5 c -0.07976,3.456298 -2.932835,6.75 -6.703125,6.75 h -33.796875 -6.75 c -3.7394999,0 -6.7499999,-3.0105 -6.7499999,-6.75 z M 84.60319,64.873275 c 0,4.986 -4.014,9 -9,9 h -13.5 v 1.5 h 13.5 c 4.986,0 9,-4.014 9,-9 z m -54,1.5 c 0,4.986 4.014,9 9,9 h 13.5 v -1.5 h -13.5 c -4.477293,0 -8.152305,-3.229247 -8.859375,-7.5 z m 4.5,19.5 v 1.5 h 13.5 v -1.5 z m 31.5,0 v 1.5 h 13.5 v -1.5 z m -18,3 v 1.5 h 18 v -1.5 z" />
</svg>
