<?xml version="1.0" encoding="UTF-8" standalone="no"?>
<!-- Created with Inkscape (http://www.inkscape.org/) -->

<svg
   xmlns:dc="http://purl.org/dc/elements/1.1/"
   xmlns:cc="http://creativecommons.org/ns#"
   xmlns:rdf="http://www.w3.org/1999/02/22-rdf-syntax-ns#"
   xmlns:svg="http://www.w3.org/2000/svg"
   xmlns="http://www.w3.org/2000/svg"
   xmlns:xlink="http://www.w3.org/1999/xlink"
   xmlns:sodipodi="http://sodipodi.sourceforge.net/DTD/sodipodi-0.dtd"
   xmlns:inkscape="http://www.inkscape.org/namespaces/inkscape"
   version="1.0"
   width="96"
   height="96"
   id="svg2408"
   sodipodi:docname="call-start.svg"
   inkscape:version="0.92.2 2405546, 2018-03-11">
  <sodipodi:namedview
     pagecolor="#ffffff"
     bordercolor="#666666"
     borderopacity="1"
     objecttolerance="10"
     gridtolerance="10"
     guidetolerance="10"
     inkscape:pageopacity="0"
     inkscape:pageshadow="2"
     inkscape:window-width="750"
     inkscape:window-height="480"
     id="namedview465"
     showgrid="false"
     inkscape:zoom="2.4583333"
     inkscape:cx="48"
     inkscape:cy="48"
     inkscape:window-x="52"
     inkscape:window-y="0"
     inkscape:window-maximized="0"
     inkscape:current-layer="svg2408" />
  <defs
     id="defs2410">
    <linearGradient
       id="linearGradient3637">
      <stop
         id="stop3639"
         style="stop-color:#f0f0f0;stop-opacity:1"
         offset="0" />
      <stop
         id="stop3641"
         style="stop-color:#aaaaaa;stop-opacity:1"
         offset="1" />
    </linearGradient>
    <linearGradient
       x1="45.447727"
       y1="92.539597"
       x2="45.447727"
       y2="7.0165396"
       id="ButtonShadow"
       gradientUnits="userSpaceOnUse"
       gradientTransform="scale(1.0058652,0.994169)">
      <stop
         id="stop3750"
         style="stop-color:#000000;stop-opacity:1"
         offset="0" />
      <stop
         id="stop3752"
         style="stop-color:#000000;stop-opacity:0.58823532"
         offset="1" />
    </linearGradient>
    <linearGradient
       id="linearGradient3737">
      <stop
         id="stop3739"
         style="stop-color:#ffffff;stop-opacity:1"
         offset="0" />
      <stop
         id="stop3741"
         style="stop-color:#ffffff;stop-opacity:0"
         offset="1" />
    </linearGradient>
    <linearGradient
       id="linearGradient3700">
      <stop
         id="stop3702"
         style="stop-color:#2276c5;stop-opacity:1"
         offset="0" />
      <stop
         id="stop3704"
         style="stop-color:#68baf4;stop-opacity:1"
         offset="1" />
    </linearGradient>
    <filter
       color-interpolation-filters="sRGB"
       id="filter3174">
      <feGaussianBlur
         id="feGaussianBlur3176"
         stdDeviation="1.71" />
    </filter>
    <linearGradient
       x1="36.357143"
       y1="6"
       x2="36.357143"
       y2="63.893143"
       id="linearGradient3188"
       xlink:href="#linearGradient3737"
       gradientUnits="userSpaceOnUse" />
    <filter
       x="-0.192"
       y="-0.192"
       width="1.3839999"
       height="1.3839999"
       color-interpolation-filters="sRGB"
       id="filter3794">
      <feGaussianBlur
         id="feGaussianBlur3796"
         stdDeviation="5.28" />
    </filter>
    <linearGradient
       x1="48"
       y1="20.220806"
       x2="48"
       y2="138.66119"
       id="linearGradient3613"
       xlink:href="#linearGradient3737"
       gradientUnits="userSpaceOnUse" />
    <radialGradient
       cx="48"
       cy="90.171875"
       r="42"
       fx="48"
       fy="90.171875"
       id="radialGradient3619"
       xlink:href="#linearGradient3737"
       gradientUnits="userSpaceOnUse"
       gradientTransform="matrix(1.1573129,0,0,0.99590774,-7.5510206,0.19713193)" />
    <clipPath
       id="clipPath3613">
      <rect
         width="84"
         height="84"
         rx="6"
         ry="6"
         x="6"
         y="6"
         id="rect3615"
         style="fill:#ffffff;fill-opacity:1;fill-rule:nonzero;stroke:none" />
    </clipPath>
    <linearGradient
       x1="48"
       y1="90"
       x2="48"
       y2="5.9877172"
       id="linearGradient2843"
       xlink:href="#linearGradient3700"
       gradientUnits="userSpaceOnUse"
       gradientTransform="translate(0,100)" />
    <clipPath
       id="clipPath3625">
      <path
         d="M 0,0 0,96 96,96 96,0 0,0 z m 12,6 72,0 c 3.324,0 6,2.676 6,6 l 0,72 c 0,3.324 -2.676,6 -6,6 L 12,90 C 8.676,90 6,87.324 6,84 L 6,12 C 6,8.676 8.676,6 12,6 z"
         inkscape:connector-curvature="0"
         id="path3627"
         style="fill:#ffffff;fill-opacity:1;stroke:none" />
    </clipPath>
    <linearGradient
       x1="44.512066"
       y1="6"
       x2="44.512066"
       y2="90.015434"
       id="linearGradient3643"
       xlink:href="#linearGradient3637"
       gradientUnits="userSpaceOnUse" />
    <clipPath
       id="clipPath3649">
      <rect
         width="76"
         height="76"
         rx="4"
         ry="4"
         x="10"
         y="10"
         id="rect3651"
         style="fill:#ffffff;fill-opacity:1;fill-rule:nonzero;stroke:none" />
    </clipPath>
    <filter
       color-interpolation-filters="sRGB"
       id="filter3657">
      <feGaussianBlur
         id="feGaussianBlur3659"
         stdDeviation="1.14" />
    </filter>
    <linearGradient
       x1="45.447727"
       y1="92.539597"
       x2="45.447727"
       y2="7.0165396"
       id="ButtonShadow-0"
       gradientUnits="userSpaceOnUse"
       gradientTransform="matrix(1.0058652,0,0,0.994169,100,0)">
      <stop
         id="stop3750-8"
         style="stop-color:#000000;stop-opacity:1"
         offset="0" />
      <stop
         id="stop3752-5"
         style="stop-color:#000000;stop-opacity:0.58823532"
         offset="1" />
    </linearGradient>
    <linearGradient
       x1="32.251034"
       y1="6.1317081"
       x2="32.251034"
       y2="90.238609"
       id="linearGradient3780"
       xlink:href="#ButtonShadow-0"
       gradientUnits="userSpaceOnUse"
       gradientTransform="matrix(1.0238095,0,0,-1.0119048,-1.1428571,98.071429)" />
    <linearGradient
       x1="32.251034"
       y1="6.1317081"
       x2="32.251034"
       y2="90.238609"
       id="linearGradient3772"
       xlink:href="#ButtonShadow-0"
       gradientUnits="userSpaceOnUse"
       gradientTransform="matrix(1.0238095,0,0,-1.0119048,-1.1428571,98.071429)" />
    <linearGradient
       x1="32.251034"
       y1="6.1317081"
       x2="32.251034"
       y2="90.238609"
       id="linearGradient3725"
       xlink:href="#ButtonShadow-0"
       gradientUnits="userSpaceOnUse"
       gradientTransform="matrix(1.0238095,0,0,-1.0119048,-1.1428571,98.071429)" />
    <linearGradient
       x1="32.251034"
       y1="6.1317081"
       x2="32.251034"
       y2="90.238609"
       id="linearGradient3721"
       xlink:href="#ButtonShadow-0"
       gradientUnits="userSpaceOnUse"
       gradientTransform="matrix(1,0,0,-1,0,97)" />
    <linearGradient
       x1="32.251034"
       y1="6.1317081"
       x2="32.251034"
       y2="90.238609"
       id="linearGradient3199"
       xlink:href="#ButtonShadow-0"
       gradientUnits="userSpaceOnUse"
       gradientTransform="matrix(1.0238095,0,0,-1.0119048,-1.1428571,98.071429)" />
    <linearGradient
       x1="36.357143"
       y1="6"
       x2="36.357143"
       y2="63.893143"
       id="linearGradient3188-8"
       xlink:href="#linearGradient3737-3"
       gradientUnits="userSpaceOnUse" />
    <linearGradient
       id="linearGradient3737-3">
      <stop
         id="stop3739-6"
         style="stop-color:#ffffff;stop-opacity:1"
         offset="0" />
      <stop
         id="stop3741-1"
         style="stop-color:#ffffff;stop-opacity:0"
         offset="1" />
    </linearGradient>
    <radialGradient
       cx="48"
       cy="90.171875"
       r="42"
       fx="48"
       fy="90.171875"
       id="radialGradient3619-3"
       xlink:href="#linearGradient3737-3"
       gradientUnits="userSpaceOnUse"
       gradientTransform="matrix(1.1573129,0,0,0.99590774,-7.551021,0.1971319)" />
    <linearGradient
       x1="104"
       y1="8"
       x2="120"
       y2="8"
       id="linearGradient3905"
       xlink:href="#linearGradient3637"
       gradientUnits="userSpaceOnUse"
       gradientTransform="translate(-104,104)" />
    <linearGradient
       x1="104"
       y1="8"
       x2="120"
       y2="8"
       id="linearGradient3913"
       xlink:href="#linearGradient3183-0"
       gradientUnits="userSpaceOnUse"
       gradientTransform="translate(-144,104)" />
    <linearGradient
       id="linearGradient3183-0">
      <stop
         id="stop3185-9"
         style="stop-color:#c80000;stop-opacity:1"
         offset="0" />
      <stop
         id="stop3187-6"
         style="stop-color:#f3604d;stop-opacity:1"
         offset="1" />
    </linearGradient>
    <linearGradient
       x1="652.021"
       y1="347.86285"
       x2="627.67029"
       y2="349.2926"
       id="linearGradient7313"
       xlink:href="#linearGradient3637"
       gradientUnits="userSpaceOnUse"
       gradientTransform="matrix(0.17379997,-2.9277549,2.9600408,0.1718094,-1090.6664,1860.7296)" />
  </defs>
  <metadata
     id="metadata2413">
    <rdf:RDF>
      <cc:Work
         rdf:about="">
        <dc:format>image/svg+xml</dc:format>
        <dc:type
           rdf:resource="http://purl.org/dc/dcmitype/StillImage" />
        <dc:title />
      </cc:Work>
    </rdf:RDF>
  </metadata>
  <g
     id="layer2"
     style="display:none">
    <rect
       width="86"
       height="85"
       rx="6"
       ry="6"
       x="5"
       y="7"
       clip-path="url(#clipPath3625)"
       id="rect3745"
       style="opacity:0.9;fill:url(#ButtonShadow);fill-opacity:1;fill-rule:nonzero;stroke:none;filter:url(#filter3174)" />
  </g>
  <g
     id="layer1"
     style="display:none">
    <rect
       width="84"
       height="84"
       rx="6"
       ry="6"
       x="6"
       y="6"
       id="rect2419"
       style="opacity:0.8;fill:#000000;fill-opacity:1;fill-rule:nonzero;stroke:none" />
    <path
       d="m 14,10 c -2.216,0 -4,1.784 -4,4 l 0,68 c 0,2.216 1.784,4 4,4 l 68,0 c 2.216,0 4,-1.784 4,-4 l 0,-68 c 0,-2.216 -1.784,-4 -4,-4 l -68,0 z m 0,3.0625 68,0 c 0.578769,0 0.9375,0.358731 0.9375,0.9375 l 0,68 c 0,0.578769 -0.358731,0.9375 -0.9375,0.9375 l -68,0 c -0.578769,0 -0.9375,-0.358731 -0.9375,-0.9375 l 0,-68 c 0,-0.578769 0.358731,-0.9375 0.9375,-0.9375 z"
       inkscape:connector-curvature="0"
       id="rect3726"
       style="opacity:0.07999998;fill:#000000;fill-opacity:1;fill-rule:nonzero;stroke:none" />
    <path
       d="M 12,6 C 8.676,6 6,8.676 6,12 l 0,72 c 0,3.324 2.676,6 6,6 l 72,0 c 3.324,0 6,-2.676 6,-6 L 90,12 C 90,8.676 87.324,6 84,6 L 12,6 z m 2,4 68,0 c 2.216,0 4,1.784 4,4 l 0,68 c 0,2.216 -1.784,4 -4,4 l -68,0 c -2.216,0 -4,-1.784 -4,-4 l 0,-68 c 0,-2.216 1.784,-4 4,-4 z"
       inkscape:connector-curvature="0"
       id="rect3629"
       style="fill:url(#linearGradient3643);fill-opacity:1;fill-rule:nonzero;stroke:none" />
    <path
       d="M 12,6 C 8.676,6 6,8.676 6,12 l 0,2 0,68 0,2 c 0,0.334721 0.04135,0.6507 0.09375,0.96875 0.0487,0.295596 0.09704,0.596915 0.1875,0.875 0.00988,0.03038 0.020892,0.0636 0.03125,0.09375 0.098865,0.287771 0.2348802,0.547452 0.375,0.8125 0.1445918,0.273507 0.3156161,0.535615 0.5,0.78125 0.1843839,0.245635 0.3737765,0.473472 0.59375,0.6875 0.439947,0.428056 0.94291,0.814526 1.5,1.09375 0.278545,0.139612 0.5734731,0.246947 0.875,0.34375 -0.2562018,-0.100222 -0.4867109,-0.236272 -0.71875,-0.375 -0.00741,-0.0044 -0.023866,0.0045 -0.03125,0 -0.031933,-0.0193 -0.062293,-0.04251 -0.09375,-0.0625 -0.120395,-0.0767 -0.2310226,-0.163513 -0.34375,-0.25 -0.1061728,-0.0808 -0.2132809,-0.161112 -0.3125,-0.25 C 8.4783201,88.557317 8.3087904,88.373362 8.15625,88.1875 8.0486711,88.057245 7.9378561,87.922215 7.84375,87.78125 7.818661,87.74287 7.805304,87.69538 7.78125,87.65625 7.716487,87.553218 7.6510225,87.451733 7.59375,87.34375 7.4927417,87.149044 7.3880752,86.928049 7.3125,86.71875 7.30454,86.69694 7.288911,86.6782 7.28125,86.65625 7.2494249,86.5643 7.2454455,86.469419 7.21875,86.375 7.1884177,86.268382 7.1483606,86.171969 7.125,86.0625 7.0521214,85.720988 7,85.364295 7,85 L 7,83 7,15 7,13 C 7,10.218152 9.2181517,8 12,8 l 2,0 68,0 2,0 c 2.781848,0 5,2.218152 5,5 l 0,2 0,68 0,2 c 0,0.364295 -0.05212,0.720988 -0.125,1.0625 -0.04415,0.206893 -0.08838,0.397658 -0.15625,0.59375 -0.0077,0.02195 -0.0233,0.04069 -0.03125,0.0625 -0.06274,0.173739 -0.138383,0.367449 -0.21875,0.53125 -0.04158,0.0828 -0.07904,0.169954 -0.125,0.25 -0.0546,0.09721 -0.126774,0.18835 -0.1875,0.28125 -0.09411,0.140965 -0.204921,0.275995 -0.3125,0.40625 -0.143174,0.17445 -0.303141,0.346998 -0.46875,0.5 -0.01117,0.0102 -0.01998,0.02115 -0.03125,0.03125 -0.138386,0.125556 -0.285091,0.234436 -0.4375,0.34375 -0.102571,0.07315 -0.204318,0.153364 -0.3125,0.21875 -0.0074,0.0045 -0.02384,-0.0044 -0.03125,0 -0.232039,0.138728 -0.462548,0.274778 -0.71875,0.375 0.301527,-0.0968 0.596455,-0.204138 0.875,-0.34375 0.55709,-0.279224 1.060053,-0.665694 1.5,-1.09375 0.219973,-0.214028 0.409366,-0.441865 0.59375,-0.6875 0.184384,-0.245635 0.355408,-0.507743 0.5,-0.78125 0.14012,-0.265048 0.276135,-0.524729 0.375,-0.8125 0.01041,-0.03078 0.02133,-0.06274 0.03125,-0.09375 0.09046,-0.278085 0.1388,-0.579404 0.1875,-0.875 C 89.95865,84.6507 90,84.334721 90,84 l 0,-2 0,-68 0,-2 C 90,8.676 87.324,6 84,6 L 12,6 z"
       inkscape:connector-curvature="0"
       id="rect3728"
       style="fill:url(#linearGradient3188);fill-opacity:1;fill-rule:nonzero;stroke:none" />
    <path
       d="M 12,90 C 8.676,90 6,87.324 6,84 L 6,82 6,14 6,12 c 0,-0.334721 0.04135,-0.6507 0.09375,-0.96875 0.0487,-0.295596 0.09704,-0.596915 0.1875,-0.875 C 6.29113,10.12587 6.302142,10.09265 6.3125,10.0625 6.411365,9.774729 6.5473802,9.515048 6.6875,9.25 6.8320918,8.976493 7.0031161,8.714385 7.1875,8.46875 7.3718839,8.223115 7.5612765,7.995278 7.78125,7.78125 8.221197,7.353194 8.72416,6.966724 9.28125,6.6875 9.559795,6.547888 9.8547231,6.440553 10.15625,6.34375 9.9000482,6.443972 9.6695391,6.580022 9.4375,6.71875 c -0.00741,0.0044 -0.023866,-0.0045 -0.03125,0 -0.031933,0.0193 -0.062293,0.04251 -0.09375,0.0625 -0.120395,0.0767 -0.2310226,0.163513 -0.34375,0.25 -0.1061728,0.0808 -0.2132809,0.161112 -0.3125,0.25 C 8.4783201,7.442683 8.3087904,7.626638 8.15625,7.8125 8.0486711,7.942755 7.9378561,8.077785 7.84375,8.21875 7.818661,8.25713 7.805304,8.30462 7.78125,8.34375 7.716487,8.446782 7.6510225,8.548267 7.59375,8.65625 7.4927417,8.850956 7.3880752,9.071951 7.3125,9.28125 7.30454,9.30306 7.288911,9.3218 7.28125,9.34375 7.2494249,9.4357 7.2454455,9.530581 7.21875,9.625 7.1884177,9.731618 7.1483606,9.828031 7.125,9.9375 7.0521214,10.279012 7,10.635705 7,11 l 0,2 0,68 0,2 c 0,2.781848 2.2181517,5 5,5 l 2,0 68,0 2,0 c 2.781848,0 5,-2.218152 5,-5 l 0,-2 0,-68 0,-2 C 89,10.635705 88.94788,10.279012 88.875,9.9375 88.83085,9.730607 88.78662,9.539842 88.71875,9.34375 88.71105,9.3218 88.69545,9.30306 88.6875,9.28125 88.62476,9.107511 88.549117,8.913801 88.46875,8.75 88.42717,8.6672 88.38971,8.580046 88.34375,8.5 88.28915,8.40279 88.216976,8.31165 88.15625,8.21875 88.06214,8.077785 87.951329,7.942755 87.84375,7.8125 87.700576,7.63805 87.540609,7.465502 87.375,7.3125 87.36383,7.3023 87.35502,7.29135 87.34375,7.28125 87.205364,7.155694 87.058659,7.046814 86.90625,6.9375 86.803679,6.86435 86.701932,6.784136 86.59375,6.71875 c -0.0074,-0.0045 -0.02384,0.0044 -0.03125,0 -0.232039,-0.138728 -0.462548,-0.274778 -0.71875,-0.375 0.301527,0.0968 0.596455,0.204138 0.875,0.34375 0.55709,0.279224 1.060053,0.665694 1.5,1.09375 0.219973,0.214028 0.409366,0.441865 0.59375,0.6875 0.184384,0.245635 0.355408,0.507743 0.5,0.78125 0.14012,0.265048 0.276135,0.524729 0.375,0.8125 0.01041,0.03078 0.02133,0.06274 0.03125,0.09375 0.09046,0.278085 0.1388,0.579404 0.1875,0.875 C 89.95865,11.3493 90,11.665279 90,12 l 0,2 0,68 0,2 c 0,3.324 -2.676,6 -6,6 l -72,0 z"
       inkscape:connector-curvature="0"
       id="path3615"
       style="opacity:0.6;fill:url(#radialGradient3619);fill-opacity:1;fill-rule:nonzero;stroke:none" />
    <rect
       width="84"
       height="84"
       rx="6"
       ry="6"
       x="6"
       y="106"
       id="rect2841"
       style="fill:url(#linearGradient2843);fill-opacity:1;fill-rule:nonzero;stroke:none" />
    <rect
       width="76"
       height="76"
       rx="4"
       ry="4"
       x="10"
       y="110"
       id="rect3634"
       style="fill:#ff0000;fill-opacity:1;fill-rule:nonzero;stroke:none" />
    <path
       d="m 14,9 c -2.752703,0 -5,2.247297 -5,5 l 0,68 c 0,2.752703 2.247297,5 5,5 l 68,0 c 2.752703,0 5,-2.247297 5,-5 L 87,14 C 87,11.247297 84.752703,9 82,9 L 14,9 z m 0,2 68,0 c 1.679297,0 3,1.320703 3,3 l 0,68 c 0,1.679297 -1.320703,3 -3,3 l -68,0 c -1.679297,0 -3,-1.320703 -3,-3 l 0,-68 c 0,-1.679297 1.320703,-3 3,-3 z"
       inkscape:connector-curvature="0"
       transform="translate(-110,0)"
       clip-path="url(#clipPath3649)"
       id="rect3647"
       style="font-size:medium;font-style:normal;font-variant:normal;font-weight:normal;font-stretch:normal;text-indent:0;text-align:start;text-decoration:none;line-height:normal;letter-spacing:normal;word-spacing:normal;text-transform:none;direction:ltr;block-progression:tb;writing-mode:lr-tb;text-anchor:start;color:#000000;fill:#000000;fill-opacity:1;stroke:none;stroke-width:2;marker:none;visibility:visible;display:inline;overflow:visible;filter:url(#filter3657);enable-background:accumulate;font-family:Abandoned Bitplane;-inkscape-font-specification:Abandoned Bitplane" />
    <path
       d="m 14.089286,10 c -2.216,0 -4,1.784 -4,4 l 0,68 c 0,2.216 1.784,4 4,4 l 68,0 c 2.216,0 4,-1.784 4,-4 l 0,-68 c 0,-2.216 -1.784,-4 -4,-4 l -68,0 z m 0,2 68,0 c 1.140301,0 2,0.859699 2,2 l 0,68 c 0,1.140301 -0.859699,2 -2,2 l -68,0 c -1.140301,0 -2,-0.859699 -2,-2 l 0,-68 c 0,-1.140301 0.859699,-2 2,-2 z"
       inkscape:connector-curvature="0"
       id="path3709"
       style="opacity:0.16000001;fill:#000000;fill-opacity:1;fill-rule:nonzero;stroke:none" />
    <path
       d="m 14,10 c -2.216,0 -4,1.784 -4,4 l 0,68 c 0,2.216 1.784,4 4,4 l 68,0 c 2.216,0 4,-1.784 4,-4 l 0,-68 c 0,-2.216 -1.784,-4 -4,-4 l -68,0 z m 0,1 68,0 c 1.673848,0 3,1.326152 3,3 l 0,68 c 0,1.673848 -1.326152,3 -3,3 l -68,0 c -1.673848,0 -3,-1.326152 -3,-3 l 0,-68 c 0,-1.673848 1.326152,-3 3,-3 z"
       inkscape:connector-curvature="0"
       id="path3707"
       style="opacity:0.36000001;fill:#000000;fill-opacity:1;fill-rule:nonzero;stroke:none" />
  </g>
  <g
     id="layer5"
     style="display:none">
    <rect
       width="66"
       height="66"
       rx="12"
       ry="12"
       x="15"
       y="15"
       clip-path="url(#clipPath3613)"
       id="rect3171"
       style="opacity:0.1;fill:url(#linearGradient3613);fill-opacity:1;fill-rule:nonzero;stroke:#ffffff;stroke-width:0.5;stroke-linecap:round;stroke-linejoin:miter;stroke-miterlimit:4;stroke-opacity:1;stroke-dasharray:none;stroke-dashoffset:0;filter:url(#filter3794)" />
  </g>
  <path
     inkscape:connector-curvature="0"
     style="display:inline;opacity:0.1;fill:#000000;fill-opacity:1;stroke-width:1.5"
     id="path3896"
     d="m 69.271841,10.007839 c -0.471795,-0.015585 -0.939163,0.03423 -1.40625,0.09375 -0.394437,0.05026 -1.230895,0.166432 -1.96875,0.703125 -0.446859,0.325036 -0.738966,0.710425 -0.84375,0.84375 -0.189355,0.240933 -0.342513,0.491734 -0.515625,0.75 -0.350767,0.523312 -0.770001,1.18932 -1.125,1.828125 -0.611464,1.099957 -2.479539,4.480113 -4.21875,7.546875 -1.859686,3.279178 -2.820297,4.943524 -3.375,6.234375 -0.260469,0.606138 -0.577818,1.340494 -0.5625,2.25 0.01525,0.905739 0.341303,1.556053 0.46875,1.828125 0.339479,0.724585 0.790166,1.279834 1.21875,1.78125 0.469268,0.549012 1.036968,1.07877 1.640625,1.6875 1.235277,1.24566 2.742045,2.624935 4.21875,3.84375 0.987393,0.815005 1.397012,1.298266 1.5,1.40625 -0.05035,0.1386 -0.08307,0.295773 -0.140625,0.421875 -0.253768,0.556063 -0.597598,1.280083 -1.03125,2.0625 -0.887154,1.600651 -2.103462,3.535614 -3.234375,5.15625 -4.360753,6.249241 -9.799236,11.06467 -16.875,14.90625 -0.865812,0.470007 -1.497204,0.783576 -1.875,0.9375 -0.145305,0.0592 0.03276,0.03654 -0.04687,0.04687 -0.247273,-0.19554 -0.642039,-0.578766 -1.265625,-1.21875 -1.338955,-1.374192 -2.848726,-2.611188 -4.21875,-3.5625 -1.286706,-0.893459 -2.55049,-1.816883 -4.359375,-1.921875 -0.544207,-0.03159 -1.058839,0.0795 -1.125,0.09375 -0.214486,0.04622 -0.375279,0.07769 -0.609375,0.140625 -0.481092,0.12936 -1.121782,0.346639 -1.828125,0.5625 -1.419264,0.433731 -3.202987,1.022653 -5.0625,1.640625 -3.740446,1.243062 -7.616232,2.584993 -9.46875,3.375 -1.231545,0.525298 -2.724549,1.399114 -3.4218749,3.09375 -0.6063735,1.473604 -0.6561135,2.901457 -0.703125,4.921875 -0.036675,1.575939 -0.025695,2.615878 0.09375,3.609375 0.13056,1.085976 0.5087145,1.930884 0.8906249,2.671875 3.011442,5.842603 10.382909,9.760035 17.671875,10.171875 3.350201,0.190369 5.664834,-0.144105 9.65625,-1.40625 8.819888,-2.789168 17.300823,-7.81308 25.828125,-15.09375 5.482089,-4.680636 8.499102,-7.776522 11.625,-11.8125 2.771378,-3.578271 6.214817,-9.450624 7.921875,-13.59375 0.605921,-1.470566 1.479429,-3.828792 2.25,-6.09375 0.765746,-2.250776 1.420769,-4.17555 1.6875,-5.390625 0.829194,-3.781734 0.137115,-9.110424 -1.3125,-12.9375 -0.706843,-1.866156 -1.824471,-3.739023 -3.09375,-5.390625 -1.251147,-1.628009 -2.586015,-3.054383 -4.21875,-3.984375 -1.68295,-0.958788 -3.833359,-1.472513 -5.859375,-1.828125 -1.006587,-0.176679 -1.967892,-0.344009 -2.90625,-0.375 z" />
  <path
     inkscape:connector-curvature="0"
     style="display:inline;opacity:0.15;fill:#000000;fill-opacity:1;stroke-width:1.5"
     id="path3892"
     d="m 69.224966,11.507839 c -0.409365,-0.0135 -0.800124,-5e-4 -1.171875,0.04687 -0.371751,0.04737 -0.767715,0.10659 -1.265625,0.46875 -0.338818,0.24645 -0.409762,0.36816 -0.5625,0.5625 -0.152737,0.19434 -0.305614,0.412867 -0.46875,0.65625 -0.326269,0.486765 -0.699385,1.090324 -1.03125,1.6875 -0.614712,1.105798 -2.522994,4.520958 -4.265625,7.59375 -1.860561,3.280722 -2.793855,4.912657 -3.28125,6.046875 -0.243697,0.567109 -0.431463,1.071327 -0.421875,1.640625 0.0096,0.569298 0.211196,1.016005 0.328125,1.265625 0.254355,0.542896 0.561737,0.911791 0.984375,1.40625 0.422639,0.494458 0.950432,1.039168 1.546875,1.640625 1.192887,1.202914 2.688342,2.564238 4.125,3.75 1.159503,0.957067 1.760813,1.568155 1.96875,1.875 0.207938,0.306844 0.220524,0.287589 0.1875,0.84375 0.01892,-0.318741 -0.11367,0.271122 -0.375,0.84375 -0.261328,0.572628 -0.617628,1.325397 -1.078125,2.15625 -0.920994,1.661706 -2.167611,3.633819 -3.328125,5.296875 -4.488096,6.431733 -10.135827,11.436219 -17.390625,15.375 -1.792701,0.973168 -2.602066,1.249158 -2.859375,1.21875 -0.257308,-0.03041 -0.811327,-0.402192 -2.109375,-1.734375 -1.262943,-1.29618 -2.694579,-2.479397 -3.984375,-3.375 -1.289796,-0.895604 -2.237575,-1.561002 -3.609375,-1.640625 -0.460597,-0.02673 -0.525876,0.0087 -0.703125,0.04687 -0.177249,0.03819 -0.332877,0.07888 -0.5625,0.140625 -0.459244,0.12348 -1.089726,0.304293 -1.78125,0.515625 -1.383046,0.422662 -3.151248,1.021036 -5.015625,1.640625 -3.728755,1.239177 -7.665852,2.599258 -9.375,3.328125 -1.071997,0.457245 -2.148562,1.139041 -2.625,2.296875 -0.476437,1.157833 -0.515608,2.390962 -0.5625,4.40625 -0.0366,1.572909 -0.05415,2.534623 0.04687,3.375 0.101025,0.840376 0.395864,1.51602 0.75,2.203125 2.662544,5.165694 9.653016,8.943906 16.453125,9.328125 3.238163,0.184003 5.179985,-0.07491 9.09375,-1.3125 8.59239,-2.717225 16.897727,-7.627908 25.3125,-14.8125 5.444457,-4.648506 8.371353,-7.619295 11.4375,-11.578125 2.648504,-3.419622 6.111312,-9.326363 7.734375,-13.265625 0.581301,-1.410813 1.440246,-3.75765 2.203125,-6 0.762879,-2.24235 1.417019,-4.231376 1.640625,-5.25 0.717233,-3.27111 0.06575,-8.578853 -1.265625,-12.09375 -0.642397,-1.69601 -1.6719,-3.470468 -2.859375,-5.015625 -1.187475,-1.545158 -2.440032,-2.836529 -3.796875,-3.609375 -1.386355,-0.789816 -3.393279,-1.298273 -5.34375,-1.640625 -0.975235,-0.171176 -1.900018,-0.301085 -2.71875,-0.328125 z" />
  <path
     style="display:inline;opacity:0.3;fill:#000000;fill-opacity:1;stroke-width:1.5"
     id="path3886"
     inkscape:connector-curvature="0"
     d="m 83.75881,33.866008 c -0.341537,1.555843 -2.660675,8.353852 -3.764702,11.033313 -1.533627,3.722194 -4.995126,9.679707 -7.513299,12.931053 -3.009319,3.885457 -5.827351,6.732112 -11.234761,11.348988 -8.300841,7.087315 -16.477787,11.862291 -24.844407,14.508118 -3.856101,1.219359 -5.371886,1.44488 -8.512698,1.266408 -6.27249,-0.354408 -12.955131,-4.091319 -15.235005,-8.514582 -0.646734,-1.25481 -0.712689,-1.75887 -0.639819,-4.889949 0.09268,-3.983341 0.340299,-4.565454 2.293081,-5.398384 3.119217,-1.33019 16.027155,-5.627898 16.77299,-5.584611 1.230907,0.07145 4.219968,2.154177 6.605863,4.602862 2.648772,2.718428 3.08229,2.769518 6.723659,0.7928 7.435807,-4.037055 13.31394,-9.232461 17.929923,-15.847466 2.394552,-3.431473 4.958751,-8.05266 5.017504,-9.042418 0.08349,-1.406073 -0.29704,-1.965435 -2.665104,-3.920063 -2.783001,-2.29698 -5.807758,-5.336896 -6.250353,-6.281571 -0.451155,-0.963121 -0.4132,-1.050367 3.306354,-7.609047 1.74359,-3.074482 3.681134,-6.509422 4.305801,-7.633131 0.624521,-1.123797 1.362804,-2.208522 1.640619,-2.410599 0.906132,-0.659094 6.802209,0.342404 8.836406,1.501299 2.064297,1.175807 4.922493,4.906904 6.060531,7.911468 1.185348,3.129392 1.750998,8.574021 1.167397,11.235672 z" />
  <rect
     style="color:#000000;display:inline;overflow:visible;visibility:visible;fill:url(#linearGradient3905);fill-opacity:1;fill-rule:nonzero;stroke:none;stroke-width:2;marker:none;enable-background:accumulate"
     id="rect3897"
     transform="matrix(0,1,1,0,0,0)"
     y="104"
     x="0"
     height="16"
     width="16" />
  <text
     style="font-style:normal;font-variant:normal;font-weight:normal;font-stretch:normal;font-size:4px;line-height:125%;font-family:'Liberation Sans';-inkscape-font-specification:'Liberation Sans';text-align:start;letter-spacing:0px;word-spacing:0px;writing-mode:lr-tb;text-anchor:start;fill:#000000;fill-opacity:1;stroke:none"
     xml:space="preserve"
     id="text3907"
     y="48"
     x="104"><tspan
       id="tspan3909"
       y="48"
       x="104">Shadow opacity : 30, 15, 10, (8)</tspan></text>
  <rect
     style="color:#000000;display:inline;overflow:visible;visibility:visible;fill:url(#linearGradient3913);fill-opacity:1;fill-rule:nonzero;stroke:none;stroke-width:2;marker:none;enable-background:accumulate"
     id="rect3911"
     transform="rotate(-90)"
     y="104"
     x="-40"
     height="16"
     width="16" />
  <text
     style="font-style:normal;font-variant:normal;font-weight:normal;font-stretch:normal;font-size:4px;line-height:125%;font-family:'Liberation Sans';-inkscape-font-specification:'Liberation Sans';text-align:start;letter-spacing:0px;word-spacing:0px;writing-mode:lr-tb;text-anchor:start;fill:#000000;fill-opacity:1;stroke:none"
     xml:space="preserve"
     id="text3951"
     y="32"
     x="124"><tspan
       id="tspan3953"
       y="32"
       x="124">Bevel opacity : 30 / 10</tspan></text>
  <text
     style="font-style:normal;font-variant:normal;font-weight:normal;font-stretch:normal;font-size:4px;line-height:125%;font-family:'Liberation Sans';-inkscape-font-specification:'Liberation Sans';text-align:start;letter-spacing:0px;word-spacing:0px;writing-mode:lr-tb;text-anchor:start;fill:#000000;fill-opacity:1;stroke:none"
     xml:space="preserve"
     id="text3955"
     y="8"
     x="124"><tspan
       id="tspan3957"
       y="8"
       x="124">Bevel opacity : 75 / 15</tspan></text>
  <path
     style="display:inline;fill:url(#linearGradient7313);fill-opacity:1;stroke-width:1.5"
     id="path4609"
     inkscape:connector-curvature="0"
     d="m 83.75881,32.366008 c -0.341537,1.555843 -2.660675,8.353852 -3.764702,11.033313 -1.533627,3.722194 -4.995126,9.679707 -7.513299,12.931053 -3.009319,3.885457 -5.827351,6.732112 -11.234761,11.348988 -8.300841,7.087315 -16.477787,11.862291 -24.844407,14.508118 -3.856101,1.219359 -5.371886,1.44488 -8.512698,1.266408 -6.27249,-0.354408 -12.955131,-4.091319 -15.235005,-8.514582 -0.646734,-1.25481 -0.712689,-1.75887 -0.639819,-4.889949 0.09268,-3.983341 0.340299,-4.565454 2.293081,-5.398384 3.119217,-1.33019 16.027155,-5.627898 16.77299,-5.584611 1.230907,0.07145 4.219968,2.154177 6.605863,4.602862 2.648772,2.718428 3.08229,2.769518 6.723659,0.7928 7.435807,-4.037055 13.31394,-9.232461 17.929923,-15.847466 2.394552,-3.431473 4.958751,-8.05266 5.017504,-9.042418 0.08349,-1.406073 -0.29704,-1.965435 -2.665104,-3.920063 -2.783001,-2.29698 -5.807758,-5.336896 -6.250353,-6.281571 -0.451155,-0.963121 -0.4132,-1.050367 3.306354,-7.609047 1.74359,-3.074482 3.681134,-6.509422 4.305801,-7.633131 0.624521,-1.123797 1.362804,-2.208522 1.640619,-2.410599 0.906132,-0.659094 6.802209,0.342404 8.836406,1.501299 2.064297,1.175807 4.922493,4.906904 6.060531,7.911468 1.185348,3.129392 1.750998,8.574021 1.167397,11.235672 z" />
  <path
     style="display:inline;opacity:0.75;fill:#ffffff;fill-opacity:1;stroke-width:1.5"
     id="path3868"
     inkscape:connector-curvature="0"
     d="m 69.178091,11.507839 c -0.711966,-0.01932 -1.273467,0.02272 -1.5,0.1875 -0.277815,0.202077 -1.016104,1.313703 -1.640625,2.4375 -0.624667,1.123708 -2.56891,4.566142 -4.3125,7.640625 -3.719554,6.558679 -3.732405,6.630628 -3.28125,7.59375 0.364227,-0.924534 1.272882,-2.552402 3.28125,-6.09375 1.74359,-3.074483 3.687833,-6.516917 4.3125,-7.640625 0.624521,-1.123797 1.36281,-2.235423 1.640625,-2.4375 0.906132,-0.659094 6.825179,0.387979 8.859375,1.546875 2.064297,1.175806 4.908837,4.870435 6.046875,7.875 0.807687,2.132344 1.294668,5.34628 1.359375,8.015625 0.147705,-2.86727 -0.3909,-6.958793 -1.359375,-9.515625 -1.138038,-3.004565 -3.982578,-6.699194 -6.046875,-7.875 -1.525647,-0.869172 -5.223475,-1.676436 -7.359375,-1.734375 z m -1.921875,28.453125 c -0.445536,1.461591 -2.743753,5.550553 -4.921875,8.671875 -4.615983,6.615004 -10.470442,11.806695 -17.90625,15.84375 -3.641368,1.976718 -4.101228,1.921552 -6.75,-0.796875 -2.385895,-2.448686 -5.378467,-4.522305 -6.609375,-4.59375 -0.745834,-0.04329 -13.662033,4.247935 -16.78125,5.578125 -1.952782,0.83293 -2.157315,1.407283 -2.25,5.390625 -0.02385,1.024507 -0.02136,1.716555 0,2.296875 0.004,-0.271737 -0.0075,-0.472505 0,-0.796875 0.09268,-3.983342 0.297218,-4.557695 2.25,-5.390625 3.119217,-1.33019 16.035416,-5.621412 16.78125,-5.578125 1.230908,0.07145 4.22348,2.145064 6.609375,4.59375 2.648772,2.718427 3.108632,2.773593 6.75,0.796875 7.435808,-4.037055 13.290267,-9.228746 17.90625,-15.84375 2.394552,-3.431474 4.956872,-8.057117 5.015625,-9.046875 0.0254,-0.42768 0.0096,-0.790899 -0.09375,-1.125 z" />
  <path
     style="display:inline;opacity:0.15;fill:#000000;fill-opacity:1;stroke-width:1.5"
     id="path3877"
     inkscape:connector-curvature="0"
     d="m 58.443716,27.867214 c -0.310332,0.787729 -0.207555,1.056915 0,1.5 0.442595,0.944674 3.451374,3.98427 6.234375,6.28125 1.647777,1.360095 2.341722,2.048188 2.578125,2.8125 0.04427,-0.14523 0.08844,-0.285542 0.09375,-0.375 0.08349,-1.406073 -0.303811,-1.982873 -2.671875,-3.9375 -2.783001,-2.29698 -5.79178,-5.336576 -6.234375,-6.28125 z m 25.5,1.265625 c -0.03307,0.642076 -0.08073,1.247394 -0.1875,1.734375 -0.341536,1.555843 -2.645973,8.336164 -3.75,11.015625 -1.533627,3.722194 -5.028702,9.686154 -7.546875,12.9375 -3.009319,3.885457 -5.795715,6.726874 -11.203125,11.34375 -8.300841,7.087315 -16.477129,11.885422 -24.84375,14.53125 -3.856101,1.219359 -5.390437,1.444096 -8.53125,1.265625 -6.27249,-0.354408 -12.954501,-4.107987 -15.234375,-8.53125 -0.435118,-0.844229 -0.565444,-1.384883 -0.609375,-2.578125 -0.03528,2.35129 0.02964,2.953309 0.609375,4.078125 2.279874,4.423263 8.961885,8.176842 15.234375,8.53125 3.140813,0.178471 4.675149,-0.04626 8.53125,-1.265625 8.366621,-2.645828 16.542909,-7.443935 24.84375,-14.53125 5.40741,-4.616876 8.193806,-7.458293 11.203125,-11.34375 2.518173,-3.251346 6.013248,-9.215306 7.546875,-12.9375 1.104027,-2.679461 3.408464,-9.459782 3.75,-11.015625 0.185939,-0.848021 0.217757,-1.986237 0.1875,-3.234375 z" />
</svg>
