<?xml version="1.0" encoding="UTF-8" standalone="no"?>
<!-- Created with Inkscape (http://www.inkscape.org/) -->

<svg
   xmlns:dc="http://purl.org/dc/elements/1.1/"
   xmlns:cc="http://creativecommons.org/ns#"
   xmlns:rdf="http://www.w3.org/1999/02/22-rdf-syntax-ns#"
   xmlns:svg="http://www.w3.org/2000/svg"
   xmlns="http://www.w3.org/2000/svg"
   xmlns:xlink="http://www.w3.org/1999/xlink"
   xmlns:sodipodi="http://sodipodi.sourceforge.net/DTD/sodipodi-0.dtd"
   xmlns:inkscape="http://www.inkscape.org/namespaces/inkscape"
   version="1.0"
   width="96"
   height="96"
   id="svg2408"
   sodipodi:docname="document-send.svg"
   inkscape:version="0.92.2 2405546, 2018-03-11">
  <sodipodi:namedview
     pagecolor="#ffffff"
     bordercolor="#666666"
     borderopacity="1"
     objecttolerance="10"
     gridtolerance="10"
     guidetolerance="10"
     inkscape:pageopacity="0"
     inkscape:pageshadow="2"
     inkscape:window-width="750"
     inkscape:window-height="480"
     id="namedview1483"
     showgrid="false"
     inkscape:zoom="2.4583333"
     inkscape:cx="48"
     inkscape:cy="48"
     inkscape:window-x="52"
     inkscape:window-y="0"
     inkscape:window-maximized="0"
     inkscape:current-layer="svg2408" />
  <defs
     id="defs2410">
    <linearGradient
       id="linearGradient3637">
      <stop
         id="stop3639"
         style="stop-color:#f0f0f0;stop-opacity:1"
         offset="0" />
      <stop
         id="stop3641"
         style="stop-color:#aaaaaa;stop-opacity:1"
         offset="1" />
    </linearGradient>
    <linearGradient
       x1="45.447727"
       y1="92.539597"
       x2="45.447727"
       y2="7.0165396"
       id="ButtonShadow"
       gradientUnits="userSpaceOnUse"
       gradientTransform="scale(1.0058652,0.994169)">
      <stop
         id="stop3750"
         style="stop-color:#000000;stop-opacity:1"
         offset="0" />
      <stop
         id="stop3752"
         style="stop-color:#000000;stop-opacity:0.58823532"
         offset="1" />
    </linearGradient>
    <linearGradient
       id="linearGradient3737">
      <stop
         id="stop3739"
         style="stop-color:#ffffff;stop-opacity:1"
         offset="0" />
      <stop
         id="stop3741"
         style="stop-color:#ffffff;stop-opacity:0"
         offset="1" />
    </linearGradient>
    <linearGradient
       id="linearGradient3700">
      <stop
         id="stop3702"
         style="stop-color:#2276c5;stop-opacity:1"
         offset="0" />
      <stop
         id="stop3704"
         style="stop-color:#68baf4;stop-opacity:1"
         offset="1" />
    </linearGradient>
    <filter
       color-interpolation-filters="sRGB"
       id="filter3174">
      <feGaussianBlur
         id="feGaussianBlur3176"
         stdDeviation="1.71" />
    </filter>
    <linearGradient
       x1="36.357143"
       y1="6"
       x2="36.357143"
       y2="63.893143"
       id="linearGradient3188"
       xlink:href="#linearGradient3737"
       gradientUnits="userSpaceOnUse" />
    <filter
       x="-0.192"
       y="-0.192"
       width="1.3839999"
       height="1.3839999"
       color-interpolation-filters="sRGB"
       id="filter3794">
      <feGaussianBlur
         id="feGaussianBlur3796"
         stdDeviation="5.28" />
    </filter>
    <linearGradient
       x1="48"
       y1="20.220806"
       x2="48"
       y2="138.66119"
       id="linearGradient3613"
       xlink:href="#linearGradient3737"
       gradientUnits="userSpaceOnUse" />
    <radialGradient
       cx="48"
       cy="90.171875"
       r="42"
       fx="48"
       fy="90.171875"
       id="radialGradient3619"
       xlink:href="#linearGradient3737"
       gradientUnits="userSpaceOnUse"
       gradientTransform="matrix(1.1573129,0,0,0.99590774,-7.5510206,0.19713193)" />
    <clipPath
       id="clipPath3613">
      <rect
         width="84"
         height="84"
         rx="6"
         ry="6"
         x="6"
         y="6"
         id="rect3615"
         style="fill:#ffffff;fill-opacity:1;fill-rule:nonzero;stroke:none" />
    </clipPath>
    <linearGradient
       x1="48"
       y1="90"
       x2="48"
       y2="5.9877172"
       id="linearGradient2843"
       xlink:href="#linearGradient3700"
       gradientUnits="userSpaceOnUse"
       gradientTransform="translate(0,100)" />
    <clipPath
       id="clipPath3625">
      <path
         d="M 0,0 0,96 96,96 96,0 0,0 z m 12,6 72,0 c 3.324,0 6,2.676 6,6 l 0,72 c 0,3.324 -2.676,6 -6,6 L 12,90 C 8.676,90 6,87.324 6,84 L 6,12 C 6,8.676 8.676,6 12,6 z"
         inkscape:connector-curvature="0"
         id="path3627"
         style="fill:#ffffff;fill-opacity:1;stroke:none" />
    </clipPath>
    <linearGradient
       x1="44.512066"
       y1="6"
       x2="44.512066"
       y2="90.015434"
       id="linearGradient3643"
       xlink:href="#linearGradient3637"
       gradientUnits="userSpaceOnUse" />
    <clipPath
       id="clipPath3649">
      <rect
         width="76"
         height="76"
         rx="4"
         ry="4"
         x="10"
         y="10"
         id="rect3651"
         style="fill:#ffffff;fill-opacity:1;fill-rule:nonzero;stroke:none" />
    </clipPath>
    <filter
       color-interpolation-filters="sRGB"
       id="filter3657">
      <feGaussianBlur
         id="feGaussianBlur3659"
         stdDeviation="1.14" />
    </filter>
    <linearGradient
       x1="45.447727"
       y1="92.539597"
       x2="45.447727"
       y2="7.0165396"
       id="ButtonShadow-0"
       gradientUnits="userSpaceOnUse"
       gradientTransform="matrix(1.0058652,0,0,0.994169,100,0)">
      <stop
         id="stop3750-8"
         style="stop-color:#000000;stop-opacity:1"
         offset="0" />
      <stop
         id="stop3752-5"
         style="stop-color:#000000;stop-opacity:0.58823532"
         offset="1" />
    </linearGradient>
    <linearGradient
       x1="32.251034"
       y1="6.1317081"
       x2="32.251034"
       y2="90.238609"
       id="linearGradient3780"
       xlink:href="#ButtonShadow-0"
       gradientUnits="userSpaceOnUse"
       gradientTransform="matrix(1.0238095,0,0,-1.0119048,-1.1428571,98.071429)" />
    <linearGradient
       x1="32.251034"
       y1="6.1317081"
       x2="32.251034"
       y2="90.238609"
       id="linearGradient3772"
       xlink:href="#ButtonShadow-0"
       gradientUnits="userSpaceOnUse"
       gradientTransform="matrix(1.0238095,0,0,-1.0119048,-1.1428571,98.071429)" />
    <linearGradient
       x1="32.251034"
       y1="6.1317081"
       x2="32.251034"
       y2="90.238609"
       id="linearGradient3725"
       xlink:href="#ButtonShadow-0"
       gradientUnits="userSpaceOnUse"
       gradientTransform="matrix(1.0238095,0,0,-1.0119048,-1.1428571,98.071429)" />
    <linearGradient
       x1="32.251034"
       y1="6.1317081"
       x2="32.251034"
       y2="90.238609"
       id="linearGradient3721"
       xlink:href="#ButtonShadow-0"
       gradientUnits="userSpaceOnUse"
       gradientTransform="matrix(1,0,0,-1,0,97)" />
    <linearGradient
       x1="32.251034"
       y1="6.1317081"
       x2="32.251034"
       y2="90.238609"
       id="linearGradient3199"
       xlink:href="#ButtonShadow-0"
       gradientUnits="userSpaceOnUse"
       gradientTransform="matrix(1.0238095,0,0,-1.0119048,-1.1428571,98.071429)" />
    <linearGradient
       x1="36.357143"
       y1="6"
       x2="36.357143"
       y2="63.893143"
       id="linearGradient3188-8"
       xlink:href="#linearGradient3737-3"
       gradientUnits="userSpaceOnUse" />
    <linearGradient
       id="linearGradient3737-3">
      <stop
         id="stop3739-6"
         style="stop-color:#ffffff;stop-opacity:1"
         offset="0" />
      <stop
         id="stop3741-1"
         style="stop-color:#ffffff;stop-opacity:0"
         offset="1" />
    </linearGradient>
    <radialGradient
       cx="48"
       cy="90.171875"
       r="42"
       fx="48"
       fy="90.171875"
       id="radialGradient3619-3"
       xlink:href="#linearGradient3737-3"
       gradientUnits="userSpaceOnUse"
       gradientTransform="matrix(1.1573129,0,0,0.99590774,-7.551021,0.1971319)" />
    <linearGradient
       x1="104"
       y1="8"
       x2="120"
       y2="8"
       id="linearGradient3905"
       xlink:href="#linearGradient3637"
       gradientUnits="userSpaceOnUse"
       gradientTransform="translate(-104,104)" />
    <linearGradient
       x1="104"
       y1="8"
       x2="120"
       y2="8"
       id="linearGradient3913"
       xlink:href="#linearGradient3183-0"
       gradientUnits="userSpaceOnUse"
       gradientTransform="translate(-144,104)" />
    <linearGradient
       id="linearGradient3183-0">
      <stop
         id="stop3185-9"
         style="stop-color:#c80000;stop-opacity:1"
         offset="0" />
      <stop
         id="stop3187-6"
         style="stop-color:#f3604d;stop-opacity:1"
         offset="1" />
    </linearGradient>
    <linearGradient
       x1="45"
       y1="24"
       x2="45"
       y2="76"
       id="linearGradient3100"
       xlink:href="#linearGradient3637"
       gradientUnits="userSpaceOnUse"
       gradientTransform="matrix(1.5,0,0,1.5,-8.9660777,-21.5)" />
  </defs>
  <metadata
     id="metadata2413">
    <rdf:RDF>
      <cc:Work
         rdf:about="">
        <dc:format>image/svg+xml</dc:format>
        <dc:type
           rdf:resource="http://purl.org/dc/dcmitype/StillImage" />
        <dc:title />
      </cc:Work>
    </rdf:RDF>
  </metadata>
  <g
     id="layer2"
     style="display:none">
    <rect
       width="86"
       height="85"
       rx="6"
       ry="6"
       x="5"
       y="7"
       clip-path="url(#clipPath3625)"
       id="rect3745"
       style="opacity:0.9;fill:url(#ButtonShadow);fill-opacity:1;fill-rule:nonzero;stroke:none;filter:url(#filter3174)" />
  </g>
  <g
     id="layer1"
     style="display:none">
    <rect
       width="84"
       height="84"
       rx="6"
       ry="6"
       x="6"
       y="6"
       id="rect2419"
       style="opacity:0.8;fill:#000000;fill-opacity:1;fill-rule:nonzero;stroke:none" />
    <path
       d="m 14,10 c -2.216,0 -4,1.784 -4,4 l 0,68 c 0,2.216 1.784,4 4,4 l 68,0 c 2.216,0 4,-1.784 4,-4 l 0,-68 c 0,-2.216 -1.784,-4 -4,-4 l -68,0 z m 0,3.0625 68,0 c 0.578769,0 0.9375,0.358731 0.9375,0.9375 l 0,68 c 0,0.578769 -0.358731,0.9375 -0.9375,0.9375 l -68,0 c -0.578769,0 -0.9375,-0.358731 -0.9375,-0.9375 l 0,-68 c 0,-0.578769 0.358731,-0.9375 0.9375,-0.9375 z"
       inkscape:connector-curvature="0"
       id="rect3726"
       style="opacity:0.07999998;fill:#000000;fill-opacity:1;fill-rule:nonzero;stroke:none" />
    <path
       d="M 12,6 C 8.676,6 6,8.676 6,12 l 0,72 c 0,3.324 2.676,6 6,6 l 72,0 c 3.324,0 6,-2.676 6,-6 L 90,12 C 90,8.676 87.324,6 84,6 L 12,6 z m 2,4 68,0 c 2.216,0 4,1.784 4,4 l 0,68 c 0,2.216 -1.784,4 -4,4 l -68,0 c -2.216,0 -4,-1.784 -4,-4 l 0,-68 c 0,-2.216 1.784,-4 4,-4 z"
       inkscape:connector-curvature="0"
       id="rect3629"
       style="fill:url(#linearGradient3643);fill-opacity:1;fill-rule:nonzero;stroke:none" />
    <path
       d="M 12,6 C 8.676,6 6,8.676 6,12 l 0,2 0,68 0,2 c 0,0.334721 0.04135,0.6507 0.09375,0.96875 0.0487,0.295596 0.09704,0.596915 0.1875,0.875 0.00988,0.03038 0.020892,0.0636 0.03125,0.09375 0.098865,0.287771 0.2348802,0.547452 0.375,0.8125 0.1445918,0.273507 0.3156161,0.535615 0.5,0.78125 0.1843839,0.245635 0.3737765,0.473472 0.59375,0.6875 0.439947,0.428056 0.94291,0.814526 1.5,1.09375 0.278545,0.139612 0.5734731,0.246947 0.875,0.34375 -0.2562018,-0.100222 -0.4867109,-0.236272 -0.71875,-0.375 -0.00741,-0.0044 -0.023866,0.0045 -0.03125,0 -0.031933,-0.0193 -0.062293,-0.04251 -0.09375,-0.0625 -0.120395,-0.0767 -0.2310226,-0.163513 -0.34375,-0.25 -0.1061728,-0.0808 -0.2132809,-0.161112 -0.3125,-0.25 C 8.4783201,88.557317 8.3087904,88.373362 8.15625,88.1875 8.0486711,88.057245 7.9378561,87.922215 7.84375,87.78125 7.818661,87.74287 7.805304,87.69538 7.78125,87.65625 7.716487,87.553218 7.6510225,87.451733 7.59375,87.34375 7.4927417,87.149044 7.3880752,86.928049 7.3125,86.71875 7.30454,86.69694 7.288911,86.6782 7.28125,86.65625 7.2494249,86.5643 7.2454455,86.469419 7.21875,86.375 7.1884177,86.268382 7.1483606,86.171969 7.125,86.0625 7.0521214,85.720988 7,85.364295 7,85 L 7,83 7,15 7,13 C 7,10.218152 9.2181517,8 12,8 l 2,0 68,0 2,0 c 2.781848,0 5,2.218152 5,5 l 0,2 0,68 0,2 c 0,0.364295 -0.05212,0.720988 -0.125,1.0625 -0.04415,0.206893 -0.08838,0.397658 -0.15625,0.59375 -0.0077,0.02195 -0.0233,0.04069 -0.03125,0.0625 -0.06274,0.173739 -0.138383,0.367449 -0.21875,0.53125 -0.04158,0.0828 -0.07904,0.169954 -0.125,0.25 -0.0546,0.09721 -0.126774,0.18835 -0.1875,0.28125 -0.09411,0.140965 -0.204921,0.275995 -0.3125,0.40625 -0.143174,0.17445 -0.303141,0.346998 -0.46875,0.5 -0.01117,0.0102 -0.01998,0.02115 -0.03125,0.03125 -0.138386,0.125556 -0.285091,0.234436 -0.4375,0.34375 -0.102571,0.07315 -0.204318,0.153364 -0.3125,0.21875 -0.0074,0.0045 -0.02384,-0.0044 -0.03125,0 -0.232039,0.138728 -0.462548,0.274778 -0.71875,0.375 0.301527,-0.0968 0.596455,-0.204138 0.875,-0.34375 0.55709,-0.279224 1.060053,-0.665694 1.5,-1.09375 0.219973,-0.214028 0.409366,-0.441865 0.59375,-0.6875 0.184384,-0.245635 0.355408,-0.507743 0.5,-0.78125 0.14012,-0.265048 0.276135,-0.524729 0.375,-0.8125 0.01041,-0.03078 0.02133,-0.06274 0.03125,-0.09375 0.09046,-0.278085 0.1388,-0.579404 0.1875,-0.875 C 89.95865,84.6507 90,84.334721 90,84 l 0,-2 0,-68 0,-2 C 90,8.676 87.324,6 84,6 L 12,6 z"
       inkscape:connector-curvature="0"
       id="rect3728"
       style="fill:url(#linearGradient3188);fill-opacity:1;fill-rule:nonzero;stroke:none" />
    <path
       d="M 12,90 C 8.676,90 6,87.324 6,84 L 6,82 6,14 6,12 c 0,-0.334721 0.04135,-0.6507 0.09375,-0.96875 0.0487,-0.295596 0.09704,-0.596915 0.1875,-0.875 C 6.29113,10.12587 6.302142,10.09265 6.3125,10.0625 6.411365,9.774729 6.5473802,9.515048 6.6875,9.25 6.8320918,8.976493 7.0031161,8.714385 7.1875,8.46875 7.3718839,8.223115 7.5612765,7.995278 7.78125,7.78125 8.221197,7.353194 8.72416,6.966724 9.28125,6.6875 9.559795,6.547888 9.8547231,6.440553 10.15625,6.34375 9.9000482,6.443972 9.6695391,6.580022 9.4375,6.71875 c -0.00741,0.0044 -0.023866,-0.0045 -0.03125,0 -0.031933,0.0193 -0.062293,0.04251 -0.09375,0.0625 -0.120395,0.0767 -0.2310226,0.163513 -0.34375,0.25 -0.1061728,0.0808 -0.2132809,0.161112 -0.3125,0.25 C 8.4783201,7.442683 8.3087904,7.626638 8.15625,7.8125 8.0486711,7.942755 7.9378561,8.077785 7.84375,8.21875 7.818661,8.25713 7.805304,8.30462 7.78125,8.34375 7.716487,8.446782 7.6510225,8.548267 7.59375,8.65625 7.4927417,8.850956 7.3880752,9.071951 7.3125,9.28125 7.30454,9.30306 7.288911,9.3218 7.28125,9.34375 7.2494249,9.4357 7.2454455,9.530581 7.21875,9.625 7.1884177,9.731618 7.1483606,9.828031 7.125,9.9375 7.0521214,10.279012 7,10.635705 7,11 l 0,2 0,68 0,2 c 0,2.781848 2.2181517,5 5,5 l 2,0 68,0 2,0 c 2.781848,0 5,-2.218152 5,-5 l 0,-2 0,-68 0,-2 C 89,10.635705 88.94788,10.279012 88.875,9.9375 88.83085,9.730607 88.78662,9.539842 88.71875,9.34375 88.71105,9.3218 88.69545,9.30306 88.6875,9.28125 88.62476,9.107511 88.549117,8.913801 88.46875,8.75 88.42717,8.6672 88.38971,8.580046 88.34375,8.5 88.28915,8.40279 88.216976,8.31165 88.15625,8.21875 88.06214,8.077785 87.951329,7.942755 87.84375,7.8125 87.700576,7.63805 87.540609,7.465502 87.375,7.3125 87.36383,7.3023 87.35502,7.29135 87.34375,7.28125 87.205364,7.155694 87.058659,7.046814 86.90625,6.9375 86.803679,6.86435 86.701932,6.784136 86.59375,6.71875 c -0.0074,-0.0045 -0.02384,0.0044 -0.03125,0 -0.232039,-0.138728 -0.462548,-0.274778 -0.71875,-0.375 0.301527,0.0968 0.596455,0.204138 0.875,0.34375 0.55709,0.279224 1.060053,0.665694 1.5,1.09375 0.219973,0.214028 0.409366,0.441865 0.59375,0.6875 0.184384,0.245635 0.355408,0.507743 0.5,0.78125 0.14012,0.265048 0.276135,0.524729 0.375,0.8125 0.01041,0.03078 0.02133,0.06274 0.03125,0.09375 0.09046,0.278085 0.1388,0.579404 0.1875,0.875 C 89.95865,11.3493 90,11.665279 90,12 l 0,2 0,68 0,2 c 0,3.324 -2.676,6 -6,6 l -72,0 z"
       inkscape:connector-curvature="0"
       id="path3615"
       style="opacity:0.6;fill:url(#radialGradient3619);fill-opacity:1;fill-rule:nonzero;stroke:none" />
    <rect
       width="84"
       height="84"
       rx="6"
       ry="6"
       x="6"
       y="106"
       id="rect2841"
       style="fill:url(#linearGradient2843);fill-opacity:1;fill-rule:nonzero;stroke:none" />
    <rect
       width="76"
       height="76"
       rx="4"
       ry="4"
       x="10"
       y="110"
       id="rect3634"
       style="fill:#ff0000;fill-opacity:1;fill-rule:nonzero;stroke:none" />
    <path
       d="m 14,9 c -2.752703,0 -5,2.247297 -5,5 l 0,68 c 0,2.752703 2.247297,5 5,5 l 68,0 c 2.752703,0 5,-2.247297 5,-5 L 87,14 C 87,11.247297 84.752703,9 82,9 L 14,9 z m 0,2 68,0 c 1.679297,0 3,1.320703 3,3 l 0,68 c 0,1.679297 -1.320703,3 -3,3 l -68,0 c -1.679297,0 -3,-1.320703 -3,-3 l 0,-68 c 0,-1.679297 1.320703,-3 3,-3 z"
       inkscape:connector-curvature="0"
       transform="translate(-110,0)"
       clip-path="url(#clipPath3649)"
       id="rect3647"
       style="font-size:medium;font-style:normal;font-variant:normal;font-weight:normal;font-stretch:normal;text-indent:0;text-align:start;text-decoration:none;line-height:normal;letter-spacing:normal;word-spacing:normal;text-transform:none;direction:ltr;block-progression:tb;writing-mode:lr-tb;text-anchor:start;color:#000000;fill:#000000;fill-opacity:1;stroke:none;stroke-width:2;marker:none;visibility:visible;display:inline;overflow:visible;filter:url(#filter3657);enable-background:accumulate;font-family:Abandoned Bitplane;-inkscape-font-specification:Abandoned Bitplane" />
    <path
       d="m 14.089286,10 c -2.216,0 -4,1.784 -4,4 l 0,68 c 0,2.216 1.784,4 4,4 l 68,0 c 2.216,0 4,-1.784 4,-4 l 0,-68 c 0,-2.216 -1.784,-4 -4,-4 l -68,0 z m 0,2 68,0 c 1.140301,0 2,0.859699 2,2 l 0,68 c 0,1.140301 -0.859699,2 -2,2 l -68,0 c -1.140301,0 -2,-0.859699 -2,-2 l 0,-68 c 0,-1.140301 0.859699,-2 2,-2 z"
       inkscape:connector-curvature="0"
       id="path3709"
       style="opacity:0.16000001;fill:#000000;fill-opacity:1;fill-rule:nonzero;stroke:none" />
    <path
       d="m 14,10 c -2.216,0 -4,1.784 -4,4 l 0,68 c 0,2.216 1.784,4 4,4 l 68,0 c 2.216,0 4,-1.784 4,-4 l 0,-68 c 0,-2.216 -1.784,-4 -4,-4 l -68,0 z m 0,1 68,0 c 1.673848,0 3,1.326152 3,3 l 0,68 c 0,1.673848 -1.326152,3 -3,3 l -68,0 c -1.673848,0 -3,-1.326152 -3,-3 l 0,-68 c 0,-1.673848 1.326152,-3 3,-3 z"
       inkscape:connector-curvature="0"
       id="path3707"
       style="opacity:0.36000001;fill:#000000;fill-opacity:1;fill-rule:nonzero;stroke:none" />
  </g>
  <g
     id="layer5"
     style="display:none">
    <rect
       width="66"
       height="66"
       rx="12"
       ry="12"
       x="15"
       y="15"
       clip-path="url(#clipPath3613)"
       id="rect3171"
       style="opacity:0.1;fill:url(#linearGradient3613);fill-opacity:1;fill-rule:nonzero;stroke:#ffffff;stroke-width:0.5;stroke-linecap:round;stroke-linejoin:miter;stroke-miterlimit:4;stroke-opacity:1;stroke-dasharray:none;stroke-dashoffset:0;filter:url(#filter3794)" />
  </g>
  <path
     inkscape:connector-curvature="0"
     style="color:#000000;display:inline;overflow:visible;visibility:visible;opacity:0.1;fill:#000000;fill-opacity:1;fill-rule:nonzero;stroke:none;stroke-width:3;marker:none;enable-background:accumulate"
     id="path3906"
     d="m 41.283922,12.953125 c -4.546143,0 -8.296875,3.750732 -8.296875,8.296875 v 12.140625 c 1.53e-4,7.67e-4 -0.0471,-0.281999 -0.04687,-0.28125 2.28e-4,7.48e-4 -0.09405,-0.281971 -0.09375,-0.28125 3e-4,7.21e-4 -0.141,-0.235063 -0.140625,-0.234375 3.69e-4,6.88e-4 -0.14106,-0.2819 -0.140625,-0.28125 4.35e-4,6.5e-4 -0.187997,-0.234979 -0.1875,-0.234375 4.96e-4,6.04e-4 -0.188052,-0.234927 -0.1875,-0.234375 5.52e-4,5.52e-4 -0.23498,-0.187997 -0.234375,-0.1875 6.04e-4,4.97e-4 -0.235025,-0.187935 -0.234375,-0.1875 6.49e-4,4.35e-4 -0.281939,-0.141 -0.28125,-0.140625 6.88e-4,3.69e-4 -0.235097,-0.140925 -0.234375,-0.140625 7.21e-4,3e-4 -0.281999,-0.09398 -0.28125,-0.09375 7.48e-4,2.28e-4 -0.282017,-0.04703 -0.28125,-0.04687 7.66e-4,1.53e-4 -0.328904,-0.04695 -0.328125,-0.04687 7.78e-4,7.8e-5 -0.282032,-0.04687 -0.28125,-0.04687 h -8.90625 c 2.13e-4,10e-6 -0.06065,-5e-6 -0.09375,0 -0.01656,10e-7 -0.02698,0 -0.04687,0 4.26e-4,2e-5 -0.107955,3e-6 -0.1875,0 -0.05965,-1e-6 -0.14094,1.5e-5 -0.140625,0 A 1.5264396,1.5264396 0 0 0 20.471422,31 c 6.84e-4,-1.32e-4 -0.281921,0.04707 -0.28125,0.04687 6.7e-4,-1.91e-4 -0.235026,0.094 -0.234375,0.09375 6.51e-4,-2.49e-4 -0.235002,0.09405 -0.234375,0.09375 6.27e-4,-3.04e-4 -0.234974,0.140985 -0.234375,0.140625 5.98e-4,-3.57e-4 -0.234939,0.14103 -0.234375,0.140625 5.64e-4,-4.08e-4 -0.188027,0.187956 -0.1875,0.1875 5.26e-4,-4.56e-4 -0.187985,0.188001 -0.1875,0.1875 4.84e-4,-5.01e-4 -0.18794,0.188041 -0.1875,0.1875 4.39e-4,-5.41e-4 -0.141015,0.188078 -0.140625,0.1875 3.9e-4,-5.78e-4 -0.14097,0.234984 -0.140625,0.234375 3.39e-4,-6.09e-4 -0.14091,0.235011 -0.140625,0.234375 2.85e-4,-6.36e-4 -0.09398,0.235033 -0.09375,0.234375 2.28e-4,-6.59e-4 -0.09391,0.281926 -0.09375,0.28125 1.69e-4,-6.76e-4 -0.04698,0.235063 -0.04687,0.234375 1.09e-4,-6.88e-4 -5e-5,0.281945 0,0.28125 4.2e-5,-5.82e-4 -0.04523,0.174303 -0.04687,0.234375 -3.21e-4,0.0117 1e-6,0.047 0,0.04687 V 40 c -2e-6,-7.82e-4 0.04695,0.282028 0.04687,0.28125 -7.8e-5,-7.78e-4 0.04703,0.328891 0.04687,0.328125 -1.53e-4,-7.66e-4 0.0471,0.281998 0.04687,0.28125 -2.28e-4,-7.49e-4 0.09405,0.281971 0.09375,0.28125 -3e-4,-7.21e-4 0.141,0.235063 0.140625,0.234375 -3.69e-4,-6.88e-4 0.14106,0.2819 0.140625,0.28125 -4.35e-4,-6.5e-4 0.187996,0.234979 0.1875,0.234375 -4.97e-4,-6.04e-4 0.188052,0.234927 0.1875,0.234375 -5.52e-4,-5.52e-4 0.234979,0.187996 0.234375,0.1875 -6.05e-4,-4.96e-4 0.235024,0.187935 0.234375,0.1875 -6.5e-4,-4.35e-4 0.281938,0.141 0.28125,0.140625 -6.89e-4,-3.69e-4 0.235096,0.140925 0.234375,0.140625 -7.22e-4,-3e-4 0.281998,0.09398 0.28125,0.09375 -7.49e-4,-2.28e-4 0.282016,0.04702 0.28125,0.04687 -7.67e-4,-1.53e-4 0.328903,0.04695 0.328125,0.04687 -7.79e-4,-7.8e-5 0.282031,0.04687 0.28125,0.04687 h 9 c -7.82e-4,10e-7 0.282028,-0.04695 0.28125,-0.04687 -7.79e-4,7.8e-5 0.328891,-0.04702 0.328125,-0.04687 -7.67e-4,1.53e-4 0.281998,-0.0471 0.28125,-0.04687 -7.49e-4,2.28e-4 0.281971,-0.09405 0.28125,-0.09375 -7.22e-4,3e-4 0.235063,-0.141 0.234375,-0.140625 -6.89e-4,3.69e-4 0.281899,-0.14106 0.28125,-0.140625 -6.5e-4,4.35e-4 0.234979,-0.187996 0.234375,-0.1875 -6.05e-4,4.96e-4 0.234927,-0.188052 0.234375,-0.1875 -5.52e-4,5.52e-4 0.187996,-0.234979 0.1875,-0.234375 -4.97e-4,6.04e-4 0.187935,-0.235025 0.1875,-0.234375 -4.35e-4,6.5e-4 0.141,-0.281938 0.140625,-0.28125 -3.69e-4,6.88e-4 0.140925,-0.235096 0.140625,-0.234375 -3e-4,7.21e-4 0.09398,-0.281999 0.09375,-0.28125 -2.28e-4,7.48e-4 0.04703,-0.282016 0.04687,-0.28125 v 7.78125 c 1.53e-4,7.66e-4 -0.0471,-0.281999 -0.04687,-0.28125 2.28e-4,7.48e-4 -0.09405,-0.281971 -0.09375,-0.28125 3e-4,7.21e-4 -0.141,-0.235063 -0.140625,-0.234375 3.69e-4,6.88e-4 -0.14106,-0.2819 -0.140625,-0.28125 4.35e-4,6.5e-4 -0.187997,-0.234979 -0.1875,-0.234375 4.96e-4,6.04e-4 -0.188052,-0.234927 -0.1875,-0.234375 5.52e-4,5.52e-4 -0.23498,-0.187996 -0.234375,-0.1875 6.04e-4,4.96e-4 -0.235025,-0.187935 -0.234375,-0.1875 6.49e-4,4.35e-4 -0.281939,-0.141 -0.28125,-0.140625 6.88e-4,3.69e-4 -0.235097,-0.140925 -0.234375,-0.140625 7.21e-4,3e-4 -0.281999,-0.09398 -0.28125,-0.09375 7.48e-4,2.28e-4 -0.282017,-0.04702 -0.28125,-0.04687 7.66e-4,1.53e-4 -0.328904,-0.04695 -0.328125,-0.04687 7.78e-4,7.8e-5 -0.282032,-0.04687 -0.28125,-0.04687 H 6.127672 c 2.13e-4,1.1e-5 -0.060645,-5e-6 -0.09375,0 -0.01656,1e-6 -0.026985,0 -0.046875,0 4.26e-4,2e-5 -0.107955,3e-6 -0.1875,0 -0.059655,-10e-7 -0.14094,1.5e-5 -0.140625,0 A 1.5264396,1.5264396 0 0 0 5.471422,46 c 6.84e-4,-1.32e-4 -0.2819205,0.04707 -0.28125,0.04687 6.705e-4,-1.91e-4 -0.235026,0.09401 -0.234375,0.09375 6.51e-4,-2.49e-4 -0.235002,0.09405 -0.234375,0.09375 6.27e-4,-3.04e-4 -0.2349735,0.140985 -0.234375,0.140625 5.985e-4,-3.57e-4 -0.234939,0.14103 -0.234375,0.140625 5.64e-4,-4.08e-4 -0.1880265,0.187956 -0.1875,0.1875 5.265e-4,-4.56e-4 -0.1879845,0.188001 -0.1875,0.1875 4.845e-4,-5.01e-4 -0.1879395,0.188041 -0.1875,0.1875 4.395e-4,-5.41e-4 -0.141015,0.188078 -0.140625,0.1875 3.9e-4,-5.78e-4 -0.14097,0.234984 -0.140625,0.234375 3.39e-4,-6.09e-4 -0.14091,0.235011 -0.140625,0.234375 2.85e-4,-6.36e-4 -0.093975,0.235033 -0.09375,0.234375 2.28e-4,-6.59e-4 -0.093915,0.281926 -0.09375,0.28125 1.695e-4,-6.76e-4 -0.04698,0.235063 -0.046875,0.234375 1.095e-4,-6.88e-4 -4.95e-5,0.281945 0,0.28125 4.2e-5,-5.82e-4 -0.045225,0.174303 -0.046875,0.234375 -3.21e-4,0.0117 1.5e-6,0.047 0,0.04687 V 55 c -1.5e-6,-7.82e-4 0.04695,0.282028 0.046875,0.28125 -7.8e-5,-7.78e-4 0.047025,0.328891 0.046875,0.328125 -1.53e-4,-7.66e-4 0.0471,0.281998 0.046875,0.28125 -2.28e-4,-7.49e-4 0.09405,0.281971 0.09375,0.28125 -3e-4,-7.21e-4 0.141,0.235063 0.140625,0.234375 -3.69e-4,-6.88e-4 0.14106,0.2819 0.140625,0.28125 -4.35e-4,-6.5e-4 0.1879965,0.234979 0.1875,0.234375 -4.965e-4,-6.04e-4 0.188052,0.234927 0.1875,0.234375 -5.52e-4,-5.52e-4 0.2349795,0.187996 0.234375,0.1875 -6.045e-4,-4.96e-4 0.2350245,0.187935 0.234375,0.1875 -6.495e-4,-4.35e-4 0.2819385,0.141 0.28125,0.140625 -6.885e-4,-3.69e-4 0.2350965,0.140925 0.234375,0.140625 -7.215e-4,-3e-4 0.2819985,0.09398 0.28125,0.09375 -7.485e-4,-2.28e-4 0.2820165,0.04702 0.28125,0.04687 -7.665e-4,-1.53e-4 0.3289035,0.04695 0.328125,0.04687 -7.785e-4,-7.8e-5 0.2820315,0.04687 0.28125,0.04687 h 24 c -7.82e-4,10e-7 0.282028,-0.04695 0.28125,-0.04687 -7.79e-4,7.8e-5 0.328891,-0.04702 0.328125,-0.04687 -7.67e-4,1.53e-4 0.281998,-0.0471 0.28125,-0.04687 -7.49e-4,2.28e-4 0.281971,-0.09405 0.28125,-0.09375 -7.22e-4,3e-4 0.235063,-0.141 0.234375,-0.140625 -6.89e-4,3.69e-4 0.281899,-0.14106 0.28125,-0.140625 -6.5e-4,4.35e-4 0.234979,-0.187996 0.234375,-0.1875 -6.05e-4,4.96e-4 0.234927,-0.188052 0.234375,-0.1875 -5.52e-4,5.52e-4 0.187996,-0.234979 0.1875,-0.234375 -4.97e-4,6.04e-4 0.187935,-0.235025 0.1875,-0.234375 -4.35e-4,6.5e-4 0.141,-0.281938 0.140625,-0.28125 -3.69e-4,6.88e-4 0.140925,-0.235096 0.140625,-0.234375 -3e-4,7.21e-4 0.09398,-0.281999 0.09375,-0.28125 -2.28e-4,7.48e-4 0.04703,-0.282016 0.04687,-0.28125 v 7.78125 c 1.53e-4,7.66e-4 -0.0471,-0.281999 -0.04687,-0.28125 2.28e-4,7.48e-4 -0.09405,-0.281971 -0.09375,-0.28125 3e-4,7.21e-4 -0.141,-0.235063 -0.140625,-0.234375 3.69e-4,6.88e-4 -0.14106,-0.2819 -0.140625,-0.28125 4.35e-4,6.5e-4 -0.187997,-0.234979 -0.1875,-0.234375 4.96e-4,6.04e-4 -0.188052,-0.234927 -0.1875,-0.234375 5.52e-4,5.52e-4 -0.23498,-0.187996 -0.234375,-0.1875 6.04e-4,4.96e-4 -0.235025,-0.187935 -0.234375,-0.1875 6.49e-4,4.35e-4 -0.281939,-0.141 -0.28125,-0.140625 6.88e-4,3.69e-4 -0.235097,-0.140925 -0.234375,-0.140625 7.21e-4,3e-4 -0.281999,-0.09398 -0.28125,-0.09375 7.48e-4,2.28e-4 -0.282017,-0.04702 -0.28125,-0.04687 7.66e-4,1.53e-4 -0.328904,-0.04695 -0.328125,-0.04687 7.78e-4,7.8e-5 -0.282032,-0.04687 -0.28125,-0.04687 h -14.90625 c 2.13e-4,1.1e-5 -0.06064,-5e-6 -0.09375,0 -0.01656,1e-6 -0.02698,0 -0.04687,0 4.26e-4,2e-5 -0.107955,3e-6 -0.1875,0 -0.05965,-10e-7 -0.14094,1.5e-5 -0.140625,0 A 1.5264396,1.5264396 0 0 0 14.471422,61 c 6.84e-4,-1.32e-4 -0.281921,0.04707 -0.28125,0.04687 6.7e-4,-1.91e-4 -0.235026,0.09401 -0.234375,0.09375 6.51e-4,-2.49e-4 -0.235002,0.09405 -0.234375,0.09375 6.27e-4,-3.04e-4 -0.234974,0.140985 -0.234375,0.140625 5.98e-4,-3.57e-4 -0.234939,0.14103 -0.234375,0.140625 5.64e-4,-4.08e-4 -0.188027,0.187956 -0.1875,0.1875 5.26e-4,-4.56e-4 -0.187985,0.188001 -0.1875,0.1875 4.84e-4,-5.01e-4 -0.18794,0.188041 -0.1875,0.1875 4.39e-4,-5.41e-4 -0.141015,0.188078 -0.140625,0.1875 3.9e-4,-5.78e-4 -0.14097,0.234984 -0.140625,0.234375 3.39e-4,-6.09e-4 -0.14091,0.235011 -0.140625,0.234375 2.85e-4,-6.36e-4 -0.09398,0.235033 -0.09375,0.234375 2.28e-4,-6.59e-4 -0.09391,0.281926 -0.09375,0.28125 1.69e-4,-6.76e-4 -0.04698,0.235063 -0.04687,0.234375 1.09e-4,-6.88e-4 -4.9e-5,0.281945 0,0.28125 4.2e-5,-5.82e-4 -0.04523,0.174303 -0.04687,0.234375 -3.21e-4,0.0117 2e-6,0.04699 0,0.04687 V 70 c -1e-6,-7.82e-4 0.04695,0.282028 0.04687,0.28125 -7.8e-5,-7.78e-4 0.04702,0.328891 0.04687,0.328125 -1.53e-4,-7.66e-4 0.0471,0.281998 0.04687,0.28125 -2.28e-4,-7.49e-4 0.09405,0.281971 0.09375,0.28125 -3e-4,-7.21e-4 0.141,0.235063 0.140625,0.234375 -3.69e-4,-6.88e-4 0.14106,0.2819 0.140625,0.28125 -4.35e-4,-6.5e-4 0.187996,0.23498 0.1875,0.234375 -4.97e-4,-6.05e-4 0.188052,0.234927 0.1875,0.234375 -5.52e-4,-5.52e-4 0.234979,0.187996 0.234375,0.1875 -6.05e-4,-4.96e-4 0.235024,0.187935 0.234375,0.1875 -6.5e-4,-4.35e-4 0.281938,0.141 0.28125,0.140625 -6.89e-4,-3.69e-4 0.235096,0.140925 0.234375,0.140625 -7.22e-4,-3e-4 0.281998,0.09398 0.28125,0.09375 -7.49e-4,-2.28e-4 0.282016,0.04703 0.28125,0.04687 -7.67e-4,-1.53e-4 0.328903,0.04695 0.328125,0.04687 -7.79e-4,-7.8e-5 0.282031,0.04687 0.28125,0.04687 h 15 c -7.82e-4,1e-6 0.282028,-0.04695 0.28125,-0.04687 -7.79e-4,7.8e-5 0.328891,-0.04703 0.328125,-0.04687 -7.67e-4,1.53e-4 0.281998,-0.0471 0.28125,-0.04687 -7.49e-4,2.28e-4 0.281971,-0.09405 0.28125,-0.09375 -7.22e-4,3e-4 0.235063,-0.141 0.234375,-0.140625 -6.89e-4,3.69e-4 0.281899,-0.14106 0.28125,-0.140625 -6.5e-4,4.35e-4 0.234979,-0.187996 0.234375,-0.1875 -6.05e-4,4.96e-4 0.234927,-0.188052 0.234375,-0.1875 -5.52e-4,5.52e-4 0.187996,-0.23498 0.1875,-0.234375 -4.97e-4,6.05e-4 0.187935,-0.235025 0.1875,-0.234375 -4.35e-4,6.5e-4 0.141,-0.281938 0.140625,-0.28125 -3.69e-4,6.88e-4 0.140925,-0.235096 0.140625,-0.234375 -3e-4,7.21e-4 0.09398,-0.281999 0.09375,-0.28125 -2.28e-4,7.48e-4 0.04703,-0.282016 0.04687,-0.28125 V 76.75 c 0,4.546143 3.750732,8.296875 8.296875,8.296875 h 43.5 c 4.546143,0 8.296875,-3.750732 8.296875,-8.296875 v -55.5 c 0,-4.546143 -3.750732,-8.296875 -8.296875,-8.296875 z m 6.796875,15.09375 h 29.90625 v 41.90625 h -29.90625 z" />
  <path
     inkscape:connector-curvature="0"
     style="color:#000000;display:inline;overflow:visible;visibility:visible;opacity:0.15;fill:#000000;fill-opacity:1;fill-rule:nonzero;stroke:none;stroke-width:3;marker:none;enable-background:accumulate"
     id="path3902"
     d="m 41.283922,14.5 c -3.714737,0 -6.75,3.035263 -6.75,6.75 v 55.5 c 0,3.714736 3.035263,6.75 6.75,6.75 h 43.5 c 3.714736,0 6.75,-3.035264 6.75,-6.75 v -55.5 c 0,-3.714737 -3.035264,-6.75 -6.75,-6.75 z m 6.75,12 h 30 c 0.855763,0 1.5,0.644236 1.5,1.5 v 42 c 0,0.855763 -0.644237,1.5 -1.5,1.5 h -30 c -0.855764,0 -1.5,-0.644237 -1.5,-1.5 V 28 c 0,-0.855764 0.644236,-1.5 1.5,-1.5 z m -27.140625,6 A 1.5023526,1.5023526 0 0 0 19.533922,34 v 6 a 1.5023526,1.5023526 0 0 0 1.5,1.5 h 9 a 1.5023526,1.5023526 0 0 0 1.5,-1.5 v -6 a 1.5023526,1.5023526 0 0 0 -1.5,-1.5 h -9 a 1.5023526,1.5023526 0 0 0 -0.140625,0 z m -15,15 A 1.5023526,1.5023526 0 0 0 4.533922,49 v 6 a 1.5023526,1.5023526 0 0 0 1.5,1.5 h 24 a 1.5023526,1.5023526 0 0 0 1.5,-1.5 v -6 a 1.5023526,1.5023526 0 0 0 -1.5,-1.5 h -24 a 1.5023526,1.5023526 0 0 0 -0.140625,0 z m 9,15 A 1.5023526,1.5023526 0 0 0 13.533922,64 v 6 a 1.5023526,1.5023526 0 0 0 1.5,1.5 h 15 a 1.5023526,1.5023526 0 0 0 1.5,-1.5 v -6 a 1.5023526,1.5023526 0 0 0 -1.5,-1.5 h -15 a 1.5023526,1.5023526 0 0 0 -0.140625,0 z" />
  <path
     style="color:#000000;display:inline;overflow:visible;visibility:visible;opacity:0.3;fill:#000000;fill-opacity:1;fill-rule:nonzero;stroke:none;stroke-width:3;marker:none;enable-background:accumulate"
     id="path3896"
     inkscape:connector-curvature="0"
     d="m 41.283922,16 c -2.9085,0 -5.25,2.3415 -5.25,5.25 v 55.5 c 0,2.9085 2.3415,5.25 5.25,5.25 h 43.5 c 2.9085,0 5.25,-2.3415 5.25,-5.25 v -55.5 c 0,-2.9085 -2.3415,-5.25 -5.25,-5.25 z m 6.75,9 h 30 c 1.662,0 3,1.338 3,3 v 42 c 0,1.662 -1.338,3 -3,3 h -30 c -1.662,0 -3,-1.338 -3,-3 V 28 c 0,-1.662 1.338,-3 3,-3 z m -27,9 v 6 h 9 v -6 z m -15,15 v 6 h 24 v -6 z m 9,15 v 6 h 15 v -6 z" />
  <rect
     style="color:#000000;display:inline;overflow:visible;visibility:visible;fill:url(#linearGradient3905);fill-opacity:1;fill-rule:nonzero;stroke:none;stroke-width:2;marker:none;enable-background:accumulate"
     id="rect3897"
     transform="matrix(0,1,1,0,0,0)"
     y="104"
     x="0"
     height="16"
     width="16" />
  <text
     style="font-style:normal;font-variant:normal;font-weight:normal;font-stretch:normal;font-size:4px;line-height:125%;font-family:'Liberation Sans';-inkscape-font-specification:'Liberation Sans';text-align:start;letter-spacing:0px;word-spacing:0px;writing-mode:lr-tb;text-anchor:start;fill:#000000;fill-opacity:1;stroke:none"
     xml:space="preserve"
     id="text3907"
     y="48"
     x="104"><tspan
       id="tspan3909"
       y="48"
       x="104">Shadow opacity : 30, 15, 10, (8)</tspan></text>
  <rect
     style="color:#000000;display:inline;overflow:visible;visibility:visible;fill:url(#linearGradient3913);fill-opacity:1;fill-rule:nonzero;stroke:none;stroke-width:2;marker:none;enable-background:accumulate"
     id="rect3911"
     transform="rotate(-90)"
     y="104"
     x="-40"
     height="16"
     width="16" />
  <text
     style="font-style:normal;font-variant:normal;font-weight:normal;font-stretch:normal;font-size:4px;line-height:125%;font-family:'Liberation Sans';-inkscape-font-specification:'Liberation Sans';text-align:start;letter-spacing:0px;word-spacing:0px;writing-mode:lr-tb;text-anchor:start;fill:#000000;fill-opacity:1;stroke:none"
     xml:space="preserve"
     id="text3951"
     y="32"
     x="124"><tspan
       id="tspan3953"
       y="32"
       x="124">Bevel opacity : 30 / 10</tspan></text>
  <text
     style="font-style:normal;font-variant:normal;font-weight:normal;font-stretch:normal;font-size:4px;line-height:125%;font-family:'Liberation Sans';-inkscape-font-specification:'Liberation Sans';text-align:start;letter-spacing:0px;word-spacing:0px;writing-mode:lr-tb;text-anchor:start;fill:#000000;fill-opacity:1;stroke:none"
     xml:space="preserve"
     id="text3955"
     y="8"
     x="124"><tspan
       id="tspan3957"
       y="8"
       x="124">Bevel opacity : 75 / 15</tspan></text>
  <path
     style="color:#000000;display:inline;overflow:visible;visibility:visible;fill:url(#linearGradient3100);fill-opacity:1;fill-rule:nonzero;stroke:none;stroke-width:3;marker:none;enable-background:accumulate"
     id="rect3083"
     inkscape:connector-curvature="0"
     d="m 41.283922,14.5 c -2.9085,0 -5.25,2.3415 -5.25,5.25 v 55.5 c 0,2.9085 2.3415,5.25 5.25,5.25 h 43.5 c 2.9085,0 5.25,-2.3415 5.25,-5.25 v -55.5 c 0,-2.9085 -2.3415,-5.25 -5.25,-5.25 z m 6.75,9 h 30 c 1.662,0 3,1.338 3,3 v 42 c 0,1.662 -1.338,3 -3,3 h -30 c -1.662,0 -3,-1.338 -3,-3 v -42 c 0,-1.662 1.338,-3 3,-3 z m -27,9 v 6 h 9 v -6 z m -15,15 v 6 h 24 v -6 z m 9,15 v 6 h 15 v -6 z" />
  <path
     style="color:#000000;display:inline;overflow:visible;visibility:visible;opacity:0.75;fill:#ffffff;fill-opacity:1;fill-rule:nonzero;stroke:none;stroke-width:3;marker:none;enable-background:accumulate"
     id="path3110"
     inkscape:connector-curvature="0"
     d="m 41.283922,14.5 c -2.9085,0 -5.25,2.3415 -5.25,5.25 v 1.5 c 0,-2.9085 2.3415,-5.25 5.25,-5.25 h 43.5 c 2.9085,0 5.25,2.3415 5.25,5.25 v -1.5 c 0,-2.9085 -2.3415,-5.25 -5.25,-5.25 z m -20.25,18 V 34 h 9 v -1.5 z m -15,15 V 49 h 24 v -1.5 z m 9,15 V 64 h 15 v -1.5 z m 30,6 V 70 c 0,1.662 1.338,3 3,3 h 30 c 1.662,0 3,-1.338 3,-3 v -1.5 c 0,1.662 -1.338,3 -3,3 h -30 c -1.662,0 -3,-1.338 -3,-3 z" />
  <path
     style="color:#000000;display:inline;overflow:visible;visibility:visible;opacity:0.15;fill:#000000;fill-opacity:1;fill-rule:nonzero;stroke:none;stroke-width:3;marker:none;enable-background:accumulate"
     id="path3887"
     inkscape:connector-curvature="0"
     d="m 48.033922,22 c -1.662,0 -3,1.338 -3,3 v 1.5 c 0,-1.662 1.338,-3 3,-3 h 30 c 1.662,0 3,1.338 3,3 V 25 c 0,-1.662 -1.338,-3 -3,-3 z m -27,15 v 1.5 h 9 V 37 Z m -15,15 v 1.5 h 24 V 52 Z m 9,15 v 1.5 h 15 V 67 Z m 21,6.75 v 1.5 c 0,2.9085 2.3415,5.25 5.25,5.25 h 43.5 c 2.9085,0 5.25,-2.3415 5.25,-5.25 v -1.5 c 0,2.9085 -2.3415,5.25 -5.25,5.25 h -43.5 c -2.9085,0 -5.25,-2.3415 -5.25,-5.25 z" />
</svg>
