<?xml version="1.0" encoding="UTF-8" standalone="no"?>
<!-- Created with Inkscape (http://www.inkscape.org/) -->

<svg
   xmlns:dc="http://purl.org/dc/elements/1.1/"
   xmlns:cc="http://creativecommons.org/ns#"
   xmlns:rdf="http://www.w3.org/1999/02/22-rdf-syntax-ns#"
   xmlns:svg="http://www.w3.org/2000/svg"
   xmlns="http://www.w3.org/2000/svg"
   xmlns:xlink="http://www.w3.org/1999/xlink"
   xmlns:sodipodi="http://sodipodi.sourceforge.net/DTD/sodipodi-0.dtd"
   xmlns:inkscape="http://www.inkscape.org/namespaces/inkscape"
   version="1.0"
   width="96"
   height="96"
   id="svg2408"
   sodipodi:docname="edit-undo.svg"
   inkscape:version="0.92.2 2405546, 2018-03-11">
  <sodipodi:namedview
     pagecolor="#ffffff"
     bordercolor="#666666"
     borderopacity="1"
     objecttolerance="10"
     gridtolerance="10"
     guidetolerance="10"
     inkscape:pageopacity="0"
     inkscape:pageshadow="2"
     inkscape:window-width="750"
     inkscape:window-height="480"
     id="namedview2293"
     showgrid="false"
     inkscape:zoom="2.4583333"
     inkscape:cx="48"
     inkscape:cy="48"
     inkscape:window-x="52"
     inkscape:window-y="0"
     inkscape:window-maximized="0"
     inkscape:current-layer="svg2408" />
  <defs
     id="defs2410">
    <linearGradient
       id="linearGradient3637">
      <stop
         id="stop3639"
         style="stop-color:#f0f0f0;stop-opacity:1"
         offset="0" />
      <stop
         id="stop3641"
         style="stop-color:#aaaaaa;stop-opacity:1"
         offset="1" />
    </linearGradient>
    <linearGradient
       x1="45.447727"
       y1="92.539597"
       x2="45.447727"
       y2="7.0165396"
       id="ButtonShadow"
       gradientUnits="userSpaceOnUse"
       gradientTransform="scale(1.0058652,0.994169)">
      <stop
         id="stop3750"
         style="stop-color:#000000;stop-opacity:1"
         offset="0" />
      <stop
         id="stop3752"
         style="stop-color:#000000;stop-opacity:0.58823532"
         offset="1" />
    </linearGradient>
    <linearGradient
       id="linearGradient3737">
      <stop
         id="stop3739"
         style="stop-color:#ffffff;stop-opacity:1"
         offset="0" />
      <stop
         id="stop3741"
         style="stop-color:#ffffff;stop-opacity:0"
         offset="1" />
    </linearGradient>
    <linearGradient
       id="linearGradient3700">
      <stop
         id="stop3702"
         style="stop-color:#2276c5;stop-opacity:1"
         offset="0" />
      <stop
         id="stop3704"
         style="stop-color:#68baf4;stop-opacity:1"
         offset="1" />
    </linearGradient>
    <filter
       color-interpolation-filters="sRGB"
       id="filter3174">
      <feGaussianBlur
         id="feGaussianBlur3176"
         stdDeviation="1.71" />
    </filter>
    <linearGradient
       x1="36.357143"
       y1="6"
       x2="36.357143"
       y2="63.893143"
       id="linearGradient3188"
       xlink:href="#linearGradient3737"
       gradientUnits="userSpaceOnUse" />
    <filter
       x="-0.192"
       y="-0.192"
       width="1.3839999"
       height="1.3839999"
       color-interpolation-filters="sRGB"
       id="filter3794">
      <feGaussianBlur
         id="feGaussianBlur3796"
         stdDeviation="5.28" />
    </filter>
    <linearGradient
       x1="48"
       y1="20.220806"
       x2="48"
       y2="138.66119"
       id="linearGradient3613"
       xlink:href="#linearGradient3737"
       gradientUnits="userSpaceOnUse" />
    <radialGradient
       cx="48"
       cy="90.171875"
       r="42"
       fx="48"
       fy="90.171875"
       id="radialGradient3619"
       xlink:href="#linearGradient3737"
       gradientUnits="userSpaceOnUse"
       gradientTransform="matrix(1.1573129,0,0,0.99590774,-7.5510206,0.19713193)" />
    <clipPath
       id="clipPath3613">
      <rect
         width="84"
         height="84"
         rx="6"
         ry="6"
         x="6"
         y="6"
         id="rect3615"
         style="fill:#ffffff;fill-opacity:1;fill-rule:nonzero;stroke:none" />
    </clipPath>
    <linearGradient
       x1="48"
       y1="90"
       x2="48"
       y2="5.9877172"
       id="linearGradient2843"
       xlink:href="#linearGradient3700"
       gradientUnits="userSpaceOnUse"
       gradientTransform="translate(0,100)" />
    <clipPath
       id="clipPath3625">
      <path
         d="M 0,0 0,96 96,96 96,0 0,0 z m 12,6 72,0 c 3.324,0 6,2.676 6,6 l 0,72 c 0,3.324 -2.676,6 -6,6 L 12,90 C 8.676,90 6,87.324 6,84 L 6,12 C 6,8.676 8.676,6 12,6 z"
         inkscape:connector-curvature="0"
         id="path3627"
         style="fill:#ffffff;fill-opacity:1;stroke:none" />
    </clipPath>
    <linearGradient
       x1="44.512066"
       y1="6"
       x2="44.512066"
       y2="90.015434"
       id="linearGradient3643"
       xlink:href="#linearGradient3637"
       gradientUnits="userSpaceOnUse" />
    <clipPath
       id="clipPath3649">
      <rect
         width="76"
         height="76"
         rx="4"
         ry="4"
         x="10"
         y="10"
         id="rect3651"
         style="fill:#ffffff;fill-opacity:1;fill-rule:nonzero;stroke:none" />
    </clipPath>
    <filter
       color-interpolation-filters="sRGB"
       id="filter3657">
      <feGaussianBlur
         id="feGaussianBlur3659"
         stdDeviation="1.14" />
    </filter>
    <linearGradient
       x1="45.447727"
       y1="92.539597"
       x2="45.447727"
       y2="7.0165396"
       id="ButtonShadow-0"
       gradientUnits="userSpaceOnUse"
       gradientTransform="matrix(1.0058652,0,0,0.994169,100,0)">
      <stop
         id="stop3750-8"
         style="stop-color:#000000;stop-opacity:1"
         offset="0" />
      <stop
         id="stop3752-5"
         style="stop-color:#000000;stop-opacity:0.58823532"
         offset="1" />
    </linearGradient>
    <linearGradient
       x1="32.251034"
       y1="6.1317081"
       x2="32.251034"
       y2="90.238609"
       id="linearGradient3780"
       xlink:href="#ButtonShadow-0"
       gradientUnits="userSpaceOnUse"
       gradientTransform="matrix(1.0238095,0,0,-1.0119048,-1.1428571,98.071429)" />
    <linearGradient
       x1="32.251034"
       y1="6.1317081"
       x2="32.251034"
       y2="90.238609"
       id="linearGradient3772"
       xlink:href="#ButtonShadow-0"
       gradientUnits="userSpaceOnUse"
       gradientTransform="matrix(1.0238095,0,0,-1.0119048,-1.1428571,98.071429)" />
    <linearGradient
       x1="32.251034"
       y1="6.1317081"
       x2="32.251034"
       y2="90.238609"
       id="linearGradient3725"
       xlink:href="#ButtonShadow-0"
       gradientUnits="userSpaceOnUse"
       gradientTransform="matrix(1.0238095,0,0,-1.0119048,-1.1428571,98.071429)" />
    <linearGradient
       x1="32.251034"
       y1="6.1317081"
       x2="32.251034"
       y2="90.238609"
       id="linearGradient3721"
       xlink:href="#ButtonShadow-0"
       gradientUnits="userSpaceOnUse"
       gradientTransform="matrix(1,0,0,-1,0,97)" />
    <linearGradient
       x1="32.251034"
       y1="6.1317081"
       x2="32.251034"
       y2="90.238609"
       id="linearGradient3199"
       xlink:href="#ButtonShadow-0"
       gradientUnits="userSpaceOnUse"
       gradientTransform="matrix(1.0238095,0,0,-1.0119048,-1.1428571,98.071429)" />
    <linearGradient
       x1="36.357143"
       y1="6"
       x2="36.357143"
       y2="63.893143"
       id="linearGradient3188-8"
       xlink:href="#linearGradient3737-3"
       gradientUnits="userSpaceOnUse" />
    <linearGradient
       id="linearGradient3737-3">
      <stop
         id="stop3739-6"
         style="stop-color:#ffffff;stop-opacity:1"
         offset="0" />
      <stop
         id="stop3741-1"
         style="stop-color:#ffffff;stop-opacity:0"
         offset="1" />
    </linearGradient>
    <radialGradient
       cx="48"
       cy="90.171875"
       r="42"
       fx="48"
       fy="90.171875"
       id="radialGradient3619-3"
       xlink:href="#linearGradient3737-3"
       gradientUnits="userSpaceOnUse"
       gradientTransform="matrix(1.1573129,0,0,0.99590774,-7.551021,0.1971319)" />
    <linearGradient
       x1="104"
       y1="8"
       x2="120"
       y2="8"
       id="linearGradient3905"
       xlink:href="#linearGradient3637"
       gradientUnits="userSpaceOnUse"
       gradientTransform="translate(-104,104)" />
    <linearGradient
       x1="104"
       y1="8"
       x2="120"
       y2="8"
       id="linearGradient3913"
       xlink:href="#linearGradient3183-0"
       gradientUnits="userSpaceOnUse"
       gradientTransform="translate(-144,104)" />
    <linearGradient
       id="linearGradient3183-0">
      <stop
         id="stop3185-9"
         style="stop-color:#c80000;stop-opacity:1"
         offset="0" />
      <stop
         id="stop3187-6"
         style="stop-color:#f3604d;stop-opacity:1"
         offset="1" />
    </linearGradient>
    <linearGradient
       x1="8.4921026"
       y1="21.51107"
       x2="8.4921026"
       y2="10.134331"
       id="linearGradient3919"
       xlink:href="#linearGradient3637"
       gradientUnits="userSpaceOnUse"
       gradientTransform="matrix(-6.5762914,0,0,-3.1643514,99.338725,93.592072)" />
  </defs>
  <metadata
     id="metadata2413">
    <rdf:RDF>
      <cc:Work
         rdf:about="">
        <dc:format>image/svg+xml</dc:format>
        <dc:type
           rdf:resource="http://purl.org/dc/dcmitype/StillImage" />
        <dc:title />
      </cc:Work>
    </rdf:RDF>
  </metadata>
  <g
     id="layer2"
     style="display:none">
    <rect
       width="86"
       height="85"
       rx="6"
       ry="6"
       x="5"
       y="7"
       clip-path="url(#clipPath3625)"
       id="rect3745"
       style="opacity:0.9;fill:url(#ButtonShadow);fill-opacity:1;fill-rule:nonzero;stroke:none;filter:url(#filter3174)" />
  </g>
  <g
     id="layer1"
     style="display:none">
    <rect
       width="84"
       height="84"
       rx="6"
       ry="6"
       x="6"
       y="6"
       id="rect2419"
       style="opacity:0.8;fill:#000000;fill-opacity:1;fill-rule:nonzero;stroke:none" />
    <path
       d="m 14,10 c -2.216,0 -4,1.784 -4,4 l 0,68 c 0,2.216 1.784,4 4,4 l 68,0 c 2.216,0 4,-1.784 4,-4 l 0,-68 c 0,-2.216 -1.784,-4 -4,-4 l -68,0 z m 0,3.0625 68,0 c 0.578769,0 0.9375,0.358731 0.9375,0.9375 l 0,68 c 0,0.578769 -0.358731,0.9375 -0.9375,0.9375 l -68,0 c -0.578769,0 -0.9375,-0.358731 -0.9375,-0.9375 l 0,-68 c 0,-0.578769 0.358731,-0.9375 0.9375,-0.9375 z"
       inkscape:connector-curvature="0"
       id="rect3726"
       style="opacity:0.07999998;fill:#000000;fill-opacity:1;fill-rule:nonzero;stroke:none" />
    <path
       d="M 12,6 C 8.676,6 6,8.676 6,12 l 0,72 c 0,3.324 2.676,6 6,6 l 72,0 c 3.324,0 6,-2.676 6,-6 L 90,12 C 90,8.676 87.324,6 84,6 L 12,6 z m 2,4 68,0 c 2.216,0 4,1.784 4,4 l 0,68 c 0,2.216 -1.784,4 -4,4 l -68,0 c -2.216,0 -4,-1.784 -4,-4 l 0,-68 c 0,-2.216 1.784,-4 4,-4 z"
       inkscape:connector-curvature="0"
       id="rect3629"
       style="fill:url(#linearGradient3643);fill-opacity:1;fill-rule:nonzero;stroke:none" />
    <path
       d="M 12,6 C 8.676,6 6,8.676 6,12 l 0,2 0,68 0,2 c 0,0.334721 0.04135,0.6507 0.09375,0.96875 0.0487,0.295596 0.09704,0.596915 0.1875,0.875 0.00988,0.03038 0.020892,0.0636 0.03125,0.09375 0.098865,0.287771 0.2348802,0.547452 0.375,0.8125 0.1445918,0.273507 0.3156161,0.535615 0.5,0.78125 0.1843839,0.245635 0.3737765,0.473472 0.59375,0.6875 0.439947,0.428056 0.94291,0.814526 1.5,1.09375 0.278545,0.139612 0.5734731,0.246947 0.875,0.34375 -0.2562018,-0.100222 -0.4867109,-0.236272 -0.71875,-0.375 -0.00741,-0.0044 -0.023866,0.0045 -0.03125,0 -0.031933,-0.0193 -0.062293,-0.04251 -0.09375,-0.0625 -0.120395,-0.0767 -0.2310226,-0.163513 -0.34375,-0.25 -0.1061728,-0.0808 -0.2132809,-0.161112 -0.3125,-0.25 C 8.4783201,88.557317 8.3087904,88.373362 8.15625,88.1875 8.0486711,88.057245 7.9378561,87.922215 7.84375,87.78125 7.818661,87.74287 7.805304,87.69538 7.78125,87.65625 7.716487,87.553218 7.6510225,87.451733 7.59375,87.34375 7.4927417,87.149044 7.3880752,86.928049 7.3125,86.71875 7.30454,86.69694 7.288911,86.6782 7.28125,86.65625 7.2494249,86.5643 7.2454455,86.469419 7.21875,86.375 7.1884177,86.268382 7.1483606,86.171969 7.125,86.0625 7.0521214,85.720988 7,85.364295 7,85 L 7,83 7,15 7,13 C 7,10.218152 9.2181517,8 12,8 l 2,0 68,0 2,0 c 2.781848,0 5,2.218152 5,5 l 0,2 0,68 0,2 c 0,0.364295 -0.05212,0.720988 -0.125,1.0625 -0.04415,0.206893 -0.08838,0.397658 -0.15625,0.59375 -0.0077,0.02195 -0.0233,0.04069 -0.03125,0.0625 -0.06274,0.173739 -0.138383,0.367449 -0.21875,0.53125 -0.04158,0.0828 -0.07904,0.169954 -0.125,0.25 -0.0546,0.09721 -0.126774,0.18835 -0.1875,0.28125 -0.09411,0.140965 -0.204921,0.275995 -0.3125,0.40625 -0.143174,0.17445 -0.303141,0.346998 -0.46875,0.5 -0.01117,0.0102 -0.01998,0.02115 -0.03125,0.03125 -0.138386,0.125556 -0.285091,0.234436 -0.4375,0.34375 -0.102571,0.07315 -0.204318,0.153364 -0.3125,0.21875 -0.0074,0.0045 -0.02384,-0.0044 -0.03125,0 -0.232039,0.138728 -0.462548,0.274778 -0.71875,0.375 0.301527,-0.0968 0.596455,-0.204138 0.875,-0.34375 0.55709,-0.279224 1.060053,-0.665694 1.5,-1.09375 0.219973,-0.214028 0.409366,-0.441865 0.59375,-0.6875 0.184384,-0.245635 0.355408,-0.507743 0.5,-0.78125 0.14012,-0.265048 0.276135,-0.524729 0.375,-0.8125 0.01041,-0.03078 0.02133,-0.06274 0.03125,-0.09375 0.09046,-0.278085 0.1388,-0.579404 0.1875,-0.875 C 89.95865,84.6507 90,84.334721 90,84 l 0,-2 0,-68 0,-2 C 90,8.676 87.324,6 84,6 L 12,6 z"
       inkscape:connector-curvature="0"
       id="rect3728"
       style="fill:url(#linearGradient3188);fill-opacity:1;fill-rule:nonzero;stroke:none" />
    <path
       d="M 12,90 C 8.676,90 6,87.324 6,84 L 6,82 6,14 6,12 c 0,-0.334721 0.04135,-0.6507 0.09375,-0.96875 0.0487,-0.295596 0.09704,-0.596915 0.1875,-0.875 C 6.29113,10.12587 6.302142,10.09265 6.3125,10.0625 6.411365,9.774729 6.5473802,9.515048 6.6875,9.25 6.8320918,8.976493 7.0031161,8.714385 7.1875,8.46875 7.3718839,8.223115 7.5612765,7.995278 7.78125,7.78125 8.221197,7.353194 8.72416,6.966724 9.28125,6.6875 9.559795,6.547888 9.8547231,6.440553 10.15625,6.34375 9.9000482,6.443972 9.6695391,6.580022 9.4375,6.71875 c -0.00741,0.0044 -0.023866,-0.0045 -0.03125,0 -0.031933,0.0193 -0.062293,0.04251 -0.09375,0.0625 -0.120395,0.0767 -0.2310226,0.163513 -0.34375,0.25 -0.1061728,0.0808 -0.2132809,0.161112 -0.3125,0.25 C 8.4783201,7.442683 8.3087904,7.626638 8.15625,7.8125 8.0486711,7.942755 7.9378561,8.077785 7.84375,8.21875 7.818661,8.25713 7.805304,8.30462 7.78125,8.34375 7.716487,8.446782 7.6510225,8.548267 7.59375,8.65625 7.4927417,8.850956 7.3880752,9.071951 7.3125,9.28125 7.30454,9.30306 7.288911,9.3218 7.28125,9.34375 7.2494249,9.4357 7.2454455,9.530581 7.21875,9.625 7.1884177,9.731618 7.1483606,9.828031 7.125,9.9375 7.0521214,10.279012 7,10.635705 7,11 l 0,2 0,68 0,2 c 0,2.781848 2.2181517,5 5,5 l 2,0 68,0 2,0 c 2.781848,0 5,-2.218152 5,-5 l 0,-2 0,-68 0,-2 C 89,10.635705 88.94788,10.279012 88.875,9.9375 88.83085,9.730607 88.78662,9.539842 88.71875,9.34375 88.71105,9.3218 88.69545,9.30306 88.6875,9.28125 88.62476,9.107511 88.549117,8.913801 88.46875,8.75 88.42717,8.6672 88.38971,8.580046 88.34375,8.5 88.28915,8.40279 88.216976,8.31165 88.15625,8.21875 88.06214,8.077785 87.951329,7.942755 87.84375,7.8125 87.700576,7.63805 87.540609,7.465502 87.375,7.3125 87.36383,7.3023 87.35502,7.29135 87.34375,7.28125 87.205364,7.155694 87.058659,7.046814 86.90625,6.9375 86.803679,6.86435 86.701932,6.784136 86.59375,6.71875 c -0.0074,-0.0045 -0.02384,0.0044 -0.03125,0 -0.232039,-0.138728 -0.462548,-0.274778 -0.71875,-0.375 0.301527,0.0968 0.596455,0.204138 0.875,0.34375 0.55709,0.279224 1.060053,0.665694 1.5,1.09375 0.219973,0.214028 0.409366,0.441865 0.59375,0.6875 0.184384,0.245635 0.355408,0.507743 0.5,0.78125 0.14012,0.265048 0.276135,0.524729 0.375,0.8125 0.01041,0.03078 0.02133,0.06274 0.03125,0.09375 0.09046,0.278085 0.1388,0.579404 0.1875,0.875 C 89.95865,11.3493 90,11.665279 90,12 l 0,2 0,68 0,2 c 0,3.324 -2.676,6 -6,6 l -72,0 z"
       inkscape:connector-curvature="0"
       id="path3615"
       style="opacity:0.6;fill:url(#radialGradient3619);fill-opacity:1;fill-rule:nonzero;stroke:none" />
    <rect
       width="84"
       height="84"
       rx="6"
       ry="6"
       x="6"
       y="106"
       id="rect2841"
       style="fill:url(#linearGradient2843);fill-opacity:1;fill-rule:nonzero;stroke:none" />
    <rect
       width="76"
       height="76"
       rx="4"
       ry="4"
       x="10"
       y="110"
       id="rect3634"
       style="fill:#ff0000;fill-opacity:1;fill-rule:nonzero;stroke:none" />
    <path
       d="m 14,9 c -2.752703,0 -5,2.247297 -5,5 l 0,68 c 0,2.752703 2.247297,5 5,5 l 68,0 c 2.752703,0 5,-2.247297 5,-5 L 87,14 C 87,11.247297 84.752703,9 82,9 L 14,9 z m 0,2 68,0 c 1.679297,0 3,1.320703 3,3 l 0,68 c 0,1.679297 -1.320703,3 -3,3 l -68,0 c -1.679297,0 -3,-1.320703 -3,-3 l 0,-68 c 0,-1.679297 1.320703,-3 3,-3 z"
       inkscape:connector-curvature="0"
       transform="translate(-110,0)"
       clip-path="url(#clipPath3649)"
       id="rect3647"
       style="font-size:medium;font-style:normal;font-variant:normal;font-weight:normal;font-stretch:normal;text-indent:0;text-align:start;text-decoration:none;line-height:normal;letter-spacing:normal;word-spacing:normal;text-transform:none;direction:ltr;block-progression:tb;writing-mode:lr-tb;text-anchor:start;color:#000000;fill:#000000;fill-opacity:1;stroke:none;stroke-width:2;marker:none;visibility:visible;display:inline;overflow:visible;filter:url(#filter3657);enable-background:accumulate;font-family:Abandoned Bitplane;-inkscape-font-specification:Abandoned Bitplane" />
    <path
       d="m 14.089286,10 c -2.216,0 -4,1.784 -4,4 l 0,68 c 0,2.216 1.784,4 4,4 l 68,0 c 2.216,0 4,-1.784 4,-4 l 0,-68 c 0,-2.216 -1.784,-4 -4,-4 l -68,0 z m 0,2 68,0 c 1.140301,0 2,0.859699 2,2 l 0,68 c 0,1.140301 -0.859699,2 -2,2 l -68,0 c -1.140301,0 -2,-0.859699 -2,-2 l 0,-68 c 0,-1.140301 0.859699,-2 2,-2 z"
       inkscape:connector-curvature="0"
       id="path3709"
       style="opacity:0.16000001;fill:#000000;fill-opacity:1;fill-rule:nonzero;stroke:none" />
    <path
       d="m 14,10 c -2.216,0 -4,1.784 -4,4 l 0,68 c 0,2.216 1.784,4 4,4 l 68,0 c 2.216,0 4,-1.784 4,-4 l 0,-68 c 0,-2.216 -1.784,-4 -4,-4 l -68,0 z m 0,1 68,0 c 1.673848,0 3,1.326152 3,3 l 0,68 c 0,1.673848 -1.326152,3 -3,3 l -68,0 c -1.673848,0 -3,-1.326152 -3,-3 l 0,-68 c 0,-1.673848 1.326152,-3 3,-3 z"
       inkscape:connector-curvature="0"
       id="path3707"
       style="opacity:0.36000001;fill:#000000;fill-opacity:1;fill-rule:nonzero;stroke:none" />
  </g>
  <g
     id="layer5"
     style="display:none">
    <rect
       width="66"
       height="66"
       rx="12"
       ry="12"
       x="15"
       y="15"
       clip-path="url(#clipPath3613)"
       id="rect3171"
       style="opacity:0.1;fill:url(#linearGradient3613);fill-opacity:1;fill-rule:nonzero;stroke:#ffffff;stroke-width:0.5;stroke-linecap:round;stroke-linejoin:miter;stroke-miterlimit:4;stroke-opacity:1;stroke-dasharray:none;stroke-dashoffset:0;filter:url(#filter3794)" />
  </g>
  <path
     inkscape:connector-curvature="0"
     style="display:inline;opacity:0.1;fill:#000000;fill-opacity:1;stroke:none;stroke-width:1.5"
     id="path3949"
     d="m 51.179684,23.92974 c -9.004361,-0.03684 -17.897445,3.150312 -25.21875,9.140625 l -6.984375,-6.9375 v 0.04687 c 8.7e-4,8.98e-4 -0.04019,0.0065 -0.04687,0 0,0 0.04687,-0.04687 0.04687,-0.04687 -0.03345,-0.03207 -0.145275,-0.09793 -0.140625,-0.09375 0.0055,0.005 -0.146535,-0.145245 -0.140625,-0.140625 0.0058,0.0047 -0.193718,-0.144825 -0.1875,-0.140625 0.0061,0.0042 -0.14712,-0.09751 -0.140625,-0.09375 0.0064,0.0038 -0.194238,-0.09707 -0.1875,-0.09375 0.0067,0.0033 -0.194451,-0.09658 -0.1875,-0.09375 0.0069,0.0029 -0.19463,-0.04923 -0.1875,-0.04687 0.0072,0.0024 -0.24165,-0.09561 -0.234375,-0.09375 0.0073,0.0018 -0.194886,-0.04822 -0.1875,-0.04687 0.0073,0.0013 -0.194961,-8.34e-4 -0.1875,0 0.0075,8.34e-4 -0.241875,-0.04719 -0.234375,-0.04687 0.0075,3.18e-4 -0.195005,2.01e-4 -0.1875,0 0.0075,-2.01e-4 -0.194973,0.0476 -0.1875,0.04687 0.0075,-7.17e-4 -0.241781,0.0012 -0.234375,0 0.0073,-0.0012 -0.194804,0.04862 -0.1875,0.04687 0.0073,-0.0018 -0.194666,0.04911 -0.1875,0.04687 0.0072,-0.0023 -0.194495,0.09648 -0.1875,0.09375 0.007,-0.0027 -0.194289,0.05009 -0.1875,0.04687 0.0068,-0.0031 -0.194052,0.09741 -0.1875,0.09375 0.0066,-0.0036 -0.193784,0.144735 -0.1875,0.140625 0.0063,-0.004 -0.14661,0.09828 -0.140625,0.09375 0.006,-0.0045 -0.193158,0.14556 -0.1875,0.140625 0.0057,-0.0049 -0.145935,0.145935 -0.140625,0.140625 0.0053,-0.0053 -0.145545,0.146295 -0.140625,0.140625 0.005,-0.0057 -0.145155,0.146625 -0.140625,0.140625 0.0045,-0.006 -0.09784,0.193789 -0.09375,0.1875 0.004,-0.0063 -0.09741,0.194058 -0.09375,0.1875 0.0036,-0.0066 -0.09694,0.194295 -0.09375,0.1875 0.0031,-0.0068 -0.09647,0.194499 -0.09375,0.1875 0.0027,-0.007 -0.09597,0.194668 -0.09375,0.1875 0.0023,-0.0072 -0.0486,0.194806 -0.04687,0.1875 0.0018,-0.0073 -0.04809,0.194907 -0.04687,0.1875 L 7.5859337,62.46099 h 0.046875 c -0.00795,0.0496 -0.047535,0.145665 -0.046875,0.140625 8.67e-4,-0.0066 -4.635e-4,0.194125 0,0.1875 4.635e-4,-0.0066 -0.046935,0.194142 -0.046875,0.1875 5.85e-5,-0.0066 3.48e-4,0.194133 0,0.1875 -3.48e-4,-0.0066 0.047625,0.194098 0.046875,0.1875 -7.515e-4,-0.0066 0.00115,0.147165 0,0.140625 -0.00115,-0.0066 0.04842,0.193959 0.046875,0.1875 -0.0015,-0.0065 0.04881,0.193851 0.046875,0.1875 -0.00195,-0.0063 0.0492,0.19372 0.046875,0.1875 -0.0024,-0.0061 0.09645,0.146685 0.09375,0.140625 -0.0027,-0.006 0.09681,0.193392 0.09375,0.1875 -0.003,-0.0058 0.050295,0.14631 0.046875,0.140625 -0.00345,-0.0057 0.14439,0.1461 0.140625,0.140625 -0.00375,-0.0054 0.097845,0.14586 0.09375,0.140625 -0.00405,-0.0052 0.098145,0.145605 0.09375,0.140625 -0.00435,-0.0049 0.14532,0.14532 0.140625,0.140625 -0.00465,-0.0046 0.145605,0.14502 0.140625,0.140625 -0.00495,-0.0044 0.14586,0.09785 0.140625,0.09375 -0.00525,-0.004 0.1461,0.09752 0.140625,0.09375 -0.0054,-0.0037 0.146325,0.144045 0.140625,0.140625 -0.0057,-0.0035 0.14652,0.04995 0.140625,0.04687 -0.00585,-0.003 0.1935675,0.09645 0.1875,0.09375 -0.006,-0.0027 0.14685,0.09607 0.140625,0.09375 -0.00615,-0.0024 0.193851,0.04881 0.1875,0.04687 -0.0063,-0.0019 0.193959,0.04842 0.1875,0.04687 -0.00645,-0.0015 0.1940413,0.04803 0.1875003,0.04687 -0.0066,-0.0012 0.147225,7.51e-4 0.140625,0 -0.0066,-7.52e-4 0.194133,0.04722 0.1875,0.04687 -0.0066,-3.48e-4 0.194142,-5.9e-5 0.1875,0 -0.0066,5.8e-5 0.194125,-0.04734 0.1875,-0.04687 -0.0066,4.63e-4 0.194085,-8.67e-4 0.1875,0 -0.0051,6.63e-4 0.09102,-0.03888 0.140625,-0.04687 v 0.04687 l 34.828125,-6.328125 c -0.0074,0.0012 0.194806,-0.0486 0.1875,-0.04687 -0.0074,0.0018 0.194668,-0.04911 0.1875,-0.04687 -0.0072,0.0022 0.194499,-0.09647 0.1875,-0.09375 -0.007,0.0027 0.194295,-0.09695 0.1875,-0.09375 -0.0068,0.0031 0.194058,-0.09741 0.1875,-0.09375 -0.0066,0.0036 0.193789,-0.09784 0.1875,-0.09375 -0.0063,0.004 0.193492,-0.09827 0.1875,-0.09375 -0.006,0.0045 0.146295,-0.145545 0.140625,-0.140625 -0.0057,0.005 0.145935,-0.145935 0.140625,-0.140625 -0.0053,0.0052 0.14556,-0.14628 0.140625,-0.140625 -0.005,0.0057 0.145155,-0.193485 0.140625,-0.1875 -0.0045,0.006 0.09786,-0.14691 0.09375,-0.140625 -0.004,0.0063 0.144285,-0.194052 0.140625,-0.1875 -0.0036,0.0066 0.09696,-0.194289 0.09375,-0.1875 -0.0032,0.0067 0.0496,-0.194495 0.04687,-0.1875 -0.0027,0.007 0.09598,-0.194666 0.09375,-0.1875 -0.0023,0.0072 0.04861,-0.194804 0.04687,-0.1875 -0.0018,0.0073 0.0481,-0.194906 0.04687,-0.1875 -0.0012,0.0073 7.17e-4,-0.241848 0,-0.234375 -7.17e-4,0.0075 0.04707,-0.195005 0.04687,-0.1875 -2.01e-4,0.0075 -3.18e-4,-0.195 0,-0.1875 3.18e-4,0.0075 -0.04772,-0.241836 -0.04687,-0.234375 8.34e-4,0.0075 -0.0013,-0.194886 0,-0.1875 0.0013,0.0073 -0.04874,-0.194775 -0.04687,-0.1875 0.0018,0.0072 -0.09611,-0.241505 -0.09375,-0.234375 0.0024,0.0072 -0.04971,-0.194451 -0.04687,-0.1875 0.0028,0.0069 -0.09707,-0.194238 -0.09375,-0.1875 0.0033,0.0067 -0.09752,-0.193994 -0.09375,-0.1875 0.0037,0.0065 -0.09795,-0.14685 -0.09375,-0.140625 0.0042,0.0061 -0.145245,-0.193413 -0.140625,-0.1875 0.0046,0.0058 -0.14565,-0.146205 -0.140625,-0.140625 0.0042,0.0046 -0.108555,-0.0603 -0.140625,-0.09375 0,0 0.04687,-0.04687 0.04687,-0.04687 h -0.04687 l -6.65625,-6.65625 c 7.267215,-4.764243 16.962922,-4.295223 23.34375,2.0625 2.070414,2.062918 3.558049,4.480816 4.453125,7.078125 -0.0033,-0.0096 0.09797,0.290563 0.09375,0.28125 -0.0042,-0.0093 0.14571,0.243252 0.140625,0.234375 -0.0051,-0.0089 0.14652,0.242736 0.140625,0.234375 -0.0058,-0.0084 0.194148,0.242145 0.1875,0.234375 -0.0066,-0.0078 0.194848,0.194611 0.1875,0.1875 -0.0073,-0.007 0.195483,0.19389 0.1875,0.1875 -0.0079,-0.0065 0.242923,0.193111 0.234375,0.1875 -0.0085,-0.0055 0.243412,0.14541 0.234375,0.140625 -0.009,-0.0048 0.243822,0.09766 0.234375,0.09375 -0.0095,-0.0039 0.291022,0.09676 0.28125,0.09375 -0.0097,-0.003 0.291262,0.09584 0.28125,0.09375 -0.01005,-0.0021 0.291414,0.048 0.28125,0.04687 -0.0102,-0.0011 0.291474,1.69e-4 0.28125,0 -0.0102,-1.7e-4 0.291445,-7.91e-4 0.28125,0 -0.0102,7.9e-4 0.24445,-0.04862 0.234375,-0.04687 -0.01005,0.0018 0.291117,-0.04956 0.28125,-0.04687 l 14.15625,-3.796875 c -0.0105,0.0027 0.291429,-0.0975 0.28125,-0.09375 -0.0102,0.0037 0.291004,-0.09851 0.28125,-0.09375 -0.0097,0.0048 0.243607,-0.146325 0.234375,-0.140625 -0.0093,0.0057 0.242994,-0.194087 0.234375,-0.1875 -0.0085,0.0066 0.242295,-0.194913 0.234375,-0.1875 -0.0079,0.0073 0.241518,-0.24254 0.234375,-0.234375 -0.0072,0.0081 0.146925,-0.243212 0.140625,-0.234375 -0.0063,0.0088 0.192882,-0.243794 0.1875,-0.234375 -0.0054,0.0095 0.145035,-0.244283 0.140625,-0.234375 -0.0043,0.0099 0.09716,-0.291549 0.09375,-0.28125 -0.0035,0.01035 0.09612,-0.291837 0.09375,-0.28125 -0.0024,0.01065 0.04818,-0.338895 0.04687,-0.328125 -0.0013,0.0108 2.2e-4,-0.292097 0,-0.28125 -2.21e-4,0.0108 -8.61e-4,-0.292064 0,-0.28125 8.61e-4,0.0108 -0.04881,-0.338799 -0.04687,-0.328125 0.002,0.01065 -0.04986,-0.291678 -0.04687,-0.28125 C 86.583309,45.509332 83.291277,39.899347 78.601559,35.226615 71.059736,27.712101 61.116333,23.970402 51.179684,23.92974 Z" />
  <path
     inkscape:connector-curvature="0"
     style="display:inline;opacity:0.15;fill:#000000;fill-opacity:1;stroke:none;stroke-width:1.5"
     id="path3945"
     d="m 51.179684,25.570365 c -9.109349,-0.03727 -18.175299,3.25225 -25.40625,9.65625 l -7.96875,-7.921875 a 1.3193398,1.3193398 0 0 0 -2.25,0.703125 L 9.2265587,62.74224 a 1.3193398,1.3193398 0 0 0 1.5468753,1.546875 L 45.601559,57.96099 a 1.3193398,1.3193398 0 0 0 0.703125,-2.25 l -8.25,-8.203125 c 8.002309,-6.513377 19.782484,-6.159282 27.234375,1.265625 2.255605,2.247441 3.855862,4.913088 4.828125,7.734375 a 1.3193398,1.3193398 0 0 0 1.59375,0.84375 l 14.15625,-3.796875 a 1.3193398,1.3193398 0 0 0 0.9375,-1.640625 C 85.067196,46.231983 81.926571,40.87909 77.429684,36.39849 70.204835,29.199802 60.70742,25.609353 51.179684,25.570365 Z" />
  <path
     style="display:inline;opacity:0.3;fill:#000000;fill-opacity:1;stroke:none;stroke-width:1.5"
     id="path3939"
     inkscape:connector-curvature="0"
     d="M 16.86797,28.260789 10.532085,62.95675 45.354114,56.643802 36.061475,47.384806 c 8.49606,-7.951584 21.853605,-7.786938 30.141922,0.471368 2.403926,2.395225 4.135167,5.212147 5.170088,8.215252 l 14.1586,-3.770931 C 83.857034,46.822549 80.853353,41.645599 76.509779,37.317757 62.565795,23.42427 39.857886,23.459806 25.619943,36.981054 L 16.86797,28.260766 Z" />
  <rect
     style="color:#000000;display:inline;overflow:visible;visibility:visible;fill:url(#linearGradient3905);fill-opacity:1;fill-rule:nonzero;stroke:none;stroke-width:2;marker:none;enable-background:accumulate"
     id="rect3897"
     transform="matrix(0,1,1,0,0,0)"
     y="104"
     x="0"
     height="16"
     width="16" />
  <text
     style="font-style:normal;font-variant:normal;font-weight:normal;font-stretch:normal;font-size:4px;line-height:125%;font-family:'Liberation Sans';-inkscape-font-specification:'Liberation Sans';text-align:start;letter-spacing:0px;word-spacing:0px;writing-mode:lr-tb;text-anchor:start;fill:#000000;fill-opacity:1;stroke:none"
     xml:space="preserve"
     id="text3907"
     y="48"
     x="104"><tspan
       id="tspan3909"
       y="48"
       x="104">Shadow opacity : 30, 15, 10, (8)</tspan></text>
  <rect
     style="color:#000000;display:inline;overflow:visible;visibility:visible;fill:url(#linearGradient3913);fill-opacity:1;fill-rule:nonzero;stroke:none;stroke-width:2;marker:none;enable-background:accumulate"
     id="rect3911"
     transform="rotate(-90)"
     y="104"
     x="-40"
     height="16"
     width="16" />
  <text
     style="font-style:normal;font-variant:normal;font-weight:normal;font-stretch:normal;font-size:4px;line-height:125%;font-family:'Liberation Sans';-inkscape-font-specification:'Liberation Sans';text-align:start;letter-spacing:0px;word-spacing:0px;writing-mode:lr-tb;text-anchor:start;fill:#000000;fill-opacity:1;stroke:none"
     xml:space="preserve"
     id="text3951"
     y="32"
     x="124"><tspan
       id="tspan3953"
       y="32"
       x="124">Bevel opacity : 30 / 10</tspan></text>
  <text
     style="font-style:normal;font-variant:normal;font-weight:normal;font-stretch:normal;font-size:4px;line-height:125%;font-family:'Liberation Sans';-inkscape-font-specification:'Liberation Sans';text-align:start;letter-spacing:0px;word-spacing:0px;writing-mode:lr-tb;text-anchor:start;fill:#000000;fill-opacity:1;stroke:none"
     xml:space="preserve"
     id="text3955"
     y="8"
     x="124"><tspan
       id="tspan3957"
       y="8"
       x="124">Bevel opacity : 75 / 15</tspan></text>
  <path
     style="display:inline;fill:url(#linearGradient3919);fill-opacity:1;stroke:none;stroke-width:1.5"
     id="path3917"
     inkscape:connector-curvature="0"
     d="M 16.86797,26.760789 10.532085,61.45675 45.354114,55.143802 36.061475,45.884806 c 8.49606,-7.951584 21.853605,-7.786938 30.141922,0.471368 2.403926,2.395225 4.135167,5.212147 5.170088,8.215252 l 14.1586,-3.770931 C 83.857034,45.322549 80.853353,40.145599 76.509779,35.817757 62.565795,21.92427 39.857886,21.959806 25.619943,35.481054 L 16.86797,26.760766 Z" />
  <path
     style="display:inline;opacity:0.75;fill:#ffffff;fill-opacity:1;stroke:none;stroke-width:1.5"
     id="path3921"
     inkscape:connector-curvature="0"
     d="m 49.445309,25.382865 c -8.621153,0.366087 -17.138465,3.74004 -23.8125,10.078125 l -8.765625,-8.71875 -6.328125,34.734375 0.28125,-0.04687 6.046875,-33.1875 8.765625,8.71875 c 14.237943,-13.521248 36.915391,-13.518488 50.859375,0.375 3.977857,3.96345 6.839139,8.627008 8.578125,13.59375 l 0.46875,-0.140625 C 83.864007,45.311169 80.835758,40.163832 76.492184,35.83599 69.084443,28.455075 59.215949,24.967966 49.445309,25.382865 Z m -12.5625,21.328125 c -0.270848,0.22969 -0.581852,0.411135 -0.84375,0.65625 l 8.0625,8.015625 1.265625,-0.234375 z" />
  <path
     style="display:inline;opacity:0.15;fill:#000000;fill-opacity:1;stroke:none;stroke-width:1.5"
     id="path3930"
     inkscape:connector-curvature="0"
     d="m 51.226559,38.55474 c -5.437434,-0.0795 -10.93947,1.836708 -15.1875,5.8125 l 0.84375,0.84375 c 8.515495,-7.221534 21.310927,-6.878736 29.34375,1.125 2.403925,2.395225 4.121329,5.246895 5.15625,8.25 l 14.15625,-3.796875 c -0.14103,-0.461228 -0.308871,-0.902742 -0.46875,-1.359375 l -13.6875,3.65625 c -1.034921,-3.003105 -2.752325,-5.854775 -5.15625,-8.25 -4.14416,-4.129154 -9.562566,-6.201749 -15,-6.28125 z m -7.125,15.328125 -33.28125,6.046875 -0.28125,1.546875 34.828125,-6.328125 z" />
</svg>
