<?xml version="1.0" encoding="UTF-8" standalone="no"?>
<!-- Created with Inkscape (http://www.inkscape.org/) -->

<svg
   xmlns:dc="http://purl.org/dc/elements/1.1/"
   xmlns:cc="http://creativecommons.org/ns#"
   xmlns:rdf="http://www.w3.org/1999/02/22-rdf-syntax-ns#"
   xmlns:svg="http://www.w3.org/2000/svg"
   xmlns="http://www.w3.org/2000/svg"
   xmlns:xlink="http://www.w3.org/1999/xlink"
   xmlns:sodipodi="http://sodipodi.sourceforge.net/DTD/sodipodi-0.dtd"
   xmlns:inkscape="http://www.inkscape.org/namespaces/inkscape"
   version="1.0"
   width="96"
   height="96"
   id="svg2408"
   style="display:inline"
   sodipodi:docname="edit-select-all.svg"
   inkscape:version="0.92.2 2405546, 2018-03-11">
  <sodipodi:namedview
     pagecolor="#ffffff"
     bordercolor="#666666"
     borderopacity="1"
     objecttolerance="10"
     gridtolerance="10"
     guidetolerance="10"
     inkscape:pageopacity="0"
     inkscape:pageshadow="2"
     inkscape:window-width="750"
     inkscape:window-height="480"
     id="namedview2200"
     showgrid="false"
     inkscape:zoom="2.4583333"
     inkscape:cx="103.47431"
     inkscape:cy="48"
     inkscape:window-x="52"
     inkscape:window-y="0"
     inkscape:window-maximized="0"
     inkscape:current-layer="svg2408" />
  <defs
     id="defs2410">
    <linearGradient
       id="linearGradient3637">
      <stop
         id="stop3639"
         style="stop-color:#f0f0f0;stop-opacity:1"
         offset="0" />
      <stop
         id="stop3641"
         style="stop-color:#dcdcdc;stop-opacity:1"
         offset="1" />
    </linearGradient>
    <linearGradient
       x1="45.447727"
       y1="92.539597"
       x2="45.447727"
       y2="7.0165396"
       id="ButtonShadow"
       gradientUnits="userSpaceOnUse"
       gradientTransform="scale(1.0058652,0.994169)">
      <stop
         id="stop3750"
         style="stop-color:#000000;stop-opacity:1"
         offset="0" />
      <stop
         id="stop3752"
         style="stop-color:#000000;stop-opacity:0.58823532"
         offset="1" />
    </linearGradient>
    <linearGradient
       id="linearGradient3737">
      <stop
         id="stop3739"
         style="stop-color:#ffffff;stop-opacity:1"
         offset="0" />
      <stop
         id="stop3741"
         style="stop-color:#ffffff;stop-opacity:0"
         offset="1" />
    </linearGradient>
    <linearGradient
       id="linearGradient3700">
      <stop
         id="stop3702"
         style="stop-color:#2276c5;stop-opacity:1"
         offset="0" />
      <stop
         id="stop3704"
         style="stop-color:#68baf4;stop-opacity:1"
         offset="1" />
    </linearGradient>
    <filter
       color-interpolation-filters="sRGB"
       id="filter3174">
      <feGaussianBlur
         id="feGaussianBlur3176"
         stdDeviation="1.71" />
    </filter>
    <linearGradient
       x1="36.357143"
       y1="6"
       x2="36.357143"
       y2="63.893143"
       id="linearGradient3188"
       xlink:href="#linearGradient3737"
       gradientUnits="userSpaceOnUse" />
    <radialGradient
       cx="48"
       cy="90.171875"
       r="42"
       fx="48"
       fy="90.171875"
       id="radialGradient3619"
       xlink:href="#linearGradient3737"
       gradientUnits="userSpaceOnUse"
       gradientTransform="matrix(1.1573129,0,0,0.99590774,-7.5510206,0.19713193)" />
    <linearGradient
       x1="48"
       y1="90"
       x2="48"
       y2="5.9877172"
       id="linearGradient2843"
       xlink:href="#linearGradient3700"
       gradientUnits="userSpaceOnUse"
       gradientTransform="translate(0,100)" />
    <clipPath
       id="clipPath3625">
      <path
         d="M 0,0 0,96 96,96 96,0 0,0 z m 12,6 72,0 c 3.324,0 6,2.676 6,6 l 0,72 c 0,3.324 -2.676,6 -6,6 L 12,90 C 8.676,90 6,87.324 6,84 L 6,12 C 6,8.676 8.676,6 12,6 z"
         inkscape:connector-curvature="0"
         id="path3627"
         style="fill:#ffffff;fill-opacity:1;stroke:none" />
    </clipPath>
    <linearGradient
       x1="44.512066"
       y1="6"
       x2="44.512066"
       y2="90.015434"
       id="linearGradient3643"
       xlink:href="#linearGradient3637"
       gradientUnits="userSpaceOnUse" />
    <clipPath
       id="clipPath3649">
      <rect
         width="76"
         height="76"
         rx="4"
         ry="4"
         x="10"
         y="10"
         id="rect3651"
         style="fill:#ffffff;fill-opacity:1;fill-rule:nonzero;stroke:none" />
    </clipPath>
    <filter
       color-interpolation-filters="sRGB"
       id="filter3657">
      <feGaussianBlur
         id="feGaussianBlur3659"
         stdDeviation="1.14" />
    </filter>
    <linearGradient
       id="linearGradient4081">
      <stop
         id="stop4083"
         style="stop-color:#aaaaaa;stop-opacity:1"
         offset="0" />
      <stop
         id="stop4085"
         style="stop-color:#f0f0f0;stop-opacity:1"
         offset="1" />
    </linearGradient>
    <linearGradient
       x1="49"
       y1="72.089897"
       x2="49"
       y2="23.729059"
       id="linearGradient3746"
       xlink:href="#linearGradient4081"
       gradientUnits="userSpaceOnUse"
       gradientTransform="matrix(1.2631579,0,0,1,81.052632,0)" />
    <linearGradient
       x1="48"
       y1="74"
       x2="48"
       y2="21.913534"
       id="linearGradient3762"
       xlink:href="#linearGradient4081"
       gradientUnits="userSpaceOnUse"
       gradientTransform="matrix(1.5,0,0,1.5,-24.001283,-24.5)" />
    <linearGradient
       x1="36.357143"
       y1="6"
       x2="36.357143"
       y2="63.893143"
       id="linearGradient3188-0"
       xlink:href="#linearGradient3737-0"
       gradientUnits="userSpaceOnUse" />
    <linearGradient
       id="linearGradient3737-0">
      <stop
         id="stop3739-0"
         style="stop-color:#ffffff;stop-opacity:1"
         offset="0" />
      <stop
         id="stop3741-7"
         style="stop-color:#ffffff;stop-opacity:0"
         offset="1" />
    </linearGradient>
    <radialGradient
       cx="48"
       cy="90.171875"
       r="42"
       fx="48"
       fy="90.171875"
       id="radialGradient3619-5"
       xlink:href="#linearGradient3737-0"
       gradientUnits="userSpaceOnUse"
       gradientTransform="matrix(1.1573129,0,0,0.99590774,-7.551021,0.1971319)" />
    <linearGradient
       x1="45.447727"
       y1="92.539597"
       x2="45.447727"
       y2="7.0165396"
       id="ButtonShadow-0"
       gradientUnits="userSpaceOnUse"
       gradientTransform="matrix(1.0058652,0,0,0.994169,100,0)">
      <stop
         id="stop3750-8"
         style="stop-color:#000000;stop-opacity:1"
         offset="0" />
      <stop
         id="stop3752-5"
         style="stop-color:#000000;stop-opacity:0.58823532"
         offset="1" />
    </linearGradient>
    <linearGradient
       x1="32.251034"
       y1="6.1317081"
       x2="32.251034"
       y2="90.238609"
       id="linearGradient3780"
       xlink:href="#ButtonShadow-0"
       gradientUnits="userSpaceOnUse"
       gradientTransform="matrix(1.0238095,0,0,-1.0119048,-1.1428571,98.071429)" />
    <linearGradient
       x1="32.251034"
       y1="6.1317081"
       x2="32.251034"
       y2="90.238609"
       id="linearGradient3772"
       xlink:href="#ButtonShadow-0"
       gradientUnits="userSpaceOnUse"
       gradientTransform="matrix(1.0238095,0,0,-1.0119048,-1.1428571,98.071429)" />
    <linearGradient
       x1="32.251034"
       y1="6.1317081"
       x2="32.251034"
       y2="90.238609"
       id="linearGradient3725-5"
       xlink:href="#ButtonShadow-0"
       gradientUnits="userSpaceOnUse"
       gradientTransform="matrix(1.0238095,0,0,-1.0119048,-1.1428571,98.071429)" />
    <linearGradient
       x1="32.251034"
       y1="6.1317081"
       x2="32.251034"
       y2="90.238609"
       id="linearGradient3721-5"
       xlink:href="#ButtonShadow-0"
       gradientUnits="userSpaceOnUse"
       gradientTransform="matrix(1,0,0,-1,0,97)" />
    <linearGradient
       x1="32.251034"
       y1="6.1317081"
       x2="32.251034"
       y2="90.238609"
       id="linearGradient3289"
       xlink:href="#ButtonShadow-0"
       gradientUnits="userSpaceOnUse"
       gradientTransform="matrix(1.0238095,0,0,-1.0119048,-1.1428571,98.071429)" />
  </defs>
  <metadata
     id="metadata2413">
    <rdf:RDF>
      <cc:Work
         rdf:about="">
        <dc:format>image/svg+xml</dc:format>
        <dc:type
           rdf:resource="http://purl.org/dc/dcmitype/StillImage" />
        <dc:title />
      </cc:Work>
    </rdf:RDF>
  </metadata>
  <g
     id="layer2"
     style="display:none">
    <rect
       width="86"
       height="85"
       rx="6"
       ry="6"
       x="5"
       y="7"
       clip-path="url(#clipPath3625)"
       id="rect3745"
       style="opacity:0.9;fill:url(#ButtonShadow);fill-opacity:1;fill-rule:nonzero;stroke:none;filter:url(#filter3174)" />
  </g>
  <g
     id="layer1"
     style="display:none">
    <rect
       width="84"
       height="84"
       rx="6"
       ry="6"
       x="6"
       y="6"
       id="rect2419"
       style="opacity:0.7;fill:#000000;fill-opacity:1;fill-rule:nonzero;stroke:none" />
    <path
       d="m 14,10 c -2.216,0 -4,1.784 -4,4 l 0,68 c 0,2.216 1.784,4 4,4 l 68,0 c 2.216,0 4,-1.784 4,-4 l 0,-68 c 0,-2.216 -1.784,-4 -4,-4 l -68,0 z m 0,3.0625 68,0 c 0.578769,0 0.9375,0.358731 0.9375,0.9375 l 0,68 c 0,0.578769 -0.358731,0.9375 -0.9375,0.9375 l -68,0 c -0.578769,0 -0.9375,-0.358731 -0.9375,-0.9375 l 0,-68 c 0,-0.578769 0.358731,-0.9375 0.9375,-0.9375 z"
       inkscape:connector-curvature="0"
       id="rect3726"
       style="opacity:0.07999998;fill:#000000;fill-opacity:1;fill-rule:nonzero;stroke:none" />
    <path
       d="M 12,6 C 8.676,6 6,8.676 6,12 l 0,72 c 0,3.324 2.676,6 6,6 l 72,0 c 3.324,0 6,-2.676 6,-6 L 90,12 C 90,8.676 87.324,6 84,6 L 12,6 z m 2,4 68,0 c 2.216,0 4,1.784 4,4 l 0,68 c 0,2.216 -1.784,4 -4,4 l -68,0 c -2.216,0 -4,-1.784 -4,-4 l 0,-68 c 0,-2.216 1.784,-4 4,-4 z"
       inkscape:connector-curvature="0"
       id="rect3629"
       style="fill:url(#linearGradient3643);fill-opacity:1;fill-rule:nonzero;stroke:none" />
    <path
       d="M 12,6 C 8.676,6 6,8.676 6,12 l 0,2 0,68 0,2 c 0,0.334721 0.04135,0.6507 0.09375,0.96875 0.0487,0.295596 0.09704,0.596915 0.1875,0.875 0.00988,0.03038 0.020892,0.0636 0.03125,0.09375 0.098865,0.287771 0.2348802,0.547452 0.375,0.8125 0.1445918,0.273507 0.3156161,0.535615 0.5,0.78125 0.1843839,0.245635 0.3737765,0.473472 0.59375,0.6875 0.439947,0.428056 0.94291,0.814526 1.5,1.09375 0.278545,0.139612 0.5734731,0.246947 0.875,0.34375 -0.2562018,-0.100222 -0.4867109,-0.236272 -0.71875,-0.375 -0.00741,-0.0044 -0.023866,0.0045 -0.03125,0 -0.031933,-0.0193 -0.062293,-0.04251 -0.09375,-0.0625 -0.120395,-0.0767 -0.2310226,-0.163513 -0.34375,-0.25 -0.1061728,-0.0808 -0.2132809,-0.161112 -0.3125,-0.25 C 8.4783201,88.557317 8.3087904,88.373362 8.15625,88.1875 8.0486711,88.057245 7.9378561,87.922215 7.84375,87.78125 7.818661,87.74287 7.805304,87.69538 7.78125,87.65625 7.716487,87.553218 7.6510225,87.451733 7.59375,87.34375 7.4927417,87.149044 7.3880752,86.928049 7.3125,86.71875 7.30454,86.69694 7.288911,86.6782 7.28125,86.65625 7.2494249,86.5643 7.2454455,86.469419 7.21875,86.375 7.1884177,86.268382 7.1483606,86.171969 7.125,86.0625 7.0521214,85.720988 7,85.364295 7,85 L 7,83 7,15 7,13 C 7,10.218152 9.2181517,8 12,8 l 2,0 68,0 2,0 c 2.781848,0 5,2.218152 5,5 l 0,2 0,68 0,2 c 0,0.364295 -0.05212,0.720988 -0.125,1.0625 -0.04415,0.206893 -0.08838,0.397658 -0.15625,0.59375 -0.0077,0.02195 -0.0233,0.04069 -0.03125,0.0625 -0.06274,0.173739 -0.138383,0.367449 -0.21875,0.53125 -0.04158,0.0828 -0.07904,0.169954 -0.125,0.25 -0.0546,0.09721 -0.126774,0.18835 -0.1875,0.28125 -0.09411,0.140965 -0.204921,0.275995 -0.3125,0.40625 -0.143174,0.17445 -0.303141,0.346998 -0.46875,0.5 -0.01117,0.0102 -0.01998,0.02115 -0.03125,0.03125 -0.138386,0.125556 -0.285091,0.234436 -0.4375,0.34375 -0.102571,0.07315 -0.204318,0.153364 -0.3125,0.21875 -0.0074,0.0045 -0.02384,-0.0044 -0.03125,0 -0.232039,0.138728 -0.462548,0.274778 -0.71875,0.375 0.301527,-0.0968 0.596455,-0.204138 0.875,-0.34375 0.55709,-0.279224 1.060053,-0.665694 1.5,-1.09375 0.219973,-0.214028 0.409366,-0.441865 0.59375,-0.6875 0.184384,-0.245635 0.355408,-0.507743 0.5,-0.78125 0.14012,-0.265048 0.276135,-0.524729 0.375,-0.8125 0.01041,-0.03078 0.02133,-0.06274 0.03125,-0.09375 0.09046,-0.278085 0.1388,-0.579404 0.1875,-0.875 C 89.95865,84.6507 90,84.334721 90,84 l 0,-2 0,-68 0,-2 C 90,8.676 87.324,6 84,6 L 12,6 z"
       inkscape:connector-curvature="0"
       id="rect3728"
       style="fill:url(#linearGradient3188);fill-opacity:1;fill-rule:nonzero;stroke:none" />
    <path
       d="M 12,90 C 8.676,90 6,87.324 6,84 L 6,82 6,14 6,12 c 0,-0.334721 0.04135,-0.6507 0.09375,-0.96875 0.0487,-0.295596 0.09704,-0.596915 0.1875,-0.875 C 6.29113,10.12587 6.302142,10.09265 6.3125,10.0625 6.411365,9.774729 6.5473802,9.515048 6.6875,9.25 6.8320918,8.976493 7.0031161,8.714385 7.1875,8.46875 7.3718839,8.223115 7.5612765,7.995278 7.78125,7.78125 8.221197,7.353194 8.72416,6.966724 9.28125,6.6875 9.559795,6.547888 9.8547231,6.440553 10.15625,6.34375 9.9000482,6.443972 9.6695391,6.580022 9.4375,6.71875 c -0.00741,0.0044 -0.023866,-0.0045 -0.03125,0 -0.031933,0.0193 -0.062293,0.04251 -0.09375,0.0625 -0.120395,0.0767 -0.2310226,0.163513 -0.34375,0.25 -0.1061728,0.0808 -0.2132809,0.161112 -0.3125,0.25 C 8.4783201,7.442683 8.3087904,7.626638 8.15625,7.8125 8.0486711,7.942755 7.9378561,8.077785 7.84375,8.21875 7.818661,8.25713 7.805304,8.30462 7.78125,8.34375 7.716487,8.446782 7.6510225,8.548267 7.59375,8.65625 7.4927417,8.850956 7.3880752,9.071951 7.3125,9.28125 7.30454,9.30306 7.288911,9.3218 7.28125,9.34375 7.2494249,9.4357 7.2454455,9.530581 7.21875,9.625 7.1884177,9.731618 7.1483606,9.828031 7.125,9.9375 7.0521214,10.279012 7,10.635705 7,11 l 0,2 0,68 0,2 c 0,2.781848 2.2181517,5 5,5 l 2,0 68,0 2,0 c 2.781848,0 5,-2.218152 5,-5 l 0,-2 0,-68 0,-2 C 89,10.635705 88.94788,10.279012 88.875,9.9375 88.83085,9.730607 88.78662,9.539842 88.71875,9.34375 88.71105,9.3218 88.69545,9.30306 88.6875,9.28125 88.62476,9.107511 88.549117,8.913801 88.46875,8.75 88.42717,8.6672 88.38971,8.580046 88.34375,8.5 88.28915,8.40279 88.216976,8.31165 88.15625,8.21875 88.06214,8.077785 87.951329,7.942755 87.84375,7.8125 87.700576,7.63805 87.540609,7.465502 87.375,7.3125 87.36383,7.3023 87.35502,7.29135 87.34375,7.28125 87.205364,7.155694 87.058659,7.046814 86.90625,6.9375 86.803679,6.86435 86.701932,6.784136 86.59375,6.71875 c -0.0074,-0.0045 -0.02384,0.0044 -0.03125,0 -0.232039,-0.138728 -0.462548,-0.274778 -0.71875,-0.375 0.301527,0.0968 0.596455,0.204138 0.875,0.34375 0.55709,0.279224 1.060053,0.665694 1.5,1.09375 0.219973,0.214028 0.409366,0.441865 0.59375,0.6875 0.184384,0.245635 0.355408,0.507743 0.5,0.78125 0.14012,0.265048 0.276135,0.524729 0.375,0.8125 0.01041,0.03078 0.02133,0.06274 0.03125,0.09375 0.09046,0.278085 0.1388,0.579404 0.1875,0.875 C 89.95865,11.3493 90,11.665279 90,12 l 0,2 0,68 0,2 c 0,3.324 -2.676,6 -6,6 l -72,0 z"
       inkscape:connector-curvature="0"
       id="path3615"
       style="opacity:0.6;fill:url(#radialGradient3619);fill-opacity:1;fill-rule:nonzero;stroke:none" />
    <rect
       width="84"
       height="84"
       rx="6"
       ry="6"
       x="6"
       y="106"
       id="rect2841"
       style="fill:url(#linearGradient2843);fill-opacity:1;fill-rule:nonzero;stroke:none" />
    <rect
       width="76"
       height="76"
       rx="4"
       ry="4"
       x="10"
       y="110"
       id="rect3634"
       style="fill:#ff0000;fill-opacity:1;fill-rule:nonzero;stroke:none" />
    <path
       d="m 14,9 c -2.752703,0 -5,2.247297 -5,5 l 0,68 c 0,2.752703 2.247297,5 5,5 l 68,0 c 2.752703,0 5,-2.247297 5,-5 L 87,14 C 87,11.247297 84.752703,9 82,9 L 14,9 z m 0,2 68,0 c 1.679297,0 3,1.320703 3,3 l 0,68 c 0,1.679297 -1.320703,3 -3,3 l -68,0 c -1.679297,0 -3,-1.320703 -3,-3 l 0,-68 c 0,-1.679297 1.320703,-3 3,-3 z"
       inkscape:connector-curvature="0"
       transform="translate(-110,0)"
       clip-path="url(#clipPath3649)"
       id="rect3647"
       style="font-size:medium;font-style:normal;font-variant:normal;font-weight:normal;font-stretch:normal;text-indent:0;text-align:start;text-decoration:none;line-height:normal;letter-spacing:normal;word-spacing:normal;text-transform:none;direction:ltr;block-progression:tb;writing-mode:lr-tb;text-anchor:start;color:#000000;fill:#000000;fill-opacity:1;stroke:none;stroke-width:2;marker:none;visibility:visible;display:inline;overflow:visible;filter:url(#filter3657);enable-background:accumulate;font-family:Abandoned Bitplane;-inkscape-font-specification:Abandoned Bitplane" />
    <path
       d="m 14.089286,10 c -2.216,0 -4,1.784 -4,4 l 0,68 c 0,2.216 1.784,4 4,4 l 68,0 c 2.216,0 4,-1.784 4,-4 l 0,-68 c 0,-2.216 -1.784,-4 -4,-4 l -68,0 z m 0,2 68,0 c 1.140301,0 2,0.859699 2,2 l 0,68 c 0,1.140301 -0.859699,2 -2,2 l -68,0 c -1.140301,0 -2,-0.859699 -2,-2 l 0,-68 c 0,-1.140301 0.859699,-2 2,-2 z"
       inkscape:connector-curvature="0"
       id="path3709"
       style="opacity:0.16000001;fill:#000000;fill-opacity:1;fill-rule:nonzero;stroke:none" />
    <path
       d="m 14,10 c -2.216,0 -4,1.784 -4,4 l 0,68 c 0,2.216 1.784,4 4,4 l 68,0 c 2.216,0 4,-1.784 4,-4 l 0,-68 c 0,-2.216 -1.784,-4 -4,-4 l -68,0 z m 0,1 68,0 c 1.673848,0 3,1.326152 3,3 l 0,68 c 0,1.673848 -1.326152,3 -3,3 l -68,0 c -1.673848,0 -3,-1.326152 -3,-3 l 0,-68 c 0,-1.673848 1.326152,-3 3,-3 z"
       inkscape:connector-curvature="0"
       id="path3707"
       style="opacity:0.36000001;fill:#000000;fill-opacity:1;fill-rule:nonzero;stroke:none" />
  </g>
  <path
     style="color:#000000;display:inline;overflow:visible;visibility:visible;opacity:0.1;fill:#000000;fill-opacity:1;fill-rule:nonzero;stroke:none;stroke-width:1.5;marker:none;enable-background:accumulate"
     id="path3792"
     inkscape:connector-curvature="0"
     d="M 21.889342,7 C 16.119118,6.8410315 11.350468,12.441357 11.998717,18.090721 12.032607,39.4032 11.930847,60.71995 12.049747,82.029754 12.455383,87.489766 17.843377,91.657396 23.216954,91 40.517366,90.96567 57.822202,91.06888 75.119831,90.94801 80.596549,90.513945 84.6397,85.037694 83.998717,79.688011 83.964827,58.449288 84.066587,37.206294 83.947687,15.970246 83.542049,10.510234 78.154055,6.342604 72.780478,7 55.816765,7 38.853053,7 21.889342,7 Z m 5.109375,15 c 13.999999,0 28,0 42,0 0,1.90625 0,3.812501 0,5.71875 C 68.853733,25.588527 66.558278,24.638557 64.671103,25 52.92614,25 41.181179,25 29.436217,25 c -1.301246,0.251144 -2.380916,1.419573 -2.4375,2.765625 0,-1.921875 0,-3.84375 0,-5.765625 z m 0,12.28125 c 0.119595,1.377618 1.228255,2.495552 2.578125,2.71875 -1.365507,0.14112 -2.519057,1.384926 -2.578125,2.765625 0,-1.828125 0,-3.65625 0,-5.484375 z m 42,0 c 0,1.8125 0,3.625001 0,5.4375 C 68.875801,38.303403 67.692916,37.125744 66.279967,37 c 1.430719,-0.135717 2.579836,-1.289061 2.71875,-2.71875 z m -42,12 c 0.119595,1.377618 1.228255,2.495552 2.578125,2.71875 -1.365507,0.14112 -2.519057,1.384926 -2.578125,2.765625 0,-1.828125 0,-3.65625 0,-5.484375 z m 42,0 c 0,1.8125 0,3.625001 0,5.4375 C 68.875801,50.303403 67.692916,49.125744 66.279967,49 c 1.430719,-0.135717 2.579836,-1.289061 2.71875,-2.71875 z m -42,12 c 0.12291,1.415348 1.305801,2.593007 2.71875,2.71875 -1.415348,0.12291 -2.593007,1.305801 -2.71875,2.71875 0,-1.812499 0,-3.625 0,-5.4375 z m 42,0 c 0,5.90625 0,11.8125 0,17.71875 -2.90625,0 -5.8125,0 -8.71875,0 2.130223,-0.14499 3.080193,-2.440438 2.71875,-4.327614 0.22375,-1.742278 -0.11763,-4.031679 -2.109375,-4.531761 -1.353726,-0.194908 1.195083,-0.364162 1.391532,-1.169475 1.175379,-1.38271 0.569322,-3.320647 0.717843,-4.97115 1.94335,-0.0666 4.597731,0.536286 5.671875,-1.59375 0.138135,-0.364369 0.298198,-0.732595 0.328125,-1.125 z m -42,12 c 0.14499,2.130223 2.440438,3.080193 4.327614,2.71875 5.557462,0 11.114923,0 16.672386,0 -0.04547,1.520733 1.214949,2.87252 2.71875,3 -7.90625,0 -15.812501,0 -23.71875,0 0,-1.906249 0,-3.8125 0,-5.71875 z" />
  <path
     inkscape:connector-curvature="0"
     style="color:#000000;display:inline;overflow:visible;visibility:visible;opacity:0.15;fill:#000000;fill-opacity:1;fill-rule:nonzero;stroke:none;stroke-width:1.5;marker:none;enable-background:accumulate"
     id="path3788"
     d="m 21.889342,8.5 c -4.635168,0 -8.390625,3.821895 -8.390625,8.484375 v 64.03125 c 0,4.66248 3.755457,8.484375 8.390625,8.484375 h 52.21875 c 4.635168,0 8.390625,-3.821895 8.390625,-8.484375 V 16.984375 C 82.498717,12.321895 78.74326,8.5 74.108092,8.5 Z m 5.109375,12 h 1.5 39 1.5 c 0.851419,0 1.5,0.648581 1.5,1.5 v 1.5 51 1.5 c 0,0.85142 -0.648581,1.5 -1.5,1.5 h -1.5 -39 -1.5 c -0.85142,0 -1.5,-0.64858 -1.5,-1.5 V 74.5 23.5 22 c 0,-0.851419 0.64858,-1.5 1.5,-1.5 z m 2.71875,6 a 1.5104467,1.5104467 0 0 0 -1.21875,1.5 v 6 a 1.5104467,1.5104467 0 0 0 1.5,1.5 h 36 a 1.5104467,1.5104467 0 0 0 1.5,-1.5 v -6 a 1.5104467,1.5104467 0 0 0 -1.5,-1.5 h -36 a 1.5104467,1.5104467 0 0 0 -0.28125,0 z m 0,12 a 1.5104467,1.5104467 0 0 0 -1.21875,1.5 v 6 a 1.5104467,1.5104467 0 0 0 1.5,1.5 h 36 a 1.5104467,1.5104467 0 0 0 1.5,-1.5 v -6 a 1.5104467,1.5104467 0 0 0 -1.5,-1.5 h -36 a 1.5104467,1.5104467 0 0 0 -0.28125,0 z m 0,12 a 1.5104467,1.5104467 0 0 0 -1.21875,1.5 v 6 a 1.5104467,1.5104467 0 0 0 1.5,1.5 h 20.71875 a 1.5104467,1.5104467 0 0 0 -1.21875,1.5 v 2.71875 a 1.5104467,1.5104467 0 0 0 -1.5,-1.21875 h -18 a 1.5104467,1.5104467 0 0 0 -1.5,1.5 v 6 a 1.5104467,1.5104467 0 0 0 1.5,1.5 h 18 a 1.5104467,1.5104467 0 0 0 1.5,-1.265625 V 73 a 1.5104467,1.5104467 0 0 0 1.5,1.5 h 9 a 1.5104467,1.5104467 0 0 0 1.5,-1.5 v -3 a 1.5104467,1.5104467 0 0 0 -1.5,-1.5 h -1.5 v -3 h 1.5 a 1.5104467,1.5104467 0 0 0 1.5,-1.5 v -3 a 1.5104467,1.5104467 0 0 0 -1.265625,-1.5 h 5.765625 a 1.5104467,1.5104467 0 0 0 1.5,-1.5 v -6 a 1.5104467,1.5104467 0 0 0 -1.5,-1.5 h -36 a 1.5104467,1.5104467 0 0 0 -0.28125,0 z m 19.78125,13.78125 a 1.5104467,1.5104467 0 0 0 1.5,1.21875 h 1.5 v 3 h -1.5 a 1.5104467,1.5104467 0 0 0 -1.5,1.265625 z" />
  <path
     style="color:#000000;display:inline;overflow:visible;visibility:visible;opacity:0.3;fill:#000000;fill-opacity:1;fill-rule:nonzero;stroke:none;stroke-width:1.5;marker:none;enable-background:accumulate"
     id="path3782"
     inkscape:connector-curvature="0"
     d="m 21.889342,10 c -3.808751,0 -6.890625,3.126161 -6.890625,6.984375 v 64.03125 C 14.998717,84.87384 18.080591,88 21.889342,88 h 52.21875 c 3.80875,0 6.890625,-3.12616 6.890625,-6.984375 V 16.984375 C 80.998717,13.126161 77.916842,10 74.108092,10 Z m 5.109375,9 h 1.5 39 1.5 c 1.662,0 3,1.338 3,3 v 1.5 51 1.5 c 0,1.662 -1.338,3 -3,3 h -1.5 -39 -1.5 c -1.662,0 -3,-1.338 -3,-3 V 74.5 23.5 22 c 0,-1.662 1.338,-3 3,-3 z m 3,9 v 6 h 36 v -6 z m 0,12 v 6 h 36 v -6 z m 0,12 v 6 h 36 v -6 z m 21,9 v 3 h 3 v 6 h -3 v 3 h 9 v -3 h -3 v -6 h 3 v -3 z m -21,3 v 6 h 18 v -6 z" />
  <path
     style="color:#000000;display:inline;overflow:visible;visibility:visible;fill:url(#linearGradient3762);fill-opacity:1;fill-rule:nonzero;stroke:none;stroke-width:1.5;marker:none;enable-background:accumulate"
     id="rect2957"
     inkscape:connector-curvature="0"
     d="m 21.889342,8.5 c -3.808751,0 -6.890625,3.126161 -6.890625,6.984375 v 64.03125 c 0,3.858215 3.081874,6.984375 6.890625,6.984375 h 52.21875 c 3.80875,0 6.890625,-3.12616 6.890625,-6.984375 V 15.484375 C 80.998717,11.626161 77.916842,8.5 74.108092,8.5 Z m 5.109375,9 h 1.5 39 1.5 c 1.662,0 3,1.338 3,3 v 1.5 51 1.5 c 0,1.662 -1.338,3 -3,3 h -1.5 -39 -1.5 c -1.662,0 -3,-1.338 -3,-3 V 73 22 20.5 c 0,-1.662 1.338,-3 3,-3 z m 3,9 v 6 h 36 v -6 z m 0,12 v 6 h 36 v -6 z m 0,12 v 6 h 36 v -6 z m 21,9 v 3 h 3 v 6 h -3 v 3 h 9 v -3 h -3 v -6 h 3 v -3 z m -21,3 v 6 h 18 v -6 z" />
  <path
     style="color:#000000;display:inline;overflow:visible;visibility:visible;opacity:0.75;fill:#ffffff;fill-opacity:1;fill-rule:nonzero;stroke:none;stroke-width:1.5;marker:none;enable-background:accumulate"
     id="path3764"
     inkscape:connector-curvature="0"
     d="m 21.889342,8.5 c -3.808751,0 -6.890625,3.126161 -6.890625,6.984375 v 1.5 C 14.998717,13.126161 18.080591,10 21.889342,10 h 52.21875 c 3.80875,0 6.890625,3.126161 6.890625,6.984375 v -1.5 C 80.998717,11.626161 77.916842,8.5 74.108092,8.5 Z m 8.109375,18 V 28 h 36 v -1.5 z m 0,12 V 40 h 36 v -1.5 z m 0,12 V 52 h 36 v -1.5 z m 21,9 V 61 h 9 v -1.5 z m -21,3 V 64 h 18 v -1.5 z m 21,6 V 70 h 3 v -1.5 z m 6,0 V 70 h 3 v -1.5 z m -33,6 V 76 c 0,1.662 1.338,3 3,3 h 1.5 39 1.5 c 1.662,0 3,-1.338 3,-3 v -1.5 c 0,1.662 -1.338,3 -3,3 h -1.5 -39 -1.5 c -1.662,0 -3,-1.338 -3,-3 z" />
  <path
     style="color:#000000;display:inline;overflow:visible;visibility:visible;opacity:0.15;fill:#000000;fill-opacity:1;fill-rule:nonzero;stroke:none;stroke-width:1.5;marker:none;enable-background:accumulate"
     id="path3773"
     inkscape:connector-curvature="0"
     d="m 26.998717,16 c -1.662,0 -3,1.338 -3,3 v 1.5 c 0,-1.662 1.338,-3 3,-3 h 1.5 39 1.5 c 1.662,0 3,1.338 3,3 V 19 c 0,-1.662 -1.338,-3 -3,-3 h -1.5 -39 z m 3,15 v 1.5 h 36 V 31 Z m 0,12 v 1.5 h 36 V 43 Z m 0,12 v 1.5 h 36 V 55 Z m 21,6 v 1.5 h 3 V 61 Z m 6,0 v 1.5 h 3 V 61 Z m -27,6 v 1.5 h 18 V 67 Z m 21,3 v 1.5 h 9 V 70 Z m -36,8.015625 v 1.5 c 0,3.858215 3.081874,6.984375 6.890625,6.984375 h 52.21875 c 3.80875,0 6.890625,-3.12616 6.890625,-6.984375 v -1.5 C 80.998717,81.87384 77.916842,85 74.108092,85 h -52.21875 c -3.808751,0 -6.890625,-3.12616 -6.890625,-6.984375 z" />
</svg>
