<?xml version="1.0" encoding="UTF-8" standalone="no"?>
<!-- Created with Inkscape (http://www.inkscape.org/) -->

<svg
   xmlns:dc="http://purl.org/dc/elements/1.1/"
   xmlns:cc="http://creativecommons.org/ns#"
   xmlns:rdf="http://www.w3.org/1999/02/22-rdf-syntax-ns#"
   xmlns:svg="http://www.w3.org/2000/svg"
   xmlns="http://www.w3.org/2000/svg"
   xmlns:xlink="http://www.w3.org/1999/xlink"
   xmlns:sodipodi="http://sodipodi.sourceforge.net/DTD/sodipodi-0.dtd"
   xmlns:inkscape="http://www.inkscape.org/namespaces/inkscape"
   version="1.0"
   width="96"
   height="96"
   id="svg2408"
   sodipodi:docname="edit-cut.svg"
   inkscape:version="0.92.2 2405546, 2018-03-11">
  <sodipodi:namedview
     pagecolor="#ffffff"
     bordercolor="#666666"
     borderopacity="1"
     objecttolerance="10"
     gridtolerance="10"
     guidetolerance="10"
     inkscape:pageopacity="0"
     inkscape:pageshadow="2"
     inkscape:window-width="750"
     inkscape:window-height="480"
     id="namedview1669"
     showgrid="false"
     inkscape:zoom="2.4583333"
     inkscape:cx="48"
     inkscape:cy="48"
     inkscape:window-x="52"
     inkscape:window-y="0"
     inkscape:window-maximized="0"
     inkscape:current-layer="svg2408" />
  <defs
     id="defs2410">
    <linearGradient
       id="linearGradient3637">
      <stop
         id="stop3639"
         style="stop-color:#f0f0f0;stop-opacity:1"
         offset="0" />
      <stop
         id="stop3641"
         style="stop-color:#aaaaaa;stop-opacity:1"
         offset="1" />
    </linearGradient>
    <linearGradient
       x1="45.447727"
       y1="92.539597"
       x2="45.447727"
       y2="7.0165396"
       id="ButtonShadow"
       gradientUnits="userSpaceOnUse"
       gradientTransform="scale(1.0058652,0.994169)">
      <stop
         id="stop3750"
         style="stop-color:#000000;stop-opacity:1"
         offset="0" />
      <stop
         id="stop3752"
         style="stop-color:#000000;stop-opacity:0.58823532"
         offset="1" />
    </linearGradient>
    <linearGradient
       id="linearGradient3737">
      <stop
         id="stop3739"
         style="stop-color:#ffffff;stop-opacity:1"
         offset="0" />
      <stop
         id="stop3741"
         style="stop-color:#ffffff;stop-opacity:0"
         offset="1" />
    </linearGradient>
    <linearGradient
       id="linearGradient3700">
      <stop
         id="stop3702"
         style="stop-color:#2276c5;stop-opacity:1"
         offset="0" />
      <stop
         id="stop3704"
         style="stop-color:#68baf4;stop-opacity:1"
         offset="1" />
    </linearGradient>
    <filter
       color-interpolation-filters="sRGB"
       id="filter3174">
      <feGaussianBlur
         id="feGaussianBlur3176"
         stdDeviation="1.71" />
    </filter>
    <linearGradient
       x1="36.357143"
       y1="6"
       x2="36.357143"
       y2="63.893143"
       id="linearGradient3188"
       xlink:href="#linearGradient3737"
       gradientUnits="userSpaceOnUse" />
    <filter
       x="-0.192"
       y="-0.192"
       width="1.3839999"
       height="1.3839999"
       color-interpolation-filters="sRGB"
       id="filter3794">
      <feGaussianBlur
         id="feGaussianBlur3796"
         stdDeviation="5.28" />
    </filter>
    <linearGradient
       x1="48"
       y1="20.220806"
       x2="48"
       y2="138.66119"
       id="linearGradient3613"
       xlink:href="#linearGradient3737"
       gradientUnits="userSpaceOnUse" />
    <radialGradient
       cx="48"
       cy="90.171875"
       r="42"
       fx="48"
       fy="90.171875"
       id="radialGradient3619"
       xlink:href="#linearGradient3737"
       gradientUnits="userSpaceOnUse"
       gradientTransform="matrix(1.1573129,0,0,0.99590774,-7.5510206,0.19713193)" />
    <clipPath
       id="clipPath3613">
      <rect
         width="84"
         height="84"
         rx="6"
         ry="6"
         x="6"
         y="6"
         id="rect3615"
         style="fill:#ffffff;fill-opacity:1;fill-rule:nonzero;stroke:none" />
    </clipPath>
    <linearGradient
       x1="48"
       y1="90"
       x2="48"
       y2="5.9877172"
       id="linearGradient2843"
       xlink:href="#linearGradient3700"
       gradientUnits="userSpaceOnUse"
       gradientTransform="translate(0,100)" />
    <clipPath
       id="clipPath3625">
      <path
         d="M 0,0 0,96 96,96 96,0 0,0 z m 12,6 72,0 c 3.324,0 6,2.676 6,6 l 0,72 c 0,3.324 -2.676,6 -6,6 L 12,90 C 8.676,90 6,87.324 6,84 L 6,12 C 6,8.676 8.676,6 12,6 z"
         inkscape:connector-curvature="0"
         id="path3627"
         style="fill:#ffffff;fill-opacity:1;stroke:none" />
    </clipPath>
    <linearGradient
       x1="44.512066"
       y1="6"
       x2="44.512066"
       y2="90.015434"
       id="linearGradient3643"
       xlink:href="#linearGradient3637"
       gradientUnits="userSpaceOnUse" />
    <clipPath
       id="clipPath3649">
      <rect
         width="76"
         height="76"
         rx="4"
         ry="4"
         x="10"
         y="10"
         id="rect3651"
         style="fill:#ffffff;fill-opacity:1;fill-rule:nonzero;stroke:none" />
    </clipPath>
    <filter
       color-interpolation-filters="sRGB"
       id="filter3657">
      <feGaussianBlur
         id="feGaussianBlur3659"
         stdDeviation="1.14" />
    </filter>
    <linearGradient
       x1="45.447727"
       y1="92.539597"
       x2="45.447727"
       y2="7.0165396"
       id="ButtonShadow-0"
       gradientUnits="userSpaceOnUse"
       gradientTransform="matrix(1.0058652,0,0,0.994169,100,0)">
      <stop
         id="stop3750-8"
         style="stop-color:#000000;stop-opacity:1"
         offset="0" />
      <stop
         id="stop3752-5"
         style="stop-color:#000000;stop-opacity:0.58823532"
         offset="1" />
    </linearGradient>
    <linearGradient
       x1="32.251034"
       y1="6.1317081"
       x2="32.251034"
       y2="90.238609"
       id="linearGradient3780"
       xlink:href="#ButtonShadow-0"
       gradientUnits="userSpaceOnUse"
       gradientTransform="matrix(1.0238095,0,0,-1.0119048,-1.1428571,98.071429)" />
    <linearGradient
       x1="32.251034"
       y1="6.1317081"
       x2="32.251034"
       y2="90.238609"
       id="linearGradient3772"
       xlink:href="#ButtonShadow-0"
       gradientUnits="userSpaceOnUse"
       gradientTransform="matrix(1.0238095,0,0,-1.0119048,-1.1428571,98.071429)" />
    <linearGradient
       x1="32.251034"
       y1="6.1317081"
       x2="32.251034"
       y2="90.238609"
       id="linearGradient3725"
       xlink:href="#ButtonShadow-0"
       gradientUnits="userSpaceOnUse"
       gradientTransform="matrix(1.0238095,0,0,-1.0119048,-1.1428571,98.071429)" />
    <linearGradient
       x1="32.251034"
       y1="6.1317081"
       x2="32.251034"
       y2="90.238609"
       id="linearGradient3721"
       xlink:href="#ButtonShadow-0"
       gradientUnits="userSpaceOnUse"
       gradientTransform="matrix(1,0,0,-1,0,97)" />
    <linearGradient
       x1="32.251034"
       y1="6.1317081"
       x2="32.251034"
       y2="90.238609"
       id="linearGradient3199"
       xlink:href="#ButtonShadow-0"
       gradientUnits="userSpaceOnUse"
       gradientTransform="matrix(1.0238095,0,0,-1.0119048,-1.1428571,98.071429)" />
    <linearGradient
       x1="36.357143"
       y1="6"
       x2="36.357143"
       y2="63.893143"
       id="linearGradient3188-8"
       xlink:href="#linearGradient3737-3"
       gradientUnits="userSpaceOnUse" />
    <linearGradient
       id="linearGradient3737-3">
      <stop
         id="stop3739-6"
         style="stop-color:#ffffff;stop-opacity:1"
         offset="0" />
      <stop
         id="stop3741-1"
         style="stop-color:#ffffff;stop-opacity:0"
         offset="1" />
    </linearGradient>
    <radialGradient
       cx="48"
       cy="90.171875"
       r="42"
       fx="48"
       fy="90.171875"
       id="radialGradient3619-3"
       xlink:href="#linearGradient3737-3"
       gradientUnits="userSpaceOnUse"
       gradientTransform="matrix(1.1573129,0,0,0.99590774,-7.551021,0.1971319)" />
    <linearGradient
       x1="104"
       y1="8"
       x2="120"
       y2="8"
       id="linearGradient3905"
       xlink:href="#linearGradient3637"
       gradientUnits="userSpaceOnUse"
       gradientTransform="translate(-104,104)" />
    <linearGradient
       x1="104"
       y1="8"
       x2="120"
       y2="8"
       id="linearGradient3913"
       xlink:href="#linearGradient3183-0"
       gradientUnits="userSpaceOnUse"
       gradientTransform="translate(-144,104)" />
    <linearGradient
       id="linearGradient3183-0">
      <stop
         id="stop3185-9"
         style="stop-color:#c80000;stop-opacity:1"
         offset="0" />
      <stop
         id="stop3187-6"
         style="stop-color:#f3604d;stop-opacity:1"
         offset="1" />
    </linearGradient>
    <linearGradient
       x1="46.069901"
       y1="0.92127591"
       x2="46.069901"
       y2="17.478098"
       id="linearGradient3916"
       xlink:href="#linearGradient3637"
       gradientUnits="userSpaceOnUse"
       gradientTransform="matrix(-4.003614,0,0,4.7537239,233.99122,3.890059)" />
  </defs>
  <metadata
     id="metadata2413">
    <rdf:RDF>
      <cc:Work
         rdf:about="">
        <dc:format>image/svg+xml</dc:format>
        <dc:type
           rdf:resource="http://purl.org/dc/dcmitype/StillImage" />
        <dc:title />
      </cc:Work>
    </rdf:RDF>
  </metadata>
  <g
     id="layer2"
     style="display:none">
    <rect
       width="86"
       height="85"
       rx="6"
       ry="6"
       x="5"
       y="7"
       clip-path="url(#clipPath3625)"
       id="rect3745"
       style="opacity:0.9;fill:url(#ButtonShadow);fill-opacity:1;fill-rule:nonzero;stroke:none;filter:url(#filter3174)" />
  </g>
  <g
     id="layer1"
     style="display:none">
    <rect
       width="84"
       height="84"
       rx="6"
       ry="6"
       x="6"
       y="6"
       id="rect2419"
       style="opacity:0.8;fill:#000000;fill-opacity:1;fill-rule:nonzero;stroke:none" />
    <path
       d="m 14,10 c -2.216,0 -4,1.784 -4,4 l 0,68 c 0,2.216 1.784,4 4,4 l 68,0 c 2.216,0 4,-1.784 4,-4 l 0,-68 c 0,-2.216 -1.784,-4 -4,-4 l -68,0 z m 0,3.0625 68,0 c 0.578769,0 0.9375,0.358731 0.9375,0.9375 l 0,68 c 0,0.578769 -0.358731,0.9375 -0.9375,0.9375 l -68,0 c -0.578769,0 -0.9375,-0.358731 -0.9375,-0.9375 l 0,-68 c 0,-0.578769 0.358731,-0.9375 0.9375,-0.9375 z"
       inkscape:connector-curvature="0"
       id="rect3726"
       style="opacity:0.07999998;fill:#000000;fill-opacity:1;fill-rule:nonzero;stroke:none" />
    <path
       d="M 12,6 C 8.676,6 6,8.676 6,12 l 0,72 c 0,3.324 2.676,6 6,6 l 72,0 c 3.324,0 6,-2.676 6,-6 L 90,12 C 90,8.676 87.324,6 84,6 L 12,6 z m 2,4 68,0 c 2.216,0 4,1.784 4,4 l 0,68 c 0,2.216 -1.784,4 -4,4 l -68,0 c -2.216,0 -4,-1.784 -4,-4 l 0,-68 c 0,-2.216 1.784,-4 4,-4 z"
       inkscape:connector-curvature="0"
       id="rect3629"
       style="fill:url(#linearGradient3643);fill-opacity:1;fill-rule:nonzero;stroke:none" />
    <path
       d="M 12,6 C 8.676,6 6,8.676 6,12 l 0,2 0,68 0,2 c 0,0.334721 0.04135,0.6507 0.09375,0.96875 0.0487,0.295596 0.09704,0.596915 0.1875,0.875 0.00988,0.03038 0.020892,0.0636 0.03125,0.09375 0.098865,0.287771 0.2348802,0.547452 0.375,0.8125 0.1445918,0.273507 0.3156161,0.535615 0.5,0.78125 0.1843839,0.245635 0.3737765,0.473472 0.59375,0.6875 0.439947,0.428056 0.94291,0.814526 1.5,1.09375 0.278545,0.139612 0.5734731,0.246947 0.875,0.34375 -0.2562018,-0.100222 -0.4867109,-0.236272 -0.71875,-0.375 -0.00741,-0.0044 -0.023866,0.0045 -0.03125,0 -0.031933,-0.0193 -0.062293,-0.04251 -0.09375,-0.0625 -0.120395,-0.0767 -0.2310226,-0.163513 -0.34375,-0.25 -0.1061728,-0.0808 -0.2132809,-0.161112 -0.3125,-0.25 C 8.4783201,88.557317 8.3087904,88.373362 8.15625,88.1875 8.0486711,88.057245 7.9378561,87.922215 7.84375,87.78125 7.818661,87.74287 7.805304,87.69538 7.78125,87.65625 7.716487,87.553218 7.6510225,87.451733 7.59375,87.34375 7.4927417,87.149044 7.3880752,86.928049 7.3125,86.71875 7.30454,86.69694 7.288911,86.6782 7.28125,86.65625 7.2494249,86.5643 7.2454455,86.469419 7.21875,86.375 7.1884177,86.268382 7.1483606,86.171969 7.125,86.0625 7.0521214,85.720988 7,85.364295 7,85 L 7,83 7,15 7,13 C 7,10.218152 9.2181517,8 12,8 l 2,0 68,0 2,0 c 2.781848,0 5,2.218152 5,5 l 0,2 0,68 0,2 c 0,0.364295 -0.05212,0.720988 -0.125,1.0625 -0.04415,0.206893 -0.08838,0.397658 -0.15625,0.59375 -0.0077,0.02195 -0.0233,0.04069 -0.03125,0.0625 -0.06274,0.173739 -0.138383,0.367449 -0.21875,0.53125 -0.04158,0.0828 -0.07904,0.169954 -0.125,0.25 -0.0546,0.09721 -0.126774,0.18835 -0.1875,0.28125 -0.09411,0.140965 -0.204921,0.275995 -0.3125,0.40625 -0.143174,0.17445 -0.303141,0.346998 -0.46875,0.5 -0.01117,0.0102 -0.01998,0.02115 -0.03125,0.03125 -0.138386,0.125556 -0.285091,0.234436 -0.4375,0.34375 -0.102571,0.07315 -0.204318,0.153364 -0.3125,0.21875 -0.0074,0.0045 -0.02384,-0.0044 -0.03125,0 -0.232039,0.138728 -0.462548,0.274778 -0.71875,0.375 0.301527,-0.0968 0.596455,-0.204138 0.875,-0.34375 0.55709,-0.279224 1.060053,-0.665694 1.5,-1.09375 0.219973,-0.214028 0.409366,-0.441865 0.59375,-0.6875 0.184384,-0.245635 0.355408,-0.507743 0.5,-0.78125 0.14012,-0.265048 0.276135,-0.524729 0.375,-0.8125 0.01041,-0.03078 0.02133,-0.06274 0.03125,-0.09375 0.09046,-0.278085 0.1388,-0.579404 0.1875,-0.875 C 89.95865,84.6507 90,84.334721 90,84 l 0,-2 0,-68 0,-2 C 90,8.676 87.324,6 84,6 L 12,6 z"
       inkscape:connector-curvature="0"
       id="rect3728"
       style="fill:url(#linearGradient3188);fill-opacity:1;fill-rule:nonzero;stroke:none" />
    <path
       d="M 12,90 C 8.676,90 6,87.324 6,84 L 6,82 6,14 6,12 c 0,-0.334721 0.04135,-0.6507 0.09375,-0.96875 0.0487,-0.295596 0.09704,-0.596915 0.1875,-0.875 C 6.29113,10.12587 6.302142,10.09265 6.3125,10.0625 6.411365,9.774729 6.5473802,9.515048 6.6875,9.25 6.8320918,8.976493 7.0031161,8.714385 7.1875,8.46875 7.3718839,8.223115 7.5612765,7.995278 7.78125,7.78125 8.221197,7.353194 8.72416,6.966724 9.28125,6.6875 9.559795,6.547888 9.8547231,6.440553 10.15625,6.34375 9.9000482,6.443972 9.6695391,6.580022 9.4375,6.71875 c -0.00741,0.0044 -0.023866,-0.0045 -0.03125,0 -0.031933,0.0193 -0.062293,0.04251 -0.09375,0.0625 -0.120395,0.0767 -0.2310226,0.163513 -0.34375,0.25 -0.1061728,0.0808 -0.2132809,0.161112 -0.3125,0.25 C 8.4783201,7.442683 8.3087904,7.626638 8.15625,7.8125 8.0486711,7.942755 7.9378561,8.077785 7.84375,8.21875 7.818661,8.25713 7.805304,8.30462 7.78125,8.34375 7.716487,8.446782 7.6510225,8.548267 7.59375,8.65625 7.4927417,8.850956 7.3880752,9.071951 7.3125,9.28125 7.30454,9.30306 7.288911,9.3218 7.28125,9.34375 7.2494249,9.4357 7.2454455,9.530581 7.21875,9.625 7.1884177,9.731618 7.1483606,9.828031 7.125,9.9375 7.0521214,10.279012 7,10.635705 7,11 l 0,2 0,68 0,2 c 0,2.781848 2.2181517,5 5,5 l 2,0 68,0 2,0 c 2.781848,0 5,-2.218152 5,-5 l 0,-2 0,-68 0,-2 C 89,10.635705 88.94788,10.279012 88.875,9.9375 88.83085,9.730607 88.78662,9.539842 88.71875,9.34375 88.71105,9.3218 88.69545,9.30306 88.6875,9.28125 88.62476,9.107511 88.549117,8.913801 88.46875,8.75 88.42717,8.6672 88.38971,8.580046 88.34375,8.5 88.28915,8.40279 88.216976,8.31165 88.15625,8.21875 88.06214,8.077785 87.951329,7.942755 87.84375,7.8125 87.700576,7.63805 87.540609,7.465502 87.375,7.3125 87.36383,7.3023 87.35502,7.29135 87.34375,7.28125 87.205364,7.155694 87.058659,7.046814 86.90625,6.9375 86.803679,6.86435 86.701932,6.784136 86.59375,6.71875 c -0.0074,-0.0045 -0.02384,0.0044 -0.03125,0 -0.232039,-0.138728 -0.462548,-0.274778 -0.71875,-0.375 0.301527,0.0968 0.596455,0.204138 0.875,0.34375 0.55709,0.279224 1.060053,0.665694 1.5,1.09375 0.219973,0.214028 0.409366,0.441865 0.59375,0.6875 0.184384,0.245635 0.355408,0.507743 0.5,0.78125 0.14012,0.265048 0.276135,0.524729 0.375,0.8125 0.01041,0.03078 0.02133,0.06274 0.03125,0.09375 0.09046,0.278085 0.1388,0.579404 0.1875,0.875 C 89.95865,11.3493 90,11.665279 90,12 l 0,2 0,68 0,2 c 0,3.324 -2.676,6 -6,6 l -72,0 z"
       inkscape:connector-curvature="0"
       id="path3615"
       style="opacity:0.6;fill:url(#radialGradient3619);fill-opacity:1;fill-rule:nonzero;stroke:none" />
    <rect
       width="84"
       height="84"
       rx="6"
       ry="6"
       x="6"
       y="106"
       id="rect2841"
       style="fill:url(#linearGradient2843);fill-opacity:1;fill-rule:nonzero;stroke:none" />
    <rect
       width="76"
       height="76"
       rx="4"
       ry="4"
       x="10"
       y="110"
       id="rect3634"
       style="fill:#ff0000;fill-opacity:1;fill-rule:nonzero;stroke:none" />
    <path
       d="m 14,9 c -2.752703,0 -5,2.247297 -5,5 l 0,68 c 0,2.752703 2.247297,5 5,5 l 68,0 c 2.752703,0 5,-2.247297 5,-5 L 87,14 C 87,11.247297 84.752703,9 82,9 L 14,9 z m 0,2 68,0 c 1.679297,0 3,1.320703 3,3 l 0,68 c 0,1.679297 -1.320703,3 -3,3 l -68,0 c -1.679297,0 -3,-1.320703 -3,-3 l 0,-68 c 0,-1.679297 1.320703,-3 3,-3 z"
       inkscape:connector-curvature="0"
       transform="translate(-110,0)"
       clip-path="url(#clipPath3649)"
       id="rect3647"
       style="font-size:medium;font-style:normal;font-variant:normal;font-weight:normal;font-stretch:normal;text-indent:0;text-align:start;text-decoration:none;line-height:normal;letter-spacing:normal;word-spacing:normal;text-transform:none;direction:ltr;block-progression:tb;writing-mode:lr-tb;text-anchor:start;color:#000000;fill:#000000;fill-opacity:1;stroke:none;stroke-width:2;marker:none;visibility:visible;display:inline;overflow:visible;filter:url(#filter3657);enable-background:accumulate;font-family:Abandoned Bitplane;-inkscape-font-specification:Abandoned Bitplane" />
    <path
       d="m 14.089286,10 c -2.216,0 -4,1.784 -4,4 l 0,68 c 0,2.216 1.784,4 4,4 l 68,0 c 2.216,0 4,-1.784 4,-4 l 0,-68 c 0,-2.216 -1.784,-4 -4,-4 l -68,0 z m 0,2 68,0 c 1.140301,0 2,0.859699 2,2 l 0,68 c 0,1.140301 -0.859699,2 -2,2 l -68,0 c -1.140301,0 -2,-0.859699 -2,-2 l 0,-68 c 0,-1.140301 0.859699,-2 2,-2 z"
       inkscape:connector-curvature="0"
       id="path3709"
       style="opacity:0.16000001;fill:#000000;fill-opacity:1;fill-rule:nonzero;stroke:none" />
    <path
       d="m 14,10 c -2.216,0 -4,1.784 -4,4 l 0,68 c 0,2.216 1.784,4 4,4 l 68,0 c 2.216,0 4,-1.784 4,-4 l 0,-68 c 0,-2.216 -1.784,-4 -4,-4 l -68,0 z m 0,1 68,0 c 1.673848,0 3,1.326152 3,3 l 0,68 c 0,1.673848 -1.326152,3 -3,3 l -68,0 c -1.673848,0 -3,-1.326152 -3,-3 l 0,-68 c 0,-1.673848 1.326152,-3 3,-3 z"
       inkscape:connector-curvature="0"
       id="path3707"
       style="opacity:0.36000001;fill:#000000;fill-opacity:1;fill-rule:nonzero;stroke:none" />
  </g>
  <g
     id="layer5"
     style="display:none">
    <rect
       width="66"
       height="66"
       rx="12"
       ry="12"
       x="15"
       y="15"
       clip-path="url(#clipPath3613)"
       id="rect3171"
       style="opacity:0.1;fill:url(#linearGradient3613);fill-opacity:1;fill-rule:nonzero;stroke:#ffffff;stroke-width:0.5;stroke-linecap:round;stroke-linejoin:miter;stroke-miterlimit:4;stroke-opacity:1;stroke-dasharray:none;stroke-dashoffset:0;filter:url(#filter3794)" />
  </g>
  <path
     inkscape:connector-curvature="0"
     style="display:inline;opacity:0.1;fill:#000000;fill-opacity:1;stroke:none;stroke-width:1.5"
     id="path3946"
     d="m 26.71875,4.5006791 c -0.752879,-0.01641 -1.485267,0.295134 -1.453125,0.28125 -0.936279,0.404394 -1.497233,1.116522 -1.6875,1.359375 -0.241304,0.3079935 -0.40245,0.556692 -0.515625,0.703125 -0.0085,0.01095 -0.03906,0.037095 -0.04687,0.046875 -0.04689,0.05892 -0.09192,0.13809 -0.09375,0.140625 -0.0025,0.00345 -0.13839,0.230655 -0.140625,0.234375 -0.0023,0.00375 -0.13872,0.2304735 -0.140625,0.234375 -0.002,0.0039 -0.0922,0.2303235 -0.09375,0.234375 A 1.4237437,1.4237437 0 0 0 22.5,7.7819291 c 0,0 -0.327878,1.0196025 -0.703125,2.3906249 -0.369729,1.350855 -0.823917,3.084291 -0.796875,4.875 0.05313,3.518976 1.00551,8.593533 2.71875,13.265625 3.437839,9.375174 8.207656,19.545296 12.46875,27.09375 0.0018,0.0032 0.09172,0.184542 0.09375,0.1875 0.0021,0.003 0.13839,0.184697 0.140625,0.1875 0.0022,0.0029 0.138195,0.137985 0.140625,0.140625 0.0024,0.0027 0.138,0.185048 0.140625,0.1875 0.0025,0.0024 0.18471,0.13836 0.1875,0.140625 0.0029,0.0023 0.137685,0.13857 0.140625,0.140625 0.003,0.0021 0.184414,0.09192 0.1875,0.09375 0.0031,0.0018 0.18429,0.09215 0.1875,0.09375 0.0031,0.0017 0.231058,0.09239 0.234375,0.09375 0.0033,0.0014 0.184093,0.09263 0.1875,0.09375 0.0035,0.0011 0.184021,0.04599 0.1875,0.04687 0.0035,8.78e-4 0.230841,0.04624 0.234375,0.04687 0.0036,6.24e-4 0.183931,0.04651 0.1875,0.04687 0.0014,1.47e-4 0.05293,-0.0027 0.09375,0 -0.163007,0.557021 -0.344067,1.220969 -0.515625,1.734375 -0.604142,1.807977 -1.442994,3.490301 -1.734375,3.9375 -5.035163,0.09452 -9.827519,3.328676 -12.75,8.34375 -2.003601,3.438245 -2.807886,7.222326 -2.390625,10.6875 0.418651,3.476726 2.149557,6.73095 5.296875,8.53125 3.132963,1.792089 6.850384,1.709577 10.078125,0.328125 3.208404,-1.373176 6.065326,-3.979035 8.0625,-7.40625 1.530916,-2.627101 2.135703,-5.406774 2.25,-8.0625 5.11e-4,-9.82e-4 0.03496,-0.02181 0.04687,-0.04687 0.02779,-0.05849 0.04586,-0.138255 0.04687,-0.140625 0.0015,-0.0035 0.09255,-0.230886 0.09375,-0.234375 0.0012,-0.0035 0.04593,-0.183931 0.04687,-0.1875 9.39e-4,-0.0036 0.0462,-0.230746 0.04687,-0.234375 6.72e-4,-0.0036 0.04647,-0.230706 0.04687,-0.234375 4e-4,-0.0036 -1.28e-4,-0.183811 0,-0.1875 1.27e-4,-0.0038 1.47e-4,-0.230688 0,-0.234375 -0.04071,-1.662942 0.142755,-3.742171 0.796875,-5.390625 0.01524,-0.0384 0.03169,-0.05613 0.04687,-0.09375 0.0082,0.01809 0.04106,0.07908 0.04687,0.09375 0.654118,1.648443 0.837591,3.727676 0.796875,5.390625 a 1.4237437,1.4237437 0 0 0 0,0.04687 c -3.9e-5,0.0035 -2.09e-4,0.184002 0,0.1875 2.08e-4,0.0035 -4.55e-4,0.230901 0,0.234375 4.54e-4,0.0035 0.04619,0.184067 0.04687,0.1875 6.97e-4,0.0035 0.04595,0.184124 0.04687,0.1875 9.37e-4,0.0035 0.0457,0.231074 0.04687,0.234375 0.0012,0.0033 0.09235,0.18429 0.09375,0.1875 9.82e-4,0.0022 0.02025,0.0852 0.04687,0.140625 6.3e-4,0.01705 0.0462,0.0298 0.04687,0.04687 0.106125,2.672501 0.709011,5.464992 2.25,8.109375 1.997173,3.427215 4.854096,6.033074 8.0625,7.40625 3.22774,1.381452 6.945162,1.463964 10.078125,-0.328125 3.147318,-1.8003 4.878223,-5.054524 5.296875,-8.53125 0.417261,-3.465174 -0.387024,-7.249255 -2.390625,-10.6875 -2.931486,-5.030526 -7.74474,-8.268996 -12.796875,-8.34375 -0.172964,-0.264973 -0.411707,-0.712006 -0.703125,-1.359375 -0.0014,-0.0031 -0.09216,-0.184461 -0.09375,-0.1875 -0.0016,-0.003 -0.09195,-0.184578 -0.09375,-0.1875 -0.0018,-0.0028 -0.13863,-0.18471 -0.140625,-0.1875 -0.002,-0.0028 -0.09156,-0.137985 -0.09375,-0.140625 -0.0022,-0.0027 -0.138255,-0.185011 -0.140625,-0.1875 -0.0024,-0.0025 -0.18497,-0.1383 -0.1875,-0.140625 -0.0025,-0.0022 -0.13794,-0.09161 -0.140625,-0.09375 -0.0027,-0.0021 -0.137805,-0.138675 -0.140625,-0.140625 -0.0029,-0.002 -0.184547,-0.09199 -0.1875,-0.09375 -0.003,-0.0018 -0.184433,-0.13908 -0.1875,-0.140625 -0.003,-0.0015 -0.184334,-0.04556 -0.1875,-0.04687 -0.0031,-0.0013 -0.18425,-0.09264 -0.1875,-0.09375 4.928896,-7.666167 10.885965,-19.79076 15.09375,-31.265625 1.713241,-4.672092 2.665617,-9.746646 2.71875,-13.265625 0.02705,-1.790709 -0.427146,-3.524145 -0.796875,-4.875 C 73.827877,8.8015316 73.5,7.7819291 73.5,7.7819291 a 1.4237437,1.4237437 0 0 0 -0.04687,-0.046875 c -0.0015,-0.00405 -0.09185,-0.2304735 -0.09375,-0.234375 -0.0019,-0.0039 -0.13839,-0.230655 -0.140625,-0.234375 -0.0023,-0.00375 -0.138075,-0.2308635 -0.140625,-0.234375 -0.0018,-0.00255 -0.04686,-0.081705 -0.09375,-0.140625 -0.0057,-0.0072 -0.04063,-0.038565 -0.04687,-0.046875 -0.129765,-0.172647 -0.363864,-0.5724765 -0.84375,-1.078125 -0.309626,-0.32625 -0.758849,-0.6792015 -1.359375,-0.9375 -0.762962,-0.328164 -1.560024,-0.40482 -2.4375,-0.140625 -1.466061,0.441648 -2.274477,1.59753 -2.90625,2.671875 -0.0045,0.00765 -0.04239,-0.00765 -0.04687,0 v 0.046875 L 48,36.235054 30.65625,7.4069291 c -0.0105,-0.01806 -0.03624,-0.028785 -0.04687,-0.046875 -0.512834,-0.8720865 -1.237784,-1.700379 -2.25,-2.25 -2.69e-4,-3.135e-4 -0.03294,-0.03315 -0.04687,-0.046875 -0.07127,-0.037185 -0.112665,-0.107175 -0.1875,-0.140625 -0.04972,-0.037785 -0.05889,-0.072105 -0.09375,-0.09375 -0.118515,-0.073575 -0.223419,-0.100965 -0.328125,-0.140625 -0.01848,-0.00705 -0.02758,-0.03999 -0.04687,-0.046875 -0.257178,-0.091817 -0.565118,-0.132507 -0.9375,-0.140625 z M 35.8125,73.500679 c 0.148935,-0.006 0.218611,0.0111 0.28125,0.04687 0.11106,0.06352 0.319215,0.205809 0.375,1.03125 0.05266,0.779346 -0.192635,2.036595 -0.890625,3.234375 -0.705521,1.210694 -1.670408,2.080113 -2.390625,2.4375 -0.779123,0.386618 -1.0494,0.277619 -1.125,0.234375 -0.113535,-0.06494 -0.318831,-0.193668 -0.375,-1.03125 -0.05335,-0.79554 0.199104,-2.094576 0.890625,-3.28125 1.042846,-1.78956 2.872971,-2.657136 3.234375,-2.671875 z m 24.375,0 c 0.361399,0.0147 2.191528,0.882315 3.234375,2.671875 0.691521,1.186674 0.943974,2.48571 0.890625,3.28125 -0.05617,0.837582 -0.261468,0.966309 -0.375,1.03125 -0.0756,0.04324 -0.345876,0.152243 -1.125,-0.234375 -0.720218,-0.357387 -1.685105,-1.226806 -2.390625,-2.4375 -0.697992,-1.197778 -0.943295,-2.455027 -0.890625,-3.234375 0.05579,-0.825441 0.263943,-0.967723 0.375,-1.03125 0.06264,-0.03584 0.132315,-0.05295 0.28125,-0.04687 z" />
  <path
     inkscape:connector-curvature="0"
     style="display:inline;opacity:0.15;fill:#000000;fill-opacity:1;stroke:none;stroke-width:1.5"
     id="path3942"
     d="m 26.671875,5.9069291 c -0.464796,-0.0102 -0.701148,0.125895 -0.84375,0.1875 -0.629514,0.2718975 -0.901661,0.6524355 -1.125,0.9375 -0.22334,0.2850645 -0.394914,0.5403 -0.5625,0.75 a 1.5726243,1.5726243 0 0 0 -0.28125,0.46875 c 0,0 -0.340997,0.9737865 -0.703125,2.2968749 -0.362129,1.323089 -0.772929,2.981625 -0.75,4.5 0.04923,3.260159 1.014352,8.276727 2.671875,12.796875 3.406765,9.290435 8.114251,19.39457 12.328125,26.859375 a 1.5726243,1.5726243 0 0 0 2.859375,-0.328125 c 0.792813,-2.925568 1.662564,-6.01003 3.09375,-8.578125 a 1.5726243,1.5726243 0 0 0 0.04687,-0.04687 1.5726243,1.5726243 0 0 0 0.04687,-0.04687 L 47.25,39.375679 a 1.5726243,1.5726243 0 0 0 0,-1.59375 L 29.4375,8.1100541 c -0.602805,-1.0344435 -1.112606,-1.748103 -2.15625,-2.0625 0.03528,0.01065 -0.144495,-0.130485 -0.609375,-0.140625 z m 42.046875,0.140625 c -1.043648,0.314397 -1.553445,1.0280595 -2.15625,2.0625 L 43.828125,45.985054 a 1.5726243,1.5726243 0 0 0 0,0.04687 c -2.14649,3.822681 -3.103734,9.039902 -4.453125,13.078125 -0.67278,2.013387 -1.538139,3.863499 -2.0625,4.546875 a 1.5726243,1.5726243 0 0 0 -0.09375,0.140625 c -0.113685,0.194544 -0.08493,0.10971 -0.04687,0.09375 0.03263,-0.01365 -0.07997,-0.0065 -0.28125,0 -0.03354,0.0011 -0.0051,0 -0.04687,0 -4.600073,-0.157545 -9.264509,2.879303 -12.09375,7.734375 -1.857213,3.187037 -2.579532,6.670974 -2.203125,9.796875 0.376407,3.125901 1.898164,5.958096 4.59375,7.5 2.691615,1.539633 5.919855,1.472409 8.8125,0.234375 2.892645,-1.238034 5.551918,-3.614782 7.40625,-6.796875 1.503655,-2.580319 2.121561,-5.311489 2.15625,-7.921875 A 1.5726243,1.5726243 0 0 0 45.75,73.547554 c -0.0436,-1.781173 0.12366,-4.020282 0.890625,-5.953125 0.91161,-2.297143 2.02035,-4.004863 6.140625,-5.203125 0.747694,-0.203236 1.403578,-0.535947 1.921875,-1.3125 4.975285,-7.159201 11.696691,-20.902468 16.21875,-33.234375 1.657524,-4.520148 2.622649,-9.536715 2.671875,-12.796875 0.02294,-1.518375 -0.387872,-3.176911 -0.75,-4.5 C 72.481621,9.2244656 72.140625,8.2506791 72.140625,8.2506791 a 1.5726243,1.5726243 0 0 0 -0.28125,-0.46875 C 71.625835,7.4897036 71.448945,7.1578706 71.0625,6.7506791 70.869277,6.5470826 70.583085,6.3181736 70.171875,6.1413041 69.760665,5.9644346 69.176445,5.9097491 68.71875,6.0475541 Z M 56.296875,60.844429 a 1.5726243,1.5726243 0 0 0 -1.359375,0.65625 c -0.617156,0.831858 -1.058625,1.054329 -1.96875,1.3125 a 1.5726243,1.5726243 0 0 0 -0.5625,0.28125 1.5726243,1.5726243 0 0 0 -0.140625,0.09375 c -1.204287,0.401589 -2.318273,0.789783 -3.046875,1.359375 a 1.5726243,1.5726243 0 0 0 -0.421875,1.96875 c 0.213033,0.398591 0.430491,0.745478 0.5625,1.078125 0.766969,1.932837 0.934236,4.171946 0.890625,5.953125 a 1.5726243,1.5726243 0 0 0 0.234375,0.84375 c 0.02632,2.623995 0.643774,5.373297 2.15625,7.96875 1.854331,3.182093 4.513605,5.558841 7.40625,6.796875 2.892645,1.238034 6.120885,1.305258 8.8125,-0.234375 2.695585,-1.541904 4.217343,-4.374099 4.59375,-7.5 0.376407,-3.125901 -0.345912,-6.609838 -2.203125,-9.796875 -2.829242,-4.855072 -7.493678,-7.89192 -12.09375,-7.734375 -0.04172,0 -0.01335,0.0011 -0.04687,0 -0.201278,-0.0065 -0.313872,-0.01365 -0.28125,0 0.03805,0.01596 0.06681,0.1008 -0.04687,-0.09375 A 1.5726243,1.5726243 0 0 0 58.6875,63.656929 c -0.280227,-0.365208 -0.659835,-1.049925 -1.03125,-1.875 a 1.5726243,1.5726243 0 0 0 -1.359375,-0.9375 z m -20.53125,11.25 c 0.35299,-0.0144 0.70432,0.04737 1.03125,0.234375 0.588138,0.336422 1.001673,1.025009 1.078125,2.15625 0.07646,1.131242 -0.246342,2.603879 -1.078125,4.03125 -0.832742,1.429008 -1.955982,2.481936 -3,3 -1.044018,0.518064 -1.860249,0.517694 -2.4375,0.1875 -0.581024,-0.332352 -1.00128,-1.01034 -1.078125,-2.15625 -0.07684,-1.14591 0.24795,-2.653516 1.078125,-4.078125 1.250818,-2.146446 3.189255,-3.325368 4.40625,-3.375 z m 24.46875,0 c 1.216992,0.04963 3.155431,1.228554 4.40625,3.375 0.830175,1.424609 1.15497,2.932215 1.078125,4.078125 -0.07685,1.14591 -0.497102,1.823898 -1.078125,2.15625 -0.577253,0.330195 -1.393482,0.330564 -2.4375,-0.1875 -1.044018,-0.518064 -2.167259,-1.570992 -3,-3 -0.831785,-1.427371 -1.154577,-2.900008 -1.078125,-4.03125 0.07646,-1.131241 0.489987,-1.819828 1.078125,-2.15625 0.326934,-0.187008 0.678259,-0.248767 1.03125,-0.234375 z" />
  <path
     style="display:inline;opacity:0.3;fill:#000000;fill-opacity:1;stroke:none;stroke-width:1.5"
     id="path3936"
     inkscape:connector-curvature="0"
     d="m 26.625,7.5006791 c -0.06172,-0.00135 -0.12753,0.02097 -0.1875,0.046875 -0.359805,0.155406 -0.64587,0.6778725 -1.078125,1.21875 0,0 -1.39566,3.8315549 -1.359375,6.2343749 0.04485,2.970195 0.941835,7.946835 2.53125,12.28125 3.372312,9.196478 8.07367,19.301258 12.234375,26.671875 0.801655,-2.958198 1.709709,-6.154371 3.28125,-8.953125 a 3.6173767,3.6173767 0 0 1 0.04687,-0.09375 l 3.79688,-6.328125 -17.8125,-29.6718749 C 27.56682,8.0295041 27.139638,7.6461041 26.8125,7.5475541 26.744346,7.5270341 26.686719,7.5020246 26.625,7.5006791 Z m 42.5625,0.046875 c -0.32714,0.09855 -0.754319,0.48195 -1.265625,1.359375 L 45.1875,46.781929 c -1.925163,3.42852 -2.909111,8.64393 -4.3125,12.84375 -0.701697,2.099925 -1.529181,3.96825 -2.296875,4.96875 -0.478155,0.818205 -1.040882,0.890625 -1.734375,0.890625 -3.855411,-0.150045 -8.138744,2.48331 -10.734375,6.9375 -3.390899,5.81889 -2.576781,12.62097 1.828125,15.140625 4.404906,2.519655 10.671603,-0.18111 14.0625,-6 1.56082,-2.678415 2.225445,-5.53755 2.0625,-8.109375 l 0.09375,0.140625 c -0.04702,-1.920645 0.14949,-4.340355 1.03125,-6.5625 1.011388,-2.548575 2.679622,-4.834185 7.171875,-6.140625 0.386839,-0.10515 0.807333,-0.367635 1.03125,-0.703125 C 58.203832,53.262199 64.991982,39.490324 69.46875,27.281929 71.058166,22.947514 71.955153,17.970874 72,15.000679 72.036285,12.597859 70.640625,8.7663041 70.640625,8.7663041 70.064283,8.0451341 69.73273,7.3833941 69.1875,7.5475541 Z M 56.203125,62.438179 c -0.822686,1.108892 -1.728693,1.567562 -2.8125,1.875 v 0.04687 c -1.581932,0.460058 -2.530562,0.892682 -3.1875,1.40625 0.220246,0.412086 0.438303,0.834545 0.609375,1.265625 0.88177,2.222145 1.078275,4.641855 1.03125,6.5625 l 0.09375,-0.140625 c -0.162945,2.571825 0.501679,5.43096 2.0625,8.109375 3.390898,5.81889 9.657594,8.519655 14.0625,6 4.404906,-2.519655 5.219022,-9.321735 1.828125,-15.140625 -2.595632,-4.45419 -6.878964,-7.087545 -10.734375,-6.9375 -0.693492,0 -1.256219,-0.07242 -1.734375,-0.890625 -0.397083,-0.5175 -0.813926,-1.256959 -1.21875,-2.15625 z m -20.484375,8.0625 c 0.665853,-0.02715 1.31038,0.145785 1.875,0.46875 2.258479,1.291875 2.510526,5.000865 0.5625,8.34375 -1.948028,3.34287 -5.335271,5.041875 -7.59375,3.75 -2.25848,-1.291875 -2.510528,-5.04774 -0.5625,-8.390625 1.461021,-2.50716 3.721192,-4.09041 5.71875,-4.171875 z m 24.5625,0 c 1.997556,0.08146 4.257729,1.664715 5.71875,4.171875 1.948027,3.342885 1.695979,7.09875 -0.5625,8.390625 -2.258481,1.291875 -5.645723,-0.40713 -7.59375,-3.75 -1.948028,-3.342885 -1.69598,-7.051875 0.5625,-8.34375 0.564621,-0.322965 1.209147,-0.4959 1.875,-0.46875 z" />
  <rect
     style="color:#000000;display:inline;overflow:visible;visibility:visible;fill:url(#linearGradient3905);fill-opacity:1;fill-rule:nonzero;stroke:none;stroke-width:2;marker:none;enable-background:accumulate"
     id="rect3897"
     transform="matrix(0,1,1,0,0,0)"
     y="104"
     x="0"
     height="16"
     width="16" />
  <text
     style="font-style:normal;font-variant:normal;font-weight:normal;font-stretch:normal;font-size:4px;line-height:125%;font-family:'Liberation Sans';-inkscape-font-specification:'Liberation Sans';text-align:start;letter-spacing:0px;word-spacing:0px;writing-mode:lr-tb;text-anchor:start;fill:#000000;fill-opacity:1;stroke:none"
     xml:space="preserve"
     id="text3907"
     y="48"
     x="104"><tspan
       id="tspan3909"
       y="48"
       x="104">Shadow opacity : 30, 15, 10, (8)</tspan></text>
  <rect
     style="color:#000000;display:inline;overflow:visible;visibility:visible;fill:url(#linearGradient3913);fill-opacity:1;fill-rule:nonzero;stroke:none;stroke-width:2;marker:none;enable-background:accumulate"
     id="rect3911"
     transform="rotate(-90)"
     y="104"
     x="-40"
     height="16"
     width="16" />
  <text
     style="font-style:normal;font-variant:normal;font-weight:normal;font-stretch:normal;font-size:4px;line-height:125%;font-family:'Liberation Sans';-inkscape-font-specification:'Liberation Sans';text-align:start;letter-spacing:0px;word-spacing:0px;writing-mode:lr-tb;text-anchor:start;fill:#000000;fill-opacity:1;stroke:none"
     xml:space="preserve"
     id="text3951"
     y="32"
     x="124"><tspan
       id="tspan3953"
       y="32"
       x="124">Bevel opacity : 30 / 10</tspan></text>
  <text
     style="font-style:normal;font-variant:normal;font-weight:normal;font-stretch:normal;font-size:4px;line-height:125%;font-family:'Liberation Sans';-inkscape-font-specification:'Liberation Sans';text-align:start;letter-spacing:0px;word-spacing:0px;writing-mode:lr-tb;text-anchor:start;fill:#000000;fill-opacity:1;stroke:none"
     xml:space="preserve"
     id="text3955"
     y="8"
     x="124"><tspan
       id="tspan3957"
       y="8"
       x="124">Bevel opacity : 75 / 15</tspan></text>
  <path
     style="display:inline;fill:url(#linearGradient3916);fill-opacity:1;stroke:none;stroke-width:1.5"
     id="path3113"
     inkscape:connector-curvature="0"
     d="m 26.625,6.0006791 c -0.06172,-0.00135 -0.12753,0.02097 -0.1875,0.046875 -0.359805,0.155406 -0.64587,0.6778725 -1.078125,1.21875 0,0 -1.39566,3.8315549 -1.359375,6.2343749 0.04485,2.970195 0.941835,7.946835 2.53125,12.28125 3.372312,9.196478 8.07367,19.301258 12.234375,26.671875 0.801655,-2.958198 1.709709,-6.154371 3.28125,-8.953125 a 3.6173767,3.6173767 0 0 1 0.04687,-0.09375 l 3.79688,-6.328125 -17.8125,-29.6718749 C 27.56682,6.5295041 27.139638,6.1461041 26.8125,6.0475541 26.744346,6.0270341 26.686719,6.0020246 26.625,6.0006791 Z m 42.5625,0.046875 c -0.32714,0.09855 -0.754319,0.48195 -1.265625,1.359375 L 45.1875,45.281929 c -1.925163,3.42852 -2.909111,8.64393 -4.3125,12.84375 -0.701697,2.099925 -1.529181,3.96825 -2.296875,4.96875 -0.478155,0.818205 -1.040882,0.890625 -1.734375,0.890625 -3.855411,-0.150045 -8.138744,2.48331 -10.734375,6.9375 -3.390899,5.81889 -2.576781,12.62097 1.828125,15.140625 4.404906,2.519655 10.671603,-0.18111 14.0625,-6 1.56082,-2.678415 2.225445,-5.53755 2.0625,-8.109375 l 0.09375,0.140625 c -0.04702,-1.920645 0.14949,-4.340355 1.03125,-6.5625 1.011388,-2.548575 2.679622,-4.834185 7.171875,-6.140625 0.386839,-0.10515 0.807333,-0.367635 1.03125,-0.703125 C 58.203832,51.762199 64.991982,37.990324 69.46875,25.781929 71.058166,21.447514 71.955153,16.470874 72,13.500679 72.036285,11.097859 70.640625,7.2663041 70.640625,7.2663041 70.064283,6.5451341 69.73273,5.8833941 69.1875,6.0475541 Z M 56.203125,60.938179 c -0.822686,1.108892 -1.728693,1.567562 -2.8125,1.875 v 0.04687 c -1.581932,0.460058 -2.530562,0.892682 -3.1875,1.40625 0.220246,0.412086 0.438303,0.834545 0.609375,1.265625 0.88177,2.222145 1.078275,4.641855 1.03125,6.5625 l 0.09375,-0.140625 c -0.162945,2.571825 0.501679,5.43096 2.0625,8.109375 3.390898,5.81889 9.657594,8.519655 14.0625,6 4.404906,-2.519655 5.219022,-9.321735 1.828125,-15.140625 -2.595632,-4.45419 -6.878964,-7.087545 -10.734375,-6.9375 -0.693492,0 -1.256219,-0.07242 -1.734375,-0.890625 -0.397083,-0.5175 -0.813926,-1.256959 -1.21875,-2.15625 z m -20.484375,8.0625 c 0.665853,-0.02715 1.31038,0.145785 1.875,0.46875 2.258479,1.291875 2.510526,5.000865 0.5625,8.34375 -1.948028,3.34287 -5.335271,5.041875 -7.59375,3.75 -2.25848,-1.291875 -2.510528,-5.04774 -0.5625,-8.390625 1.461021,-2.50716 3.721192,-4.09041 5.71875,-4.171875 z m 24.5625,0 c 1.997556,0.08146 4.257729,1.664715 5.71875,4.171875 1.948027,3.342885 1.695979,7.09875 -0.5625,8.390625 -2.258481,1.291875 -5.645723,-0.40713 -7.59375,-3.75 -1.948028,-3.342885 -1.69598,-7.051875 0.5625,-8.34375 0.564621,-0.322965 1.209147,-0.4959 1.875,-0.46875 z" />
  <path
     style="display:inline;opacity:0.75;fill:#ffffff;fill-opacity:1;stroke:none;stroke-width:1.5"
     id="path3918"
     inkscape:connector-curvature="0"
     d="m 26.625,6.0006791 c -0.06172,-0.00135 -0.12753,0.02097 -0.1875,0.046875 -0.359805,0.155406 -0.64587,0.6778725 -1.078125,1.21875 0,0 -1.39566,3.8315549 -1.359375,6.2343749 0.0024,0.162135 0.03937,0.388839 0.04687,0.5625 0.24283,-2.343085 1.3125,-5.2968749 1.3125,-5.2968749 0.432255,-0.5408775 0.71832,-1.063344 1.078125,-1.21875 0.05997,-0.025905 0.125775,-0.048225 0.1875,-0.046875 0.06172,0.00135 0.11934,0.026355 0.1875,0.046875 0.327138,0.09855 0.75432,0.48195 1.265625,1.359375 l 17.34375,28.9218749 0.46875,-0.75 -17.8125,-29.6718749 c -0.5113,-0.877425 -0.938482,-1.260825 -1.26562,-1.359375 -0.06815,-0.02052 -0.125781,-0.045529 -0.1875,-0.046875 z m 42.5625,0.046875 c -0.32714,0.09855 -0.754319,0.48195 -1.265625,1.359375 L 45.1875,45.281929 c -1.925163,3.42852 -2.909111,8.64393 -4.3125,12.84375 -0.701697,2.099925 -1.529181,3.96825 -2.296875,4.96875 -0.478155,0.818205 -1.040882,0.890625 -1.734375,0.890625 -3.855411,-0.150045 -8.138744,2.48331 -10.734375,6.9375 -1.570376,2.694815 -2.234859,5.609588 -2.0625,8.203125 0.12132,-2.180926 0.790912,-4.52104 2.0625,-6.703125 2.595631,-4.45419 6.878964,-7.087545 10.734375,-6.9375 0.693493,0 1.25622,-0.07242 1.734375,-0.890625 0.767694,-1.0005 1.595178,-2.868825 2.296875,-4.96875 1.403389,-4.19982 2.387337,-9.41523 4.3125,-12.84375 L 67.921875,8.9069291 c 0.511306,-0.877425 0.938485,-1.260825 1.265625,-1.359375 0.54523,-0.16416 0.876783,0.49758 1.453125,1.21875 0,0 1.069669,2.9537899 1.3125,5.2968749 0.0075,-0.173661 0.04443,-0.400365 0.04687,-0.5625 0.03629,-2.40282 -1.359375,-6.2343749 -1.359375,-6.2343749 -0.576342,-0.72117 -0.907895,-1.38291 -1.453125,-1.21875 z M 56.203125,60.938179 c -0.822686,1.108892 -1.728693,1.567562 -2.8125,1.875 v 0.04687 c -1.581932,0.460058 -2.530562,0.892682 -3.1875,1.40625 0.197191,0.368951 0.400968,0.740678 0.5625,1.125 0.6181,-0.359902 1.438551,-0.686206 2.625,-1.03125 v -0.04687 c 1.083807,-0.307438 1.989814,-0.766108 2.8125,-1.875 0.404824,0.899291 0.821667,1.63875 1.21875,2.15625 0.478156,0.818205 1.040883,0.890625 1.734375,0.890625 3.855411,-0.150045 8.138743,2.48331 10.734375,6.9375 1.271586,2.182085 1.941183,4.522199 2.0625,6.703125 0.172359,-2.593537 -0.492126,-5.50831 -2.0625,-8.203125 -2.595632,-4.45419 -6.878964,-7.087545 -10.734375,-6.9375 -0.693492,0 -1.256219,-0.07242 -1.734375,-0.890625 -0.397083,-0.5175 -0.813926,-1.256959 -1.21875,-2.15625 z m -16.78125,13.171875 c -0.127755,1.197126 -0.544148,2.465042 -1.265625,3.703125 -1.948028,3.34287 -5.335271,5.041875 -7.59375,3.75 -1.043771,-0.597048 -1.660571,-1.728133 -1.828125,-3.09375 -0.203252,2.03003 0.416575,3.786329 1.828125,4.59375 2.258479,1.291875 5.645722,-0.40713 7.59375,-3.75 1.037458,-1.780317 1.446928,-3.635544 1.265625,-5.203125 z m 17.15625,0 c -0.181304,1.567581 0.228166,3.422808 1.265625,5.203125 1.948027,3.34287 5.335269,5.041875 7.59375,3.75 1.411549,-0.807421 2.031376,-2.56372 1.828125,-4.59375 -0.167555,1.365617 -0.784355,2.496702 -1.828125,3.09375 -2.258481,1.291875 -5.645723,-0.40713 -7.59375,-3.75 -0.721479,-1.238083 -1.137875,-2.505999 -1.265625,-3.703125 z" />
  <path
     style="display:inline;opacity:0.15;fill:#000000;fill-opacity:1;stroke:none;stroke-width:1.5"
     id="path3927"
     inkscape:connector-curvature="0"
     d="M 24.046875,12.610054 C 24.015525,12.92692 23.99569,13.215307 24,13.500679 c 0.04485,2.970195 0.941835,7.946835 2.53125,12.28125 3.372312,9.196478 8.07367,19.301258 12.234375,26.671875 0.801655,-2.958198 1.709709,-6.154371 3.28125,-8.953125 a 3.6173767,3.6173767 0 0 1 0.04687,-0.09375 l 3.796875,-6.328125 -0.46875,-0.75 -3.328125,5.578125 a 3.6173767,3.6173767 0 0 0 -0.04687,0.09375 c -1.571541,2.798754 -2.479595,5.994927 -3.28125,8.953125 C 34.60492,43.583187 29.903562,33.478407 26.53125,24.281929 25.035783,20.203717 24.183331,15.619155 24.046875,12.610054 Z m 47.90625,0 c -0.136455,3.009101 -0.988907,7.593663 -2.484375,11.671875 -4.476768,12.208395 -11.264918,25.98027 -16.078125,32.90625 -0.223917,0.33549 -0.644411,0.597975 -1.03125,0.703125 -4.492253,1.30644 -6.160487,3.59205 -7.171875,6.140625 -0.88176,2.222145 -1.078275,4.641855 -1.03125,6.5625 0.07677,-1.594978 0.36993,-3.39589 1.03125,-5.0625 1.011388,-2.548575 2.679622,-4.834185 7.171875,-6.140625 0.386839,-0.10515 0.807333,-0.367635 1.03125,-0.703125 C 58.203832,51.762199 64.991982,37.990324 69.46875,25.781929 71.058166,21.447514 71.955153,16.470874 72,13.500679 72.0044,13.215307 71.98448,12.92692 71.95313,12.610054 Z M 44.15625,70.594429 44.0625,70.453804 c 0.03101,0.489491 0.02942,0.992921 0,1.5 l 0.09375,0.140625 c -0.0117,-0.48016 -0.02559,-0.96834 0,-1.5 z m -0.09375,1.359375 c -0.125145,2.157158 -0.798747,4.440738 -2.0625,6.609375 -3.390897,5.81889 -9.657594,8.519655 -14.0625,6 -2.352518,-1.345666 -3.680063,-3.904138 -3.890625,-6.890625 -0.187904,3.615734 1.149505,6.822675 3.890625,8.390625 4.404906,2.519655 10.671603,-0.18111 14.0625,-6 1.56082,-2.678415 2.225445,-5.53755 2.0625,-8.109375 z m 6.703125,-8.0625 c -0.206034,0.11997 -0.398265,0.246608 -0.5625,0.375 0.220246,0.412086 0.438303,0.834545 0.609375,1.265625 0.661327,1.66661 0.954489,3.467522 1.03125,5.0625 0.04702,-1.920645 -0.149475,-4.340355 -1.03125,-6.5625 -0.01791,-0.04512 -0.02799,-0.09569 -0.04687,-0.140625 z m 1.078125,6.703125 c 0.02559,0.53166 0.0117,1.01984 0,1.5 l 0.09375,-0.140625 c -0.02942,-0.507079 -0.03101,-1.010509 0,-1.5 z m 0.09375,1.359375 c -0.162945,2.571825 0.501679,5.43096 2.0625,8.109375 3.390898,5.81889 9.657594,8.519655 14.0625,6 2.741119,-1.56795 4.078528,-4.774891 3.890625,-8.390625 -0.210563,2.986487 -1.538108,5.544959 -3.890625,6.890625 -4.404906,2.519655 -10.671602,-0.18111 -14.0625,-6 -1.263753,-2.168637 -1.937357,-4.452217 -2.0625,-6.609375 z M 35.71875,67.500679 c -1.997558,0.08146 -4.257729,1.664715 -5.71875,4.171875 -1.037459,1.780317 -1.446929,3.66999 -1.265625,5.25 0.12756,-1.205665 0.543834,-2.511381 1.265625,-3.75 1.461021,-2.50716 3.721192,-4.09041 5.71875,-4.171875 0.665853,-0.02715 1.31038,0.145785 1.875,0.46875 1.04377,0.597048 1.66057,1.738902 1.828125,3.09375 0.203251,-2.016295 -0.416576,-3.786328 -1.828125,-4.59375 -0.56462,-0.322965 -1.209147,-0.4959 -1.875,-0.46875 z m 24.5625,0 c -0.665853,-0.02715 -1.310379,0.145785 -1.875,0.46875 -1.41155,0.807422 -2.031377,2.577455 -1.828125,4.59375 0.167554,-1.354848 0.784354,-2.496702 1.828125,-3.09375 0.564621,-0.322965 1.209147,-0.4959 1.875,-0.46875 1.997556,0.08146 4.257729,1.664715 5.71875,4.171875 0.721791,1.238619 1.138071,2.544335 1.265625,3.75 0.181303,-1.58001 -0.228167,-3.469683 -1.265625,-5.25 -1.461021,-2.50716 -3.721194,-4.09041 -5.71875,-4.171875 z" />
</svg>
