<?xml version="1.0" encoding="UTF-8" standalone="no"?>
<!-- Created with Inkscape (http://www.inkscape.org/) -->

<svg
   xmlns:dc="http://purl.org/dc/elements/1.1/"
   xmlns:cc="http://creativecommons.org/ns#"
   xmlns:rdf="http://www.w3.org/1999/02/22-rdf-syntax-ns#"
   xmlns:svg="http://www.w3.org/2000/svg"
   xmlns="http://www.w3.org/2000/svg"
   xmlns:xlink="http://www.w3.org/1999/xlink"
   xmlns:sodipodi="http://sodipodi.sourceforge.net/DTD/sodipodi-0.dtd"
   xmlns:inkscape="http://www.inkscape.org/namespaces/inkscape"
   version="1.0"
   width="96"
   height="96"
   id="svg2408"
   style="display:inline"
   sodipodi:docname="folder-copy.svg"
   inkscape:version="0.92.2 2405546, 2018-03-11">
  <sodipodi:namedview
     pagecolor="#ffffff"
     bordercolor="#666666"
     borderopacity="1"
     objecttolerance="10"
     gridtolerance="10"
     guidetolerance="10"
     inkscape:pageopacity="0"
     inkscape:pageshadow="2"
     inkscape:window-width="1228"
     inkscape:window-height="996"
     id="namedview2474"
     showgrid="false"
     inkscape:zoom="2.4583333"
     inkscape:cx="-33.122746"
     inkscape:cy="71.309846"
     inkscape:window-x="52"
     inkscape:window-y="0"
     inkscape:window-maximized="1"
     inkscape:current-layer="svg2408" />
  <defs
     id="defs2410">
    <linearGradient
       id="linearGradient3637">
      <stop
         id="stop3639"
         style="stop-color:#f0f0f0;stop-opacity:1"
         offset="0" />
      <stop
         id="stop3641"
         style="stop-color:#dcdcdc;stop-opacity:1"
         offset="1" />
    </linearGradient>
    <linearGradient
       x1="45.447727"
       y1="92.539597"
       x2="45.447727"
       y2="7.0165396"
       id="ButtonShadow"
       gradientUnits="userSpaceOnUse"
       gradientTransform="scale(1.0058652,0.994169)">
      <stop
         id="stop3750"
         style="stop-color:#000000;stop-opacity:1"
         offset="0" />
      <stop
         id="stop3752"
         style="stop-color:#000000;stop-opacity:0.58823532"
         offset="1" />
    </linearGradient>
    <linearGradient
       id="linearGradient3737">
      <stop
         id="stop3739"
         style="stop-color:#ffffff;stop-opacity:1"
         offset="0" />
      <stop
         id="stop3741"
         style="stop-color:#ffffff;stop-opacity:0"
         offset="1" />
    </linearGradient>
    <linearGradient
       id="linearGradient3700">
      <stop
         id="stop3702"
         style="stop-color:#2276c5;stop-opacity:1"
         offset="0" />
      <stop
         id="stop3704"
         style="stop-color:#68baf4;stop-opacity:1"
         offset="1" />
    </linearGradient>
    <filter
       color-interpolation-filters="sRGB"
       id="filter3174">
      <feGaussianBlur
         id="feGaussianBlur3176"
         stdDeviation="1.71" />
    </filter>
    <linearGradient
       x1="36.357143"
       y1="6"
       x2="36.357143"
       y2="63.893143"
       id="linearGradient3188"
       xlink:href="#linearGradient3737"
       gradientUnits="userSpaceOnUse" />
    <radialGradient
       cx="48"
       cy="90.171875"
       r="42"
       fx="48"
       fy="90.171875"
       id="radialGradient3619"
       xlink:href="#linearGradient3737"
       gradientUnits="userSpaceOnUse"
       gradientTransform="matrix(1.1573129,0,0,0.99590774,-7.5510206,0.19713193)" />
    <linearGradient
       x1="48"
       y1="90"
       x2="48"
       y2="5.9877172"
       id="linearGradient2843"
       xlink:href="#linearGradient3700"
       gradientUnits="userSpaceOnUse"
       gradientTransform="translate(0,100)" />
    <clipPath
       id="clipPath3625">
      <path
         d="M 0,0 0,96 96,96 96,0 0,0 z m 12,6 72,0 c 3.324,0 6,2.676 6,6 l 0,72 c 0,3.324 -2.676,6 -6,6 L 12,90 C 8.676,90 6,87.324 6,84 L 6,12 C 6,8.676 8.676,6 12,6 z"
         inkscape:connector-curvature="0"
         id="path3627"
         style="fill:#ffffff;fill-opacity:1;stroke:none" />
    </clipPath>
    <linearGradient
       x1="44.512066"
       y1="6"
       x2="44.512066"
       y2="90.015434"
       id="linearGradient3643"
       xlink:href="#linearGradient3637"
       gradientUnits="userSpaceOnUse" />
    <clipPath
       id="clipPath3649">
      <rect
         width="76"
         height="76"
         rx="4"
         ry="4"
         x="10"
         y="10"
         id="rect3651"
         style="fill:#ffffff;fill-opacity:1;fill-rule:nonzero;stroke:none" />
    </clipPath>
    <filter
       color-interpolation-filters="sRGB"
       id="filter3657">
      <feGaussianBlur
         id="feGaussianBlur3659"
         stdDeviation="1.14" />
    </filter>
    <linearGradient
       id="linearGradient4081">
      <stop
         id="stop4083"
         style="stop-color:#aaaaaa;stop-opacity:1"
         offset="0" />
      <stop
         id="stop4085"
         style="stop-color:#f0f0f0;stop-opacity:1"
         offset="1" />
    </linearGradient>
    <linearGradient
       x1="29.826593"
       y1="51.954468"
       x2="65.693901"
       y2="51.954468"
       id="linearGradient3034"
       xlink:href="#linearGradient4081"
       gradientUnits="userSpaceOnUse"
       gradientTransform="matrix(0,-1,-1,0,96,16)" />
    <linearGradient
       x1="29.826593"
       y1="51.954468"
       x2="65.693901"
       y2="51.954468"
       id="linearGradient3705"
       xlink:href="#linearGradient4081"
       gradientUnits="userSpaceOnUse"
       gradientTransform="matrix(0,-1,-1,0,36,16)" />
    <linearGradient
       x1="45.447727"
       y1="92.539597"
       x2="45.447727"
       y2="7.0165396"
       id="ButtonShadow-0"
       gradientUnits="userSpaceOnUse"
       gradientTransform="matrix(1.0058652,0,0,0.994169,100,0)">
      <stop
         id="stop3750-8"
         style="stop-color:#000000;stop-opacity:1"
         offset="0" />
      <stop
         id="stop3752-5"
         style="stop-color:#000000;stop-opacity:0.58823532"
         offset="1" />
    </linearGradient>
    <linearGradient
       x1="32.251034"
       y1="6.1317081"
       x2="32.251034"
       y2="90.238609"
       id="linearGradient3780"
       xlink:href="#ButtonShadow-0"
       gradientUnits="userSpaceOnUse"
       gradientTransform="matrix(1.0238095,0,0,-1.0119048,-1.1428571,98.071429)" />
    <linearGradient
       x1="32.251034"
       y1="6.1317081"
       x2="32.251034"
       y2="90.238609"
       id="linearGradient3772"
       xlink:href="#ButtonShadow-0"
       gradientUnits="userSpaceOnUse"
       gradientTransform="matrix(1.0238095,0,0,-1.0119048,-1.1428571,98.071429)" />
    <linearGradient
       x1="32.251034"
       y1="6.1317081"
       x2="32.251034"
       y2="90.238609"
       id="linearGradient3725-3"
       xlink:href="#ButtonShadow-0"
       gradientUnits="userSpaceOnUse"
       gradientTransform="matrix(1.0238095,0,0,-1.0119048,-1.1428571,98.071429)" />
    <linearGradient
       x1="32.251034"
       y1="6.1317081"
       x2="32.251034"
       y2="90.238609"
       id="linearGradient3721-4"
       xlink:href="#ButtonShadow-0"
       gradientUnits="userSpaceOnUse"
       gradientTransform="matrix(1,0,0,-1,0,97)" />
    <linearGradient
       x1="32.251034"
       y1="6.1317081"
       x2="32.251034"
       y2="90.238609"
       id="linearGradient3216"
       xlink:href="#ButtonShadow-0"
       gradientUnits="userSpaceOnUse"
       gradientTransform="matrix(1.0238095,0,0,-1.0119048,-1.1428571,98.071429)" />
    <linearGradient
       x1="36.357143"
       y1="6"
       x2="36.357143"
       y2="63.893143"
       id="linearGradient3188-4"
       xlink:href="#linearGradient3737-5"
       gradientUnits="userSpaceOnUse" />
    <linearGradient
       id="linearGradient3737-5">
      <stop
         id="stop3739-8"
         style="stop-color:#ffffff;stop-opacity:1"
         offset="0" />
      <stop
         id="stop3741-0"
         style="stop-color:#ffffff;stop-opacity:0"
         offset="1" />
    </linearGradient>
    <radialGradient
       cx="48"
       cy="90.171875"
       r="42"
       fx="48"
       fy="90.171875"
       id="radialGradient3619-8"
       xlink:href="#linearGradient3737-5"
       gradientUnits="userSpaceOnUse"
       gradientTransform="matrix(1.1573129,0,0,0.99590774,-7.551021,0.1971319)" />
    <linearGradient
       x1="48"
       y1="60"
       x2="48"
       y2="8"
       id="linearGradient3984"
       xlink:href="#linearGradient4081"
       gradientUnits="userSpaceOnUse"
       gradientTransform="matrix(1.5,0,0,1.5,-6.002412,-3.498958)" />
  </defs>
  <metadata
     id="metadata2413">
    <rdf:RDF>
      <cc:Work
         rdf:about="">
        <dc:format>image/svg+xml</dc:format>
        <dc:type
           rdf:resource="http://purl.org/dc/dcmitype/StillImage" />
        <dc:title />
      </cc:Work>
    </rdf:RDF>
  </metadata>
  <g
     id="layer2"
     style="display:none">
    <rect
       width="86"
       height="85"
       rx="6"
       ry="6"
       x="5"
       y="7"
       clip-path="url(#clipPath3625)"
       id="rect3745"
       style="opacity:0.9;fill:url(#ButtonShadow);fill-opacity:1;fill-rule:nonzero;stroke:none;filter:url(#filter3174)" />
  </g>
  <g
     id="layer1"
     style="display:none">
    <rect
       width="84"
       height="84"
       rx="6"
       ry="6"
       x="6"
       y="6"
       id="rect2419"
       style="opacity:0.7;fill:#000000;fill-opacity:1;fill-rule:nonzero;stroke:none" />
    <path
       d="m 14,10 c -2.216,0 -4,1.784 -4,4 l 0,68 c 0,2.216 1.784,4 4,4 l 68,0 c 2.216,0 4,-1.784 4,-4 l 0,-68 c 0,-2.216 -1.784,-4 -4,-4 l -68,0 z m 0,3.0625 68,0 c 0.578769,0 0.9375,0.358731 0.9375,0.9375 l 0,68 c 0,0.578769 -0.358731,0.9375 -0.9375,0.9375 l -68,0 c -0.578769,0 -0.9375,-0.358731 -0.9375,-0.9375 l 0,-68 c 0,-0.578769 0.358731,-0.9375 0.9375,-0.9375 z"
       inkscape:connector-curvature="0"
       id="rect3726"
       style="opacity:0.07999998;fill:#000000;fill-opacity:1;fill-rule:nonzero;stroke:none" />
    <path
       d="M 12,6 C 8.676,6 6,8.676 6,12 l 0,72 c 0,3.324 2.676,6 6,6 l 72,0 c 3.324,0 6,-2.676 6,-6 L 90,12 C 90,8.676 87.324,6 84,6 L 12,6 z m 2,4 68,0 c 2.216,0 4,1.784 4,4 l 0,68 c 0,2.216 -1.784,4 -4,4 l -68,0 c -2.216,0 -4,-1.784 -4,-4 l 0,-68 c 0,-2.216 1.784,-4 4,-4 z"
       inkscape:connector-curvature="0"
       id="rect3629"
       style="fill:url(#linearGradient3643);fill-opacity:1;fill-rule:nonzero;stroke:none" />
    <path
       d="M 12,6 C 8.676,6 6,8.676 6,12 l 0,2 0,68 0,2 c 0,0.334721 0.04135,0.6507 0.09375,0.96875 0.0487,0.295596 0.09704,0.596915 0.1875,0.875 0.00988,0.03038 0.020892,0.0636 0.03125,0.09375 0.098865,0.287771 0.2348802,0.547452 0.375,0.8125 0.1445918,0.273507 0.3156161,0.535615 0.5,0.78125 0.1843839,0.245635 0.3737765,0.473472 0.59375,0.6875 0.439947,0.428056 0.94291,0.814526 1.5,1.09375 0.278545,0.139612 0.5734731,0.246947 0.875,0.34375 -0.2562018,-0.100222 -0.4867109,-0.236272 -0.71875,-0.375 -0.00741,-0.0044 -0.023866,0.0045 -0.03125,0 -0.031933,-0.0193 -0.062293,-0.04251 -0.09375,-0.0625 -0.120395,-0.0767 -0.2310226,-0.163513 -0.34375,-0.25 -0.1061728,-0.0808 -0.2132809,-0.161112 -0.3125,-0.25 C 8.4783201,88.557317 8.3087904,88.373362 8.15625,88.1875 8.0486711,88.057245 7.9378561,87.922215 7.84375,87.78125 7.818661,87.74287 7.805304,87.69538 7.78125,87.65625 7.716487,87.553218 7.6510225,87.451733 7.59375,87.34375 7.4927417,87.149044 7.3880752,86.928049 7.3125,86.71875 7.30454,86.69694 7.288911,86.6782 7.28125,86.65625 7.2494249,86.5643 7.2454455,86.469419 7.21875,86.375 7.1884177,86.268382 7.1483606,86.171969 7.125,86.0625 7.0521214,85.720988 7,85.364295 7,85 L 7,83 7,15 7,13 C 7,10.218152 9.2181517,8 12,8 l 2,0 68,0 2,0 c 2.781848,0 5,2.218152 5,5 l 0,2 0,68 0,2 c 0,0.364295 -0.05212,0.720988 -0.125,1.0625 -0.04415,0.206893 -0.08838,0.397658 -0.15625,0.59375 -0.0077,0.02195 -0.0233,0.04069 -0.03125,0.0625 -0.06274,0.173739 -0.138383,0.367449 -0.21875,0.53125 -0.04158,0.0828 -0.07904,0.169954 -0.125,0.25 -0.0546,0.09721 -0.126774,0.18835 -0.1875,0.28125 -0.09411,0.140965 -0.204921,0.275995 -0.3125,0.40625 -0.143174,0.17445 -0.303141,0.346998 -0.46875,0.5 -0.01117,0.0102 -0.01998,0.02115 -0.03125,0.03125 -0.138386,0.125556 -0.285091,0.234436 -0.4375,0.34375 -0.102571,0.07315 -0.204318,0.153364 -0.3125,0.21875 -0.0074,0.0045 -0.02384,-0.0044 -0.03125,0 -0.232039,0.138728 -0.462548,0.274778 -0.71875,0.375 0.301527,-0.0968 0.596455,-0.204138 0.875,-0.34375 0.55709,-0.279224 1.060053,-0.665694 1.5,-1.09375 0.219973,-0.214028 0.409366,-0.441865 0.59375,-0.6875 0.184384,-0.245635 0.355408,-0.507743 0.5,-0.78125 0.14012,-0.265048 0.276135,-0.524729 0.375,-0.8125 0.01041,-0.03078 0.02133,-0.06274 0.03125,-0.09375 0.09046,-0.278085 0.1388,-0.579404 0.1875,-0.875 C 89.95865,84.6507 90,84.334721 90,84 l 0,-2 0,-68 0,-2 C 90,8.676 87.324,6 84,6 L 12,6 z"
       inkscape:connector-curvature="0"
       id="rect3728"
       style="fill:url(#linearGradient3188);fill-opacity:1;fill-rule:nonzero;stroke:none" />
    <path
       d="M 12,90 C 8.676,90 6,87.324 6,84 L 6,82 6,14 6,12 c 0,-0.334721 0.04135,-0.6507 0.09375,-0.96875 0.0487,-0.295596 0.09704,-0.596915 0.1875,-0.875 C 6.29113,10.12587 6.302142,10.09265 6.3125,10.0625 6.411365,9.774729 6.5473802,9.515048 6.6875,9.25 6.8320918,8.976493 7.0031161,8.714385 7.1875,8.46875 7.3718839,8.223115 7.5612765,7.995278 7.78125,7.78125 8.221197,7.353194 8.72416,6.966724 9.28125,6.6875 9.559795,6.547888 9.8547231,6.440553 10.15625,6.34375 9.9000482,6.443972 9.6695391,6.580022 9.4375,6.71875 c -0.00741,0.0044 -0.023866,-0.0045 -0.03125,0 -0.031933,0.0193 -0.062293,0.04251 -0.09375,0.0625 -0.120395,0.0767 -0.2310226,0.163513 -0.34375,0.25 -0.1061728,0.0808 -0.2132809,0.161112 -0.3125,0.25 C 8.4783201,7.442683 8.3087904,7.626638 8.15625,7.8125 8.0486711,7.942755 7.9378561,8.077785 7.84375,8.21875 7.818661,8.25713 7.805304,8.30462 7.78125,8.34375 7.716487,8.446782 7.6510225,8.548267 7.59375,8.65625 7.4927417,8.850956 7.3880752,9.071951 7.3125,9.28125 7.30454,9.30306 7.288911,9.3218 7.28125,9.34375 7.2494249,9.4357 7.2454455,9.530581 7.21875,9.625 7.1884177,9.731618 7.1483606,9.828031 7.125,9.9375 7.0521214,10.279012 7,10.635705 7,11 l 0,2 0,68 0,2 c 0,2.781848 2.2181517,5 5,5 l 2,0 68,0 2,0 c 2.781848,0 5,-2.218152 5,-5 l 0,-2 0,-68 0,-2 C 89,10.635705 88.94788,10.279012 88.875,9.9375 88.83085,9.730607 88.78662,9.539842 88.71875,9.34375 88.71105,9.3218 88.69545,9.30306 88.6875,9.28125 88.62476,9.107511 88.549117,8.913801 88.46875,8.75 88.42717,8.6672 88.38971,8.580046 88.34375,8.5 88.28915,8.40279 88.216976,8.31165 88.15625,8.21875 88.06214,8.077785 87.951329,7.942755 87.84375,7.8125 87.700576,7.63805 87.540609,7.465502 87.375,7.3125 87.36383,7.3023 87.35502,7.29135 87.34375,7.28125 87.205364,7.155694 87.058659,7.046814 86.90625,6.9375 86.803679,6.86435 86.701932,6.784136 86.59375,6.71875 c -0.0074,-0.0045 -0.02384,0.0044 -0.03125,0 -0.232039,-0.138728 -0.462548,-0.274778 -0.71875,-0.375 0.301527,0.0968 0.596455,0.204138 0.875,0.34375 0.55709,0.279224 1.060053,0.665694 1.5,1.09375 0.219973,0.214028 0.409366,0.441865 0.59375,0.6875 0.184384,0.245635 0.355408,0.507743 0.5,0.78125 0.14012,0.265048 0.276135,0.524729 0.375,0.8125 0.01041,0.03078 0.02133,0.06274 0.03125,0.09375 0.09046,0.278085 0.1388,0.579404 0.1875,0.875 C 89.95865,11.3493 90,11.665279 90,12 l 0,2 0,68 0,2 c 0,3.324 -2.676,6 -6,6 l -72,0 z"
       inkscape:connector-curvature="0"
       id="path3615"
       style="opacity:0.6;fill:url(#radialGradient3619);fill-opacity:1;fill-rule:nonzero;stroke:none" />
    <rect
       width="84"
       height="84"
       rx="6"
       ry="6"
       x="6"
       y="106"
       id="rect2841"
       style="fill:url(#linearGradient2843);fill-opacity:1;fill-rule:nonzero;stroke:none" />
    <rect
       width="76"
       height="76"
       rx="4"
       ry="4"
       x="10"
       y="110"
       id="rect3634"
       style="fill:#ff0000;fill-opacity:1;fill-rule:nonzero;stroke:none" />
    <path
       d="m 14,9 c -2.752703,0 -5,2.247297 -5,5 l 0,68 c 0,2.752703 2.247297,5 5,5 l 68,0 c 2.752703,0 5,-2.247297 5,-5 L 87,14 C 87,11.247297 84.752703,9 82,9 L 14,9 z m 0,2 68,0 c 1.679297,0 3,1.320703 3,3 l 0,68 c 0,1.679297 -1.320703,3 -3,3 l -68,0 c -1.679297,0 -3,-1.320703 -3,-3 l 0,-68 c 0,-1.679297 1.320703,-3 3,-3 z"
       inkscape:connector-curvature="0"
       transform="translate(-110,0)"
       clip-path="url(#clipPath3649)"
       id="rect3647"
       style="font-size:medium;font-style:normal;font-variant:normal;font-weight:normal;font-stretch:normal;text-indent:0;text-align:start;text-decoration:none;line-height:normal;letter-spacing:normal;word-spacing:normal;text-transform:none;direction:ltr;block-progression:tb;writing-mode:lr-tb;text-anchor:start;color:#000000;fill:#000000;fill-opacity:1;stroke:none;stroke-width:2;marker:none;visibility:visible;display:inline;overflow:visible;filter:url(#filter3657);enable-background:accumulate;font-family:Abandoned Bitplane;-inkscape-font-specification:Abandoned Bitplane" />
    <path
       d="m 14.089286,10 c -2.216,0 -4,1.784 -4,4 l 0,68 c 0,2.216 1.784,4 4,4 l 68,0 c 2.216,0 4,-1.784 4,-4 l 0,-68 c 0,-2.216 -1.784,-4 -4,-4 l -68,0 z m 0,2 68,0 c 1.140301,0 2,0.859699 2,2 l 0,68 c 0,1.140301 -0.859699,2 -2,2 l -68,0 c -1.140301,0 -2,-0.859699 -2,-2 l 0,-68 c 0,-1.140301 0.859699,-2 2,-2 z"
       inkscape:connector-curvature="0"
       id="path3709"
       style="opacity:0.16000001;fill:#000000;fill-opacity:1;fill-rule:nonzero;stroke:none" />
    <path
       d="m 14,10 c -2.216,0 -4,1.784 -4,4 l 0,68 c 0,2.216 1.784,4 4,4 l 68,0 c 2.216,0 4,-1.784 4,-4 l 0,-68 c 0,-2.216 -1.784,-4 -4,-4 l -68,0 z m 0,1 68,0 c 1.673848,0 3,1.326152 3,3 l 0,68 c 0,1.673848 -1.326152,3 -3,3 l -68,0 c -1.673848,0 -3,-1.326152 -3,-3 l 0,-68 c 0,-1.673848 1.326152,-3 3,-3 z"
       inkscape:connector-curvature="0"
       id="path3707"
       style="opacity:0.36000001;fill:#000000;fill-opacity:1;fill-rule:nonzero;stroke:none" />
  </g>
  <path
     style="color:#000000;display:inline;overflow:visible;visibility:visible;opacity:0.1;fill:#000000;fill-opacity:1;fill-rule:nonzero;stroke:none;stroke-width:1.5;marker:none;enable-background:accumulate"
     id="path4014"
     inkscape:connector-curvature="0"
     d="m 17.997588,6.9541668 c -4.682471,-0.14733 -8.1963947,4.5085512 -7.546875,8.9739932 0.130515,2.40679 -0.276975,4.893894 0.234375,7.244757 -3.7029392,1.823131 -5.1334022,6.083784 -4.7343752,9.968802 0.030435,8.593789 -0.061395,17.190678 0.04683,25.782495 0.3804975,5.237077 5.6591942,8.78497 10.6650182,8.123703 3.429384,0 6.858769,0 10.288153,0 0.09795,5.588691 -0.211086,11.203362 0.184253,16.773217 0.853776,4.837877 5.841762,7.801491 10.527594,7.226783 14.752342,-0.03102 29.507833,0.06217 44.2582,-0.04683 5.237078,-0.380498 8.784971,-5.659194 8.123703,-10.665018 -0.05666,-8.861453 0.114825,-17.733011 -0.08847,-26.587982 0.369365,-4.105383 -5.240908,-5.109207 -4.458355,-8.670219 -0.380498,-5.237077 -5.659194,-8.78497 -10.665018,-8.123703 -1.929384,0 -3.85877,0 -5.788154,0 -0.13158,-4.244296 0.852512,-9.260989 -2.812215,-12.394488 -3.488766,-1.970704 -0.883798,-8.169166 -5.681316,-10.057539 -3.791856,-2.427372 -8.421591,-1.277284 -12.664642,-1.547973 -3.55665,0 -7.113302,0 -10.669952,0 -0.732184,-4.0907427 -4.926316,-6.5530287 -8.883721,-5.9999997 -3.44501,0 -6.890019,0 -10.335029,0 z m 13.03125,40.5468752 c 0.302383,-0.11916 0.04636,0.160474 0,0 z m -1.03125,0.328125 c -0.196932,0.673938 -0.309054,-0.08133 0,0 z m 0.375,0.04687 c 0.375259,-0.12339 -0.0609,0.171204 0,0 z m 0.140625,0.04687 c 0.203503,0.194038 -0.300618,0.03102 0,0 z m -0.28125,0.140625 c -0.703748,0.741228 -0.699195,0.446511 0,0 z m -0.890625,0.75 c 0.279844,-0.102885 0.222283,0.583126 0,0 z" />
  <path
     inkscape:connector-curvature="0"
     style="color:#000000;display:inline;overflow:visible;visibility:visible;opacity:0.15;fill:#000000;fill-opacity:1;fill-rule:nonzero;stroke:none;stroke-width:1.5;marker:none;enable-background:accumulate"
     id="path4010"
     d="m 17.997588,8.4541668 c -3.330005,0 -6.046875,2.7168702 -6.046875,6.0468752 v 7.5 a 1.5596859,1.5596859 0 0 0 1.546875,1.546875 h 1.03125 c -3.933386,0.255456 -7.0781252,3.457528 -7.0781252,7.453125 v 27 c 0,4.161004 3.3858702,7.546875 7.5468752,7.546875 h 12 a 1.5596859,1.5596859 0 0 0 1.453125,-0.984375 v 17.4375 c 0,4.161004 3.38587,7.546875 7.546875,7.546875 h 45 c 4.161004,0 7.546875,-3.385871 7.546875,-7.546875 v -27 c 0,-3.995597 -3.14474,-7.197669 -7.078125,-7.453125 h 1.03125 a 1.5596859,1.5596859 0 0 0 1.546875,-1.546875 c 0,-4.161005 -3.385871,-7.546875 -7.546875,-7.546875 h -9.890625 a 1.5596859,1.5596859 0 0 0 0.9375,-1.453125 v -6 c 0,-3.995597 -3.14474,-7.197669 -7.078125,-7.453125 h 1.03125 a 1.5596859,1.5596859 0 0 0 1.546875,-1.546875 c 0,-4.161005 -3.385871,-7.546875 -7.546875,-7.546875 H 36.044463 C 36.018393,11.145968 33.311583,8.4541668 29.997588,8.4541668 Z M 56.950713,37.938542 a 1.5596859,1.5596859 0 0 0 0.65625,0.515625 h -0.5625 c -0.0014,-0.18219 -0.07634,-0.337454 -0.09375,-0.515625 z m -27,8.0625 h 1.546875 1.453125 a 1.5596859,1.5596859 0 0 0 1.546875,1.546875 h 1.03125 c -1.12299,0.07293 -2.155443,0.376894 -3.09375,0.890625 l -0.65625,-1.171875 -1.40625,0.65625 c 0.07341,0.156808 -0.115965,-0.25251 -0.04687,-0.09375 0.06909,0.15876 -0.111585,-0.301218 -0.04687,-0.140625 0.06471,0.160593 -0.10716,-0.256056 -0.04687,-0.09375 0.06029,0.162306 -0.10269,-0.304521 -0.04687,-0.140625 0.05581,0.163896 -0.09819,-0.259113 -0.04687,-0.09375 0.05131,0.165363 -0.09363,-0.307332 -0.04687,-0.140625 0.04676,0.166707 -0.04218,-0.261675 0,-0.09375 0.04218,0.167925 -0.08443,-0.309644 -0.04687,-0.140625 0.03756,0.169018 -0.07979,-0.310608 -0.04687,-0.140625 0.03291,0.169983 -0.02825,-0.264572 0,-0.09375 0.02824,0.170821 -0.02355,-0.312156 0,-0.140625 0.02355,0.171531 -0.06573,-0.265862 -0.04687,-0.09375 0.01885,0.172111 -0.0141,-0.313188 0,-0.140625 0.0141,0.172563 -0.0095,-0.313511 0,-0.140625 0.0095,0.172885 -0.0047,-0.266829 0,-0.09375 0.0046,0.173079 8.8e-5,-0.313766 0,-0.140625 z" />
  <path
     style="color:#000000;display:inline;overflow:visible;visibility:visible;opacity:0.3;fill:#000000;fill-opacity:1;fill-rule:nonzero;stroke:none;stroke-width:1.5;marker:none;enable-background:accumulate"
     id="path4004"
     inkscape:connector-curvature="0"
     d="m 17.997588,10.001042 c -2.493,0 -4.5,2.007 -4.5,4.5 v 7.5 h 48 c 0,-3.324 -2.676,-6 -6,-6 h -21 v -1.5 c 0,-2.493 -2.007,-4.5 -4.5,-4.5 z m -3,15 c -3.324,0 -6.0000002,2.676 -6.0000002,6 v 27 c 0,3.324 2.6760002,6 6.0000002,6 h 12 v -9 c 0,-3.367805 2.006137,-6.198344 4.78125,-7.734375 a 2.9814304,2.9814304 0 0 1 -0.28125,-1.265625 v -7.5 c 0,-4.092983 3.407017,-7.5 7.5,-7.5 h 12 c 3.563893,0 6.448195,2.633817 7.171875,6 h 7.828125 v -6 c 0,-3.324 -2.676,-6 -6,-6 z m 24,9 c -2.493,0 -4.5,2.007 -4.5,4.5 v 7.5 h 48 c 0,-3.324 -2.676,-6 -6,-6 h -21 v -1.5 c 0,-2.493 -2.007,-4.5 -4.5,-4.5 z m -3,15 c -3.324,0 -6,2.676 -6,6 v 27 c 0,3.324 2.676,6 6,6 h 45 c 3.324,0 6,-2.676 6,-6 v -27 c 0,-3.324 -2.676,-6 -6,-6 z" />
  <path
     style="color:#000000;display:inline;overflow:visible;visibility:visible;fill:url(#linearGradient3984);fill-opacity:1;fill-rule:nonzero;stroke:none;stroke-width:1.5;marker:none;enable-background:accumulate"
     id="path3949"
     inkscape:connector-curvature="0"
     d="m 17.997588,8.5010418 c -2.493,0 -4.5,2.0070002 -4.5,4.5000002 v 7.5 h 48 c 0,-3.324 -2.676,-6 -6,-6 h -21 v -1.5 c 0,-2.493 -2.007,-4.5000002 -4.5,-4.5000002 z m -3,15.0000002 c -3.324,0 -6.0000002,2.676 -6.0000002,6 v 27 c 0,3.324 2.6760002,6 6.0000002,6 h 12 v -9 c 0,-3.367805 2.006137,-6.198344 4.78125,-7.734375 a 2.9814304,2.9814304 0 0 1 -0.28125,-1.265625 v -7.5 c 0,-4.092983 3.407017,-7.5 7.5,-7.5 h 12 c 3.563893,0 6.448195,2.633817 7.171875,6 h 7.828125 v -6 c 0,-3.324 -2.676,-6 -6,-6 z m 24,9 c -2.493,0 -4.5,2.007 -4.5,4.5 v 7.5 h 48 c 0,-3.324 -2.676,-6 -6,-6 h -21 v -1.5 c 0,-2.493 -2.007,-4.5 -4.5,-4.5 z m -3,15 c -3.324,0 -6,2.676 -6,6 v 27 c 0,3.324 2.676,6 6,6 h 45 c 3.324,0 6,-2.676 6,-6 v -27 c 0,-3.324 -2.676,-6 -6,-6 z" />
  <path
     style="color:#000000;display:inline;overflow:visible;visibility:visible;opacity:0.75;fill:#ffffff;fill-opacity:1;fill-rule:nonzero;stroke:none;stroke-width:1.5;marker:none;enable-background:accumulate"
     id="path3986"
     inkscape:connector-curvature="0"
     d="m 17.997588,8.5010418 c -2.493,0 -4.5,2.0070002 -4.5,4.5000002 v 1.5 c 0,-2.493 2.007,-4.5 4.5,-4.5 h 12 c 2.493,0 4.5,2.007 4.5,4.5 v -1.5 c 0,-2.493 -2.007,-4.5000002 -4.5,-4.5000002 z m 16.5,6.0000002 v 1.5 h 21 c 2.803461,0 5.100697,1.909654 5.765625,4.5 h 0.234375 c 0,-3.324 -2.676,-6 -6,-6 z m -19.5,9 c -3.324,0 -6.0000002,2.676 -6.0000002,6 v 1.5 c 0,-3.324 2.6760002,-6 6.0000002,-6 h 45 c 3.324,0 6,2.676 6,6 v -1.5 c 0,-3.324 -2.676,-6 -6,-6 z m 24,9 c -2.493,0 -4.5,2.007 -4.5,4.5 v 1.5 c 0,-2.493 2.007,-4.5 4.5,-4.5 h 12 c 2.493,0 4.5,2.007 4.5,4.5 v -1.5 c 0,-2.493 -2.007,-4.5 -4.5,-4.5 z m 16.5,6 v 1.5 h 21 c 2.803461,0 5.100697,1.909654 5.765625,4.5 h 0.234375 c 0,-3.324 -2.676,-6 -6,-6 z m -24,6.09375 v 1.359375 c 0.09709,-0.05812 0.182139,-0.132645 0.28125,-0.1875 a 2.9814304,2.9814304 0 0 1 -0.28125,-1.171875 z m 4.5,2.90625 c -3.324,0 -6,2.676 -6,6 v 1.5 c 0,-3.324 2.676,-6 6,-6 h 45 c 3.324,0 6,2.676 6,6 v -1.5 c 0,-3.324 -2.676,-6 -6,-6 z" />
  <path
     style="color:#000000;display:inline;overflow:visible;visibility:visible;opacity:0.15;fill:#000000;fill-opacity:1;fill-rule:nonzero;stroke:none;stroke-width:1.5;marker:none;enable-background:accumulate"
     id="path3995"
     inkscape:connector-curvature="0"
     d="m 13.497588,19.001042 v 1.5 h 48 c 0,-0.520539 -0.11091,-1.019033 -0.234375,-1.5 z m 25.5,9 c -4.092983,0 -7.5,3.407017 -7.5,7.5 v 1.5 c 0,-4.092983 3.407017,-7.5 7.5,-7.5 h 12 c 3.563893,0 6.448195,2.633817 7.171875,6 h 7.828125 v -1.5 h -7.828125 c -0.72368,-3.366183 -3.607982,-6 -7.171875,-6 z m -4.5,15 v 1.5 h 48 c 0,-0.520539 -0.11091,-1.019033 -0.234375,-1.5 z m -3,1.453125 c -2.621514,1.569405 -4.5,4.299349 -4.5,7.546875 v 1.5 c 0,-3.367805 2.006137,-6.198344 4.78125,-7.734375 a 2.9814304,2.9814304 0 0 1 -0.28125,-1.265625 z M 8.9975878,55.001042 v 1.5 c 0,3.324 2.6760002,6 6.0000002,6 h 12 v -1.5 h -12 c -3.324,0 -6.0000002,-2.676 -6.0000002,-6 z m 21.0000002,24 v 1.5 c 0,3.324 2.676,6 6,6 h 45 c 3.324,0 6,-2.676 6,-6 v -1.5 c 0,3.324 -2.676,6 -6,6 h -45 c -3.324,0 -6,-2.676 -6,-6 z" />
</svg>
