<?xml version="1.0" encoding="UTF-8" standalone="no"?>
<!-- Created with Inkscape (http://www.inkscape.org/) -->

<svg
   xmlns:dc="http://purl.org/dc/elements/1.1/"
   xmlns:cc="http://creativecommons.org/ns#"
   xmlns:rdf="http://www.w3.org/1999/02/22-rdf-syntax-ns#"
   xmlns:svg="http://www.w3.org/2000/svg"
   xmlns="http://www.w3.org/2000/svg"
   xmlns:xlink="http://www.w3.org/1999/xlink"
   xmlns:sodipodi="http://sodipodi.sourceforge.net/DTD/sodipodi-0.dtd"
   xmlns:inkscape="http://www.inkscape.org/namespaces/inkscape"
   version="1.0"
   width="96"
   height="96"
   id="svg2408"
   sodipodi:docname="format-text-italic.svg"
   inkscape:version="0.92.2 2405546, 2018-03-11">
  <sodipodi:namedview
     pagecolor="#ffffff"
     bordercolor="#666666"
     borderopacity="1"
     objecttolerance="10"
     gridtolerance="10"
     guidetolerance="10"
     inkscape:pageopacity="0"
     inkscape:pageshadow="2"
     inkscape:window-width="750"
     inkscape:window-height="480"
     id="namedview3513"
     showgrid="false"
     inkscape:zoom="2.4583333"
     inkscape:cx="48"
     inkscape:cy="48"
     inkscape:window-x="52"
     inkscape:window-y="0"
     inkscape:window-maximized="0"
     inkscape:current-layer="svg2408" />
  <defs
     id="defs2410">
    <linearGradient
       id="linearGradient3637">
      <stop
         id="stop3639"
         style="stop-color:#f0f0f0;stop-opacity:1"
         offset="0" />
      <stop
         id="stop3641"
         style="stop-color:#aaaaaa;stop-opacity:1"
         offset="1" />
    </linearGradient>
    <linearGradient
       x1="45.447727"
       y1="92.539597"
       x2="45.447727"
       y2="7.0165396"
       id="ButtonShadow"
       gradientUnits="userSpaceOnUse"
       gradientTransform="scale(1.0058652,0.994169)">
      <stop
         id="stop3750"
         style="stop-color:#000000;stop-opacity:1"
         offset="0" />
      <stop
         id="stop3752"
         style="stop-color:#000000;stop-opacity:0.58823532"
         offset="1" />
    </linearGradient>
    <linearGradient
       id="linearGradient3737">
      <stop
         id="stop3739"
         style="stop-color:#ffffff;stop-opacity:1"
         offset="0" />
      <stop
         id="stop3741"
         style="stop-color:#ffffff;stop-opacity:0"
         offset="1" />
    </linearGradient>
    <linearGradient
       id="linearGradient3700">
      <stop
         id="stop3702"
         style="stop-color:#2276c5;stop-opacity:1"
         offset="0" />
      <stop
         id="stop3704"
         style="stop-color:#68baf4;stop-opacity:1"
         offset="1" />
    </linearGradient>
    <filter
       color-interpolation-filters="sRGB"
       id="filter3174">
      <feGaussianBlur
         id="feGaussianBlur3176"
         stdDeviation="1.71" />
    </filter>
    <linearGradient
       x1="36.357143"
       y1="6"
       x2="36.357143"
       y2="63.893143"
       id="linearGradient3188"
       xlink:href="#linearGradient3737"
       gradientUnits="userSpaceOnUse" />
    <filter
       x="-0.192"
       y="-0.192"
       width="1.3839999"
       height="1.3839999"
       color-interpolation-filters="sRGB"
       id="filter3794">
      <feGaussianBlur
         id="feGaussianBlur3796"
         stdDeviation="5.28" />
    </filter>
    <linearGradient
       x1="48"
       y1="20.220806"
       x2="48"
       y2="138.66119"
       id="linearGradient3613"
       xlink:href="#linearGradient3737"
       gradientUnits="userSpaceOnUse" />
    <radialGradient
       cx="48"
       cy="90.171875"
       r="42"
       fx="48"
       fy="90.171875"
       id="radialGradient3619"
       xlink:href="#linearGradient3737"
       gradientUnits="userSpaceOnUse"
       gradientTransform="matrix(1.1573129,0,0,0.99590774,-7.5510206,0.19713193)" />
    <clipPath
       id="clipPath3613">
      <rect
         width="84"
         height="84"
         rx="6"
         ry="6"
         x="6"
         y="6"
         id="rect3615"
         style="fill:#ffffff;fill-opacity:1;fill-rule:nonzero;stroke:none" />
    </clipPath>
    <linearGradient
       x1="48"
       y1="90"
       x2="48"
       y2="5.9877172"
       id="linearGradient2843"
       xlink:href="#linearGradient3700"
       gradientUnits="userSpaceOnUse"
       gradientTransform="translate(0,100)" />
    <clipPath
       id="clipPath3625">
      <path
         d="M 0,0 0,96 96,96 96,0 0,0 z m 12,6 72,0 c 3.324,0 6,2.676 6,6 l 0,72 c 0,3.324 -2.676,6 -6,6 L 12,90 C 8.676,90 6,87.324 6,84 L 6,12 C 6,8.676 8.676,6 12,6 z"
         inkscape:connector-curvature="0"
         id="path3627"
         style="fill:#ffffff;fill-opacity:1;stroke:none" />
    </clipPath>
    <linearGradient
       x1="44.512066"
       y1="6"
       x2="44.512066"
       y2="90.015434"
       id="linearGradient3643"
       xlink:href="#linearGradient3637"
       gradientUnits="userSpaceOnUse" />
    <clipPath
       id="clipPath3649">
      <rect
         width="76"
         height="76"
         rx="4"
         ry="4"
         x="10"
         y="10"
         id="rect3651"
         style="fill:#ffffff;fill-opacity:1;fill-rule:nonzero;stroke:none" />
    </clipPath>
    <filter
       color-interpolation-filters="sRGB"
       id="filter3657">
      <feGaussianBlur
         id="feGaussianBlur3659"
         stdDeviation="1.14" />
    </filter>
    <linearGradient
       x1="45.447727"
       y1="92.539597"
       x2="45.447727"
       y2="7.0165396"
       id="ButtonShadow-0"
       gradientUnits="userSpaceOnUse"
       gradientTransform="matrix(1.0058652,0,0,0.994169,100,0)">
      <stop
         id="stop3750-8"
         style="stop-color:#000000;stop-opacity:1"
         offset="0" />
      <stop
         id="stop3752-5"
         style="stop-color:#000000;stop-opacity:0.58823532"
         offset="1" />
    </linearGradient>
    <linearGradient
       x1="32.251034"
       y1="6.1317081"
       x2="32.251034"
       y2="90.238609"
       id="linearGradient3780"
       xlink:href="#ButtonShadow-0"
       gradientUnits="userSpaceOnUse"
       gradientTransform="matrix(1.0238095,0,0,-1.0119048,-1.1428571,98.071429)" />
    <linearGradient
       x1="32.251034"
       y1="6.1317081"
       x2="32.251034"
       y2="90.238609"
       id="linearGradient3772"
       xlink:href="#ButtonShadow-0"
       gradientUnits="userSpaceOnUse"
       gradientTransform="matrix(1.0238095,0,0,-1.0119048,-1.1428571,98.071429)" />
    <linearGradient
       x1="32.251034"
       y1="6.1317081"
       x2="32.251034"
       y2="90.238609"
       id="linearGradient3725"
       xlink:href="#ButtonShadow-0"
       gradientUnits="userSpaceOnUse"
       gradientTransform="matrix(1.0238095,0,0,-1.0119048,-1.1428571,98.071429)" />
    <linearGradient
       x1="32.251034"
       y1="6.1317081"
       x2="32.251034"
       y2="90.238609"
       id="linearGradient3721"
       xlink:href="#ButtonShadow-0"
       gradientUnits="userSpaceOnUse"
       gradientTransform="matrix(1,0,0,-1,0,97)" />
    <linearGradient
       x1="32.251034"
       y1="6.1317081"
       x2="32.251034"
       y2="90.238609"
       id="linearGradient3199"
       xlink:href="#ButtonShadow-0"
       gradientUnits="userSpaceOnUse"
       gradientTransform="matrix(1.0238095,0,0,-1.0119048,-1.1428571,98.071429)" />
    <linearGradient
       x1="36.357143"
       y1="6"
       x2="36.357143"
       y2="63.893143"
       id="linearGradient3188-8"
       xlink:href="#linearGradient3737-3"
       gradientUnits="userSpaceOnUse" />
    <linearGradient
       id="linearGradient3737-3">
      <stop
         id="stop3739-6"
         style="stop-color:#ffffff;stop-opacity:1"
         offset="0" />
      <stop
         id="stop3741-1"
         style="stop-color:#ffffff;stop-opacity:0"
         offset="1" />
    </linearGradient>
    <radialGradient
       cx="48"
       cy="90.171875"
       r="42"
       fx="48"
       fy="90.171875"
       id="radialGradient3619-3"
       xlink:href="#linearGradient3737-3"
       gradientUnits="userSpaceOnUse"
       gradientTransform="matrix(1.1573129,0,0,0.99590774,-7.551021,0.1971319)" />
    <linearGradient
       x1="104"
       y1="8"
       x2="120"
       y2="8"
       id="linearGradient3905"
       xlink:href="#linearGradient3637"
       gradientUnits="userSpaceOnUse"
       gradientTransform="translate(-104,104)" />
    <linearGradient
       x1="104"
       y1="8"
       x2="120"
       y2="8"
       id="linearGradient3913"
       xlink:href="#linearGradient3183-0"
       gradientUnits="userSpaceOnUse"
       gradientTransform="translate(-144,104)" />
    <linearGradient
       id="linearGradient3183-0">
      <stop
         id="stop3185-9"
         style="stop-color:#c80000;stop-opacity:1"
         offset="0" />
      <stop
         id="stop3187-6"
         style="stop-color:#f3604d;stop-opacity:1"
         offset="1" />
    </linearGradient>
    <linearGradient
       x1="10.467128"
       y1="5.8862238"
       x2="10.467128"
       y2="17.767334"
       id="linearGradient3047"
       xlink:href="#linearGradient3637"
       gradientUnits="userSpaceOnUse"
       gradientTransform="matrix(4.4999997,0,0,4.4999997,-1.26254,-6.500007)" />
  </defs>
  <metadata
     id="metadata2413">
    <rdf:RDF>
      <cc:Work
         rdf:about="">
        <dc:format>image/svg+xml</dc:format>
        <dc:type
           rdf:resource="http://purl.org/dc/dcmitype/StillImage" />
        <dc:title />
      </cc:Work>
    </rdf:RDF>
  </metadata>
  <g
     id="layer2"
     style="display:none">
    <rect
       width="86"
       height="85"
       rx="6"
       ry="6"
       x="5"
       y="7"
       clip-path="url(#clipPath3625)"
       id="rect3745"
       style="opacity:0.9;fill:url(#ButtonShadow);fill-opacity:1;fill-rule:nonzero;stroke:none;filter:url(#filter3174)" />
  </g>
  <g
     id="layer1"
     style="display:none">
    <rect
       width="84"
       height="84"
       rx="6"
       ry="6"
       x="6"
       y="6"
       id="rect2419"
       style="opacity:0.8;fill:#000000;fill-opacity:1;fill-rule:nonzero;stroke:none" />
    <path
       d="m 14,10 c -2.216,0 -4,1.784 -4,4 l 0,68 c 0,2.216 1.784,4 4,4 l 68,0 c 2.216,0 4,-1.784 4,-4 l 0,-68 c 0,-2.216 -1.784,-4 -4,-4 l -68,0 z m 0,3.0625 68,0 c 0.578769,0 0.9375,0.358731 0.9375,0.9375 l 0,68 c 0,0.578769 -0.358731,0.9375 -0.9375,0.9375 l -68,0 c -0.578769,0 -0.9375,-0.358731 -0.9375,-0.9375 l 0,-68 c 0,-0.578769 0.358731,-0.9375 0.9375,-0.9375 z"
       inkscape:connector-curvature="0"
       id="rect3726"
       style="opacity:0.07999998;fill:#000000;fill-opacity:1;fill-rule:nonzero;stroke:none" />
    <path
       d="M 12,6 C 8.676,6 6,8.676 6,12 l 0,72 c 0,3.324 2.676,6 6,6 l 72,0 c 3.324,0 6,-2.676 6,-6 L 90,12 C 90,8.676 87.324,6 84,6 L 12,6 z m 2,4 68,0 c 2.216,0 4,1.784 4,4 l 0,68 c 0,2.216 -1.784,4 -4,4 l -68,0 c -2.216,0 -4,-1.784 -4,-4 l 0,-68 c 0,-2.216 1.784,-4 4,-4 z"
       inkscape:connector-curvature="0"
       id="rect3629"
       style="fill:url(#linearGradient3643);fill-opacity:1;fill-rule:nonzero;stroke:none" />
    <path
       d="M 12,6 C 8.676,6 6,8.676 6,12 l 0,2 0,68 0,2 c 0,0.334721 0.04135,0.6507 0.09375,0.96875 0.0487,0.295596 0.09704,0.596915 0.1875,0.875 0.00988,0.03038 0.020892,0.0636 0.03125,0.09375 0.098865,0.287771 0.2348802,0.547452 0.375,0.8125 0.1445918,0.273507 0.3156161,0.535615 0.5,0.78125 0.1843839,0.245635 0.3737765,0.473472 0.59375,0.6875 0.439947,0.428056 0.94291,0.814526 1.5,1.09375 0.278545,0.139612 0.5734731,0.246947 0.875,0.34375 -0.2562018,-0.100222 -0.4867109,-0.236272 -0.71875,-0.375 -0.00741,-0.0044 -0.023866,0.0045 -0.03125,0 -0.031933,-0.0193 -0.062293,-0.04251 -0.09375,-0.0625 -0.120395,-0.0767 -0.2310226,-0.163513 -0.34375,-0.25 -0.1061728,-0.0808 -0.2132809,-0.161112 -0.3125,-0.25 C 8.4783201,88.557317 8.3087904,88.373362 8.15625,88.1875 8.0486711,88.057245 7.9378561,87.922215 7.84375,87.78125 7.818661,87.74287 7.805304,87.69538 7.78125,87.65625 7.716487,87.553218 7.6510225,87.451733 7.59375,87.34375 7.4927417,87.149044 7.3880752,86.928049 7.3125,86.71875 7.30454,86.69694 7.288911,86.6782 7.28125,86.65625 7.2494249,86.5643 7.2454455,86.469419 7.21875,86.375 7.1884177,86.268382 7.1483606,86.171969 7.125,86.0625 7.0521214,85.720988 7,85.364295 7,85 L 7,83 7,15 7,13 C 7,10.218152 9.2181517,8 12,8 l 2,0 68,0 2,0 c 2.781848,0 5,2.218152 5,5 l 0,2 0,68 0,2 c 0,0.364295 -0.05212,0.720988 -0.125,1.0625 -0.04415,0.206893 -0.08838,0.397658 -0.15625,0.59375 -0.0077,0.02195 -0.0233,0.04069 -0.03125,0.0625 -0.06274,0.173739 -0.138383,0.367449 -0.21875,0.53125 -0.04158,0.0828 -0.07904,0.169954 -0.125,0.25 -0.0546,0.09721 -0.126774,0.18835 -0.1875,0.28125 -0.09411,0.140965 -0.204921,0.275995 -0.3125,0.40625 -0.143174,0.17445 -0.303141,0.346998 -0.46875,0.5 -0.01117,0.0102 -0.01998,0.02115 -0.03125,0.03125 -0.138386,0.125556 -0.285091,0.234436 -0.4375,0.34375 -0.102571,0.07315 -0.204318,0.153364 -0.3125,0.21875 -0.0074,0.0045 -0.02384,-0.0044 -0.03125,0 -0.232039,0.138728 -0.462548,0.274778 -0.71875,0.375 0.301527,-0.0968 0.596455,-0.204138 0.875,-0.34375 0.55709,-0.279224 1.060053,-0.665694 1.5,-1.09375 0.219973,-0.214028 0.409366,-0.441865 0.59375,-0.6875 0.184384,-0.245635 0.355408,-0.507743 0.5,-0.78125 0.14012,-0.265048 0.276135,-0.524729 0.375,-0.8125 0.01041,-0.03078 0.02133,-0.06274 0.03125,-0.09375 0.09046,-0.278085 0.1388,-0.579404 0.1875,-0.875 C 89.95865,84.6507 90,84.334721 90,84 l 0,-2 0,-68 0,-2 C 90,8.676 87.324,6 84,6 L 12,6 z"
       inkscape:connector-curvature="0"
       id="rect3728"
       style="fill:url(#linearGradient3188);fill-opacity:1;fill-rule:nonzero;stroke:none" />
    <path
       d="M 12,90 C 8.676,90 6,87.324 6,84 L 6,82 6,14 6,12 c 0,-0.334721 0.04135,-0.6507 0.09375,-0.96875 0.0487,-0.295596 0.09704,-0.596915 0.1875,-0.875 C 6.29113,10.12587 6.302142,10.09265 6.3125,10.0625 6.411365,9.774729 6.5473802,9.515048 6.6875,9.25 6.8320918,8.976493 7.0031161,8.714385 7.1875,8.46875 7.3718839,8.223115 7.5612765,7.995278 7.78125,7.78125 8.221197,7.353194 8.72416,6.966724 9.28125,6.6875 9.559795,6.547888 9.8547231,6.440553 10.15625,6.34375 9.9000482,6.443972 9.6695391,6.580022 9.4375,6.71875 c -0.00741,0.0044 -0.023866,-0.0045 -0.03125,0 -0.031933,0.0193 -0.062293,0.04251 -0.09375,0.0625 -0.120395,0.0767 -0.2310226,0.163513 -0.34375,0.25 -0.1061728,0.0808 -0.2132809,0.161112 -0.3125,0.25 C 8.4783201,7.442683 8.3087904,7.626638 8.15625,7.8125 8.0486711,7.942755 7.9378561,8.077785 7.84375,8.21875 7.818661,8.25713 7.805304,8.30462 7.78125,8.34375 7.716487,8.446782 7.6510225,8.548267 7.59375,8.65625 7.4927417,8.850956 7.3880752,9.071951 7.3125,9.28125 7.30454,9.30306 7.288911,9.3218 7.28125,9.34375 7.2494249,9.4357 7.2454455,9.530581 7.21875,9.625 7.1884177,9.731618 7.1483606,9.828031 7.125,9.9375 7.0521214,10.279012 7,10.635705 7,11 l 0,2 0,68 0,2 c 0,2.781848 2.2181517,5 5,5 l 2,0 68,0 2,0 c 2.781848,0 5,-2.218152 5,-5 l 0,-2 0,-68 0,-2 C 89,10.635705 88.94788,10.279012 88.875,9.9375 88.83085,9.730607 88.78662,9.539842 88.71875,9.34375 88.71105,9.3218 88.69545,9.30306 88.6875,9.28125 88.62476,9.107511 88.549117,8.913801 88.46875,8.75 88.42717,8.6672 88.38971,8.580046 88.34375,8.5 88.28915,8.40279 88.216976,8.31165 88.15625,8.21875 88.06214,8.077785 87.951329,7.942755 87.84375,7.8125 87.700576,7.63805 87.540609,7.465502 87.375,7.3125 87.36383,7.3023 87.35502,7.29135 87.34375,7.28125 87.205364,7.155694 87.058659,7.046814 86.90625,6.9375 86.803679,6.86435 86.701932,6.784136 86.59375,6.71875 c -0.0074,-0.0045 -0.02384,0.0044 -0.03125,0 -0.232039,-0.138728 -0.462548,-0.274778 -0.71875,-0.375 0.301527,0.0968 0.596455,0.204138 0.875,0.34375 0.55709,0.279224 1.060053,0.665694 1.5,1.09375 0.219973,0.214028 0.409366,0.441865 0.59375,0.6875 0.184384,0.245635 0.355408,0.507743 0.5,0.78125 0.14012,0.265048 0.276135,0.524729 0.375,0.8125 0.01041,0.03078 0.02133,0.06274 0.03125,0.09375 0.09046,0.278085 0.1388,0.579404 0.1875,0.875 C 89.95865,11.3493 90,11.665279 90,12 l 0,2 0,68 0,2 c 0,3.324 -2.676,6 -6,6 l -72,0 z"
       inkscape:connector-curvature="0"
       id="path3615"
       style="opacity:0.6;fill:url(#radialGradient3619);fill-opacity:1;fill-rule:nonzero;stroke:none" />
    <rect
       width="84"
       height="84"
       rx="6"
       ry="6"
       x="6"
       y="106"
       id="rect2841"
       style="fill:url(#linearGradient2843);fill-opacity:1;fill-rule:nonzero;stroke:none" />
    <rect
       width="76"
       height="76"
       rx="4"
       ry="4"
       x="10"
       y="110"
       id="rect3634"
       style="fill:#ff0000;fill-opacity:1;fill-rule:nonzero;stroke:none" />
    <path
       d="m 14,9 c -2.752703,0 -5,2.247297 -5,5 l 0,68 c 0,2.752703 2.247297,5 5,5 l 68,0 c 2.752703,0 5,-2.247297 5,-5 L 87,14 C 87,11.247297 84.752703,9 82,9 L 14,9 z m 0,2 68,0 c 1.679297,0 3,1.320703 3,3 l 0,68 c 0,1.679297 -1.320703,3 -3,3 l -68,0 c -1.679297,0 -3,-1.320703 -3,-3 l 0,-68 c 0,-1.679297 1.320703,-3 3,-3 z"
       inkscape:connector-curvature="0"
       transform="translate(-110,0)"
       clip-path="url(#clipPath3649)"
       id="rect3647"
       style="font-size:medium;font-style:normal;font-variant:normal;font-weight:normal;font-stretch:normal;text-indent:0;text-align:start;text-decoration:none;line-height:normal;letter-spacing:normal;word-spacing:normal;text-transform:none;direction:ltr;block-progression:tb;writing-mode:lr-tb;text-anchor:start;color:#000000;fill:#000000;fill-opacity:1;stroke:none;stroke-width:2;marker:none;visibility:visible;display:inline;overflow:visible;filter:url(#filter3657);enable-background:accumulate;font-family:Abandoned Bitplane;-inkscape-font-specification:Abandoned Bitplane" />
    <path
       d="m 14.089286,10 c -2.216,0 -4,1.784 -4,4 l 0,68 c 0,2.216 1.784,4 4,4 l 68,0 c 2.216,0 4,-1.784 4,-4 l 0,-68 c 0,-2.216 -1.784,-4 -4,-4 l -68,0 z m 0,2 68,0 c 1.140301,0 2,0.859699 2,2 l 0,68 c 0,1.140301 -0.859699,2 -2,2 l -68,0 c -1.140301,0 -2,-0.859699 -2,-2 l 0,-68 c 0,-1.140301 0.859699,-2 2,-2 z"
       inkscape:connector-curvature="0"
       id="path3709"
       style="opacity:0.16000001;fill:#000000;fill-opacity:1;fill-rule:nonzero;stroke:none" />
    <path
       d="m 14,10 c -2.216,0 -4,1.784 -4,4 l 0,68 c 0,2.216 1.784,4 4,4 l 68,0 c 2.216,0 4,-1.784 4,-4 l 0,-68 c 0,-2.216 -1.784,-4 -4,-4 l -68,0 z m 0,1 68,0 c 1.673848,0 3,1.326152 3,3 l 0,68 c 0,1.673848 -1.326152,3 -3,3 l -68,0 c -1.673848,0 -3,-1.326152 -3,-3 l 0,-68 c 0,-1.673848 1.326152,-3 3,-3 z"
       inkscape:connector-curvature="0"
       id="path3707"
       style="opacity:0.36000001;fill:#000000;fill-opacity:1;fill-rule:nonzero;stroke:none" />
  </g>
  <g
     id="layer5"
     style="display:none">
    <rect
       width="66"
       height="66"
       rx="12"
       ry="12"
       x="15"
       y="15"
       clip-path="url(#clipPath3613)"
       id="rect3171"
       style="opacity:0.1;fill:url(#linearGradient3613);fill-opacity:1;fill-rule:nonzero;stroke:#ffffff;stroke-width:0.5;stroke-linecap:round;stroke-linejoin:miter;stroke-miterlimit:4;stroke-opacity:1;stroke-dasharray:none;stroke-dashoffset:0;filter:url(#filter3794)" />
  </g>
  <path
     inkscape:connector-curvature="0"
     style="font-style:italic;font-variant:normal;font-weight:normal;font-stretch:normal;font-size:20.89795876px;line-height:125%;font-family:sans;-inkscape-font-specification:'Abandoned Bitplane Italic';text-align:start;writing-mode:lr-tb;text-anchor:start;display:inline;opacity:0.1;fill:#000000;fill-opacity:1;stroke:none;stroke-width:1.5"
     id="path3964"
     d="m 53.441506,18.999987 c -2.996103,6e-5 -6.050268,0.341168 -9.234375,0.984375 -3.12809,0.606515 -6.469203,1.527491 -9.9375,2.765625 -0.01519,0.0054 -0.03168,-0.0054 -0.04687,0 -0.04878,0.01912 -0.13959,0.04642 -0.140625,0.04687 -0.0014,5.85e-4 -0.186179,0.09307 -0.1875,0.09375 -0.0013,6.71e-4 -0.186224,0.093 -0.1875,0.09375 -0.0013,7.53e-4 -0.139395,0.09291 -0.140625,0.09375 -0.0012,8.34e-4 -0.139455,0.09284 -0.140625,0.09375 -0.0012,9.11e-4 -0.139515,0.13965 -0.140625,0.140625 -0.0011,9.83e-4 -0.139575,0.139575 -0.140625,0.140625 -10e-4,0.0011 -0.13965,0.139515 -0.140625,0.140625 -9.77e-4,0.0011 -0.139725,0.139455 -0.140625,0.140625 -9.03e-4,0.0012 -0.09292,0.139395 -0.09375,0.140625 -8.27e-4,0.0012 -0.093,0.186219 -0.09375,0.1875 -7.47e-4,0.0013 -0.09309,0.139305 -0.09375,0.140625 -6.63e-4,0.0013 -0.09316,0.186135 -0.09375,0.1875 -5.78e-4,0.0014 -0.04638,0.186101 -0.04687,0.1875 -4.89e-4,0.0014 -0.09334,0.186072 -0.09375,0.1875 -3.99e-4,0.0014 -0.04656,0.18605 -0.04687,0.1875 l -1.59375,7.828125 c -3.18e-4,0.0017 2.08e-4,0.185906 0,0.1875 -2.09e-4,0.0017 -0.04678,0.23277 -0.04687,0.234375 -9.8e-5,0.0017 -1.4e-5,0.185892 0,0.1875 1.3e-5,0.0017 -1.25e-4,0.185897 0,0.1875 1.24e-4,0.0017 0.04663,0.232784 0.04687,0.234375 2.34e-4,0.0017 0.04653,0.18593 0.04687,0.1875 3.43e-4,0.0015 0.04642,0.185957 0.04687,0.1875 4.51e-4,0.0015 0.04632,0.232866 0.04687,0.234375 5.56e-4,0.0015 0.09309,0.186033 0.09375,0.1875 6.6e-4,0.0015 0.09298,0.186083 0.09375,0.1875 7.59e-4,0.0014 0.09289,0.13926 0.09375,0.140625 8.55e-4,0.0014 0.0928,0.186201 0.09375,0.1875 9.48e-4,0.0013 0.13959,0.18627 0.140625,0.1875 0.001,0.0012 0.1395,0.13947 0.140625,0.140625 0.0011,0.0012 0.139425,0.139545 0.140625,0.140625 0.0012,0.0011 0.186234,0.139635 0.1875,0.140625 0.0013,9.92e-4 0.13929,0.09285 0.140625,0.09375 0.0013,9.02e-4 0.186109,0.139815 0.1875,0.140625 0.0014,8.07e-4 0.186057,0.09305 0.1875,0.09375 0.0014,7.1e-4 0.18601,0.09314 0.1875,0.09375 0.0015,6.08e-4 0.185973,0.04637 0.1875,0.04687 0.0015,5.04e-4 0.185941,0.04649 0.1875,0.04687 0.0015,3.96e-4 0.232792,0.04659 0.234375,0.04687 0.0017,2.88e-4 0.185901,0.04669 0.1875,0.04687 0.0017,1.79e-4 0.185893,-6.7e-5 0.1875,0 0.0017,6.8e-5 0.232767,4.4e-5 0.234375,0 0.0017,-4.3e-5 0.185899,1.55e-4 0.1875,0 0.0017,-1.54e-4 0.232789,-0.0466 0.234375,-0.04687 0.0017,-2.65e-4 0.185935,3.74e-4 0.1875,0 0.0015,-3.73e-4 0.185965,-0.09327 0.1875,-0.09375 0.0015,-4.81e-4 0.186003,-0.04629 0.1875,-0.04687 0.0015,-5.86e-4 0.186046,-0.09306 0.1875,-0.09375 a 1.4617596,1.4617596 0 0 0 0.04687,0 c 2.650311,-1.310874 5.376039,-2.302684 8.0625,-2.953125 2.704099,-0.647829 5.390779,-0.937458 8.109375,-0.9375 4.17561,4.2e-5 6.632347,0.94116 7.96875,2.296875 1.073275,1.057988 1.427481,2.571989 1.265625,4.734375 h -9.09375 c -8.067507,3.5e-5 -14.751861,1.553256 -19.875,4.921875 -5.093927,3.372549 -8.456816,8.568077 -9.75,15 -1.098446,5.560853 -0.222623,10.633971 2.953125,14.390625 3.188803,3.733253 8.133366,5.484375 13.96875,5.484375 4.515472,0 8.645355,-0.806283 12.28125,-2.484375 0.678615,-0.319735 1.273512,-0.830229 1.921875,-1.21875 -0.0037,0.0141 7.2e-5,0.04657 0,0.04687 -3.09e-4,0.0013 -0.04665,0.139305 -0.04687,0.140625 -2.33e-4,0.0013 1.56e-4,0.186164 0,0.1875 -1.56e-4,0.0013 7.8e-5,0.186156 0,0.1875 -7.8e-5,0.0013 -0.04687,0.139275 -0.04687,0.140625 0,0.0013 0.0468,0.186156 0.04687,0.1875 7.6e-5,0.0013 -1.55e-4,0.186164 0,0.1875 1.54e-4,0.0013 -2.31e-4,0.139305 0,0.140625 2.31e-4,0.0013 0.04656,0.186191 0.04687,0.1875 3.07e-4,0.0013 0.04649,0.18621 0.04687,0.1875 3.82e-4,0.0013 0.04643,0.139365 0.04687,0.140625 4.57e-4,0.0013 0.09323,0.13938 0.09375,0.140625 5.29e-4,0.0012 0.04628,0.186296 0.04687,0.1875 6e-4,0.0012 0.09308,0.139455 0.09375,0.140625 6.69e-4,0.0012 0.09302,0.1395 0.09375,0.140625 7.35e-4,0.0011 0.09296,0.139545 0.09375,0.140625 7.99e-4,0.0011 0.0929,0.13959 0.09375,0.140625 8.61e-4,0.001 0.13971,0.13965 0.140625,0.140625 9.18e-4,9.83e-4 0.09278,0.139695 0.09375,0.140625 9.73e-4,9.29e-4 0.139605,0.09288 0.140625,0.09375 0.001,8.7e-4 0.139545,0.09294 0.140625,0.09375 0.0011,8.1e-4 0.1395,0.093 0.140625,0.09375 0.0011,7.47e-4 0.13947,0.09307 0.140625,0.09375 0.0012,6.81e-4 0.139425,0.09313 0.140625,0.09375 0.0012,6.12e-4 0.186268,0.09321 0.1875,0.09375 0.0012,5.42e-4 0.139365,0.04641 0.140625,0.04687 0.0013,4.7e-4 0.186214,0.04648 0.1875,0.04687 0.0013,3.96e-4 0.13932,0.04656 0.140625,0.04687 0.0013,3.21e-4 0.186177,0.04663 0.1875,0.04687 0.0013,2.45e-4 0.13929,0.04671 0.140625,0.04687 0.0013,1.68e-4 0.186157,-9e-5 0.1875,0 0.0013,9e-5 0.186154,-1.2e-5 0.1875,0 h 8.4375 c 0.0019,2e-6 0.232396,1.68e-4 0.234375,0 0.0019,-1.68e-4 0.279292,-0.04655 0.28125,-0.04687 0.0019,-3.36e-4 0.232453,-0.04637 0.234375,-0.04687 0.0019,-5.02e-4 0.232503,-0.04622 0.234375,-0.04687 0.0018,-6.64e-4 0.232567,-0.1398 0.234375,-0.140625 0.0018,-8.2e-4 0.232644,-0.09278 0.234375,-0.09375 0.0018,-9.72e-4 0.232732,-0.139515 0.234375,-0.140625 0.0016,-0.0011 0.185959,-0.13938 0.1875,-0.140625 0.0015,-0.0013 0.186072,-0.186121 0.1875,-0.1875 0.0014,-0.0014 0.186193,-0.186004 0.1875,-0.1875 0.0013,-0.0015 0.186327,-0.185898 0.1875,-0.1875 0.0012,-0.0016 0.13959,-0.185803 0.140625,-0.1875 0.001,-0.0016 0.09286,-0.232597 0.09375,-0.234375 8.85e-4,-0.0018 0.09301,-0.232528 0.09375,-0.234375 7.29e-4,-0.0018 0.09318,-0.232473 0.09375,-0.234375 4.56e-4,-0.0015 0.03082,-0.170925 0.04687,-0.234375 0.004,-0.01587 0.0468,-0.04649 0.04687,-0.04687 h -0.04687 l 6.84375,-30.609375 a 1.4617596,1.4617596 0 0 0 0.04687,-0.09375 1.4617596,1.4617596 0 0 0 0,-0.1875 c 1.601839,-8.190618 1.043274,-14.977983 -2.578125,-19.78125 -3.649739,-4.840554 -9.950612,-6.937443 -17.90625,-6.9375 z m 0,32.8125 h 4.453125 c -1.102625,4.105559 -2.849144,7.417827 -5.484375,9.9375 -3.00635,2.825187 -6.168488,4.171884 -10.125,4.171875 -2.898183,9e-6 -4.435443,-0.663751 -5.34375,-1.640625 -0.956586,-1.046814 -1.24499,-2.121484 -0.75,-4.546875 a 1.4617596,1.4617596 0 0 0 0,-0.04687 c 0.613906,-3.146331 1.750666,-4.69761 3.9375,-5.859375 2.090424,-1.09908 6.722238,-2.015602 13.3125,-2.015625 z" />
  <path
     inkscape:connector-curvature="0"
     style="font-style:italic;font-variant:normal;font-weight:normal;font-stretch:normal;font-size:20.89795876px;line-height:125%;font-family:sans;-inkscape-font-specification:'Abandoned Bitplane Italic';text-align:start;writing-mode:lr-tb;text-anchor:start;display:inline;opacity:0.15;fill:#000000;fill-opacity:1;stroke:none;stroke-width:1.5"
     id="path3960"
     d="m 53.441506,20.453112 c -2.875626,5.7e-5 -5.840775,0.355664 -8.953125,0.984375 -3.07508,0.596237 -6.339774,1.451745 -9.75,2.671875 a 1.5313995,1.5313995 0 0 0 -0.984375,1.125 l -1.59375,7.828125 a 1.5313995,1.5313995 0 0 0 2.15625,1.6875 c 2.752039,-1.36119 5.601375,-2.371548 8.390625,-3.046875 2.81863,-0.675267 5.612322,-0.984331 8.4375,-0.984375 4.391712,4.4e-5 7.280154,0.974052 9,2.71875 1.661119,1.637459 2.195014,3.924735 1.640625,7.21875 h -10.5 c -7.87866,3.3e-5 -14.271506,1.527002 -19.078125,4.6875 -4.768937,3.157383 -7.864973,7.950918 -9.09375,14.0625 -1.039184,5.260838 -0.221285,9.80495 2.625,13.171875 2.85493,3.342375 7.293916,4.96875 12.84375,4.96875 4.343151,0 8.25789,-0.768076 11.671875,-2.34375 1.741845,-0.820686 3.408748,-1.922514 4.96875,-3.1875 l -0.984375,3.5625 a 1.5313995,1.5313995 0 0 0 1.453125,1.96875 h 8.4375 a 1.5313995,1.5313995 0 0 0 1.5,-1.21875 l 6.84375,-30.65625 a 1.5313995,1.5313995 0 0 0 0,-0.04687 c 1.60623,-8.062903 0.993969,-14.432041 -2.296875,-18.796875 -3.287099,-4.359594 -9.033747,-6.374944 -16.734375,-6.375 z m 0,29.90625 h 6.46875 a 1.5313995,1.5313995 0 0 0 0,0.04687 c -1.052651,5.263055 -3.224276,9.319676 -6.46875,12.421875 -3.237471,3.054825 -6.848579,4.546884 -11.15625,4.546875 -3.133575,9e-6 -5.164401,-0.756978 -6.421875,-2.109375 -1.263155,-1.382299 -1.673321,-3.125796 -1.125,-5.8125 a 1.5313995,1.5313995 0 0 0 0,-0.04687 c 0.669886,-3.433233 2.150668,-5.542921 4.6875,-6.890625 2.538883,-1.334866 7.306081,-2.156227 14.015625,-2.15625 z" />
  <path
     style="font-style:italic;font-variant:normal;font-weight:normal;font-stretch:normal;font-size:20.89795876px;line-height:125%;font-family:sans;-inkscape-font-specification:'Abandoned Bitplane Italic';text-align:start;writing-mode:lr-tb;text-anchor:start;display:inline;opacity:0.3;fill:#000000;fill-opacity:1;stroke:none;stroke-width:1.5"
     id="path3954"
     inkscape:connector-curvature="0"
     d="m 53.42623,48.816314 c -6.826559,2.2e-5 -11.724515,0.780636 -14.693876,2.341834 -2.938795,1.561248 -4.775527,4.22451 -5.510203,7.989795 -0.612263,3.000011 -0.10716,5.387765 1.515306,7.163267 1.622428,1.7449 4.132629,2.617351 7.53061,2.617342 4.683644,9e-6 8.770373,-1.653052 12.260204,-4.959178 3.489753,-3.336723 5.785666,-7.760187 6.887752,-13.27041 l 0.41328,-1.88265 h -8.40306 M 70.967057,45.326519 64.149278,75.999987 H 55.7003 l 2.501454,-9.137757 c -2.540856,3.12245 -5.403099,5.433672 -8.586736,6.933671 -3.183701,1.469389 -6.857168,2.204082 -11.020406,2.204082 -5.265322,0 -9.153073,-1.46939 -11.663263,-4.408164 -2.510213,-2.969379 -3.275517,-6.933662 -2.295918,-11.892855 1.163256,-5.785695 3.964272,-10.147932 8.40306,-13.086732 4.469365,-2.938743 10.545889,-4.408133 18.229588,-4.408164 h 11.846937 l 0.18369,-0.826529 c 0.76523,-3.887721 0.07645,-6.887718 -2.066355,-9.000004 -2.112286,-2.142809 -5.47963,-3.214236 -10.102039,-3.214281 -2.938806,4.5e-5 -5.877581,0.35208 -8.816325,1.056123 -2.908187,0.704124 -5.785736,1.760245 -8.632653,3.168363 l 1.561224,-7.806122 c 3.336712,-1.193827 6.505077,-2.081578 9.505102,-2.663262 3.030579,-0.612193 5.923436,-0.918315 8.67857,-0.918369 7.438728,5.4e-5 12.612193,1.928624 15.520408,5.785713 2.908107,3.857187 3.581573,9.704118 2.020406,17.540819" />
  <rect
     style="color:#000000;display:inline;overflow:visible;visibility:visible;fill:url(#linearGradient3905);fill-opacity:1;fill-rule:nonzero;stroke:none;stroke-width:2;marker:none;enable-background:accumulate"
     id="rect3897"
     transform="matrix(0,1,1,0,0,0)"
     y="104"
     x="0"
     height="16"
     width="16" />
  <text
     style="font-style:normal;font-variant:normal;font-weight:normal;font-stretch:normal;font-size:4px;line-height:125%;font-family:'Liberation Sans';-inkscape-font-specification:'Liberation Sans';text-align:start;letter-spacing:0px;word-spacing:0px;writing-mode:lr-tb;text-anchor:start;fill:#000000;fill-opacity:1;stroke:none"
     xml:space="preserve"
     id="text3907"
     y="48"
     x="104"><tspan
       id="tspan3909"
       y="48"
       x="104">Shadow opacity : 30, 15, 10, (8)</tspan></text>
  <rect
     style="color:#000000;display:inline;overflow:visible;visibility:visible;fill:url(#linearGradient3913);fill-opacity:1;fill-rule:nonzero;stroke:none;stroke-width:2;marker:none;enable-background:accumulate"
     id="rect3911"
     transform="rotate(-90)"
     y="104"
     x="-40"
     height="16"
     width="16" />
  <text
     style="font-style:normal;font-variant:normal;font-weight:normal;font-stretch:normal;font-size:4px;line-height:125%;font-family:'Liberation Sans';-inkscape-font-specification:'Liberation Sans';text-align:start;letter-spacing:0px;word-spacing:0px;writing-mode:lr-tb;text-anchor:start;fill:#000000;fill-opacity:1;stroke:none"
     xml:space="preserve"
     id="text3951"
     y="32"
     x="124"><tspan
       id="tspan3953"
       y="32"
       x="124">Bevel opacity : 30 / 10</tspan></text>
  <text
     style="font-style:normal;font-variant:normal;font-weight:normal;font-stretch:normal;font-size:4px;line-height:125%;font-family:'Liberation Sans';-inkscape-font-specification:'Liberation Sans';text-align:start;letter-spacing:0px;word-spacing:0px;writing-mode:lr-tb;text-anchor:start;fill:#000000;fill-opacity:1;stroke:none"
     xml:space="preserve"
     id="text3955"
     y="8"
     x="124"><tspan
       id="tspan3957"
       y="8"
       x="124">Bevel opacity : 75 / 15</tspan></text>
  <path
     style="font-style:italic;font-variant:normal;font-weight:normal;font-stretch:normal;font-size:20.89795876px;line-height:125%;font-family:sans;-inkscape-font-specification:'Abandoned Bitplane Italic';text-align:start;writing-mode:lr-tb;text-anchor:start;display:inline;fill:url(#linearGradient3047);fill-opacity:1;stroke:none;stroke-width:1.5"
     id="path2864"
     inkscape:connector-curvature="0"
     d="m 53.42623,47.316314 c -6.826559,2.2e-5 -11.724515,0.780636 -14.693876,2.341834 -2.938795,1.561248 -4.775527,4.22451 -5.510203,7.989795 -0.612263,3.000011 -0.10716,5.387765 1.515306,7.163267 1.622428,1.7449 4.132629,2.617351 7.53061,2.617342 4.683644,9e-6 8.770373,-1.653052 12.260204,-4.959178 3.489753,-3.336723 5.785666,-7.760187 6.887752,-13.27041 l 0.41328,-1.88265 h -8.40306 M 70.967057,43.826519 64.149278,74.499987 H 55.7003 l 2.501454,-9.137757 c -2.540856,3.12245 -5.403099,5.433672 -8.586736,6.933671 -3.183701,1.469389 -6.857168,2.204082 -11.020406,2.204082 -5.265322,0 -9.153073,-1.46939 -11.663263,-4.408164 -2.510213,-2.969379 -3.275517,-6.933662 -2.295918,-11.892855 1.163256,-5.785695 3.964272,-10.147932 8.40306,-13.086732 4.469365,-2.938743 10.545889,-4.408133 18.229588,-4.408164 h 11.846937 l 0.18369,-0.826529 c 0.76523,-3.887721 0.07645,-6.887718 -2.066355,-9.000004 -2.112286,-2.142809 -5.47963,-3.214236 -10.102039,-3.214281 -2.938806,4.5e-5 -5.877581,0.35208 -8.816325,1.056123 -2.908187,0.704124 -5.785736,1.760245 -8.632653,3.168363 l 1.561224,-7.806122 c 3.336712,-1.193827 6.505077,-2.081578 9.505102,-2.663262 3.030579,-0.612193 5.923436,-0.918315 8.67857,-0.918369 7.438728,5.4e-5 12.612193,1.928624 15.520408,5.785713 2.908107,3.857187 3.581573,9.704118 2.020406,17.540819" />
  <path
     style="font-style:italic;font-variant:normal;font-weight:normal;font-stretch:normal;font-size:20.89795876px;line-height:125%;font-family:sans;-inkscape-font-specification:'Abandoned Bitplane Italic';text-align:start;writing-mode:lr-tb;text-anchor:start;display:inline;opacity:0.75;fill:#ffffff;fill-opacity:1;stroke:none;stroke-width:1.5"
     id="path3936"
     inkscape:connector-curvature="0"
     d="m 53.441506,20.499987 c -2.755134,5.4e-5 -5.641296,0.325307 -8.671875,0.9375 -3.000026,0.581684 -6.178913,1.431173 -9.515625,2.625 l -1.59375,7.828125 c 0.10716,-0.05301 0.220875,-0.08862 0.328125,-0.140625 l 1.265625,-6.1875 c 3.336712,-1.193827 6.515599,-2.043316 9.515625,-2.625 3.030579,-0.612193 5.916741,-0.937446 8.671875,-0.9375 7.438728,5.4e-5 12.60741,1.908536 15.515625,5.765625 1.76476,2.340702 2.693581,5.428193 2.8125,9.234375 0.10164,-4.499605 -0.823526,-8.096286 -2.8125,-10.734375 -2.908215,-3.857089 -8.076897,-5.765571 -15.515625,-5.765625 z m 10.125,17.15625 c -0.03639,0.709146 -0.127575,1.422374 -0.28125,2.203125 l -0.1875,0.84375 h -11.8125 c -7.683699,3.2e-5 -13.76501,1.467507 -18.234375,4.40625 -4.438788,2.9388 -7.274244,7.29243 -8.4375,13.078125 -0.320571,1.622882 -0.381281,3.137084 -0.328125,4.546875 0.05044,-0.965061 0.1197,-1.991737 0.328125,-3.046875 1.163256,-5.785695 3.998712,-10.139325 8.4375,-13.078125 4.469365,-2.938743 10.550676,-4.406218 18.234375,-4.40625 h 11.8125 l 0.1875,-0.84375 c 0.265734,-1.350051 0.366193,-2.567173 0.28125,-3.703125 z m -2.0625,11.15625 -0.09375,0.375 c -1.102086,5.510223 -3.400872,9.928902 -6.890625,13.265625 -3.489831,3.306126 -7.550732,4.968759 -12.234375,4.96875 -3.397982,9e-6 -5.924447,-0.880099 -7.546875,-2.625 -1.014042,-1.109689 -1.593275,-2.443239 -1.734375,-4.03125 -0.157016,2.250962 0.416121,4.088655 1.734375,5.53125 1.622428,1.744901 4.148893,2.625009 7.546875,2.625 4.683643,9e-6 8.744544,-1.662624 12.234375,-4.96875 3.489753,-3.336723 5.788539,-7.755402 6.890625,-13.265625 l 0.421875,-1.875 z m -3.28125,18.046875 c -0.1925,0.236561 -0.413187,0.429002 -0.609375,0.65625 l -1.921875,6.984375 h 0.421875 z" />
  <path
     style="font-style:italic;font-variant:normal;font-weight:normal;font-stretch:normal;font-size:20.89795876px;line-height:125%;font-family:sans;-inkscape-font-specification:'Abandoned Bitplane Italic';text-align:start;writing-mode:lr-tb;text-anchor:start;display:inline;opacity:0.15;fill:#000000;fill-opacity:1;stroke:none;stroke-width:1.5"
     id="path3945"
     inkscape:connector-curvature="0"
     d="m 51.144631,26.171862 c -2.938806,4.5e-5 -5.873756,0.327207 -8.8125,1.03125 -2.798717,0.677619 -5.601777,1.717263 -8.34375,3.046875 l -0.328125,1.640625 c 2.846917,-1.408117 5.763688,-2.483376 8.671875,-3.1875 2.938744,-0.704043 5.873694,-1.031205 8.8125,-1.03125 4.622409,4.5e-5 7.965838,1.044692 10.078125,3.1875 1.398697,1.378773 2.184084,3.161646 2.34375,5.296875 0.14484,-2.82202 -0.631269,-5.108788 -2.34375,-6.796875 -2.112287,-2.142808 -5.455716,-3.187455 -10.078125,-3.1875 z m 20.625,9.328125 c -0.04697,2.07933 -0.303455,4.366893 -0.796875,6.84375 l -6.84375,30.65625 h -8.015625 l -0.421875,1.5 h 8.4375 l 6.84375,-30.65625 c 0.613785,-3.081063 0.873919,-5.877816 0.796875,-8.34375 z m -18.328125,10.3125 c -6.826559,2.3e-5 -11.749389,0.782552 -14.71875,2.34375 -2.938796,1.561248 -4.749699,4.203465 -5.484375,7.96875 -0.229599,1.125005 -0.319035,2.187818 -0.234375,3.140625 0.03624,-0.519453 0.11958,-1.078123 0.234375,-1.640625 0.734676,-3.765285 2.545579,-6.407502 5.484375,-7.96875 2.969361,-1.561198 7.892191,-2.343727 14.71875,-2.34375 h 8.0625 l 0.328125,-1.5 z m -29.15625,15.421875 c -0.186648,3.57077 0.64887,6.521774 2.625,8.859375 2.51019,2.938775 6.406552,4.40625 11.671875,4.40625 4.163238,0 7.831924,-0.733735 11.015625,-2.203125 2.94244,-1.386357 5.622259,-3.508968 8.015625,-6.28125 l 0.609375,-2.15625 c -2.540856,3.12245 -5.441363,5.437502 -8.625,6.9375 -3.183701,1.46939 -6.852387,2.203125 -11.015625,2.203125 -5.265323,0 -9.161685,-1.467475 -11.671875,-4.40625 -1.688753,-1.997658 -2.515724,-4.461135 -2.625,-7.359375 z" />
</svg>
