<?xml version="1.0" encoding="UTF-8" standalone="no"?>
<!-- Created with Inkscape (http://www.inkscape.org/) -->

<svg
   xmlns:dc="http://purl.org/dc/elements/1.1/"
   xmlns:cc="http://creativecommons.org/ns#"
   xmlns:rdf="http://www.w3.org/1999/02/22-rdf-syntax-ns#"
   xmlns:svg="http://www.w3.org/2000/svg"
   xmlns="http://www.w3.org/2000/svg"
   xmlns:xlink="http://www.w3.org/1999/xlink"
   xmlns:sodipodi="http://sodipodi.sourceforge.net/DTD/sodipodi-0.dtd"
   xmlns:inkscape="http://www.inkscape.org/namespaces/inkscape"
   width="96"
   height="96"
   id="svg2408"
   sodipodi:version="0.32"
   inkscape:version="0.92.4 5da689c313, 2019-01-14"
   version="1.0"
   sodipodi:docname="dialog-information-symbolic.svg"
   inkscape:output_extension="org.inkscape.output.svg.inkscape">
  <defs
     id="defs2410">
    <linearGradient
       id="linearGradient3665">
      <stop
         id="stop3667"
         offset="0"
         style="stop-color:#3e5e8e;stop-opacity:1;" />
      <stop
         id="stop3669"
         offset="1"
         style="stop-color:#89a4cb;stop-opacity:1;" />
    </linearGradient>
    <linearGradient
       inkscape:collect="always"
       id="linearGradient3739">
      <stop
         style="stop-color:#ffffff;stop-opacity:1;"
         offset="0"
         id="stop3742" />
      <stop
         style="stop-color:#ffffff;stop-opacity:0;"
         offset="1"
         id="stop3744" />
    </linearGradient>
    <linearGradient
       id="linearGradient3731">
      <stop
         id="stop3733"
         offset="0"
         style="stop-color:#dcdcdc;stop-opacity:1;" />
      <stop
         style="stop-color:#ebebeb;stop-opacity:1;"
         offset="0.30654153"
         id="stop3757" />
      <stop
         style="stop-color:#ffffff;stop-opacity:1"
         offset="0.70706075"
         id="stop3737" />
      <stop
         id="stop3759"
         offset="0.84501493"
         style="stop-color:#fafafa;stop-opacity:1" />
      <stop
         id="stop3735"
         offset="1"
         style="stop-color:#f0f0f0;stop-opacity:1;" />
    </linearGradient>
    <linearGradient
       id="linearGradient2881">
      <stop
         style="stop-color:#3e5e8e;stop-opacity:1;"
         offset="0"
         id="stop2883" />
      <stop
         style="stop-color:#89a4cb;stop-opacity:1;"
         offset="1"
         id="stop2885" />
    </linearGradient>
    <linearGradient
       id="linearGradient3771">
      <stop
         style="stop-color:#000000;stop-opacity:1;"
         offset="0"
         id="stop3773" />
      <stop
         style="stop-color:#000000;stop-opacity:0;"
         offset="1"
         id="stop3775" />
    </linearGradient>
    <linearGradient
       id="linearGradient3697">
      <stop
         style="stop-color:#dcdcdc;stop-opacity:1;"
         offset="0"
         id="stop3699" />
      <stop
         style="stop-color:#f0f0f0;stop-opacity:1;"
         offset="1"
         id="stop3701" />
    </linearGradient>
    <linearGradient
       id="linearGradient3627">
      <stop
         style="stop-color:#0b3879;stop-opacity:1;"
         offset="0"
         id="stop3629" />
      <stop
         style="stop-color:#1151b1;stop-opacity:1;"
         offset="1"
         id="stop3631" />
    </linearGradient>
    <linearGradient
       id="linearGradient3614">
      <stop
         id="stop3616"
         offset="0"
         style="stop-color:#65a31b;stop-opacity:1;" />
      <stop
         id="stop3618"
         offset="1"
         style="stop-color:#a0de42;stop-opacity:1;" />
    </linearGradient>
    <linearGradient
       id="ButtonShadow"
       gradientTransform="scale(1.0058652,0.994169)"
       x1="45.447727"
       y1="92.539597"
       x2="45.447727"
       y2="7.0165396"
       gradientUnits="userSpaceOnUse">
      <stop
         style="stop-color:#000000;stop-opacity:1;"
         offset="0"
         id="stop3750" />
      <stop
         style="stop-color:#000000;stop-opacity:0.58823532;"
         offset="1"
         id="stop3752" />
    </linearGradient>
    <linearGradient
       inkscape:collect="always"
       id="linearGradient3737">
      <stop
         style="stop-color:#ffffff;stop-opacity:1;"
         offset="0"
         id="stop3739" />
      <stop
         style="stop-color:#ffffff;stop-opacity:0;"
         offset="1"
         id="stop3741" />
    </linearGradient>
    <linearGradient
       id="linearGradient3700">
      <stop
         style="stop-color:#194d93;stop-opacity:1;"
         offset="0"
         id="stop3702" />
      <stop
         style="stop-color:#5a9bf3;stop-opacity:1;"
         offset="1"
         id="stop3704" />
    </linearGradient>
    <inkscape:perspective
       sodipodi:type="inkscape:persp3d"
       inkscape:vp_x="0 : 526.18109 : 1"
       inkscape:vp_y="0 : 1000 : 0"
       inkscape:vp_z="744.09448 : 526.18109 : 1"
       inkscape:persp3d-origin="372.04724 : 350.78739 : 1"
       id="perspective2416" />
    <linearGradient
       inkscape:collect="always"
       xlink:href="#linearGradient3700"
       id="linearGradient3706"
       x1="48"
       y1="90"
       x2="48"
       y2="5.9877172"
       gradientUnits="userSpaceOnUse" />
    <linearGradient
       inkscape:collect="always"
       xlink:href="#linearGradient3737"
       id="linearGradient3743"
       x1="36.357143"
       y1="6"
       x2="36.357143"
       y2="63.893143"
       gradientUnits="userSpaceOnUse" />
    <clipPath
       clipPathUnits="userSpaceOnUse"
       id="clipPath3613">
      <rect
         ry="6"
         rx="6"
         y="6"
         x="6"
         height="84"
         width="84"
         id="rect3615"
         style="fill:#ffffff;fill-opacity:1;fill-rule:nonzero;stroke:none" />
    </clipPath>
    <clipPath
       clipPathUnits="userSpaceOnUse"
       id="clipPath3644">
      <path
         style="fill:url(#linearGradient3648);fill-opacity:1;fill-rule:nonzero;stroke:none"
         d="m 12,96 c -3.324,0 -6,2.676 -6,6 l 0,72 c 0,3.324 2.676,6 6,6 l 72,0 c 3.324,0 6,-2.676 6,-6 l 0,-72 c 0,-3.324 -2.676,-6 -6,-6 l -72,0 z m 36,11 c 18.225397,0 33,12.08831 33,27 0,14.91169 -14.774603,27 -33,27 -2.713933,0 -5.351493,-0.27575 -7.875,-0.78125 -3.392649,3.54119 -9.783335,8.23332 -19.40625,7.1875 7.429736,-2.10018 8.999125,-8.24125 9.34375,-10.75 C 20.99976,151.84346 15,143.49844 15,134 15,119.08831 29.774603,107 48,107 z"
         id="path3646" />
    </clipPath>
    <linearGradient
       inkscape:collect="always"
       xlink:href="#linearGradient3614"
       id="linearGradient3648"
       gradientUnits="userSpaceOnUse"
       gradientTransform="translate(0,90)"
       x1="48"
       y1="90"
       x2="48"
       y2="5.9877172" />
    <clipPath
       clipPathUnits="userSpaceOnUse"
       id="clipPath3662">
      <path
         style="opacity:0.6;fill:#ff0000;fill-opacity:1;stroke:none"
         d="m 48,97 c -18.225397,0 -33,12.08831 -33,27 0,9.49844 5.99976,17.84346 15.0625,22.65625 -0.344625,2.50875 -1.914014,8.64982 -9.34375,10.75 9.622915,1.04582 16.013601,-3.64631 19.40625,-7.1875 C 42.648507,150.72425 45.286067,151 48,151 66.225397,151 81,138.91169 81,124 81,109.08831 66.225397,97 48,97 z"
         id="path3664" />
    </clipPath>
    <linearGradient
       inkscape:collect="always"
       xlink:href="#linearGradient3697"
       id="linearGradient3703"
       x1="46.125015"
       y1="63.048103"
       x2="46.125015"
       y2="24.840103"
       gradientUnits="userSpaceOnUse" />
    <linearGradient
       inkscape:collect="always"
       xlink:href="#linearGradient3697"
       id="linearGradient3761"
       gradientUnits="userSpaceOnUse"
       x1="46.125015"
       y1="63.048103"
       x2="46.125015"
       y2="24.840103" />
    <linearGradient
       inkscape:collect="always"
       xlink:href="#linearGradient3731"
       id="linearGradient3664"
       gradientUnits="userSpaceOnUse"
       x1="48.082497"
       y1="75.561722"
       x2="46.654823"
       y2="16.972879"
       gradientTransform="translate(0,1)" />
    <linearGradient
       inkscape:collect="always"
       xlink:href="#linearGradient3739"
       id="linearGradient3746"
       x1="15"
       y1="48.272731"
       x2="81"
       y2="48.272731"
       gradientUnits="userSpaceOnUse" />
    <inkscape:perspective
       id="perspective2877"
       inkscape:persp3d-origin="0.5 : 0.33333333 : 1"
       inkscape:vp_z="1 : 0.5 : 1"
       inkscape:vp_y="0 : 1000 : 0"
       inkscape:vp_x="0 : 0.5 : 1"
       sodipodi:type="inkscape:persp3d" />
    <linearGradient
       y2="90.238609"
       x2="32.251034"
       y1="6.1317081"
       x1="32.251034"
       gradientTransform="matrix(1.0238095,0,0,1.0119048,-1.1428571,-98.071429)"
       gradientUnits="userSpaceOnUse"
       id="linearGradient3026"
       xlink:href="#ButtonShadow-0"
       inkscape:collect="always" />
    <linearGradient
       id="ButtonShadow-0"
       gradientTransform="matrix(1.0058652,0,0,0.994169,100,0)"
       x1="45.447727"
       y1="92.539597"
       x2="45.447727"
       y2="7.0165396"
       gradientUnits="userSpaceOnUse">
      <stop
         style="stop-color:#000000;stop-opacity:1;"
         offset="0"
         id="stop3750-8" />
      <stop
         style="stop-color:#000000;stop-opacity:0.58823532;"
         offset="1"
         id="stop3752-5" />
    </linearGradient>
    <linearGradient
       id="linearGradient2886"
       gradientTransform="matrix(1.0058652,0,0,0.994169,100,0)"
       x1="45.447727"
       y1="92.539597"
       x2="45.447727"
       y2="7.0165396"
       gradientUnits="userSpaceOnUse">
      <stop
         style="stop-color:#000000;stop-opacity:1;"
         offset="0"
         id="stop2888" />
      <stop
         style="stop-color:#000000;stop-opacity:0.58823532;"
         offset="1"
         id="stop2890" />
    </linearGradient>
    <linearGradient
       id="linearGradient2893"
       gradientTransform="matrix(1.0058652,0,0,0.994169,100,0)"
       x1="45.447727"
       y1="92.539597"
       x2="45.447727"
       y2="7.0165396"
       gradientUnits="userSpaceOnUse">
      <stop
         style="stop-color:#000000;stop-opacity:1;"
         offset="0"
         id="stop2895" />
      <stop
         style="stop-color:#000000;stop-opacity:0.58823532;"
         offset="1"
         id="stop2897" />
    </linearGradient>
    <linearGradient
       id="linearGradient2900"
       gradientTransform="matrix(1.0058652,0,0,0.994169,100,0)"
       x1="45.447727"
       y1="92.539597"
       x2="45.447727"
       y2="7.0165396"
       gradientUnits="userSpaceOnUse">
      <stop
         style="stop-color:#000000;stop-opacity:1;"
         offset="0"
         id="stop2902" />
      <stop
         style="stop-color:#000000;stop-opacity:0.58823532;"
         offset="1"
         id="stop2904" />
    </linearGradient>
    <linearGradient
       id="linearGradient2907"
       gradientTransform="matrix(1.0058652,0,0,0.994169,100,0)"
       x1="45.447727"
       y1="92.539597"
       x2="45.447727"
       y2="7.0165396"
       gradientUnits="userSpaceOnUse">
      <stop
         style="stop-color:#000000;stop-opacity:1;"
         offset="0"
         id="stop2909" />
      <stop
         style="stop-color:#000000;stop-opacity:0.58823532;"
         offset="1"
         id="stop2911" />
    </linearGradient>
  </defs>
  <sodipodi:namedview
     id="base"
     pagecolor="#ffffff"
     bordercolor="#666666"
     borderopacity="1.0"
     inkscape:pageopacity="0.0"
     inkscape:pageshadow="2"
     inkscape:zoom="5.26"
     inkscape:cx="68.084594"
     inkscape:cy="33.234657"
     inkscape:document-units="px"
     inkscape:current-layer="layer3"
     showgrid="false"
     showborder="true"
     inkscape:showpageshadow="false"
     inkscape:window-width="1872"
     inkscape:window-height="1052"
     inkscape:window-x="48"
     inkscape:window-y="0"
     inkscape:window-maximized="1"
     inkscape:snap-global="false">
    <inkscape:grid
       type="xygrid"
       id="grid3732"
       visible="true"
       enabled="true" />
  </sodipodi:namedview>
  <metadata
     id="metadata2413">
    <rdf:RDF>
      <cc:Work
         rdf:about="">
        <dc:format>image/svg+xml</dc:format>
        <dc:type
           rdf:resource="http://purl.org/dc/dcmitype/StillImage" />
      </cc:Work>
    </rdf:RDF>
  </metadata>
  <g
     inkscape:groupmode="layer"
     id="layer3"
     inkscape:label="Bubble"
     style="display:inline">
    <path
       sodipodi:type="inkscape:offset"
       inkscape:radius="1.2010354"
       inkscape:original="M 48 14.9375 C 28.420799 14.9375 11.9375 28.085894 11.9375 45 C 11.9375 54.944956 17.913927 63.49076 26.53125 68.875 C 26.311269 69.708558 26.094771 70.562311 25.46875 71.53125 C 24.437392 73.127557 22.920756 74.606988 19.9375 75.46875 C 19.926732 75.47186 19.917056 75.465655 19.90625 75.46875 A 1.0827956 1.0827956 0 0 0 19.71875 75.53125 L 19.5625 75.59375 L 19.96875 76.59375 C 19.75792 76.095108 19.538578 75.590818 19.53125 75.59375 C 19.516595 75.599613 19.519534 75.617185 19.5 75.625 C 19.480466 75.632815 19.452104 75.650409 19.4375 75.65625 C 19.422896 75.662091 19.40625 75.65625 19.40625 75.65625 C 19.40625 75.65625 19.167913 75.803752 19.15625 75.8125 C 19.144587 75.821248 19.109378 75.832031 19.09375 75.84375 C 19.10841 75.834953 19.03125 75.875 19.03125 75.875 C 19.020002 75.881749 19.008766 75.900991 19 75.90625 C 18.98539 75.915016 18.96875 75.90625 18.96875 75.90625 C 18.96875 75.90625 18.886722 75.991208 18.875 76 C 18.863278 76.008792 18.828127 76.019529 18.8125 76.03125 C 18.796873 76.042971 18.792933 76.053738 18.78125 76.0625 C 18.769567 76.071262 18.75 76.0625 18.75 76.0625 C 18.75 76.0625 18.539988 76.300849 18.53125 76.3125 C 18.522512 76.324151 18.511722 76.328124 18.5 76.34375 C 18.493998 76.349753 18.506251 76.368748 18.5 76.375 C 18.497748 76.378002 18.470886 76.372153 18.46875 76.375 C 18.455469 76.390553 18.4375 76.40625 18.4375 76.40625 L 18.40625 76.4375 C 18.40625 76.4375 18.258766 76.64164 18.25 76.65625 C 18.241234 76.67086 18.230472 76.699215 18.21875 76.71875 C 18.207028 76.738285 18.196297 76.73534 18.1875 76.75 C 18.178703 76.76466 18.15625 76.78125 18.15625 76.78125 C 18.151991 76.78693 18.159749 76.807835 18.15625 76.8125 C 18.147502 76.824163 18.125 76.8125 18.125 76.8125 C 18.125 76.8125 18.005841 77.079146 18 77.09375 C 17.994159 77.108354 17.976565 77.136715 17.96875 77.15625 C 17.960935 77.175785 17.943365 77.172841 17.9375 77.1875 C 17.931635 77.202159 17.9375 77.21875 17.9375 77.21875 L 17.875 77.375 L 18.875 77.78125 L 19.90625 78.125 C 19.90625 78.125 17.815418 77.579158 17.8125 77.59375 C 17.809582 77.608342 17.816408 77.636716 17.8125 77.65625 C 17.808592 77.675784 17.784184 77.672835 17.78125 77.6875 C 17.778316 77.702165 17.78125 77.71875 17.78125 77.71875 L 17.75 77.875 L 18.46875 78.03125 C 18.144368 77.97733 17.750994 77.90128 17.75 77.90625 C 17.747068 77.920916 17.753906 77.949215 17.75 77.96875 C 17.746094 77.988285 17.721669 77.985407 17.71875 78 C 17.715831 78.014593 17.71875 78.03125 17.71875 78.03125 L 18.78125 78.25 L 17.6875 78.25 L 17.6875 78.4375 L 18.78125 78.4375 C 18.239951 78.446698 17.6875 78.461422 17.6875 78.46875 L 17.6875 78.53125 L 17.6875 78.5625 L 17.6875 78.59375 C 17.6875 78.59375 17.715829 78.829144 17.71875 78.84375 C 17.721671 78.858356 17.746094 78.855465 17.75 78.875 C 17.753906 78.894535 17.74707 78.922846 17.75 78.9375 C 17.75293 78.952154 17.75 78.96875 17.75 78.96875 L 17.78125 79.125 L 18.84375 78.90625 L 19.875 78.625 C 19.875 78.625 17.837908 79.329147 17.84375 79.34375 C 17.849592 79.358353 17.867187 79.355465 17.875 79.375 C 17.882813 79.394535 17.900388 79.422842 17.90625 79.4375 C 17.912112 79.452158 17.90625 79.46875 17.90625 79.46875 L 17.96875 79.625 L 18.78125 79.28125 C 18.381715 79.457671 17.966313 79.650159 17.96875 79.65625 C 17.974618 79.670916 17.992185 79.667967 18 79.6875 C 18.007815 79.707033 18.025414 79.735409 18.03125 79.75 C 18.037086 79.764591 18.03125 79.78125 18.03125 79.78125 L 19.03125 79.375 L 18.09375 79.9375 L 18.1875 80.09375 A 1.0827956 1.0827956 0 0 0 18.25 80.1875 L 18.34375 80.3125 L 19.21875 79.65625 L 20.0625 78.96875 C 20.0625 78.96875 18.457059 80.425809 18.46875 80.4375 C 18.480441 80.449191 18.515622 80.453121 18.53125 80.46875 C 18.546878 80.484379 18.550779 80.519528 18.5625 80.53125 C 18.5625 80.53125 18.707088 80.647504 18.71875 80.65625 C 18.730412 80.664996 18.734373 80.675778 18.75 80.6875 L 18.78125 80.71875 C 18.78903 80.725394 18.807556 80.714516 18.8125 80.71875 C 18.81982 80.726069 18.806663 80.744163 18.8125 80.75 L 18.84375 80.78125 L 18.96875 80.875 C 18.980473 80.883791 18.984372 80.89453 19 80.90625 C 19.015628 80.91797 19.050818 80.928738 19.0625 80.9375 C 19.074182 80.946262 19.0625 80.96875 19.0625 80.96875 C 19.0625 80.96875 19.329166 81.087917 19.34375 81.09375 C 19.358334 81.099583 19.386716 81.117184 19.40625 81.125 C 19.425784 81.132816 19.422821 81.150377 19.4375 81.15625 C 19.452179 81.162123 19.46875 81.15625 19.46875 81.15625 L 19.625 81.21875 L 19.78125 81.28125 L 20.1875 80.28125 L 20.5 79.25 C 20.5 79.25 19.985395 81.340829 20 81.34375 C 20.014605 81.346671 20.042966 81.339842 20.0625 81.34375 C 20.082034 81.347658 20.079098 81.372069 20.09375 81.375 C 20.108402 81.377931 20.125 81.375 20.125 81.375 L 20.28125 81.40625 A 1.0827956 1.0827956 0 0 0 20.40625 81.40625 A 1.0827956 1.0827956 0 0 0 20.46875 81.4375 C 20.467732 81.437484 20.563518 81.437484 20.5625 81.4375 L 20.5625 81.40625 C 30.308699 82.407929 37.142487 78.158197 41.125 74.40625 C 43.339899 74.775808 45.613708 75.0625 48 75.0625 C 67.579201 75.0625 84.0625 61.914106 84.0625 45 C 84.0625 28.085894 67.579201 14.9375 48 14.9375 z M 50.78125 30.0625 C 51.382742 30.062518 51.372693 30.049099 51.78125 30.4375 C 51.796756 30.452241 51.795696 30.452832 51.8125 30.46875 A 1.0827956 1.0827956 0 0 0 51.84375 30.5 C 52.306973 30.936524 52.187492 30.671276 52.1875 31.21875 C 52.187492 31.776317 52.271027 31.582528 51.875 31.9375 C 51.860934 31.950393 51.857002 31.956664 51.84375 31.96875 C 51.472132 32.30765 51.383006 32.343763 50.78125 32.34375 C 50.174454 32.343763 50.068254 32.308931 49.6875 31.96875 C 49.663579 31.94648 49.677188 31.956267 49.65625 31.9375 C 49.260226 31.582539 49.343746 31.77628 49.34375 31.21875 C 49.343746 30.631788 49.211089 30.912318 49.6875 30.46875 C 50.126407 30.060125 50.161966 30.062518 50.78125 30.0625 z M 47.3125 42.4375 C 47.827192 42.529684 48.448285 42.579112 48.65625 42.75 C 48.654721 42.748471 48.751628 42.845173 48.75 42.84375 C 49.008519 43.070459 49.085859 43.160341 49.125 43.25 C 49.164141 43.339659 49.187495 43.520104 49.1875 43.9375 C 49.187485 44.160764 49.219995 44.544227 49.15625 45.15625 A 1.0827956 1.0827956 0 0 0 49.125 45.1875 C 49.082935 45.692226 49.002894 46.167416 48.875 46.59375 A 1.0827956 1.0827956 0 0 0 48.875 46.625 L 47 53.25 L 47 53.28125 C 46.822837 53.903583 46.637884 54.599339 46.5 55.375 C 46.362992 56.145579 46.249978 56.83064 46.25 57.5 C 46.249991 58.21305 46.408687 59.041706 46.71875 59.84375 C 46.018521 59.750524 45.546071 59.604249 45.28125 59.375 C 44.759255 58.89851 44.812498 59.003214 44.8125 58.28125 C 44.812497 57.926482 44.814303 57.499474 44.875 57.0625 C 44.935728 56.613123 45.072846 56.047638 45.21875 55.4375 A 1.0827956 1.0827956 0 0 0 45.25 55.125 L 46.90625 49.1875 A 1.0827956 1.0827956 0 0 0 46.9375 49.15625 A 1.0827956 1.0827956 0 0 0 47.03125 48.875 A 1.0827956 1.0827956 0 0 0 47.03125 48.8125 L 47.0625 48.8125 A 1.0827956 1.0827956 0 0 0 47.0625 48.78125 C 47.072509 48.7415 47.088624 48.707334 47.09375 48.6875 A 1.0827956 1.0827956 0 0 0 47.09375 48.625 C 47.242758 48.048324 47.389516 47.453547 47.5 46.875 C 47.583514 46.437663 47.579054 46.425967 47.5 46.84375 C 47.647035 46.126519 47.749992 45.420009 47.75 44.71875 C 47.749996 44.023833 47.596645 43.22232 47.3125 42.4375 z "
       style="display:inline;opacity:0.05;fill:#000000;fill-opacity:1;stroke:none"
       id="path3724"
       d="m 48,13.736328 c -20.116904,0 -37.263672,13.56927 -37.263672,31.263672 0,10.084802 5.92826,18.685985 14.357422,24.269531 -0.157867,0.531785 -0.272504,1.048677 -0.634766,1.609375 -0.923078,1.428716 -2.119822,2.643383 -4.851562,3.433594 -0.01084,0.0026 -0.0085,-0.001 -0.01953,0.002 -0.119453,0.03065 -0.238616,0.06767 -0.351563,0.117188 l -0.11914,0.04687 a 1.2011555,1.2011555 0 0 0 -0.02539,0.01172 l -0.0059,-0.01172 c -0.0244,0.0098 -0.01219,0.02007 -0.03516,0.03125 a 1.2011555,1.2011555 0 0 0 -0.0059,0.002 1.2011555,1.2011555 0 0 0 -0.271484,0.123047 c 0,0 -0.06051,0.03727 -0.123047,0.07617 -0.02916,0.01814 -0.05653,0.03674 -0.08203,0.05273 -5.65e-4,2.59e-4 -0.0035,0.0018 -0.0039,0.002 -6.96e-4,4.37e-4 -0.0013,0.0015 -0.002,0.002 -0.02006,0.0098 -0.03025,0.01403 -0.04102,0.01953 -0.01988,0.01015 -0.03269,0.01724 -0.03711,0.01953 -6.45e-4,3.34e-4 -0.0059,0.002 -0.0059,0.002 a 1.2011555,1.2011555 0 0 0 -0.01563,0.0098 1.2011555,1.2011555 0 0 0 -0.294922,0.195313 1.2011555,1.2011555 0 0 0 -0.31836,0.253906 c 0,0 -0.05292,0.06097 -0.107421,0.123047 -0.02725,0.03104 -0.05554,0.062 -0.07813,0.08789 -0.005,0.0057 -0.0092,0.01044 -0.01367,0.01563 -10e-6,9e-6 -0.0038,0.0076 -0.0039,0.0078 -7.56e-4,0.0013 -0.02258,0.04024 -0.02734,0.04883 -0.05107,0.04736 -0.111305,0.103484 -0.111329,0.103516 l 0.04688,-0.05859 c 0.05524,-0.06469 0.05968,-0.06229 0.06836,-0.06836 v -0.002 a 1.2011555,1.2011555 0 0 0 -0.03516,0.03125 l -0.03125,0.03125 a 1.2011555,1.2011555 0 0 0 -0.123047,0.146484 c 0,0 -0.0389,0.05085 -0.07813,0.105469 -0.01961,0.02731 -0.03938,0.05579 -0.05664,0.08008 -0.0093,0.01302 -0.0374,0.06135 -0.04102,0.06445 a 1.2011555,1.2011555 0 0 0 -0.228515,0.337891 c 0,0 -0.03165,0.06749 -0.0625,0.136718 -0.01543,0.03462 -0.03038,0.06926 -0.04297,0.09766 -0.01259,0.02839 0.0173,-0.04912 -0.03906,0.0918 0.0844,-0.21102 0.03102,-0.08639 -0.02539,0.05078 -0.01382,0.02736 -0.02533,0.01353 -0.03711,0.04297 -0.0085,0.02124 0.0073,0.01267 0,0.0332 l -0.0625,0.154297 a 1.2011555,1.2011555 0 0 0 -0.08203,0.371093 c -0.0055,0.0074 -0.04297,0.05664 -0.04297,0.05664 -0.0091,0.04538 0.0033,0.01425 -0.002,0.04883 -0.0054,0.01993 -0.02525,0.0247 -0.0293,0.04492 -0.0047,0.02344 0.0035,0.01165 0,0.0332 l -0.03125,0.154297 a 1.2011555,1.2011555 0 0 0 -0.01367,0.09766 c -0.003,0.01221 -0.01511,0.01502 -0.01758,0.02734 -0.01947,0.09736 5.56e-4,0.07128 -0.002,0.136719 A 1.2011555,1.2011555 0 0 0 16.486328,78.25 v 0.1875 a 1.2011555,1.2011555 0 0 0 0.0039,0.09375 h -0.0039 v 0.03125 0.03125 a 1.2011555,1.2011555 0 0 0 0.0078,0.142578 c 0,0 0.008,0.06055 0.01563,0.123047 0.0038,0.03125 0.0082,0.06249 0.01172,0.08984 0.0035,0.02736 -0.02964,-0.115034 0.01953,0.130859 0.0023,0.01129 0.01295,0.01419 0.01563,0.02539 a 1.2011555,1.2011555 0 0 0 0.01563,0.09961 l 0.03125,0.15625 a 1.2011555,1.2011555 0 0 0 0.126953,0.341797 1.2011555,1.2011555 0 0 0 0.002,0.0078 c -4.89e-4,0.01141 -0.0039,0.07812 -0.0039,0.07812 0.01068,0.02669 0.02086,0.0141 0.0332,0.03906 a 1.2011555,1.2011555 0 0 0 0.0293,0.08594 l 0.0625,0.15625 a 1.2011555,1.2011555 0 0 0 0.0098,0.01953 1.2011555,1.2011555 0 0 0 -0.0098,0.01172 c 0.0098,0.02438 0.02007,0.0122 0.03125,0.03516 a 1.2011555,1.2011555 0 0 0 0.002,0.0059 1.2011555,1.2011555 0 0 0 0.06836,0.169922 1.2011555,1.2011555 0 0 0 0.002,0.0059 1.2011555,1.2011555 0 0 0 0.107422,0.236329 l 0.09375,0.15625 c 0.03971,0.06649 0.08265,0.131242 0.128906,0.193359 a 1.2011555,1.2011555 0 0 0 0.002,0.0039 l 0.09375,0.125 a 1.2011555,1.2011555 0 0 0 0.226563,0.228516 c 5.46e-4,0.0014 0.0098,0.02539 0.0098,0.02539 0.04712,0.04712 0.01988,0.0012 0.05859,0.03516 0.03388,0.03864 -0.01183,0.0116 0.03516,0.05859 a 1.2011555,1.2011555 0 0 0 0.09766,0.08594 c 0,0 0.03585,0.02978 0.07422,0.06055 0.01,0.008 0.02815,0.02202 0.0293,0.02344 l 0.01758,0.01758 a 1.2011555,1.2011555 0 0 0 0.02539,0.02344 c 2.87e-4,3.95e-4 0.0058,0.0078 0.0059,0.0078 l 0.03125,0.03125 a 1.2011555,1.2011555 0 0 0 0.128906,0.111329 l 0.06836,0.05078 a 1.2011555,1.2011555 0 0 0 0.38086,0.271484 c 0,0 0.06749,0.03165 0.136718,0.0625 0.03462,0.01543 0.06926,0.03038 0.09766,0.04297 0.02839,0.01259 -0.04931,-0.01737 0.0918,0.03906 -0.211292,-0.08451 -0.08641,-0.03104 0.05078,0.02539 0.02733,0.0138 0.01357,0.02535 0.04297,0.03711 0.02121,0.0085 0.01269,-0.0073 0.0332,0 l 0.154297,0.0625 0.15625,0.0625 a 1.2011555,1.2011555 0 0 0 0.371093,0.08203 c 0.0075,0.0055 0.05664,0.04297 0.05664,0.04297 0.04535,0.0091 0.01426,-0.0033 0.04883,0.002 0.01995,0.0054 0.02468,0.02525 0.04492,0.0293 0.02346,0.0047 0.01165,-0.0035 0.0332,0 l 0.154297,0.03125 a 1.2011555,1.2011555 0 0 0 0.167969,0.02148 c 0.08713,0.005 0.172631,0.005 0.259765,0 l -0.01758,-0.0039 c 0.0063,6.46e-4 0.01127,-6.4e-4 0.01758,0 -3e-6,1.19e-4 3e-6,0.0038 0,0.0039 -2.3e-5,9.05e-4 1.9e-5,0.0332 0,0.0332 0.0022,-10e-7 0.0054,10e-7 0.0098,0 0.0087,-2e-6 0.02143,0 0.0332,0 0.01178,0 0.02454,-2e-6 0.0332,0 0.0043,10e-7 0.0075,-10e-7 0.0098,0 0,0 0.002,0 0.002,0 0.0012,2e-6 0.002,0 0.002,0 l 0.04102,-0.04102 C 30.344196,83.540835 37.310423,79.4391 41.492188,75.644531 43.57429,75.976903 45.715616,76.263672 48,76.263672 68.116904,76.263672 85.263672,62.694402 85.263672,45 85.263672,27.305598 68.116904,13.736328 48,13.736328 Z M 17.623047,75.525391 c 0.0012,-8.1e-4 0.0091,-0.0094 0.0098,-0.0098 -0.001,0.0012 -0.0103,0.01081 -0.0098,0.0098 z m 0.0098,-0.0098 c 8.69e-4,-4.86e-4 0.01367,-0.01367 0.01367,-0.01367 a 1.2011555,1.2011555 0 0 0 -0.01367,0.01172 z M 50.541016,31.126953 c 0.008,0.0086 0.0076,0.01084 0.01563,0.01953 -0.0053,-0.0056 -0.0093,-0.0089 -0.01563,-0.01563 -4.6e-5,-0.0017 4.7e-5,-0.0022 0,-0.0039 z M 16.966797,76.648438 c -0.0018,0.01782 -0.0011,0.03158 -0.002,0.04687 0.0015,-0.01658 -0.0025,-0.01769 0,-0.03711 3.2e-4,-0.0025 0.0015,-0.0069 0.002,-0.0098 z m -0.0078,0.21875 c 5.53e-4,0.0068 0.0014,0.0099 0.002,0.01562 -5.55e-4,5.78e-4 -0.0014,0.0014 -0.002,0.002 -2.25e-4,-0.0034 2.26e-4,-2.9e-4 0,-0.0039 -1.68e-4,-0.0027 1.79e-4,-0.01083 0,-0.01367 z m 1.660157,5.03125 c 0.02987,0.0037 0.06209,0.01045 0.08789,0.01172 -0.0081,-1.95e-4 -0.04116,-1.7e-5 -0.04102,0 8.3e-5,1e-5 -0.03382,-0.0085 -0.04687,-0.01172 z m 0.320312,0.0078 c 1.07e-4,3.03e-4 0.0019,0.0037 0.002,0.0039 -0.01047,7.96e-4 -0.02547,-3.51e-4 -0.04102,0 0.01446,-0.0018 0.02781,-0.0019 0.03906,-0.0039 z m 1.535156,0.355469 c -5.88e-4,0.08163 -0.0017,0.291534 -0.002,0.308593 l -0.0293,0.02734 -0.183593,-0.03906 v -0.002 l -0.285157,-0.0625 0.0078,-0.0293 a 1.2011555,1.2011555 0 0 0 0.492187,-0.203125 z"
       transform="translate(0,1)" />
    <path
       sodipodi:type="inkscape:offset"
       inkscape:radius="1.0826874"
       inkscape:original="M 48 16.03125 C 28.903137 16.03125 13.03125 28.79275 13.03125 45 C 13.03125 54.812619 19.046483 63.310203 27.84375 68.5 C 27.615962 69.547432 27.230542 70.800814 26.375 72.125 C 25.225967 73.903442 23.427947 75.606431 20.15625 76.53125 A 0.98625776 0.98625776 0 0 0 20.125 76.53125 L 19.96875 76.59375 C 19.968851 76.593707 19.812403 76.656302 19.8125 76.65625 C 19.812597 76.656198 19.687408 76.75006 19.6875 76.75 C 19.687592 76.74994 19.531163 76.843817 19.53125 76.84375 C 19.531337 76.843683 19.406169 76.937574 19.40625 76.9375 C 19.406331 76.937426 19.312426 77.062581 19.3125 77.0625 C 19.312574 77.062419 19.187433 77.187587 19.1875 77.1875 C 19.187567 77.187413 19.09369 77.343842 19.09375 77.34375 C 19.09381 77.343658 18.999948 77.468847 19 77.46875 C 19.000052 77.468653 18.937456 77.625101 18.9375 77.625 L 18.875 77.78125 C 18.875035 77.781146 18.843724 77.937607 18.84375 77.9375 L 18.8125 78.09375 C 18.812517 78.093641 18.781242 78.25011 18.78125 78.25 L 18.78125 78.4375 C 18.781248 78.43739 18.781261 78.593859 18.78125 78.59375 C 18.781239 78.593641 18.81252 78.750108 18.8125 78.75 L 18.84375 78.90625 C 18.843721 78.906144 18.906288 79.062603 18.90625 79.0625 L 18.96875 79.21875 C 18.968704 79.21865 19.031305 79.375095 19.03125 79.375 L 19.125 79.53125 L 19.21875 79.65625 C 19.21868 79.656165 19.343827 79.781329 19.34375 79.78125 C 19.343673 79.781171 19.468833 79.875072 19.46875 79.875 C 19.468667 79.874928 19.593839 80.000065 19.59375 80 C 19.593661 79.999935 19.718844 80.093807 19.71875 80.09375 C 19.718656 80.093693 19.875098 80.156299 19.875 80.15625 L 20.03125 80.21875 L 20.1875 80.28125 C 20.187395 80.281218 20.343858 80.312523 20.34375 80.3125 L 20.5 80.34375 A 0.98625776 0.98625776 0 0 0 20.53125 80.34375 C 30.285877 81.403887 36.983398 76.984528 40.78125 73.28125 C 43.111995 73.691641 45.509221 73.96875 48 73.96875 C 67.096863 73.96875 82.96875 61.20725 82.96875 45 C 82.96875 28.79275 67.096863 16.03125 48 16.03125 z M 50.78125 28.96875 C 51.571643 28.968773 51.995783 29.150641 52.5625 29.6875 A 0.98625776 0.98625776 0 0 0 52.59375 29.6875 A 0.98625776 0.98625776 0 0 0 52.59375 29.71875 C 53.136285 30.230014 53.28124 30.521272 53.28125 31.21875 C 53.28124 31.928355 53.160746 32.222117 52.59375 32.75 C 52.055375 33.243462 51.579863 33.437517 50.78125 33.4375 C 49.980994 33.437517 49.488666 33.246317 48.9375 32.75 C 48.370494 32.222121 48.249995 31.928331 48.25 31.21875 C 48.249995 30.509245 48.37045 30.215459 48.9375 29.6875 C 49.506097 29.158133 49.989377 28.968773 50.78125 28.96875 z M 46.59375 41.15625 C 47.994152 41.156268 48.802871 41.461803 49.34375 41.90625 A 0.98625776 0.98625776 0 0 0 49.375 41.9375 A 0.98625776 0.98625776 0 0 0 49.46875 42.03125 C 50.093754 42.57935 50.281239 42.96374 50.28125 43.9375 C 50.281237 44.13276 50.288781 44.608878 50.21875 45.28125 C 50.169486 45.872357 50.05246 46.41886 49.90625 46.90625 L 48.03125 53.5625 C 47.858254 54.167948 47.694437 54.820294 47.5625 55.5625 C 47.429845 56.308595 47.343732 56.942071 47.34375 57.5 C 47.343735 58.652626 47.588816 59.981629 48.65625 60.84375 C 48.275202 60.900857 47.997573 61.03125 47.53125 61.03125 C 46.01492 61.03125 45.146683 60.693213 44.5625 60.1875 C 43.928441 59.608716 43.718748 59.172952 43.71875 58.28125 C 43.718747 57.881579 43.743607 57.402228 43.8125 56.90625 C 43.881831 56.393212 44.006813 55.812414 44.15625 55.1875 L 44.125 55.1875 L 45.96875 48.625 A 0.98625776 0.98625776 0 0 0 45.96875 48.59375 L 46 48.59375 A 0.98625776 0.98625776 0 0 0 46 48.53125 C 46.011397 48.48756 46.02002 48.449701 46.03125 48.40625 C 46.185213 47.810543 46.332227 47.238757 46.4375 46.6875 C 46.439317 46.677985 46.435702 46.665752 46.4375 46.65625 C 46.577011 45.983289 46.656243 45.337811 46.65625 44.71875 C 46.656243 43.616634 46.458075 42.386596 45.53125 41.5 C 45.466458 41.438029 45.380138 41.430135 45.3125 41.375 C 45.738064 41.2948 46.226536 41.156258 46.59375 41.15625 z "
       style="display:inline;opacity:0.05;fill:#000000;fill-opacity:1;stroke:none"
       id="path3720"
       d="m 48,14.949219 c -19.579201,0 -36.050781,13.136675 -36.050781,30.050781 0,9.945302 5.973986,18.488844 14.591797,23.873047 -0.220009,0.832781 -0.450876,1.696245 -1.076172,2.664062 -1.035762,1.603125 -2.561648,3.077291 -5.570313,3.9375 -6.77e-4,1.94e-4 -0.0013,-1.93e-4 -0.002,0 a 1.0827956,1.0827956 0 0 0 -0.169922,0.05078 l -0.15625,0.0625 0.826172,2.001953 c 0,0 -0.834954,-1.998051 -0.849609,-1.992188 -0.01466,0.0059 -0.03515,0.01367 -0.05469,0.02148 -0.01953,0.0078 -0.03813,0.01564 -0.05273,0.02148 -0.0146,0.0058 -0.02539,0.0098 -0.02539,0.0098 0,0 -0.255915,0.145549 -0.267578,0.154297 -0.01166,0.0087 -0.02734,0.02148 -0.04297,0.0332 -0.0065,0.0049 -0.01131,0.009 -0.01758,0.01367 -0.0099,0.0059 -0.01859,0.01115 -0.0293,0.01758 -0.01954,0.01172 -0.04008,0.02248 -0.05469,0.03125 -0.01461,0.0088 -0.02344,0.01563 -0.02344,0.01563 0,0 -0.101559,0.06738 -0.113281,0.07617 -0.01172,0.0088 -0.02734,0.02148 -0.04297,0.0332 -0.01563,0.01172 -0.03129,0.02249 -0.04297,0.03125 -0.01168,0.0088 -0.01953,0.01563 -0.01953,0.01563 0,0 -0.221731,0.222724 -0.230468,0.234375 -0.0087,0.01165 -0.01953,0.02734 -0.03125,0.04297 -0.0035,0.0035 -0.0062,0.0062 -0.0098,0.0098 -0.01563,0.01563 -0.03129,0.03129 -0.04297,0.04297 -0.01168,0.01168 -0.01953,0.01953 -0.01953,0.01953 0,0 -0.168969,0.217812 -0.177734,0.232422 -0.0088,0.01461 -0.01953,0.03515 -0.03125,0.05469 -0.0064,0.01071 -0.01163,0.01939 -0.01758,0.0293 -0.0047,0.0063 -0.0088,0.01103 -0.01367,0.01758 -0.01172,0.01563 -0.02446,0.03131 -0.0332,0.04297 -0.0087,0.01166 -0.01563,0.02148 -0.01563,0.02148 0,0 -0.142596,0.25688 -0.148437,0.271485 -0.0058,0.0146 -0.01367,0.0332 -0.02148,0.05273 -0.0078,0.01954 -0.01562,0.04003 -0.02148,0.05469 -0.0059,0.01466 -0.0098,0.02344 -0.0098,0.02344 l -0.0625,0.15625 2.03125,0.748047 c 0,0 -2.088879,-0.547795 -2.091797,-0.533203 -0.0029,0.01459 -0.0078,0.0332 -0.01172,0.05273 -0.0039,0.01953 -0.0068,0.04002 -0.0098,0.05469 -0.0029,0.01466 -0.0059,0.02344 -0.0059,0.02344 l -0.03125,0.15625 2.132812,0.378907 c 0,0 -2.133786,-0.368182 -2.136718,-0.353516 -0.0029,0.01467 -0.0078,0.0332 -0.01172,0.05273 -0.0039,0.01954 -0.0068,0.04009 -0.0098,0.05469 -0.0029,0.01459 -0.0059,0.02344 -0.0059,0.02344 L 17.699219,78.25 v 0.1875 l 2.164062,-0.01953 c 0,0 -2.164063,0.03027 -2.164062,0.04492 1e-6,0.01466 -1e-6,0.0332 0,0.05273 1e-6,0.01954 0,0.04009 0,0.05469 -1e-6,0.0146 0,0.02344 0,0.02344 0,0 0.02247,0.221723 0.02539,0.236328 0.0029,0.01461 0.0059,0.03515 0.0098,0.05469 0.0039,0.01953 0.0088,0.03808 0.01172,0.05273 0.0029,0.01465 0.0039,0.02539 0.0039,0.02539 l 0.03125,0.15625 2.107422,-0.498047 c 0,0 -2.046857,0.696334 -2.041016,0.710937 0.0058,0.0146 0.01367,0.03515 0.02148,0.05469 0.0078,0.01954 0.01562,0.03808 0.02148,0.05273 0.0059,0.01466 0.0098,0.02539 0.0098,0.02539 l 0.0625,0.15625 1.990234,-0.855469 c 0,0 -1.986336,0.86424 -1.980469,0.878906 0.0059,0.01467 0.01367,0.03515 0.02148,0.05469 0.0078,0.01953 0.01565,0.03814 0.02148,0.05273 0.0058,0.01459 0.0098,0.02539 0.0098,0.02539 l 0.07813,0.154297 0.09375,0.15625 a 1.0827956,1.0827956 0 0 0 0.0625,0.09375 l 0.09375,0.125 1.701172,-1.337891 c 0,0 -1.593723,1.460965 -1.582032,1.472656 0.01169,0.01169 0.02734,0.02734 0.04297,0.04297 0.01563,0.01563 0.03125,0.03125 0.04297,0.04297 0.01172,0.01172 0.01953,0.01953 0.01953,0.01953 0,0 0.123104,0.106488 0.134766,0.115234 0.01166,0.0087 0.02734,0.01953 0.04297,0.03125 0.0035,0.0035 0.0062,0.0062 0.0098,0.0098 0.01563,0.01563 0.03129,0.03129 0.04297,0.04297 0.01167,0.01167 0.01953,0.01953 0.01953,0.01953 0,0 0.123043,0.106443 0.134766,0.115234 0.01172,0.0088 0.02734,0.01953 0.04297,0.03125 0.01563,0.01172 0.03129,0.02444 0.04297,0.0332 0.01168,0.0088 0.01953,0.01563 0.01953,0.01563 0,0 0.258854,0.142604 0.273438,0.148437 0.01458,0.0058 0.0332,0.01367 0.05273,0.02148 0.01953,0.0078 0.04001,0.01561 0.05469,0.02148 0.01468,0.0059 0.02344,0.0098 0.02344,0.0098 l 0.15625,0.0625 0.15625,0.0625 0.71875,-2.041015 c 0,0 -0.518511,2.098642 -0.503906,2.101562 0.0146,0.0029 0.0332,0.0078 0.05273,0.01172 0.01953,0.0039 0.04004,0.0068 0.05469,0.0098 0.01465,0.0029 0.02344,0.0059 0.02344,0.0059 l 0.15625,0.03125 a 1.0827956,1.0827956 0 0 0 0.195313,0.01953 c 0.02185,3.46e-4 0.04456,3.46e-4 0.06641,0 l -0.134766,-0.0059 C 30.247833,82.48866 37.119257,78.171501 41.125,74.398438 43.340204,74.768087 45.613354,75.050781 48,75.050781 67.579201,75.050781 84.050781,61.914106 84.050781,45 84.050781,28.085894 67.579201,14.949219 48,14.949219 Z m 2.78125,15.101562 c 0.624321,1.8e-5 0.577565,-0.01346 1.037109,0.421875 a 1.0827956,1.0827956 0 0 0 0.0059,0.0039 1.0827956,1.0827956 0 0 0 0.02734,0.0293 c 0.463224,0.436524 0.347649,0.165417 0.347657,0.712891 -8e-6,0.583899 0.125533,0.301038 -0.341797,0.734375 -0.404288,0.370429 -0.455303,0.402357 -1.076172,0.402344 -0.622256,1.3e-5 -0.703247,-0.04116 -1.109375,-0.40625 -0.458399,-0.423326 -0.339848,-0.149756 -0.339844,-0.730469 -4e-6,-0.586962 -0.132661,-0.294713 0.34375,-0.738281 0.438908,-0.408625 0.486185,-0.42967 1.105469,-0.429688 z m -3.484375,12.359375 c 0.526059,0.0911 1.142899,0.157662 1.353516,0.330078 0.03524,0.03562 0.06774,0.0725 0.105468,0.105469 0.258519,0.226709 0.322188,0.322451 0.361329,0.412109 0.03914,0.08966 0.08203,0.262292 0.08203,0.679688 -1.5e-5,0.223264 0.0071,0.620399 -0.05664,1.232422 a 1.0827956,1.0827956 0 0 0 -0.002,0.02148 c -0.04207,0.504726 -0.14359,0.977964 -0.271484,1.404297 a 1.0827956,1.0827956 0 0 0 -0.0059,0.01758 l -1.875,6.65625 c -0.179457,0.628387 -0.352629,1.318438 -0.492187,2.103516 -0.137009,0.770579 -0.234397,1.457593 -0.234375,2.126953 -10e-6,0.719333 0.146094,1.548971 0.46289,2.357422 -0.693976,-0.09128 -1.170956,-0.252964 -1.435547,-0.478516 -0.508002,-0.462687 -0.488282,-0.381953 -0.488281,-1.097656 -2e-6,-0.354768 0.02329,-0.789588 0.08398,-1.226562 a 1.0827956,1.0827956 0 0 0 0,-0.0039 c 0.06073,-0.449377 0.178315,-1.00119 0.324218,-1.611328 a 1.0827956,1.0827956 0 0 0 0.0293,-0.207031 l 1.726563,-6.148438 a 1.0827956,1.0827956 0 0 0 0,-0.002 1.0827956,1.0827956 0 0 0 0.113281,-0.396484 1.0827956,1.0827956 0 0 0 0.002,-0.0078 c 0.154181,-0.59655 0.305687,-1.188922 0.419922,-1.787109 0.08351,-0.437337 0.08101,-0.450986 0.002,-0.0332 l -0.0039,0.01953 c 0.150905,-0.727922 0.240226,-1.44677 0.240234,-2.158203 -4e-6,-0.705774 -0.146059,-1.512312 -0.441406,-2.308594 z"
       transform="translate(0,1)" />
    <path
       sodipodi:type="inkscape:offset"
       inkscape:radius="0.98615915"
       inkscape:original="M 48 17.03125 C 29.340321 17.03125 14.03125 29.439569 14.03125 45 C 14.03125 54.666704 20.029295 63.089309 28.96875 68.09375 C 28.758232 69.286384 28.317427 70.955747 27.21875 72.65625 C 25.963676 74.59882 23.92866 76.481895 20.4375 77.46875 A 0.98224108 0.98224108 0 0 0 20.625 79.375 C 30.315483 80.428166 36.870683 75.879082 40.46875 72.25 C 42.897609 72.704466 45.403113 72.96875 48 72.96875 C 66.659679 72.96875 81.96875 60.560431 81.96875 45 C 81.96875 29.439569 66.659679 17.03125 48 17.03125 z M 50.78125 27.96875 C 51.788945 27.968779 52.546032 28.301872 53.25 28.96875 A 0.98224108 0.98224108 0 0 0 53.28125 28.96875 C 53.994082 29.63246 54.281237 30.303059 54.28125 31.21875 C 54.281237 32.134518 53.994056 32.805115 53.28125 33.46875 C 52.580936 34.11993 51.797412 34.437521 50.78125 34.4375 C 49.76506 34.437521 48.965082 34.122217 48.25 33.46875 C 47.537175 32.805115 47.249994 32.134507 47.25 31.21875 C 47.249994 30.30307 47.537149 29.632459 48.25 28.96875 C 48.968676 28.299659 49.773526 27.968779 50.78125 27.96875 z M 46.59375 40.15625 C 48.241002 40.156271 49.370409 40.566177 50.125 41.25 A 0.98224108 0.98224108 0 0 0 50.125 41.28125 C 50.914201 41.973343 51.281237 42.758991 51.28125 43.9375 C 51.281233 44.187436 51.260414 44.674946 51.1875 45.375 C 51.132171 46.038875 51.00776 46.640775 50.84375 47.1875 L 48.96875 53.84375 C 48.804632 54.418127 48.657432 55.040168 48.53125 55.75 C 48.404795 56.461223 48.343735 57.026958 48.34375 57.5 C 48.343737 58.530183 48.535589 59.460261 49.28125 60.0625 C 49.996004 60.639827 50.893635 60.75 51.96875 60.75 C 52.292833 60.75 52.671075 60.651051 53.03125 60.59375 C 52.010395 60.984022 51.00781 61.368641 50.34375 61.59375 A 0.98224108 0.98224108 0 0 0 50.3125 61.59375 C 49.547712 61.865963 48.63787 62.03125 47.53125 62.03125 C 45.856174 62.03125 44.702489 61.626785 43.90625 60.9375 C 43.102203 60.210637 42.718748 59.40725 42.71875 58.28125 C 42.718747 57.807841 42.771841 57.29894 42.84375 56.78125 C 42.917917 56.232429 43.030864 55.623769 43.1875 54.96875 L 45.03125 48.375 A 0.98224108 0.98224108 0 0 0 45.03125 48.34375 C 45.205522 47.67834 45.358576 47.051087 45.46875 46.46875 C 45.600018 45.845219 45.656244 45.282058 45.65625 44.71875 C 45.656244 43.726726 45.490119 42.837063 44.84375 42.21875 C 44.18703 41.590628 43.276287 41.437523 42.15625 41.4375 C 41.819594 41.437514 41.507974 41.533782 41.1875 41.59375 C 42.043293 41.268461 42.894205 40.934079 43.6875 40.6875 A 0.98224108 0.98224108 0 0 0 43.71875 40.6875 C 44.773852 40.345324 45.716127 40.15627 46.59375 40.15625 z "
       style="display:inline;opacity:0.12000002;fill:#000000;fill-opacity:1;stroke:none"
       id="path3716"
       d="M 48,16.044922 C 28.903137,16.044922 13.044922,28.79275 13.044922,45 c 0,9.818722 5.996433,18.309197 14.802734,23.498047 -0.227937,1.046933 -0.602291,2.300103 -1.457031,3.623047 -1.149033,1.778442 -2.949006,3.473618 -6.220703,4.398437 a 0.98625776,0.98625776 0 0 0 -0.04492,0.01367 c -0.838344,0.279624 -1.422446,1.181044 -1.335938,2.060547 0.08651,0.879503 0.836133,1.64884 1.712891,1.759766 a 0.98625776,0.98625776 0 0 0 0.01563,0.002 c 9.760474,1.060772 16.476876,-3.383283 20.273438,-7.087891 2.329833,0.410075 4.719247,0.6875 7.208984,0.6875 C 67.096863,73.955078 82.955078,61.20725 82.955078,45 82.955078,28.79275 67.096863,16.044922 48,16.044922 Z m 2.78125,12.910156 c 0.790393,2.3e-5 1.224298,0.19361 1.791016,0.730469 a 0.98625776,0.98625776 0 0 0 0.05469,0.04687 c 0.528901,0.502042 0.667959,0.795709 0.667969,1.486328 -1e-5,0.709605 -0.118551,0.999461 -0.685547,1.527344 -0.548789,0.510286 -1.017449,0.705095 -1.828125,0.705078 -0.81042,1.7e-5 -1.301524,-0.198513 -1.861328,-0.708984 -0.563201,-0.525275 -0.683599,-0.815706 -0.683594,-1.523438 -5e-6,-0.709505 0.118497,-0.999384 0.685547,-1.527344 0.568597,-0.529367 1.067502,-0.736305 1.859375,-0.736328 z m -4.1875,12.1875 c 1.436989,1.8e-5 2.261316,0.337816 2.800781,0.800781 a 0.98625776,0.98625776 0 0 0 0.08008,0.08008 c 0.625004,0.548099 0.820302,0.940302 0.820313,1.914062 -1.3e-5,0.19526 -0.01786,0.663566 -0.08789,1.335938 a 0.98625776,0.98625776 0 0 0 -0.002,0.01953 c -0.04926,0.591107 -0.16043,1.123937 -0.30664,1.611328 a 0.98625776,0.98625776 0 0 0 -0.0039,0.01563 l -1.875,6.65625 c -0.172566,0.604412 -0.327319,1.261277 -0.458984,2.001953 -0.132655,0.746095 -0.203143,1.363946 -0.203125,1.921875 -1.5e-5,1.152626 0.237253,2.467957 1.304687,3.330078 0.01924,0.01554 0.0431,0.01427 0.0625,0.0293 -0.396881,0.06292 -0.702398,0.185547 -1.193359,0.185547 -1.508675,0 -2.384546,-0.346091 -2.96875,-0.847656 -0.644699,-0.585002 -0.857423,-1.017978 -0.857422,-1.916016 -2e-6,-0.399671 0.04634,-0.869257 0.115234,-1.365234 a 0.98625776,0.98625776 0 0 0 0,-0.002 c 0.06909,-0.51124 0.175603,-1.088544 0.324219,-1.710937 5.23e-4,-0.0022 0.0014,-0.0037 0.002,-0.0059 l 1.833985,-6.556641 a 0.98625776,0.98625776 0 0 0 0.03125,-0.162109 c 0.16251,-0.625426 0.312098,-1.229932 0.421875,-1.806641 v -0.0059 c 0.143333,-0.682811 0.208977,-1.320209 0.208984,-1.947266 -7e-6,-1.102116 -0.190362,-2.326295 -1.117187,-3.212891 -0.06545,-0.0626 -0.154309,-0.06547 -0.222657,-0.121093 0.428854,-0.08128 0.921336,-0.242179 1.291016,-0.242188 z"
       transform="translate(0,1)" />
    <path
       sodipodi:type="inkscape:offset"
       inkscape:radius="0.98214287"
       inkscape:original="M 48 18 C 29.774603 18 15 30.088312 15 45 C 15 54.498438 20.99976 62.843462 30.0625 67.65625 C 29.717875 70.165004 28.148486 76.306067 20.71875 78.40625 C 30.341665 79.452073 36.732351 74.759944 40.125 71.21875 C 42.648507 71.724251 45.286067 72 48 72 C 66.225397 72 81 59.911688 81 45 C 81 30.088312 66.225397 18 48 18 z M 50.78125 27 C 52.015522 27.000035 53.068914 27.427178 53.9375 28.25 C 54.821293 29.07289 55.249984 30.060687 55.25 31.21875 C 55.249984 32.376876 54.821293 33.364672 53.9375 34.1875 C 53.068914 34.995146 52.015522 35.406276 50.78125 35.40625 C 49.546954 35.406276 48.477549 34.995146 47.59375 34.1875 C 46.709932 33.364672 46.281242 32.376876 46.28125 31.21875 C 46.281242 30.060687 46.709932 29.07289 47.59375 28.25 C 48.477549 27.427178 49.546954 27.000035 50.78125 27 z M 46.59375 39.1875 C 48.407072 39.187523 49.806 39.647462 50.78125 40.53125 C 51.771713 41.399841 52.249985 42.535616 52.25 43.9375 C 52.24998 44.227043 52.23243 44.737339 52.15625 45.46875 C 52.09529 46.200194 51.964094 46.859241 51.78125 47.46875 L 49.90625 54.125 C 49.753858 54.658338 49.621894 55.251791 49.5 55.9375 C 49.37808 56.623219 49.312489 57.149528 49.3125 57.5 C 49.312489 58.383819 49.510049 58.992505 49.90625 59.3125 C 50.302429 59.632505 50.993499 59.78125 51.96875 59.78125 C 52.425879 59.78125 52.952188 59.7149 53.53125 59.5625 C 54.110282 59.394876 54.522185 59.246915 54.78125 59.125 L 54.28125 61.1875 C 52.772664 61.781781 51.555284 62.226488 50.65625 62.53125 C 49.757191 62.851255 48.719812 63 47.53125 63 C 45.702672 63 44.270947 62.57131 43.25 61.6875 C 42.244282 60.788457 41.749997 59.652679 41.75 58.28125 C 41.749997 57.747922 41.7988 57.204831 41.875 56.65625 C 41.95119 56.092455 42.051128 55.450962 42.21875 54.75 L 44.09375 48.09375 C 44.261363 47.453765 44.393328 46.845075 44.5 46.28125 C 44.6219 45.702219 44.687495 45.191148 44.6875 44.71875 C 44.687495 43.865435 44.50672 43.272758 44.15625 42.9375 C 43.805769 42.602281 43.146721 42.40627 42.15625 42.40625 C 41.668628 42.40627 41.174343 42.5039 40.65625 42.65625 C 40.153392 42.808651 39.709463 42.956627 39.34375 43.09375 L 39.84375 41.03125 C 41.078033 40.528414 42.278628 40.100498 43.40625 39.75 C 44.533863 39.384308 45.588028 39.187523 46.59375 39.1875 z "
       style="display:inline;opacity:0.23999999;fill:#000000;fill-opacity:1;stroke:none"
       id="path3712"
       d="m 48,17.017578 c -18.659679,0 -33.982422,12.421991 -33.982422,27.982422 0,9.662728 6.010034,18.078745 14.94336,23.083984 -0.210044,1.192704 -0.638053,2.865455 -1.738282,4.56836 -1.255074,1.942569 -3.280324,3.821738 -6.771484,4.808594 a 0.98224108,0.98224108 0 0 0 0.162109,1.921874 C 30.304392,80.436047 36.857169,75.863568 40.455078,72.234375 42.886653,72.689902 45.39995,72.982422 48,72.982422 66.659679,72.982422 81.982422,60.560431 81.982422,45 81.982422,29.439569 66.659679,17.017578 48,17.017578 Z m 2.78125,10.964844 c 1.007695,2.8e-5 1.7765,0.313591 2.480469,0.980469 a 0.98224108,0.98224108 0 0 0 0.0059,0.0059 c 0.712832,0.66371 0.999987,1.334309 1,2.25 -1.3e-5,0.915768 -0.287194,1.586365 -1,2.25 -0.69997,0.650354 -1.470791,0.9551 -2.486328,0.955078 -1.012553,2.1e-5 -1.804493,-0.306413 -2.517578,-0.955078 l -0.002,-0.002 c -0.711163,-0.662944 -0.998053,-1.333264 -0.998047,-2.248047 -6e-6,-0.91568 0.287148,-1.586291 1,-2.25 0.718676,-0.669091 1.509854,-0.9863 2.517578,-0.986328 z m -4.1875,12.1875 c 1.647252,2.1e-5 2.772752,0.40602 3.527344,1.089844 a 0.98224108,0.98224108 0 0 0 0.01172,0.0098 c 0.789201,0.692094 1.134754,1.48946 1.134766,2.667969 -1.7e-5,0.249936 -0.01498,0.729634 -0.08789,1.429688 a 0.98224108,0.98224108 0 0 0 -0.002,0.01953 c -0.05533,0.663875 -0.17388,1.254056 -0.33789,1.800781 a 0.98224108,0.98224108 0 0 0 -0.0039,0.01563 l -1.875,6.65625 c -0.1637,0.57346 -0.301798,1.197801 -0.427735,1.90625 -0.126454,0.711223 -0.20314,1.261333 -0.203125,1.734375 -1.3e-5,1.030183 0.213324,1.973933 0.958984,2.576172 0.714755,0.577327 1.604573,0.6875 2.679688,0.6875 0.307628,0 0.669525,-0.08912 1.009766,-0.140625 -0.987211,0.376502 -1.989148,0.758997 -2.636719,0.978515 a 0.98224108,0.98224108 0 0 0 -0.01563,0.0039 c -0.764788,0.272213 -1.688302,0.412109 -2.794922,0.412109 -1.670746,0 -2.834766,-0.382432 -3.630859,-1.068359 -0.814374,-0.730314 -1.167972,-1.535218 -1.167969,-2.667969 -3e-6,-0.473409 0.04333,-0.972545 0.115234,-1.490234 a 0.98224108,0.98224108 0 0 0 0,-0.0039 c 0.07392,-0.546996 0.168514,-1.150222 0.324219,-1.802734 5.2e-4,-0.0022 0.0014,-0.0037 0.002,-0.0059 l 1.865234,-6.619141 a 0.98224108,0.98224108 0 0 0 0.0039,-0.01758 c 0.172297,-0.657871 0.308446,-1.280594 0.417969,-1.857422 l 0.002,-0.0078 c 0.130195,-0.620322 0.207025,-1.197035 0.207031,-1.757812 -6e-6,-0.992024 -0.187616,-1.871921 -0.833984,-2.490234 -0.65672,-0.628123 -1.559651,-0.804665 -2.679688,-0.804688 -0.321534,1.3e-5 -0.617161,0.09519 -0.923828,0.150391 0.838921,-0.317782 1.686386,-0.644752 2.464844,-0.886719 a 0.98224108,0.98224108 0 0 0 0.01172,-0.0039 c 1.055102,-0.342176 2.007143,-0.513652 2.884766,-0.513672 z"
       transform="translate(0,1)" />
    <path
       style="display:inline;fill:url(#linearGradient3664);fill-opacity:1;stroke:none"
       d="m 48,18 c -18.225397,0 -33,12.088312 -33,27 0,9.498438 5.99976,17.843462 15.0625,22.65625 -0.344625,2.508754 -1.914014,8.649817 -9.34375,10.75 9.622915,1.045823 16.013601,-3.646306 19.40625,-7.1875 C 42.648507,71.724251 45.286067,72 48,72 66.225397,72 81,59.911688 81,45 81,30.088312 66.225397,18 48,18 Z m 2.78125,9 c 1.234272,3.5e-5 2.287664,0.427178 3.15625,1.25 0.883793,0.82289 1.312484,1.810687 1.3125,2.96875 -1.6e-5,1.158126 -0.428707,2.145922 -1.3125,2.96875 -0.868586,0.807646 -1.921978,1.218776 -3.15625,1.21875 -1.234296,2.6e-5 -2.303701,-0.411104 -3.1875,-1.21875 -0.883818,-0.822828 -1.312508,-1.810624 -1.3125,-2.96875 -8e-6,-1.158063 0.428682,-2.14586 1.3125,-2.96875 0.883799,-0.822822 1.953204,-1.249965 3.1875,-1.25 z m -4.1875,12.1875 c 1.813322,2.3e-5 3.21225,0.459962 4.1875,1.34375 0.990463,0.868591 1.468735,2.004366 1.46875,3.40625 -2e-5,0.289543 -0.01757,0.799839 -0.09375,1.53125 -0.06096,0.731444 -0.192156,1.390491 -0.375,2 l -1.875,6.65625 c -0.152392,0.533338 -0.284356,1.126791 -0.40625,1.8125 -0.12192,0.685719 -0.187511,1.212028 -0.1875,1.5625 -1.1e-5,0.883819 0.197549,1.492505 0.59375,1.8125 0.396179,0.320005 1.087249,0.46875 2.0625,0.46875 0.457129,0 0.983438,-0.06635 1.5625,-0.21875 0.579032,-0.167624 0.990935,-0.315585 1.25,-0.4375 l -0.5,2.0625 c -1.508586,0.594281 -2.725966,1.038988 -3.625,1.34375 C 49.757191,62.851255 48.719812,63 47.53125,63 45.702672,63 44.270947,62.57131 43.25,61.6875 c -1.005718,-0.899043 -1.500003,-2.034821 -1.5,-3.40625 -3e-6,-0.533328 0.0488,-1.076419 0.125,-1.625 0.07619,-0.563795 0.176128,-1.205288 0.34375,-1.90625 l 1.875,-6.65625 c 0.167613,-0.639985 0.299578,-1.248675 0.40625,-1.8125 0.1219,-0.579031 0.187495,-1.090102 0.1875,-1.5625 -5e-6,-0.853315 -0.18078,-1.445992 -0.53125,-1.78125 -0.350481,-0.335219 -1.009529,-0.53123 -2,-0.53125 -0.487622,2e-5 -0.981907,0.09765 -1.5,0.25 -0.502858,0.152401 -0.946787,0.300377 -1.3125,0.4375 l 0.5,-2.0625 c 1.234283,-0.502836 2.434878,-0.930752 3.5625,-1.28125 1.127613,-0.365692 2.181778,-0.562477 3.1875,-0.5625 z"
       id="path3620"
       inkscape:connector-curvature="0" />
    <path
       style="display:inline;fill:url(#linearGradient3746);fill-opacity:1;stroke:none"
       d="m 48,18 c -18.225397,0 -33,12.088312 -33,27 0,0.208408 0.0255,0.417728 0.03125,0.625 C 15.915093,31.359014 30.344147,20 48,20 65.811103,20 80.318034,31.557401 80.96875,46 80.983886,45.664059 81,45.338968 81,45 81,30.088312 66.225397,18 48,18 Z m -1.59375,14.21875 c -0.07734,0.315923 -0.125002,0.653784 -0.125,1 -8e-6,1.158126 0.428682,2.145922 1.3125,2.96875 0.883799,0.807646 1.953204,1.218776 3.1875,1.21875 1.234272,2.6e-5 2.287664,-0.411104 3.15625,-1.21875 0.883793,-0.822828 1.312484,-1.810624 1.3125,-2.96875 -5e-6,-0.346216 -0.04766,-0.684077 -0.125,-1 -0.181353,0.74083 -0.567927,1.391916 -1.1875,1.96875 -0.868586,0.807646 -1.921978,1.218776 -3.15625,1.21875 -1.234296,2.6e-5 -2.303701,-0.411104 -3.1875,-1.21875 -0.619591,-0.576834 -1.006154,-1.22792 -1.1875,-1.96875 z m -4.25,10.1875 c -0.31552,1.3e-5 -0.643006,0.05487 -0.96875,0.125 -0.44524,0.165332 -0.887309,0.31405 -1.34375,0.5 l -0.5,2.0625 c 0.365713,-0.137123 0.809642,-0.285099 1.3125,-0.4375 0.518093,-0.15235 1.012378,-0.24998 1.5,-0.25 0.990471,2e-5 1.649519,0.196031 2,0.53125 0.197387,0.18882 0.349747,0.459797 0.4375,0.8125 0.05642,-0.361246 0.09375,-0.713815 0.09375,-1.03125 -5e-6,-0.853315 -0.18078,-1.445992 -0.53125,-1.78125 -0.350481,-0.335219 -1.009529,-0.53123 -2,-0.53125 z m 10.03125,2.75 c -0.01103,0.131118 -0.01567,0.162879 -0.03125,0.3125 -0.06096,0.731444 -0.192156,1.390491 -0.375,2 l -1.875,6.65625 c -0.152392,0.533338 -0.284356,1.126791 -0.40625,1.8125 -0.12192,0.685719 -0.187511,1.212028 -0.1875,1.5625 -5e-6,0.373673 0.05429,0.694464 0.125,0.96875 0.02578,-0.172785 0.02686,-0.330815 0.0625,-0.53125 0.121894,-0.685709 0.253858,-1.279162 0.40625,-1.8125 l 1.875,-6.65625 c 0.182844,-0.609509 0.31404,-1.268556 0.375,-2 0.07618,-0.731411 0.09373,-1.241707 0.09375,-1.53125 -3e-6,-0.273456 -0.02585,-0.528053 -0.0625,-0.78125 z M 41.8125,59.0625 c -0.04575,0.408569 -0.0625,0.819338 -0.0625,1.21875 -3e-6,1.371429 0.494282,2.507207 1.5,3.40625 1.020947,0.88381 2.452672,1.3125 4.28125,1.3125 1.188562,0 2.225941,-0.148745 3.125,-0.46875 0.899034,-0.304762 2.116414,-0.749469 3.625,-1.34375 l 0.5,-2.0625 c -0.259065,0.121915 -0.670968,0.269876 -1.25,0.4375 -0.188753,0.04968 -0.354276,0.06168 -0.53125,0.09375 -0.841033,0.317027 -1.761977,0.677786 -2.34375,0.875 C 49.757191,62.851255 48.719812,63 47.53125,63 45.702672,63 44.270947,62.57131 43.25,61.6875 42.446722,60.969424 41.971987,60.082069 41.8125,59.0625 Z m -12.125,10.375 c -0.788875,2.925833 -2.942108,7.265183 -8.96875,8.96875 1.438598,0.156348 2.798846,0.170865 4.09375,0.09375 3.95088,-2.735394 4.981412,-6.888521 5.25,-8.84375 -0.129197,-0.06861 -0.247056,-0.148711 -0.375,-0.21875 z"
       id="path3666"
       inkscape:connector-curvature="0" />
  </g>
</svg>
